<svg xmlns="http://www.w3.org/2000/svg" viewBox="0 0 64 64"><defs><style>.cls-1{fill:#1a1a1a;opacity:0;}.cls-2{fill:#37b9ff;}.cls-3{fill:#1778ff;}.cls-4{fill:#ebf0f2;}.cls-5{fill:#fff;}</style></defs><title>Lucky Block Blue</title><g id="Layer_2" data-name="Layer 2"><g id="Layer_3" data-name="Layer 3"><rect class="cls-1" width="64" height="64"/><polygon class="cls-2" points="22.03 17.81 4.5 8.74 5.49 45.72 22.33 59.15 22.03 17.81"/><polygon class="cls-2" points="59.5 12.8 38.81 4.85 4.5 8.74 22.03 17.81 59.5 12.8"/><polygon class="cls-3" points="22.03 17.81 22.33 59.15 58.16 51.68 59.5 12.8 22.03 17.81"/><path class="cls-4" d="M36.84,34.82l.32-.42c4.62-1.24,6.25-2.62,6.25-4.33v0c0-1.36-1.07-2-3-1.65a11.31,11.31,0,0,0-5.82,3.7l-4-4.53a17.28,17.28,0,0,1,10.32-6.08c5.86-1.07,10,1.36,10,6.54v.08c0,5-3.35,7.79-7.77,9.68l-.48,2.64-4.82.88ZM36.2,43.9l7.85-1.44v6.78L36.2,50.68Z"/><path class="cls-5" d="M11,28.83l.14-.19C13.22,30,14,29.7,14,28.19v0a3.8,3.8,0,0,0-1.4-3,1.87,1.87,0,0,0-2.63.21L8.23,19.58c1-1.27,2.51-1.7,4.6-.2,2.79,2,4.83,6.37,4.83,11.09v.07c0,4.57-1.67,5.12-3.8,4.28l-.23,2-2.22-1.94Zm-.29,7.43,3.63,3.22v6l-3.63-3.41Z"/></g></g></svg>