<svg xmlns="http://www.w3.org/2000/svg" viewBox="0 0 64 64"><defs><style>.cls-1{fill:#1a1a1a;opacity:0;}.cls-2{fill:#fff;}</style></defs><title>Lucky Block Flat White</title><g id="Layer_2" data-name="Layer 2"><g id="Layer_3" data-name="Layer 3"><rect class="cls-1" width="64" height="64"/><path class="cls-2" d="M38.09,5,6.32,8.62a2,2,0,0,0-1.77,2l.9,33.74a3,3,0,0,0,1.13,2.27L21.23,58.35a3,3,0,0,0,2.48.59l32.91-6.86a2,2,0,0,0,1.59-1.89l1.24-35.88a2,2,0,0,0-1.28-1.94L39.5,5.19A3.09,3.09,0,0,0,38.09,5ZM14.3,45.55l-3.63-3.41V36.35l3.63,3.21Zm3.36-14.93c0,4.57-1.67,5.12-3.8,4.28L13.63,37,11.41,35,11,28.91l.14-.19C13.22,30.1,14,29.78,14,28.27v0a3.8,3.8,0,0,0-1.4-3,1.88,1.88,0,0,0-2.63.21L8.23,19.66c1-1.27,2.51-1.7,4.6-.2,2.79,2,4.83,6.38,4.83,11.09Zm26.39,18.7L36.2,50.76V44l7.85-1.44Zm6.86-21.15c0,5-3.35,7.79-7.78,9.68l-.47,2.64-4.82.88-1-6.47.32-.42c4.62-1.24,6.25-2.62,6.25-4.33v0c0-1.36-1.07-2-3-1.65a11.39,11.39,0,0,0-5.81,3.7l-4-4.53a17.28,17.28,0,0,1,10.32-6.08c5.86-1.07,10,1.36,10,6.54Z"/></g></g></svg>