<svg xmlns="http://www.w3.org/2000/svg" xmlns:xlink="http://www.w3.org/1999/xlink" viewBox="0 0 64 64"><defs><style>.cls-1{isolation:isolate;}.cls-2{fill:#1a1a1a;opacity:0;}.cls-3{fill:url(#linear-gradient);}.cls-4{fill:#a0f;opacity:0.2;mix-blend-mode:multiply;}.cls-5{fill:#ebf0f2;}.cls-6,.cls-7{fill:#fff;}.cls-7{opacity:0.5;mix-blend-mode:hard-light;}</style><linearGradient id="linear-gradient" x1="4.54" y1="41.72" x2="56.45" y2="19.42" gradientUnits="userSpaceOnUse"><stop offset="0" stop-color="blue"/><stop offset="0.05" stop-color="#0039ff"/><stop offset="0.12" stop-color="#007fff"/><stop offset="0.18" stop-color="#00b6ff"/><stop offset="0.23" stop-color="#00deff"/><stop offset="0.27" stop-color="#00f6ff"/><stop offset="0.3" stop-color="aqua"/><stop offset="0.5" stop-color="lime"/><stop offset="0.7" stop-color="#ff0"/><stop offset="0.73" stop-color="#fff600"/><stop offset="0.77" stop-color="#ffde00"/><stop offset="0.82" stop-color="#ffb600"/><stop offset="0.88" stop-color="#ff7f00"/><stop offset="0.95" stop-color="#ff3900"/><stop offset="1" stop-color="red"/></linearGradient></defs><title>Lucky Block Rainbow</title><g class="cls-1"><g id="Layer_2" data-name="Layer 2"><g id="Layer_3" data-name="Layer 3"><rect class="cls-2" width="64" height="64"/><polygon class="cls-3" points="38.81 4.85 4.5 8.74 5.49 45.72 22.33 59.15 58.16 51.68 59.5 12.8 38.81 4.85"/><polygon class="cls-4" points="22.03 17.81 22.33 59.15 58.16 51.68 59.5 12.8 22.03 17.81"/><path class="cls-5" d="M36.84,34.82l.32-.42c4.62-1.24,6.25-2.62,6.25-4.33v0c0-1.36-1.07-2-3-1.65a11.31,11.31,0,0,0-5.82,3.7l-4-4.53a17.28,17.28,0,0,1,10.32-6.08c5.86-1.07,10,1.36,10,6.54v.08c0,5-3.35,7.79-7.77,9.68l-.48,2.64-4.82.88ZM36.2,43.9l7.85-1.44v6.78L36.2,50.68Z"/><path class="cls-6" d="M11,28.83l.14-.19C13.22,30,14,29.7,14,28.19v0a3.8,3.8,0,0,0-1.4-3,1.87,1.87,0,0,0-2.63.21L8.23,19.58c1-1.27,2.51-1.7,4.6-.2,2.79,2,4.83,6.37,4.83,11.09v.07c0,4.57-1.67,5.12-3.8,4.28l-.23,2-2.22-1.94Zm-.29,7.43,3.63,3.22v6l-3.63-3.41Z"/><polygon class="cls-7" points="22.03 17.81 4.5 8.74 38.81 4.85 59.5 12.8 22.03 17.81"/></g></g></g></svg>