<?xml version="1.0" encoding="UTF-8"?>
<svg id="Layer_2" data-name="Layer 2" xmlns="http://www.w3.org/2000/svg" viewBox="0 0 64 64">
  <defs>
    <style>
      .cls-1, .cls-2 {
        fill: #1a1a1a;
      }

      .cls-1, .cls-2, .cls-3, .cls-4, .cls-5 {
        stroke-width: 0px;
      }

      .cls-2 {
        opacity: 0;
      }

      .cls-3 {
        fill: #1778ff;
      }

      .cls-4 {
        fill: #96dbff;
      }

      .cls-5 {
        fill: #37b9ff;
      }
    </style>
  </defs>
  <g id="Exports_1" data-name="Exports 1">
    <g>
      <rect class="cls-2" width="64" height="64"/>
      <g>
        <path class="cls-1" d="M32,6.58C14.04,6.58.5,13.51.5,22.68c0,10.02,4.7,19.31,12.67,25.25.37,2.25,1.67,4.24,3.65,5.38,4.65,2.68,9.9,4.1,15.18,4.1s10.52-1.42,15.17-4.1c1.98-1.14,3.28-3.14,3.65-5.38,7.98-5.94,12.67-15.22,12.67-25.25,0-9.18-13.54-16.1-31.5-16.1Z"/>
        <path class="cls-3" d="M45.18,49.85c1.68-.97,2.27-3.32,1.3-5.15-3.98-7.55-9.01-21.55-14.48-21.55s-10.5,14-14.48,21.55c-.96,1.83-.38,4.18,1.3,5.15,3.95,2.28,8.43,3.56,13.18,3.56s9.23-1.29,13.18-3.56Z"/>
        <g>
          <path class="cls-5" d="M32,34.78c-15.19,0-27.5-5.42-27.5-12.1,0,15.19,12.31,27.5,27.5,27.5s27.5-12.31,27.5-27.5c0,6.68-12.31,12.1-27.5,12.1Z"/>
          <ellipse class="cls-4" cx="32" cy="22.68" rx="27.5" ry="12.1"/>
        </g>
        <path class="cls-3" d="M41.31,34.07c-2.09,6.87-5.89,12.56-10.68,16.08.45.02.91.03,1.37.03,15.19,0,27.5-12.31,27.5-27.5,0,5.24-7.58,9.71-18.19,11.39Z"/>
        <g>
          <path class="cls-3" d="M21.69,15.39c-6.55,1.32-10.98,3.86-10.98,6.77,0,3.07,4.92,5.72,12.04,6.97-.72-3.63-1.11-7.47-1.11-11.45,0-.77.02-1.54.05-2.3Z"/>
          <path class="cls-5" d="M53.29,22.16c0-4.28-9.53-7.74-21.29-7.74-3.74,0-7.25.35-10.31.97-.03.76-.05,1.53-.05,2.3,0,3.98.39,7.81,1.11,11.45,2.8.49,5.93.77,9.25.77,11.76,0,21.29-3.47,21.29-7.74Z"/>
        </g>
      </g>
    </g>
  </g>
</svg>