<?xml version="1.0" encoding="UTF-8"?>
<svg id="Layer_2" data-name="Layer 2" xmlns="http://www.w3.org/2000/svg" viewBox="0 0 64 64">
  <defs>
    <style>
      .cls-1, .cls-2 {
        fill: #1a1a1a;
        stroke-width: 0px;
      }

      .cls-2 {
        opacity: 0;
      }
    </style>
  </defs>
  <g id="Exports_1" data-name="Exports 1">
    <g>
      <rect class="cls-2" width="64" height="64"/>
      <path class="cls-1" d="M59.5,22.68c0-6.68-12.31-12.1-27.5-12.1S4.5,16,4.5,22.68c0,9.71,5.04,18.24,12.65,23.14-.3,1.58.33,3.25,1.68,4.03,3.95,2.28,8.43,3.56,13.18,3.56s9.23-1.29,13.18-3.56c1.35-.78,1.98-2.45,1.68-4.03,7.6-4.89,12.65-13.42,12.65-23.14ZM32,29.9c-3.31,0-6.45-.28-9.25-.77-7.12-1.25-12.04-3.9-12.04-6.97s4.43-5.45,10.98-6.77c3.05-.62,6.57-.97,10.31-.97,11.76,0,21.29,3.47,21.29,7.74s-9.53,7.74-21.29,7.74Z"/>
    </g>
  </g>
</svg>