<?xml version="1.0" encoding="UTF-8"?>
<svg id="Layer_2" data-name="Layer 2" xmlns="http://www.w3.org/2000/svg" viewBox="0 0 64 64">
  <defs>
    <style>
      .cls-1, .cls-2 {
        fill: #1a1a1a;
        stroke-width: 0px;
      }

      .cls-2 {
        opacity: 0;
      }
    </style>
  </defs>
  <g id="Exports_2" data-name="Exports 2">
    <g>
      <rect class="cls-2" width="64" height="64"/>
      <path class="cls-1" d="M59.14,35.44l-7.48-18.06-2.9-7c-1-2.41-3.76-3.55-6.17-2.56L7.42,22.39c-2.41,1-3.55,3.76-2.56,6.17l1.22,2.95s0,0,0,0l9.16,22.11c1,2.41,3.76,3.55,6.17,2.56l35.18-14.57c2.41-1,3.55-3.76,2.56-6.17ZM15.36,37.31c-.55.23-1.19-.03-1.41-.59l-1.78-4.3c-.23-.55.03-1.18.59-1.41l5.66-2.34c.55-.23,1.19.03,1.41.59l1.78,4.3c.23.55-.03,1.19-.59,1.41l-5.66,2.34ZM16.72,43.42l-.29-.69c-.16-.39.02-.84.41-1l6.24-2.59c.39-.16.84.02,1,.41l.29.69c.16.39-.02.84-.41,1l-6.24,2.59c-.39.16-.84-.02-1-.41ZM30.78,43.58l-11.24,4.66c-.39.16-.84-.02-1-.41l-.29-.69c-.16-.39.02-.84.41-1l11.24-4.66c.39-.16.84.02,1,.41l.29.69c.16.39-.02.84-.41,1ZM32.8,37.59l-6.24,2.59c-.39.16-.84-.02-1-.41l-.29-.69c-.16-.39.02-.84.41-1l6.24-2.59c.39-.16.84.02,1,.41l.29.69c.16.39-.02.84-.41,1ZM33.41,19l-.74-1.8c-.23-.55.03-1.19.59-1.41l10.66-4.41c.55-.23,1.19.03,1.41.59l.74,1.8c.23.55-.03,1.18-.59,1.41l-10.66,4.41c-.55.23-1.19-.03-1.41-.59ZM41.63,33.93l-6.24,2.59c-.39.16-.84-.02-1-.41l-.29-.69c-.16-.39.02-.84.41-1l6.24-2.59c.39-.16.84.02,1,.41l.29.69c.16.39-.02.84-.41,1ZM50.47,30.27l-6.24,2.59c-.39.16-.84-.02-1-.41l-.29-.69c-.16-.39.02-.84.41-1l6.24-2.59c.39-.16.84.02,1,.41l.29.69c.16.39-.02.84-.41,1Z"/>
    </g>
  </g>
</svg>