<?xml version="1.0" encoding="UTF-8"?>
<svg id="Layer_2" data-name="Layer 2" xmlns="http://www.w3.org/2000/svg" viewBox="0 0 64 64">
  <defs>
    <style>
      .cls-1 {
        fill: #446273;
      }

      .cls-2 {
        fill: #bb5938;
      }

      .cls-3 {
        fill: #324652;
      }

      .cls-4 {
        fill: #d1774b;
      }

      .cls-5 {
        fill: #1a1a1a;
        opacity: 0;
      }
    </style>
  </defs>
  <g id="No_outline" data-name="No outline">
    <g id="Blackboard">
      <rect class="cls-5" width="64" height="64"/>
      <g>
        <rect class="cls-1" x="51" y="53.5" width="4" height="6" rx="1" ry="1"/>
        <rect class="cls-1" x="10" y="53.5" width="4" height="6" rx="1" ry="1"/>
        <polygon class="cls-4" points="4.5 44.5 9.5 39.5 54.5 39.5 59.5 44.5 4.5 44.5"/>
        <polygon class="cls-2" points="4.5 44.5 9.5 39.5 9.5 9.5 4.5 4.5 4.5 44.5"/>
        <polygon class="cls-4" points="59.5 4.5 54.5 9.5 9.5 9.5 4.5 4.5 59.5 4.5"/>
        <polygon class="cls-2" points="59.5 4.5 54.5 9.5 54.5 39.5 59.5 44.5 59.5 4.5"/>
        <rect class="cls-3" x="8.5" y="8.5" width="47" height="32"/>
        <rect class="cls-2" x="50.5" y="44.5" width="5" height="8"/>
        <rect class="cls-2" x="9.5" y="44.5" width="5" height="8"/>
        <rect class="cls-4" x="4.5" y="50.5" width="55" height="5" rx="1" ry="1"/>
      </g>
    </g>
  </g>
</svg>