<?xml version="1.0" encoding="UTF-8"?>
<svg id="Layer_2" data-name="Layer 2" xmlns="http://www.w3.org/2000/svg" viewBox="0 0 64 64">
  <defs>
    <style>
      .cls-1 {
        fill: #446273;
      }

      .cls-2 {
        fill: #bb5938;
      }

      .cls-3 {
        fill: #324652;
      }

      .cls-4 {
        fill: #d1774b;
      }

      .cls-5 {
        opacity: 0;
      }

      .cls-5, .cls-6 {
        fill: #1a1a1a;
      }
    </style>
  </defs>
  <g id="Outlines">
    <g id="Blackboard_Outline" data-name="Blackboard Outline">
      <rect class="cls-5" width="64" height="64"/>
      <g>
        <path class="cls-6" d="M63.5,44.5V4.5c0-2.21-1.79-4-4-4H4.5C2.29,.5,.5,2.29,.5,4.5V44.5c0,1.35,.66,2.54,1.68,3.26-1.03,.92-1.68,2.25-1.68,3.74v3c0,2.76,2.24,5,5,5h.6c.46,2.28,2.48,4,4.9,4h2c2.42,0,4.43-1.72,4.9-4h29.2c.46,2.28,2.48,4,4.9,4h2c2.42,0,4.44-1.73,4.9-4.02,2.57-.21,4.6-2.36,4.6-4.98v-3c0-1.49-.65-2.82-1.68-3.74,1.02-.73,1.68-1.92,1.68-3.26Z"/>
        <rect class="cls-1" x="51" y="53.5" width="4" height="6" rx="1" ry="1"/>
        <rect class="cls-1" x="10" y="53.5" width="4" height="6" rx="1" ry="1"/>
        <polygon class="cls-4" points="4.5 44.5 9.5 39.5 54.5 39.5 59.5 44.5 4.5 44.5"/>
        <polygon class="cls-2" points="4.5 44.5 9.5 39.5 9.5 9.5 4.5 4.5 4.5 44.5"/>
        <polygon class="cls-4" points="59.5 4.5 54.5 9.5 9.5 9.5 4.5 4.5 59.5 4.5"/>
        <polygon class="cls-2" points="59.5 4.5 54.5 9.5 54.5 39.5 59.5 44.5 59.5 4.5"/>
        <rect class="cls-3" x="8.5" y="8.5" width="47" height="32"/>
        <rect class="cls-2" x="50.5" y="44.5" width="5" height="8"/>
        <rect class="cls-2" x="9.5" y="44.5" width="5" height="8"/>
        <rect class="cls-4" x="4.5" y="50.5" width="55" height="5" rx="1" ry="1"/>
      </g>
    </g>
  </g>
</svg>