<?xml version="1.0" encoding="UTF-8"?>
<svg id="Layer_2" data-name="Layer 2" xmlns="http://www.w3.org/2000/svg" viewBox="0 0 64 64">
  <defs>
    <style>
      .cls-1, .cls-2 {
        fill: #fff;
      }

      .cls-2 {
        opacity: 0;
      }
    </style>
  </defs>
  <g id="White">
    <g id="Blackboard_2_Flat_White" data-name="Blackboard 2 Flat White">
      <rect class="cls-2" width="64" height="64"/>
      <g>
        <path class="cls-1" d="M59.5,44.5V4.5H4.5V44.5h5v6H5.5c-.55,0-1,.45-1,1v3c0,.55,.45,1,1,1h4.5v3c0,.55,.45,1,1,1h2c.55,0,1-.45,1-1v-3H51v3c0,.55,.45,1,1,1h2c.55,0,1-.45,1-1v-3h3.5c.55,0,1-.45,1-1v-3c0-.55-.45-1-1-1h-3v-6h4ZM9.5,9.5H54.5v30H9.5V9.5ZM50.5,50.5H14.5v-6H50.5v6Z"/>
        <path class="cls-1" d="M24.96,28.36c-1.27,.08-2.52,.23-3.77,.44,1.33-1.7,2.53-3.5,3.14-5.59,.54-1.85,.45-3.83-.77-5.4-1.05-1.34-2.85-2.07-4.53-2.04-1.96,.03-3.72,1.07-4.69,2.77-.97,1.68,1.63,3.19,2.59,1.51,.21-.36,.32-.53,.64-.79-.12,.1,.23-.15,.23-.15,0,0,.23-.12,.27-.15,.18-.07,.37-.13,.57-.17,.07-.01,.1-.02,.11-.03,.02,0,.05,0,.13,0,.34-.01,.57,0,.73,.03,1.28,.26,2.23,1.16,2.06,2.63-.19,1.66-1.17,3.23-2.11,4.57-1.03,1.46-2.23,2.8-3.35,4.2-.42,.53-.6,1.2-.23,1.82,.33,.56,1.06,.88,1.69,.69,2.38-.74,4.82-1.2,7.31-1.35,.81-.05,1.5-.65,1.5-1.5,0-.77-.69-1.55-1.5-1.5Z"/>
        <path class="cls-1" d="M35.92,21.61c-.38-.2-.73-.21-1.16-.15-.21,.03-.41,.08-.62,.11-.06-.48-.12-.97-.17-1.45-.04-.41-.14-.76-.44-1.06-.26-.26-.69-.46-1.06-.44-.74,.03-1.59,.66-1.5,1.5,.07,.68,.16,1.36,.24,2.04-.65,.16-1.3,.31-1.94,.49-.75,.22-1.3,1.07-1.05,1.85,.25,.76,1.04,1.28,1.85,1.05,.51-.15,1.02-.26,1.53-.39,.05,.34,.09,.68,.14,1.02,.05,.35,.4,.73,.69,.9,.32,.19,.8,.27,1.16,.15,.36-.12,.71-.34,.9-.69,.2-.38,.21-.73,.15-1.16-.03-.24-.07-.48-.1-.72,0-.04-.01-.08-.02-.12,.35-.06,.7-.14,1.05-.19,.35-.05,.73-.4,.9-.69,.19-.32,.27-.8,.15-1.16-.12-.36-.34-.71-.69-.9Z"/>
        <path class="cls-1" d="M46.04,15.83c-2.26-.43-4.52,.48-6.53,1.43-.73,.34-.92,1.4-.54,2.05,.44,.75,1.32,.88,2.05,.54,.78-.36,1.57-.68,2.4-.91,.26-.07,.76-.18,.89-.2,.1-.01,.57-.03,.82-.02,.07,0,.16,.02,.2,.03,.09,.02,.17,.04,.26,.06,.05,.01,.09,.03,.12,.04,.09,.05,.18,.11,.28,.16,0,0,0,0,0,0,.01,.01,.01,.02,.03,.04,.07,.07,.14,.15,.21,.22,.02,.02,.04,.05,.05,.07,.07,.12,.14,.24,.2,.35,.02,.03,.03,.04,.03,.06,0,.01,0,.02,.01,.04,.05,.14,.1,.28,.14,.42,.11,.37,.17,.64,.19,.95,.06,.8,0,1.29-.24,2.03-.36,1.15-1.22,2.26-2.26,2.93-1.6,1.03-3.7,1.09-5.5,1.84-.62,.26-1.1,.72-1.1,1.45s.47,1.23,1.1,1.45c2.37,.82,4.74,1.61,7.12,2.38,1.84,.59,2.63-2.3,.8-2.89-.85-.27-1.7-.57-2.55-.85,.54-.19,1.07-.42,1.56-.73,1.72-1.07,3-2.7,3.66-4.61,1.02-2.96,.19-7.63-3.42-8.31Z"/>
      </g>
    </g>
  </g>
</svg>