<?xml version="1.0" encoding="UTF-8"?>
<svg id="Layer_2" data-name="Layer 2" xmlns="http://www.w3.org/2000/svg" viewBox="0 0 64 64">
  <defs>
    <style>
      .cls-1 {
        fill: #606060;
        opacity: 0;
      }

      .cls-2 {
        fill: #1a1a1a;
      }
    </style>
  </defs>
  <g id="Black">
    <g id="Blackboard_Flat_Black" data-name="Blackboard Flat Black">
      <rect class="cls-1" width="64" height="64"/>
      <path class="cls-2" d="M59.5,44.5V4.5H4.5V44.5h5v6H5.5c-.55,0-1,.45-1,1v3c0,.55,.45,1,1,1h4.5v3c0,.55,.45,1,1,1h2c.55,0,1-.45,1-1v-3H51v3c0,.55,.45,1,1,1h2c.55,0,1-.45,1-1v-3h3.5c.55,0,1-.45,1-1v-3c0-.55-.45-1-1-1h-3v-6h4ZM9.5,9.5H54.5v30H9.5V9.5ZM50.5,50.5H14.5v-6H50.5v6Z"/>
    </g>
  </g>
</svg>