<?xml version="1.0" encoding="UTF-8"?>
<svg id="Layer_2" data-name="Layer 2" xmlns="http://www.w3.org/2000/svg" viewBox="0 0 64 64">
  <defs>
    <style>
      .cls-1 {
        fill: #fff;
      }

      .cls-2 {
        fill: #446273;
      }

      .cls-3 {
        fill: #bb5938;
      }

      .cls-4 {
        fill: #324652;
      }

      .cls-5 {
        fill: #d1774b;
      }

      .cls-6 {
        opacity: 0;
      }

      .cls-6, .cls-7 {
        fill: #1a1a1a;
      }
    </style>
  </defs>
  <g id="Outlines">
    <g id="Blackboard_2_Outline" data-name="Blackboard 2 Outline">
      <rect class="cls-6" width="64" height="64"/>
      <g>
        <path class="cls-7" d="M63.5,44.5V4.5c0-2.21-1.79-4-4-4H4.5C2.29,.5,.5,2.29,.5,4.5V44.5c0,1.35,.66,2.54,1.68,3.26-1.03,.92-1.68,2.25-1.68,3.74v3c0,2.76,2.24,5,5,5h.6c.46,2.28,2.48,4,4.9,4h2c2.42,0,4.43-1.72,4.9-4h29.2c.46,2.28,2.48,4,4.9,4h2c2.42,0,4.44-1.73,4.9-4.02,2.57-.21,4.6-2.36,4.6-4.98v-3c0-1.49-.65-2.82-1.68-3.74,1.02-.73,1.68-1.92,1.68-3.26Z"/>
        <rect class="cls-2" x="51" y="53.5" width="4" height="6" rx="1" ry="1"/>
        <rect class="cls-2" x="10" y="53.5" width="4" height="6" rx="1" ry="1"/>
        <polygon class="cls-5" points="4.5 44.5 9.5 39.5 54.5 39.5 59.5 44.5 4.5 44.5"/>
        <polygon class="cls-3" points="4.5 44.5 9.5 39.5 9.5 9.5 4.5 4.5 4.5 44.5"/>
        <polygon class="cls-5" points="59.5 4.5 54.5 9.5 9.5 9.5 4.5 4.5 59.5 4.5"/>
        <polygon class="cls-3" points="59.5 4.5 54.5 9.5 54.5 39.5 59.5 44.5 59.5 4.5"/>
        <rect class="cls-4" x="8.5" y="8.5" width="47" height="32"/>
        <rect class="cls-3" x="50.5" y="44.5" width="5" height="8"/>
        <rect class="cls-3" x="9.5" y="44.5" width="5" height="8"/>
        <rect class="cls-5" x="4.5" y="50.5" width="55" height="5" rx="1" ry="1"/>
        <g>
          <path class="cls-1" d="M16.92,20.06c.21-.36,.32-.53,.64-.79-.12,.1,.23-.15,.23-.15,0,0,.43-.22,.22-.13,.2-.08,.41-.14,.61-.18,.29-.06-.08-.02,.24-.03s.57,0,.73,.03c1.28,.26,2.23,1.16,2.06,2.63-.19,1.66-1.17,3.23-2.11,4.57-1.03,1.46-2.23,2.8-3.35,4.2-.42,.53-.6,1.2-.23,1.82,.33,.56,1.06,.88,1.69,.69,2.38-.74,4.82-1.2,7.31-1.35,.81-.05,1.5-.65,1.5-1.5,0-.77-.69-1.55-1.5-1.5-2.75,.17-5.47,.64-8.11,1.46l1.46,2.51c2.25-2.83,4.97-5.56,6.01-9.12,.54-1.85,.45-3.83-.77-5.4-1.05-1.34-2.85-2.07-4.53-2.04-1.96,.03-3.72,1.07-4.69,2.77s1.63,3.19,2.59,1.51h0Z"/>
          <g>
            <path class="cls-1" d="M30.98,20.12c.22,2.02,.47,4.04,.76,6.06,.05,.35,.4,.73,.69,.9,.32,.19,.8,.27,1.16,.15s.71-.34,.9-.69c.2-.38,.21-.73,.15-1.16-.03-.24-.07-.48-.1-.72-.02-.11-.03-.22-.05-.33,0-.06-.02-.11-.02-.17,.03,.2,.03,.24,.02,.12-.06-.46-.12-.92-.18-1.39-.12-.92-.22-1.85-.32-2.78-.04-.41-.14-.76-.44-1.06-.26-.26-.69-.46-1.06-.44-.74,.03-1.59,.66-1.5,1.5h0Z"/>
            <path class="cls-1" d="M30.07,25.55c1.8-.52,3.64-.93,5.5-1.2,.35-.05,.73-.4,.9-.69,.19-.32,.27-.8,.15-1.16s-.34-.71-.69-.9c-.38-.2-.73-.21-1.16-.15-1.86,.27-3.69,.68-5.5,1.2-.75,.22-1.3,1.07-1.05,1.85s1.04,1.28,1.85,1.05h0Z"/>
          </g>
          <path class="cls-1" d="M41.03,19.85c.78-.36,1.57-.68,2.4-.91,.26-.07,.76-.18,.89-.2,.1-.01,.57-.03,.82-.02,.13,0,.37,.07,.11,0,.12,.03,.23,.05,.35,.08,.15,.04,.29,.13,.07,.01,.11,.06,.22,.13,.33,.19,.06,.03-.16-.17,.04,.03,.07,.08,.15,.16,.23,.24,.11,.12-.06-.07-.06-.09,.03,.05,.07,.09,.1,.14,.07,.12,.14,.24,.2,.35,.13,.24-.04-.18,.04,.09,.05,.14,.1,.28,.14,.42,.11,.37,.17,.64,.19,.95,.06,.8,0,1.29-.24,2.03-.36,1.15-1.22,2.26-2.26,2.93-1.6,1.03-3.7,1.09-5.5,1.84-.62,.26-1.1,.72-1.1,1.45s.47,1.23,1.1,1.45c2.37,.82,4.74,1.61,7.12,2.38,1.84,.59,2.63-2.3,.8-2.89-2.38-.77-4.76-1.56-7.12-2.38v2.89c2.01-.84,4.27-.92,6.14-2.1,1.72-1.07,3-2.7,3.66-4.61,1.02-2.96,.19-7.63-3.42-8.31-2.26-.43-4.52,.48-6.53,1.43-.73,.34-.92,1.4-.54,2.05,.44,.75,1.32,.88,2.05,.54h0Z"/>
        </g>
      </g>
    </g>
  </g>
</svg>