<svg xmlns="http://www.w3.org/2000/svg" viewBox="0 0 64 64"><defs><style>.cls-1{fill:#1a1a1a;opacity:0;}.cls-2{fill:#e62e49;}.cls-3{fill:#ff7f7d;}.cls-4{isolation:isolate;}.cls-5{fill:#a72d3e;}.cls-6{fill:#c62d43;}.cls-7{fill:#fff;}</style></defs><title>Medpack Red</title><g id="Layer_2" data-name="Layer 2"><g id="Layer_3" data-name="Layer 3"><rect class="cls-1" width="64" height="64"/><polygon class="cls-2" points="59.5 14.22 8.88 16.36 9.22 53.41 58.49 49.77 59.5 14.22"/><polygon class="cls-3" points="59.5 14.22 52.06 10.59 4.5 12.43 8.88 16.36 59.5 14.22"/><g class="cls-4"><polygon class="cls-5" points="56 45.66 55.89 49.97 48.65 50.5 48.74 46.17 50.27 46.06 54.49 45.77 56 45.66"/><polygon class="cls-6" points="55.16 18.93 54.49 45.77 50.27 46.06 50.87 19.13 55.16 18.93"/><polygon class="cls-5" points="56.83 14.34 56.71 18.86 55.16 18.93 50.87 19.13 49.31 19.2 49.4 14.65 56.83 14.34"/><polygon class="cls-6" points="49.4 14.65 42.55 10.96 49.55 10.68 56.83 14.34 49.4 14.65"/><polygon class="cls-5" points="19.75 48.2 19.76 52.64 12.04 53.21 12.01 48.74 13.65 48.63 18.14 48.31 19.75 48.2"/><polygon class="cls-7" points="38.37 24.33 38.3 29.71 43.54 29.42 43.41 36.84 38.2 37.16 38.14 42.44 30.79 42.92 30.83 37.62 25.5 37.95 25.52 30.41 30.88 30.12 30.92 24.71 38.37 24.33"/><polygon class="cls-6" points="18.07 20.64 18.14 48.31 13.65 48.63 13.48 20.86 18.07 20.64"/><polygon class="cls-5" points="19.71 15.9 19.72 20.57 18.07 20.64 13.48 20.86 11.81 20.93 11.78 16.24 19.71 15.9"/><polygon class="cls-6" points="11.78 16.24 7.22 12.32 14.65 12.04 19.71 15.9 11.78 16.24"/><polygon class="cls-6" points="9.22 53.41 4.94 47.18 4.5 12.43 8.88 16.36 9.22 53.41"/></g></g></g></svg>