<svg xmlns="http://www.w3.org/2000/svg" viewBox="0 0 64 64"><defs><style>.cls-1{fill:#1a1a1a;opacity:0;}.cls-2{fill:#fff;}</style></defs><title>Safe Flat White</title><g id="Layer_2" data-name="Layer 2"><g id="Layer_3" data-name="Layer 3"><rect class="cls-1" width="64" height="64"/><path class="cls-2" d="M35.26,31a11.88,11.88,0,0,0-1.32,5.11,10.11,10.11,0,0,0,1.35,5.39l4.5-6Z"/><path class="cls-2" d="M46.56,26.55a6.88,6.88,0,0,0-4-.86,8.32,8.32,0,0,0-4.42,1.8l4.39,4.39Z"/><path class="cls-2" d="M38.65,44.59a6.94,6.94,0,0,0,3.47.6,8.5,8.5,0,0,0,5-2.3L43,38.78Z"/><path class="cls-2" d="M58.17,12.43,40,5.42a5.12,5.12,0,0,0-2.36-.3L6.32,8.67a2,2,0,0,0-1.77,2l.91,34.21a2,2,0,0,0,.76,1.51L20.49,57.82a5,5,0,0,0,4.14,1l32-6.67a2,2,0,0,0,1.59-1.89l1.24-35.88A2,2,0,0,0,58.17,12.43ZM41.79,49.75c-7.11.57-12.72-5.36-12.53-13.25s6.09-14.76,13.2-15.33S55.18,26.53,55,34.42,48.9,49.18,41.79,49.75Z"/><path class="cls-2" d="M45.79,35.12l4,4a11.56,11.56,0,0,0,1-4.36,10.19,10.19,0,0,0-1-4.83Z"/></g></g></svg>