<svg xmlns="http://www.w3.org/2000/svg" viewBox="0 0 64 64"><defs><style>.cls-1{fill:#1a1a1a;opacity:0;}.cls-2{fill:#7b97a6;}.cls-3{fill:#abc0c9;}.cls-4{fill:#476475;}.cls-5{fill:#d3dee3;}</style></defs><title>Safe</title><g id="Layer_2" data-name="Layer 2"><g id="Layer_3" data-name="Layer 3"><rect class="cls-1" width="64" height="64"/><polygon class="cls-2" points="22.03 17.81 4.5 8.74 5.49 45.72 22.33 59.15 22.03 17.81"/><polygon class="cls-3" points="59.5 12.8 38.81 4.85 4.5 8.74 22.03 17.81 59.5 12.8"/><polygon class="cls-4" points="22.03 17.81 22.33 59.15 58.16 51.68 59.5 12.8 22.03 17.81"/><path class="cls-2" d="M28.48,22.45l25-3.34a1.4,1.4,0,0,1,1.58,1.44l-.92,26.14A1.39,1.39,0,0,1,53.05,48l-23.9,5a1.4,1.4,0,0,1-1.68-1.36l-.2-27.79A1.39,1.39,0,0,1,28.48,22.45Z"/><path class="cls-4" d="M41,24.44C34.76,25,29.55,31,29.39,38s4.78,12.18,11,11.67,11.48-6.55,11.64-13.5S47.29,23.94,41,24.44Zm-.29,21c-4,.32-7.15-3.17-7-7.81s3.43-8.65,7.43-9,7.15,3.18,7,7.81S44.72,45.09,40.73,45.41Z"/><path class="cls-3" d="M42.42,22.74c-6.26.5-11.47,6.55-11.64,13.5s4.79,12.18,11,11.68S53.3,41.37,53.47,34.41,48.68,22.23,42.42,22.74Zm-.27,19.9c-3.49.28-6.24-2.78-6.14-6.82s3-7.56,6.48-7.84,6.24,2.77,6.15,6.82S45.64,42.35,42.15,42.64Z"/><path class="cls-5" d="M33.13,36.05c.13-5.68,4.63-10.65,10-11.09a1.76,1.76,0,0,0,1.6-1.65,1.44,1.44,0,0,0-.09-.51,9.8,9.8,0,0,0-2.24-.06c-6.26.5-11.47,6.55-11.64,13.5,0,.46,0,.9,0,1.34a1.39,1.39,0,0,0,.71.12A1.75,1.75,0,0,0,33.13,36.05Z"/><path class="cls-3" d="M27.34,34.4h0c.69-.09,1.24-.21,1.23-.9l0-7.48c0-.69-.56-.68-1.25-.61h0c-.69.08-1.24.2-1.24.89l.05,7.48C26.09,34.48,26.65,34.47,27.34,34.4Z"/><path class="cls-3" d="M28.66,42.68c0-.69-.56-.67-1.25-.6s-1.25.2-1.24.89l0,7.4c0,.68.56.68,1.25.6h0c.69-.08,1.24-.2,1.24-.89Z"/><path class="cls-5" d="M47.91,37.58l-2.27-2.42,2.47-2.88c0-.06.08-.13.13-.19a2.37,2.37,0,0,0-.48-2.86A2.47,2.47,0,0,0,46,28.4a1.74,1.74,0,0,0-.69.14,1.63,1.63,0,0,0-.62.45l-2.32,2.7-2.6-2.77a8.1,8.1,0,0,0-3.17,3.94l2.5,2.65-2.67,3.11a6,6,0,0,0,3.16,3.58L42.36,39l2.11,2.24a1.47,1.47,0,0,0,.57.38,1.63,1.63,0,0,0,.59.11,2.64,2.64,0,0,0,1.93-1,2.45,2.45,0,0,0,.49-2.92A1.24,1.24,0,0,0,47.91,37.58Z"/></g></g></svg>