<svg xmlns="http://www.w3.org/2000/svg" viewBox="0 0 128 128"><defs><style>.cls-1{fill:none;}.cls-2{fill:#666;}.cls-3{fill:gray;}.cls-4{fill:#bdccd4;}.cls-5{fill:#e62e49;}.cls-6{fill:#96dbff;}.cls-7{fill:#37b9ff;}.cls-8{fill:#a72d3e;}.cls-9{fill:#fff;}</style></defs><title>Magnifying Glass </title><g id="Layer_2" data-name="Layer 2"><g id="_14-25" data-name="14-25"><rect class="cls-1" width="128" height="128"/><path class="cls-2" d="M77.36,95.12l13.1,24.5c.55,1,4.55-.07,9-2.42s7.52-5.08,7-6.1L93.28,86.6Z"/><ellipse class="cls-3" cx="85.32" cy="90.86" rx="9.03" ry="2.08" transform="translate(-32.77 50.98) rotate(-28.14)"/><path class="cls-4" d="M74.22,80.26l6.69,12.5c.28.54,2.41,0,4.74-1.29s4-2.69,3.7-3.23l-6.69-12.5Z"/><circle class="cls-5" cx="62.53" cy="48.98" r="40.98"/><circle class="cls-6" cx="62.53" cy="48.98" r="26.39"/><path class="cls-7" d="M62.53,54.54c12.37,0,22.61-6.8,24.38-15.67a26.4,26.4,0,0,0-48.76,0C39.92,47.74,50.16,54.54,62.53,54.54Z"/><path class="cls-8" d="M62.53,71.9A26.4,26.4,0,0,1,36.2,47.24q-.06.87-.06,1.74a26.39,26.39,0,0,0,52.78,0q0-.87-.06-1.74A26.39,26.39,0,0,1,62.53,71.9Z"/><path class="cls-9" d="M55.23,37c-2.28,2.48-5.46,3.68-7.62,2.29s-2.11-5.45.75-8.58,7-3.56,8.52-1.53S57.5,34.52,55.23,37Z"/><path class="cls-9" d="M47.06,47.75c-.84,2.18-2.76,3.65-4.55,3.18s-2.72-3-1.73-5.6,3.39-3.83,5-3S47.9,45.58,47.06,47.75Z"/></g></g></svg>