<svg xmlns="http://www.w3.org/2000/svg" viewBox="0 0 128 128"><defs><style>.cls-1{fill:none;}.cls-2{fill:#1a1a1a;}.cls-3{fill:#666;}.cls-4{fill:gray;}.cls-5{fill:#bdccd4;}.cls-6{fill:#e62e49;}.cls-7{fill:#96dbff;}.cls-8{fill:#37b9ff;}.cls-9{fill:#a72d3e;}.cls-10{fill:#fff;}</style></defs><title>Magnifying Glass Outline </title><g id="Layer_2" data-name="Layer 2"><g id="_14-25" data-name="14-25"><rect class="cls-1" width="128" height="128"/><path class="cls-2" d="M112.66,106.65,99.76,82.54a8,8,0,0,0-1-1.51,48.19,48.19,0,1,0-36.18,16.4,47.12,47.12,0,0,0,7-.52,9.73,9.73,0,0,0,.62,1.44l12.9,24.12a8.8,8.8,0,0,0,8,4.53c4,0,8.92-2.31,11.5-3.69a36.57,36.57,0,0,0,6.73-4.51C115.36,113.49,113.67,108.53,112.66,106.65Z"/><path class="cls-3" d="M77.14,94.63,90,118.75c.54,1,4.48-.07,8.81-2.38s7.4-5,6.87-6L92.82,86.25Z"/><ellipse class="cls-4" cx="84.98" cy="90.44" rx="8.89" ry="2.05" transform="translate(-32.61 50.77) rotate(-28.14)"/><path class="cls-5" d="M74.05,80l6.58,12.31c.29.53,2.38,0,4.67-1.27s3.93-2.65,3.64-3.18l-6.58-12.3Z"/><circle class="cls-6" cx="62.55" cy="49.21" r="40.34"/><circle class="cls-7" cx="62.55" cy="49.21" r="25.98"/><path class="cls-8" d="M62.55,54.68c12.17,0,22.25-6.69,24-15.42a26,26,0,0,0-48,0C40.29,48,50.37,54.68,62.55,54.68Z"/><path class="cls-9" d="M62.55,71.78A26,26,0,0,1,36.63,47.5c0,.57-.07,1.14-.07,1.71a26,26,0,0,0,52,0c0-.57,0-1.14-.07-1.71A26,26,0,0,1,62.55,71.78Z"/><path class="cls-10" d="M55.35,37.42C53.12,39.86,50,41,47.85,39.67s-2.07-5.36.75-8.44,6.84-3.51,8.38-1.5S57.59,35,55.35,37.42Z"/><path class="cls-10" d="M47.31,48c-.82,2.14-2.71,3.59-4.48,3.13s-2.67-3-1.69-5.52,3.33-3.77,5-2.92S48.14,45.87,47.31,48Z"/></g></g></svg>