<svg xmlns="http://www.w3.org/2000/svg" viewBox="0 0 64 64"><defs><style>.cls-1{opacity:0;}.cls-2{fill:#1a1a1a;}.cls-3{fill:#1778ff;}.cls-4{fill:#37b9ff;}</style></defs><title>Location Pin Blue Outline</title><g id="Layer_2" data-name="Layer 2"><g id="_101-200" data-name="101-200"><g class="cls-1"><rect class="cls-2" width="64" height="64"/></g><path class="cls-2" d="M32,.5A26.09,26.09,0,0,0,5.94,26.56c0,23,23.16,35.91,24.14,36.45a4,4,0,0,0,3.84,0c1-.54,24.14-13.45,24.14-36.45A26.09,26.09,0,0,0,32,.5Zm0,33.77a7.72,7.72,0,0,1-7.71-7.71c0-.25,0-.49,0-.73,0-.09,0-.18,0-.26a5,5,0,0,1,.08-.54l.06-.24c0-.19.09-.39.12-.49a2,2,0,0,0,.08-.22l.21-.55L25,23.4c.09-.2.19-.4.29-.58l.05-.08a6,6,0,0,1,.34-.54l.06-.09a7.5,7.5,0,0,1,1-1.16,7.66,7.66,0,0,1,10.52,0,7.5,7.5,0,0,1,1,1.16l0,0c.13.19.26.39.38.59a.59.59,0,0,1,0,.08,4.87,4.87,0,0,1,.28.56c0,.05,0,.11.08.16s.14.36.2.53,0,.13.07.2a5.18,5.18,0,0,1,.14.53c0,.08,0,.15.06.24s.06.35.08.54,0,.16,0,.26,0,.49,0,.73A7.72,7.72,0,0,1,32,34.27Z"/><path class="cls-3" d="M32,4.5A22.06,22.06,0,0,0,9.94,26.56C9.94,47.45,32,59.5,32,59.5s22.06-12,22.06-32.94A22.06,22.06,0,0,0,32,4.5Zm0,33.77A11.71,11.71,0,1,1,43.71,26.56,11.71,11.71,0,0,1,32,38.27Z"/><path class="cls-4" d="M40,18a11.71,11.71,0,1,1-16,0,13.48,13.48,0,1,0,16,0Z"/></g></g></svg>