<svg xmlns="http://www.w3.org/2000/svg" viewBox="0 0 64 64"><defs><style>.cls-1{opacity:0;}.cls-2{fill:#fff;}.cls-3{fill:#fec92b;}.cls-4{fill:#fee854;}</style></defs><title>Location Pin Yellow</title><g id="Layer_2" data-name="Layer 2"><g id="_101-200" data-name="101-200"><g class="cls-1"><rect class="cls-2" width="64" height="64"/></g><path class="cls-3" d="M32,4.5A22.06,22.06,0,0,0,9.94,26.56C9.94,47.45,32,59.5,32,59.5s22.06-12,22.06-32.94A22.06,22.06,0,0,0,32,4.5Zm0,33.77A11.71,11.71,0,1,1,43.71,26.56,11.71,11.71,0,0,1,32,38.27Z"/><path class="cls-4" d="M40,18a11.71,11.71,0,1,1-16,0,13.48,13.48,0,1,0,16,0Z"/></g></g></svg>