<svg xmlns="http://www.w3.org/2000/svg" viewBox="0 0 64 64"><defs><style>.cls-1{opacity:0;}.cls-2{fill:#1a1a1a;}.cls-3{fill:#e6875c;}.cls-4{fill:#f5b47f;}.cls-5{fill:#d1523f;}</style></defs><title>Ticket_1 Outline</title><g id="Layer_2" data-name="Layer 2"><g id="Layer_3" data-name="Layer 3"><g class="cls-1"><rect class="cls-2" width="64" height="64"/></g><path class="cls-2" d="M18.83,58.6a4,4,0,0,1-3.7-2.47.07.07,0,0,0-.07,0,4,4,0,0,1-5.25-2.16L6.87,46.82A4,4,0,0,1,9,41.59a.08.08,0,0,0,0-.09,3.94,3.94,0,0,1-1.51.29,4.1,4.1,0,0,1-3.81-2.5L.81,32.19A4,4,0,0,1,3,27a.08.08,0,0,0,0-.1,4,4,0,0,1,2.16-5.22L43.64,5.7a4,4,0,0,1,5.23,2.17,3.91,3.91,0,0,1,1.51-.3,4.15,4.15,0,0,1,1.6.32,4.1,4.1,0,0,1,2.21,2.18l2.94,7.11A4,4,0,0,1,55,22.41a.06.06,0,0,0,0,.09,4,4,0,0,1,1.52-.3,4.13,4.13,0,0,1,3.8,2.51l3,7.11a4.05,4.05,0,0,1,0,3.06A4,4,0,0,1,61,37a.08.08,0,0,0,0,.1,4,4,0,0,1-2.16,5.22L20.36,58.3A4,4,0,0,1,18.83,58.6Z"/><path class="cls-3" d="M53.44,18.71,50.49,11.6a4.07,4.07,0,0,1-5.32-2.2L6.7,25.33a4.06,4.06,0,0,1-2.2,5.32l2.94,7.11a4.08,4.08,0,1,1,3.12,7.53l2.95,7.11a4.07,4.07,0,0,1,5.32,2.2L57.3,38.67a4.06,4.06,0,0,1,2.2-5.32l-2.94-7.11a4.08,4.08,0,1,1-3.12-7.53Z"/><rect class="cls-4" x="15.71" y="20.69" width="32.59" height="22.63" rx="2" transform="translate(-9.81 14.68) rotate(-22.5)"/><path class="cls-5" d="M36.87,27.31l-3.71,1.45-2.65-3a1.06,1.06,0,0,0-1.85.76l.23,4-3.64,1.6a1.06,1.06,0,0,0,.15,2l3.86,1,.39,4a1.06,1.06,0,0,0,1.94.47l2.15-3.35,3.89.85a1.06,1.06,0,0,0,1-1.71l-2.53-3.08,2-3.44A1.06,1.06,0,0,0,36.87,27.31Z"/></g></g></svg>