<svg xmlns="http://www.w3.org/2000/svg" viewBox="0 0 64 64"><defs><style>.cls-1{opacity:0;}.cls-2{fill:#fff;}.cls-3{fill:#ff8ca9;}.cls-4{fill:#ffbdc6;}.cls-5{fill:#ff608a;}</style></defs><title>Ticket Pink</title><g id="Layer_2" data-name="Layer 2"><g id="Layer_3" data-name="Layer 3"><g class="cls-1"><rect class="cls-2" width="64" height="64"/></g><path class="cls-3" d="M53.44,18.71,50.49,11.6a4.07,4.07,0,0,1-5.32-2.2L6.7,25.33a4.06,4.06,0,0,1-2.2,5.32l2.94,7.11a4.08,4.08,0,1,1,3.12,7.53l2.95,7.11a4.07,4.07,0,0,1,5.32,2.2L57.3,38.67a4.06,4.06,0,0,1,2.2-5.32l-2.94-7.11a4.08,4.08,0,1,1-3.12-7.53Z"/><rect class="cls-4" x="15.71" y="20.69" width="32.59" height="22.63" rx="2" transform="translate(-9.81 14.68) rotate(-22.5)"/><path class="cls-5" d="M36.87,27.31l-3.71,1.45-2.65-3a1.06,1.06,0,0,0-1.85.76l.23,4-3.64,1.6a1.06,1.06,0,0,0,.15,2l3.86,1,.39,4a1.06,1.06,0,0,0,1.94.47l2.15-3.35,3.89.85a1.06,1.06,0,0,0,1-1.71l-2.53-3.08,2-3.44A1.06,1.06,0,0,0,36.87,27.31Z"/></g></g></svg>