<svg xmlns="http://www.w3.org/2000/svg" viewBox="0 0 64 64"><defs><style>.cls-1{opacity:0;}.cls-2{fill:#1a1a1a;}</style></defs><title>Ticket_2 Flat Black</title><g id="Layer_2" data-name="Layer 2"><g id="Layer_4" data-name="Layer 4"><g class="cls-1"><rect class="cls-2" width="64" height="64"/></g><path class="cls-2" d="M59.5,33.35l-2.94-7.11a4.08,4.08,0,1,1-3.12-7.53L50.49,11.6a4.07,4.07,0,0,1-5.32-2.2L6.7,25.33a4.06,4.06,0,0,1-2.2,5.32l2.94,7.11a4.08,4.08,0,1,1,3.12,7.53l2.95,7.11a4.07,4.07,0,0,1,5.32,2.2L57.3,38.67A4.06,4.06,0,0,1,59.5,33.35ZM25.24,32.13l3.65-1.6-.23-4a1.06,1.06,0,0,1,1.85-.76l2.65,3,3.71-1.45a1.06,1.06,0,0,1,1.29,1.52l-2,3.44,2.53,3.08a1.06,1.06,0,0,1-1,1.71l-3.89-.85-2.15,3.35a1.06,1.06,0,0,1-1.94-.47l-.39-4-3.86-1A1.06,1.06,0,0,1,25.24,32.13Z"/></g></g></svg>