<?xml version="1.0" encoding="UTF-8"?>
<svg id="Layer_2" data-name="Layer 2" xmlns="http://www.w3.org/2000/svg" viewBox="0 0 64 64">
  <defs>
    <style>
      .cls-1 {
        fill: #324652;
      }

      .cls-1, .cls-2, .cls-3, .cls-4, .cls-5, .cls-6, .cls-7 {
        stroke-width: 0px;
      }

      .cls-2, .cls-3 {
        fill: #1a1a1a;
      }

      .cls-3 {
        opacity: 0;
      }

      .cls-4 {
        fill: #476475;
      }

      .cls-5 {
        fill: #fff;
      }

      .cls-6 {
        fill: #96dbff;
      }

      .cls-7 {
        fill: #37b9ff;
      }
    </style>
  </defs>
  <g id="Exports_1" data-name="Exports 1">
    <g>
      <rect class="cls-3" width="64" height="64"/>
      <g>
        <path class="cls-2" d="M51.58,50.99v-.47c0-.73-.13-1.45-.39-2.11l1.03-2.11c1.03-2.12,1.32-4.67.79-7l-3.65-16.23,1.5-4.11c.56-1.52.33-3.22-.59-4.54s-2.45-2.12-4.06-2.12h-1.14l-1.26-2.58c-.86-1.76-2.56-2.97-4.47-3.26v-1c0-2.73-2.22-4.96-4.96-4.96h-4.78c-2.74,0-4.96,2.22-4.96,4.96v1c-1.91.28-3.61,1.5-4.47,3.26l-1.26,2.57h-1.14c-1.62,0-3.13.79-4.06,2.11-.93,1.32-1.15,3.02-.6,4.54l1.5,4.12-3.65,16.23c-.53,2.34-.24,4.89.79,7l1.03,2.12c-.25.66-.39,1.37-.39,2.11v.47c-1.09.91-1.79,2.28-1.79,3.81v2.78c0,3.26,2.66,5.92,5.92,5.92h30.9c3.26,0,5.92-2.65,5.92-5.92v-2.78c0-1.53-.7-2.9-1.79-3.81Z"/>
        <g>
          <path class="cls-1" d="M34.39,4.5h-4.78c-.53,0-.96.43-.96.96v6.88h6.69v-6.88c0-.53-.43-.96-.96-.96Z"/>
          <polygon class="cls-6" points="43.89 20.09 20.11 20.09 15.32 41.97 20.11 51.54 43.89 51.54 48.68 41.97 43.89 20.09"/>
          <circle class="cls-7" cx="32" cy="49.52" r="6.02"/>
          <path class="cls-7" d="M26.29,44.03c-.18-1.07-.23-2.38-.14-3.58l1.68-21.69,3.82.3-1.69,21.69c-.07.91-.03,1.87.1,2.65l1.36,8.06-3.78.64-1.36-8.06Z"/>
          <path class="cls-4" d="M40.22,11.48c-.32-.66-.99-1.08-1.72-1.08h-12.99c-.73,0-1.4.42-1.72,1.08l-2.35,4.82h21.14l-2.35-4.82Z"/>
          <path class="cls-1" d="M46.21,16.3h-28.41c-.67,0-1.13.66-.9,1.29l2.18,5.98c.14.38.5.63.9.63h24.05c.4,0,.76-.25.9-.63l2.18-5.98c.23-.63-.24-1.29-.9-1.29Z"/>
          <rect class="cls-7" x="19.8" y="21.05" width="24.41" height="4.15"/>
          <path class="cls-1" d="M41.27,50.89l3.9-8.02c.27-.55.34-1.22.19-1.86l-4.87-21.68,3.74-.84,4.87,21.68c.33,1.47.15,3.06-.49,4.38l-3.9,8.02-3.45-1.68Z"/>
          <path class="cls-5" d="M36.57,40.67c0,2.52-2.05,4.57-4.57,4.57s-4.57-2.05-4.57-4.57,2.05-8.94,4.57-8.94,4.57,6.42,4.57,8.94Z"/>
          <path class="cls-1" d="M15.38,44.55c-.64-1.31-.82-2.91-.49-4.38l4.87-21.68,3.74.84-4.87,21.68c-.14.63-.07,1.31.19,1.86l3.9,8.02-3.45,1.68-3.9-8.02Z"/>
          <path class="cls-1" d="M32.57,51.45l1.36-8.06c.13-.78.17-1.74.1-2.65l-1.68-21.69,3.82-.3,1.68,21.69c.09,1.2.04,2.5-.14,3.58l-1.36,8.06-3.78-.64Z"/>
          <path class="cls-4" d="M45.66,48.6h-27.32c-1.06,0-1.92.86-1.92,1.92v5.02h31.15v-5.02c0-1.06-.86-1.92-1.92-1.92Z"/>
          <path class="cls-1" d="M48.41,53.85H15.59c-.53,0-.96.43-.96.96v2.78c0,1.06.86,1.92,1.92,1.92h30.9c1.06,0,1.92-.86,1.92-1.92v-2.78c0-.53-.43-.96-.96-.96Z"/>
        </g>
      </g>
    </g>
  </g>
</svg>