<?xml version="1.0" encoding="UTF-8"?>
<svg id="Layer_2" data-name="Layer 2" xmlns="http://www.w3.org/2000/svg" viewBox="0 0 64 64">
  <defs>
    <style>
      .cls-1 {
        fill: #ff7a6e;
      }

      .cls-1, .cls-2, .cls-3, .cls-4, .cls-5 {
        stroke-width: 0px;
      }

      .cls-6 {
        opacity: 0;
      }

      .cls-2 {
        fill: #e62e49;
      }

      .cls-3 {
        fill: #fff;
      }

      .cls-4 {
        fill: #96dbff;
      }

      .cls-5 {
        fill: #37b9ff;
      }
    </style>
  </defs>
  <g id="Exports_1" data-name="Exports 1">
    <g>
      <g class="cls-6">
        <rect class="cls-3" width="64" height="64"/>
      </g>
      <g>
        <g>
          <rect class="cls-4" x="28.26" y="19.35" width="3.27" height="12.43" transform="translate(69.12 22.5) rotate(135)"/>
          <rect class="cls-1" x="37.05" y="28.14" width="3.27" height="12.43" transform="translate(90.34 31.3) rotate(135)"/>
        </g>
        <g>
          <rect class="cls-4" x="23.63" y="23.98" width="3.27" height="12.43" transform="translate(64.49 33.67) rotate(135)"/>
          <rect class="cls-1" x="32.43" y="32.77" width="3.27" height="12.43" transform="translate(85.71 42.47) rotate(135)"/>
        </g>
        <g>
          <rect class="cls-4" x="48.16" y="17.04" width="3.27" height="12.43" transform="translate(-1.86 42.02) rotate(-45)"/>
          <rect class="cls-1" x="39.37" y="8.25" width="3.27" height="12.43" transform="translate(1.78 33.23) rotate(-45)"/>
        </g>
        <g>
          <rect class="cls-4" x="21.32" y="43.87" width="3.27" height="12.43" transform="translate(-28.7 30.9) rotate(-45)"/>
          <rect class="cls-1" x="12.53" y="35.08" width="3.27" height="12.43" transform="translate(-25.05 22.11) rotate(-45)"/>
        </g>
        <path class="cls-2" d="M42.75,43.09c-1.02,1.02-2.68,1.02-3.7,0s-1.02-2.68,0-3.7c3.39-3.39,2.91-9.38-1.07-13.36-6.02-6.02-6.5-15.33-1.07-20.76,1.02-1.02,2.68-1.02,3.7,0s1.02,2.68,0,3.7c-3.39,3.39-2.91,9.38,1.07,13.36,6.02,6.02,6.5,15.33,1.07,20.76Z"/>
        <path class="cls-5" d="M27.1,58.73c-1.02,1.02-2.68,1.02-3.7,0s-1.02-2.68,0-3.7c3.29-3.29,2.73-9.21-1.25-13.19-6.02-6.02-6.58-15.26-1.25-20.59,1.02-1.02,2.68-1.02,3.7,0s1.02,2.68,0,3.7c-3.29,3.29-2.73,9.21,1.25,13.19,6.02,6.02,6.58,15.26,1.25,20.59Z"/>
        <path class="cls-2" d="M42.75,43.09c-5.33,5.33-14.57,4.78-20.59-1.25-3.98-3.98-9.9-4.54-13.19-1.25-1.02,1.02-2.68,1.02-3.7,0s-1.02-2.68,0-3.7c5.33-5.33,14.57-4.77,20.59,1.25,3.98,3.98,9.89,4.54,13.19,1.25,1.02-1.02,2.68-1.02,3.7,0s1.02,2.68,0,3.7Z"/>
        <path class="cls-5" d="M58.73,27.1c-5.43,5.43-14.74,4.95-20.76-1.07-3.98-3.98-9.97-4.46-13.36-1.07-1.02,1.02-2.68,1.02-3.7,0s-1.02-2.68,0-3.7c5.43-5.43,14.74-4.95,20.76,1.07,3.98,3.98,9.97,4.46,13.36,1.07,1.02-1.02,2.68-1.02,3.7,0s1.02,2.68,0,3.7Z"/>
      </g>
    </g>
  </g>
</svg>