<svg xmlns="http://www.w3.org/2000/svg" viewBox="0 0 64 64"><defs><style>.cls-1,.cls-2{fill:#1a1a1a;}.cls-1{opacity:0;}.cls-3{fill:#abc0c9;}.cls-4{fill:#7b97a6;opacity:0.5;}.cls-5{fill:#d3dee3;}</style></defs><title>Spoon Outline</title><g id="Layer_2" data-name="Layer 2"><g id="Layer_3" data-name="Layer 3"><rect class="cls-1" width="64" height="64"/><path class="cls-2" d="M62.72,17.43c1.57-5.9.76-10.82-2.28-13.87A11.49,11.49,0,0,0,52.11.5C46.22.5,38.81,3.63,34.5,7.93c-5.12,5.12-7.25,11.4-5.95,17L3.5,47.6A9.13,9.13,0,1,0,16.4,60.5L39.07,35.44a14.76,14.76,0,0,0,3.27.36h0c4.79,0,9.66-2.24,13.72-6.3A28.37,28.37,0,0,0,62.72,17.43Z"/><path class="cls-3" d="M6,58H6a5.13,5.13,0,0,1,.19-7.43L35.59,24,40,28.41,13.43,57.81A5.13,5.13,0,0,1,6,58Z"/><path class="cls-3" d="M53.24,26.67c-6.21,6.21-13.71,6.59-18.11,2.2s-4-11.9,2.2-18.11C42.09,6,53.21,2,57.61,6.39S58,21.91,53.24,26.67Z"/><path class="cls-4" d="M48.36,25.83c-3.44,3.43-7.9,3.34-10.71.52s-2.91-7.27.52-10.71c2.63-2.63,9.1-4.53,11.91-1.72S51,23.2,48.36,25.83Z"/><path class="cls-5" d="M11.77,51.31,32,31.79a2.29,2.29,0,0,0,0-3.27,2.39,2.39,0,0,0-.84-.53L7.23,49.63A2.52,2.52,0,0,0,8,51.28,2.71,2.71,0,0,0,11.77,51.31Z"/></g></g></svg>