<svg xmlns="http://www.w3.org/2000/svg" viewBox="0 0 64 64"><defs><style>.cls-1,.cls-2{fill:#1a1a1a;}.cls-1{opacity:0;}</style></defs><title>Saw Black</title><g id="Layer_2" data-name="Layer 2"><g id="Finals"><rect class="cls-1" width="64" height="64"/><path class="cls-2" d="M57.44,17.41,48.27,8.25a7.08,7.08,0,0,0-10,0L34.5,12A7.06,7.06,0,0,0,33,19.75L5.09,47.63a2,2,0,0,0,0,2.85l7.1,7.1A.8.8,0,0,0,13.56,57l.11-3.92,5.76.69a1.22,1.22,0,0,0,1.35-1.17l.13-4.73,5.76.69A1.22,1.22,0,0,0,28,47.42l.13-4.73,5.75.69a1.22,1.22,0,0,0,1.36-1.17l.13-4.73,5.75.69A1.22,1.22,0,0,0,42.5,37l.13-4.73,3.17.38a7.07,7.07,0,0,0,7.85-1.46l3.79-3.79A7.08,7.08,0,0,0,57.44,17.41Zm-4.28,5.71-3.79,3.79a1,1,0,0,1-1.43,0l-9.16-9.17a1,1,0,0,1,0-1.42l3.78-3.79a1,1,0,0,1,1.43,0l9.17,9.16A1,1,0,0,1,53.16,23.12Z"/></g></g></svg>