<svg xmlns="http://www.w3.org/2000/svg" viewBox="0 0 64 64"><defs><style>.cls-1{fill:#fff;opacity:0;}.cls-2{fill:#abc0c9;}.cls-3{fill:#e62e49;}.cls-4{fill:#ff8769;}.cls-5{fill:#d3dee3;}</style></defs><title>Saw</title><g id="Layer_2" data-name="Layer 2"><g id="Finals"><rect class="cls-1" width="64" height="64"/><path class="cls-2" d="M5.09,47.63a2,2,0,0,0,0,2.85l7.1,7.1A.8.8,0,0,0,13.56,57l.11-3.92,5.76.69a1.22,1.22,0,0,0,1.35-1.17l.13-4.73,5.76.69A1.22,1.22,0,0,0,28,47.42l.13-4.73,5.75.69a1.22,1.22,0,0,0,1.36-1.17l.13-4.73,5.75.69A1.22,1.22,0,0,0,42.5,37l.13-4.73,5.5.66L34,18.76Z"/><path class="cls-3" d="M57.44,27.4l-3.79,3.79a7.08,7.08,0,0,1-10,0L34.5,22a7,7,0,0,1,0-10l3.78-3.79a7.08,7.08,0,0,1,10,0l9.17,9.16A7.08,7.08,0,0,1,57.44,27.4ZM38.78,16.32a1,1,0,0,0,0,1.42l9.16,9.17a1,1,0,0,0,1.43,0l3.79-3.79a1,1,0,0,0,0-1.43L44,12.53a1,1,0,0,0-1.43,0Z"/><ellipse class="cls-4" cx="35.33" cy="15.74" rx="2.46" ry="1.57" transform="translate(6.48 41.49) rotate(-65.76)"/><ellipse class="cls-4" cx="38.7" cy="11.57" rx="1.77" ry="1.4" transform="translate(3.15 30.76) rotate(-45)"/><path class="cls-5" d="M10.63,42.09l5.81,11.35,3,.36a1.22,1.22,0,0,0,1.35-1.17l.13-4.73,2.82.34L17.21,35.51Z"/><path class="cls-5" d="M19.72,33l7.85,15.33a1.24,1.24,0,0,0,.45-.91l.13-4.73,3.82.46L24.39,28.33Z"/></g></g></svg>