<?xml version="1.0" encoding="UTF-8"?>
<svg id="Layer_2" data-name="Layer 2" xmlns="http://www.w3.org/2000/svg" viewBox="0 0 64 64">
  <defs>
    <style>
      .cls-1 {
        opacity: 0;
      }

      .cls-2 {
        fill: #1778ff;
      }

      .cls-2, .cls-3, .cls-4, .cls-5, .cls-6 {
        stroke-width: 0px;
      }

      .cls-3 {
        fill: #cef;
      }

      .cls-4 {
        fill: #fff;
      }

      .cls-5 {
        fill: #96dbff;
      }

      .cls-6 {
        fill: #37b9ff;
      }
    </style>
  </defs>
  <g id="Exports_2" data-name="Exports 2">
    <g>
      <g class="cls-1">
        <rect class="cls-4" width="64" height="64"/>
      </g>
      <g>
        <g>
          <path class="cls-2" d="M36.84,11.12c.47,3.15,1.12,6.18,1.12,6.18-4.86-2.93-10.55-4.17-16.19-3.53-.5.05-.86.49-.81.99.02.18.09.35.2.48,1.79,2.2,3.72,4.28,5.77,6.24-10.46.69-19.4,7.6-22.09,9.83-.38.29-.46.83-.17,1.21.05.07.11.12.17.17,2.69,2.23,11.63,9.14,22.11,9.83-2.05,1.96-3.98,4.04-5.77,6.24-.32.39-.26.96.13,1.27.14.11.31.18.48.2,5.64.64,11.33-.61,16.19-3.53,0,0-.66,3.03-1.12,6.18-.05.32.17.61.48.66.03,0,.06,0,.08,0h0c.54,0,1.08-.1,1.59-.28,4.4-1.64,12.93-6.8,12.93-21.26s-8.51-19.63-12.93-21.26c-.51-.19-1.05-.29-1.59-.28-.32,0-.58.24-.59.56,0,.03,0,.07,0,.1Z"/>
          <path class="cls-6" d="M41.75,23.6c6.22,0,8.77,3.76,8.77,8.4s-2.55,8.4-8.77,8.4c-4.79,0-14.68-4.99-18.96-7.28-.9-.48-.9-1.76,0-2.24,4.28-2.29,14.17-7.28,18.96-7.28Z"/>
          <path class="cls-4" d="M58.81,36.45c.46-2.63.69-5.3.69-7.97,0-2.68-.23-5.35-.69-7.98-.14-.77-.75-1.36-1.51-1.5-5.28-.92-10.67-.92-15.95,0-.77.14-1.37.73-1.51,1.5-.92,5.28-.92,10.68,0,15.96.13.77.73,1.37,1.5,1.5,1.16.2,2.25.36,3.38.47l-3.79,3.49-.52.49c-.33.3-.39.79-.15,1.16.34.5.73.96,1.16,1.39.26.26.66.34,1,.2l.55-.22h0l2.16-.88-.28,2.05h0l-.64,4.66c-.05.39.15.77.5.95.65.31,1.35.51,2.07.59.44.05.86-.22.99-.64l1.56-4.73,1.56,4.76c.13.42.55.69.99.64.73-.06,1.44-.25,2.11-.56.35-.18.55-.56.5-.95l-.64-4.66h0l-.28-2.05,2.16.88h0l.55.22c.34.14.74.06,1-.2.43-.42.82-.88,1.16-1.39.24-.37.18-.86-.14-1.16l-.54-.49-3.79-3.49c1.16-.1,2.26-.27,3.38-.47.78-.15,1.37-.79,1.47-1.57Z"/>
        </g>
        <path class="cls-4" d="M32.18,18.56l-4.49-1.77-1.77-4.49c-.37-.94-1.69-.94-2.06,0l-1.77,4.49-4.49,1.77c-.94.37-.94,1.69,0,2.06l4.49,1.77,1.77,4.49c.37.94,1.69.94,2.06,0l1.77-4.49,4.49-1.77c.94-.37.94-1.69,0-2.06Z"/>
        <path class="cls-3" d="M18.68,30.85l-2.55-1.01-1.01-2.55c-.21-.53-.96-.53-1.17,0l-1.01,2.55-2.55,1.01c-.53.21-.53.96,0,1.17l2.55,1.01,1.01,2.55c.21.53.96.53,1.17,0l1.01-2.55,2.55-1.01c.53-.21.53-.96,0-1.17Z"/>
        <circle class="cls-5" cx="34.98" cy="39.18" r="2.27"/>
      </g>
    </g>
  </g>
</svg>