<?xml version="1.0" encoding="UTF-8"?>
<svg id="Layer_2" data-name="Layer 2" xmlns="http://www.w3.org/2000/svg" viewBox="0 0 64 64">
  <defs>
    <style>
      .cls-1 {
        opacity: 0;
      }

      .cls-2 {
        fill: #fff;
        stroke-width: 0px;
      }
    </style>
  </defs>
  <g id="Exports_2" data-name="Exports 2">
    <g>
      <g class="cls-1">
        <rect class="cls-2" width="64" height="64"/>
      </g>
      <path class="cls-2" d="M62.34,36.51c.44-2.55.67-5.15.66-7.73,0-2.61-.22-5.23-.68-7.83-.34-1.82-1.79-3.26-3.62-3.58-2.56-.44-5.18-.67-7.78-.67-.54,0-1.08.02-1.62.04-3.14-4.81-7.43-7.14-10.23-8.18-.56-.21-1.16-.31-1.76-.31-.35,0-.64.27-.65.62,0,.04,0,.07,0,.11.51,3.48,1.24,6.82,1.24,6.82-5.36-3.23-11.63-4.6-17.85-3.9-.55.05-.95.54-.9,1.09.02.2.1.38.22.53,1.98,2.42,4.1,4.72,6.37,6.88-11.54.76-21.4,8.38-24.36,10.85-.42.31-.51.91-.19,1.33.05.07.12.14.19.19,2.97,2.46,12.82,10.09,24.38,10.85-2.26,2.16-4.39,4.46-6.37,6.88-.35.43-.29,1.06.14,1.4.15.12.34.2.53.22,6.22.7,12.49-.67,17.85-3.9,0,0-.72,3.34-1.24,6.82-.05.35.19.67.53.72.03,0,.06,0,.09,0,.6,0,1.2-.11,1.76-.31,1.61-.6,3.71-1.63,5.81-3.31.19.15.39.29.62.4.88.42,1.82.69,2.76.8.15.02.29.03.43.03.83,0,1.6-.28,2.22-.76.62.5,1.41.79,2.25.79.14,0,.29,0,.35-.02.98-.09,1.94-.34,2.83-.75l.1-.05c1.36-.69,2.14-2.18,1.94-3.7l-.27-1.98c.76-.1,1.47-.45,2.02-.98.54-.52,1.02-1.09,1.47-1.76.93-1.45.7-3.36-.59-4.58l-.27-.25c.85-.69,1.44-1.68,1.6-2.81ZM22.91,31.39l-2.34.92-.92,2.34c-.19.49-.88.49-1.08,0l-.92-2.34-2.34-.92c-.49-.19-.49-.88,0-1.08l2.34-.92.92-2.34c.19-.49.88-.49,1.08,0l.92,2.34,2.34.92c.49.19.49.88,0,1.08ZM33.61,44.82c-1.15,0-2.08-.93-2.08-2.08s.93-2.08,2.08-2.08,2.08.93,2.08,2.08-.93,2.08-2.08,2.08ZM38.68,26.47l-4.12,1.62-1.62,4.11c-.34.86-1.55.86-1.89,0l-1.62-4.11-4.12-1.62c-.86-.34-.86-1.55,0-1.89l4.12-1.62,1.62-4.12c.34-.86,1.55-.86,1.89,0l1.62,4.12,4.12,1.62c.86.34.86,1.55,0,1.89ZM59.62,36.08c-.09.72-.63,1.3-1.34,1.44-1.02.18-2.03.33-3.09.43l3.48,3.2.49.45c.29.28.35.73.13,1.07-.31.46-.67.88-1.07,1.27-.24.24-.6.31-.92.18l-.5-.2-1.98-.81.26,1.88.59,4.27c.05.36-.14.71-.46.88-.61.28-1.26.45-1.93.51-.4.05-.79-.2-.91-.59l-1.43-4.36-1.43,4.33c-.12.39-.5.64-.91.59-.66-.07-1.3-.26-1.9-.54-.32-.16-.51-.52-.46-.87l.59-4.27.26-1.88-1.98.81-.5.2c-.31.13-.68.06-.92-.18-.4-.39-.75-.81-1.07-1.27-.22-.34-.16-.79.14-1.07l.48-.45,3.48-3.2c-1.03-.1-2.03-.25-3.09-.43-.7-.12-1.26-.67-1.38-1.38-.84-4.84-.84-9.79,0-14.63.13-.7.68-1.25,1.39-1.38,4.84-.84,9.78-.84,14.62,0,.7.13,1.26.67,1.39,1.38.42,2.42.63,4.87.63,7.32,0,2.45-.21,4.9-.63,7.31Z"/>
    </g>
  </g>
</svg>