<?xml version="1.0" encoding="UTF-8"?>
<svg id="Layer_2" data-name="Layer 2" xmlns="http://www.w3.org/2000/svg" viewBox="0 0 64 64">
  <defs>
    <style>
      .cls-1 {
        fill: #fff;
      }

      .cls-2 {
        fill: #ee87ff;
      }

      .cls-3 {
        fill: #c442ff;
      }

      .cls-4 {
        opacity: 0;
      }

      .cls-4, .cls-5 {
        fill: #1a1a1a;
      }

      .cls-6 {
        fill: #a0f;
      }
    </style>
  </defs>
  <g id="Outlines">
    <g id="Dragon_Tooth_Outline" data-name="Dragon Tooth Outline">
      <rect class="cls-4" width="64" height="64"/>
      <g>
        <path class="cls-5" d="M36.85,63.5c-.74,0-1.48-.21-2.13-.61-.54-.34-13.35-8.49-18.1-20.85-.13-.34-.21-.69-.25-1.05-.88-9.01-2.88-23.99-4.79-28.35-.58-1.32-.4-2.85,.47-4.01,.11-.14,2.7-3.57,6.38-7.04,.76-.71,1.74-1.09,2.75-1.09,.53,0,1.07,.11,1.58,.33,.03,.01,4.45,1.85,9.97,1.85,3.19,0,6.11-.61,8.69-1.81,.54-.25,1.11-.37,1.69-.37,.84,0,1.68,.26,2.38,.78,.88,.65,5.38,4.09,6.95,7.77,.34,.8,.42,1.7,.2,2.55-.09,.37-.99,3.77-4.22,10.69-.76,2.51-6.78,22.81-7.57,37.44-.08,1.42-.9,2.69-2.15,3.34-.58,.3-1.21,.45-1.84,.45Z"/>
        <path class="cls-3" d="M20.35,40.6s-2.25-23.03-5.11-29.57c0,0,2.45-3.26,5.92-6.53,0,0,11.38,4.91,21.93,0,0,0,4.42,3.26,5.65,6.12,0,0-.82,3.27-4.09,10.22,0,0-6.95,22.43-7.82,38.66,0,0-12.16-7.64-16.5-18.9Z"/>
        <path class="cls-6" d="M41.48,32.48c1.69-6.81,3.19-11.65,3.19-11.65,3.27-6.95,4.09-10.22,4.09-10.22,0,0-7.73,3.45-13.73,3.45,0,0,4.89,10.49,6.45,18.41Z"/>
        <path class="cls-2" d="M30.03,14.08s-9.56-1.09-14.78-3.04c2.86,6.54,5.11,29.57,5.11,29.57,4.33,11.25,16.5,18.9,16.5,18.9,0,0-6.82-9.42-7.82-19.42s1-26,1-26Z"/>
        <path class="cls-1" d="M43.31,31.49l-3.35-1.32-1.32-3.35c-.23-.58-1.04-.58-1.27,0l-1.32,3.35-3.35,1.32c-.58,.23-.58,1.04,0,1.27l3.35,1.32,1.32,3.35c.23,.58,1.04,.58,1.27,0l1.32-3.35,3.35-1.32c.58-.23,.58-1.04,0-1.27Z"/>
        <path class="cls-1" d="M36.18,17.29l-4.38-1.73-1.73-4.38c-.3-.75-1.36-.75-1.66,0l-1.73,4.38-4.38,1.73c-.75,.3-.75,1.36,0,1.66l4.38,1.73,1.73,4.38c.3,.75,1.36,.75,1.66,0l1.73-4.38,4.38-1.73c.75-.3,.75-1.36,0-1.66Z"/>
      </g>
    </g>
  </g>
</svg>