<?xml version="1.0" encoding="UTF-8"?>
<svg id="Layer_2" data-name="Layer 2" xmlns="http://www.w3.org/2000/svg" viewBox="0 0 64 64">
  <defs>
    <style>
      .cls-1 {
        fill: #606060;
        opacity: 0;
      }

      .cls-2 {
        fill: #1a1a1a;
      }
    </style>
  </defs>
  <g id="Black">
    <g id="Dragon_Tooth_Flat_Black" data-name="Dragon Tooth Flat Black">
      <rect class="cls-1" width="64" height="64"/>
      <path class="cls-2" d="M43.1,4.5c-10.55,4.91-21.93,0-21.93,0-3.47,3.27-5.92,6.53-5.92,6.53,2.86,6.54,5.11,29.57,5.11,29.57,4.33,11.25,16.5,18.9,16.5,18.9,.87-16.23,7.82-38.66,7.82-38.66,3.27-6.95,4.09-10.22,4.09-10.22-1.23-2.86-5.65-6.12-5.65-6.12ZM26.83,27.34l-1.73-4.38-4.38-1.73c-.75-.3-.75-1.36,0-1.66l4.38-1.73,1.73-4.38c.3-.75,1.36-.75,1.66,0l1.73,4.38,4.38,1.73c.75,.3,.75,1.36,0,1.66l-4.38,1.73-1.73,4.38c-.3,.75-1.36,.75-1.66,0Zm11.88,6.33l-3.35,1.32-1.32,3.35c-.23,.58-1.04,.58-1.27,0l-1.32-3.35-3.35-1.32c-.58-.23-.58-1.04,0-1.27l3.35-1.32,1.32-3.35c.23-.58,1.04-.58,1.27,0l1.32,3.35,3.35,1.32c.58,.23,.58,1.04,0,1.27Z"/>
    </g>
  </g>
</svg>