<?xml version="1.0" encoding="UTF-8"?>
<svg id="Layer_2" data-name="Layer 2" xmlns="http://www.w3.org/2000/svg" viewBox="0 0 64 64">
  <defs>
    <style>
      .cls-1 {
        fill: #fff;
      }

      .cls-2 {
        fill: #ee87ff;
      }

      .cls-3 {
        fill: #c442ff;
      }

      .cls-4 {
        fill: #1a1a1a;
        opacity: 0;
      }

      .cls-5 {
        fill: #a0f;
      }
    </style>
  </defs>
  <g id="No_outline" data-name="No outline">
    <g id="Dragon_Tooth" data-name="Dragon Tooth">
      <rect class="cls-4" width="64" height="64"/>
      <g>
        <path class="cls-3" d="M20.35,40.6s-2.25-23.03-5.11-29.57c0,0,2.45-3.26,5.92-6.53,0,0,11.38,4.91,21.93,0,0,0,4.42,3.26,5.65,6.12,0,0-.82,3.27-4.09,10.22,0,0-6.95,22.43-7.82,38.66,0,0-12.16-7.64-16.5-18.9Z"/>
        <path class="cls-5" d="M41.48,32.48c1.69-6.81,3.19-11.65,3.19-11.65,3.27-6.95,4.09-10.22,4.09-10.22,0,0-7.73,3.45-13.73,3.45,0,0,4.89,10.49,6.45,18.41Z"/>
        <path class="cls-2" d="M30.03,14.08s-9.56-1.09-14.78-3.04c2.86,6.54,5.11,29.57,5.11,29.57,4.33,11.25,16.5,18.9,16.5,18.9,0,0-6.82-9.42-7.82-19.42s1-26,1-26Z"/>
        <path class="cls-1" d="M43.31,31.49l-3.35-1.32-1.32-3.35c-.23-.58-1.04-.58-1.27,0l-1.32,3.35-3.35,1.32c-.58,.23-.58,1.04,0,1.27l3.35,1.32,1.32,3.35c.23,.58,1.04,.58,1.27,0l1.32-3.35,3.35-1.32c.58-.23,.58-1.04,0-1.27Z"/>
        <path class="cls-1" d="M36.18,17.29l-4.38-1.73-1.73-4.38c-.3-.75-1.36-.75-1.66,0l-1.73,4.38-4.38,1.73c-.75,.3-.75,1.36,0,1.66l4.38,1.73,1.73,4.38c.3,.75,1.36,.75,1.66,0l1.73-4.38,4.38-1.73c.75-.3,.75-1.36,0-1.66Z"/>
      </g>
    </g>
  </g>
</svg>