<svg xmlns="http://www.w3.org/2000/svg" viewBox="0 0 64 64"><defs><style>.cls-1{opacity:0;}.cls-2{fill:#1a1a1a;}.cls-3{fill:#80bad9;}.cls-4{fill:#fff;}</style></defs><title>Mouse Outline </title><g id="Layer_2" data-name="Layer 2"><g id="Layer_3" data-name="Layer 3"><g class="cls-1"><rect class="cls-2" width="64" height="64"/></g><path class="cls-2" d="M59.59,35.64A7.08,7.08,0,0,0,58,33.42l.07-.1.2-.34,0-.06.19-.37.11-.27c0-.05,0-.11.07-.17l.1-.27c.07-.24.14-.48.18-.68s.09-.5.12-.76l1-10.15a5.48,5.48,0,0,0,0-1.07,6.75,6.75,0,0,0-1.52-3.93,7.21,7.21,0,0,0-3.73-2.41L13,1.2l-.49-.12L12,1a4.45,4.45,0,0,0-.5-.05,4.35,4.35,0,0,0-.51,0,7.38,7.38,0,0,0-3.11.68A7.29,7.29,0,0,0,5.44,3.48,6.89,6.89,0,0,0,4,6.38a6.81,6.81,0,0,0-.16,2c0,.05,1,10.75,1,10.75l0,.3c0,.13,0,.25.06.3a3.17,3.17,0,0,0,.08.37,2.51,2.51,0,0,0,.11.38L17,58.16a7.06,7.06,0,0,0,1.12,2.16,7,7,0,0,0,3.65,2.46,7.15,7.15,0,0,0,2.05.29,5.75,5.75,0,0,0,.84,0l.4-.06.43-.08.27-.06a1.71,1.71,0,0,0,.27-.09l.28-.09.32-.12.24-.1.32-.16.35-.19.07,0L28,61.8l.39-.28.34-.29.37-.36.31-.35c.1-.12.19-.24.29-.38a3.77,3.77,0,0,0,.26-.39s.16-.26.16-.26l.13-.24.12-.24c.05-.1.09-.2.13-.3l1.66-4,6.6,6.19a7.34,7.34,0,0,0,2.37,1.48,8.38,8.38,0,0,0,1.3.37,7.37,7.37,0,0,0,1.32.12,8.59,8.59,0,0,0,.86,0l.47-.08.38-.08a8.46,8.46,0,0,0,.82-.24l.06,0,.27-.11.48-.22.39-.22.44-.29.36-.27.29-.24L57.05,53l.33-.33.29-.33h0a2.2,2.2,0,0,0,.2-.23l.13-.2c.09-.12.16-.24.21-.31l.2-.36a.59.59,0,0,0,0-.08s.13-.24.14-.28a7.18,7.18,0,0,0,.29-.74l.06-.19s0-.19,0-.19.05-.19.06-.25c.05-.24.09-.48.12-.74l1-9.5a2.65,2.65,0,0,0,0-.27,5.06,5.06,0,0,0,0-.56A6.84,6.84,0,0,0,59.59,35.64Z"/><path class="cls-3" d="M56.2,38.44c0-1.51-1.24-2.38-2.25-3.3L51.57,33c1.15-.41,2.49-.7,3.16-1.84a3.2,3.2,0,0,0,.37-1.29c.14-1.17.23-2.35.35-3.52.2-2.12.62-4.33.62-6.45,0-3.07-3.18-3.4-5.48-4l-10.74-3L15.48,6l-3.13-.87c-2.09-.57-5,.52-4.51,3.16l0-.21c0,2.71.51,5.52.76,8.22A15.28,15.28,0,0,0,9,19.42c.33,1.11.7,2.22,1,3.34l4.58,14.48,4.77,15.09,1.29,4.1a8.1,8.1,0,0,0,.26.79,3.24,3.24,0,0,0,4.32,1.54c1.55-.71,2-2.67,2.59-4.11l2.83-6.78c3.57,3.34,7.06,6.79,10.72,10,2,1.76,3.79.84,5.35-.65l6.71-6.38a5.44,5.44,0,0,0,1.63-2,21.74,21.74,0,0,0,.52-4.35l.31-3L56.06,40l.06-.59c0-.07.1-.84,0-.46A2.59,2.59,0,0,0,56.2,38.44Z"/><path class="cls-4" d="M11,4.93a10.21,10.21,0,0,1,2.6.59l4.88,1.36,15.12,4.21,14.64,4.07,4.39,1.23c1.41.39,2.89.8,3.33,2.44.87,3.22-3.44,4-5.6,4.79L43.92,26l7.31,6.7c1.23,1.12,2.47,2.24,3.69,3.37a3,3,0,0,1,.21,4.71c-2.61,2.55-5.3,5-8,7.53-1.54,1.45-3.51,2.13-5.33.56-1-.83-1.87-1.74-2.8-2.61L30.6,38.34l-2.22,5.28L27,47a5.1,5.1,0,0,1-1.44,2.33,3.39,3.39,0,0,1-5.2-1.52c-.07-.18-.13-.38-.19-.57L19,43.41,9.82,14.66l-1.59-5c-.1-.3-.21-.61-.29-.91A3.06,3.06,0,0,1,11,4.93Z"/></g></g></svg>