<svg xmlns="http://www.w3.org/2000/svg" viewBox="0 0 64 64"><defs><style>.cls-1{opacity:0;}.cls-2{fill:#fff;}</style></defs><title>Mouse White </title><g id="Layer_2" data-name="Layer 2"><g id="Layer_3" data-name="Layer 3"><g class="cls-1"><rect class="cls-2" width="64" height="64"/></g><path class="cls-2" d="M11,9.48a10.65,10.65,0,0,1,2.6.59l4.88,1.36,15.12,4.21,14.64,4.08,4.39,1.22c1.4.39,2.89.81,3.33,2.45.87,3.22-3.44,4-5.6,4.79l-6.47,2.33,7.31,6.7c1.23,1.12,2.47,2.24,3.69,3.37,1.46,1.36,1.72,3.24.21,4.71-2.61,2.54-5.3,5-8,7.52-1.54,1.46-3.52,2.14-5.33.57-1-.84-1.87-1.74-2.8-2.61L30.61,42.9l-2.22,5.28L27,51.52a5.1,5.1,0,0,1-1.44,2.33,3.41,3.41,0,0,1-5.21-1.52l-.18-.57L19,48,9.83,19.22l-1.59-5c-.1-.3-.21-.6-.29-.91A3.06,3.06,0,0,1,11,9.48Z"/></g></g></svg>