<svg xmlns="http://www.w3.org/2000/svg" viewBox="0 0 64 64"><defs><style>.cls-1{fill:none;}.cls-2{fill:#1a1a1a;}</style></defs><title>Skull Flat Black</title><g id="Layer_2" data-name="Layer 2"><g id="Layer_2-2" data-name="Layer 2"><rect class="cls-1" width="64" height="64"/><path class="cls-2" d="M60,28.87a22.22,22.22,0,0,0-7.48-16.34h0l-.21-.18c-.22-.21-.45-.41-.69-.61l-.31-.26-.69-.55-.35-.26-.71-.5-.38-.26c-.23-.16-.47-.31-.71-.46l-.41-.25-.73-.43-.44-.24-.73-.38-.47-.24L45,7.56l-.5-.22L43.7,7l-.52-.2-.77-.27-.54-.18c-.25-.09-.51-.16-.77-.24L40.54,6l-.79-.2-.58-.14c-.26-.07-.53-.12-.8-.17l-.58-.12L37,5.22c-.19,0-.38-.07-.58-.09L35.49,5c-.19,0-.37,0-.56-.06L34,4.9l-.48,0c-.49,0-1,0-1.48,0-15.46,0-28,10.76-28,24,0,.46,0,.92,0,1.38,0,.14,0,.29,0,.43,0,.31.06.62.1.93s0,.33.07.5.1.58.16.87l.09.47.24.95c0,.12.06.24.1.36.12.42.26.84.41,1.25,0,.12.09.23.14.35.11.3.23.6.36.89l.21.48.36.73c.08.17.17.33.26.5l.4.71.27.46q.25.4.54.81l.28.42q.33.47.69.93l.37.44.5.6.42.46c.17.19.34.37.52.54s.3.31.45.45l.57.54.44.4.05,0h0a27.27,27.27,0,0,0,3.55,2.61v3.08a4.19,4.19,0,0,0,.86,2.48,5.92,5.92,0,0,0,9.16.43l.21-.24.6,1.41a5.91,5.91,0,0,0,5.43,3.63h.2a5.91,5.91,0,0,0,5.43-3.63l.6-1.41.21.24a5.92,5.92,0,0,0,9.16-.43,4.19,4.19,0,0,0,.86-2.48V48.37c.54-.33,1-.68,1.55-1l.43-.31c.37-.28.73-.56,1.09-.86l.39-.32a25,25,0,0,0,2.58-2.57l.3-.34c.31-.37.6-.74.89-1.12l.24-.34A22.47,22.47,0,0,0,57.7,38.4l.17-.35c.22-.44.41-.89.6-1.35l.09-.21h0A21,21,0,0,0,60,28.87ZM25.17,38.55a8.42,8.42,0,0,1-11.89.38,7.74,7.74,0,0,1-1.67-2.53,6.62,6.62,0,0,1-.36-1.06s0-.08,0-.12a7,7,0,0,1-.17-1A1.1,1.1,0,0,1,11,34a6.86,6.86,0,0,1,0-1.11c0-.06,0-.13,0-.19,0-.34.07-.67.13-1l0-.16a8.29,8.29,0,0,1,.31-1.08,2.09,2.09,0,0,1,.08-.23,9.33,9.33,0,0,1,.44-1l.05-.11a9.42,9.42,0,0,1,.62-1l.17-.22a8.76,8.76,0,0,1,1.72-1.72l.22-.17a9.42,9.42,0,0,1,1-.62l.11-.05a9.33,9.33,0,0,1,1-.44l.23-.08a8.29,8.29,0,0,1,1.08-.31l.16,0a8.72,8.72,0,0,1,1-.13h.19a8.22,8.22,0,0,1,1.11,0l.18,0a7,7,0,0,1,1,.17l.12,0A6.62,6.62,0,0,1,23,25a7.58,7.58,0,0,1,2.53,1.67A8.42,8.42,0,0,1,25.17,38.55ZM53,33.68l0,.37c0,.13,0,.25,0,.37s0,.25-.06.37,0,.24-.07.36l-.09.37c0,.12-.08.24-.12.36s-.15.43-.24.64l-.15.35c-.06.11-.12.23-.19.34a7.54,7.54,0,0,1-1.28,1.72A8.23,8.23,0,0,1,40.77,40c-.29-.17-.58-.36-.86-.56l-.21-.17a8.64,8.64,0,0,1-.87-.75A8.13,8.13,0,1,1,49.52,26.31a9.31,9.31,0,0,1,.82.73,6.42,6.42,0,0,1,.56.61l.17.21.33.44.17.26.26.42.15.28.21.43c0,.1.09.2.13.29s.12.31.17.46a2.31,2.31,0,0,1,.1.28c.06.2.12.4.17.6s0,.16.05.25.08.41.11.62l0,.32c0,.14,0,.28,0,.42v.75Z"/></g></g></svg>