<svg xmlns="http://www.w3.org/2000/svg" viewBox="0 0 64 64"><defs><style>.cls-1,.cls-2{fill:#1a1a1a;}.cls-1{opacity:0;}.cls-3{fill:#324652;}.cls-4{fill:#476475;}.cls-5{fill:#7b97a6;}.cls-6{fill:#abc0c9;}</style></defs><title>Skull Black Outline</title><g id="Layer_2" data-name="Layer 2"><g id="_001-100" data-name="001-100"><rect class="cls-1" width="64" height="64"/><path class="cls-2" d="M31.89,62.68a9.75,9.75,0,0,1-7.31-3.34,9.7,9.7,0,0,1-11-3.45A8,8,0,0,1,12,51.15v-.94C4.74,45,.5,37.18.5,28.92.5,13.7,14.63,1.32,32,1.32S63.5,13.7,63.5,28.92c0,8.26-4.24,16.08-11.45,21.29v.94a8,8,0,0,1-1.6,4.74,9.7,9.7,0,0,1-11,3.45,9.75,9.75,0,0,1-7.31,3.34Z"/><rect class="cls-3" x="10.39" y="23.56" width="44.73" height="18.24"/><circle class="cls-4" cx="39.8" cy="32.09" r="6.25"/><circle class="cls-4" cx="24.2" cy="32.09" r="6.25"/><path class="cls-4" d="M32,5.26C16.78,5.26,4.44,15.85,4.44,28.92c0,7.9,4.51,14.9,11.45,19.2v3a4.15,4.15,0,0,0,.85,2.44,5.83,5.83,0,0,0,9,.42l.21-.23.58,1.38a5.86,5.86,0,0,0,5.36,3.58h.19a5.84,5.84,0,0,0,5.35-3.58L38,53.78l.22.23a5.82,5.82,0,0,0,9-.42,4.15,4.15,0,0,0,.85-2.44v-3c6.94-4.3,11.45-11.3,11.45-19.2C59.56,15.85,47.22,5.26,32,5.26ZM25.28,38.45a8.3,8.3,0,0,1-11.71.37,8.3,8.3,0,0,1,.37-11.71,8.3,8.3,0,0,1,11.71-.37A8.3,8.3,0,0,1,25.28,38.45Zm25.15.37a8.3,8.3,0,0,1-11.71-.37,8.3,8.3,0,0,1-.37-11.71,8.3,8.3,0,0,1,11.71.37A8.3,8.3,0,0,1,50.43,38.82Z"/><path class="cls-5" d="M40.69,39.94a9.21,9.21,0,0,1-2-1.49,8.3,8.3,0,0,1-.37-11.71,8.3,8.3,0,0,1,11.71.37,6.64,6.64,0,0,1,.56.63,25.56,25.56,0,0,0,2.05-10,25.29,25.29,0,0,0-.47-4.87A29.7,29.7,0,0,0,32,5.26C16.78,5.26,4.44,15.85,4.44,28.92a22,22,0,0,0,8,16.63,36.82,36.82,0,0,0,7.79.83A35,35,0,0,0,40.69,39.94ZM13.57,38.82a8.3,8.3,0,0,1,.37-11.71,8.3,8.3,0,0,1,11.71-.37,8.3,8.3,0,0,1-.37,11.71A8.3,8.3,0,0,1,13.57,38.82Z"/><path class="cls-6" d="M22.45,19.75h0a2.06,2.06,0,0,0,1.93-1,4.69,4.69,0,0,0-.2-5.42c-1.68-1.91-5-1.73-7.44.41a6.49,6.49,0,0,0-2.31,4.55,2,2,0,0,0,2.54,2A17.85,17.85,0,0,1,22.45,19.75Z"/><path class="cls-5" d="M51.57,25.12l-2.39,1.22a10.54,10.54,0,0,1,.88.77,8.46,8.46,0,0,1,1.5,10.26h0C56.89,32.05,51.57,25.12,51.57,25.12Z"/><path class="cls-4" d="M12,36.41A8.75,8.75,0,0,1,23.24,25.12c-3.62-2.21-7.95-2.13-10.68.61S9.74,32.79,12,36.41Z"/><path class="cls-3" d="M58.15,36.42c-7.34,8.67-12.1,10-12.1,10l2.06,1.74A24.42,24.42,0,0,0,58.15,36.42Z"/></g></g></svg>