<?xml version="1.0" encoding="UTF-8"?>
<svg id="Layer_2" data-name="Layer 2" xmlns="http://www.w3.org/2000/svg" viewBox="0 0 64 64">
  <defs>
    <style>
      .cls-1 {
        opacity: 0;
      }

      .cls-2 {
        fill: #fff;
        stroke-width: 0px;
      }
    </style>
  </defs>
  <g id="Exports_2" data-name="Exports 2">
    <g>
      <g class="cls-1">
        <rect class="cls-2" width="64" height="64"/>
      </g>
      <g>
        <path class="cls-2" d="M55.9,41.75c-.81-5.63-3.9-15.08-4.17-22.85h0c.94-1.21,1.68-3.19,1.93-5.5.43-3.96-.73-7.39-2.6-7.66-13.93-3.46-31.14,1.21-37.43,3.19-1.71.54-2.74,2.28-2.4,4.07.69,3.59,3.6,5.48,4.27,5.86-.09,1.12-.63,3.34-2.79,7.35-5.63,10.4-5.22,20-4.44,24.92.39,2.42,2.01,4.41,4.28,5.27,4.62,1.74,14.54,3.92,33.97,2.79l5.11-1.93c1.15-.44,2.11-1.32,2.63-2.48,1.07-2.39,2.51-6.94,1.64-13.02ZM38.41,40.58c-.31,1.39-.77,2.7-1.33,3.91-2.72,5.83-8.1,9.36-13.31,8.2-4.04-.9-6.98-4.39-8.1-8.9-.63-2.53-.69-5.37-.05-8.27,1.79-8.09,8.35-13.51,14.65-12.11,6.29,1.4,9.94,9.08,8.15,17.17Z"/>
        <path class="cls-2" d="M23.3,30.21c-1.47-.21-3.29,3.97-3.8,7.56-.26,1.84.71,3.5,2.18,3.71,1.47.21,2.88-1.11,3.14-2.94.52-3.6-.05-8.12-1.52-8.33Z"/>
        <path class="cls-2" d="M33.06,32.72c-2.46-1.08-5.86-1.11-6.39.48-.53,1.59,2.02,4.19,4.48,5.28,1.25.55,2.7-.29,3.23-1.88.53-1.59-.06-3.33-1.32-3.88Z"/>
        <path class="cls-2" d="M25.75,42.07c-1.23.81-1.76,2.67-1.18,4.14.58,1.48,2.05,2.01,3.28,1.2,2.41-1.59,4.86-4.71,4.28-6.19s-3.97-.75-6.38.84Z"/>
      </g>
    </g>
  </g>
</svg>