<svg xmlns="http://www.w3.org/2000/svg" viewBox="0 0 64 64"><defs><style>.cls-1,.cls-2{fill:#1a1a1a;}.cls-1{opacity:0;}.cls-3{fill:#abc0c9;}.cls-4{fill:#d3dee3;}</style></defs><title>Table Knife Outline</title><g id="Layer_2" data-name="Layer 2"><g id="Layer_3" data-name="Layer 3"><rect class="cls-1" width="64" height="64"/><path class="cls-2" d="M60.09,2.7A5.56,5.56,0,0,0,55.67.5a5.5,5.5,0,0,0-3.88,1.62l-29.94,30c-.1.1-.2.2-.29.31L5.32,48.67A8.69,8.69,0,0,0,5.33,61a8.69,8.69,0,0,0,12.88-.64l13.86-17,1.46.48a7,7,0,0,0,2.22.37,7.06,7.06,0,0,0,5.13-2.23,94.7,94.7,0,0,0,8.6-10.69l.11-.16.54-.8s.49-.71.64-.95c.43-.64.85-1.3,1.28-2l.55-.91c.26-.43.53-.87.79-1.32l.5-.88.11-.18.71-1.29c.21-.38.41-.76.61-1.14s.46-.89.73-1.43l.54-1.09.72-1.55.15-.33.33-.73c.35-.81.7-1.64,1-2.47a.58.58,0,0,0,.06-.17A67,67,0,0,0,61,7.51,5.48,5.48,0,0,0,60.09,2.7Z"/><path class="cls-3" d="M8.16,58.13h0a4.69,4.69,0,0,1,0-6.63l28-28.1L40,27.25,15.11,57.78A4.69,4.69,0,0,1,8.16,58.13Z"/><path class="cls-3" d="M57.15,6.44A1.52,1.52,0,0,0,54.62,5L24.68,34.89l2.61,2.62,7.5,2.5A3,3,0,0,0,38,39.2C41.81,35.11,52.71,22.47,57.15,6.44Z"/><path class="cls-4" d="M55.09,12.57,44,15.54l-19,19h.05L9.61,50a2.46,2.46,0,0,0,4.2,1.68l19.4-19.39L46.3,28.82A81.31,81.31,0,0,0,55.09,12.57Z"/></g></g></svg>