<svg xmlns="http://www.w3.org/2000/svg" viewBox="0 0 64 64"><defs><style>.cls-1{fill:#1a1a1a;opacity:0;}.cls-2{fill:#abc0c9;}.cls-3{fill:#d3dee3;}</style></defs><title>Table Knife</title><g id="Layer_2" data-name="Layer 2"><g id="Layer_3" data-name="Layer 3"><rect class="cls-1" width="64" height="64"/><path class="cls-2" d="M8.16,58.13h0a4.69,4.69,0,0,1,0-6.63l28-28.1L40,27.25,15.11,57.78A4.69,4.69,0,0,1,8.16,58.13Z"/><path class="cls-2" d="M57.15,6.44A1.52,1.52,0,0,0,54.62,5L24.68,34.89l2.61,2.62,7.5,2.5A3,3,0,0,0,38,39.2C41.81,35.11,52.71,22.47,57.15,6.44Z"/><path class="cls-3" d="M55.09,12.57,44,15.54l-19,19h.05L9.61,50a2.46,2.46,0,0,0,4.2,1.68l19.4-19.39L46.3,28.82A81.31,81.31,0,0,0,55.09,12.57Z"/></g></g></svg>