<?xml version="1.0" encoding="UTF-8"?>
<svg id="Layer_2" data-name="Layer 2" xmlns="http://www.w3.org/2000/svg" viewBox="0 0 64 64">
  <defs>
    <style>
      .cls-1, .cls-2 {
        fill: #1a1a1a;
        stroke-width: 0px;
      }

      .cls-2 {
        opacity: 0;
      }
    </style>
  </defs>
  <g id="Exports_2" data-name="Exports 2">
    <g>
      <rect class="cls-2" width="64" height="64"/>
      <path class="cls-1" d="M51.45,40.89c-2.33-6.83-11.47-33.28-13.7-35.51-.03-.03-.05-.05-.08-.08-1.28-1.27-3.41-1-4.35.55-6.96,11.51-16.71,25.12-20.4,30.2-.86,1.18-.66,2.82.45,3.76,1.46,1.24,3.9,3.24,7.79,6.26,5.84,4.53,11.05,10.31,13.27,12.89.61.71,1.7.72,2.32.01.69-.78,1.39-1.56,2.08-2.34l2.03,1.7c.79.66,1.98.41,2.45-.5l6.87-13.46c.23-.24.45-.47.64-.67.72-.75.96-1.84.62-2.82ZM36.66,53.46c-.27.31-.66.49-1.07.49,0,0-.02,0-.03,0-.42,0-.82-.2-1.08-.53-.07-.08-6.65-8.17-14.18-14.02-1.24-.96-2.33-1.82-3.28-2.58.53-.75,1.07-1.52,1.65-2.34.98.78,2.09,1.66,3.39,2.66,6.05,4.7,11.36,10.61,13.57,13.19,4.27-4.84,8.8-9.71,11.82-12.91.37,1.05.73,2.06,1.07,3.03-3.24,3.45-7.74,8.32-11.84,13.01Z"/>
    </g>
  </g>
</svg>