<?xml version="1.0" encoding="UTF-8"?>
<svg id="Layer_2" data-name="Layer 2" xmlns="http://www.w3.org/2000/svg" viewBox="0 0 64 64">
  <defs>
    <style>
      .cls-1, .cls-2, .cls-3, .cls-4, .cls-5 {
        stroke-width: 0px;
      }

      .cls-1, .cls-3 {
        fill: #1a1a1a;
      }

      .cls-2 {
        fill: #ff7a6e;
      }

      .cls-3 {
        opacity: 0;
      }

      .cls-4 {
        fill: #fff;
      }

      .cls-5 {
        fill: #96dbff;
      }
    </style>
  </defs>
  <g id="Exports_2" data-name="Exports 2">
    <g>
      <rect class="cls-3" width="64" height="64"/>
      <g>
        <path class="cls-1" d="M55.23,39.59C43.61,5.57,41.48,3.45,40.56,2.54c0,0-.08-.08-.08-.08-1.28-1.27-2.97-1.96-4.77-1.96-2.4,0-4.58,1.23-5.82,3.28-6.84,11.32-16.41,24.69-20.21,29.92-2.07,2.85-1.59,6.88,1.1,9.16,2,1.69,4.67,3.84,7.93,6.37,5.64,4.38,10.76,10.09,12.7,12.34,1.05,1.22,2.58,1.93,4.2,1.93,1.38,0,2.7-.51,3.71-1.43.79.41,1.68.63,2.58.63,2.12,0,4.03-1.17,4.99-3.05l6.61-12.94.23-.25c1.75-1.84,2.33-4.47,1.51-6.87Z"/>
        <g>
          <path class="cls-5" d="M50.82,43.15l-7.5,14.69c-.47.91-1.66,1.16-2.45.5l-4.7-3.92,14.64-11.27Z"/>
          <path class="cls-4" d="M51.45,40.89c-2.33-6.83-11.47-33.28-13.7-35.51-.03-.03-.05-.05-.08-.08-1.28-1.27-3.41-1-4.35.55-6.96,11.51-16.71,25.12-20.4,30.2-.86,1.18-.66,2.82.45,3.76,1.46,1.24,3.9,3.24,7.79,6.26,5.84,4.53,11.05,10.31,13.27,12.89.61.71,1.7.72,2.32.01,5.57-6.32,11.59-12.68,14.07-15.27.72-.75.96-1.84.62-2.82Z"/>
          <path class="cls-2" d="M36.66,53.46c5.06-5.8,10.74-11.87,13.89-15.19-.31-.91-.66-1.92-1.05-3.03-2.63,2.76-8.48,8.96-13.89,15.1-2.21-2.58-7.52-8.49-13.57-13.19-2.84-2.2-4.87-3.84-6.29-5.01-.61.85-1.17,1.63-1.67,2.32,1.43,1.18,3.45,2.8,6.21,4.94,7.53,5.85,14.12,13.94,14.18,14.02.27.33.66.52,1.08.53,0,0,.02,0,.03,0,.41,0,.8-.18,1.07-.49Z"/>
        </g>
      </g>
    </g>
  </g>
</svg>