<?xml version="1.0" encoding="UTF-8"?>
<svg id="Layer_2" data-name="Layer 2" xmlns="http://www.w3.org/2000/svg" viewBox="0 0 64 64">
  <defs>
    <style>
      .cls-1, .cls-2 {
        fill: #fff;
      }

      .cls-2 {
        opacity: 0;
      }
    </style>
  </defs>
  <g id="White">
    <g id="Scroll_2_Flat_White" data-name="Scroll 2 Flat White">
      <rect class="cls-2" width="64" height="64"/>
      <path class="cls-1" d="M62.49,11.4C59.6,5.1,53.17,.86,46.48,.86H17.38c-2.18,0-4.23,.97-5.76,2.73-2.56,2.94-3.63,8.03-2.86,13.61l3.82,27.7H6.38c-1.73,0-3.3,.78-4.32,2.14-1.02,1.37-1.32,3.12-.83,4.79,2.03,6.86,6.36,11.29,11.05,11.29H49.25c2.18,0,4.23-.97,5.76-2.73,2.56-2.94,3.63-8.03,2.86-13.61l-3.82-27.7h3.56c1.85,0,3.55-.92,4.53-2.45,1-1.56,1.12-3.52,.33-5.24ZM12.28,59.14h-.02c-2.85,0-5.75-3.55-7.19-8.43-.28-.95,.35-1.8,1.31-1.8h10.73c.39,5.77-1.63,10.22-4.82,10.22Zm5.79-37.34c-.12-.89,.5-1.61,1.39-1.61h24.7c.89,0,1.71,.72,1.83,1.61,.12,.89-.5,1.61-1.39,1.61H19.91c-.89,0-1.71-.72-1.83-1.61Zm1.04,7.52c-.12-.89,.5-1.61,1.39-1.61h21.48c.89,0,1.71,.72,1.83,1.61,.12,.89-.5,1.61-1.39,1.61H20.95c-.89,0-1.71-.72-1.83-1.61Zm22.2,9.13h-6.44c-.89,0-1.71-.72-1.83-1.61-.12-.89,.5-1.61,1.39-1.61h6.44c.89,0,1.71,.72,1.83,1.61,.12,.89-.5,1.61-1.39,1.61Zm-21.16-1.61c-.12-.89,.5-1.61,1.39-1.61h6.44c.89,0,1.71,.72,1.83,1.61,.12,.89-.5,1.61-1.39,1.61h-6.44c-.89,0-1.71-.72-1.83-1.61Zm20.02,16.65H24.06c-.89,0-1.71-.72-1.83-1.61-.12-.89,.5-1.61,1.39-1.61h16.11c.89,0,1.71,.72,1.83,1.61,.12,.89-.5,1.61-1.39,1.61Zm7.55-7.52H23.02c-.89,0-1.71-.72-1.83-1.61-.12-.89,.5-1.61,1.39-1.61h24.7c.89,0,1.71,.72,1.83,1.61,.12,.89-.5,1.61-1.39,1.61Zm9.9-30.87h-11.71c-.26-1.26-1.17-3.44-4.34-4.87,0,0,.21,3.04-1.17,4.87h-13.96c-.78,0-1.53-.57-1.74-1.35-1.4-5.1-4.38-8.88-7.32-8.88h29.1c5.26,0,10.19,3.44,12.37,8.2,.46,1-.17,2.03-1.23,2.03Z"/>
    </g>
  </g>
</svg>