<?xml version="1.0" encoding="UTF-8"?>
<svg id="Layer_2" data-name="Layer 2" xmlns="http://www.w3.org/2000/svg" viewBox="0 0 64 64">
  <defs>
    <style>
      .cls-1 {
        fill: #ffdfb5;
      }

      .cls-2 {
        fill: #f0ba84;
      }

      .cls-3 {
        fill: #de925a;
      }

      .cls-4 {
        fill: #1a1a1a;
        opacity: 0;
      }
    </style>
  </defs>
  <g id="No_outline" data-name="No outline">
    <g id="Scroll_2" data-name="Scroll 2">
      <rect class="cls-4" width="64" height="64"/>
      <g>
        <path class="cls-3" d="M17.11,48.91H6.38c-.96,0-1.59,.85-1.31,1.8,1.45,4.87,4.34,8.43,7.19,8.43h24.8l-1.41-10.22H17.11Z"/>
        <path class="cls-2" d="M40.19,4.86H17.38c-3.48,0-5.56,5.28-4.66,11.8h0s4.45,32.25,4.45,32.25h-.06c.39,5.77-1.63,10.22-4.82,10.22H49.25c3.48,0,5.56-5.28,4.66-11.8h0s-5.29-38.35-5.29-38.35l-8.43-4.12Z"/>
        <g>
          <path class="cls-3" d="M19.91,23.41h24.7c.89,0,1.51-.72,1.39-1.61s-.94-1.61-1.83-1.61H19.46c-.89,0-1.51,.72-1.39,1.61s.94,1.61,1.83,1.61Z"/>
          <path class="cls-3" d="M20.95,30.93h21.48c.89,0,1.51-.72,1.39-1.61s-.94-1.61-1.83-1.61H20.5c-.89,0-1.51,.72-1.39,1.61s.94,1.61,1.83,1.61Z"/>
          <path class="cls-3" d="M21.98,38.44h6.44c.89,0,1.51-.72,1.39-1.61s-.94-1.61-1.83-1.61h-6.44c-.89,0-1.51,.72-1.39,1.61s.94,1.61,1.83,1.61Z"/>
          <path class="cls-3" d="M34.42,35.22c-.89,0-1.51,.72-1.39,1.61s.94,1.61,1.83,1.61h6.44c.89,0,1.51-.72,1.39-1.61s-.94-1.61-1.83-1.61h-6.44Z"/>
          <path class="cls-3" d="M47.28,42.74H22.57c-.89,0-1.51,.72-1.39,1.61s.94,1.61,1.83,1.61h24.7c.89,0,1.51-.72,1.39-1.61s-.94-1.61-1.83-1.61Z"/>
          <path class="cls-3" d="M39.72,50.26H23.61c-.89,0-1.51,.72-1.39,1.61s.94,1.61,1.83,1.61h16.11c.89,0,1.51-.72,1.39-1.61s-.94-1.61-1.83-1.61Z"/>
        </g>
        <path class="cls-1" d="M58.85,13.06c-2.18-4.75-7.11-8.2-12.37-8.2H17.38c2.94,0,5.92,3.77,7.32,8.88,.21,.77,.96,1.35,1.74,1.35h13.96c1.38-1.83,1.17-4.87,1.17-4.87,3.17,1.43,4.08,3.61,4.34,4.87h11.71c1.05,0,1.69-1.02,1.23-2.03Z"/>
      </g>
    </g>
  </g>
</svg>