<svg xmlns="http://www.w3.org/2000/svg" viewBox="0 0 64 64"><defs><style>.cls-1{opacity:0;}.cls-2{fill:#1a1a1a;}.cls-3{fill:#39b54a;}.cls-4{fill:#65d666;}.cls-5{fill:#006837;}.cls-6{fill:#fdbc0d;}.cls-7{fill:#fee854;}.cls-8{fill:#9c3d29;}.cls-9{fill:#fc9504;}.cls-10{fill:#fff;}</style></defs><title>Chest Small 2 Outline</title><g id="Layer_2" data-name="Layer 2"><g id="_101-200" data-name="101-200"><g class="cls-1"><rect class="cls-2" width="64" height="64"/></g><path class="cls-2" d="M63.15,8.78a6.1,6.1,0,0,0-.53-1.09A5.86,5.86,0,0,0,60,5.38a5.93,5.93,0,0,0-2.41-.51H49.45A5.92,5.92,0,0,0,44,8.45H20a5.93,5.93,0,0,0-5.45-3.58H6.43A5.94,5.94,0,0,0,.51,11.2l2.9,42.4a5.94,5.94,0,0,0,5.92,5.53H16a6,6,0,0,0,3.27-1H44.74a5.89,5.89,0,0,0,3.26,1h6.67a5.94,5.94,0,0,0,5.92-5.52l2.9-42.41A6.13,6.13,0,0,0,63.15,8.78Z"/><polygon class="cls-3" points="10.8 54.19 8.82 12.41 55.18 12.41 53.2 54.19 10.8 54.19"/><rect class="cls-4" x="29.21" y="-7.98" width="5.58" height="46.36" transform="translate(47.2 -16.8) rotate(90)"/><rect class="cls-5" x="22.38" y="22.69" width="19.23" height="43.76" transform="translate(76.57 12.57) rotate(90)"/><path class="cls-6" d="M16,55.18H9.33a2,2,0,0,1-2-1.84L4.46,10.93a2,2,0,0,1,2-2.11h8.12a2,2,0,0,1,2,1.91L18,53.13A2,2,0,0,1,16,55.18Z"/><path class="cls-6" d="M54.67,55.18H48a2,2,0,0,1-2-2l1.45-42.4a2,2,0,0,1,2-1.91h8.12a2,2,0,0,1,2,2.11l-2.9,42.41A2,2,0,0,1,54.67,55.18Z"/><rect class="cls-6" x="27.04" y="16.74" width="9.93" height="46.36" transform="translate(71.92 7.92) rotate(90)"/><path class="cls-7" d="M37.44,47H26.57a2,2,0,0,1-2-1.9l-.48-12a2,2,0,0,1,2-2.06H37.91a2,2,0,0,1,2,2.06l-.48,12A2,2,0,0,1,37.44,47Z"/><path class="cls-8" d="M34.09,34.34H29.91a1,1,0,0,0-1,1l.17,4.25a1,1,0,0,0,1,1h.51l.09,2.22a1,1,0,0,0,1,1h.66a1,1,0,0,0,1-1l.09-2.22h.51a1,1,0,0,0,1-1l.17-4.25A1,1,0,0,0,34.09,34.34Z"/><path class="cls-7" d="M4.46,10.93l1,14.31H17l-.49-14.51a2,2,0,0,0-2-1.91H6.43A2,2,0,0,0,4.46,10.93Z"/><path class="cls-7" d="M47.47,10.73,47,25.24H58.56l1-14.31a2,2,0,0,0-2-2.11H49.45A2,2,0,0,0,47.47,10.73Z"/><path class="cls-9" d="M18,53.13l-.08-2.32H7.19l.17,2.53a2,2,0,0,0,2,1.84H16A2,2,0,0,0,18,53.13Z"/><path class="cls-9" d="M56.64,53.34l.17-2.53H46.1L46,53.13a2,2,0,0,0,2,2h6.67A2,2,0,0,0,56.64,53.34Z"/><path class="cls-10" d="M11.45,16.2c0,2.69-.41,4.86-2.13,4.86S6.2,18.89,6.2,16.2s1.39-4.86,3.12-4.86S11.45,13.52,11.45,16.2Z"/><path class="cls-10" d="M11.45,26.09c0,1.66-.33,3-1.73,3a2.8,2.8,0,0,1-2.53-3,2.8,2.8,0,0,1,2.53-3C11.12,23.08,11.45,24.43,11.45,26.09Z"/></g></g></svg>