<svg xmlns="http://www.w3.org/2000/svg" viewBox="0 0 64 64"><defs><style>.cls-1{fill:none;}.cls-2{fill:#e62e49;}.cls-3{fill:#f66;}.cls-4{fill:#a72d3e;}.cls-5{fill:#fdbc0d;}.cls-6{fill:#fee854;}.cls-7{fill:#9c3d29;}.cls-8{fill:#fc9504;}.cls-9{fill:#fff;}</style></defs><title>Chest</title><g id="Layer_2" data-name="Layer 2"><g id="Layer_2-2" data-name="Layer 2"><rect class="cls-1" width="64" height="64"/><polygon class="cls-2" points="10.45 54.56 8.44 12.08 55.56 12.08 53.55 54.56 10.45 54.56"/><rect class="cls-3" x="29.16" y="-8.64" width="5.67" height="47.13" transform="translate(46.92 -17.08) rotate(90)"/><rect class="cls-4" x="22.22" y="22.54" width="19.55" height="44.49" transform="translate(76.78 12.78) rotate(90)"/><path class="cls-5" d="M15.73,55.56H9a2,2,0,0,1-2-1.87L4,10.58A2,2,0,0,1,6,8.44h8.25a2,2,0,0,1,2,1.94l1.47,43.1A2,2,0,0,1,15.73,55.56Z"/><path class="cls-5" d="M55,55.56H48.27a2,2,0,0,1-2-2.08l1.47-43.1a2,2,0,0,1,2-1.94H58a2,2,0,0,1,2,2.14l-3,43.11A2,2,0,0,1,55,55.56Z"/><rect class="cls-5" x="26.95" y="16.49" width="10.09" height="47.13" transform="translate(72.05 8.05) rotate(90)"/><path class="cls-6" d="M37.52,47.26h-11a2,2,0,0,1-2-1.93L24,33.14a2,2,0,0,1,2-2.09H38a2,2,0,0,1,2,2.09l-.49,12.19A2,2,0,0,1,37.52,47.26Z"/><path class="cls-7" d="M34.12,34.38H29.88a1,1,0,0,0-1,1l.17,4.33a1,1,0,0,0,1,1h.52L30.66,43a1,1,0,0,0,1,1h.68a1,1,0,0,0,1-1l.09-2.26H34a1,1,0,0,0,1-1l.17-4.33A1,1,0,0,0,34.12,34.38Z"/><path class="cls-6" d="M4,10.58,5,25.13H16.77l-.5-14.75a2,2,0,0,0-2-1.94H6A2,2,0,0,0,4,10.58Z"/><path class="cls-6" d="M47.73,10.38l-.5,14.75H59l1-14.55a2,2,0,0,0-2-2.14H49.74A2,2,0,0,0,47.73,10.38Z"/><path class="cls-8" d="M17.74,53.48l-.08-2.36H6.78L7,53.69a2,2,0,0,0,2,1.87h6.77A2,2,0,0,0,17.74,53.48Z"/><path class="cls-8" d="M57.05,53.69l.17-2.57H46.34l-.08,2.36a2,2,0,0,0,2,2.08H55A2,2,0,0,0,57.05,53.69Z"/><path class="cls-9" d="M11.11,15.94c0,2.73-.41,4.94-2.17,4.94s-3.17-2.21-3.17-4.94S7.19,11,8.94,11,11.11,13.21,11.11,15.94Z"/><path class="cls-9" d="M11.11,26c0,1.69-.34,3.06-1.76,3.06A2.85,2.85,0,0,1,6.78,26a2.85,2.85,0,0,1,2.57-3.06C10.77,22.93,11.11,24.3,11.11,26Z"/></g></g></svg>