<svg xmlns="http://www.w3.org/2000/svg" viewBox="0 0 64 64"><defs><style>.cls-1{fill:none;}.cls-2{fill:#1a1a1a;}.cls-3{fill:#e62e49;}.cls-4{fill:#f66;}.cls-5{fill:#a72d3e;}.cls-6{fill:#fdbc0d;}.cls-7{fill:#fee854;}.cls-8{fill:#9c3d29;}.cls-9{fill:#fc9504;}.cls-10{fill:#fff;}</style></defs><title>Chest Outline</title><g id="Layer_2" data-name="Layer 2"><g id="Layer_2-2" data-name="Layer 2"><rect class="cls-1" width="64" height="64"/><path class="cls-2" d="M63.24,8.71a6.1,6.1,0,0,0-.53-1.09,5.93,5.93,0,0,0-5.07-2.83H49.5A5.92,5.92,0,0,0,44,8.39H20a6.38,6.38,0,0,0-.61-1.08A6,6,0,0,0,14.5,4.79H6.36A6,6,0,0,0,.42,11.14L3.33,53.67a6,6,0,0,0,5.94,5.54H16a5.91,5.91,0,0,0,3.28-1H44.77a5.91,5.91,0,0,0,3.28,1h6.68a5.94,5.94,0,0,0,5.94-5.54l2.91-42.53A6.18,6.18,0,0,0,63.24,8.71Z"/><polygon class="cls-3" points="10.74 54.25 8.75 12.35 55.25 12.35 53.26 54.25 10.74 54.25"/><rect class="cls-4" x="29.2" y="-8.1" width="5.6" height="46.49" transform="translate(47.15 -16.85) rotate(90)"/><rect class="cls-5" x="22.36" y="22.67" width="19.29" height="43.89" transform="translate(76.61 12.61) rotate(90)"/><path class="cls-6" d="M16,55.25H9.27a2,2,0,0,1-2-1.85L4.38,10.87a2,2,0,0,1,2-2.12H14.5a2,2,0,0,1,2,1.92l1.46,42.52A2,2,0,0,1,16,55.25Z"/><path class="cls-6" d="M54.73,55.25H48.05a2,2,0,0,1-2-2.06l1.46-42.52a2,2,0,0,1,2-1.92h8.14a2,2,0,0,1,2,2.12L56.71,53.4A2,2,0,0,1,54.73,55.25Z"/><rect class="cls-6" x="27.02" y="16.7" width="9.96" height="46.49" transform="translate(71.94 7.94) rotate(90)"/><path class="cls-7" d="M37.45,47.05H26.55a2,2,0,0,1-2-1.9l-.48-12a2,2,0,0,1,2-2.06H37.93a2,2,0,0,1,2,2.06l-.48,12A2,2,0,0,1,37.45,47.05Z"/><path class="cls-8" d="M34.09,34.35H29.91a1,1,0,0,0-1,1l.17,4.26a1,1,0,0,0,1,1h.51l.09,2.23a1,1,0,0,0,1,1h.66a1,1,0,0,0,1-1l.09-2.23h.51a1,1,0,0,0,1-1l.17-4.26A1,1,0,0,0,34.09,34.35Z"/><path class="cls-7" d="M4.38,10.87l1,14.36H17l-.5-14.56a2,2,0,0,0-2-1.92H6.36A2,2,0,0,0,4.38,10.87Z"/><path class="cls-7" d="M47.52,10.67,47,25.23H58.64l1-14.36a2,2,0,0,0-2-2.12H49.5A2,2,0,0,0,47.52,10.67Z"/><path class="cls-9" d="M17.94,53.19l-.08-2.33H7.11l.18,2.54a2,2,0,0,0,2,1.85H16A2,2,0,0,0,17.94,53.19Z"/><path class="cls-9" d="M56.71,53.4l.18-2.54H46.14l-.08,2.33a2,2,0,0,0,2,2.06h6.68A2,2,0,0,0,56.71,53.4Z"/><path class="cls-10" d="M11.39,16.16C11.39,18.85,11,21,9.25,21s-3.13-2.18-3.13-4.87,1.4-4.88,3.13-4.88S11.39,13.46,11.39,16.16Z"/><path class="cls-10" d="M11.39,26.07c0,1.67-.33,3-1.73,3a2.81,2.81,0,0,1-2.55-3,2.82,2.82,0,0,1,2.55-3C11.06,23.05,11.39,24.41,11.39,26.07Z"/></g></g></svg>