<svg xmlns="http://www.w3.org/2000/svg" viewBox="0 0 64 64"><defs><style>.cls-1,.cls-2{fill:#1a1a1a;}.cls-1{opacity:0;}.cls-3{fill:#37b9ff;}.cls-4{fill:#96dbff;}</style></defs><title>Rain Outline</title><g id="Layer_2" data-name="Layer 2"><g id="Layer_2-2" data-name="Layer 2"><rect class="cls-1" width="64" height="64"/><path class="cls-2" d="M45.2,62.3A14.2,14.2,0,0,1,32.79,41.21a18.15,18.15,0,0,1,2.2-3.1C38.48,34.05,44.47,30,50,30a9.52,9.52,0,0,1,4.68,1.16c6.72,3.73,6.3,14.47,4.46,20.37A18.23,18.23,0,0,1,57.63,55,14.22,14.22,0,0,1,45.2,62.3Z"/><path class="cls-3" d="M55.28,50.3c1.68-5.41,1.55-13.38-2.59-15.68s-11,1.81-14.67,6.1a15.26,15.26,0,0,0-1.73,2.43,10.2,10.2,0,1,0,17.84,9.9A14.58,14.58,0,0,0,55.28,50.3Z"/><ellipse class="cls-4" cx="44.68" cy="42.01" rx="5.97" ry="3.34" transform="translate(-16.64 41.45) rotate(-42.72)"/><path class="cls-2" d="M40.81,28.38A11.83,11.83,0,0,1,30.47,10.81a15.67,15.67,0,0,1,1.8-2.54C35.09,5,40,1.7,44.46,1.7a8.34,8.34,0,0,1,4,1c5.67,3.15,5.42,11.73,3.86,16.73a15.66,15.66,0,0,1-1.2,2.86,11.83,11.83,0,0,1-10.35,6.09Z"/><path class="cls-3" d="M48.54,18.24c1.3-4.16,1.2-10.27-2-12S38.14,7.59,35.3,10.89A10.57,10.57,0,0,0,34,12.75a7.83,7.83,0,1,0,13.69,7.6A10.79,10.79,0,0,0,48.54,18.24Z"/><ellipse class="cls-4" cx="40.41" cy="11.87" rx="4.58" ry="2.56" transform="translate(2.67 30.56) rotate(-42.72)"/><path class="cls-2" d="M16.53,49.8a12.81,12.81,0,0,1-11.19-19A17.18,17.18,0,0,1,7.3,28c3.1-3.6,8.42-7.23,13.33-7.23a8.76,8.76,0,0,1,4.3,1.07c6.13,3.4,5.81,12.76,4.11,18.22a16.09,16.09,0,0,1-1.31,3.13,12.81,12.81,0,0,1-11.2,6.59Z"/><path class="cls-3" d="M25.22,38.89c1.46-4.67,1.35-11.55-2.23-13.53s-9.46,1.56-12.66,5.27a13.12,13.12,0,0,0-1.49,2.09,8.8,8.8,0,0,0,15.4,8.54A12.7,12.7,0,0,0,25.22,38.89Z"/><ellipse class="cls-4" cx="16.08" cy="31.73" rx="5.15" ry="2.88" transform="translate(-17.26 19.33) rotate(-42.72)"/></g></g></svg>