<svg xmlns="http://www.w3.org/2000/svg" viewBox="0 0 64 64"><defs><style>.cls-1{fill:none;}.cls-2{fill:#1a1a1a;}.cls-3{fill:#e62e49;}</style></defs><title>X Outline</title><g id="Layer_2" data-name="Layer 2"><g id="Layer_2-2" data-name="Layer 2"><rect class="cls-1" width="64" height="64"/><path class="cls-2" d="M49.23,64a4,4,0,0,1-2.83-1.17L32,48.43,17.6,62.83a4,4,0,0,1-5.66,0L1.17,52.06a4,4,0,0,1,0-5.66L15.57,32,1.17,17.6a4,4,0,0,1,0-5.66L11.94,1.17a4,4,0,0,1,5.66,0L32,15.57,46.4,1.17a4,4,0,0,1,5.66,0L62.83,11.94a4,4,0,0,1,0,5.66L48.43,32l14.4,14.4a4,4,0,0,1,0,5.66L52.06,62.83A4,4,0,0,1,49.23,64Z"/><polygon class="cls-3" points="60 14.77 49.23 4 32 21.23 14.77 4 4 14.77 21.23 32 4 49.23 14.77 60 32 42.77 49.23 60 60 49.23 42.77 32 60 14.77"/></g></g></svg>