<?xml version="1.0" encoding="UTF-8"?>
<svg id="Layer_2" data-name="Layer 2" xmlns="http://www.w3.org/2000/svg" viewBox="0 0 64 64">
  <defs>
    <style>
      .cls-1 {
        opacity: 0;
      }

      .cls-2 {
        fill: #fff;
        stroke-width: 0px;
      }
    </style>
  </defs>
  <g id="Exports_1" data-name="Exports 1">
    <g>
      <g class="cls-1">
        <rect class="cls-2" width="64" height="64"/>
      </g>
      <path class="cls-2" d="M58.66,13.37c-.64-1.99-1.73-3.68-3.03-5.09-1.28-1.36-2.91-2.34-4.62-3.1-.46-.21-1.22-.01-1.77.47-.6.53-.74,1.21-.32,1.53l.05.04c1.27.93,2.39,2.03,3.21,3.37.23.33.37.72.56,1.07l.27.55.2.59c.12.4.29.79.38,1.21l.24,1.29c.09.43.06.91.1,1.36l.04.69-.05.72c-.04.49-.02.96-.11,1.46l-.25,1.5c-.47,2.05-1.2,4.14-2.28,6.18-.25.52-.59,1.02-.88,1.53l-.45.76-.53.74c-.36.49-.68.99-1.07,1.47l-1.19,1.41c-.37.49-.86.9-1.28,1.34-.44.43-.86.91-1.32,1.27-.46.37-.88.8-1.36,1.14-.48.34-.94.71-1.42,1.03-.86.58-1.75,1.08-2.64,1.52.45-.34.9-.7,1.33-1.07.67-.59,1.32-1.22,1.95-1.83l1.7-1.9c.55-.65,1.03-1.33,1.54-2,.26-.33.49-.67.71-1.02l.66-1.04c1.69-2.76,2.85-5.6,3.43-8.32,1.15-5.23.02-9.79-2.8-12.61-.34-.33-.72-.63-1.08-.93-.35-.3-.79-.52-1.19-.77-.39-.26-.84-.42-1.26-.6-.43-.17-.81-.38-1.29-.49l-1.34-.37c-.45-.11-.94-.16-1.4-.24l-.69-.1-.73-.04c-.48-.01-.94-.06-1.44-.04-1.91.03-3.92.38-5.9.91-1.95.53-3.91,1.35-5.8,2.3-1.87.95-3.69,2.14-5.41,3.44-1.71,1.3-3.29,2.79-4.76,4.32-.41.42-.59.96-.4,1.25.21.32.78.21,1.28-.23l.05-.05c1.44-1.29,2.92-2.48,4.46-3.49.38-.26.78-.48,1.17-.72l.59-.36.59-.31c.4-.2.79-.43,1.19-.62l1.2-.54c.4-.19.8-.3,1.2-.46l.6-.22.6-.17c.4-.11.81-.25,1.2-.34l1.19-.25c1.59-.26,3.14-.35,4.57-.2.37.02.71.12,1.06.17l.53.09.5.15c.33.11.68.19,1,.32l.93.43c.33.12.58.35.87.52.28.19.6.35.81.58.23.23.51.41.71.66.2.26.43.49.62.76.34.48.61,1.02.82,1.6-.22-.25-.45-.49-.69-.72-.39-.34-.81-.64-1.22-.94l-1.31-.7c-.44-.21-.93-.36-1.39-.54-.22-.09-.47-.15-.72-.21l-.74-.17c-1.95-.4-4.08-.39-6.26-.01-4.17.71-8.63,2.9-12.41,5.97-.47.38-.92.79-1.38,1.18-.46.39-.88.83-1.31,1.25-.45.42-.82.86-1.22,1.29-.39.44-.8.86-1.16,1.32l-1.1,1.37c-.36.46-.69.95-1.03,1.42l-.51.71-.46.73c-.3.49-.63.98-.91,1.48-1.17,2.01-2.09,4.09-2.83,6.16-.75,2.12-1.2,4.24-1.44,6.3-.24,2.12-.14,4.15.17,6.05.35,1.97,1.08,3.71,1.98,5.3.26.45.86.45,1.42-.03.61-.53.92-1.42.7-2l-.02-.06c-.63-1.61-1.07-3.29-1.22-5.09-.05-.43-.03-.9-.05-1.34l-.02-.66.04-.68c.04-.46.04-.89.1-1.35l.2-1.36c.06-.44.2-.91.29-1.36l.15-.67.21-.68c.14-.45.25-.89.41-1.33l.49-1.32c.72-1.73,1.58-3.43,2.61-5.05.24-.4.54-.79.8-1.18l.4-.58.44-.56c.3-.37.57-.75.88-1.11l.94-1.06c.3-.36.66-.68.98-1.02.33-.33.66-.68.99-.96.34-.29.66-.61,1.01-.88.35-.27.69-.55,1.04-.82.63-.47,1.27-.88,1.92-1.26-.34.28-.67.56-1,.85-.51.46-1,.94-1.49,1.42l-1.34,1.45c-.43.49-.84,1.02-1.25,1.52-.21.25-.4.52-.59.78l-.57.8c-1.5,2.16-2.74,4.47-3.64,6.79-1.88,4.81-2.3,9.83-1.07,13.89.16.53.37,1.03.56,1.54.19.52.48.96.73,1.45.24.5.57.88.88,1.31.32.41.6.88.98,1.23l1.12,1.14c.39.37.84.67,1.27,1.01l.66.49.73.41c.5.26.97.58,1.5.79,2.14.96,4.59,1.43,7.18,1.56,2.69.11,5.55-.36,8.42-1.19,2.95-.87,5.87-2.32,8.65-4.08,2.81-1.81,5.33-4.1,7.61-6.53.63-.67.73-1.65.21-2.27-.57-.67-1.64-.67-2.41-.02l-.09.07c-2.22,1.88-4.54,3.55-6.98,4.83-.59.34-1.22.57-1.82.86l-.9.41-.92.32c-.61.2-1.2.46-1.8.61l-1.78.45c-.59.16-1.17.19-1.75.29l-.86.13-.84.04c-.55.01-1.11.09-1.64.06l-1.57-.1c-2.01-.25-3.86-.75-5.46-1.59-.4-.18-.75-.46-1.13-.67l-.55-.34-.49-.41c-.31-.28-.65-.52-.94-.82l-.82-.92c-.29-.27-.48-.67-.72-.99-.22-.34-.48-.65-.62-1.02-.16-.36-.37-.67-.5-1.05-.12-.38-.27-.73-.38-1.11-.19-.67-.3-1.38-.37-2.1.13.34.27.67.43.99.26.5.56.97.86,1.44l1.03,1.24c.37.4.8.74,1.2,1.11.2.19.43.35.67.5l.71.47c1.98,1.22,4.37,1.96,7.01,2.16,5.57.44,12.11-1.68,17.73-5.84.71-.53,1.38-1.1,2.07-1.66.69-.55,1.29-1.2,1.93-1.8.66-.6,1.18-1.26,1.74-1.9.54-.65,1.14-1.25,1.61-1.94l1.46-2.01c.46-.68.85-1.38,1.27-2.07l.61-1.03.51-1.05c.32-.7.7-1.38.96-2.09,1.14-2.76,1.72-5.48,1.95-8.05.19-2.5-.14-4.8-.78-6.86ZM33.83,33.38c-3.44,3.44-7.96,4.48-10.2,2.24-3.44-3.44-3.44-9,0-12.44s9-3.44,12.44,0c2.24,2.24,1.2,6.77-2.24,10.2Z"/>
    </g>
  </g>
</svg>