<?xml version="1.0" encoding="UTF-8"?>
<svg id="Layer_2" data-name="Layer 2" xmlns="http://www.w3.org/2000/svg" viewBox="0 0 64 64">
  <defs>
    <style>
      .cls-1 {
        fill: #7500d4;
      }

      .cls-1, .cls-2, .cls-3, .cls-4, .cls-5, .cls-6, .cls-7 {
        stroke-width: 0px;
      }

      .cls-2, .cls-3 {
        fill: #1a1a1a;
      }

      .cls-3 {
        opacity: 0;
      }

      .cls-4 {
        fill: #d769ff;
      }

      .cls-5 {
        fill: #f2a6ff;
      }

      .cls-6 {
        fill: #fff;
      }

      .cls-7 {
        fill: #a0f;
      }
    </style>
  </defs>
  <g id="Exports_1" data-name="Exports 1">
    <g>
      <rect class="cls-3" width="64" height="64"/>
      <g>
        <path class="cls-2" d="M62.47,12.15c-.76-2.39-2.07-4.6-3.93-6.62-1.51-1.6-3.44-2.91-5.88-4-.64-.29-1.33-.43-2.06-.43-1.42,0-2.87.57-3.99,1.56-.35.31-.65.64-.91,1-.03-.01-.07-.03-.1-.04-.08-.03-.16-.07-.24-.1-.34-.15-.85-.37-1.49-.53,0,0-1.36-.38-1.41-.39-.42-.1-.86-.17-1.29-.23l-1.15-.17c-.13-.02-.26-.03-.39-.04l-1.19-.06c-.3-.02-.59-.03-.9-.03-.13,0-.26,0-.39,0-2.09.04-4.32.38-6.84,1.05-2.06.57-4.27,1.44-6.56,2.6-1.93.99-3.95,2.27-6.01,3.82-1.7,1.29-3.41,2.84-5.22,4.73-1.4,1.45-1.9,3.4-1.39,5.07l-.36.4c-.34.38-.69.75-.94,1.09l-1.15,1.42c-.28.35-.54.72-.79,1.08l-.85,1.2c-.04.06-.08.12-.12.18l-.77,1.23c-.25.39-.5.79-.68,1.12-1.22,2.09-2.24,4.32-3.15,6.85-.79,2.27-1.35,4.67-1.64,7.17-.27,2.35-.2,4.76.21,7.2.4,2.23,1.2,4.39,2.44,6.58.84,1.48,2.36,2.36,4.06,2.36,1.13,0,2.26-.41,3.21-1.15.09.1.2.2.3.31l1.06,1.08s.08.08.12.12c.42.4.84.71,1.17.96.12.09,1.1.82,1.1.82.14.1.28.2.43.28,0,0,.8.45.83.47.12.06.24.13.37.2.38.22.85.49,1.43.72,2.46,1.09,5.25,1.71,8.59,1.88.31.01.61.02.92.02,2.7,0,5.65-.46,8.79-1.37,3.1-.92,6.34-2.44,9.68-4.55,2.8-1.81,5.54-4.15,8.36-7.15,2.04-2.17,2.19-5.44.34-7.6-.16-.19-.34-.37-.52-.53.03-.04.56-.64.59-.68.15-.18.31-.36.47-.54.42-.47.89-1.01,1.34-1.66l1.48-2.05c.37-.53.69-1.08,1.02-1.63.12-.21,1.01-1.7,1.01-1.7.06-.1.11-.19.16-.29l.54-1.12c.09-.21.2-.41.3-.61.24-.5.52-1.06.76-1.68,1.18-2.88,1.93-5.97,2.22-9.21.22-2.82-.1-5.64-.96-8.39Z"/>
        <g>
          <path class="cls-7" d="M51.02,5.18c-.46-.21-1.22-.01-1.77.47-.6.53-.74,1.21-.32,1.53l.05.04c1.27.93,2.39,2.03,3.21,3.37.23.33.37.72.56,1.07l.27.55.2.59c.12.4.29.79.38,1.21l.24,1.29c.09.43.06.91.1,1.36l.04.69-.05.72c-.04.49-.02.96-.11,1.46l-.25,1.5c-.47,2.05-1.2,4.14-2.28,6.18-.25.52-.59,1.02-.88,1.53l-.45.76-.53.74c-.36.49-.68.99-1.07,1.47l-1.19,1.41c-.37.49-.86.9-1.28,1.34-.44.43-.86.91-1.32,1.27-.46.37-.88.8-1.36,1.14-.48.34-.94.71-1.42,1.03-.86.58-1.75,1.08-2.64,1.52.45-.34.9-.7,1.33-1.07.67-.59,1.32-1.22,1.95-1.83l1.7-1.91c.55-.65,1.03-1.33,1.54-2,.26-.33.49-.67.71-1.02l.66-1.04c1.69-2.76,2.85-5.6,3.43-8.32,1.15-5.23.02-9.79-2.8-12.61-.34-.33-.72-.63-1.08-.93-.35-.3-.79-.52-1.19-.77-.39-.26-.84-.42-1.26-.6-.43-.17-.81-.38-1.29-.49l-1.34-.37c-.45-.11-.94-.16-1.4-.24l-.69-.1-.73-.04c-.48-.01-.94-.06-1.44-.04-1.91.03-3.92.38-5.9.91-1.95.53-3.91,1.35-5.8,2.3-1.87.95-3.69,2.14-5.41,3.44-1.71,1.3-3.29,2.79-4.76,4.32-.41.42-.59.96-.4,1.25.21.32.78.21,1.28-.23l.05-.05c1.44-1.29,2.92-2.48,4.46-3.49.38-.26.78-.48,1.17-.72l.59-.36.59-.31c.4-.2.79-.43,1.19-.62l1.2-.54c.4-.19.8-.3,1.2-.46l.6-.22.6-.17c.4-.11.81-.25,1.2-.34l1.19-.25c1.59-.26,3.14-.35,4.57-.2.37.02.71.12,1.06.17l.53.09.5.15c.33.11.68.19,1,.32l.93.43c.33.12.58.35.87.52.28.19.6.35.81.58.23.23.51.41.71.66.2.26.43.49.62.76.34.48.61,1.02.82,1.6-.22-.25-.45-.49-.69-.72-.39-.34-.81-.64-1.22-.94l-1.31-.7c-.44-.21-.93-.36-1.39-.54-.22-.09-.47-.15-.72-.21l-.74-.17c-1.95-.4-4.08-.39-6.26-.01-4.17.71-8.63,2.9-12.41,5.97-.47.38-.92.79-1.38,1.18-.46.39-.88.83-1.31,1.25-.45.42-.82.86-1.22,1.29-.39.44-.8.86-1.16,1.32l-1.1,1.37c-.36.46-.69.95-1.03,1.42l-.51.71-.46.73c-.3.49-.63.98-.91,1.48-1.17,2.01-2.09,4.09-2.83,6.16-.75,2.12-1.2,4.24-1.44,6.3-.24,2.12-.14,4.15.17,6.05.35,1.97,1.08,3.71,1.98,5.3.26.45.86.45,1.42-.03.61-.53.92-1.42.7-2l-.02-.06c-.63-1.61-1.07-3.29-1.22-5.09-.05-.43-.03-.9-.05-1.34l-.02-.66.04-.68c.04-.46.04-.89.1-1.35l.2-1.36c.06-.44.2-.91.29-1.36l.15-.67.21-.68c.14-.45.25-.89.41-1.33l.49-1.32c.72-1.73,1.58-3.43,2.61-5.05.24-.4.54-.79.8-1.18l.4-.58.44-.56c.3-.37.57-.75.88-1.11l.94-1.06c.3-.36.66-.68.98-1.02.33-.33.66-.68,1-.96.34-.29.66-.61,1.01-.88.35-.27.69-.55,1.04-.82.63-.47,1.27-.88,1.92-1.26-.34.28-.67.56-1,.85-.51.46-1,.94-1.49,1.42l-1.34,1.46c-.43.49-.84,1.02-1.25,1.52-.21.25-.4.52-.59.78l-.57.8c-1.5,2.16-2.74,4.47-3.64,6.79-1.88,4.81-2.3,9.83-1.07,13.89.16.53.37,1.03.56,1.54.19.52.48.96.73,1.45.24.5.57.88.88,1.31.32.41.6.88.98,1.23l1.12,1.14c.39.37.84.67,1.27,1.01l.66.49.73.41c.5.26.97.58,1.5.79,2.14.96,4.59,1.43,7.18,1.56,2.69.11,5.55-.36,8.42-1.19,2.95-.87,5.87-2.32,8.65-4.08,2.81-1.81,5.33-4.1,7.61-6.53.63-.67.73-1.65.21-2.27-.57-.67-1.64-.67-2.41-.02l-.09.07c-2.22,1.88-4.54,3.55-6.98,4.83-.59.34-1.22.57-1.82.86l-.9.41-.92.32c-.61.2-1.2.46-1.8.61l-1.78.45c-.59.16-1.17.19-1.75.29l-.86.13-.84.04c-.55.01-1.11.09-1.64.06l-1.57-.1c-2.01-.25-3.86-.75-5.46-1.59-.4-.18-.75-.46-1.13-.67l-.55-.34-.49-.41c-.31-.28-.65-.52-.94-.82l-.82-.92c-.29-.27-.48-.67-.72-.99-.22-.34-.48-.65-.62-1.02-.16-.36-.37-.67-.5-1.05-.12-.38-.27-.73-.38-1.11-.19-.67-.3-1.38-.37-2.1.13.34.27.67.43.99.26.5.56.97.86,1.44l1.03,1.24c.37.4.8.74,1.2,1.11.2.19.43.35.67.5l.71.47c1.98,1.22,4.37,1.96,7.01,2.16,5.57.44,12.11-1.69,17.73-5.84.71-.53,1.38-1.1,2.07-1.66.69-.55,1.29-1.2,1.93-1.8.66-.6,1.18-1.26,1.74-1.9.54-.65,1.14-1.25,1.61-1.94l1.46-2.01c.46-.68.85-1.38,1.27-2.07l.61-1.03.51-1.05c.32-.7.7-1.38.96-2.09,1.14-2.76,1.72-5.48,1.95-8.05.19-2.5-.14-4.8-.78-6.86-.64-1.99-1.73-3.68-3.03-5.09-1.28-1.36-2.91-2.34-4.62-3.1Z"/>
          <g>
            <path class="cls-1" d="M16.27,18.05l.05-.05c1.44-1.29,2.92-2.48,4.46-3.49.38-.26.78-.48,1.17-.72l.59-.36.59-.31c.4-.2.79-.43,1.19-.62l1.2-.54c.4-.19.8-.3,1.2-.46l.6-.22.6-.17c.4-.11.81-.25,1.2-.34l1.19-.25c1.33-.22,2.63-.31,3.86-.24,5.37-.9,10.42.25,13.85,3.69,1.26,1.26,2.22,2.75,2.87,4.38,0-3.56-1.15-6.61-3.24-8.69-.34-.33-.72-.63-1.08-.93-.35-.3-.79-.52-1.19-.77-.39-.26-.84-.42-1.26-.6-.43-.17-.81-.38-1.29-.49l-1.34-.37c-.45-.11-.94-.16-1.4-.24l-.69-.1-.73-.04c-.48-.01-.94-.06-1.44-.04-1.91.03-3.92.38-5.9.91-1.95.53-3.91,1.35-5.8,2.3-1.87.95-3.69,2.14-5.41,3.44-1.71,1.3-3.29,2.79-4.76,4.32-.41.42-.59.96-.4,1.25.21.32.78.21,1.28-.23Z"/>
            <path class="cls-1" d="M18.68,18.68c1.55-1.55,3.21-2.89,4.92-4.03-1.95.98-3.85,2.21-5.6,3.63-.47.38-.92.79-1.38,1.18-.46.39-.88.83-1.31,1.25-.45.42-.82.86-1.22,1.29-.39.44-.8.86-1.16,1.32l-1.1,1.37c-.36.46-.69.95-1.03,1.42l-.51.71-.46.73c-.3.49-.63.98-.91,1.48-1.17,2.01-2.09,4.09-2.83,6.16-.75,2.12-1.2,4.24-1.44,6.3-.24,2.12-.14,4.15.17,6.05.35,1.97,1.08,3.71,1.98,5.3.26.45.86.45,1.42-.03.61-.53.92-1.42.7-2l-.02-.06c-.63-1.61-1.07-3.29-1.22-5.09-.05-.43-.03-.9-.05-1.34l-.02-.66.04-.68c.04-.46.04-.89.1-1.35l.2-1.36c.06-.44.2-.91.29-1.36l.15-.67.21-.68c.14-.45.25-.89.41-1.33l.49-1.32c.35-.85.74-1.69,1.16-2.52,1.18-4.73,3.9-9.59,8.04-13.74Z"/>
            <path class="cls-1" d="M58.66,13.37c-.64-1.99-1.73-3.68-3.03-5.09-1.28-1.36-2.91-2.34-4.62-3.1-.46-.21-1.22-.01-1.77.47-.6.53-.74,1.21-.31,1.53l.05.04c1.27.93,2.39,2.03,3.21,3.37.23.33.37.72.56,1.07l.27.55.2.59c.12.4.29.79.38,1.21l.24,1.29c.09.43.06.91.1,1.36l.04.69-.05.72c-.04.49-.02.96-.11,1.46l-.25,1.5c-.36,1.58-.88,3.19-1.6,4.78-.42,5.83-3.4,12.24-8.65,17.5-2.03,2.03-4.23,3.69-6.5,5.02,2.91-1,5.81-2.52,8.51-4.51.71-.53,1.38-1.1,2.07-1.66.69-.55,1.29-1.2,1.93-1.8.66-.6,1.18-1.26,1.74-1.9.54-.65,1.14-1.25,1.61-1.94l1.46-2.01c.46-.68.85-1.38,1.27-2.07l.61-1.03.51-1.05c.32-.7.7-1.38.96-2.09,1.14-2.76,1.72-5.48,1.95-8.05.19-2.5-.14-4.8-.78-6.86Z"/>
            <path class="cls-1" d="M48.62,44.81l-.09.07c-2.22,1.88-4.54,3.55-6.98,4.83-.59.34-1.22.57-1.82.86l-.9.41-.92.32c-.61.2-1.2.46-1.8.61l-1.78.45c-.59.16-1.17.19-1.75.29l-.86.13-.84.04c-.55.01-1.11.09-1.64.06l-1.57-.1c-1.23-.15-2.39-.42-3.48-.78-3.97-.05-7.58-1.33-10.22-3.97-2.25-2.25-3.51-5.21-3.86-8.48-.46,2.98-.34,5.88.43,8.4.16.53.37,1.03.56,1.54.19.52.48.96.73,1.45.24.5.57.88.88,1.31.32.41.6.88.98,1.23l1.12,1.14c.39.37.84.67,1.27,1.01l.66.49.73.41c.5.26.97.58,1.5.79,2.14.96,4.59,1.43,7.18,1.56,2.69.11,5.55-.36,8.42-1.19,2.95-.87,5.87-2.32,8.65-4.08,2.81-1.81,5.33-4.1,7.61-6.53.63-.67.73-1.65.21-2.27-.57-.67-1.64-.67-2.41-.02Z"/>
          </g>
          <path class="cls-4" d="M37.86,33.5c.73-1.31,1.48-2.61,2.07-3.91.6-1.29,1.09-2.59,1.27-3.84.17-1.25.09-2.43-.43-3.55-.49-1.14-1.41-2.21-2.46-3.32h-.01c-.2-.23-.19-.57.02-.77.14-.14.34-.18.52-.12,1.56.46,3.08,1.41,4.14,2.92.54.74.91,1.64,1.09,2.55.18.92.18,1.86.04,2.75-.28,1.78-1.07,3.34-2.01,4.68-.98,1.33-2.11,2.48-3.51,3.36-.25.16-.58.08-.73-.17-.11-.17-.11-.38-.02-.54l.02-.03Z"/>
          <path class="cls-4" d="M32.05,15.78c-.76.04-1.52.13-2.25.27-.73.14-1.45.33-2.15.56-.35.13-.7.24-1.04.39-.17.07-.35.13-.52.21-.17.08-.34.16-.52.23-.18.07-.35.15-.52.24l-.52.25c-.35.17-.69.36-1.08.51h-.03c-.15.07-.31,0-.36-.15-.04-.09-.02-.19.04-.27.25-.34.52-.65.82-.95.32-.27.62-.57.98-.8.69-.5,1.46-.87,2.27-1.14.82-.26,1.67-.4,2.53-.4.86,0,1.71.13,2.51.52.14.07.2.23.13.37-.05.09-.14.15-.24.16h-.04Z"/>
          <path class="cls-4" d="M25.82,24.09c-.7.3-1.39.65-2.02,1.03-.64.38-1.25.81-1.83,1.27-.28.25-.58.46-.85.73-.14.12-.28.24-.42.37-.13.14-.26.27-.4.4-.14.13-.27.26-.4.41l-.41.41c-.27.28-.53.58-.84.85l-.02.02c-.12.1-.3.09-.4-.03-.07-.07-.08-.18-.06-.27.12-.4.27-.79.44-1.18.2-.36.38-.75.64-1.09.47-.7,1.08-1.32,1.74-1.86.68-.52,1.43-.95,2.24-1.24.81-.29,1.65-.47,2.54-.37.15.02.26.15.25.31-.01.1-.08.19-.17.23l-.04.02Z"/>
          <path class="cls-4" d="M23.51,43.24c1.31.74,2.8,1.18,4.25,1.36,1.47.17,2.95.07,4.41-.24.36-.1.73-.15,1.09-.25l1.07-.35c.18-.06.37-.1.54-.17l.53-.22c.35-.15.71-.29,1.07-.43.35-.15.69-.34,1.05-.5.35-.17.71-.32,1.06-.5.69-.37,1.38-.76,2.12-1.09h.03c.19-.1.41-.01.49.17.06.14.03.3-.07.41-.57.59-1.19,1.14-1.8,1.69-.66.49-1.34.98-2.05,1.42-1.46.81-3.01,1.54-4.72,1.85-1.68.33-3.46.37-5.15-.06-1.68-.43-3.27-1.23-4.42-2.57-.13-.15-.12-.38.04-.52.12-.1.29-.12.42-.04l.05.03Z"/>
          <path class="cls-4" d="M24.98,27.56c-.53,1.1-1.11,2.15-1.61,3.18-.5,1.02-.94,2.04-1.21,3-.25.97-.32,1.84-.1,2.67.22.84.84,1.7,1.65,2.61l.02.02c.2.22.18.57-.05.77-.13.12-.31.16-.47.13-.67-.14-1.32-.39-1.93-.8-.6-.41-1.17-.96-1.56-1.66-.4-.69-.61-1.5-.67-2.28-.05-.78.06-1.54.25-2.24.4-1.39,1.11-2.58,1.95-3.6.85-1.01,1.81-1.88,2.99-2.54.26-.14.59-.05.73.21.09.16.09.34.01.49l-.02.04Z"/>
          <path class="cls-6" d="M36.07,23.18c2.24,2.24,1.2,6.77-2.24,10.2s-7.96,4.48-10.2,2.24c-3.44-3.44-3.44-9,0-12.44s9-3.44,12.44,0Z"/>
          <path class="cls-6" d="M48.17,14.31l-2.36-.93-.93-2.36c-.3-.76-1.38-.76-1.68,0l-.93,2.36-2.36.93c-.76.3-.76,1.38,0,1.68l2.36.93.93,2.36c.3.76,1.38.76,1.68,0l.93-2.36,2.36-.93c.76-.3.76-1.38,0-1.68Z"/>
          <path class="cls-5" d="M35.74,11.36l-1.77-.7-.7-1.77c-.23-.57-1.04-.57-1.26,0l-.7,1.77-1.77.7c-.57.23-.57,1.04,0,1.26l1.77.7.7,1.77c.23.57,1.04.57,1.26,0l.7-1.77,1.77-.7c.57-.23.57-1.04,0-1.26Z"/>
          <path class="cls-5" d="M47.09,42l-1.77-.7-.7-1.77c-.23-.57-1.04-.57-1.26,0l-.7,1.77-1.77.7c-.57.23-.57,1.04,0,1.26l1.77.7.7,1.77c.23.57,1.04.57,1.26,0l.7-1.77,1.77-.7c.57-.23.57-1.04,0-1.26Z"/>
          <path class="cls-5" d="M19.72,38.03l-2.08-.82-.82-2.08c-.27-.67-1.22-.67-1.48,0l-.82,2.08-2.08.82c-.67.27-.67,1.22,0,1.48l2.08.82.82,2.08c.27.67,1.22.67,1.48,0l.82-2.08,2.08-.82c.67-.27.67-1.22,0-1.48Z"/>
          <circle class="cls-5" cx="19.28" cy="50.21" r="1.93"/>
          <circle class="cls-6" cx="7.65" cy="42.71" r="1.93"/>
        </g>
      </g>
    </g>
  </g>
</svg>