<?xml version="1.0" encoding="UTF-8"?>
<svg id="Layer_2" data-name="Layer 2" xmlns="http://www.w3.org/2000/svg" viewBox="0 0 64 64">
  <defs>
    <style>
      .cls-1 {
        fill: #fff;
      }

      .cls-2 {
        fill: #a72d3e;
      }

      .cls-3 {
        fill: #476475;
      }

      .cls-4 {
        fill: rgba(26, 26, 26, 0);
      }

      .cls-5 {
        fill: #e62e49;
      }

      .cls-6 {
        fill: #1a1a1a;
      }

      .cls-7 {
        fill: #c62d43;
      }
    </style>
  </defs>
  <g id="Colour">
    <g>
      <rect class="cls-4" x="0" y="0" width="64" height="64" transform="translate(64 0) rotate(90)"/>
      <g>
        <path class="cls-6" d="M62.77,33.61l-7.74-17.78c-.59-1.35-1.65-2.44-2.99-3.06L34.5,4.71c-.79-.36-1.63-.55-2.51-.55s-1.71,.18-2.51,.55L11.96,12.78c-1.34,.62-2.41,1.71-3,3.06L1.23,33.62c-1.1,2.53,.07,5.48,2.59,6.58l2.51,1.09v7.82c-.79,.88-1.26,2.05-1.26,3.32v2.41c0,2.76,2.24,5,5,5h13.53c1.27,0,2.44-.48,3.32-1.26h10.16c.88,.79,2.05,1.26,3.32,1.26h13.53c2.76,0,5-2.24,5-5v-2.41c0-1.27-.48-2.43-1.26-3.32v-7.82l2.52-1.09c1.22-.53,2.17-1.51,2.66-2.75,.49-1.24,.47-2.6-.07-3.83Z"/>
        <polygon class="cls-5" points="16.65 19.05 32 11.99 47.35 19.05 53.66 33.57 53.66 54.57 10.33 54.57 10.33 33.57 16.65 19.05"/>
        <path class="cls-1" d="M53.93,51.42h-10.32v-19.07c0-.55-.45-1-1-1H21.39c-.55,0-1,.45-1,1v19.07H10.07c-.55,0-1,.45-1,1v2.41c0,.55,.45,1,1,1h13.53c.55,0,1-.45,1-1v-19.27h14.8v19.27c0,.55,.45,1,1,1h13.53c.55,0,1-.45,1-1v-2.41c0-.55-.45-1-1-1Z"/>
        <rect class="cls-2" x="24.6" y="35.57" width="14.8" height="19.01"/>
        <polygon class="cls-7" points="14.93 22.99 49.06 22.99 47.35 19.05 32 11.99 16.65 19.05 14.93 22.99"/>
        <path class="cls-3" d="M59.1,35.21l-7.74-17.78c-.2-.45-.55-.81-1-1.02l-17.53-8.06c-.53-.24-1.14-.24-1.67,0L13.63,16.41c-.45,.21-.8,.57-1,1.02l-7.74,17.78c-.22,.51,.01,1.1,.52,1.32l2.8,1.22c.51,.22,1.1-.01,1.32-.52l7.27-16.71,15.2-6.99,15.2,6.99,7.27,16.71c.22,.51,.81,.74,1.32,.52l2.8-1.22c.51-.22,.74-.81,.52-1.32Z"/>
      </g>
    </g>
  </g>
</svg>