<?xml version="1.0" encoding="UTF-8"?>
<svg id="Layer_2" data-name="Layer 2" xmlns="http://www.w3.org/2000/svg" viewBox="0 0 64 64">
  <defs>
    <style>
      .cls-1 {
        fill: #fff;
      }

      .cls-2 {
        fill: rgba(26, 26, 26, 0);
      }
    </style>
  </defs>
  <g id="BW">
    <g>
      <rect class="cls-2" x="0" y="0" width="64" height="64" transform="translate(64 0) rotate(90)"/>
      <path class="cls-1" d="M62.77,33.61l-7.74-17.78c-.59-1.35-1.65-2.44-2.99-3.06L34.5,4.71c-.79-.36-1.63-.55-2.51-.55s-1.71,.18-2.51,.55L11.96,12.78c-1.34,.62-2.41,1.71-3,3.06L1.23,33.62c-1.1,2.53,.07,5.48,2.59,6.58l2.51,1.09v7.82c-.79,.88-1.26,2.05-1.26,3.32v2.41c0,2.76,2.24,5,5,5h13.53c1.27,0,2.44-.48,3.32-1.26h10.16c.88,.79,2.05,1.26,3.32,1.26h13.53c2.76,0,5-2.24,5-5v-2.41c0-1.27-.48-2.43-1.26-3.32v-7.82l2.52-1.09c1.22-.53,2.17-1.51,2.66-2.75,.49-1.24,.47-2.6-.07-3.83Zm-7.84,21.22c0,.55-.45,1-1,1h-13.53c-.55,0-1-.45-1-1v-19.27h-14.8v19.27c0,.55-.45,1-1,1H10.07c-.55,0-1-.45-1-1v-2.41c0-.55,.45-1,1-1h10.32v-19.07c0-.55,.45-1,1-1h21.22c.55,0,1,.45,1,1v19.07h10.32c.55,0,1,.45,1,1v2.41Zm3.66-18.31l-2.8,1.22c-.51,.22-1.1-.01-1.32-.52l-7.27-16.71-15.2-6.99-15.2,6.99-7.27,16.71c-.22,.51-.81,.74-1.32,.52l-2.8-1.22c-.51-.22-.74-.81-.52-1.32l7.74-17.78c.2-.45,.55-.81,1-1.02L31.16,8.35c.53-.24,1.14-.24,1.67,0l17.53,8.06c.45,.21,.8,.57,1,1.02l7.74,17.78c.22,.51-.01,1.1-.52,1.32Z"/>
    </g>
  </g>
</svg>