<svg xmlns="http://www.w3.org/2000/svg" viewBox="0 0 64 64"><defs><style>.cls-1{opacity:0;}.cls-2{fill:#fff;}.cls-3{fill:#1778ff;}.cls-4{fill:#37b9ff;}</style></defs><title>Fire Blue</title><g id="Layer_2" data-name="Layer 2"><g id="_101-200" data-name="101-200"><g class="cls-1"><rect class="cls-2" width="64" height="64"/></g><path class="cls-3" d="M51.85,35.27A21.43,21.43,0,0,0,47.51,24.2l-3.93,5.56C42.21,19.07,35.35,11.37,27.65,4.44a46.2,46.2,0,0,1-5.08,20c-.77-1.79-1.55-3.57-2.32-5.35-6.89,8.32-8.76,13.75-8.2,21.76.55,7.73,6.71,15.71,14.3,17.84C41.13,62.88,53.74,50.78,51.85,35.27Z"/><path class="cls-4" d="M30.78,56.23a11.77,11.77,0,0,0,12.66-7.72C46.89,39.71,37.06,37,34.59,33c-2.17-3.54-2.47-10.8-2.47-10.8s-9.33,4.62-6.81,14.14c2.21,8.34-4.54,6.58-3,.59C22.28,36.9,13,53.26,30.78,56.23Z"/><path class="cls-2" d="M37.21,48.86c1,6.06-6.61,7-9.5,2.74-3.41-5,1.66-10.21,4.67-14C33.84,40.88,36.45,45.37,37.21,48.86Z"/></g></g></svg>