<svg xmlns="http://www.w3.org/2000/svg" viewBox="0 0 128 128"><defs><style>.cls-1{fill:none;}.cls-2{fill:#1a1a1a;}</style></defs><title>Fire Black </title><g id="Layer_2" data-name="Layer 2"><g id="_14-25" data-name="14-25"><rect class="cls-1" width="128" height="128"/><path class="cls-2" d="M104.34,70.65c-1-8-3.62-16.18-8.84-22.51l-8,11.31C84.74,37.74,70.81,22.1,55.16,8A93.67,93.67,0,0,1,44.84,48.74q-2.36-5.44-4.72-10.87c-14,16.91-17.79,27.93-16.64,44.22,1.1,15.69,13.62,31.92,29,36.24C82.54,126.75,108.17,102.15,104.34,70.65ZM81.62,98.55c-6.46,22.17-34.69,11.78-37.16-6.71C42.84,79.67,56,64.19,63.23,55.74,63.85,76.08,87,80,81.62,98.55Z"/></g></g></svg>