<svg xmlns="http://www.w3.org/2000/svg" viewBox="0 0 128 128"><defs><style>.cls-1{fill:none;}.cls-2{fill:#1a1a1a;}.cls-3{fill:#e62e49;}.cls-4{fill:#fdbc0d;}.cls-5{fill:#fff;}</style></defs><title>Fire Outline </title><g id="Layer_2" data-name="Layer 2"><g id="_14-25" data-name="14-25"><rect class="cls-1" width="128" height="128"/><path class="cls-2" d="M64.34,127a51.24,51.24,0,0,1-13.77-1.93c-18.2-5.11-33-23.46-34.31-42.71C15,63.91,19.71,51.06,34.43,33.26A7.89,7.89,0,0,1,40.5,30.4a8.26,8.26,0,0,1,1.1.08,7.88,7.88,0,0,1,2.29.69A85.13,85.13,0,0,0,47.43,8.69,7.88,7.88,0,0,1,60.57,3c11.54,10.39,23.51,22.84,30,38.86a7.88,7.88,0,0,1,4.13-1.36H95a7.87,7.87,0,0,1,6.08,2.86c5.56,6.75,9.17,15.81,10.44,26.22,1.88,15.53-2.59,30.71-12.29,41.66A46.06,46.06,0,0,1,64.34,127Z"/><path class="cls-3" d="M103.71,70.55c-1-7.92-3.56-15.93-8.7-22.16L87.16,59.52C84.42,38.15,70.7,22.75,55.3,8.87A92.05,92.05,0,0,1,45.14,49q-2.32-5.34-4.64-10.69C26.73,54.93,23,65.78,24.11,81.81c1.09,15.45,13.41,31.42,28.59,35.67C82.26,125.77,107.48,101.55,103.71,70.55Z"/><path class="cls-4" d="M61.56,112.47C70.24,113.92,82,109.53,86.88,97,93.79,79.42,74.12,74,69.19,65.93c-4.36-7.07-4.94-21.6-4.94-21.6S45.59,53.58,50.62,72.61C55,89.3,41.53,85.78,44.56,73.8,44.56,73.8,26.07,106.53,61.56,112.47Z"/><path class="cls-5" d="M74.43,97.72c2.06,12.12-13.22,14-19,5.48-6.81-10.08,3.33-20.42,9.34-28C67.68,81.77,72.9,90.74,74.43,97.72Z"/></g></g></svg>