<svg xmlns="http://www.w3.org/2000/svg" viewBox="0 0 64 64"><defs><style>.cls-1{opacity:0;}.cls-2{fill:#1a1a1a;}.cls-3{fill:#a0f;}.cls-4{fill:#e96eff;}.cls-5{fill:#fff;}</style></defs><title>Fire Purple Outline</title><g id="Layer_2" data-name="Layer 2"><g id="_101-200" data-name="101-200"><g class="cls-1"><rect class="cls-2" width="64" height="64"/></g><path class="cls-2" d="M32.17,63.5a25.17,25.17,0,0,1-6.88-1C16.18,60,8.81,50.8,8.13,41.18,7.48,32,9.85,25.53,17.21,16.63a4,4,0,0,1,3-1.43,3.48,3.48,0,0,1,.55,0,4,4,0,0,1,1.14.34A42,42,0,0,0,23.71,4.34,4,4,0,0,1,26.09.82,4,4,0,0,1,27.65.5a4,4,0,0,1,2.64,1c5.76,5.2,11.75,11.42,15,19.43a4,4,0,0,1,2.07-.68h.15a3.92,3.92,0,0,1,3,1.43A25.18,25.18,0,0,1,55.76,34.8a26.47,26.47,0,0,1-6.14,20.83A23,23,0,0,1,32.17,63.5Z"/><path class="cls-3" d="M51.85,35.27A21.43,21.43,0,0,0,47.51,24.2l-3.93,5.56C42.21,19.07,35.35,11.37,27.65,4.44a46.06,46.06,0,0,1-5.08,20c-.77-1.79-1.55-3.57-2.32-5.35-6.89,8.32-8.76,13.75-8.19,21.77.54,7.72,6.7,15.7,14.29,17.83C41.13,62.88,53.74,50.78,51.85,35.27Z"/><path class="cls-4" d="M30.78,56.23a11.77,11.77,0,0,0,12.66-7.72C46.9,39.71,37.06,37,34.59,33c-2.17-3.54-2.47-10.8-2.47-10.8s-9.32,4.62-6.81,14.14c2.21,8.34-4.54,6.58-3,.59C22.28,36.9,13,53.26,30.78,56.23Z"/><path class="cls-5" d="M37.21,48.86c1,6.06-6.61,7-9.5,2.74-3.4-5,1.67-10.21,4.67-14C33.84,40.88,36.45,45.37,37.21,48.86Z"/></g></g></svg>