<?xml version="1.0" encoding="UTF-8"?>
<svg id="Layer_2" data-name="Layer 2" xmlns="http://www.w3.org/2000/svg" viewBox="0 0 64 64">
  <defs>
    <style>
      .cls-1 {
        fill: #fff;
      }

      .cls-2 {
        fill: #ebf0f2;
      }

      .cls-3 {
        fill: #476475;
      }

      .cls-4 {
        fill: #bdccd4;
      }

      .cls-5 {
        opacity: 0;
      }

      .cls-5, .cls-6 {
        fill: #1a1a1a;
      }
    </style>
  </defs>
  <g id="Outlines">
    <g id="Toilet_Paper_Outline" data-name="Toilet Paper Outline">
      <rect class="cls-5" width="64" height="64"/>
      <g>
        <path class="cls-6" d="M58.49,14.39c0-.32-.04-.64-.11-.94C57.05,4.95,44.24,.5,32,.5S6.97,4.94,5.63,13.44c-.08,.31-.12,.63-.12,.96v30.58c0,.06,0,.13,0,.19,0,.09,0,.17,0,.26,0,4.44,3.24,8.35,8.99,10.98v2.2c0,2.7,2.2,4.89,4.9,4.89,.9,0,1.77-.25,2.54-.71,4.83-2.93,10.02-3.02,10.05-3.02,15.1,0,26.49-6.17,26.49-14.34,0-.09,0-.17,0-.26,0-.06,0-.13,0-.19V14.39Z"/>
        <g>
          <g>
            <path class="cls-4" d="M9.51,14.39v30.58h.02c-.01,.15-.02,.3-.02,.45,0,5.71,10.07,10.34,22.49,10.34V14.39H9.51Z"/>
            <path class="cls-1" d="M54.49,45.43c0-.15-.01-.3-.02-.45h.02V14.39h-22.49V55.77c12.42,0,22.49-4.63,22.49-10.34Z"/>
          </g>
          <ellipse class="cls-1" cx="32" cy="14.84" rx="22.49" ry="10.34"/>
          <ellipse class="cls-3" cx="32" cy="14.84" rx="8.1" ry="3.72"/>
          <path class="cls-1" d="M19.3,29.26c-.5,.33-.79,.9-.79,1.5v27.85c0,.7,.77,1.13,1.36,.76,5.93-3.6,12.13-3.6,12.13-3.6V25.3s-6.61,0-12.7,3.96Z"/>
          <g>
            <path class="cls-2" d="M44.59,26.99c-.5,0-.9,.4-.9,.9v3.6c0,.5,.4,.9,.9,.9s.9-.4,.9-.9v-3.6c0-.5-.4-.9-.9-.9Z"/>
            <path class="cls-2" d="M44.59,35.98c-.5,0-.9,.4-.9,.9v3.6c0,.5,.4,.9,.9,.9s.9-.4,.9-.9v-3.6c0-.5-.4-.9-.9-.9Z"/>
            <path class="cls-2" d="M44.59,44.98c-.5,0-.9,.4-.9,.9v3.6c0,.5,.4,.9,.9,.9s.9-.4,.9-.9v-3.6c0-.5-.4-.9-.9-.9Z"/>
          </g>
        </g>
      </g>
    </g>
  </g>
</svg>