<?xml version="1.0" encoding="UTF-8"?>
<svg id="Layer_2" data-name="Layer 2" xmlns="http://www.w3.org/2000/svg" viewBox="0 0 64 64">
  <defs>
    <style>
      .cls-1, .cls-2 {
        fill: #fff;
      }

      .cls-2 {
        opacity: 0;
      }
    </style>
  </defs>
  <g id="White">
    <g id="Toilet_Paper_Flat_White" data-name="Toilet Paper Flat White">
      <rect class="cls-2" width="64" height="64"/>
      <path class="cls-1" d="M54.49,14.88h-.02c-.51-5.5-10.37-9.89-22.46-9.89S10.05,9.37,9.54,14.88h-.02v30.58h.02c-.01,.15-.02,.3-.02,.45,0,3.17,3.11,6.01,7.99,7.91V31.24c0-.95,.47-1.83,1.25-2.33,6.27-4.07,12.96-4.12,13.25-4.12,.55,0,1,.45,1,1,0,.55-.45,1-1,1-.06,0-6.4,.06-12.16,3.8-.21,.13-.34,.39-.34,.66v26.2c0,1.1,1.14,1.92,2.14,1.45,0,0,.01,0,.02-.01,5.32-2.62,10.33-2.62,10.33-2.62,12.42,0,22.49-4.63,22.49-10.34,0-.15-.01-.3-.02-.45h.02V14.88Zm-22.49,4.17c-4.47,0-8.1-1.67-8.1-3.72s3.62-3.72,8.1-3.72,8.1,1.67,8.1,3.72-3.62,3.72-8.1,3.72Zm13.99,29.9c0,.77-.63,1.4-1.4,1.4s-1.4-.63-1.4-1.4v-3.6c0-.77,.63-1.4,1.4-1.4s1.4,.63,1.4,1.4v3.6Zm0-8.99c0,.77-.63,1.4-1.4,1.4s-1.4-.63-1.4-1.4v-3.6c0-.77,.63-1.4,1.4-1.4s1.4,.63,1.4,1.4v3.6Zm0-8.99c0,.77-.63,1.4-1.4,1.4s-1.4-.63-1.4-1.4v-3.6c0-.77,.63-1.4,1.4-1.4s1.4,.63,1.4,1.4v3.6Z"/>
    </g>
  </g>
</svg>