<svg xmlns="http://www.w3.org/2000/svg" viewBox="0 0 64 64"><defs><style>.cls-1,.cls-2{fill:#1a1a1a;}.cls-1{opacity:0;}.cls-3{fill:#e62e49;}.cls-4{fill:#a72d3e;}</style></defs><title>Home 2 Red Outline</title><g id="Layer_2" data-name="Layer 2"><g id="_001-100" data-name="001-100"><rect class="cls-1" width="64" height="64"/><path class="cls-2" d="M61.72,30.5,36.29,5.06a6.08,6.08,0,0,0-8.58,0L2.27,30.5a6.06,6.06,0,0,0,0,8.57L7.19,44A5.94,5.94,0,0,0,11,45.74v8.91a6.06,6.06,0,0,0,6.06,6.06h8.68a4,4,0,0,0,4-4V44.42h4.54V56.71a4,4,0,0,0,4,4H47A6.06,6.06,0,0,0,53,54.65V45.74A6,6,0,0,0,56.81,44l4.92-4.92A6.06,6.06,0,0,0,61.72,30.5Z"/><path class="cls-3" d="M32,21,15,29.92V54.65a2.06,2.06,0,0,0,2.06,2.06h8.68V42.49a2.07,2.07,0,0,1,2.07-2.07h8.4a2.07,2.07,0,0,1,2.07,2.07V56.71H47A2.06,2.06,0,0,0,49,54.65V29.92Z"/><polygon class="cls-4" points="14.99 29.92 14.99 46.32 32 29.31 49.01 46.32 49.01 29.92 32 21 14.99 29.92"/><path class="cls-3" d="M58.9,33.33,33.46,7.89a2.06,2.06,0,0,0-2.92,0L5.1,33.33a2.06,2.06,0,0,0,0,2.91L10,41.16a2.06,2.06,0,0,0,2.91,0L32,22.09,51.07,41.16a2.06,2.06,0,0,0,2.91,0l4.92-4.92A2.06,2.06,0,0,0,58.9,33.33Z"/></g></g></svg>