<svg xmlns="http://www.w3.org/2000/svg" viewBox="0 0 64 64"><defs><style>.cls-1{opacity:0;}.cls-2{fill:#fff;}.cls-3{fill:#d3dee3;}</style></defs><title>Home 2 White</title><g id="Layer_2" data-name="Layer 2"><g id="_001-100" data-name="001-100"><g class="cls-1"><rect class="cls-2" width="64" height="64"/></g><path class="cls-2" d="M32,21,15,29.92V54.65a2.06,2.06,0,0,0,2.06,2.06h8.68V42.49a2.07,2.07,0,0,1,2.07-2.07h8.4a2.07,2.07,0,0,1,2.07,2.07V56.71H47A2.06,2.06,0,0,0,49,54.65V29.92Z"/><polygon class="cls-3" points="14.99 29.92 14.99 46.32 32 29.31 49.01 46.32 49.01 29.92 32 21 14.99 29.92"/><path class="cls-2" d="M58.9,33.33,33.46,7.89a2.06,2.06,0,0,0-2.92,0L5.1,33.33a2.06,2.06,0,0,0,0,2.91L10,41.16a2.06,2.06,0,0,0,2.91,0L32,22.09,51.07,41.16a2.06,2.06,0,0,0,2.91,0l4.92-4.92A2.06,2.06,0,0,0,58.9,33.33Z"/></g></g></svg>