<svg xmlns="http://www.w3.org/2000/svg" viewBox="0 0 64 64"><defs><style>.cls-1{fill:#fff;opacity:0;}.cls-2{fill:#a0f;}.cls-3{fill:#1778ff;}.cls-4{fill:#e62e49;}.cls-5{fill:#65d666;}.cls-6{fill:#fc9504;}.cls-7{fill:#fec92b;}</style></defs><title>Loading Wheel</title><g id="Layer_2" data-name="Layer 2"><g id="Layer_2-2" data-name="Layer 2"><rect class="cls-1" width="64" height="64"/><path class="cls-2" d="M32,32A19.45,19.45,0,0,1,32,4.5,27.46,27.46,0,0,0,8.19,18.25,19.44,19.44,0,0,0,32,32Z"/><path class="cls-3" d="M32,32A19.44,19.44,0,0,1,8.19,18.25a27.46,27.46,0,0,0,0,27.5A19.44,19.44,0,0,0,32,32Z"/><path class="cls-4" d="M32,32A19.44,19.44,0,0,1,55.81,18.25,27.46,27.46,0,0,0,32,4.5,19.45,19.45,0,0,0,32,32Z"/><path class="cls-5" d="M32,32A19.44,19.44,0,0,1,8.19,45.75,27.46,27.46,0,0,0,32,59.5,19.45,19.45,0,0,0,32,32Z"/><path class="cls-6" d="M55.81,18.25A19.44,19.44,0,0,0,32,32,19.44,19.44,0,0,1,55.81,45.75a27.46,27.46,0,0,0,0-27.5Z"/><path class="cls-7" d="M32,32a19.45,19.45,0,0,1,0,27.5A27.46,27.46,0,0,0,55.81,45.75,19.44,19.44,0,0,0,32,32Z"/></g></g></svg>