<?xml version="1.0" encoding="UTF-8"?>
<svg id="Layer_2" data-name="Layer 2" xmlns="http://www.w3.org/2000/svg" viewBox="0 0 64 64">
  <defs>
    <style>
      .cls-1 {
        fill-rule: evenodd;
      }

      .cls-1, .cls-2 {
        fill: #fff;
        stroke-width: 0px;
      }

      .cls-3 {
        opacity: 0;
      }
    </style>
  </defs>
  <g id="Exports_1" data-name="Exports 1">
    <g>
      <g class="cls-3">
        <rect class="cls-2" width="64" height="64"/>
      </g>
      <g>
        <path class="cls-1" d="M63.49,36.55c-.1-2.04-.17-4.11-.22-6.11-.03-2.22-1.11-4.25-2.85-5.61-.21-1.94-.43-3.77-.69-5.56-.51-3.68-3.56-6.67-7.55-7.74-.06-.21-.13-.42-.19-.63-1.14-3.73-4.94-6.33-9.23-6.33-.75,0-1.5.08-2.23.24-1.34-1.16-3.06-1.8-4.87-1.8-1.07,0-2.12.23-3.08.67-1.2-.77-2.59-1.18-4.03-1.18-2.17,0-4.24.94-5.66,2.59l-9.33,10.8c-2.38,1.32-4.71,2.71-6.93,4.14-.17.11-.34.23-.5.36C1.91,22.84-.33,27.45.79,31.49c2.14,7.8,4.95,15.73,8.62,24.29,1.51,3.43,5.22,5.73,9.24,5.73.9,0,1.8-.12,2.67-.35,10.28-2.8,20.84-4.99,31.4-6.51,4.89-.72,8.74-4.97,8.77-9.71,0-.96-.02-1.92-.03-2.88,1.37-1.45,2.13-3.41,2.04-5.51ZM13.78,21.75l12.13-14.05c1.27-1.47,3.5-1.61,4.95-.32l1.48,1.33,1.11-.91c1.5-1.23,3.72-.99,4.93.53l5.66,7.16c-10.28.99-20.44,3.09-30.26,6.26ZM56.1,40.46c-3.52.25-7.05.74-10.55,1.49-3.65.77-7.62-1.11-8.8-4.66-1.19-3.54,1.45-7.57,5.86-8.48,4.1-.86,8.24-1.42,12.37-1.69,2.35-.15,4.25,1.42,4.28,3.38.05,2.08.13,4.17.23,6.25.08,1.96-1.42,3.57-3.39,3.71Z"/>
        <path class="cls-1" d="M42.55,32.35c-1.7.35-2.79,2.02-2.44,3.71s2.02,2.79,3.71,2.44c1.7-.35,2.79-2.02,2.44-3.71-.35-1.7-2.02-2.79-3.71-2.44Z"/>
      </g>
    </g>
  </g>
</svg>