<?xml version="1.0" encoding="UTF-8"?>
<svg id="Layer_2" data-name="Layer 2" xmlns="http://www.w3.org/2000/svg" viewBox="0 0 64 64">
  <defs>
    <style>
      .cls-1 {
        fill: #bb5938;
      }

      .cls-1, .cls-2, .cls-3, .cls-4, .cls-5, .cls-6 {
        stroke-width: 0px;
      }

      .cls-1, .cls-3, .cls-4, .cls-6 {
        fill-rule: evenodd;
      }

      .cls-2 {
        fill: #fec92b;
      }

      .cls-3 {
        fill: #008751;
      }

      .cls-7 {
        opacity: 0;
      }

      .cls-4 {
        fill: #9c3d29;
      }

      .cls-5 {
        fill: #fff;
      }

      .cls-6 {
        fill: #39b54a;
      }
    </style>
  </defs>
  <g id="Exports_1" data-name="Exports 1">
    <g>
      <g class="cls-7">
        <rect class="cls-5" width="64" height="64"/>
      </g>
      <g>
        <path class="cls-4" d="M50.16,43.19c-8.93,3.59-17.42,7.62-25.61,12.07-2.21,1.19-5.17.32-6.61-2.01-4.29-7.12-8.32-14.43-11.88-22.05-1.18-2.5.03-6.09,2.72-7.82,9.86-6.34,20.71-11.27,32.14-14.56,3.12-.89,6.43.63,7.23,3.25,2.47,7.97,4.29,16.13,5.66,24.41.43,2.73-1.26,5.72-3.67,6.7Z"/>
        <path class="cls-3" d="M9.02,27.26L25.92,7.7c1.27-1.47,3.5-1.61,4.95-.32l14.54,13.01-36.38,6.87Z"/>
        <path class="cls-6" d="M13.47,24.19L33.45,7.8c1.5-1.23,3.72-.99,4.93.53l12.11,15.3-37.02.56Z"/>
        <path class="cls-1" d="M52.13,50.69c-10.78,1.55-21.36,3.75-31.86,6.61-2.83.76-6.08-.6-7.2-3.13-3.31-7.73-6.19-15.62-8.42-23.74-.74-2.67,1.46-6.01,4.87-7.23,12.52-4.49,25.65-7.22,38.92-8.08,3.61-.23,6.96,1.96,7.34,4.7,1.19,8.34,1.68,16.72,1.72,25.13-.01,2.77-2.45,5.31-5.36,5.74Z"/>
        <path class="cls-4" d="M34.78,50.16c-9.78,2.22-17.84,1.21-24.23-2.11.81,2.05,1.64,4.09,2.51,6.12,1.11,2.53,4.36,3.89,7.2,3.13,10.5-2.86,21.09-5.06,31.86-6.61,2.9-.43,5.34-2.97,5.36-5.74-.01-3.21-.1-6.41-.26-9.61-4.14,6.96-11.41,12.3-22.45,14.81Z"/>
        <path class="cls-4" d="M56.1,40.46c-3.52.25-7.05.74-10.55,1.49-3.65.77-7.62-1.11-8.8-4.66t0,0c-1.19-3.54,1.45-7.57,5.86-8.48,4.1-.86,8.24-1.42,12.37-1.69,2.35-.15,4.25,1.42,4.28,3.38.05,2.08.13,4.17.23,6.25.08,1.96-1.42,3.57-3.39,3.71Z"/>
        <circle class="cls-2" cx="43.19" cy="35.43" r="3.14"/>
      </g>
    </g>
  </g>
</svg>