<svg xmlns="http://www.w3.org/2000/svg" viewBox="0 0 64 64"><defs><style>.cls-1,.cls-2{fill:#1a1a1a;}.cls-1{opacity:0;}.cls-2,.cls-3,.cls-4{fill-rule:evenodd;}.cls-3{fill:#80bad9;}.cls-4{fill:#fff;}</style></defs><title>Undo Outline</title><g id="Layer_2" data-name="Layer 2"><g id="Layer_2-2" data-name="Layer 2"><rect class="cls-1" width="64" height="64"/><path class="cls-2" d="M29,6.77V8.1h9.66A24.66,24.66,0,0,1,63.28,32.73a24.1,24.1,0,0,1-.15,2.58,23.81,23.81,0,0,1,.15,2.58A24.66,24.66,0,0,1,38.64,62.52H14.14a5.29,5.29,0,0,1-5.29-5.29V41.76a5.29,5.29,0,0,1,5.29-5.29h1.49L3.08,28.11A5.3,5.3,0,0,1,.72,23.7V18.55a5.3,5.3,0,0,1,2.36-4.41L20.76,2.37a5.21,5.21,0,0,1,2.93-.89A5.29,5.29,0,0,1,29,6.77Zm0,27.38v1.33a5.36,5.36,0,0,1-.09,1h9.75a3.75,3.75,0,0,0,2.7-1.16,3.75,3.75,0,0,0-2.7-1.16Z"/><path class="cls-3" d="M59.28,37.89A20.63,20.63,0,0,1,38.64,58.52H14.14a1.29,1.29,0,0,1-1.29-1.29V41.76a1.29,1.29,0,0,1,1.29-1.29h24.5a7.74,7.74,0,0,0,7.29-5.16,7.74,7.74,0,0,0-7.29-5.16H25v5.33a1.28,1.28,0,0,1-2,1.07L5.3,24.78a1.31,1.31,0,0,1-.58-1.08V18.55a1.31,1.31,0,0,1,.58-1.08L23,5.69a1.29,1.29,0,0,1,2,1.08V12.1H38.64A20.64,20.64,0,0,1,59.28,32.73a21.91,21.91,0,0,1-.18,2.58A21.91,21.91,0,0,1,59.28,37.89Z"/><path class="cls-4" d="M38.64,53.37H14.14a1.29,1.29,0,0,1-1.29-1.29V41.76a1.29,1.29,0,0,1,1.29-1.29h24.5a7.74,7.74,0,1,0,0-15.48H25v5.33a1.29,1.29,0,0,1-2,1.08L5.3,19.62a1.29,1.29,0,0,1,0-2.15L23,5.69a1.29,1.29,0,0,1,2,1.08V12.1H38.64a20.64,20.64,0,1,1,0,41.27Z"/></g></g></svg>