<svg xmlns="http://www.w3.org/2000/svg" viewBox="0 0 64 64"><defs><style>.cls-1,.cls-2{fill:#1a1a1a;}.cls-1{opacity:0;}.cls-2{fill-rule:evenodd;}</style></defs><title>Undo Black</title><g id="Layer_2" data-name="Layer 2"><g id="Layer_2-2" data-name="Layer 2"><rect class="cls-1" width="64" height="64"/><path class="cls-2" d="M38.64,55.94H14.14a1.29,1.29,0,0,1-1.29-1.29V44.34a1.29,1.29,0,0,1,1.29-1.29h24.5a7.74,7.74,0,1,0,0-15.48H25V32.9A1.29,1.29,0,0,1,23,34L5.3,22.2a1.29,1.29,0,0,1,0-2.15L23,8.27a1.29,1.29,0,0,1,2,1.08v5.33H38.64a20.63,20.63,0,1,1,0,41.26Z"/></g></g></svg>