<?xml version="1.0" encoding="UTF-8"?>
<svg id="Layer_2" data-name="Layer 2" xmlns="http://www.w3.org/2000/svg" viewBox="0 0 64 64">
  <defs>
    <style>
      .cls-1 {
        fill: #cdf07a;
      }

      .cls-1, .cls-2, .cls-3, .cls-4, .cls-5, .cls-6 {
        stroke-width: 0px;
      }

      .cls-2 {
        fill: #8cc936;
      }

      .cls-3, .cls-4 {
        fill: #1a1a1a;
      }

      .cls-4 {
        opacity: 0;
      }

      .cls-5 {
        fill: #4ea800;
      }

      .cls-6 {
        fill: #008722;
      }
    </style>
  </defs>
  <g id="Exports_1" data-name="Exports 1">
    <g>
      <rect class="cls-4" width="64" height="64"/>
      <g>
        <path class="cls-3" d="M61.27,41.84c-.41-1.46-1.62-2.57-3.11-2.85-1.38-.26-2.86-.39-4.42-.39s-3.25.14-4.92.41c.38-1.43.59-2.87.62-4.27.02-1.36-.65-2.64-1.79-3.4-.29-.19-.61-.35-.93-.46,0-.02.14-.34.14-.34.05-.11.09-.22.14-.33.69-1.48,1.06-3.05,1.11-4.67,0-.13.01-.26.02-.4l.02-.27c.09-1.65.35-3.36.75-5.07.31-1.32.72-2.64,1.22-3.93.31-.8.59-1.46.85-1.99.3-.61.5-1.26.57-1.96.07-.67.02-1.35-.14-2-.36-1.43-1.25-2.64-2.5-3.4-.01,0-.03-.02-.04-.03-.22-.13-.47-.27-.73-.41-1.43-.74-3.34-1.41-5.39-1.89-1.98-.47-3.94-.73-5.52-.73-.37,0-.71.01-1.03.04-2.91.24-5.13,2.66-5.15,5.64,0,1.21-.12,2.52-.33,3.87-.06-.21-.11-.42-.16-.63-.4-1.65-.65-3.27-.77-4.82-.03-.48-.05-.95-.06-1.45,0-.29-.03-.58-.09-.89-.24-1.39-.97-2.63-2.06-3.5-.87-.69-1.92-1.1-3.02-1.19-.3-.02-.63-.04-.98-.04-1.59,0-3.56.27-5.57.75-2.47.6-4.66,1.43-6.15,2.34-2.5,1.53-3.38,4.69-2.05,7.36.85,1.71,1.58,3.76,2.1,5.92.04.17.08.35.12.52-1.38-.8-2.77-1.45-4.14-1.92-.43-.15-.87-.22-1.31-.22-1.03,0-2.04.4-2.81,1.15-1.08,1.07-1.47,2.65-1,4.1.85,2.6,2.33,5.3,4.28,7.86-.33.13-.66.27-.97.43-1.13.55-1.94,1.59-2.18,2.83-.24,1.23.11,2.51.95,3.44,2.23,2.49,5.43,4.25,9,4.96.96.19,1.93.3,2.9.33.18.93.47,1.85.88,2.74.02.04.03.08.05.11.75,1.61,1.4,3.49,1.87,5.44.43,1.78.7,3.57.79,5.23-.83,2.49.12,5.21,2.38,6.59,1.5.91,3.69,1.74,6.16,2.32,1.98.47,3.93.73,5.51.73h.16c.31,0,.61-.02.88-.04.88-.07,1.72-.35,2.49-.84.49-.31.91-.67,1.26-1.08.22-.25.41-.52.6-.83.34-.58.57-1.21.69-1.85.06-.33.1-.68.1-1.04,0-.19,0-.38.01-.57.07.02.14.05.21.07,1.81.61,3.66.92,5.51.92,1.66,0,3.26-.25,4.76-.75,1.19-.4,2.13-1.33,2.53-2.52s.22-2.5-.49-3.54c-.2-.29-.41-.58-.63-.85,2.96-1.25,5.58-2.85,7.62-4.69,1.13-1.02,1.58-2.59,1.17-4.05Z"/>
        <g>
          <g>
            <path class="cls-6" d="M45.99,43.72c-4.21,1.18-7.78,3.1-10.18,5.26,3.17.6,7.22.38,11.43-.8s7.78-3.1,10.18-5.26c-3.17-.6-7.22-.38-11.43.8Z"/>
            <path class="cls-6" d="M43.55,49.15c-2.73-.92-5.48-.91-7.74-.17,1.34,1.96,3.53,3.63,6.26,4.55,2.73.92,5.48.91,7.74.17-1.34-1.96-3.53-3.63-6.26-4.55Z"/>
            <path class="cls-6" d="M42.57,43.18c1.87-2.81,2.82-5.85,2.86-8.49-2.43,1.07-4.85,3.12-6.72,5.93-1.87,2.81-2.82,5.85-2.86,8.49,2.43-1.07,4.85-3.12,6.72-5.93Z"/>
          </g>
          <g>
            <path class="cls-6" d="M16.1,25.63c3.07,3.12,5.21,6.56,6.22,9.62-3.05-1.06-6.45-3.26-9.52-6.38-3.07-3.12-5.21-6.56-6.22-9.62,3.05,1.06,6.45,3.26,9.52,6.38Z"/>
            <path class="cls-6" d="M15.52,31.54c2.82.56,5.21,1.93,6.8,3.7-2.14,1.03-4.87,1.4-7.69.84-2.82-.56-5.21-1.93-6.8-3.7,2.14-1.03,4.87-1.4,7.69-.84Z"/>
          </g>
          <g>
            <path class="cls-5" d="M32.63,35.44c-.85-1.8-1.59-3.93-2.15-6.24-.56-2.31-.86-4.54-.92-6.53-.04-1.08-.29-2.13-.75-3.11-.85-1.8-1.59-3.93-2.15-6.24-.61-2.55-.91-4.99-.94-7.13,0-.86-.63-1.61-1.48-1.67-1.26-.1-3.19.11-5.3.61s-3.92,1.2-5,1.86c-.73.45-.94,1.39-.56,2.16.95,1.91,1.79,4.23,2.41,6.77.56,2.31.86,4.54.92,6.53.04,1.08.29,2.13.75,3.11.85,1.8,1.59,3.93,2.15,6.24s.86,4.54.92,6.53c.04,1.08.29,2.13.75,3.11.85,1.8,1.59,3.93,2.15,6.24.61,2.54.91,4.99.94,7.13,0,.86.63,1.61,1.48,1.67,1.26.1,3.19-.11,5.3-.61s3.92-1.2,5-1.86c.73-.45.94-1.39.56-2.16-.95-1.91-1.79-4.23-2.41-6.77-.56-2.31-.86-4.54-.92-6.53-.04-1.08-.29-2.13-.75-3.11Z"/>
            <path class="cls-6" d="M32.63,35.44c-.85-1.8-1.59-3.93-2.15-6.24s-.86-4.54-.92-6.53c-.04-1.08-.29-2.13-.75-3.11-.85-1.8-1.59-3.93-2.15-6.24-.61-2.55-.91-4.99-.94-7.13,0-.86-.63-1.61-1.48-1.67-.74-.06-1.73,0-2.83.15.23,1.82.56,3.75,1.04,5.75.69,2.85,1.55,5.48,2.51,7.72.52,1.22.83,2.51.92,3.83.17,2.43.59,5.17,1.28,8.02s1.55,5.48,2.51,7.72c.52,1.22.83,2.51.92,3.83.17,2.43.59,5.17,1.28,8.02.48,2,1.06,3.87,1.68,5.59,1.05-.37,1.96-.76,2.59-1.15.73-.45.94-1.39.56-2.16-.95-1.91-1.79-4.23-2.41-6.77-.56-2.31-.86-4.54-.92-6.53-.04-1.08-.29-2.13-.75-3.11Z"/>
            <g>
              <path class="cls-1" d="M29.53,22.48c-.06-1.01-.29-2-.72-2.92-.05-.1-.09-.21-.14-.31-1.81.63-3.78,1.22-5.92,1.73s-4.16.89-6.06,1.15c0,.11.02.23.02.34.03,1.02.28,2,.68,2.93,2.03-.29,4.09-.68,6.13-1.17s4.06-1.08,6-1.75Z"/>
              <path class="cls-1" d="M32.63,35.44s-.03-.07-.04-.1c-1.82.63-3.8,1.23-5.96,1.74s-4.19.89-6.1,1.15c0,.04,0,.07,0,.11.04,1.08.29,2.13.75,3.11,0,.01.01.03.02.04,2.02-.29,4.08-.68,6.11-1.16s4.04-1.08,5.97-1.74c0-.01,0-.03,0-.04-.04-1.08-.29-2.13-.75-3.11Z"/>
            </g>
          </g>
          <g>
            <path class="cls-2" d="M40.35,41.31c.06-1.99.35-4.22.9-6.54s1.29-4.44,2.13-6.24c.46-.98.7-2.03.74-3.11.06-1.99.35-4.22.9-6.54.6-2.55,1.44-4.86,2.38-6.78.38-.77.17-1.71-.57-2.16-1.08-.66-2.9-1.35-5.01-1.85s-4.04-.7-5.3-.59c-.85.07-1.47.82-1.47,1.68-.01,2.14-.31,4.58-.91,7.13-.55,2.31-1.29,4.44-2.13,6.24-.46.98-.7,2.03-.74,3.11-.06,1.99-.35,4.22-.9,6.54s-1.29,4.44-2.13,6.24c-.46.98-.7,2.03-.74,3.11-.06,1.99-.35,4.22-.9,6.54-.6,2.55-1.44,4.86-2.38,6.78-.38.77-.17,1.71.57,2.16,1.08.66,2.9,1.35,5.01,1.85s4.04.7,5.3.59c.85-.07,1.47-.82,1.47-1.68.01-2.14.31-4.58.91-7.13.55-2.31,1.29-4.44,2.13-6.24.46-.98.7-2.03.74-3.11Z"/>
            <path class="cls-5" d="M40.35,41.31c.06-1.99.35-4.22.9-6.54s1.29-4.44,2.13-6.24c.46-.98.7-2.03.74-3.11.06-1.99.35-4.22.9-6.54.6-2.55,1.44-4.86,2.38-6.78.38-.77.17-1.71-.57-2.16-.63-.39-1.54-.78-2.59-1.14-.62,1.73-1.19,3.6-1.66,5.6-.68,2.85-1.09,5.59-1.25,8.02-.09,1.32-.4,2.61-.91,3.83-.95,2.25-1.8,4.88-2.48,7.73-.68,2.85-1.09,5.59-1.25,8.02-.09,1.32-.4,2.61-.91,3.83-.95,2.25-1.8,4.88-2.48,7.73-.47,2-.8,3.93-1.02,5.75,1.1.15,2.09.2,2.83.14.85-.07,1.47-.82,1.47-1.68.01-2.14.31-4.58.91-7.13.55-2.31,1.29-4.44,2.13-6.24.46-.98.7-2.03.74-3.11Z"/>
            <g>
              <path class="cls-1" d="M43.44,28.35c.41-.93.64-1.91.67-2.93,0-.11.01-.23.02-.34-1.9-.26-3.92-.62-6.06-1.13s-4.11-1.09-5.92-1.71c-.05.1-.09.21-.13.31-.43.92-.66,1.91-.71,2.92,1.94.66,3.96,1.24,6,1.73s4.11.87,6.14,1.15Z"/>
              <path class="cls-1" d="M40.35,41.31s0-.07,0-.11c-1.91-.26-3.95-.62-6.1-1.13s-4.14-1.1-5.96-1.72c-.01.03-.03.07-.04.1-.46.98-.7,2.03-.74,3.11,0,.01,0,.03,0,.04,1.93.66,3.94,1.24,5.98,1.72s4.09.86,6.11,1.14c0-.01.01-.03.02-.04.46-.98.7-2.03.74-3.11Z"/>
            </g>
          </g>
        </g>
      </g>
    </g>
  </g>
</svg>