<?xml version="1.0" encoding="UTF-8"?>
<svg id="Layer_2" data-name="Layer 2" xmlns="http://www.w3.org/2000/svg" viewBox="0 0 64 64">
  <defs>
    <style>
      .cls-1 {
        opacity: 0;
      }

      .cls-2 {
        fill: #fff;
        stroke-width: 0px;
      }
    </style>
  </defs>
  <g id="Exports_1" data-name="Exports 1">
    <g>
      <g class="cls-1">
        <rect class="cls-2" width="64" height="64"/>
      </g>
      <path class="cls-2" d="M43.55,49.15c-.13-.04-.26-.08-.39-.12,1.33-.18,2.7-.46,4.08-.85,4.21-1.18,7.78-3.1,10.18-5.26-3.17-.6-7.22-.38-11.43.8-2.06.58-3.97,1.33-5.66,2.21.8-.81,1.56-1.73,2.24-2.75,1.87-2.81,2.82-5.85,2.86-8.49-1.67.73-3.34,1.95-4.82,3.54.15-1.11.36-2.27.64-3.44.48-2.02,1.11-3.89,1.82-5.54.1-.24.2-.48.3-.71.46-.98.7-2.03.74-3.11,0-.25.03-.51.04-.77.1-1.79.38-3.74.86-5.77.45-1.91,1.03-3.69,1.7-5.27.22-.53.45-1.03.69-1.51.09-.19.15-.4.17-.6s0-.41-.04-.6c-.05-.19-.13-.38-.25-.54-.12-.16-.27-.31-.45-.42,0,0,0,0,0,0-.16-.1-.34-.19-.52-.29,0,0,0,0,0,0-1.1-.56-2.68-1.13-4.48-1.56-2.11-.5-4.04-.7-5.3-.59-.85.07-1.47.82-1.47,1.68-.01,2.14-.31,4.58-.91,7.13-.52,2.19-1.21,4.19-1.99,5.93h0c-.05.1-.09.21-.13.31-.02.04-.03.07-.05.11-.42.95-.66,1.96-.69,3-.04,1.43-.21,2.99-.5,4.62-.1-.36-.2-.71-.29-1.08-.48-2.01-.76-3.96-.87-5.74-.02-.26-.04-.53-.05-.79-.04-1.08-.29-2.13-.75-3.11-.11-.23-.2-.47-.31-.71-.72-1.65-1.35-3.51-1.84-5.53-.39-1.61-.64-3.16-.78-4.63-.09-.86-.15-1.7-.15-2.49,0-.1-.01-.19-.03-.29-.07-.42-.29-.8-.61-1.05-.23-.19-.52-.31-.84-.33-1.26-.1-3.19.11-5.3.61s-3.92,1.2-5,1.86c-.73.45-.94,1.39-.56,2.16.95,1.91,1.79,4.23,2.41,6.77.53,2.18.81,4.29.9,6.19h0c0,.11.02.23.02.34,0,.05,0,.09.01.14.05,1.03.3,2.04.74,2.97.44.94.85,1.96,1.22,3.05-.77-1.02-1.63-2.03-2.59-3-3.07-3.12-6.47-5.32-9.52-6.38,1.01,3.06,3.15,6.5,6.22,9.62,1.01,1.03,2.06,1.95,3.12,2.77-.13-.03-.26-.07-.4-.09-2.82-.56-5.55-.2-7.69.84,1.59,1.77,3.97,3.15,6.8,3.7,2.02.4,3.98.32,5.72-.13.09.81.16,1.61.19,2.36,0,0,0,.02,0,.03.04,1.08.29,2.13.75,3.11,0,.01.01.03.02.04h0c.84,1.8,1.58,3.9,2.13,6.2.59,2.46.89,4.81.93,6.9-.04.09-.09.2-.13.29-.38.77-.17,1.71.57,2.16,1.08.66,2.9,1.35,5.01,1.85,1.8.43,3.47.63,4.7.62,0,0,0,0,0,0,.21,0,.41,0,.6-.02h0c.26-.02.49-.11.69-.24.14-.09.26-.19.37-.31.07-.08.12-.16.18-.24.1-.17.18-.37.21-.57.02-.1.03-.21.03-.32,0-.53.02-1.09.06-1.66.11-1.66.38-3.45.81-5.3,1.25,1.14,2.81,2.08,4.62,2.69,2.73.92,5.48.91,7.74.17-1.34-1.96-3.53-3.63-6.26-4.55Z"/>
    </g>
  </g>
</svg>