<svg xmlns="http://www.w3.org/2000/svg" viewBox="0 0 64 64"><defs><style>.cls-1{opacity:0;}.cls-2{fill:#fff;}.cls-3{fill:#ff608a;}.cls-4{fill:#ff8ca9;}.cls-5{fill:#ffbdc6;}</style></defs><title>Soap_1</title><g id="Layer_2" data-name="Layer 2"><g id="Layer_3" data-name="Layer 3"><g class="cls-1"><rect class="cls-2" width="64" height="64"/></g><circle class="cls-3" cx="44.55" cy="21.59" r="7.48"/><path class="cls-4" d="M50,20.23a6.8,6.8,0,0,0-3.25-5.79,7.59,7.59,0,0,0-2.19-.33,7.46,7.46,0,0,0-7.15,9.66A6.79,6.79,0,0,0,50,20.23Z"/><circle class="cls-3" cx="37.61" cy="19.99" r="5.87"/><path class="cls-4" d="M41.88,18.92a5.33,5.33,0,0,0-2.56-4.55,5.71,5.71,0,0,0-1.71-.26A5.88,5.88,0,0,0,31.73,20,5.71,5.71,0,0,0,32,21.7a5.33,5.33,0,0,0,9.89-2.78Z"/><ellipse class="cls-5" cx="32.27" cy="32.27" rx="24.03" ry="15.49"/><path class="cls-4" d="M32.27,41.88c-14.65,0-22.52-3.38-23.83-12.55a21,21,0,0,0-.2,2.94c0,11.4,7.91,15.48,24,15.48s24-4.08,24-15.48a21,21,0,0,0-.2-2.94C54.78,38.5,46.92,41.88,32.27,41.88Z"/><path class="cls-2" d="M9,26.92c1.49,2.77,7.05,3.64,13,1.9,6.37-1.87,10.76-6,9.8-9.27a4.4,4.4,0,0,0-2.88-2.7C17.68,17.31,11.08,20.21,9,26.92Z"/><ellipse class="cls-4" cx="32.27" cy="23.99" rx="12.82" ry="2.4"/><circle class="cls-3" cx="55.23" cy="38.14" r="4.27"/><path class="cls-4" d="M58.33,37.36a3.86,3.86,0,0,0-1.85-3.3,4,4,0,0,0-1.25-.19,4.29,4.29,0,0,0-4.09,5.52,3.88,3.88,0,0,0,7.19-2Z"/><circle class="cls-3" cx="47.75" cy="41.34" r="7.48"/><path class="cls-5" d="M53.19,40a6.76,6.76,0,0,0-3.25-5.79,7.21,7.21,0,0,0-2.19-.33,7.49,7.49,0,0,0-7.15,9.66A6.79,6.79,0,0,0,53.19,40Z"/><circle class="cls-3" cx="8.77" cy="41.34" r="4.27"/><path class="cls-4" d="M11.88,40.57A3.89,3.89,0,0,0,10,37.26a4.26,4.26,0,0,0-5.33,5.33,3.88,3.88,0,0,0,7.19-2Z"/><circle class="cls-4" cx="54.16" cy="45.08" r="4.81"/><path class="cls-5" d="M57.66,44.21a4.36,4.36,0,0,0-2.09-3.72,4.72,4.72,0,0,0-1.41-.21,4.81,4.81,0,0,0-4.81,4.8,5.06,5.06,0,0,0,.21,1.41,4.37,4.37,0,0,0,8.1-2.28Z"/><circle class="cls-3" cx="15.45" cy="44.28" r="5.61"/><path class="cls-5" d="M19.52,43.26a5.08,5.08,0,0,0-2.43-4.34,5.6,5.6,0,0,0-7.25,5.36,5.91,5.91,0,0,0,.24,1.64,5.09,5.09,0,0,0,9.44-2.66Z"/></g></g></svg>