<svg xmlns="http://www.w3.org/2000/svg" viewBox="0 0 64 64"><defs><style>.cls-1{opacity:0;}.cls-2{fill:#fff;}</style></defs><title>Soap_3 Flat White</title><g id="Layer_2" data-name="Layer 2"><g id="Layer_4" data-name="Layer 4"><g class="cls-1"><rect class="cls-2" width="64" height="64"/></g><path class="cls-2" d="M60,39.14a5.78,5.78,0,0,0-4.71-5.67c0-.07,0-.13,0-.2,0-4-1-7-2.89-9.33a8.68,8.68,0,0,0,.11-1.35,9,9,0,0,0-9-9,8.82,8.82,0,0,0-3.3.64,7.36,7.36,0,0,0-12.93,3.64c-13.45.66-20.08,4.95-20.08,15.38A19.84,19.84,0,0,0,7.58,37a5.77,5.77,0,0,0,3.3,11,7.1,7.1,0,0,0,12.95.37,70.36,70.36,0,0,0,7.44.37c2.51,0,4.79-.11,6.9-.32a9,9,0,0,0,6.58,2.89,8.79,8.79,0,0,0,3.17-.59,6.25,6.25,0,0,0,4.24,1.66,6.32,6.32,0,0,0,6.31-6.31,6.42,6.42,0,0,0-.53-2.52A5.77,5.77,0,0,0,60,39.14Zm-4.53,6.94a3.31,3.31,0,0,1-3.31,3.31A3.23,3.23,0,0,1,50.71,49a3.41,3.41,0,0,1-1.17-1,3.27,3.27,0,0,1-.63-1.45,3.31,3.31,0,0,1-.06-.55,3.55,3.55,0,0,1,.06-.57,3.31,3.31,0,0,1,1.39-2.15,2.22,2.22,0,0,1,.37-.21A3.27,3.27,0,0,1,52,42.79h.23a3.14,3.14,0,0,1,1.43.38,3,3,0,0,1,.38.23,3.3,3.3,0,0,1,1.14,1.42A3.34,3.34,0,0,1,55.47,46.08ZM44.75,48.32A6,6,0,1,1,50,39.47a4.11,4.11,0,0,1,.28.6l-.19.06a6.48,6.48,0,0,0-1.37.68,6.3,6.3,0,0,0-2.86,5.27,6.83,6.83,0,0,0,.06.79,5.78,5.78,0,0,0,.29,1.26A5.76,5.76,0,0,1,44.75,48.32ZM34.61,14.61a4.36,4.36,0,0,1,3,1.24,4.47,4.47,0,0,1,.88,1.22,4.55,4.55,0,0,1,.38,1.11l-1.28-.13-1.73-.13c-1.46-.08-3-.14-4.62-.14l-.85,0A4.36,4.36,0,0,1,34.61,14.61Zm8.94,2a6,6,0,0,1,5.83,4.68A21.76,21.76,0,0,0,42,18.63a7.54,7.54,0,0,0-.28-1.72A6.1,6.1,0,0,1,43.55,16.61ZM57,39.14a2.77,2.77,0,0,1-.9,2A6.3,6.3,0,0,0,54,40.05a6,6,0,0,0-.61-.15,9,9,0,0,0-1.21-2.6,2.75,2.75,0,0,1,2.06-.93,2.68,2.68,0,0,1,.8.13A2.76,2.76,0,0,1,57,39.14ZM20.58,47.91a4.08,4.08,0,0,1-7-1.25,4.28,4.28,0,0,1-.24-1.3s0,0,0-.08A4.14,4.14,0,0,1,14,43.13a4.1,4.1,0,0,1,1.54-1.44,4,4,0,0,1,1.95-.52,4.09,4.09,0,0,1,3.13,6.74ZM9.77,45.12A2.78,2.78,0,0,1,7,42.34a2.75,2.75,0,0,1,1.48-2.43,2.7,2.7,0,0,1,1.29-.34A2.79,2.79,0,0,1,12,40.72a7,7,0,0,0-1.36,2.51,6.86,6.86,0,0,0-.3,1.82A2.79,2.79,0,0,1,9.77,45.12Z"/></g></g></svg>