<?xml version="1.0" encoding="UTF-8"?>
<svg id="Layer_2" data-name="Layer 2" xmlns="http://www.w3.org/2000/svg" viewBox="0 0 64 64">
  <defs>
    <style>
      .cls-1 {
        fill: #606060;
        opacity: 0;
      }

      .cls-2 {
        fill: #1a1a1a;
      }
    </style>
  </defs>
  <g id="Black">
    <g id="Bandaid_Flat_Black" data-name="Bandaid Flat Black">
      <rect class="cls-1" width="64" height="64"/>
      <path class="cls-2" d="M55.26,8.74c-5.65-5.65-14.82-5.65-20.47,0L8.74,34.79c-5.65,5.65-5.65,14.82,0,20.47,5.65,5.65,14.82,5.65,20.47,0l26.05-26.05c5.65-5.65,5.65-14.82,0-20.47Zm-17.68,3.72c.77-.77,2.02-.77,2.79,0s.77,2.02,0,2.79c-.77,.77-2.02,.77-2.79,0-.77-.77-.77-2.02,0-2.79ZM13.39,47.82c-.77,.77-2.02,.77-2.79,0-.77-.77-.77-2.02,0-2.79,.77-.77,2.02-.77,2.79,0s.77,2.02,0,2.79Zm-.93-7.44c-.77-.77-.77-2.02,0-2.79,.77-.77,2.02-.77,2.79,0s.77,2.02,0,2.79-2.02,.77-2.79,0Zm6.51,13.03c-.77,.77-2.02,.77-2.79,0-.77-.77-.77-2.02,0-2.79s2.02-.77,2.79,0,.77,2.02,0,2.79Zm1.86-7.44c-.77,.77-2.02,.77-2.79,0-.77-.77-.77-2.02,0-2.79,.77-.77,2.02-.77,2.79,0,.77,.77,.77,2.02,0,2.79Zm5.58,5.58c-.77,.77-2.02,.77-2.79,0-.77-.77-.77-2.02,0-2.79,.77-.77,2.02-.77,2.79,0s.77,2.02,0,2.79Zm18.61-17.68l-11.17,11.17c-1.03,1.03-2.69,1.03-3.72,0l-11.17-11.17c-1.03-1.03-1.03-2.69,0-3.72l11.17-11.17c1.03-1.03,2.69-1.03,3.72,0l11.17,11.17c1.03,1.03,1.03,2.69,0,3.72Zm.93-13.03c-.77,.77-2.02,.77-2.79,0-.77-.77-.77-2.02,0-2.79,.77-.77,2.02-.77,2.79,0s.77,2.02,0,2.79Zm-.93-7.44c-.77-.77-.77-2.02,0-2.79s2.02-.77,2.79,0,.77,2.02,0,2.79c-.77,.77-2.02,.77-2.79,0Zm6.51,13.03c-.77,.77-2.02,.77-2.79,0-.77-.77-.77-2.02,0-2.79,.77-.77,2.02-.77,2.79,0s.77,2.02,0,2.79Zm1.86-7.44c-.77,.77-2.02,.77-2.79,0-.77-.77-.77-2.02,0-2.79,.77-.77,2.02-.77,2.79,0s.77,2.02,0,2.79Z"/>
    </g>
  </g>
</svg>