<svg xmlns="http://www.w3.org/2000/svg" viewBox="0 0 64 64"><defs><style>.cls-1,.cls-2{fill:#1a1a1a;}.cls-1{opacity:0;}</style></defs><title>Grass Black</title><g id="Layer_2" data-name="Layer 2"><g id="Layer_2-2" data-name="Layer 2"><rect class="cls-1" width="64" height="64"/><path class="cls-2" d="M57.06,21.55a112.57,112.57,0,0,1-9.45,16.56,72.1,72.1,0,0,0-1.54-23.92,1,1,0,0,0-1.93.08A103,103,0,0,1,39.83,30.6a84.49,84.49,0,0,0-9.5-19.17c-.8-1.2-2.43-.44-2.31,1.08a130.25,130.25,0,0,1-.56,23.12A68.29,68.29,0,0,0,16.37,20.89c-.93-.92-2.29.23-1.84,1.55.86,2.5,1.6,4.92,2.24,7.25A69.68,69.68,0,0,0,6.55,19.16c-1.11-.91-2.52.53-1.9,1.94a130.35,130.35,0,0,1,8.72,28.61c0,1.91,9.05,3.45,20.2,3.45s20.2-1.54,20.2-3.45A104.09,104.09,0,0,0,59.5,22.38C59.6,20.74,57.72,20.09,57.06,21.55Z"/></g></g></svg>