<svg xmlns="http://www.w3.org/2000/svg" viewBox="0 0 64 64"><defs><style>.cls-1,.cls-2{fill:#1a1a1a;}.cls-1{opacity:0;}.cls-3{fill:#39b54a;}.cls-4{fill:#65d666;}</style></defs><title>Grass Outline</title><g id="Layer_2" data-name="Layer 2"><g id="Layer_2-2" data-name="Layer 2"><rect class="cls-1" width="64" height="64"/><path class="cls-2" d="M58.18,16.74a5.22,5.22,0,0,0-4.76,3.14c-.57,1.26-1.16,2.48-1.76,3.66A71.26,71.26,0,0,0,50,13.24a5,5,0,0,0-9.75.33c-.31,1.72-.65,3.42-1.05,5.11a93,93,0,0,0-5.48-9.45,5.17,5.17,0,0,0-8.19-.69A5.62,5.62,0,0,0,24,12.82a105.84,105.84,0,0,1,.23,10.92A65.35,65.35,0,0,0,19.18,18a5,5,0,0,0-3.56-1.49,5.13,5.13,0,0,0-3.88,1.83c-1-.91-1.88-1.67-2.65-2.31a5.12,5.12,0,0,0-3.28-1.2A5.25,5.25,0,0,0,1.42,17.3,5.67,5.67,0,0,0,1,22.7a126.42,126.42,0,0,1,8.4,27.49c.4,4.4,6.33,5.41,9.23,5.91a94.37,94.37,0,0,0,15,1.06,94.41,94.41,0,0,0,15-1.06c2.8-.48,8.43-1.44,9.16-5.48a108.09,108.09,0,0,0,5.8-28A5.61,5.61,0,0,0,62,18.42,5.28,5.28,0,0,0,58.18,16.74Z"/><path class="cls-3" d="M20.75,50.68H31.6l.61-5.15A72.44,72.44,0,0,0,16.37,20.89c-.93-.92-2.29.23-1.84,1.55A129.88,129.88,0,0,1,20.75,50.68Z"/><path class="cls-3" d="M47.34,40.51a72.65,72.65,0,0,0-1.27-26.32,1,1,0,0,0-1.93.08,94.37,94.37,0,0,1-9,27.14,1.29,1.29,0,0,0,.11,1.41c2.06,2.65,4,4.93,5.75,6.89Z"/><path class="cls-4" d="M57.06,21.55a114.94,114.94,0,0,1-14.44,23.3c-.58-13.84-8-27-12.29-33.42-.8-1.2-2.43-.44-2.31,1.08,1.22,15.85-1.81,32.13-1.81,32.13A77.39,77.39,0,0,0,6.55,19.16c-1.11-.91-2.52.53-1.9,1.94a130.35,130.35,0,0,1,8.72,28.61c0,1.91,9.05,3.45,20.2,3.45s20.2-1.54,20.2-3.45A104.09,104.09,0,0,0,59.5,22.38C59.6,20.74,57.72,20.09,57.06,21.55Z"/></g></g></svg>