<?xml version="1.0" encoding="UTF-8"?>
<svg id="Layer_2" data-name="Layer 2" xmlns="http://www.w3.org/2000/svg" viewBox="0 0 64 64">
  <defs>
    <style>
      .cls-1 {
        fill: #d1774b;
      }

      .cls-1, .cls-2, .cls-3, .cls-4, .cls-5 {
        stroke-width: 0px;
      }

      .cls-2, .cls-3 {
        fill: #1a1a1a;
      }

      .cls-3 {
        opacity: 0;
      }

      .cls-4 {
        fill: #de925a;
      }

      .cls-5 {
        fill: #bb5938;
      }
    </style>
  </defs>
  <g id="Exports_1" data-name="Exports 1">
    <g>
      <rect class="cls-3" width="64" height="64"/>
      <g>
        <path class="cls-2" d="M38.19,60.16c-.75,0-1.5-.09-2.21-.28-1.04-.27-2-.72-2.84-1.34L6.39,38.89c-.33-.24-.64-.52-.93-.81-.29-.31-.56-.63-.79-.97-.22-.33-.42-.69-.58-1.06-.16-.37-.29-.76-.39-1.16-.2-.84-.35-2.03-.52-3.3-.12-.92-.27-2.06-.37-2.5-.02-.07-.03-.15-.05-.22-.08-.4-.13-.8-.13-1.19-.02-1.05.19-2.06.63-3.03.06-.14.13-.28.21-.42-.05-.04-.09-.09-.13-.13-.29-.29-.55-.61-.78-.94-.24-.34-.44-.71-.6-1.08-.16-.36-.29-.75-.38-1.15-.02-.1-.04-.2-.06-.3l-.9-5.89c-.07-.37-.11-.74-.11-1.11-.02-1.02.21-2.02.65-2.97.42-.89,1.02-1.69,1.79-2.38l2.39-2.14c.7-.63,1.52-1.14,2.42-1.51.84-.35,1.72-.56,2.63-.65.27-.02.54-.04.82-.04.64,0,1.28.07,1.9.21.98.22,1.89.61,2.68,1.15l4.32,2.93,2.31-2.14c.7-.65,1.52-1.17,2.43-1.55.84-.35,1.73-.57,2.65-.66.28-.02.55-.04.82-.04.65,0,1.29.07,1.91.21.97.21,1.87.59,2.68,1.12l27.21,17.83c.89.59,1.64,1.32,2.21,2.17.6.9.97,1.88,1.12,2.92.04.26.06.53.06.82,0,.1,0,.21,0,.31-.01.63-.03,1.76-.04,2.88-.02,1.16-.03,2.31-.05,2.96,0,.43-.06.87-.16,1.3-.09.43-.23.85-.4,1.25-.17.4-.38.78-.62,1.15-.24.36-.52.71-.83,1.04l-16.98,17.75c-.73.76-1.59,1.37-2.57,1.82-.91.42-1.89.67-2.9.76-.25.02-.51.03-.77.03Z"/>
        <path class="cls-5" d="M59.49,29.24c.01-.2.01-.39-.02-.58-.06-.44-.23-.87-.49-1.27-.26-.39-.62-.75-1.07-1.05L30.7,8.52c-.41-.27-.87-.45-1.36-.56-.48-.11-.99-.14-1.5-.09-.5.05-1,.17-1.46.36-.46.19-.89.46-1.26.8l-4.64,4.3-6.95-4.71c-.39-.27-.84-.45-1.32-.56-.48-.11-.98-.14-1.48-.09-.5.05-1,.17-1.46.36-.47.19-.9.46-1.28.79l-2.39,2.14c-.38.34-.66.72-.85,1.11-.19.4-.28.81-.27,1.21,0,.19.03.38.08.56,0-.01-.01-.03-.01-.04l.9,5.92c.04.15.08.3.15.45.06.15.14.29.24.42.09.14.2.26.32.39.12.12.26.24.41.34l2.81,1.99-1.62,1.5c-.39.36-.68.77-.87,1.19-.19.42-.28.86-.27,1.29,0,.21.03.41.08.61,0-.01,0-.02-.01-.03.3,1.26.6,4.53.89,5.79.04.16.09.32.16.47.07.15.15.3.25.45.1.14.21.28.33.41.13.13.27.25.42.37l26.76,19.65c.45.33.95.56,1.48.7.53.14,1.08.18,1.63.14s1.09-.19,1.58-.41c.5-.23.95-.54,1.34-.94l16.98-17.75c.15-.15.27-.31.38-.48.11-.17.2-.34.28-.51.07-.17.13-.35.17-.53.04-.18.06-.36.06-.54.03-1.28.06-4.56.09-5.84,0,.04-.01.07-.01.11Z"/>
        <g>
          <path class="cls-4" d="M57.91,26.34L30.7,8.52c-.41-.27-.87-.45-1.36-.56s-.99-.14-1.5-.09-1,.17-1.46.36-.89.46-1.26.8l-4.64,4.3-6.95-4.71c-.39-.27-.84-.45-1.32-.56s-.98-.14-1.48-.09-1,.17-1.46.36-.9.46-1.28.79l-2.39,2.14c-.38.34-.66.72-.85,1.11s-.28.81-.27,1.21.11.8.31,1.16.49.7.89.97l6.95,4.88-4.87,4.51c-.39.36-.68.77-.87,1.19s-.28.86-.27,1.29.12.86.32,1.25.52.75.92,1.04l27.25,19.83c.45.33.97.56,1.51.7s1.11.18,1.66.14,1.11-.19,1.61-.42.97-.55,1.36-.95l17.32-17.97c.36-.38.61-.8.76-1.23s.18-.89.12-1.33-.23-.87-.49-1.27-.62-.75-1.07-1.05ZM9.1,14.79c-.27-.19-.48-.42-.62-.67s-.21-.52-.22-.8.05-.56.18-.84.32-.53.58-.77.56-.42.89-.56.67-.22,1.02-.25.7-.01,1.03.07.64.21.92.39.48.41.62.66.22.52.23.8-.05.56-.17.84-.32.54-.58.78-.56.43-.89.56-.68.22-1.03.25-.7,0-1.04-.07-.65-.21-.92-.4"/>
          <polygon class="cls-1" points="28.4 13.18 13.36 27.19 37.74 45.2 52.86 29.55 28.4 13.18"/>
        </g>
      </g>
    </g>
  </g>
</svg>