<?xml version="1.0" encoding="UTF-8"?>
<svg id="Layer_2" data-name="Layer 2" xmlns="http://www.w3.org/2000/svg" viewBox="0 0 64 64">
  <defs>
    <style>
      .cls-1 {
        opacity: 0;
      }

      .cls-2 {
        fill: #fff;
        stroke-width: 0px;
      }
    </style>
  </defs>
  <g id="Exports_1" data-name="Exports 1">
    <g>
      <g class="cls-1">
        <rect class="cls-2" width="64" height="64"/>
      </g>
      <path class="cls-2" d="M59.49,30.24c.01-.2.01-.39-.02-.58-.06-.44-.23-.87-.49-1.27-.26-.39-.62-.75-1.07-1.05L30.7,9.52c-.41-.27-.87-.45-1.36-.56-.48-.11-.99-.14-1.5-.09-.5.05-1,.17-1.46.36-.46.19-.89.46-1.26.8l-4.64,4.3-6.95-4.71c-.39-.27-.84-.45-1.32-.56-.48-.11-.98-.14-1.48-.09-.5.05-1,.17-1.46.36-.47.19-.9.46-1.28.79l-2.39,2.14c-.38.34-.66.72-.85,1.11-.19.4-.28.81-.27,1.21,0,.19.03.38.08.56,0-.01-.01-.03-.01-.04l.9,5.92c.04.15.08.3.15.45.06.15.14.29.24.42.09.14.2.26.32.39.12.12.26.24.41.34l2.81,1.99-1.62,1.5c-.39.36-.68.77-.87,1.19-.19.42-.28.86-.27,1.29,0,.21.03.41.08.61,0-.01,0-.02-.01-.03.3,1.26.6,2.53.89,3.79.04.16.09.32.16.47.07.15.15.3.25.45.1.14.21.28.33.41.13.13.27.25.42.37l26.76,19.65c.45.33.95.56,1.48.7.53.14,1.08.18,1.63.14s1.09-.19,1.58-.41c.5-.23.95-.54,1.34-.94l16.98-17.75c.15-.15.27-.31.38-.48.11-.17.2-.34.28-.51.07-.17.13-.35.17-.53.04-.18.06-.36.06-.54.03-1.28.06-2.56.09-3.84,0,.04-.01.07-.01.11ZM12.08,16c-.33.14-.68.22-1.03.25s-.7,0-1.04-.07c-.33-.08-.65-.21-.92-.4-.27-.19-.48-.42-.62-.67-.14-.25-.21-.52-.22-.8,0-.28.05-.56.18-.84.13-.27.32-.53.58-.77.26-.24.56-.42.89-.56.32-.13.67-.22,1.02-.25.35-.03.7-.01,1.03.07.33.08.64.21.92.39.27.19.48.41.62.66.14.25.22.52.23.8.01.28-.05.56-.17.84-.12.28-.32.54-.58.78-.26.24-.56.43-.89.56Z"/>
    </g>
  </g>
</svg>