<svg xmlns="http://www.w3.org/2000/svg" viewBox="0 0 64 64"><defs><style>.cls-1,.cls-5{fill:#fff;}.cls-1{opacity:0;}.cls-2{fill:#595959;}.cls-3{fill:#404040;}.cls-4{fill:#a72d3e;}.cls-6{fill:#d3dee3;}.cls-7{fill:#e62e49;}</style></defs><title>Megaphone</title><g id="Layer_2" data-name="Layer 2"><g id="Finals"><rect class="cls-1" width="64" height="64"/><rect class="cls-2" x="6.97" y="32.28" width="12.12" height="11.54" rx="2.88" transform="translate(-13.57 7.88) rotate(-22.5)"/><path class="cls-3" d="M17.29,39.23l-6.43,2.66a2.9,2.9,0,0,1-3-.49L8.54,43a2.88,2.88,0,0,0,3.77,1.56l5.87-2.43a2.89,2.89,0,0,0,1.56-3.77l-.68-1.64A2.91,2.91,0,0,1,17.29,39.23Z"/><path class="cls-4" d="M56.43,22,55.1,18.74a3.8,3.8,0,0,0-3.76-2.57c-3.34.48-7.25-.38-10.48-1.43-2.63-.85-4.58,2-3.37,4.89l5.86,14.16c1.2,2.9,4.59,3.53,5.84,1.06,1.54-3,3.7-6.4,6.4-8.42A3.81,3.81,0,0,0,56.43,22Z"/><path class="cls-2" d="M29.52,46.74l-3.78,1.57a1.71,1.71,0,0,1-2.23-.92L19.16,36.88a1.71,1.71,0,0,1,.92-2.23l2.39-1a1.71,1.71,0,0,1,2.14.72l5.74,9.93A1.7,1.7,0,0,1,29.52,46.74Z"/><path class="cls-5" d="M29.85,57.32l-4.78,2a2.68,2.68,0,0,1-3.49-1.45L14.79,41.44A2.65,2.65,0,0,1,16.23,38l2.61-1.08A2.67,2.67,0,0,1,22.17,38l9,15.51A2.67,2.67,0,0,1,29.85,57.32Z"/><path class="cls-5" d="M22.81,27.55l4.56,11c10-4.13,26.17,2.29,26.17,2.29L39.69,7.43S32.79,23.42,22.81,27.55Z"/><path class="cls-6" d="M31.14,53.52,29.91,51.4a4.32,4.32,0,0,1-2.68,4l-1.87.78a4.36,4.36,0,0,1-5-1.21l1.2,2.89a2.68,2.68,0,0,0,3.49,1.45l4.78-2A2.67,2.67,0,0,0,31.14,53.52Z"/><path class="cls-6" d="M49.29,30.6c-8.44-.26-18.28,2.23-23.63,3.82l1.71,4.14c10-4.13,26.17,2.29,26.17,2.29Z"/><path class="cls-7" d="M57.55,37,45.23,7.29a4.53,4.53,0,0,0-8.36,3.47L49.19,40.49a4.52,4.52,0,0,0,5.91,2.45h0A4.53,4.53,0,0,0,57.55,37Z"/><rect class="cls-7" x="10.26" y="27.6" width="16.98" height="16.17" rx="2.88" transform="translate(-12.23 9.89) rotate(-22.5)"/><path class="cls-4" d="M52.48,36l-.43.18A4.5,4.5,0,0,1,46.9,35l2.29,5.53a4.52,4.52,0,0,0,5.91,2.45h0A4.53,4.53,0,0,0,57.55,37L55.26,31.5A4.52,4.52,0,0,1,52.48,36Z"/><path class="cls-4" d="M26.12,36.38,14,41.38a2.9,2.9,0,0,1-2.09,0l1,2.31a2.89,2.89,0,0,0,3.77,1.56L27,41a2.89,2.89,0,0,0,1.56-3.77l-.95-2.31A2.93,2.93,0,0,1,26.12,36.38Z"/></g></g></svg>