<svg xmlns="http://www.w3.org/2000/svg" viewBox="0 0 64 64"><defs><style>.cls-1,.cls-2{fill:#fff;}.cls-1{opacity:0;}</style></defs><title>Megaphone White</title><g id="Layer_2" data-name="Layer 2"><g id="Finals"><rect class="cls-1" width="64" height="64"/><path class="cls-2" d="M57.55,37l-3.73-9a13.91,13.91,0,0,1,1.77-1.6A3.81,3.81,0,0,0,56.43,22L55.1,18.74a3.8,3.8,0,0,0-3.76-2.57A15.54,15.54,0,0,1,49,16.3l-3.73-9a4.53,4.53,0,0,0-8.36,3.47h0c-2.63,4.7-6.81,13-12.72,16.15a2.86,2.86,0,0,0-3.32-.84L10.47,30.36a2.88,2.88,0,0,0-1.72,3.22l-.86.35A2.89,2.89,0,0,0,6.33,37.7l1.53,3.7h0L8.54,43a2.88,2.88,0,0,0,3.77,1.56l.86-.36a2.85,2.85,0,0,0,3.24,1.13l4,9.59h0l1.2,2.89a2.68,2.68,0,0,0,3.49,1.45l4.78-2a2.67,2.67,0,0,0,1.27-1.11,2.74,2.74,0,0,0,.36-1,2.7,2.7,0,0,0-.34-1.65L29.91,51.4h0l-2.25-3.89,1.86-.77a1.7,1.7,0,0,0,.83-2.43L28,40.3a2.9,2.9,0,0,0,.75-2.24c6.39-2,15.22,1,20.41,2.43h0A4.52,4.52,0,0,0,57.55,37Z"/></g></g></svg>