<?xml version="1.0" encoding="UTF-8"?>
<svg id="Layer_2" data-name="Layer 2" xmlns="http://www.w3.org/2000/svg" viewBox="0 0 64 64">
  <defs>
    <style>
      .cls-1 {
        fill: #606060;
        opacity: 0;
      }

      .cls-2 {
        fill: #1a1a1a;
      }
    </style>
  </defs>
  <g id="Black">
    <g id="Dust_Cloud_Flat_Black" data-name="Dust Cloud Flat Black">
      <rect class="cls-1" width="64" height="64"/>
      <path class="cls-2" d="M58.29,26.47c.34-1.38,.51-2.8,.51-4.25,0-9.75-7.93-17.68-17.68-17.68-.57,0-1.14,.03-1.71,.08C35.83,1.95,31.5,.5,27,.5,15.55,.5,6.24,9.81,6.24,21.25c0,.22,0,.45,.01,.67C2.7,25.25,.64,29.93,.64,34.85c0,3.55,1.07,7,3.04,9.91-.15,.86-.23,1.72-.23,2.59,0,8.2,6.67,14.88,14.88,14.88,2.37,0,4.69-.57,6.77-1.63,2.86,1.89,6.22,2.91,9.71,2.91,7.35,0,13.85-4.57,16.46-11.23,6.88-1.31,12.1-7.36,12.1-14.62,0-4.36-1.88-8.4-5.08-11.19Zm-13.58,15.85c2.01-1.8,3.22-4.9,3.44-8.58,.04-.63-.8-.89-1.12-.35-1.54,2.6-3.67,4.47-6.31,5.29-2.63,.81-5.44,.47-8.19-.82-.57-.27-1.12,.42-.73,.92,2.43,3.15,5.43,5.09,8.31,5.21-2.24,2.49-6.76,5.97-13.49,4.07-10.01-2.83-8.3-11.84-8.3-11.84,0,0-12.44,.82-10.81-9.71,.83-1.07,1.8-2.03,2.91-2.82-.11-.79-.18-1.6-.18-2.43,0-9.25,7.5-16.75,16.75-16.75,4.33,0,8.28,1.64,11.25,4.34,.93-.2,1.89-.3,2.87-.3,7.56,0,13.68,6.13,13.68,13.68,0,2.07-.46,4.04-1.29,5.8,1.54,.81,2.85,1.98,3.85,3.4-.13,4.11-1.74,12.16-12.65,10.91Z"/>
    </g>
  </g>
</svg>