<?xml version="1.0" encoding="UTF-8"?>
<svg id="Layer_2" data-name="Layer 2" xmlns="http://www.w3.org/2000/svg" viewBox="0 0 64 64">
  <defs>
    <style>
      .cls-1 {
        fill: #ffdfb5;
      }

      .cls-2 {
        fill: #f0ba84;
      }

      .cls-3 {
        opacity: 0;
      }

      .cls-3, .cls-4 {
        fill: #1a1a1a;
      }
    </style>
  </defs>
  <g id="Outlines">
    <g id="Dust_Cloud_Outline" data-name="Dust Cloud Outline">
      <rect class="cls-3" width="64" height="64"/>
      <g>
        <path class="cls-4" d="M34.8,63.5c-3.49,0-6.85-1.02-9.71-2.91-2.08,1.07-4.41,1.63-6.77,1.63-8.2,0-14.88-6.67-14.88-14.88,0-.87,.08-1.74,.23-2.59-1.97-2.91-3.04-6.36-3.04-9.91,0-4.92,2.06-9.6,5.62-12.92,0-.23-.01-.45-.01-.67C6.24,9.81,15.55,.5,27,.5c4.5,0,8.84,1.45,12.41,4.12,.57-.06,1.14-.08,1.71-.08,9.75,0,17.68,7.93,17.68,17.68,0,1.45-.17,2.87-.51,4.25,3.19,2.79,5.08,6.83,5.08,11.19,0,7.25-5.22,13.31-12.1,14.62-2.62,6.65-9.12,11.23-16.46,11.23Z"/>
        <path class="cls-1" d="M53.51,28.02c.83-1.76,1.29-3.73,1.29-5.8,0-7.56-6.13-13.68-13.68-13.68-.99,0-1.95,.11-2.87,.3-2.97-2.7-6.92-4.34-11.25-4.34-9.25,0-16.75,7.5-16.75,16.75,0,.82,.06,1.63,.18,2.43-3.5,2.48-5.78,6.56-5.78,11.17,0,3.45,1.28,6.6,3.39,9.01-.37,1.1-.58,2.27-.58,3.49,0,6.01,4.87,10.88,10.88,10.88,2.67,0,5.11-.96,7-2.56,2.46,2.37,5.8,3.83,9.49,3.83,6.63,0,12.16-4.72,13.42-10.98,.09,0,.18,.01,.27,.01,6.01,0,10.88-4.87,10.88-10.88,0-4.19-2.38-7.82-5.85-9.64Z"/>
        <path class="cls-2" d="M7.51,26.46c-1.8,2.32-2.88,5.23-2.88,8.39,0,3.45,1.28,6.6,3.39,9.01-.37,1.1-.58,2.27-.58,3.49,0,6.01,4.87,10.88,10.88,10.88,2.67,0,5.11-.96,7-2.56,2.46,2.37,5.8,3.83,9.49,3.83,6.63,0,12.16-4.72,13.42-10.98,.09,0,.18,.01,.27,.01,6.01,0,10.88-4.87,10.88-10.88,0-2.34-.74-4.51-2-6.28-.13,4.44-1.98,13.61-15.61,10.43,0,0-5.13,9.08-15.13,6.25s-8.3-11.84-8.3-11.84c0,0-12.48,.82-10.8-9.75Z"/>
        <path class="cls-2" d="M40.72,38.67c-2.63,.81-5.44,.47-8.19-.82-.57-.27-1.12,.42-.73,.92,3.05,3.96,7.01,6.01,10.47,4.94s5.58-4.99,5.87-9.98c.04-.63-.8-.89-1.12-.35-1.54,2.6-3.67,4.47-6.31,5.29Z"/>
      </g>
    </g>
  </g>
</svg>