<?xml version="1.0" encoding="UTF-8"?>
<svg id="Layer_2" data-name="Layer 2" xmlns="http://www.w3.org/2000/svg" viewBox="0 0 64 64">
  <defs>
    <style>
      .cls-1 {
        fill: #ffdfb5;
      }

      .cls-1, .cls-2, .cls-3, .cls-4, .cls-5, .cls-6, .cls-7, .cls-8, .cls-9 {
        stroke-width: 0px;
      }

      .cls-2 {
        fill: #324652;
      }

      .cls-3 {
        fill: #d1774b;
      }

      .cls-4, .cls-5 {
        fill: #1a1a1a;
      }

      .cls-5 {
        opacity: 0;
      }

      .cls-6 {
        fill: #eba969;
      }

      .cls-7 {
        fill: #5d7c8c;
      }

      .cls-8 {
        fill: #fff;
      }

      .cls-9 {
        fill: #de925a;
      }
    </style>
  </defs>
  <g id="Exports_2" data-name="Exports 2">
    <g>
      <rect class="cls-5" width="64" height="64"/>
      <g>
        <path class="cls-4" d="M55.07,33.31c-1.15-1.32-2.44-2.51-3.8-3.48.94-2.07,1.42-4.41,1.42-7.01,0-1.23-.11-2.46-.33-3.7,2.1-2.01,3.36-4.83,3.36-7.81,0-5.96-4.85-10.8-10.8-10.8-2.01,0-3.95.56-5.63,1.59-2.33-1-4.8-1.52-7.26-1.52s-4.93.52-7.26,1.52c-1.68-1.03-3.62-1.59-5.63-1.59-5.96,0-10.8,4.85-10.8,10.8,0,2.98,1.25,5.8,3.35,7.81-.22,1.24-.33,2.48-.33,3.7,0,2.6.48,4.94,1.42,7.01-1.36.98-2.66,2.16-3.8,3.48-2.19,2.53-3.35,5.07-3.44,7.56-.1,2.58.96,4.97,2.99,6.72.27.23.55.45.83.65-.48,2.91.12,6.26,1.86,9.39,2.84,5.12,6.76,5.89,8.85,5.89,1.71,0,3.44-.47,5.13-1.41,1.24-.69,2.29-1.53,3.11-2.5,1.2.13,2.45.2,3.73.2s2.53-.07,3.73-.2c.82.97,1.87,1.81,3.11,2.5,1.69.94,3.41,1.41,5.13,1.41,2.08,0,6.01-.76,8.85-5.89,1.74-3.13,2.34-6.48,1.86-9.39.29-.2.56-.41.83-.64,3.14-2.71,4.9-8.08-.45-14.27Z"/>
        <g>
          <path class="cls-3" d="M11.98,35.92c-3.36,3.88-2.95,6.83-.86,8.63,2.09,1.81,5.06,1.78,8.42-2.1,3.36-3.88,4.96-9.15,2.87-10.96-2.09-1.81-7.07.54-10.43,4.42Z"/>
          <path class="cls-3" d="M52.04,35.92c3.36,3.88,2.95,6.83.86,8.63-2.09,1.81-5.06,1.78-8.42-2.1-3.36-3.88-4.96-9.15-2.87-10.96,2.09-1.81,7.07.54,10.43,4.42Z"/>
          <path class="cls-9" d="M47.77,43.75c0,8.71-7.06,12.04-15.76,12.04s-15.76-3.33-15.76-12.04,7.06-17.25,15.76-17.25,15.76,8.55,15.76,17.25Z"/>
          <path class="cls-3" d="M32.01,26.49c-5.44,0-10.28,3.16-13.32,7.65,3.28,4.67,8.03,7.84,13.32,7.84s10.04-3.17,13.32-7.84c-3.04-4.49-7.88-7.65-13.32-7.65Z"/>
          <g>
            <path class="cls-6" d="M23.02,38.72c-.02.34-.04.68-.04,1.02,0,6.69,4.04,9.25,9.03,9.25s9.03-2.56,9.03-9.25c0-.34-.02-.68-.04-1.02-2.64,2.04-5.71,3.26-8.99,3.26s-6.35-1.22-8.99-3.26Z"/>
            <path class="cls-9" d="M32.01,26.49h0c-4.73,0-8.61,5.91-8.99,12.23,2.64,2.04,5.72,3.26,8.99,3.26s6.35-1.22,8.99-3.26c-.39-6.32-4.26-12.23-8.99-12.23Z"/>
          </g>
          <g>
            <circle class="cls-9" cx="19.12" cy="11.3" r="6.8"/>
            <circle class="cls-1" cx="19.12" cy="11.3" r="3.66"/>
            <circle class="cls-9" cx="44.9" cy="11.3" r="6.8"/>
            <circle class="cls-1" cx="44.9" cy="11.3" r="3.66"/>
          </g>
          <path class="cls-9" d="M48.68,22.81c0,9.21-7.46,12.73-16.67,12.73s-16.67-3.52-16.67-12.73S22.8,4.57,32.01,4.57s16.67,9.04,16.67,18.25Z"/>
          <g>
            <ellipse class="cls-6" cx="25.06" cy="10.89" rx="2.56" ry="1.53" transform="translate(-.85 2.23) rotate(-5)"/>
            <ellipse class="cls-6" cx="38.96" cy="10.89" rx="1.53" ry="2.56" transform="translate(24.71 48.75) rotate(-85)"/>
          </g>
          <g>
            <circle class="cls-2" cx="39.2" cy="19.46" r="3.14"/>
            <circle class="cls-2" cx="24.82" cy="19.46" r="3.14"/>
          </g>
          <g>
            <path class="cls-1" d="M41.04,27.15c0,6.92-4.04,9.77-9.03,9.77s-9.03-2.85-9.03-9.77c0-5.01,4.04-6.21,9.03-6.21s9.03,1.2,9.03,6.21Z"/>
            <path class="cls-3" d="M34.36,33.04c-.96,0-1.79-.4-2.35-1.05-.56.65-1.39,1.05-2.35,1.05-1.07,0-2.1-.48-2.68-1.26-.47-.62-.61-1.36-.41-2.08.11-.4.53-.63.93-.51.4.12.63.53.51.93-.08.26-.02.52.16.77.3.4.88.66,1.48.66,1.1,0,1.6-.85,1.6-1.64,0-.41.34-.75.75-.75s.75.34.75.75c0,.79.5,1.64,1.6,1.64.6,0,1.18-.26,1.48-.66.18-.25.24-.5.16-.77-.12-.4.11-.81.51-.93.4-.12.81.11.93.51.21.72.06,1.46-.41,2.08-.58.78-1.61,1.26-2.68,1.26Z"/>
            <path class="cls-3" d="M32.01,30.66c-.41,0-.75-.34-.75-.75v-3.39c0-.41.34-.75.75-.75s.75.34.75.75v3.39c0,.41-.34.75-.75.75Z"/>
            <g>
              <path class="cls-2" d="M35.47,25.55c0,1.91-1.55,3.46-3.46,3.46s-3.46-1.55-3.46-3.46,1.55-2.58,3.46-2.58,3.46.67,3.46,2.58Z"/>
              <ellipse class="cls-7" cx="30.72" cy="25.13" rx="1.35" ry="1.03" transform="translate(-8.78 29.08) rotate(-45)"/>
            </g>
          </g>
          <circle class="cls-8" cx="38.41" cy="18.67" r="1.16"/>
          <circle class="cls-8" cx="24.04" cy="18.67" r="1.16"/>
          <path class="cls-3" d="M49.32,55.67c-2.35,4.23-5.62,4.54-8.54,2.92-2.92-1.62-4.39-4.56-2.04-8.79,2.35-4.23,6.64-6.38,9.56-4.76,2.92,1.62,3.37,6.39,1.02,10.63Z"/>
          <path class="cls-6" d="M44.8,56.76c-.45,0-.99-.16-1.55-.47-1.24-.69-2.19-1.67-.78-4.21,1.22-2.2,3.06-3.34,4.26-3.34.25,0,.45.05.63.15.66.36.82,1.37.86,1.79.12,1.24-.24,2.72-.98,4.06-.75,1.35-1.57,2.04-2.44,2.04Z"/>
          <path class="cls-3" d="M14.7,55.67c2.35,4.23,5.62,4.54,8.54,2.92,2.92-1.62,4.39-4.56,2.04-8.79-2.35-4.23-6.64-6.38-9.56-4.76-2.92,1.62-3.37,6.39-1.02,10.63Z"/>
          <path class="cls-6" d="M19.22,56.76c-.87,0-1.69-.69-2.44-2.04-1.53-2.76-1.09-5.3-.12-5.84.18-.1.39-.15.63-.15,1.19,0,3.04,1.15,4.26,3.34.43.77.89,1.87.63,2.73-.21.69-.88,1.18-1.41,1.48-.56.31-1.09.47-1.55.47h0Z"/>
        </g>
      </g>
    </g>
  </g>
</svg>