<?xml version="1.0" encoding="UTF-8"?>
<svg id="Layer_2" data-name="Layer 2" xmlns="http://www.w3.org/2000/svg" viewBox="0 0 64 64">
  <defs>
    <style>
      .cls-1 {
        opacity: 0;
      }

      .cls-2 {
        fill: #fff;
        stroke-width: 0px;
      }
    </style>
  </defs>
  <g id="Exports_2" data-name="Exports 2">
    <g>
      <g class="cls-1">
        <rect class="cls-2" width="64" height="64"/>
      </g>
      <g>
        <path class="cls-2" d="M52.03,35.92c-1.94-2.24-4.42-3.97-6.58-4.68,2.01-2,3.22-4.76,3.22-8.43,0-1.82-.3-3.64-.84-5.38,2.29-1.1,3.87-3.43,3.87-6.13,0-3.76-3.05-6.8-6.8-6.8-2.05,0-3.88.91-5.13,2.34-2.32-1.43-4.96-2.28-7.76-2.28s-5.44.85-7.76,2.28c-1.25-1.43-3.08-2.34-5.13-2.34-3.76,0-6.8,3.05-6.8,6.8,0,2.71,1.58,5.04,3.87,6.13-.54,1.74-.84,3.55-.84,5.38,0,3.67,1.2,6.43,3.22,8.43-2.15.71-4.64,2.44-6.58,4.68-3.36,3.88-2.95,6.83-.86,8.63,1.07.92,2.37,1.36,3.84,1.05-2.21,1.98-2.39,6.24-.26,10.07,2.35,4.23,5.62,4.54,8.54,2.92,1.45-.8,2.54-1.93,2.99-3.38,1.79.39,3.75.58,5.79.58s4-.19,5.79-.58c.45,1.45,1.54,2.58,2.99,3.38,2.92,1.62,6.19,1.31,8.54-2.92,2.12-3.83,1.95-8.09-.26-10.07,1.47.31,2.77-.12,3.84-1.05,2.09-1.81,2.49-4.75-.86-8.63ZM22.17,54.81c-.21.69-.88,1.18-1.41,1.48-.56.31-1.09.47-1.55.47h0c-.87,0-1.69-.69-2.44-2.04-1.53-2.76-1.09-5.3-.12-5.84.18-.1.39-.15.63-.15,1.19,0,3.04,1.15,4.26,3.34.43.77.89,1.87.63,2.73ZM21.67,18.46c0-1.73,1.41-3.14,3.14-3.14s3.14,1.41,3.14,3.14-1.41,3.14-3.14,3.14-3.14-1.41-3.14-3.14ZM32,34.19c-4.21,0-7.62-2.03-7.62-6.96,0-3.57,3.41-4.42,7.62-4.42s7.62.86,7.62,4.42c0,4.93-3.41,6.96-7.62,6.96ZM39.19,21.6c-1.73,0-3.14-1.41-3.14-3.14s1.41-3.14,3.14-3.14,3.14,1.41,3.14,3.14-1.41,3.14-3.14,3.14ZM47.23,54.73c-.75,1.35-1.57,2.04-2.44,2.04-.45,0-.99-.16-1.55-.47-1.24-.69-2.19-1.67-.78-4.21,1.22-2.2,3.06-3.34,4.26-3.34.25,0,.45.05.63.15.66.36.82,1.37.86,1.79.12,1.24-.24,2.72-.98,4.06Z"/>
        <path class="cls-2" d="M32,24.7c-1.68,0-3.05.59-3.05,2.27s1.36,3.05,3.05,3.05,3.05-1.36,3.05-3.05-1.36-2.27-3.05-2.27Z"/>
      </g>
    </g>
  </g>
</svg>