<?xml version="1.0" encoding="UTF-8"?>
<svg id="Layer_2" data-name="Layer 2" xmlns="http://www.w3.org/2000/svg" viewBox="0 0 64 64">
  <defs>
    <style>
      .cls-1 {
        fill: #fec92b;
      }

      .cls-2 {
        fill: #fee854;
      }

      .cls-3 {
        fill: #fdaf18;
      }

      .cls-4 {
        fill: #1a1a1a;
        opacity: 0;
      }
    </style>
  </defs>
  <g id="No_outline" data-name="No outline">
    <g id="Halo">
      <rect class="cls-4" width="64" height="64"/>
      <g>
        <path class="cls-1" d="M32,17.36c-15.19,0-27.5,4.65-27.5,14.64s12.31,14.64,27.5,14.64,27.5-4.65,27.5-14.64-12.31-14.64-27.5-14.64Zm0,18.57c-8.44,0-15.43-1.7-16.61-5.32,1.18-3.62,8.16-5.32,16.61-5.32s15.43,1.7,16.61,5.32c-1.18,3.62-8.16,5.32-16.61,5.32Z"/>
        <ellipse class="cls-2" cx="18.07" cy="21.29" rx="7.55" ry="2.27" transform="translate(-5.01 5.57) rotate(-15.41)"/>
        <path class="cls-3" d="M58,26.49c.04,.4,.07,.81,.07,1.23,0,9.99-12.31,14.64-27.5,14.64-12.05,0-22.28-2.93-26-9.13,.97,9.14,12.88,13.42,27.43,13.42s27.5-4.65,27.5-14.64c0-2.06-.53-3.9-1.5-5.51Z"/>
      </g>
    </g>
  </g>
</svg>