<svg xmlns="http://www.w3.org/2000/svg" viewBox="0 0 64 64"><defs><style>.cls-1{opacity:0;}.cls-2{fill:#1a1a1a;}.cls-3{fill:#fff;}.cls-4{fill:#96dbff;}.cls-5{fill:#cef;}.cls-6{fill:#3da8e0;}.cls-7{fill:#37b9ff;}</style></defs><title>Potion 2 White Outline</title><g id="Layer_2" data-name="Layer 2"><g id="_101-200" data-name="101-200"><g class="cls-1"><rect class="cls-2" width="64" height="64"/></g><path class="cls-2" d="M58.07,50.75q0-.3-.06-.57a50.6,50.6,0,0,0-.73-5.62A60.86,60.86,0,0,0,54,33.51,67.88,67.88,0,0,0,48.84,23a49.45,49.45,0,0,0-3.15-4.48c-.49-.61-1-1.21-1.5-1.79a4.63,4.63,0,0,0,1.7-3.34,17,17,0,0,0,0-1.86c0-.2,0-.4,0-.6,0-.52,0-1,0-1.57,0-1.19.06-2.42,0-3.7-.14-2.06-1.38-4.56-6.44-4.82l-.32,0C37,.6,34.77.49,32.32.49c-1.22,0-2.48,0-3.84.08S25.4.71,23.71.94l-.17,0c-1.16.11-3.31.31-4.64,2.12a4.86,4.86,0,0,0-.84,3.36V11.6l0,.23a6.9,6.9,0,0,0,.18,2.58,4.49,4.49,0,0,0,1.61,2.38l-.2.21c-.62.68-1.26,1.37-1.88,2.18A62.11,62.11,0,0,0,7.75,40,51.78,51.78,0,0,0,5.88,51.36l0,.38a7.72,7.72,0,0,0,.78,4.54,8.4,8.4,0,0,0,2.83,2.85A23,23,0,0,0,17,62a60,60,0,0,0,10.1,1.37c1.63.1,3.11.15,4.55.15h.52a66.25,66.25,0,0,0,14.24-1.39,31.2,31.2,0,0,0,5.35-1.59,11.05,11.05,0,0,0,5.4-4A8.71,8.71,0,0,0,58.07,50.75Z"/><path class="cls-3" d="M46.66,27.21C42.81,20,36,13.11,32,13.11S21.15,20,17.31,27.21C12.88,35.5,9.84,44.38,9.84,53.32h0c0,3.42,9.91,6.19,22.14,6.19s22.14-2.77,22.14-6.19h0C54.12,44.38,51.09,35.5,46.66,27.21Z"/><path class="cls-4" d="M32,55.23c-9.66,0-15.93-1.75-17.85-2.92.2-7.08,2.54-14.84,6.94-23.08,3.7-6.91,9.27-11.67,11-11.85,1.6.18,7.17,4.94,10.87,11.85,4.41,8.24,6.74,16,7,23.08C47.91,53.48,41.65,55.23,32,55.23Z"/><rect class="cls-3" x="24.45" y="8.39" width="15.05" height="11.85"/><rect class="cls-4" x="27.87" y="8.39" width="8.22" height="13.74"/><path class="cls-5" d="M14.13,52.31c1.92,1.17,8.19,2.92,17.85,2.92s15.93-1.75,17.86-2.92c-.19-6.57-2.22-13.72-6-21.31H20.16C16.34,38.59,14.32,45.74,14.13,52.31Z"/><ellipse class="cls-3" cx="31.98" cy="31" rx="11.82" ry="1.47"/><path class="cls-4" d="M27.87,8.39H24.45V16a15.78,15.78,0,0,0,3.42,1.26Z"/><path class="cls-4" d="M36.09,8.39V17.9q1.59-.09,3.42-.33V8.39Z"/><path class="cls-6" d="M36.09,17.9V8.39H27.87v8.85A27.87,27.87,0,0,0,36.09,17.9Z"/><path class="cls-4" d="M22.06,5.57v7.79c0,.77,4.44,1.4,9.92,1.4s9.93-.63,9.93-1.4V5.57Z"/><path class="cls-3" d="M29.63,5.57H22.06v7.79c0,.66,3.22,1.21,7.57,1.35Z"/><ellipse class="cls-3" cx="31.98" cy="5.57" rx="9.93" ry="1.07"/><ellipse class="cls-3" cx="26.97" cy="30.75" rx="5.16" ry="3.89" transform="translate(-13.14 38.73) rotate(-60)"/><path class="cls-4" d="M54.12,53.32h0c0-8.94-3-17.82-7.46-26.11-.47-.87-1-1.74-1.53-2.6a39.65,39.65,0,0,1,2.44,15.46,44.33,44.33,0,0,1,2.27,12.24c-1.28.78-4.5,1.82-9.35,2.42a27,27,0,0,1-8.32,4.77C44.31,59.48,54.12,56.72,54.12,53.32Z"/><path class="cls-7" d="M40.49,54.73c4.85-.6,8.07-1.64,9.35-2.42a44.33,44.33,0,0,0-2.27-12.24A20.67,20.67,0,0,1,40.49,54.73Z"/></g></g></svg>