<svg xmlns="http://www.w3.org/2000/svg" viewBox="0 0 64 64"><defs><style>.cls-1{opacity:0;}.cls-2{fill:#1a1a1a;}.cls-3{fill:#fff;}.cls-4{fill:#96dbff;}.cls-5{fill:#fec92b;}.cls-6{fill:#fee854;}.cls-7{fill:#3da8e0;}.cls-8{fill:#fc9504;}</style></defs><title>Potion 2 Yellow Outline</title><g id="Layer_2" data-name="Layer 2"><g id="_101-200" data-name="101-200"><g class="cls-1"><rect class="cls-2" width="64" height="64"/></g><path class="cls-2" d="M49.42,23.88a46.32,46.32,0,0,0-5.15-7.13C45.85,15.57,46,13.89,46,12.11V6.75a6.65,6.65,0,0,0-.46-3.25c-.74-1.4-2.34-2-3.8-2.33A36.85,36.85,0,0,0,33.77.51a77.12,77.12,0,0,0-9.12.28c-3.09.35-6.5,1.21-6.55,4.89,0,1.74,0,3.49,0,5.24,0,2.15-.22,4.31,1.69,5.83A56.21,56.21,0,0,0,10.5,32.29a58.67,58.67,0,0,0-4.32,16c-.37,3.27-.93,6.86,1.57,9.42,2,2.07,5,3.14,7.69,3.89A62.1,62.1,0,0,0,31.79,63.5a65.66,65.66,0,0,0,15.75-1.64c3.11-.75,6.65-1.85,8.88-4.29,1.78-2,1.82-4.24,1.68-6.76a49.49,49.49,0,0,0-1.32-8.73A66.82,66.82,0,0,0,49.42,23.88Z"/><path class="cls-3" d="M46.7,27.21C42.85,20,36.09,13.11,32,13.11S21.2,20,17.35,27.21C12.92,35.5,9.89,44.38,9.89,53.32h0c0,3.42,9.91,6.18,22.14,6.18s22.14-2.76,22.14-6.18h0C54.17,44.38,51.13,35.5,46.7,27.21Z"/><path class="cls-4" d="M32,55.23c-9.67,0-15.94-1.75-17.86-2.92.21-7.08,2.54-14.84,7-23.08,3.69-6.91,9.27-11.67,11-11.85,1.6.18,7.17,4.94,10.87,11.85,4.4,8.24,6.74,16,6.94,23.08C48,53.48,41.69,55.23,32,55.23Z"/><rect class="cls-3" x="24.5" y="8.38" width="15.05" height="11.85"/><rect class="cls-4" x="27.92" y="8.38" width="8.22" height="13.74"/><path class="cls-5" d="M14.17,52.31c1.92,1.17,8.19,2.92,17.86,2.92S48,53.48,49.88,52.31c-.19-6.57-2.21-13.72-6-21.31H20.2C16.39,38.59,14.36,45.74,14.17,52.31Z"/><ellipse class="cls-6" cx="32.03" cy="31" rx="11.82" ry="1.47"/><path class="cls-4" d="M27.92,8.38H24.5V16a16.11,16.11,0,0,0,3.42,1.26Z"/><path class="cls-4" d="M36.14,8.38v9.51c1.06-.05,2.2-.16,3.41-.32V8.38Z"/><path class="cls-7" d="M36.14,17.89V8.38H27.92v8.86A27.58,27.58,0,0,0,36.14,17.89Z"/><path class="cls-4" d="M22.1,5.57v7.79c0,.77,4.45,1.4,9.93,1.4S42,14.13,42,13.36V5.57Z"/><path class="cls-3" d="M29.67,5.57H22.1v7.79c0,.66,3.23,1.2,7.57,1.35Z"/><ellipse class="cls-3" cx="32.03" cy="5.57" rx="9.93" ry="1.07"/><ellipse class="cls-3" cx="27.02" cy="30.75" rx="5.16" ry="3.89" transform="translate(-13.12 38.77) rotate(-60)"/><path class="cls-4" d="M54.17,53.32h0c0-8.94-3-17.82-7.47-26.11-.46-.87-1-1.74-1.52-2.6a39.66,39.66,0,0,1,2.43,15.46,43.6,43.6,0,0,1,2.27,12.24c-1.28.78-4.49,1.81-9.34,2.42a27.29,27.29,0,0,1-8.32,4.77C44.36,59.47,54.17,56.72,54.17,53.32Z"/><path class="cls-8" d="M40.54,54.73c4.85-.61,8.06-1.64,9.34-2.42a43.6,43.6,0,0,0-2.27-12.24A20.62,20.62,0,0,1,40.54,54.73Z"/></g></g></svg>