<svg xmlns="http://www.w3.org/2000/svg" viewBox="0 0 64 64"><defs><style>.cls-1{opacity:0;}.cls-2{fill:#1a1a1a;}.cls-3{fill:#fff;}.cls-4{fill:#96dbff;}.cls-5{fill:#a0f;}.cls-6{fill:#d769ff;}.cls-7{fill:#3da8e0;}.cls-8{fill:#5414b3;}</style></defs><title>Potion 2 Purple Outline</title><g id="Layer_2" data-name="Layer 2"><g id="_101-200" data-name="101-200"><g class="cls-1"><rect class="cls-2" width="64" height="64"/></g><path class="cls-2" d="M50.24,25.33a45.05,45.05,0,0,0-6-8.58C45.86,15.57,46,13.89,46,12.11V6.75A6.65,6.65,0,0,0,45.5,3.5c-.74-1.4-2.34-2-3.8-2.33A36.9,36.9,0,0,0,33.78.51a77.12,77.12,0,0,0-9.12.28c-3.09.35-6.5,1.21-6.55,4.89,0,1.74,0,3.49,0,5.24,0,2.14-.23,4.32,1.69,5.83a55.68,55.68,0,0,0-9.14,15.19,59.54,59.54,0,0,0-4.4,15.68c-.41,3.27-1.12,7.17,1.29,9.84,1.87,2.08,4.69,3.18,7.31,3.95A60.64,60.64,0,0,0,31.45,63.5a68.2,68.2,0,0,0,14.74-1.33c3.27-.69,6.93-1.66,9.52-3.9a7.25,7.25,0,0,0,2.45-6.2,48,48,0,0,0-1-8.35A69,69,0,0,0,50.24,25.33Z"/><path class="cls-3" d="M46.71,27.21C42.86,20,36.1,13.11,32,13.11S21.21,20,17.36,27.21C12.93,35.5,9.89,44.38,9.89,53.32h0c0,3.42,9.92,6.18,22.15,6.18s22.14-2.76,22.14-6.18h0C54.18,44.38,51.14,35.5,46.71,27.21Z"/><path class="cls-4" d="M32,55.23c-9.67,0-15.94-1.75-17.86-2.92.21-7.08,2.54-14.84,7-23.08,3.69-6.91,9.26-11.67,11-11.85,1.6.18,7.17,4.94,10.86,11.85,4.41,8.24,6.75,16,7,23.08C48,53.48,41.7,55.23,32,55.23Z"/><rect class="cls-3" x="24.51" y="8.38" width="15.05" height="11.85"/><rect class="cls-4" x="27.93" y="8.38" width="8.22" height="13.74"/><path class="cls-5" d="M14.18,52.31c1.92,1.17,8.19,2.92,17.86,2.92S48,53.48,49.89,52.31c-.19-6.57-2.22-13.72-6-21.31H20.21C16.4,38.59,14.37,45.74,14.18,52.31Z"/><ellipse class="cls-6" cx="32.04" cy="31" rx="11.82" ry="1.47"/><path class="cls-4" d="M27.93,8.38H24.51V16a15.53,15.53,0,0,0,3.42,1.27Z"/><path class="cls-4" d="M36.14,8.38v9.51c1.07-.05,2.21-.16,3.42-.32V8.38Z"/><path class="cls-7" d="M36.14,17.89V8.38H27.93v8.86A27.55,27.55,0,0,0,36.14,17.89Z"/><path class="cls-4" d="M22.11,5.57v7.79c0,.77,4.44,1.39,9.93,1.39S42,14.13,42,13.36V5.57Z"/><path class="cls-3" d="M29.68,5.57H22.11v7.79c0,.66,3.23,1.2,7.57,1.35Z"/><ellipse class="cls-3" cx="32.04" cy="5.57" rx="9.93" ry="1.07"/><ellipse class="cls-3" cx="27.03" cy="30.74" rx="5.16" ry="3.89" transform="translate(-13.11 38.78) rotate(-60)"/><path class="cls-4" d="M54.18,53.32h0c0-8.94-3-17.82-7.47-26.11-.47-.87-1-1.74-1.52-2.6a39.66,39.66,0,0,1,2.43,15.46,43.6,43.6,0,0,1,2.27,12.24c-1.28.78-4.49,1.81-9.34,2.42a27.29,27.29,0,0,1-8.32,4.77C44.37,59.47,54.18,56.72,54.18,53.32Z"/><path class="cls-8" d="M40.55,54.73c4.85-.61,8.06-1.64,9.34-2.42a43.6,43.6,0,0,0-2.27-12.24A20.62,20.62,0,0,1,40.55,54.73Z"/></g></g></svg>