<svg xmlns="http://www.w3.org/2000/svg" viewBox="0 0 64 64"><defs><style>.cls-1{opacity:0;}.cls-2{fill:#1a1a1a;}.cls-3{fill:#fff;}.cls-4{fill:#96dbff;}.cls-5{fill:#ff8ca9;}.cls-6{fill:#ffbdc6;}.cls-7{fill:#3da8e0;}.cls-8{fill:#ff608a;}</style></defs><title>Potion 2 Pink Outline</title><g id="Layer_2" data-name="Layer 2"><g id="_101-200" data-name="101-200"><g class="cls-1"><rect class="cls-2" width="64" height="64"/></g><path class="cls-2" d="M57.93,49.4A54.44,54.44,0,0,0,55.26,37a69.28,69.28,0,0,0-5.91-13.12,46,46,0,0,0-5.16-7.15,4.53,4.53,0,0,0,1.69-3.52c0-1.07,0-2.1,0-3.09,0-.45,0-.9,0-1.34V6.7h0a5.34,5.34,0,0,0-.37-2.79,4.85,4.85,0,0,0-3.64-2.68A23.09,23.09,0,0,0,38.35.74c-2-.16-4-.24-6.17-.24-1.06,0-2.11,0-3.17.05l-1,0a21.88,21.88,0,0,0-6.66.85A4.85,4.85,0,0,0,18,6.79c0,.07,0,.13,0,.19v4.65c0,.1,0,.21,0,.31a5.36,5.36,0,0,0,1.73,4.77c-.9,1-1.78,2.12-2.62,3.26a54.24,54.24,0,0,0-5,8.51A61.56,61.56,0,0,0,6.22,47.26a48.3,48.3,0,0,0-.39,4.88v.22a7.06,7.06,0,0,0,.8,3.93,10.38,10.38,0,0,0,5.2,4.08c5.19,2.23,11,2.78,16,3,1.38.07,2.64.1,3.85.1h.46A72.54,72.54,0,0,0,44,62.58,32.34,32.34,0,0,0,53,59.94a9.3,9.3,0,0,0,4.35-3.81c1.11-2.1.82-4.47.62-6C58,49.84,57.94,49.61,57.93,49.4Z"/><path class="cls-3" d="M46.63,27.21C42.78,20,36,13.11,32,13.11S21.13,20,17.28,27.21C12.85,35.5,9.81,44.38,9.81,53.32h0c0,3.42,9.92,6.18,22.15,6.18S54.1,56.74,54.1,53.32h0C54.1,44.38,51.06,35.5,46.63,27.21Z"/><path class="cls-4" d="M32,55.23c-9.67,0-15.94-1.75-17.86-2.92.21-7.08,2.54-14.84,7-23.09,3.69-6.91,9.26-11.66,11-11.84,1.6.18,7.17,4.93,10.86,11.84,4.41,8.25,6.75,16,7,23.09C47.89,53.48,41.62,55.23,32,55.23Z"/><rect class="cls-3" x="24.43" y="8.38" width="15.05" height="11.85"/><rect class="cls-4" x="27.85" y="8.38" width="8.22" height="13.74"/><path class="cls-5" d="M14.1,52.31C16,53.48,22.29,55.23,32,55.23s15.93-1.75,17.85-2.92c-.19-6.57-2.22-13.73-6-21.31H20.13C16.32,38.58,14.29,45.74,14.1,52.31Z"/><ellipse class="cls-6" cx="31.96" cy="31" rx="11.82" ry="1.47"/><path class="cls-4" d="M27.85,8.38H24.43V16a15.53,15.53,0,0,0,3.42,1.27Z"/><path class="cls-4" d="M36.07,8.38v9.51c1.06-.05,2.2-.16,3.41-.32V8.38Z"/><path class="cls-7" d="M36.07,17.89V8.38H27.85v8.86A27.58,27.58,0,0,0,36.07,17.89Z"/><path class="cls-4" d="M22,5.57v7.79c0,.77,4.45,1.39,9.93,1.39s9.92-.62,9.92-1.39V5.57Z"/><path class="cls-3" d="M29.6,5.57H22v7.79c0,.65,3.23,1.2,7.57,1.35Z"/><ellipse class="cls-3" cx="31.96" cy="5.57" rx="9.93" ry="1.07"/><ellipse class="cls-3" cx="26.95" cy="30.74" rx="5.16" ry="3.89" transform="translate(-13.15 38.71) rotate(-60)"/><path class="cls-4" d="M54.1,53.32h0c0-8.94-3-17.82-7.47-26.11-.47-.87-1-1.74-1.52-2.6a39.63,39.63,0,0,1,2.43,15.46,43.54,43.54,0,0,1,2.27,12.24c-1.28.78-4.49,1.81-9.34,2.42a27.29,27.29,0,0,1-8.32,4.77C44.29,59.47,54.1,56.72,54.1,53.32Z"/><path class="cls-8" d="M40.47,54.73c4.85-.61,8.06-1.64,9.34-2.42a43.54,43.54,0,0,0-2.27-12.24A20.62,20.62,0,0,1,40.47,54.73Z"/></g></g></svg>