<svg xmlns="http://www.w3.org/2000/svg" viewBox="0 0 64 64"><defs><style>.cls-1{opacity:0;}.cls-2{fill:#1a1a1a;}</style></defs><title>Potion 2 Flat Black</title><g id="Layer_2" data-name="Layer 2"><g id="Weapons_BW" data-name="Weapons BW"><g class="cls-1"><rect class="cls-2" width="64" height="64"/></g><path class="cls-2" d="M58.11,51.13a50.21,50.21,0,0,0-1.25-8.72,66.67,66.67,0,0,0-7.45-18.53,45.66,45.66,0,0,0-5.15-7.13C45.84,15.57,46,13.89,46,12.11V6.75a6.65,6.65,0,0,0-.46-3.25,5.42,5.42,0,0,0-3.8-2.33A37,37,0,0,0,33.77.51a77.06,77.06,0,0,0-9.12.28c-3.1.35-6.51,1.21-6.55,4.89,0,1.74,0,3.49,0,5.24,0,2.15-.23,4.31,1.68,5.83A55.93,55.93,0,0,0,10.5,32.29a58.72,58.72,0,0,0-4.37,16.3c-.34,3.27-.81,6.71,1.72,9.21C10,59.89,13,61,15.82,61.69A63.52,63.52,0,0,0,32,63.5a63.75,63.75,0,0,0,16-1.75c2.9-.76,6.12-1.8,8.25-4C58.08,55.84,58.24,53.64,58.11,51.13Zm-4,2.19c0,3.42-9.91,6.18-22.14,6.18S9.88,56.74,9.88,53.32h0c0-8.94,3-17.82,7.47-26.11a41.44,41.44,0,0,1,7.15-9.64v-3.3c-1.5-.25-2.4-.56-2.4-.91V5.57C22.1,5,26.54,4.5,32,4.5S42,5,42,5.57v7.79c0,.35-.91.66-2.4.91v3.3a42,42,0,0,1,7.15,9.64c4.43,8.29,7.46,17.17,7.46,26.11Z"/><path class="cls-2" d="M18.39,34.91a48.59,48.59,0,0,0-4.2,16.77,1,1,0,0,0,.56.94c2.43,1.15,8.43,2.61,17.27,2.61s14.84-1.46,17.27-2.61a1,1,0,0,0,.56-.94,48.57,48.57,0,0,0-4.19-16.77,1,1,0,0,0-.93-.61H19.31A1,1,0,0,0,18.39,34.91Z"/></g></g></svg>