<svg xmlns="http://www.w3.org/2000/svg" viewBox="0 0 64 64"><defs><style>.cls-1{opacity:0;}.cls-2{fill:#1a1a1a;}.cls-3{fill:#fff;}.cls-4{fill:#96dbff;}.cls-5{fill:#e62e49;}.cls-6{fill:#ff6e83;}.cls-7{fill:#3da8e0;}.cls-8{fill:#a72d3e;}</style></defs><title>Potion 2 Red Outline</title><g id="Layer_2" data-name="Layer 2"><g id="_101-200" data-name="101-200"><g class="cls-1"><rect class="cls-2" width="64" height="64"/></g><path class="cls-2" d="M49.41,23.88a45.66,45.66,0,0,0-5.15-7.13C45.84,15.57,46,13.89,46,12.11V6.75a6.65,6.65,0,0,0-.46-3.25,5.42,5.42,0,0,0-3.8-2.33A37,37,0,0,0,33.77.51a77.06,77.06,0,0,0-9.12.28c-3.1.35-6.51,1.21-6.55,4.89,0,1.74,0,3.49,0,5.24,0,2.15-.23,4.31,1.68,5.83A55.93,55.93,0,0,0,10.5,32.29a58.72,58.72,0,0,0-4.37,16.3c-.34,3.27-.81,6.71,1.72,9.21C10,59.89,13,61,15.82,61.69A63.52,63.52,0,0,0,32,63.5a63.75,63.75,0,0,0,16-1.75c2.9-.76,6.12-1.8,8.25-4,1.82-1.89,2-4.09,1.85-6.6a50.21,50.21,0,0,0-1.25-8.72A66.67,66.67,0,0,0,49.41,23.88Z"/><path class="cls-3" d="M46.7,27.21C42.85,20,36.08,13.11,32,13.11S21.2,20,17.35,27.21C12.92,35.5,9.88,44.38,9.88,53.32h0c0,3.42,9.91,6.18,22.14,6.18s22.14-2.76,22.14-6.18h0C54.16,44.38,51.13,35.5,46.7,27.21Z"/><path class="cls-4" d="M32,55.23c-9.66,0-15.93-1.75-17.85-2.92.2-7.08,2.54-14.84,6.94-23.08,3.7-6.91,9.27-11.67,11-11.85,1.6.18,7.18,4.94,10.87,11.85,4.41,8.24,6.74,16,7,23.08C48,53.48,41.69,55.23,32,55.23Z"/><rect class="cls-3" x="24.5" y="8.38" width="15.05" height="11.85"/><rect class="cls-4" x="27.91" y="8.38" width="8.22" height="13.74"/><path class="cls-5" d="M14.17,52.31c1.92,1.17,8.19,2.92,17.85,2.92S48,53.48,49.88,52.31c-.19-6.57-2.22-13.72-6-21.31H20.2C16.38,38.59,14.36,45.74,14.17,52.31Z"/><ellipse class="cls-6" cx="32.02" cy="31" rx="11.82" ry="1.47"/><path class="cls-4" d="M27.91,8.38H24.5V16a16,16,0,0,0,3.41,1.26Z"/><path class="cls-4" d="M36.13,8.38v9.51c1.07-.05,2.2-.16,3.42-.32V8.38Z"/><path class="cls-7" d="M36.13,17.89V8.38H27.91v8.86A27.62,27.62,0,0,0,36.13,17.89Z"/><path class="cls-4" d="M22.1,5.57v7.79c0,.77,4.44,1.4,9.92,1.4S42,14.13,42,13.36V5.57Z"/><path class="cls-3" d="M29.67,5.57H22.1v7.79c0,.66,3.22,1.2,7.57,1.35Z"/><ellipse class="cls-3" cx="32.02" cy="5.57" rx="9.93" ry="1.07"/><ellipse class="cls-3" cx="27.01" cy="30.75" rx="5.16" ry="3.89" transform="translate(-13.12 38.77) rotate(-60)"/><path class="cls-4" d="M54.16,53.32h0c0-8.94-3-17.82-7.46-26.11-.47-.87-1-1.74-1.53-2.6a39.65,39.65,0,0,1,2.44,15.46,44,44,0,0,1,2.27,12.24c-1.28.78-4.5,1.81-9.35,2.42a27.23,27.23,0,0,1-8.31,4.77C44.35,59.47,54.16,56.72,54.16,53.32Z"/><path class="cls-8" d="M40.53,54.73c4.85-.61,8.07-1.64,9.35-2.42a44,44,0,0,0-2.27-12.24A20.63,20.63,0,0,1,40.53,54.73Z"/></g></g></svg>