<svg xmlns="http://www.w3.org/2000/svg" viewBox="0 0 64 64"><defs><style>.cls-1{opacity:0;}.cls-2{fill:#fff;}.cls-3{fill:#96dbff;}.cls-4{fill:#1778ff;}.cls-5{fill:#37b9ff;}.cls-6{fill:#3da8e0;}.cls-7{fill:#0049c7;}</style></defs><title>Potion 2 Blue</title><g id="Layer_2" data-name="Layer 2"><g id="_101-200" data-name="101-200"><g class="cls-1"><rect class="cls-2" width="64" height="64"/></g><path class="cls-2" d="M46.68,27.21C42.83,20,36.06,13.11,32,13.11S21.17,20,17.32,27.21C12.9,35.49,9.86,44.37,9.86,53.32h0c0,3.41,9.91,6.18,22.14,6.18s22.14-2.77,22.14-6.18h0C54.14,44.37,51.1,35.49,46.68,27.21Z"/><path class="cls-3" d="M32,55.23c-9.66,0-15.93-1.75-17.86-2.93.21-7.07,2.54-14.83,7-23.08,3.7-6.91,9.27-11.66,11-11.84,1.6.18,7.17,4.93,10.87,11.84,4.41,8.25,6.74,16,7,23.08C47.93,53.48,41.66,55.23,32,55.23Z"/><rect class="cls-2" x="24.47" y="8.38" width="15.05" height="11.85"/><rect class="cls-3" x="27.89" y="8.38" width="8.22" height="13.74"/><path class="cls-4" d="M14.14,52.3c1.93,1.18,8.2,2.93,17.86,2.93s15.93-1.75,17.86-2.93c-.19-6.56-2.22-13.72-6-21.31H20.18C16.36,38.58,14.33,45.74,14.14,52.3Z"/><ellipse class="cls-5" cx="32" cy="30.99" rx="11.82" ry="1.47"/><path class="cls-3" d="M27.89,8.38H24.47V16a15.78,15.78,0,0,0,3.42,1.26Z"/><path class="cls-3" d="M36.11,8.38v9.51c1.06-.06,2.2-.16,3.42-.32V8.38Z"/><path class="cls-6" d="M36.11,17.89V8.38H27.89v8.85A27.53,27.53,0,0,0,36.11,17.89Z"/><path class="cls-3" d="M22.07,5.57v7.78c0,.78,4.45,1.4,9.93,1.4s9.93-.62,9.93-1.4V5.57Z"/><path class="cls-2" d="M29.64,5.57H22.07v7.78c0,.66,3.23,1.21,7.57,1.36Z"/><ellipse class="cls-2" cx="32" cy="5.57" rx="9.93" ry="1.07"/><ellipse class="cls-2" cx="26.99" cy="30.74" rx="5.16" ry="3.89" transform="translate(-13.13 38.74) rotate(-60)"/><path class="cls-3" d="M54.14,53.32h0c0-9-3-17.83-7.46-26.11-.47-.88-1-1.75-1.53-2.6a39.59,39.59,0,0,1,2.44,15.46A44.26,44.26,0,0,1,49.86,52.3c-1.28.79-4.5,1.82-9.35,2.43a27.29,27.29,0,0,1-8.32,4.77C44.33,59.47,54.14,56.71,54.14,53.32Z"/><path class="cls-7" d="M40.51,54.73c4.85-.61,8.07-1.64,9.35-2.43a44.26,44.26,0,0,0-2.27-12.23A20.67,20.67,0,0,1,40.51,54.73Z"/></g></g></svg>