<svg xmlns="http://www.w3.org/2000/svg" viewBox="0 0 64 64"><defs><style>.cls-1{opacity:0;}.cls-2{fill:#1a1a1a;}.cls-3{fill:#fff;}.cls-4{fill:#96dbff;}.cls-5{fill:#1778ff;}.cls-6{fill:#37b9ff;}.cls-7{fill:#3da8e0;}.cls-8{fill:#0049c7;}</style></defs><title>Potion 2 Blue Outline</title><g id="Layer_2" data-name="Layer 2"><g id="_101-200" data-name="101-200"><g class="cls-1"><rect class="cls-2" width="64" height="64"/></g><path class="cls-2" d="M49.42,23.88a45.66,45.66,0,0,0-5.15-7.13C45.85,15.57,46,13.9,46,12.11V6.68a6.4,6.4,0,0,0-.49-3.24c-.77-1.39-2.4-2-3.87-2.3A37.88,37.88,0,0,0,33.77.51a73.1,73.1,0,0,0-9.24.3c-3.09.36-6.38,1.25-6.43,4.89,0,1.8,0,3.6,0,5.4,0,2.1-.16,4.18,1.69,5.65a55.68,55.68,0,0,0-9.21,15.37,58.46,58.46,0,0,0-4.4,16.15c-.37,3.28-.93,6.85,1.57,9.42,2,2.07,5,3.14,7.69,3.89A62.13,62.13,0,0,0,31.8,63.5a66.33,66.33,0,0,0,15.58-1.59c3.1-.75,6.61-1.81,8.89-4.18,1.9-2,2-4.3,1.83-6.92a50.56,50.56,0,0,0-1.31-8.73A67.16,67.16,0,0,0,49.42,23.88Z"/><path class="cls-3" d="M46.7,27.21C42.86,20,36.09,13.11,32,13.11S21.2,20,17.35,27.21C12.92,35.5,9.89,44.38,9.89,53.32h0c0,3.42,9.91,6.19,22.14,6.19s22.14-2.77,22.14-6.19h0C54.17,44.38,51.13,35.5,46.7,27.21Z"/><path class="cls-4" d="M32,55.23c-9.67,0-15.93-1.75-17.86-2.92.21-7.08,2.54-14.84,7-23.08,3.7-6.91,9.27-11.67,11-11.85,1.6.18,7.17,4.94,10.87,11.85,4.4,8.24,6.74,16,6.94,23.08C48,53.48,41.69,55.23,32,55.23Z"/><rect class="cls-3" x="24.5" y="8.39" width="15.05" height="11.85"/><rect class="cls-4" x="27.92" y="8.39" width="8.22" height="13.74"/><path class="cls-5" d="M14.17,52.31c1.93,1.17,8.19,2.92,17.86,2.92S48,53.48,49.88,52.31c-.19-6.57-2.21-13.72-6-21.31H20.2C16.39,38.59,14.36,45.74,14.17,52.31Z"/><ellipse class="cls-6" cx="32.03" cy="31" rx="11.82" ry="1.47"/><path class="cls-4" d="M27.92,8.39H24.5V16a16.33,16.33,0,0,0,3.42,1.26Z"/><path class="cls-4" d="M36.14,8.39v9.5c1.06-.05,2.2-.16,3.42-.32V8.39Z"/><path class="cls-7" d="M36.14,17.89V8.39H27.92v8.85A27.58,27.58,0,0,0,36.14,17.89Z"/><path class="cls-4" d="M22.1,5.57v7.79c0,.77,4.45,1.4,9.93,1.4S42,14.13,42,13.36V5.57Z"/><path class="cls-3" d="M29.67,5.57H22.1v7.79c0,.66,3.23,1.21,7.57,1.35Z"/><ellipse class="cls-3" cx="32.03" cy="5.57" rx="9.93" ry="1.07"/><ellipse class="cls-3" cx="27.02" cy="30.75" rx="5.16" ry="3.89" transform="translate(-13.12 38.77) rotate(-60)"/><path class="cls-4" d="M54.17,53.32h0c0-8.94-3-17.82-7.47-26.11-.46-.87-1-1.74-1.52-2.6a39.48,39.48,0,0,1,2.43,15.46,43.6,43.6,0,0,1,2.27,12.24c-1.28.78-4.49,1.81-9.34,2.42a27.29,27.29,0,0,1-8.32,4.77C44.36,59.47,54.17,56.72,54.17,53.32Z"/><path class="cls-8" d="M40.54,54.73c4.85-.61,8.06-1.64,9.34-2.42a43.6,43.6,0,0,0-2.27-12.24A20.62,20.62,0,0,1,40.54,54.73Z"/></g></g></svg>