<?xml version="1.0" encoding="UTF-8"?>
<svg id="Layer_2" data-name="Layer 2" xmlns="http://www.w3.org/2000/svg" viewBox="0 0 64 64">
  <defs>
    <style>
      .cls-1 {
        fill: #ff8ca9;
      }

      .cls-1, .cls-2, .cls-3, .cls-4, .cls-5, .cls-6 {
        stroke-width: 0px;
      }

      .cls-7 {
        opacity: 0;
      }

      .cls-2 {
        fill: #1778ff;
      }

      .cls-3 {
        fill: #ffbdc6;
      }

      .cls-4 {
        fill: #ff608a;
      }

      .cls-5 {
        fill: #fff;
      }

      .cls-6 {
        fill: #37b9ff;
      }
    </style>
  </defs>
  <g id="Exports_2" data-name="Exports 2">
    <g>
      <g class="cls-7">
        <rect class="cls-5" width="64" height="64"/>
      </g>
      <g>
        <path class="cls-6" d="M41.98,24.4c3.61-4.74,5.33-6.75,9.71-12.23.61-.76,1.45-1.06,2.26-1-.87-1.79-2.49-3.17-4.52-3.7l-10.52-2.74c-2.77-.72-5.7.32-7.4,2.62l-8.28,11.45,18.76,5.6h0Z"/>
        <path class="cls-2" d="M51.69,12.17c-4.38,5.49-6.1,7.49-9.71,12.23l-1.63,19.41,12.79-19c.78-1.1,1.21-2.41,1.26-3.76l.25-6.55c.04-1.19-.21-2.32-.71-3.34-.81-.06-1.65.24-2.26,1Z"/>
        <path class="cls-3" d="M30.79,41.21c.63-2.49,3.99-7.38,8.55-13.38l2.64-3.43-18.76-5.6-10.8,14.94c-.49.66-.85,1.4-1.08,2.18l19.34,5.69c.03-.13.07-.26.1-.4Z"/>
        <path class="cls-1" d="M28.86,55.44c.21-6.06.42-8.25,1.83-13.84l-19.34-5.69c-.08.29-.15.58-.2.88l-1.73,10.82c-.52,3.26,1.3,6.44,4.38,7.63l9.74,3.78c1.89.73,3.94.6,5.66-.26-.24-.61-.39-1.63-.33-3.32Z"/>
        <path class="cls-4" d="M30.79,41.21c-.03.14-.07.27-.1.4-1.41,5.59-1.62,7.77-1.83,13.84-.06,1.68.09,2.71.33,3.32,1.02-.51,1.92-1.26,2.6-2.24l8.56-12.71,1.63-19.41-2.64,3.43c-4.56,5.99-7.92,10.89-8.55,13.38Z"/>
      </g>
    </g>
  </g>
</svg>