<?xml version="1.0" encoding="UTF-8"?>
<svg id="Layer_2" data-name="Layer 2" xmlns="http://www.w3.org/2000/svg" viewBox="0 0 64 64">
  <defs>
    <style>
      .cls-1 {
        opacity: 0;
      }

      .cls-2 {
        fill: #fff;
        stroke-width: 0px;
      }
    </style>
  </defs>
  <g id="Exports_2" data-name="Exports 2">
    <g>
      <g class="cls-1">
        <rect class="cls-2" width="64" height="64"/>
      </g>
      <g>
        <path class="cls-2" d="M40.39,25.49l-18.09-5.41-9.87,13.65c-.49.66-.85,1.4-1.08,2.18-.08.29-.15.58-.2.88l-1.73,10.82c-.52,3.26,1.3,6.44,4.38,7.63l9.74,3.78c1.89.73,3.94.6,5.66-.26,1.02-.51,1.92-1.26,2.6-2.24l6.84-10.15,1.75-20.87Z"/>
        <path class="cls-2" d="M53.95,11.17c-.87-1.79-2.49-3.17-4.52-3.7l-10.52-2.74c-2.77-.72-5.7.32-7.4,2.62l-7.35,10.17,18.26,5.46c.68.2,1.12.85,1.07,1.56l-1.4,16.73,11.07-16.45c.78-1.1,1.21-2.41,1.27-3.76l.25-6.55c.04-1.19-.21-2.32-.71-3.34Z"/>
      </g>
    </g>
  </g>
</svg>