<?xml version="1.0" encoding="UTF-8"?>
<svg id="Layer_2" data-name="Layer 2" xmlns="http://www.w3.org/2000/svg" viewBox="0 0 64 64">
  <defs>
    <style>
      .cls-1 {
        fill: #a72335;
      }

      .cls-2 {
        fill: #ff7a6e;
      }

      .cls-3 {
        opacity: 0;
      }

      .cls-3, .cls-4 {
        fill: #1a1a1a;
      }

      .cls-5 {
        fill: #e62e49;
      }
    </style>
  </defs>
  <g id="Outlines">
    <g id="Origami_Outline" data-name="Origami Outline">
      <rect class="cls-3" width="64" height="64"/>
      <g>
        <path class="cls-4" d="M62.25,18.07c-.76-.72-1.75-1.09-2.75-1.09-.61,0-1.23,.14-1.8,.43l-9.41,4.73-3.47-3.41c-.78-.76-1.79-1.15-2.8-1.15s-1.95,.36-2.72,1.07l-2.1,1.95c-.52,.49-.91,1.11-1.11,1.79l-.58,1.96-.64-.42c-.67-.45-1.44-.67-2.21-.67-.98,0-1.96,.36-2.72,1.07l-3.16,2.94L13.84,10.36c-.78-1.02-1.97-1.57-3.18-1.57-.71,0-1.42,.19-2.06,.58-1.75,1.05-2.42,3.25-1.56,5.1l9.01,19.49-12.56,3.32c-1.86,.49-3.11,2.24-2.97,4.17s1.64,3.47,3.56,3.68l17.96,1.96,1.31,2.9c.66,1.46,2.11,2.35,3.64,2.35,.36,0,.73-.05,1.09-.15l4.28-1.21,6.89,3.76c.6,.33,1.26,.49,1.91,.49s1.38-.18,1.99-.53c.31-.18,.6-.4,.85-.65,.35-.05,.7-.16,1.03-.31,1.17-.53,2.02-1.59,2.27-2.84l1.9-9.29,4.81-1.45c1.13-.34,2.04-1.16,2.51-2.24l6.64-15.32c.67-1.54,.3-3.34-.92-4.5Z"/>
        <polygon class="cls-2" points="45.77 38.44 52.86 36.3 59.5 20.98 44.35 28.6 43.97 37.05 45.77 38.44"/>
        <polygon class="cls-1" points="26.99 48.33 21.95 37.22 39.01 41.55 41.17 51.21 32.84 46.67 26.99 48.33"/>
        <polygon class="cls-5" points="39.01 41.55 32.66 27.27 21.95 37.22 39.01 41.55"/>
        <polygon class="cls-2" points="39.01 41.55 34.48 44.41 4.5 41.14 17.86 37.62 21.95 37.22 39.01 41.55"/>
        <polygon class="cls-5" points="21.95 37.22 10.67 12.79 26.27 33.2 21.95 37.22"/>
        <polygon class="cls-5" points="42.03 21.59 49.54 28.97 41.86 27.31 42.03 21.59"/>
        <polygon class="cls-1" points="44.38 27.85 43.39 50.07 41.24 48.83 41.86 27.15 44.38 27.85"/>
        <polygon class="cls-1" points="38.35 31.04 32.66 27.27 37.06 37.18 38.35 31.04"/>
        <polygon class="cls-5" points="43.39 50.07 45.77 38.44 43.97 37.05 43.39 50.07"/>
        <polygon class="cls-5" points="36.36 35.59 39.93 23.54 42.03 21.59 41.17 51.21 39.01 41.55 36.36 35.59"/>
      </g>
    </g>
  </g>
</svg>