<?xml version="1.0" encoding="UTF-8"?>
<svg id="Layer_2" data-name="Layer 2" xmlns="http://www.w3.org/2000/svg" viewBox="0 0 64 64">
  <defs>
    <style>
      .cls-1 {
        fill: #fff;
      }

      .cls-2 {
        fill: #1a1a1a;
        opacity: 0;
      }
    </style>
  </defs>
  <g id="BW">
    <g>
      <rect class="cls-2" width="64" height="64"/>
      <g>
        <path class="cls-1" d="M59.28,23.38c-1.41-4.44-11.43-9.51-16.09-9.38-1.52,0-5.09,2.97-5.12,3-.09-.02-.18-.04-.27-.06,.17-.15,.33-.3,.49-.47,1.17-1.49,1.79-3.34,1.75-5.24,0-.04,0-.07,0-.11-.05-.41-.42-.7-.83-.65-1.79,.13-3.48,.85-4.82,2.04-.12-1.24-.51-2.44-1.17-3.51-.02-.03-.04-.06-.06-.09-.25-.33-.72-.4-1.05-.15-1.56,1.08-2.7,2.67-3.22,4.49-.25,1.15-.08,2.3,.22,3.28-1.01,.08-2.09,.22-3.17,.46-.03-.02-3.59-3-5.12-3-4.66-.1-14.68,5-16.09,9.41-1.21,3.84,2.72,14.78,6.77,14.69,.79-.02,1.53-.45,2.2-1.18-.61,3.44-.76,7.2,.44,10.29,3,7.68,12.67,8.18,17.87,8.18s14.9-.5,17.87-8.18c1.2-3.09,1.05-6.84,.44-10.28,.67,.73,1.41,1.16,2.2,1.18,4.05,.08,7.98-10.86,6.77-14.73Zm-40.71,10.4c0-2.84,2.31-5.15,5.15-5.15s5.15,2.31,5.15,5.15-2.31,5.15-5.15,5.15-5.15-2.31-5.15-5.15Zm20.48,13.29c-.9,.93-1.99,1.65-3.2,2.1-1.22,.49-2.52,.74-3.83,.74-2.63,.02-5.15-1-7.03-2.84-.33-.33-.33-.86,0-1.19,.23-.23,.57-.3,.88-.18h.04c.99,.37,2.02,.68,3.06,.91,.67,.14,1.36,.21,2.04,.26v-3.72c-1.99-.66-3.53-3.12-3.06-4.26,.78-1.87,7.33-1.87,8.11,0,.47,1.13-1.05,3.56-3.02,4.24v3.73c.68-.05,1.36-.13,2.03-.27,1.04-.23,2.07-.53,3.07-.9,.44-.15,.92,.07,1.08,.51,.11,.3,.05,.64-.16,.88Zm1.23-8.14c-2.84,0-5.15-2.31-5.15-5.15s2.31-5.15,5.15-5.15,5.15,2.31,5.15,5.15-2.31,5.15-5.15,5.15Z"/>
        <circle class="cls-1" cx="39.26" cy="33.78" r="2.74"/>
        <circle class="cls-1" cx="24.73" cy="33.78" r="2.74"/>
      </g>
    </g>
  </g>
</svg>