<?xml version="1.0" encoding="UTF-8"?>
<svg id="Layer_2" data-name="Layer 2" xmlns="http://www.w3.org/2000/svg" viewBox="0 0 64 64">
  <defs>
    <style>
      .cls-1 {
        fill: #ffdfb5;
      }

      .cls-2 {
        fill: #fff;
      }

      .cls-3 {
        fill: #eba969;
      }

      .cls-4 {
        fill: #bb5938;
      }

      .cls-5 {
        fill: #324652;
      }

      .cls-6 {
        fill: #d1774b;
      }

      .cls-7 {
        opacity: 0;
      }

      .cls-7, .cls-8 {
        fill: #1a1a1a;
      }
    </style>
  </defs>
  <g id="Colour">
    <g>
      <rect class="cls-7" width="64" height="64"/>
      <g>
        <path class="cls-8" d="M63.09,22.18c-1.99-6.31-13.09-11.87-19.21-12.18-.21-.8-.63-1.52-1.21-2.11-.9-.9-2.11-1.4-3.38-1.41-.18-.01-.35-.01-.53,0-.73,.08-1.44,.21-2.15,.4-1.37-2.24-4.29-2.95-6.53-1.58-.12,.08-.25,.16-.36,.24-2.08,1.49-3.66,3.58-4.52,6-1.28-.88-2.76-1.41-4.31-1.54h-.21C14.68,10,3,15.68,.91,22.18c-1.38,4.37,1,11.92,3.94,16,1.07,1.6,2.6,2.84,4.38,3.57-.04,2.37,.36,4.72,1.17,6.94,4.16,10.7,17.29,10.7,21.6,10.7s17.44,0,21.6-10.74c.81-2.22,1.21-4.57,1.17-6.94,1.78-.72,3.31-1.96,4.38-3.56,2.97-4.05,5.32-11.6,3.94-15.97Z"/>
        <path class="cls-3" d="M38.29,16.47c-2.09,2.3-5.86,2.3-5.86,2.3,0,0-.37-3.75,1.72-6.06,1.37-1.31,3.16-2.11,5.05-2.24,.41-.05,.78,.24,.83,.65,0,.04,0,.07,0,.11,.04,1.9-.58,3.75-1.75,5.24Z"/>
        <path class="cls-3" d="M34.34,14.4c-.64,3-3.9,4.94-3.9,4.94,0,0-2.21-3.05-1.56-6.09,.52-1.82,1.66-3.41,3.22-4.49,.33-.25,.8-.18,1.05,.15,.02,.03,.04,.06,.06,.09,1,1.61,1.4,3.52,1.13,5.4Z"/>
        <path class="cls-3" d="M41.67,18.43c-2.89-1.89-7.33-2-9.67-2s-6.78,.11-9.67,2c-3.26,2.13-5.16,7-6.3,10.11-1.32,3.65-4.29,12.5-1.9,18.67,3,7.68,12.67,8.18,17.87,8.18s14.9-.5,17.87-8.18c2.39-6.17-.58-15-1.9-18.67-1.14-3.14-3.04-7.98-6.3-10.11Z"/>
        <ellipse class="cls-6" cx="44.13" cy="38.96" rx="3.55" ry="2.27"/>
        <ellipse class="cls-6" cx="19.87" cy="38.96" rx="3.55" ry="2.27"/>
        <path class="cls-1" d="M43.17,42c0,8.55-5,12.08-11.17,12.08s-11.17-3.52-11.17-12.08c0-6.2,5-7.68,11.17-7.68s11.17,1.49,11.17,7.68Z"/>
        <circle class="cls-2" cx="40.28" cy="33.78" r="5.15"/>
        <circle class="cls-2" cx="23.72" cy="33.78" r="5.15"/>
        <circle class="cls-5" cx="38.85" cy="33.78" r="2.99"/>
        <circle class="cls-5" cx="25.15" cy="33.78" r="2.99"/>
        <ellipse class="cls-6" cx="23.92" cy="23.82" rx="2.98" ry="1.78" transform="translate(-1.98 2.18) rotate(-5)"/>
        <ellipse class="cls-6" cx="40.08" cy="23.81" rx="1.78" ry="2.98" transform="translate(12.87 61.67) rotate(-85)"/>
        <path class="cls-4" d="M59.28,23.38c-1.41-4.44-11.43-9.51-16.09-9.38-1.53,0-5.12,3-5.12,3,3.89,1.36,6.81,4.62,7.74,8.63,1.24,5.44,3.47,12.41,6.7,12.48,4.05,.08,7.98-10.86,6.77-14.73Z"/>
        <path class="cls-4" d="M20.81,14c-4.66-.1-14.68,5-16.09,9.41-1.21,3.84,2.72,14.78,6.77,14.69,3.23-.07,5.46-7,6.7-12.48,.93-4.01,3.85-7.26,7.74-8.62,0,0-3.59-3-5.12-3Z"/>
        <path class="cls-5" d="M27.95,38.88c-.55,1.32,1.62,4.43,4.05,4.43s4.6-3.11,4.05-4.43c-.78-1.87-7.33-1.87-8.11,0Z"/>
        <g>
          <path class="cls-5" d="M25.9,45.68c.99,.39,2.02,.7,3.06,.92,1,.21,2.03,.31,3.05,.3,1.02,0,2.04-.11,3.04-.32,1.04-.23,2.07-.53,3.07-.9h0c.44-.15,.92,.07,1.08,.51,.11,.3,.05,.64-.16,.88-.9,.93-1.99,1.65-3.2,2.1-1.22,.49-2.52,.74-3.83,.74-2.63,.02-5.15-1-7.03-2.84-.33-.33-.33-.86,0-1.19,.23-.23,.57-.3,.88-.18h.04Z"/>
          <rect class="cls-5" x="31" y="42.52" width="2.03" height="5.64"/>
        </g>
      </g>
    </g>
  </g>
</svg>