<svg xmlns="http://www.w3.org/2000/svg" viewBox="0 0 128 128"><defs><style>.cls-1{fill:none;}.cls-2{fill:#1a1a1a;}.cls-3{fill:#d10b6e;}.cls-4{fill:#96dbff;}.cls-5{fill:#ff8ca9;}.cls-6{fill:#fff;}</style></defs><title>Rebirth Outline </title><g id="Layer_2" data-name="Layer 2"><g id="_1-13" data-name="1-13"><rect class="cls-1" width="128" height="128"/><path class="cls-2" d="M124.31,61.82l-5.9-35a11.78,11.78,0,0,0-1-3.23,12.5,12.5,0,0,0-1.73-2.66,12,12,0,0,0-2.31-2.09,11.27,11.27,0,0,0-3.09-1.48,10.73,10.73,0,0,0-2.08-.39l-.79,0a10.36,10.36,0,0,0-1.63.14,9.77,9.77,0,0,0-2.44.76L103,18l-.4.22-1.28.75q-.58-.6-1.17-1.17a68.12,68.12,0,0,0-7.49-6.32,61.15,61.15,0,0,0-8.21-5A53.93,53.93,0,0,0,75.61,3c-1.6-.48-3.22-.87-4.81-1.18A44.53,44.53,0,0,0,63.69,1h-1c-1.21,0-2.42.05-3.61.16-.76.07-1.52.16-2.26.27a36.08,36.08,0,0,0-4.2.89c-1.17.31-2.22.69-3.05,1a7.63,7.63,0,0,0-.85.3A34.6,34.6,0,0,0,45,5.31c-.56.29-1.13.61-1.69,1-.28.14-.56.29-.83.46L26.21,17.05a37.47,37.47,0,0,0-7.36,6.14,39.85,39.85,0,0,0-5.72,8,44.81,44.81,0,0,0-3.84,9.48,52.33,52.33,0,0,0-1.8,10.77,11.22,11.22,0,0,0,.48,4s0,.05,0,.07a9.69,9.69,0,0,0-2,1.84A10.5,10.5,0,0,0,3.6,62.79a11.05,11.05,0,0,0,0,2.87L8.89,102.6a12.09,12.09,0,0,0,1,3.46,12,12,0,0,0,4.38,5,11.11,11.11,0,0,0,3.25,1.4,11.27,11.27,0,0,0,1.74.28l.77,0a9.51,9.51,0,0,0,1.06,0,9.89,9.89,0,0,0,1.94-.41,9.6,9.6,0,0,0,1.83-.78l2.51-1.39c.44.44.88.87,1.32,1.28a66.08,66.08,0,0,0,7.91,6.33,59,59,0,0,0,8.62,4.84,51,51,0,0,0,9.14,3.16,45.36,45.36,0,0,0,7.45,1.17c1,.07,2,.11,3,.11a38.61,38.61,0,0,0,4.18-.22,37.91,37.91,0,0,0,6.85-1.34,37.52,37.52,0,0,0,6.35-2.53l17.16-8.75.33-.18a36.28,36.28,0,0,0,3.36-2c.37-.25.73-.52,1.16-.86l.27-.2c.73-.52,1.45-1.06,2.14-1.65a39,39,0,0,0,8.51-10.45,42.94,42.94,0,0,0,2.06-4.13,48,48,0,0,0,2.85-9,54.24,54.24,0,0,0,1.16-9.86,11.34,11.34,0,0,0-.54-3.83l0-.17a9.32,9.32,0,0,0,1.17-1.09,9.86,9.86,0,0,0,1.53-2.23,10.45,10.45,0,0,0,1.1-4.53A11.08,11.08,0,0,0,124.31,61.82ZM57,55.11a.07.07,0,0,0,0,0h0Z"/><path class="cls-3" d="M116.55,63.13l-5.91-35.05a4.18,4.18,0,0,0-.35-1.12,4.6,4.6,0,0,0-.61-.94,4,4,0,0,0-.78-.7,2.86,2.86,0,0,0-.86-.42,2.73,2.73,0,0,0-.48-.1,2.33,2.33,0,0,0-.46,0,1.73,1.73,0,0,0-.44.14,1.72,1.72,0,0,0-.4.26l.06,0,.07-.05.07-.05.06,0-6.85,4a67.81,67.81,0,0,0-5.06-5.59A59.47,59.47,0,0,0,88,17.87a52.49,52.49,0,0,0-7.14-4.36,44.19,44.19,0,0,0-7.49-3A35.37,35.37,0,0,0,58,9.22a28.64,28.64,0,0,0-12,4.72c.26-.18.5-.4.77-.57L30.43,23.7a29,29,0,0,0-5.8,4.84A32.15,32.15,0,0,0,20,34.94a36.87,36.87,0,0,0-3.17,7.83,44.57,44.57,0,0,0-1.52,9.1,3.22,3.22,0,0,0,.15,1.19A3.93,3.93,0,0,0,16,54.15a3.81,3.81,0,0,0,.83.87,2.91,2.91,0,0,0,1,.52l15.24,4.08a2.31,2.31,0,0,0,.43.08,2.51,2.51,0,0,0,.39,0,2,2,0,0,0,.37-.08,1.77,1.77,0,0,0,.34-.16l16.53-9.8a2.07,2.07,0,0,1-.34.15,1.06,1.06,0,0,1-.23.05,1.82,1.82,0,0,0,.73-.31,2,2,0,0,0,.55-.66,2.71,2.71,0,0,0,.26-.94,21.91,21.91,0,0,1,1.53-6.4,21.31,21.31,0,0,1,3.38.64,23.23,23.23,0,0,1,3.66,1.38,26.29,26.29,0,0,1,3.51,2,28.55,28.55,0,0,1,3.28,2.6,31.6,31.6,0,0,1,3,3.11l-5.25,4.5A2.14,2.14,0,0,0,64.59,57a3.37,3.37,0,0,0,.08,1.57,4.48,4.48,0,0,0,.76,1.51,3.73,3.73,0,0,0,1.33,1.07L96.64,75l.11,0,.1,0,.11,0,.1,0a3.06,3.06,0,0,0,.4.07h.38l.35-.07a1.83,1.83,0,0,0,.32-.14l17-9.22a1.3,1.3,0,0,1-.32.14h0a1.68,1.68,0,0,0,.82-.51,2.14,2.14,0,0,0,.49-1A3.35,3.35,0,0,0,116.55,63.13Z"/><path class="cls-4" d="M113.22,74.37a4,4,0,0,0-.53-1.07,3.57,3.57,0,0,0-.79-.85,3,3,0,0,0-1-.5L96.45,68a2.05,2.05,0,0,0-.88-.05,1.55,1.55,0,0,0-.66.31,1.92,1.92,0,0,1,.17-.13l-16.93,9.3a1.49,1.49,0,0,0-.38.28,1.68,1.68,0,0,0-.3.4,2,2,0,0,0-.21.49,2.61,2.61,0,0,0-.1.57,23.36,23.36,0,0,1-.91,4.91,19.72,19.72,0,0,1-1,2.63A20.82,20.82,0,0,1,73,86.27a22.79,22.79,0,0,1-3.78-1.35,26.35,26.35,0,0,1-3.64-2,29.59,29.59,0,0,1-3.44-2.66A35.69,35.69,0,0,1,59,77l5.5-4.8a2.29,2.29,0,0,0,.73-1.31,3.63,3.63,0,0,0-.08-1.63,4.58,4.58,0,0,0-.78-1.56,3.76,3.76,0,0,0-1.39-1.11L31.08,52,31,51.93l-.12,0-.12,0-.12,0a2.34,2.34,0,0,0-1.2,0,2.2,2.2,0,0,0-.64.3l.09-.07-16.37,9.9a2.13,2.13,0,0,0-.51.44,2,2,0,0,0-.36.6,2.77,2.77,0,0,0-.19.74,3.55,3.55,0,0,0,0,.86h0l5.26,37a4.14,4.14,0,0,0,.35,1.18,4.28,4.28,0,0,0,.65,1,3.87,3.87,0,0,0,.84.73,3.24,3.24,0,0,0,.94.41,3,3,0,0,0,.42.06,2.8,2.8,0,0,0,.41,0,1.85,1.85,0,0,0,.78-.25L29,100.22a60.86,60.86,0,0,0,5.08,5.41,58.37,58.37,0,0,0,7,5.57,50.43,50.43,0,0,0,7.44,4.18,43.72,43.72,0,0,0,7.75,2.69,39.31,39.31,0,0,0,6.16,1,33.21,33.21,0,0,0,5.83-.09,29.74,29.74,0,0,0,10.44-3l17.17-8.76-.1,0a28.4,28.4,0,0,0,5.79-3.87A32.17,32.17,0,0,0,110,91.57a43.49,43.49,0,0,0,3.37-16A3.61,3.61,0,0,0,113.22,74.37Z"/><path class="cls-5" d="M73.36,10.51a44.19,44.19,0,0,1,7.49,3A52.49,52.49,0,0,1,88,17.87a59.47,59.47,0,0,1,6.62,5.58,65.84,65.84,0,0,1,6,6.67l5.69-4.9a1.72,1.72,0,0,1,.4-.26,1.73,1.73,0,0,1,.44-.14,2.33,2.33,0,0,1,.46,0,2.73,2.73,0,0,1,.48.1,2.86,2.86,0,0,1,.86.42,4,4,0,0,1,.78.7,4.6,4.6,0,0,1,.61.94,4.18,4.18,0,0,1,.35,1.12l5.91,35.05a3.35,3.35,0,0,1,0,1.31,2.23,2.23,0,0,1-.48,1,1.79,1.79,0,0,1-.85.52,2,2,0,0,1-1.08,0l-.11,0-.11,0-.1,0-.11-.05L83.53,51.59a3.71,3.71,0,0,1-1.35-1.1A4.44,4.44,0,0,1,81.4,49a3.6,3.6,0,0,1-.09-1.59A2.14,2.14,0,0,1,82,46.12l5.26-4.53a35.22,35.22,0,0,0-3-3.18,31.7,31.7,0,0,0-3.33-2.65,25.84,25.84,0,0,0-3.54-2.06,23,23,0,0,0-3.7-1.43,18.43,18.43,0,0,0-7.88-.6,15.07,15.07,0,0,0-6.61,2.71A15.93,15.93,0,0,0,54.43,40a21.06,21.06,0,0,0-2.26,8,2.71,2.71,0,0,1-.26.94,2,2,0,0,1-.55.66,1.82,1.82,0,0,1-.77.33,2.13,2.13,0,0,1-.93-.06L34.27,45.58a3.35,3.35,0,0,1-1.05-.53,4.18,4.18,0,0,1-.84-.89,4.23,4.23,0,0,1-.54-1.11,3.6,3.6,0,0,1-.16-1.21,41.3,41.3,0,0,1,4.11-16.12A31,31,0,0,1,45,14.55,28.75,28.75,0,0,1,58,9.22,35.37,35.37,0,0,1,73.36,10.51Z"/><path class="cls-6" d="M110.93,72a3,3,0,0,1,1,.5,3.57,3.57,0,0,1,.79.85,4,4,0,0,1,.53,1.07,3.61,3.61,0,0,1,.17,1.17,43.49,43.49,0,0,1-3.37,16,32.17,32.17,0,0,1-8.48,11.74,28.56,28.56,0,0,1-12.6,6.3,34.25,34.25,0,0,1-15.67-.39,43.82,43.82,0,0,1-7.81-2.76,52.09,52.09,0,0,1-7.53-4.29,58.45,58.45,0,0,1-7-5.69,64.94,64.94,0,0,1-6.37-6.93l-6.39,5.57a1.81,1.81,0,0,1-.46.3,1.68,1.68,0,0,1-.49.17,1.76,1.76,0,0,1-.51,0,2.33,2.33,0,0,1-.53-.07,3.38,3.38,0,0,1-1-.42,4.18,4.18,0,0,1-1.5-1.74,4.37,4.37,0,0,1-.37-1.21l-5.5-37.51a3.19,3.19,0,0,1,.08-1.36,2.25,2.25,0,0,1,.57-1,1.94,1.94,0,0,1,.94-.54,2.34,2.34,0,0,1,1.2,0l.12,0,.12,0,.12,0,.12.06L62.93,66.57a3.76,3.76,0,0,1,1.39,1.11,4.58,4.58,0,0,1,.78,1.56,3.63,3.63,0,0,1,.08,1.63,2.29,2.29,0,0,1-.73,1.31L59,77a35.69,35.69,0,0,0,3.15,3.23,29.59,29.59,0,0,0,3.44,2.66,26.35,26.35,0,0,0,3.64,2A22.79,22.79,0,0,0,73,86.27a18.19,18.19,0,0,0,8,.36,15,15,0,0,0,6.53-3A16.52,16.52,0,0,0,92,77.9a21.86,21.86,0,0,0,2.06-8,2.5,2.5,0,0,1,.23-.94,1.89,1.89,0,0,1,.51-.66,1.75,1.75,0,0,1,.73-.34,2.05,2.05,0,0,1,.88.05Z"/></g></g></svg>