<svg xmlns="http://www.w3.org/2000/svg" viewBox="0 0 128 128"><defs><style>.cls-1{fill:none;}.cls-2{fill:#d10b6e;}.cls-3{fill:#96dbff;}.cls-4{fill:#ff8ca9;}.cls-5{fill:#fff;}</style></defs><title>Rebirth </title><g id="Layer_2" data-name="Layer 2"><g id="_1-13" data-name="1-13"><rect class="cls-1" width="128" height="128"/><path class="cls-2" d="M117.38,63.12l-6-35.61a4.1,4.1,0,0,0-.36-1.14,4.22,4.22,0,0,0-1.4-1.67,3.41,3.41,0,0,0-.88-.43,4.21,4.21,0,0,0-.49-.09,2.47,2.47,0,0,0-.47,0,1.73,1.73,0,0,0-.44.14,1.82,1.82,0,0,0-.41.27l.06-.06.07-.05.07,0,.07-.05-7,4.08a65.24,65.24,0,0,0-5.15-5.68,61.34,61.34,0,0,0-6.72-5.67,53.12,53.12,0,0,0-7.25-4.43A45.72,45.72,0,0,0,73.5,9.66,35.85,35.85,0,0,0,57.85,8.35a29.22,29.22,0,0,0-12.19,4.79c.27-.18.51-.4.78-.57L29.9,23.06A29.67,29.67,0,0,0,24,28a32.57,32.57,0,0,0-4.66,6.5,37.78,37.78,0,0,0-3.22,8,45.35,45.35,0,0,0-1.54,9.25,3.28,3.28,0,0,0,.15,1.2A3.81,3.81,0,0,0,15.27,54a3.75,3.75,0,0,0,.84.89,3.08,3.08,0,0,0,1.06.52l15.48,4.15a2.31,2.31,0,0,0,.43.08,1.86,1.86,0,0,0,.41,0,1.53,1.53,0,0,0,.37-.08,2.21,2.21,0,0,0,.35-.16L51,49.42a2.68,2.68,0,0,1-.34.16l-.24.05a1.94,1.94,0,0,0,.75-.32,2,2,0,0,0,.55-.67,2.57,2.57,0,0,0,.27-1,22.2,22.2,0,0,1,1.55-6.5,19.78,19.78,0,0,1,3.44.65,23,23,0,0,1,3.72,1.4,26,26,0,0,1,3.56,2,29.53,29.53,0,0,1,3.34,2.64,31.4,31.4,0,0,1,3,3.16L65.3,55.66a2.15,2.15,0,0,0-.7,1.26,3.46,3.46,0,0,0,.08,1.59,4.46,4.46,0,0,0,.77,1.54,3.82,3.82,0,0,0,1.36,1.09l30.35,14,.11,0,.1,0,.11,0,.11,0a2,2,0,0,0,.4.07,1.21,1.21,0,0,0,.38,0,1.35,1.35,0,0,0,.36-.07,2.26,2.26,0,0,0,.33-.13l17.32-9.37a1.92,1.92,0,0,1-.33.14h0a1.76,1.76,0,0,0,.84-.52,2.34,2.34,0,0,0,.5-1A3.41,3.41,0,0,0,117.38,63.12Z"/><path class="cls-3" d="M114,74.54a4.24,4.24,0,0,0-.53-1.09,3.91,3.91,0,0,0-.81-.86,2.83,2.83,0,0,0-1-.51l-14.7-4a2,2,0,0,0-.9,0,1.53,1.53,0,0,0-.67.31l.17-.14-17.2,9.45a1.82,1.82,0,0,0-.38.29,2,2,0,0,0-.31.4,3.26,3.26,0,0,0-.21.5,2.69,2.69,0,0,0-.1.59,23.51,23.51,0,0,1-.93,5,20.3,20.3,0,0,1-1,2.67,19.18,19.18,0,0,1-2.28-.46,22.31,22.31,0,0,1-3.84-1.37,27.3,27.3,0,0,1-3.71-2.08,30.32,30.32,0,0,1-3.49-2.71,34.27,34.27,0,0,1-3.2-3.28l5.59-4.87A2.27,2.27,0,0,0,65.2,71a3.58,3.58,0,0,0-.08-1.65,4.42,4.42,0,0,0-.8-1.59,3.75,3.75,0,0,0-1.4-1.13L30.56,51.79l-.13,0-.12-.05-.12,0-.12,0a2.54,2.54,0,0,0-1.22,0,2.29,2.29,0,0,0-.65.31.71.71,0,0,0,.09-.07L11.66,61.88a1.78,1.78,0,0,0-.51.44,2.21,2.21,0,0,0-.37.61,2.58,2.58,0,0,0-.19.75,3.72,3.72,0,0,0,0,.88h0l5.34,37.53a4,4,0,0,0,.36,1.21A4.17,4.17,0,0,0,17.81,105a3.24,3.24,0,0,0,1,.41,2,2,0,0,0,.42.07h.42a3,3,0,0,0,.41-.09,1.8,1.8,0,0,0,.38-.16l8.06-4.46a65.9,65.9,0,0,0,5.17,5.49,57.58,57.58,0,0,0,7.07,5.65,50.24,50.24,0,0,0,7.56,4.26,44,44,0,0,0,7.87,2.72,38.16,38.16,0,0,0,6.26,1,33.27,33.27,0,0,0,5.92-.09,31.1,31.1,0,0,0,5.53-1.08,29.44,29.44,0,0,0,5.07-2l17.44-8.9-.1.05a29.5,29.5,0,0,0,5.89-3.93A32.9,32.9,0,0,0,110.75,92a44,44,0,0,0,3.42-16.29A3.67,3.67,0,0,0,114,74.54Z"/><path class="cls-4" d="M73.5,9.66a45.72,45.72,0,0,1,7.62,3.05,53.12,53.12,0,0,1,7.25,4.43,61.34,61.34,0,0,1,6.72,5.67,65.64,65.64,0,0,1,6.06,6.77l5.78-5a1.82,1.82,0,0,1,.41-.27,1.73,1.73,0,0,1,.44-.14,2.47,2.47,0,0,1,.47,0,4.21,4.21,0,0,1,.49.09,3.41,3.41,0,0,1,.88.43,4.22,4.22,0,0,1,1.4,1.67,4.1,4.1,0,0,1,.36,1.14l6,35.61a3.41,3.41,0,0,1,0,1.32,2.34,2.34,0,0,1-.5,1A1.73,1.73,0,0,1,116,66a2.1,2.1,0,0,1-1.11,0l-.11,0-.1,0-.11,0-.11,0L83.84,51.4a3.74,3.74,0,0,1-1.37-1.12,4.43,4.43,0,0,1-.79-1.56,3.71,3.71,0,0,1-.1-1.61,2.24,2.24,0,0,1,.71-1.28l5.34-4.6A33.63,33.63,0,0,0,84.55,38a31.73,31.73,0,0,0-3.38-2.7,27.87,27.87,0,0,0-3.6-2.1,23.27,23.27,0,0,0-3.76-1.44,18.68,18.68,0,0,0-8-.61,15.16,15.16,0,0,0-6.72,2.75,16.36,16.36,0,0,0-4.82,5.66A21.5,21.5,0,0,0,52,47.69a2.57,2.57,0,0,1-.27,1,2,2,0,0,1-.55.67,1.8,1.8,0,0,1-.79.33,2,2,0,0,1-.94-.06L33.8,45.29a3.3,3.3,0,0,1-1.07-.55,3.85,3.85,0,0,1-.85-.9,4,4,0,0,1-.55-1.13,3.63,3.63,0,0,1-.16-1.22,42.18,42.18,0,0,1,4.17-16.38A31.43,31.43,0,0,1,44.7,13.77,29.14,29.14,0,0,1,57.85,8.35,35.85,35.85,0,0,1,73.5,9.66Z"/><path class="cls-5" d="M111.67,72.08a2.83,2.83,0,0,1,1,.51,3.91,3.91,0,0,1,.81.86,4.24,4.24,0,0,1,.53,1.09,3.67,3.67,0,0,1,.17,1.18A44,44,0,0,1,110.75,92a32.9,32.9,0,0,1-8.61,11.93,29.17,29.17,0,0,1-12.81,6.4,34.88,34.88,0,0,1-15.91-.4,45,45,0,0,1-7.94-2.81,51.9,51.9,0,0,1-7.65-4.36A59.22,59.22,0,0,1,50.68,97a67,67,0,0,1-6.47-7l-6.49,5.66a2.59,2.59,0,0,1-.46.3,1.85,1.85,0,0,1-.5.17,1.87,1.87,0,0,1-.53,0,2.41,2.41,0,0,1-.53-.07,3.47,3.47,0,0,1-1-.43,4.08,4.08,0,0,1-.87-.75,4.47,4.47,0,0,1-.66-1,4,4,0,0,1-.37-1.22L27.24,54.53a3.29,3.29,0,0,1,.07-1.38,2.35,2.35,0,0,1,.59-1,2.07,2.07,0,0,1,1-.55,2.54,2.54,0,0,1,1.22,0l.12,0,.12,0,.12.05.13,0L62.92,66.61a3.75,3.75,0,0,1,1.4,1.13,4.42,4.42,0,0,1,.8,1.59A3.58,3.58,0,0,1,65.2,71a2.27,2.27,0,0,1-.74,1.33l-5.59,4.87a34.27,34.27,0,0,0,3.2,3.28,30.32,30.32,0,0,0,3.49,2.71,27.3,27.3,0,0,0,3.71,2.08,22.31,22.31,0,0,0,3.84,1.37A18.24,18.24,0,0,0,81.2,87a15.26,15.26,0,0,0,6.65-3,16.8,16.8,0,0,0,4.63-5.84A22.12,22.12,0,0,0,94.58,70a2.61,2.61,0,0,1,.23-1,2,2,0,0,1,.52-.67,1.62,1.62,0,0,1,.74-.34,2,2,0,0,1,.9,0Z"/></g></g></svg>