<svg xmlns="http://www.w3.org/2000/svg" viewBox="0 0 64 64"><defs><style>.cls-1,.cls-2{fill:#1a1a1a;}.cls-1{opacity:0;}</style></defs><title>Premium Flat Black</title><g id="Layer_2" data-name="Layer 2"><g id="Layer_3" data-name="Layer 3"><rect class="cls-1" width="64" height="64"/><path class="cls-2" d="M48.88,9.5H15.13A5.63,5.63,0,0,0,9.5,15.13V48.88a5.63,5.63,0,0,0,5.63,5.62V15.13H48.88V48.88H32V54.5H48.88a5.62,5.62,0,0,0,5.62-5.62V15.13A5.63,5.63,0,0,0,48.88,9.5Z"/><polygon class="cls-2" points="37.63 37.63 32 37.63 32 43.25 37.63 43.25 43.25 43.25 43.25 37.63 43.25 26.38 43.25 20.75 37.63 20.75 26.38 20.75 20.75 20.75 20.75 26.38 20.75 54.5 26.38 54.5 26.38 26.38 37.63 26.38 37.63 37.63"/></g></g></svg>