<svg xmlns="http://www.w3.org/2000/svg" viewBox="0 0 64 64"><defs><style>.cls-1{fill:#1a1a1a;opacity:0;}.cls-2{fill:#fc9504;}.cls-3{fill:#f15a24;}.cls-4{fill:#fec92b;}</style></defs><title>Premium</title><g id="Layer_2" data-name="Layer 2"><g id="Layer_3" data-name="Layer 3"><rect class="cls-1" width="64" height="64"/><path class="cls-2" d="M48.88,9.5H15.13A5.63,5.63,0,0,0,9.5,15.12V48.87a5.63,5.63,0,0,0,5.63,5.63V15.12H48.88V48.87H32V54.5H48.88a5.63,5.63,0,0,0,5.62-5.63V15.12A5.62,5.62,0,0,0,48.88,9.5Z"/><polygon class="cls-3" points="37.63 37.63 32 37.63 32 43.25 37.63 43.25 43.25 43.25 43.25 37.63 43.25 26.38 43.25 20.75 37.63 20.75 26.38 20.75 20.75 20.75 20.75 26.38 20.75 54.5 26.38 54.5 26.38 26.38 37.63 26.38 37.63 37.63"/><path class="cls-4" d="M48.88,9.5H15.13A5.63,5.63,0,0,0,9.5,15.12V35a38,38,0,0,0,5.63,3V15.12H48.88V38a38.41,38.41,0,0,0,5.62-3V15.12A5.62,5.62,0,0,0,48.88,9.5Z"/><path class="cls-2" d="M43.25,26.37V20.75H20.75V39.88A42.78,42.78,0,0,0,26.38,41V26.37H37.63V37.62H32v3.7a44.28,44.28,0,0,0,11.25-1.44V26.37Z"/></g></g></svg>