<svg xmlns="http://www.w3.org/2000/svg" viewBox="0 0 64 64"><defs><style>.cls-1,.cls-2{fill:#1a1a1a;}.cls-1{opacity:0;}.cls-3{fill:#bb5938;}.cls-4{fill:#39b54a;}.cls-5{fill:#65d666;}.cls-6{fill:#d1864b;}</style></defs><title>Tree Outline</title><g id="Layer_2" data-name="Layer 2"><g id="Layer_2-2" data-name="Layer 2"><rect class="cls-1" width="64" height="64"/><path class="cls-2" d="M56.8,23.85a8.85,8.85,0,0,0-.61-2.12,8.6,8.6,0,0,0-3.72-4.1l-.11-.06A8.39,8.39,0,0,0,51,16.05a9.16,9.16,0,0,0-.86-.68,8.54,8.54,0,0,0-1.68-.91,9.28,9.28,0,0,0-.81-1.89,4,4,0,0,0,0-1,8.65,8.65,0,0,0-4.44-6.28,8.58,8.58,0,0,0-7-3.74A8.62,8.62,0,0,0,32,.5h-.16a8.44,8.44,0,0,0-4,1.06h0a8.57,8.57,0,0,0-7.09,3.74,8.65,8.65,0,0,0-4.44,6.28,4,4,0,0,0,0,1,9.28,9.28,0,0,0-.81,1.89,8.54,8.54,0,0,0-1.68.91,9.52,9.52,0,0,0-.86.68,8.74,8.74,0,0,0-1.33,1.52l-.12.06A9.11,9.11,0,0,0,9.69,19a8.6,8.6,0,0,0-1.88,2.73,9.19,9.19,0,0,0-.61,2.12,4,4,0,0,0,0,1,8.64,8.64,0,0,0-.75,7,3.12,3.12,0,0,0,.15.39,2.72,2.72,0,0,0,0,.28A8.58,8.58,0,0,0,9.3,39a8.4,8.4,0,0,0,.85,2.45A8.62,8.62,0,0,0,17.43,46h.21a7.6,7.6,0,0,0,1.54.61l-.1.9-3,6.15a4.69,4.69,0,0,0-.43,2.81,4.77,4.77,0,0,0,3.28,3.84,4.65,4.65,0,0,0,1.43.23,4.89,4.89,0,0,0,1.42-.22l3.66-1.13,2.21,2.37a6.06,6.06,0,0,0,.92.81,4,4,0,0,0,.38.24,6.08,6.08,0,0,0,.62.33,4.69,4.69,0,0,0,.45.18q.3.1.6.18l.57.11.52.05h.6l.52-.05a5.59,5.59,0,0,0,.59-.11c.16,0,.31-.08.48-.14a4.29,4.29,0,0,0,.59-.23l.39-.2a5.83,5.83,0,0,0,1.51-1.16l2.21-2.38,3.66,1.13a4.89,4.89,0,0,0,1.42.22,4.79,4.79,0,0,0,4.28-6.88l-3-6.15-.1-.9A7.6,7.6,0,0,0,46.36,46h.21a8.55,8.55,0,0,0,8.13-7,8.62,8.62,0,0,0,2.74-6.52,2.62,2.62,0,0,0,0-.28,3.12,3.12,0,0,0,.15-.39,8.58,8.58,0,0,0-.76-7A3.73,3.73,0,0,0,56.8,23.85Z"/><path class="cls-3" d="M44.34,55.45,41,48.66,38.8,26.88H25.2L23,48.66h0l-3.34,6.79a.78.78,0,0,0,.93,1.08l6.06-1.88,3.92,4.23a2,2,0,0,0,2.88,0l3.92-4.23,6.06,1.88A.77.77,0,0,0,44.34,55.45Z"/><circle class="cls-4" cx="22.85" cy="30.69" r="10.54"/><ellipse class="cls-4" cx="26.84" cy="20.14" rx="3.99" ry="2.31" transform="translate(-1.08 1.52) rotate(-3.18)"/><ellipse class="cls-4" cx="30.82" cy="23.01" rx="2.31" ry="3.99" transform="translate(-1.82 43.36) rotate(-68.68)"/><ellipse class="cls-4" cx="32.8" cy="27.62" rx="2.31" ry="3.99" transform="translate(-10.06 29.13) rotate(-42.12)"/><ellipse class="cls-4" cx="32.84" cy="32.64" rx="2.31" ry="3.99" transform="translate(-0.83 0.85) rotate(-1.47)"/><ellipse class="cls-4" cx="29.98" cy="38.5" rx="3.99" ry="2.31" transform="translate(-18.07 47.04) rotate(-62.17)"/><ellipse class="cls-4" cx="25.8" cy="39.96" rx="3.99" ry="2.31" transform="translate(-20.87 30.76) rotate(-46)"/><ellipse class="cls-4" cx="18.86" cy="20.14" rx="2.31" ry="3.99" transform="translate(-2.3 37.86) rotate(-86.82)"/><ellipse class="cls-4" cx="14.88" cy="23.01" rx="3.99" ry="2.31" transform="translate(-7.35 6.98) rotate(-21.32)"/><ellipse class="cls-4" cx="12.9" cy="27.62" rx="3.99" ry="2.31" transform="translate(-16.24 18.67) rotate(-47.88)"/><ellipse class="cls-4" cx="12.86" cy="32.64" rx="3.99" ry="2.31" transform="translate(-20.1 44.66) rotate(-88.53)"/><ellipse class="cls-4" cx="15.72" cy="38.5" rx="2.31" ry="3.99" transform="translate(-16.16 11.79) rotate(-27.83)"/><ellipse class="cls-4" cx="19.9" cy="39.96" rx="2.31" ry="3.99" transform="translate(-22.18 25.04) rotate(-44)"/><ellipse class="cls-4" cx="22.85" cy="19.07" rx="3.99" ry="2.31" transform="translate(-0.36 0.44) rotate(-1.09)"/><circle class="cls-4" cx="41.15" cy="30.69" r="10.54"/><ellipse class="cls-4" cx="45.14" cy="20.14" rx="3.99" ry="2.31" transform="translate(-1.05 2.53) rotate(-3.18)"/><ellipse class="cls-4" cx="49.12" cy="23.01" rx="2.31" ry="3.99" transform="translate(9.83 60.4) rotate(-68.68)"/><ellipse class="cls-4" cx="51.1" cy="27.62" rx="2.31" ry="3.99" transform="translate(-5.33 41.4) rotate(-42.12)"/><ellipse class="cls-4" cx="51.14" cy="32.64" rx="2.31" ry="3.99" transform="translate(-0.82 1.32) rotate(-1.47)"/><ellipse class="cls-4" cx="48.28" cy="38.5" rx="3.99" ry="2.31" transform="translate(-8.31 63.22) rotate(-62.17)"/><ellipse class="cls-4" cx="44.1" cy="39.96" rx="3.99" ry="2.31" transform="translate(-15.28 43.92) rotate(-46)"/><ellipse class="cls-4" cx="37.16" cy="20.14" rx="2.31" ry="3.99" transform="translate(14.99 56.13) rotate(-86.82)"/><ellipse class="cls-4" cx="33.17" cy="23.01" rx="3.99" ry="2.31" transform="translate(-6.1 13.64) rotate(-21.32)"/><ellipse class="cls-4" cx="31.2" cy="27.62" rx="3.99" ry="2.31" transform="translate(-10.21 32.24) rotate(-47.88)"/><ellipse class="cls-4" cx="31.16" cy="32.64" rx="3.99" ry="2.31" transform="translate(-2.27 62.96) rotate(-88.53)"/><ellipse class="cls-4" cx="34.02" cy="38.5" rx="2.31" ry="3.99" transform="translate(-14.04 20.34) rotate(-27.83)"/><ellipse class="cls-4" cx="38.2" cy="39.96" rx="2.31" ry="3.99" transform="translate(-17.04 37.75) rotate(-44)"/><ellipse class="cls-4" cx="41.15" cy="19.07" rx="3.99" ry="2.31" transform="translate(-0.35 0.79) rotate(-1.09)"/><path class="cls-5" d="M52.81,26.07a4.71,4.71,0,0,0-1.18-.92,4.52,4.52,0,0,0,1.21-.69A4.61,4.61,0,0,0,50,20.86a4.22,4.22,0,0,0-1.24-.29,4.37,4.37,0,0,0,.4-.65A4.61,4.61,0,0,0,45,17.84a4.52,4.52,0,0,0-.75.11,4.58,4.58,0,0,0-6.16,0,4.28,4.28,0,0,0-.81-.13,4.63,4.63,0,0,0-4.12,2.08,5.47,5.47,0,0,0,.41.65,4.15,4.15,0,0,0-1.24.29L32,21l-.34-.16a4.22,4.22,0,0,0-1.24-.29,4.37,4.37,0,0,0,.4-.65,4.61,4.61,0,0,0-4.11-2.08A4.68,4.68,0,0,0,26,18a4.57,4.57,0,0,0-6.15,0,4.52,4.52,0,0,0-.82-.13,4.61,4.61,0,0,0-4.11,2.08,4.37,4.37,0,0,0,.4.65,4.22,4.22,0,0,0-1.24.29,4.61,4.61,0,0,0-2.88,3.6,4.52,4.52,0,0,0,1.21.69,4.71,4.71,0,0,0-1.18.92l-.2.27a4.36,4.36,0,0,0,.71,1.55,4.32,4.32,0,0,0,1.23-.34,4.4,4.4,0,0,0-.16,1.37,4.27,4.27,0,0,0,2.31,3.57,5.29,5.29,0,0,0,.59-.47,4.21,4.21,0,0,0,5,2.76,4,4,0,0,0,.13-.58,4.18,4.18,0,0,0,2.4,1.9,4.24,4.24,0,0,0,4.14-.94,4.1,4.1,0,0,0-.26-.77,2.43,2.43,0,0,0,.38,0,4.24,4.24,0,0,0,3.72-2.06c0-.06-.08-.12-.11-.18a4.43,4.43,0,0,0,.77.6,4.41,4.41,0,0,0,1.25-1h0v0a4.51,4.51,0,0,0-1,1.24,4.59,4.59,0,0,0,4,2.24c.14,0,.27,0,.41,0a4,4,0,0,0-.28.82,4.59,4.59,0,0,0,7.09-1,4.75,4.75,0,0,0,.14.63,4.62,4.62,0,0,0,4.42-1.3,4.56,4.56,0,0,0,1-1.69,3.85,3.85,0,0,0,.63.5,4.61,4.61,0,0,0,2.51-3.87,4.81,4.81,0,0,0-.18-1.48,5.12,5.12,0,0,0,1.34.37,4.36,4.36,0,0,0,.42-.72A4.42,4.42,0,0,0,52.81,26.07ZM30.25,31.21h0v0a.83.83,0,0,0,.08.12Z"/><circle class="cls-5" cx="32" cy="18.42" r="10.54"/><ellipse class="cls-5" cx="35.99" cy="7.88" rx="3.99" ry="2.31" transform="translate(-0.38 2.01) rotate(-3.18)"/><ellipse class="cls-5" cx="39.97" cy="10.75" rx="2.31" ry="3.99" transform="translate(15.43 44.08) rotate(-68.68)"/><ellipse class="cls-5" cx="41.95" cy="15.36" rx="2.31" ry="3.99" transform="translate(0.53 32.1) rotate(-42.12)"/><ellipse class="cls-5" cx="41.99" cy="20.38" rx="2.31" ry="3.99" transform="matrix(1, -0.03, 0.03, 1, -0.51, 1.08)"/><ellipse class="cls-5" cx="39.13" cy="26.24" rx="3.99" ry="2.31" transform="translate(-2.35 48.59) rotate(-62.17)"/><ellipse class="cls-5" cx="34.95" cy="27.7" rx="3.99" ry="2.31" transform="translate(-9.25 33.6) rotate(-46)"/><ellipse class="cls-5" cx="28.01" cy="7.88" rx="2.31" ry="3.99" transform="translate(18.59 35.42) rotate(-86.82)"/><ellipse class="cls-5" cx="24.03" cy="10.75" rx="3.99" ry="2.31" transform="translate(-2.26 9.47) rotate(-21.32)"/><ellipse class="cls-5" cx="22.05" cy="15.36" rx="3.99" ry="2.31" transform="translate(-4.13 21.42) rotate(-47.88)"/><ellipse class="cls-5" cx="22.01" cy="20.38" rx="3.99" ry="2.31" transform="translate(1.07 41.86) rotate(-88.53)"/><ellipse class="cls-5" cx="24.87" cy="26.24" rx="2.31" ry="3.99" transform="translate(-9.37 14.65) rotate(-27.83)"/><ellipse class="cls-5" cx="29.05" cy="27.7" rx="2.31" ry="3.99" transform="translate(-11.09 27.95) rotate(-44)"/><ellipse class="cls-5" cx="32" cy="6.81" rx="3.99" ry="2.31" transform="translate(-0.12 0.61) rotate(-1.09)"/><path class="cls-6" d="M30.77,44.43a26.34,26.34,0,0,1-7.59,2.41L23,48.66l-3.34,6.79a.78.78,0,0,0,.93,1.08l6.06-1.88,3.92,4.23a2,2,0,0,0,2.59.25A35,35,0,0,0,36,52.91c.21-1.35-.57-5.22-.9-6.74a1.28,1.28,0,0,0-.72-.88l-2.13-.95A1.59,1.59,0,0,0,30.77,44.43Z"/></g></g></svg>