<svg xmlns="http://www.w3.org/2000/svg" viewBox="0 0 64 64"><defs><style>.cls-1,.cls-2{fill:#1a1a1a;}.cls-1{opacity:0;}</style></defs><title>Tree Black</title><g id="Layer_2" data-name="Layer 2"><g id="Layer_2-2" data-name="Layer 2"><rect class="cls-1" width="64" height="64"/><path class="cls-2" d="M53.66,27.46a4.34,4.34,0,0,0-2-2.31c.42-.17,1.07-.37,1.18-.88s-.46-1.32-.71-1.7a4.64,4.64,0,0,0-3.38-2c1.3-1.77-2.82-2.82-4-2.69a4.68,4.68,0,0,0-2.26-5c.45-.17,1.08-.37,1.17-.9a3.28,3.28,0,0,0-.71-1.7,4.69,4.69,0,0,0-3.37-2C40.56,7,38,5.8,36.89,5.63c-.84-.12-1.51.09-2.27-.34A5.09,5.09,0,0,0,32,4.51a5,5,0,0,0-2.54.82c-.68.4-1.25.21-2,.27-1.11.09-4,1.27-3,2.7a4.66,4.66,0,0,0-3.29,1.87,3.47,3.47,0,0,0-.78,1.76c.07.61.64.75,1.16,1a4.68,4.68,0,0,0-2.26,5c-1.18-.14-5.28.93-4,2.69a4.64,4.64,0,0,0-3.38,2,3.34,3.34,0,0,0-.71,1.7c.08.51.78.72,1.18.88a4.5,4.5,0,0,0-2.26,3c-.21,1-.37,2.46.92,2.5A4.61,4.61,0,0,0,11,34.58c.36.8,1.34,2.44,2.35,1.7a4.64,4.64,0,0,0,1.14,4.35,4.9,4.9,0,0,0,2,1.23c.81.25,1.19.18,1.5-.61A4.8,4.8,0,0,0,21.28,43c.41,0,1.1.11,1.39-.26s.14-1.48.2-1.49a5.27,5.27,0,0,0,0,1.05,1,1,0,0,0,.1.45c.14.17.37.09.47.19.41.4-.05,2-.1,2.51A18.68,18.68,0,0,1,22.85,49a20.61,20.61,0,0,1-1.69,3.39c-.49.94-2.9,4.52-.27,4a29.47,29.47,0,0,0,3.28-1c.61-.19,1.89-.92,2.52-.71.37.12.65.68.89,1,.42.47.86.92,1.29,1.39.7.77,1.45,2,2.49,2.35S33.28,59,34,58.32c.94-1,1.86-2,2.74-3,.4-.45.56-.64,1.19-.56a9.64,9.64,0,0,1,1.9.56c1,.36,2.1.86,3.16,1.12,2.39.59,1-1.79.52-2.83-.69-1.39-1.4-2.76-2.08-4.15a10.4,10.4,0,0,1-.7-4c0-.46-.58-2.23-.22-2.61.07-.08.37,0,.46-.11.36-.31.24-1.15.21-1.56a11.5,11.5,0,0,0,.16,1.43c.29.42,1,.36,1.43.32A4.78,4.78,0,0,0,46,41.25c.31.79.69.86,1.5.61a4.9,4.9,0,0,0,2-1.23,4.64,4.64,0,0,0,1.14-4.35c1,.76,2-.93,2.36-1.72A4.64,4.64,0,0,0,53,30.67c.66,0,.86,0,1-.7A4.9,4.9,0,0,0,53.66,27.46Z"/></g></g></svg>