<svg xmlns="http://www.w3.org/2000/svg" viewBox="0 0 43.99 55"><defs><style>.cls-1{fill:#bb5938;}.cls-2{fill:#fc9504;}.cls-3{fill:#fec92b;}.cls-4{fill:#d1864b;}</style></defs><title>Tree Yellow</title><g id="Layer_2" data-name="Layer 2"><g id="_101-200" data-name="101-200"><path class="cls-1" d="M34.34,51,31,44.16,28.8,22.37H15.19L13,44.16h0L9.65,51A.77.77,0,0,0,10.57,52l6.07-1.88,3.92,4.22a2,2,0,0,0,2.87,0l3.93-4.22L33.42,52A.77.77,0,0,0,34.34,51Z"/><path class="cls-2" d="M42.8,21.57a4.29,4.29,0,0,0-1.17-.92A4.85,4.85,0,0,0,42.84,20,4.59,4.59,0,0,0,40,16.36a4.67,4.67,0,0,0-1.24-.3,3.82,3.82,0,0,0,.4-.64A4.6,4.6,0,0,0,35,13.34a3.67,3.67,0,0,0-.74.11,4.56,4.56,0,0,0-6.16,0,4.28,4.28,0,0,0-.81-.12,4.61,4.61,0,0,0-4.12,2.08,4.65,4.65,0,0,0,.41.64,4.65,4.65,0,0,0-1.25.3c-.11,0-.22.1-.33.15a3.49,3.49,0,0,0-.34-.15,4.67,4.67,0,0,0-1.24-.3,3.82,3.82,0,0,0,.4-.64,4.59,4.59,0,0,0-4.11-2.08,3.67,3.67,0,0,0-.75.11,4.56,4.56,0,0,0-6.16,0A4.28,4.28,0,0,0,9,13.34a4.61,4.61,0,0,0-4.12,2.08,4.65,4.65,0,0,0,.41.64A4.63,4.63,0,0,0,1.15,20a4.85,4.85,0,0,0,1.21.69A4.57,4.57,0,0,0,.22,26.08a4.46,4.46,0,0,0,.81.09,4.53,4.53,0,0,0-.48,1.91,4.61,4.61,0,0,0,2.21,4.05,3.84,3.84,0,0,0,.54-.35,4.59,4.59,0,0,0,4.28,5.75A4.73,4.73,0,0,0,8,36.75c.09.1.17.21.27.31a4.6,4.6,0,0,0,4.43,1.27,4.6,4.6,0,0,0,.16-1.61h0A4.6,4.6,0,0,0,13,38.33a4.61,4.61,0,0,0,4.43-1.27c.1-.1.18-.21.27-.31a4,4,0,0,0,.38.78A4.61,4.61,0,0,0,22,35.11a4.59,4.59,0,0,0,3.88,2.42,4.73,4.73,0,0,0,.39-.78l.26.31A4.62,4.62,0,0,0,31,38.33a4.6,4.6,0,0,0,.16-1.61h0a4.6,4.6,0,0,0,.15,1.61,4.62,4.62,0,0,0,4.44-1.27,3.56,3.56,0,0,0,.26-.31,4.73,4.73,0,0,0,.39.78,4.59,4.59,0,0,0,4.28-5.75,3.94,3.94,0,0,0,.55.35,4.6,4.6,0,0,0,2.2-4.05A4.68,4.68,0,0,0,43,26.17a4.36,4.36,0,0,0,.8-.09A4.59,4.59,0,0,0,42.8,21.57Z"/><path class="cls-3" d="M43.66,23a4.6,4.6,0,0,0-.86-1.39,4.29,4.29,0,0,0-1.17-.92A4.85,4.85,0,0,0,42.84,20,4.59,4.59,0,0,0,40,16.36a4.67,4.67,0,0,0-1.24-.3,3.82,3.82,0,0,0,.4-.64A4.6,4.6,0,0,0,35,13.34a1.26,1.26,0,0,0-.27,0,4.58,4.58,0,0,0-1.07-4.07,4.75,4.75,0,0,0-1.18-.93,4.82,4.82,0,0,0,1.21-.68,4.58,4.58,0,0,0-4.12-3.9,4.27,4.27,0,0,0,.4-.64,4.62,4.62,0,0,0-4.11-2.09,5.88,5.88,0,0,0-.75.11A4.58,4.58,0,0,0,19,1.2a5.27,5.27,0,0,0-.81-.13A4.64,4.64,0,0,0,14,3.16a5.35,5.35,0,0,0,.41.64A4.58,4.58,0,0,0,10.3,7.7a4.82,4.82,0,0,0,1.21.68,4.7,4.7,0,0,0-1.17.93,4.59,4.59,0,0,0-1.08,4.07,2.51,2.51,0,0,0-.27,0,4.61,4.61,0,0,0-4.12,2.08,4.65,4.65,0,0,0,.41.64A4.63,4.63,0,0,0,1.15,20a4.85,4.85,0,0,0,1.21.69,4.61,4.61,0,0,0-1.17.92c-.08.08-.14.18-.21.26a4.21,4.21,0,0,0,.71,1.55A3.81,3.81,0,0,0,2.93,23a4.19,4.19,0,0,0-.16,1.37A4.26,4.26,0,0,0,5.08,28a4.41,4.41,0,0,0,.58-.47,4.35,4.35,0,0,0,.94,1.56,4.25,4.25,0,0,0,4.08,1.2,3.87,3.87,0,0,0,.13-.59A4.21,4.21,0,0,0,13.2,31.6a4.26,4.26,0,0,0,4.15-1,4,4,0,0,0-.26-.76c.12,0,.25,0,.38,0a4.27,4.27,0,0,0,3.72-2.06l-.12-.18a5.05,5.05,0,0,0,.78.6,4.62,4.62,0,0,0,1.25-1v0h0a4.78,4.78,0,0,0-1,1.25,4.64,4.64,0,0,0,4,2.24,2.85,2.85,0,0,0,.41,0,4.8,4.8,0,0,0-.29.83,4.59,4.59,0,0,0,7.1-1,4.53,4.53,0,0,0,.13.64,4.62,4.62,0,0,0,4.43-1.31,4.54,4.54,0,0,0,1-1.69,4.48,4.48,0,0,0,.64.51,4.61,4.61,0,0,0,2.33-5.36,4.37,4.37,0,0,0,1.34.37A4.67,4.67,0,0,0,43.66,23ZM20.24,26.7h0l.07.11Z"/><path class="cls-4" d="M20.76,39.93a26.12,26.12,0,0,1-7.59,2.4L13,44.16,9.65,51A.77.77,0,0,0,10.57,52l6.07-1.88,3.92,4.22a2,2,0,0,0,2.59.25c1.11-2.09,2.67-5.15,2.83-6.22.21-1.35-.57-5.21-.89-6.73a1.26,1.26,0,0,0-.72-.88l-2.14-1A1.6,1.6,0,0,0,20.76,39.93Z"/></g></g></svg>