<svg xmlns="http://www.w3.org/2000/svg" viewBox="0 0 64 64"><defs><style>.cls-1{fill:#fff;opacity:0;}.cls-2{isolation:isolate;}.cls-3{fill:#bb5938;}.cls-4{fill:#ebb369;}.cls-5{fill:#d1864b;}.cls-6{fill:#9c3d29;}.cls-7{fill:#802512;}</style></defs><title>Crate</title><g id="Layer_2" data-name="Layer 2"><g id="Layer_2-2" data-name="Layer 2"><rect class="cls-1" width="64" height="64"/><g class="cls-2"><polygon class="cls-3" points="26.27 57.15 6.07 47.58 4.5 11.83 25.96 20.13 26.27 57.15"/><polygon class="cls-4" points="25.96 20.13 4.5 11.83 37.09 6.85 59.5 14.61 25.96 20.13"/><polygon class="cls-5" points="59.5 14.61 57.77 50.77 26.27 57.15 25.96 20.13 59.5 14.61"/></g><polygon class="cls-3" points="31.64 25.18 54.71 21.24 53.8 46.33 31.65 50.96 31.64 25.18"/><polygon class="cls-4" points="53.8 46.33 51.38 45.1 31.65 49.02 31.65 50.96 53.8 46.33"/><polygon class="cls-6" points="51.38 45.1 52.27 21.66 54.71 21.24 53.8 46.33 51.38 45.1"/><polygon class="cls-5" points="36.75 48 52.08 26.47 52.27 21.66 46.57 22.63 31.64 44.09 31.65 49.02 36.75 48"/><polygon class="cls-6" points="31.64 44.09 46.57 22.63 44.08 23.06 31.64 40.67 31.64 44.09"/><polygon class="cls-6" points="8.49 18.99 21.37 24.45 21.68 49.56 9.64 43.86 8.49 18.99"/><polygon class="cls-4" points="9.64 43.86 11.33 43.2 21.65 47.64 21.68 49.56 9.64 43.86"/><polygon class="cls-5" points="11.33 43.2 10.47 19.83 8.49 18.99 9.64 43.86 11.33 43.2"/><polygon class="cls-3" points="19.29 46.62 10.61 23.58 10.47 19.83 14.78 21.66 21.57 40.55 21.65 47.64 19.29 46.62"/><polygon class="cls-7" points="14.78 21.66 16.65 22.45 21.51 35.85 21.57 40.55 14.78 21.66"/><polygon class="cls-5" points="14.82 12.58 36.41 9.24 48.75 13.72 26.9 16.97 14.82 12.58"/><polygon class="cls-3" points="36.41 9.24 36.41 10.91 17.69 13.62 14.82 12.58 36.41 9.24"/><polygon class="cls-3" points="36.41 10.91 45.65 14.19 48.75 13.72 36.41 9.24 36.41 10.91"/></g></g></svg>