<?xml version="1.0" encoding="UTF-8"?>
<svg id="Layer_2" data-name="Layer 2" xmlns="http://www.w3.org/2000/svg" viewBox="0 0 64 64">
  <defs>
    <style>
      .cls-1 {
        fill: #606060;
        opacity: 0;
      }

      .cls-2 {
        fill: #1a1a1a;
      }
    </style>
  </defs>
  <g id="Black">
    <g id="Radioactive_Sign_Flat_Black" data-name="Radioactive Sign Flat Black">
      <rect class="cls-1" width="64" height="64"/>
      <g>
        <path class="cls-2" d="M35.46,14.88c-1.04-1.81-2.77-2-3.46-2s-2.42,.19-3.46,2L11.07,45.12c-1.04,1.81-.35,3.4,0,4,.35,.6,1.38,2,3.46,2H49.46c2.08,0,3.12-1.4,3.46-2,.35-.6,1.04-2.19,0-4L35.46,14.88Zm-3.52,18.87c.92-.02,1.81,.32,2.48,.95,.67,.63,1.06,1.51,1.08,2.43,.02,.61-.12,1.22-.41,1.76-.15,.26-.33,.51-.54,.74v-.05c-.65,.67-1.53,1.06-2.46,1.09-1.92,.05-3.52-1.47-3.57-3.39-.02-1.91,1.5-3.47,3.41-3.52Zm-6.55,3.65l-4.52,.13s-.03,0-.05,0c-.41-.02-.73-.37-.71-.78,.15-3.68,2-7.08,5.01-9.21,0,0,.02-.01,.02-.02,.36-.22,.82-.12,1.05,.24l2.38,3.8c.19,.33,.11,.75-.19,.99-.24,.18-.45,.38-.65,.6-.94,.97-1.51,2.23-1.62,3.57-.02,.38-.33,.68-.71,.69Zm12.21,10.34c-1.62,.86-3.42,1.33-5.26,1.38-1.83,.04-3.63-.35-5.29-1.13-.01,0-.02-.01-.04-.02-.36-.21-.48-.66-.27-1.02l2.16-3.97c.19-.31,.58-.43,.91-.27,.76,.32,1.58,.47,2.41,.44,.81-.03,1.61-.21,2.35-.56,.33-.16,.72-.05,.92,.26l2.39,3.84s.02,.03,.03,.05c.19,.36,.05,.8-.31,.99Zm5.55-10.76l-4.48,.07c-.39,.02-.72-.27-.76-.66-.23-1.6-1.1-3.04-2.41-3.98-.33-.2-.45-.61-.28-.96l2.13-3.92s.02-.03,.03-.05c.21-.35,.67-.47,1.02-.26,3.11,1.98,5.13,5.28,5.48,8.95,0,.02,0,.05,0,.07,0,.41-.33,.74-.73,.74Z"/>
        <path class="cls-2" d="M58.12,42.12L40.66,11.88c-1.92-3.33-5.29-5-8.66-5s-6.74,1.67-8.66,5L5.88,42.12c-3.85,6.67,.96,15,8.66,15H49.46c7.7,0,12.51-8.33,8.66-15Zm-2.17,8.75c-1.36,2.35-3.78,3.75-6.5,3.75H14.54c-2.71,0-5.14-1.4-6.5-3.75-1.36-2.35-1.36-5.15,0-7.5L25.5,13.13c1.36-2.35,3.78-3.75,6.5-3.75s5.14,1.4,6.5,3.75l17.46,30.25c1.36,2.35,1.36,5.15,0,7.5Z"/>
      </g>
    </g>
  </g>
</svg>