<?xml version="1.0" encoding="UTF-8"?>
<svg id="Layer_2" data-name="Layer 2" xmlns="http://www.w3.org/2000/svg" viewBox="0 0 64 64">
  <defs>
    <style>
      .cls-1 {
        fill: #fec92b;
      }

      .cls-2 {
        fill: #324652;
      }

      .cls-3 {
        fill: #1a1a1a;
        opacity: 0;
      }
    </style>
  </defs>
  <g id="No_outline" data-name="No outline">
    <g id="Radioactive_Sign" data-name="Radioactive Sign">
      <rect class="cls-3" width="64" height="64"/>
      <g>
        <path class="cls-1" d="M58.12,42.12L40.66,11.88c-1.92-3.33-5.29-5-8.66-5s-6.74,1.67-8.66,5L5.88,42.12c-3.85,6.67,.96,15,8.66,15H49.46c7.7,0,12.51-8.33,8.66-15Z"/>
        <path class="cls-2" d="M55.96,43.37L38.5,13.13c-1.36-2.35-3.78-3.75-6.5-3.75s-5.14,1.4-6.5,3.75L8.04,43.37c-1.36,2.35-1.36,5.15,0,7.5,1.36,2.35,3.78,3.75,6.5,3.75H49.46c2.71,0,5.14-1.4,6.5-3.75,1.36-2.35,1.36-5.15,0-7.5Zm-3.03,5.75c-.35,.6-1.38,2-3.46,2H14.54c-2.08,0-3.12-1.4-3.46-2-.35-.6-1.04-2.19,0-4L28.54,14.88c1.04-1.81,2.77-2,3.46-2s2.42,.19,3.46,2l17.46,30.25c1.04,1.81,.35,3.4,0,4Z"/>
        <g>
          <path class="cls-2" d="M32.11,40.67c.93-.02,1.8-.41,2.44-1.09v.05c.22-.22,.4-.47,.55-.74,.29-.54,.43-1.14,.41-1.76-.02-.92-.41-1.8-1.08-2.43-.67-.63-1.56-.98-2.48-.95-1.91,.05-3.42,1.62-3.41,3.52,.05,1.92,1.65,3.44,3.57,3.39Z"/>
          <path class="cls-2" d="M35.51,32.42c1.31,.94,2.18,2.38,2.41,3.98,.04,.38,.37,.67,.76,.66l4.48-.07c.41,0,.73-.33,.73-.74,0-.02,0-.05,0-.07-.34-3.67-2.37-6.97-5.48-8.95-.35-.21-.81-.09-1.02,.26,0,.02-.02,.03-.03,.05l-2.13,3.92c-.16,.35-.04,.76,.28,.96Z"/>
          <path class="cls-2" d="M37.89,46.7l-2.39-3.84c-.19-.31-.59-.42-.92-.26-.74,.34-1.54,.53-2.35,.56-.82,.02-1.64-.13-2.41-.44-.33-.16-.72-.04-.91,.27l-2.16,3.97c-.21,.36-.08,.81,.27,1.02,.01,0,.02,.01,.04,.02,1.65,.78,3.46,1.16,5.29,1.13,1.84-.05,3.64-.52,5.26-1.38,.36-.19,.5-.63,.31-.99,0-.02-.02-.03-.03-.05Z"/>
          <path class="cls-2" d="M20.82,37.53s.03,0,.05,0l4.52-.13c.38-.01,.69-.31,.71-.69,.11-1.34,.68-2.6,1.62-3.57,.2-.22,.42-.42,.65-.6,.3-.23,.38-.66,.19-.99l-2.38-3.8c-.22-.36-.69-.46-1.05-.24,0,0-.02,.01-.02,.02-3.01,2.13-4.86,5.53-5.01,9.21-.02,.41,.3,.76,.71,.78Z"/>
        </g>
      </g>
    </g>
  </g>
</svg>