<?xml version="1.0" encoding="UTF-8"?>
<svg id="Layer_2" data-name="Layer 2" xmlns="http://www.w3.org/2000/svg" viewBox="0 0 64 64">
  <defs>
    <style>
      .cls-1 {
        fill: #de7650;
        opacity: 0;
      }

      .cls-2 {
        fill: #1a1a1a;
      }
    </style>
  </defs>
  <g id="Rough">
    <g>
      <rect class="cls-1" width="64" height="64"/>
      <path class="cls-2" d="M43.43,15.95c-1.6-.64-3.36-.61-5.3-.42-.25-.21-.51-.41-.72-.57-.41-.3-.74-.67-1.01-1.1-.66-1.06-1.79-3.16-2.13-5.69-.13-.95-.9-1.68-1.86-1.73-.49-.02-1.06-.02-1.71,.02-.9,.07-1.63,.76-1.78,1.65-.2,1.21-.56,3.03-1.1,4.9-.27,.94-.79,1.79-1.46,2.5-1.94-.19-3.72-.22-5.32,.42-8.78,3.53-12.57,11.5-12.57,20.79,0,1.48,.1,2.93,.3,4.34,.66,4.64,3.7,8.49,8,10.18,.15,.06,.32,.1,.47,.15,1.2,.45,2.5,.46,3.86,.3,2.96,1.43,6.77,2.3,10.92,2.3s8.02-.88,10.99-2.34c1.51,.22,2.92,.24,4.23-.24,.35-.13,.7-.26,1.04-.4,3.85-1.61,6.63-5.13,7.33-9.3,.27-1.6,.4-3.27,.4-4.98,0-9.28-3.79-17.25-12.57-20.79Z"/>
    </g>
  </g>
</svg>