<?xml version="1.0" encoding="UTF-8"?>
<svg id="Layer_2" data-name="Layer 2" xmlns="http://www.w3.org/2000/svg" viewBox="0 0 64 64">
  <defs>
    <style>
      .cls-1 {
        fill: #e62e2e;
      }

      .cls-2 {
        fill: #f17324;
      }

      .cls-3 {
        opacity: 0;
      }

      .cls-3, .cls-4 {
        fill: #1a1a1a;
      }

      .cls-5 {
        fill: #c62d43;
      }
    </style>
  </defs>
  <g id="Rough">
    <g>
      <rect class="cls-3" width="64" height="64"/>
      <g>
        <g>
          <path class="cls-4" d="M60.66,20.86c-.85-1.13-2.15-1.85-3.56-1.97-.53-.04-1.06-.07-1.6-.07-1.71,0-3.44,.22-5.15,.66-.19-.49-.47-.95-.81-1.36-.96-1.14-2.35-1.8-3.84-1.8-.11,0-.22,0-.33,.01,.1-1.11,.18-2.24,.23-3.38,.06-1.38-.42-2.68-1.36-3.67-.94-.99-2.26-1.55-3.63-1.55-.45,0-.89,.06-1.31,.18-.9-2.15-2.11-4.11-3.58-5.76-.94-1.05-2.29-1.66-3.71-1.66s-2.77,.6-3.71,1.66c-1.47,1.65-2.68,3.61-3.58,5.76-.43-.12-.87-.18-1.31-.18-1.37,0-2.69,.57-3.63,1.55-.94,.99-1.43,2.29-1.36,3.67,.05,1.14,.13,2.27,.23,3.38-.11,0-.22-.01-.33-.01-1.48,0-2.88,.66-3.84,1.8-.35,.41-.62,.87-.81,1.36-1.71-.44-3.44-.66-5.16-.66-.54,0-1.07,.02-1.6,.07-1.41,.12-2.7,.84-3.56,1.97s-1.18,2.58-.91,3.97c.43,2.17,1.27,4.31,2.45,6.31-.86,.67-1.5,1.62-1.78,2.74-.52,2.05,.28,4.14,2.03,5.34,2.66,1.81,5.35,3.4,7.98,4.71-.92,1.64-1.57,3.37-1.92,5.12-.27,1.34,.05,2.74,.88,3.84,.82,1.1,2.08,1.79,3.44,1.91,.46,.04,.93,.06,1.4,.06,1.32,0,2.65-.15,3.96-.45,.15,.28,.34,.55,.55,.8,.92,1.1,2.28,1.74,3.71,1.74,.18,0,.36-.03,.54-.05-.36,1.47-.09,3.04,.78,4.3,.99,1.44,2.63,2.29,4.37,2.29h2.33c1.75,0,3.38-.86,4.37-2.29,.87-1.26,1.15-2.83,.78-4.3,.18,.02,.36,.05,.54,.05,1.43,0,2.79-.63,3.71-1.74,.21-.25,.39-.52,.55-.8,1.32,.3,2.65,.45,3.96,.45h0c.47,0,.94-.02,1.4-.06,1.36-.12,2.62-.81,3.44-1.91,.82-1.1,1.14-2.5,.88-3.84-.35-1.75-1-3.48-1.92-5.12,2.63-1.31,5.33-2.9,7.98-4.71,1.75-1.19,2.54-3.29,2.03-5.34-.28-1.12-.92-2.08-1.78-2.74,1.18-2.01,2.02-4.15,2.45-6.32,.28-1.39-.05-2.83-.91-3.96Z"/>
          <path class="cls-5" d="M34.4,57.72c-.63-1.68-.96-3.45-.96-5.24v-13.16h-2.88v13.16c0,1.79-.32,3.57-.96,5.24-.33,.86,.31,1.78,1.23,1.78h2.33c.92,0,1.56-.92,1.23-1.78Z"/>
          <path class="cls-1" d="M56.76,22.88c-3.28-.28-6.91,.54-10.26,2.46-.12-1.21-.06-2.49,.18-3.82,.16-.91-.89-1.55-1.61-.96-1.96,1.62-3.75,3.28-5.35,4.92,.99-3.63,1.66-7.97,1.88-12.71,.04-.93-1.1-1.39-1.73-.71-.92,.99-1.91,1.81-2.95,2.44-.48-3.84-2-7.23-4.2-9.68-.39-.43-1.07-.43-1.46,0-2.19,2.45-3.72,5.85-4.2,9.68-1.04-.63-2.03-1.45-2.95-2.44-.63-.68-1.77-.22-1.73,.71,.22,4.73,.89,9.08,1.88,12.71-1.6-1.65-3.39-3.3-5.35-4.92-.72-.59-1.77,.04-1.61,.96,.24,1.33,.3,2.62,.18,3.82-3.35-1.92-6.98-2.74-10.26-2.46-.58,.05-.99,.6-.88,1.17,.64,3.23,2.44,6.49,5.22,9.17-1.13,.45-2.38,.75-3.72,.89-.92,.1-1.24,1.29-.47,1.81,4.17,2.84,8.28,5.01,11.95,6.39-2.24,2.22-3.69,4.89-4.21,7.53-.1,.48,.25,.94,.74,.98,2.75,.23,5.79-.45,8.61-2.07,.1,1.01,.05,2.09-.15,3.21-.14,.77,.75,1.3,1.35,.8,2.45-2.03,4.59-4.12,6.34-6.15,1.75,2.03,3.89,4.13,6.34,6.15,.6,.5,1.48-.03,1.35-.8-.2-1.12-.25-2.19-.15-3.21,2.81,1.61,5.86,2.3,8.61,2.07,.48-.04,.83-.5,.74-.98-.53-2.64-1.98-5.31-4.21-7.53,3.67-1.38,7.78-3.56,11.95-6.39,.77-.52,.45-1.71-.47-1.81-1.35-.14-2.6-.44-3.72-.89,2.78-2.69,4.58-5.94,5.22-9.17,.11-.57-.3-1.12-.88-1.17Z"/>
        </g>
        <path class="cls-2" d="M47.69,29.86c-2.79,1.01-5.51,2.17-8.21,3.39-2.03,.91-4.04,1.89-6.04,2.86,0-.04,0-.08,0-.12,.14-7.17-.03-14.33-.58-21.49-.08-1.05-1.65-1.04-1.73,0-.55,7.16-.72,14.32-.58,21.49,0,.05,0,.11,0,.16-4.71-2.19-9.45-4.31-14.25-6.3-.83-.34-1.4,.88-.62,1.3,4.61,2.52,9.29,4.91,14.01,7.22-2.56,1.94-5.08,3.92-7.53,6.02-.67,.56,.11,1.62,.85,1.17,2.67-1.61,5.25-3.34,7.8-5.11,.08,.9,.18,1.8,.31,2.7,.06,.37,.35,.68,.74,.74,.48,.07,.92-.26,.99-.74,.13-.87,.22-1.74,.3-2.62,.93,.68,1.87,1.36,2.83,2,1.61,1.08,3.24,2.12,4.99,3.02,.28,.14,.62,.1,.85-.14,.28-.29,.28-.75,0-1.03-2.29-2.25-4.84-4.16-7.43-6.03,4.73-2.21,9.43-4.51,13.91-7.21,.75-.44,.18-1.6-.62-1.3Z"/>
      </g>
    </g>
  </g>
</svg>