<?xml version="1.0" encoding="UTF-8"?>
<svg id="Layer_2" data-name="Layer 2" xmlns="http://www.w3.org/2000/svg" viewBox="0 0 64 64">
  <defs>
    <style>
      .cls-1 {
        opacity: 0;
      }

      .cls-1, .cls-2 {
        fill: #1a1a1a;
      }
    </style>
  </defs>
  <g id="Rough">
    <g>
      <rect class="cls-1" width="64" height="64"/>
      <path class="cls-2" d="M56.14,34.11c-1.35-.14-2.6-.44-3.72-.89,2.78-2.69,4.58-5.94,5.22-9.17,.11-.57-.3-1.12-.88-1.17-3.28-.28-6.91,.54-10.26,2.46-.12-1.21-.06-2.49,.18-3.82,.16-.91-.89-1.55-1.61-.96-1.96,1.62-3.75,3.28-5.35,4.92,.99-3.63,1.66-7.97,1.88-12.71,.04-.93-1.1-1.39-1.73-.71-.92,.99-1.91,1.81-2.95,2.44-.48-3.84-2-7.23-4.2-9.68-.39-.43-1.07-.43-1.46,0-2.19,2.45-3.72,5.85-4.2,9.68-1.04-.63-2.03-1.45-2.95-2.44-.63-.68-1.77-.22-1.73,.71,.22,4.73,.89,9.08,1.88,12.71-1.6-1.65-3.39-3.3-5.35-4.92-.72-.59-1.77,.04-1.61,.96,.24,1.33,.3,2.62,.18,3.82-3.35-1.92-6.98-2.74-10.26-2.46-.58,.05-.99,.6-.88,1.17,.64,3.23,2.44,6.49,5.22,9.17-1.13,.45-2.38,.75-3.72,.89-.92,.1-1.24,1.29-.47,1.81,4.17,2.84,8.28,5.01,11.95,6.39-2.24,2.22-3.69,4.89-4.21,7.53-.1,.48,.25,.94,.74,.98,2.75,.23,5.79-.45,8.61-2.07,.1,1.01,.05,2.09-.15,3.21-.14,.77,.75,1.3,1.35,.8,1.82-1.5,3.46-3.04,4.9-4.56v4.28c0,1.79-.32,3.57-.96,5.24-.33,.86,.31,1.78,1.23,1.78h2.33c.92,0,1.56-.92,1.23-1.78-.63-1.68-.96-3.45-.96-5.24v-4.28c1.44,1.52,3.09,3.06,4.9,4.56,.6,.5,1.48-.03,1.35-.8-.2-1.12-.25-2.19-.15-3.21,2.81,1.61,5.86,2.3,8.61,2.07,.48-.04,.83-.5,.74-.98-.53-2.64-1.98-5.31-4.21-7.53,3.67-1.38,7.78-3.56,11.95-6.39,.77-.52,.45-1.71-.47-1.81Z"/>
    </g>
  </g>
</svg>