<svg xmlns="http://www.w3.org/2000/svg" viewBox="0 0 64 64"><defs><style>.cls-1,.cls-2{fill:#fff;}.cls-1{opacity:0;}</style></defs><title>PVP White </title><g id="Layer_2" data-name="Layer 2"><g id="Finals"><rect class="cls-1" width="64" height="64"/><polygon class="cls-2" points="54.02 48.3 51.04 45.31 55.17 41.18 52.34 35.89 48.81 39.41 43.97 33.34 59.5 20.95 58.32 5.68 43.05 4.5 32 18.34 20.95 4.5 5.68 5.68 4.5 20.95 20.03 33.34 15.19 39.41 11.66 35.89 8.83 41.18 12.96 45.31 9.97 48.3 8.54 46.87 4.5 49.45 7.92 56.08 14.55 59.5 17.14 55.45 15.7 54.02 18.69 51.04 22.82 55.17 28.11 52.34 24.59 48.81 32 42.9 39.41 48.81 35.89 52.34 41.18 55.17 45.31 51.04 48.3 54.02 46.87 55.45 49.45 59.5 56.08 56.08 59.5 49.45 55.45 46.87 54.02 48.3"/></g></g></svg>