<svg xmlns="http://www.w3.org/2000/svg" viewBox="0 0 64 64"><defs><style>.cls-1,.cls-8{fill:#fff;}.cls-1{opacity:0;}.cls-2{fill:#de6529;}.cls-3{fill:#7b97a6;}.cls-4{fill:#476475;}.cls-5{fill:#fc9504;}.cls-6{fill:#fec92b;}.cls-7{fill:#bdccd4;}</style></defs><title>PVP </title><g id="Layer_2" data-name="Layer 2"><g id="Finals"><rect class="cls-1" width="64" height="64"/><rect class="cls-2" x="45.47" y="44.75" width="8.1" height="9.54" transform="translate(119.55 49.52) rotate(135)"/><polygon class="cls-3" points="5.68 5.68 20.95 4.5 48.81 39.41 44.11 44.11 39.41 48.81 4.5 20.95 5.68 5.68"/><polygon class="cls-4" points="46.09 42.13 18.95 8.4 9.16 9.16 8.4 18.95 42.13 46.09 46.09 42.13"/><polygon class="cls-5" points="41.18 55.17 55.17 41.18 52.34 35.89 35.89 52.34 41.18 55.17"/><polygon class="cls-5" points="56.08 56.08 59.5 49.45 55.45 46.87 51.16 51.16 46.87 55.45 49.45 59.5 56.08 56.08"/><polygon class="cls-6" points="55.17 41.18 51.17 41.12 40.62 51.67 35.89 52.34 52.34 35.89 55.17 41.18"/><polygon class="cls-6" points="59.5 49.45 53.62 53.62 46.87 55.45 55.45 46.87 59.5 49.45"/><polygon class="cls-7" points="9.16 9.16 5.68 5.68 20.95 4.5 18.95 8.4 9.16 9.16"/><polygon class="cls-7" points="9.16 9.16 44.11 44.11 42.13 46.09 8.4 18.95 9.16 9.16"/><polygon class="cls-3" points="44.64 43.58 17.89 10.48 11.01 11.01 10.48 17.89 43.58 44.64 44.64 43.58"/><polygon class="cls-4" points="8.4 18.95 4.5 20.95 39.41 48.81 42.13 46.09 8.4 18.95"/><rect class="cls-2" x="10.43" y="44.75" width="8.1" height="9.54" transform="translate(39.26 4.26) rotate(45)"/><polygon class="cls-7" points="58.32 5.68 43.05 4.5 15.19 39.41 19.89 44.11 24.59 48.81 59.5 20.95 58.32 5.68"/><polygon class="cls-3" points="17.91 42.13 45.05 8.4 54.84 9.16 55.6 18.95 21.87 46.09 17.91 42.13"/><polygon class="cls-5" points="22.82 55.17 8.83 41.18 11.66 35.89 28.11 52.34 22.82 55.17"/><polygon class="cls-5" points="7.92 56.08 4.5 49.45 8.54 46.87 12.84 51.16 17.14 55.45 14.55 59.5 7.92 56.08"/><polygon class="cls-6" points="8.83 41.18 12.83 41.12 23.38 51.67 28.11 52.34 11.66 35.89 8.83 41.18"/><polygon class="cls-6" points="4.5 49.45 10.38 53.62 17.14 55.45 8.54 46.87 4.5 49.45"/><polygon class="cls-8" points="54.84 9.16 58.32 5.68 43.05 4.5 45.05 8.4 54.84 9.16"/><polygon class="cls-8" points="54.84 9.16 19.89 44.11 21.87 46.09 55.6 18.95 54.84 9.16"/><polygon class="cls-7" points="19.36 43.58 46.11 10.48 52.99 11.01 53.52 17.89 20.42 44.64 19.36 43.58"/><polygon class="cls-3" points="55.6 18.95 59.5 20.95 24.59 48.81 21.87 46.09 55.6 18.95"/></g></g></svg>