<?xml version="1.0" encoding="UTF-8"?>
<svg id="Layer_2" data-name="Layer 2" xmlns="http://www.w3.org/2000/svg" viewBox="0 0 64 64">
  <defs>
    <style>
      .cls-1 {
        opacity: 0;
      }

      .cls-2 {
        fill: #fff;
        stroke-width: 0px;
      }
    </style>
  </defs>
  <g id="Exports_1" data-name="Exports 1">
    <g>
      <g class="cls-1">
        <rect class="cls-2" width="64" height="64"/>
      </g>
      <g>
        <path class="cls-2" d="M47.02,21.28l-2.27-8.45c-.28-1.03-1.05-1.83-2.03-2.16v-4.68c0-.82-.67-1.49-1.49-1.49h-18.47c-.82,0-1.49.67-1.49,1.49v4.68c-.97.33-1.75,1.12-2.03,2.16l-2.27,8.45c-2.16,3.02-3.45,6.72-3.45,10.72s1.29,7.7,3.45,10.72l2.27,8.45c.28,1.03,1.05,1.83,2.03,2.16v4.68c0,.82.67,1.49,1.49,1.49h18.47c.82,0,1.49-.67,1.49-1.49v-4.68c.97-.33,1.75-1.12,2.03-2.16l2.27-8.45c2.16-3.02,3.45-6.72,3.45-10.72s-1.29-7.7-3.45-10.72ZM32,46.19c-7.83,0-14.19-6.35-14.19-14.19s6.35-14.19,14.19-14.19,14.19,6.35,14.19,14.19-6.35,14.19-14.19,14.19Z"/>
        <path class="cls-2" d="M38.38,22.79l-6.38,6.38-3.86-3.86c-.78-.78-2.05-.78-2.83,0s-.78,2.05,0,2.83l5.28,5.28c.39.39.9.59,1.41.59s1.02-.2,1.41-.59l7.79-7.79c.78-.78.78-2.05,0-2.83-.78-.78-2.05-.78-2.83,0Z"/>
      </g>
    </g>
  </g>
</svg>