<?xml version="1.0" encoding="UTF-8"?>
<svg id="Layer_2" data-name="Layer 2" xmlns="http://www.w3.org/2000/svg" viewBox="0 0 64 64">
  <defs>
    <style>
      .cls-1 {
        opacity: 0;
      }

      .cls-2 {
        fill: #cef;
      }

      .cls-2, .cls-3, .cls-4 {
        stroke-width: 0px;
      }

      .cls-3 {
        fill: #fff;
      }

      .cls-4 {
        fill: #96dbff;
      }
    </style>
  </defs>
  <g id="Exports_1" data-name="Exports 1">
    <g>
      <g class="cls-1">
        <rect class="cls-3" width="64" height="64"/>
      </g>
      <g>
        <path class="cls-3" d="M48.53,29.85l-33.11-.5,1.68,22.66h0s0,.04,0,.06c.27,4.16,6.93,7.43,14.9,7.43s14.63-3.27,14.9-7.43c0-.02,0-.04,0-.06h0l1.64-22.16Z"/>
        <path class="cls-2" d="M32,56.01c-7.23,0-11.19-2.82-11.4-4.1,0-.02,0-.12,0-.16l-1.4-18.85,25.59.38-1.36,18.47v-.02s0,.08,0,.12c-.21,1.33-4.18,4.15-11.41,4.15Z"/>
        <g>
          <path class="cls-2" d="M15.42,29.35l.44,5.93c1.16.86,2.39,1.66,3.68,2.37l-.35-4.75,25.59.38-.57,7.72c1.22-.28,2.42-.63,3.58-1.03l.75-10.12-33.11-.5Z"/>
          <path class="cls-4" d="M44.2,41l.57-7.72-25.59-.38.35,4.75c4.88,2.7,10.61,4.25,16.73,4.25,2.74,0,5.4-.31,7.94-.9Z"/>
        </g>
        <g>
          <path class="cls-2" d="M48.53,29.85l-7.6-.11c-.08,1.17-.18,2.34-.28,3.49l4.12.06-1.36,18.47v-.02s0,.08,0,.12c-.15.97-2.29,2.71-6.19,3.6-.29,1.27-.59,2.5-.91,3.72,5.93-.93,10.36-3.72,10.58-7.1,0-.02,0-.04,0-.06h0l1.64-22.16Z"/>
          <path class="cls-4" d="M43.41,51.85s0-.08,0-.12v.02s1.36-18.47,1.36-18.47l-4.12-.06c-.71,7.96-1.88,15.44-3.43,22.23,3.9-.89,6.04-2.63,6.19-3.6Z"/>
        </g>
        <path class="cls-3" d="M12.52,12.31l1.42,16.69c.33,3.84,8.41,6.85,18.06,6.85s17.73-3.01,18.06-6.85l1.42-16.69H12.52Z"/>
        <path class="cls-2" d="M32,32.36c-8.94,0-13.99-2.64-14.59-3.75l-1.09-12.81h31.35l-1.09,12.81c-.6,1.11-5.65,3.75-14.59,3.75Z"/>
        <g>
          <path class="cls-2" d="M41.43,12.31c.01.92.02,1.85.02,2.78,0,.24,0,.47,0,.71h6.23l-1.09,12.81c-.36.66-2.33,1.88-5.78,2.75-.1,1.23-.21,2.45-.33,3.66,5.5-1.15,9.35-3.39,9.58-6.02l1.42-16.69h-10.05Z"/>
          <path class="cls-4" d="M46.59,28.61l1.09-12.81h-6.23c-.02,5.33-.24,10.53-.64,15.56,3.45-.87,5.42-2.08,5.78-2.75Z"/>
        </g>
        <path class="cls-3" d="M51.48,12.29c-.38,4.06-9.09,7.25-19.48,7.25s-19.1-3.18-19.48-7.25c-.39-4.23,8.32-7.79,19.48-7.79s19.87,3.56,19.48,7.79Z"/>
        <path class="cls-2" d="M46.3,11.69c-.17,2.4-6.57,4.31-14.3,4.31s-14.13-1.91-14.3-4.31,6.23-4.5,14.3-4.5,14.48,2.04,14.3,4.5Z"/>
        <path class="cls-4" d="M27.11,10.25c0-.94.03-1.87.07-2.8-5.65.62-9.63,2.3-9.49,4.24.14,1.9,4.17,3.48,9.68,4.07-.17-1.79-.26-3.63-.26-5.51Z"/>
      </g>
    </g>
  </g>
</svg>