<?xml version="1.0" encoding="UTF-8"?>
<svg id="Layer_2" data-name="Layer 2" xmlns="http://www.w3.org/2000/svg" viewBox="0 0 64 64">
  <defs>
    <style>
      .cls-1 {
        opacity: 0;
      }

      .cls-2 {
        fill: #fff;
        stroke-width: 0px;
      }
    </style>
  </defs>
  <g id="Exports_1" data-name="Exports 1">
    <g>
      <g class="cls-1">
        <rect class="cls-2" width="64" height="64"/>
      </g>
      <path class="cls-2" d="M51.48,12.29c.39-4.23-8.32-7.79-19.48-7.79s-19.87,3.56-19.48,7.79c0,0,0,.02,0,.03h0l1.42,16.69c.08.98.67,1.9,1.66,2.74l1.5,20.27h0s0,.04,0,.06c.27,4.16,6.93,7.43,14.9,7.43s14.63-3.27,14.9-7.43c0-.02,0-.04,0-.06h0l1.5-20.27c.99-.84,1.58-1.76,1.67-2.74l1.42-16.69h0s0-.02,0-.03ZM36.22,15.8c-1.34.13-2.76.2-4.22.2s-2.88-.07-4.22-.2c-5.09-.49-8.99-1.83-9.88-3.49-.11-.2-.19-.41-.2-.62-.18-2.46,6.23-4.5,14.3-4.5s14.48,2.04,14.3,4.5c-.01.21-.09.42-.2.62-.89,1.66-4.79,3.01-9.88,3.49Z"/>
    </g>
  </g>
</svg>