<svg xmlns="http://www.w3.org/2000/svg" viewBox="0 0 64 64"><defs><style>.cls-1,.cls-2{fill:#1a1a1a;}.cls-1{opacity:0;}.cls-3{fill:#7b97a6;}.cls-4{fill:#abc0c9;}.cls-5{fill:#d3dee3;}.cls-6{fill:#fff;}</style></defs><title>Link Outline</title><g id="Layer_2" data-name="Layer 2"><g id="Finals"><rect class="cls-1" width="64" height="64"/><path class="cls-2" d="M58.14,5.83q-.3-.3-.63-.57A3,3,0,0,0,57.26,5a4.19,4.19,0,0,0-.33-.26c-.19-.17-.4-.33-.61-.49s-.5-.38-.76-.56-.47-.3-.71-.45L54,2.76l-.73-.37L52.46,2l-.75-.3-.88-.31L50,1.15,49.16.93,48.37.78c-.3-.06-.6-.1-.91-.14l-.8-.08-.91,0-.63,0h-.18c-.3,0-.61,0-1,0l-.7.06c-.29,0-.58.08-.94.13l-.13,0-.64.12a8.92,8.92,0,0,0-.9.22l-.11,0-.65.18c-.27.08-.54.18-.81.28l-.26.09-.58.22-.77.35-.26.13c-.19.09-.38.17-.55.27s-.53.3-.79.46l-.24.14-.49.3c-.3.2-.6.43-.89.65l-.14.1-.42.32a17.74,17.74,0,0,0-1.36,1.23l-9.57,9.57a17.85,17.85,0,0,0-3.12,4.2,17.91,17.91,0,0,0-4.21,3.14l-9.7,9.69c-.38.39-.74.79-1.07,1.2s-.55.71-.8,1.06c-.07.1-.15.2-.21.3A18.39,18.39,0,0,0,3,54.4c.12.21.25.43.38.63s.29.45.44.66.36.51.55.75l.45.56.25.3a3,3,0,0,0,.25.25,7.82,7.82,0,0,0,.55.6,18.26,18.26,0,0,0,25.83,0l9.58-9.57a18.11,18.11,0,0,0,3.12-4.21,18,18,0,0,0,4.21-3.12l9.57-9.58A18.3,18.3,0,0,0,58.14,5.83ZM18.75,46.67a1.4,1.4,0,0,1-1-.42,1.44,1.44,0,0,1,0-2l4-4,.15.18.27.28c.18.2.36.4.56.6s.69.66,1.05,1l-4,4A1.4,1.4,0,0,1,18.75,46.67ZM46.64,18.81a.76.76,0,0,1,0,.15v.09l-.1.29a3.18,3.18,0,0,1-.17.3.75.75,0,0,1-.11.13l-4,4c-.31-.36-.63-.71-1-1.05s-.42-.4-.63-.58-.17-.17-.25-.25l-.18-.15,4-4a1.4,1.4,0,0,1,1-.42,1.42,1.42,0,0,1,1,.41l.11.14.18.32.08.23s0,.1,0,.13,0,.09,0,.14A.48.48,0,0,1,46.64,18.81Z"/><path class="cls-3" d="M33.8,22.49l-2,2a5.44,5.44,0,0,0-1,6.36,5.43,5.43,0,0,1,1.34,8.67l-2,2-7.58,7.58a5.44,5.44,0,0,1-7.69-7.69l7.58-7.58a14.33,14.33,0,0,1,.12-11.2,14.2,14.2,0,0,0-4.37,3L8.66,35.15A14.26,14.26,0,0,0,28.83,55.32l9.58-9.57a14.38,14.38,0,0,0,3.08-15.57,14.21,14.21,0,0,0-7.69-7.69Z"/><path class="cls-4" d="M8.84,49.36a10.82,10.82,0,0,1,.09-8.43,10.36,10.36,0,0,1,2.23-3.28l9.57-9.58a10.77,10.77,0,0,1,13.42-1.43,2.9,2.9,0,0,0,3.61-.42h0a.88.88,0,0,0,0-1.3,14.29,14.29,0,0,0-19.48.65L8.66,35.15a14,14,0,0,0-3,4.36,14.37,14.37,0,0,0-.11,11.2A14.21,14.21,0,0,0,8,54.66a.88.88,0,0,0,1.27,0h0A3,3,0,0,0,9.67,51,10.09,10.09,0,0,1,8.84,49.36Z"/><path class="cls-4" d="M35.14,8.67l-9.58,9.57a14.29,14.29,0,0,0,0,20.18,14.45,14.45,0,0,0,4.61,3.08l2-2a5.47,5.47,0,0,0,1-6.36,5.27,5.27,0,0,1-1.34-1,5.45,5.45,0,0,1,0-7.7l2-2,7.58-7.58a5.44,5.44,0,0,1,7.69,7.69l-7.58,7.58a14.33,14.33,0,0,1-.12,11.2,14.2,14.2,0,0,0,4.37-3l9.57-9.58A14.26,14.26,0,0,0,35.14,8.67Z"/><path class="cls-5" d="M25.75,32.45a10.77,10.77,0,0,1,2.31-11.71l9.58-9.58A10.76,10.76,0,0,1,51.06,9.74a2.9,2.9,0,0,0,3.61-.43h0A.89.89,0,0,0,54.61,8a14.27,14.27,0,0,0-19.47.66l-9.58,9.57a14.38,14.38,0,0,0-3.08,15.57,14.44,14.44,0,0,0,2.46,3.94.87.87,0,0,0,1.27,0h0a3,3,0,0,0,.36-3.71A11.6,11.6,0,0,1,25.75,32.45Z"/><path class="cls-4" d="M33.6,33.25l-1.43-1.43a5.42,5.42,0,0,1,0,7.69l-2,2-7.58,7.58a5.44,5.44,0,0,1-7.69,0l1.43,1.44a7.08,7.08,0,0,0,10,0l7.28-7.28A7.06,7.06,0,0,0,33.6,33.25Z"/><path class="cls-5" d="M33.15,33.15a5.4,5.4,0,0,1-1.34-1l1.6,1.6C33.33,33.56,33.25,33.36,33.15,33.15Z"/><path class="cls-5" d="M49.66,15.62a5.44,5.44,0,0,1-.59,7l-7.58,7.58a14.48,14.48,0,0,1,1,4.06,7.16,7.16,0,0,0,.73-.63l7.28-7.28a7.08,7.08,0,0,0,0-10l-1.44-1.43a5.37,5.37,0,0,1,.49.58A.64.64,0,0,1,49.66,15.62Z"/><path class="cls-5" d="M31.81,32.18l1.43,1.43.16.14c-.08-.2-.15-.4-.25-.6A5.27,5.27,0,0,1,31.81,32.18Z"/><ellipse class="cls-6" cx="37.94" cy="11.58" rx="4.34" ry="2.62" transform="translate(0.71 25.26) rotate(-37.16)"/><ellipse class="cls-4" cx="16.07" cy="32.72" rx="4.34" ry="2.62" transform="translate(-18.71 21.78) rotate(-46.37)"/><ellipse class="cls-6" cx="46.43" cy="8.67" rx="2.25" ry="2.67" transform="translate(34.2 54.3) rotate(-85.57)"/></g></g></svg>