<svg xmlns="http://www.w3.org/2000/svg" viewBox="0 0 64 64"><defs><style>.cls-1,.cls-2{fill:#fff;}.cls-1{opacity:0;}</style></defs><title>Link White</title><g id="Layer_2" data-name="Layer 2"><g id="Finals"><rect class="cls-1" width="64" height="64"/><path class="cls-2" d="M34.24,49.35a15.68,15.68,0,0,1-8.17-2,1,1,0,0,0-1.16.15l-.58.57a6,6,0,0,1-7.92.66,5.93,5.93,0,0,1-.59-8.88L18.64,37l7.6-7.59a5.82,5.82,0,0,1,1.47-1.07,5.9,5.9,0,0,1,7.82,2.28A1,1,0,0,0,37,30.8l5.52-5.52A1,1,0,0,0,42.63,24a14,14,0,0,0-1.24-1.43A15.53,15.53,0,0,0,20.8,21.42a15.12,15.12,0,0,0-1.35,1.19L9.35,32.71A15.81,15.81,0,0,0,8.5,54.4,15.51,15.51,0,0,0,31,55l4-4A1,1,0,0,0,34.24,49.35Z"/><path class="cls-2" d="M55.5,9.6A15.52,15.52,0,0,0,33,9l-4,4a1,1,0,0,0,.72,1.63,15.68,15.68,0,0,1,8.17,2,1,1,0,0,0,1.16-.15l.58-.57a6,6,0,0,1,7.92-.66,5.93,5.93,0,0,1,.59,8.88L45.36,27l-7.6,7.59a5.82,5.82,0,0,1-1.47,1.07,5.9,5.9,0,0,1-7.82-2.28A1,1,0,0,0,27,33.2l-5.52,5.52A1,1,0,0,0,21.37,40a14,14,0,0,0,1.24,1.43A15.53,15.53,0,0,0,43.2,42.58a15.12,15.12,0,0,0,1.35-1.19l10.1-10.1A15.81,15.81,0,0,0,55.5,9.6Z"/></g></g></svg>