<svg xmlns="http://www.w3.org/2000/svg" viewBox="0 0 64 64"><defs><style>.cls-1,.cls-5{fill:#fff;}.cls-1{opacity:0;}.cls-2{fill:#7b97a6;}.cls-3{fill:#abc0c9;}.cls-4{fill:#d3dee3;}</style></defs><title>Link</title><g id="Layer_2" data-name="Layer 2"><g id="Finals"><rect class="cls-1" width="64" height="64"/><path class="cls-2" d="M33.81,22.5l-2,2a5.44,5.44,0,0,0-1,6.35,5.44,5.44,0,0,1,1.34,8.67l-2,2L22.6,49.09a5.44,5.44,0,1,1-7.69-7.69l7.59-7.59a14.37,14.37,0,0,1,.11-11.2,14,14,0,0,0-4.36,3L8.67,35.15A14.27,14.27,0,0,0,28.85,55.33l9.57-9.58a14,14,0,0,0,3-4.36,14.37,14.37,0,0,0,.11-11.2,14.21,14.21,0,0,0-7.69-7.69Z"/><path class="cls-3" d="M8.86,49.37a10.8,10.8,0,0,1,.08-8.44,10.65,10.65,0,0,1,2.23-3.28l9.57-9.58a10.76,10.76,0,0,1,13.42-1.42,2.91,2.91,0,0,0,3.62-.43h0a.89.89,0,0,0-.06-1.3,14.27,14.27,0,0,0-19.47.66L8.67,35.15a14.27,14.27,0,0,0-.62,19.51.87.87,0,0,0,1.27,0h0A3,3,0,0,0,9.68,51,10.49,10.49,0,0,1,8.86,49.37Z"/><path class="cls-3" d="M35.15,8.67l-9.57,9.58a14,14,0,0,0-3,4.36,14.37,14.37,0,0,0-.11,11.2,14.21,14.21,0,0,0,7.69,7.69l2-2a5.44,5.44,0,0,0,1-6.35,5.44,5.44,0,0,1-1.34-8.67l2-2,7.59-7.59a5.44,5.44,0,1,1,7.69,7.69L41.5,30.19a14.37,14.37,0,0,1-.11,11.2,14,14,0,0,0,4.36-3l9.58-9.57A14.27,14.27,0,0,0,35.15,8.67Z"/><path class="cls-4" d="M25.76,32.46A10.82,10.82,0,0,1,25.85,24a10.52,10.52,0,0,1,2.23-3.29l9.57-9.57A10.75,10.75,0,0,1,51.07,9.74a2.9,2.9,0,0,0,3.61-.42h0a.88.88,0,0,0,0-1.3,14.29,14.29,0,0,0-19.48.65l-9.57,9.58a14,14,0,0,0-3,4.36,14.37,14.37,0,0,0-.11,11.2A14.21,14.21,0,0,0,25,37.76a.88.88,0,0,0,1.27,0h0a3,3,0,0,0,.37-3.72A10.54,10.54,0,0,1,25.76,32.46Z"/><path class="cls-3" d="M33.61,33.26l-1.43-1.44a5.44,5.44,0,0,1,0,7.69l-2,2L22.6,49.09a5.44,5.44,0,0,1-7.69,0l1.44,1.43a7.06,7.06,0,0,0,10,0l7.27-7.28A7,7,0,0,0,33.61,33.26Z"/><path class="cls-4" d="M33.16,33.16a5.37,5.37,0,0,1-1.34-1l1.6,1.6A4.78,4.78,0,0,0,33.16,33.16Z"/><path class="cls-4" d="M49.68,15.62a5.45,5.45,0,0,1-.59,7L41.5,30.19a14.33,14.33,0,0,1,1,4.05,6.1,6.1,0,0,0,.73-.63l7.28-7.27a7.06,7.06,0,0,0,0-10l-1.43-1.44a6.55,6.55,0,0,1,.49.58A1.13,1.13,0,0,0,49.68,15.62Z"/><path class="cls-4" d="M31.82,32.18l1.44,1.43a1,1,0,0,0,.15.14,6.14,6.14,0,0,0-.25-.59A5.49,5.49,0,0,1,31.82,32.18Z"/><ellipse class="cls-5" cx="37.95" cy="11.59" rx="4.34" ry="2.62" transform="translate(0.71 25.27) rotate(-37.16)"/><ellipse class="cls-3" cx="16.08" cy="32.73" rx="4.34" ry="2.62" transform="translate(-18.7 21.79) rotate(-46.37)"/><ellipse class="cls-5" cx="46.45" cy="8.68" rx="2.25" ry="2.67" transform="translate(34.21 54.31) rotate(-85.57)"/></g></g></svg>