<?xml version="1.0" encoding="UTF-8"?>
<svg id="Layer_2" data-name="Layer 2" xmlns="http://www.w3.org/2000/svg" viewBox="0 0 64 64">
  <defs>
    <style>
      .cls-1 {
        fill: #7b97a6;
      }

      .cls-1, .cls-2, .cls-3, .cls-4, .cls-5, .cls-6 {
        stroke-width: 0px;
      }

      .cls-2, .cls-3 {
        fill: #1a1a1a;
      }

      .cls-3 {
        opacity: 0;
      }

      .cls-4 {
        fill: #cef;
      }

      .cls-5 {
        fill: #fff;
      }

      .cls-6 {
        fill: #96dbff;
      }
    </style>
  </defs>
  <g id="Exports_2" data-name="Exports 2">
    <g>
      <rect class="cls-3" width="64" height="64"/>
      <g>
        <path class="cls-2" d="M30.81,63.5c-15.78,0-19.57-4.1-19.96-7.54-.05-.4-.03-.81.04-1.21.21-1.13.4-2.3.57-3.5-4.54-2.58-7.57-6.59-8.33-11.11-1.01-1.43-1.26-2.8-1.26-3.79v-3.52c0-6.04,8.24-8.77,16.7-9.44-.37-3.38-.55-6.56-.64-8.98-.97-.91-1.6-2.16-1.73-3.53l-.23-2.5c-.15-1.72.52-3.43,1.79-4.59.81-.73,1.8-1.2,2.86-1.36l12.29-1.87c.29-.04.56-.06.83-.06.42,0,.85.05,1.26.14l22.86,5.34c1,.24,1.92.75,2.65,1.48,1.15,1.15,1.73,2.75,1.59,4.37l-.18,2.13c-.11,1.3-.67,2.47-1.52,3.35-1.38,12.36-4.88,20.48-5.04,20.84-.35.81-.96,1.47-1.73,1.9-1.39.77-2.7,1.42-3.91,1.97-.1,1.3-.13,2.17-.14,2.41,0,.03.02.41.02.42.07,1.44.32,5.42,1.17,9.89.07.37.09.74.05,1.11-.32,3.49-4.05,7.64-20.01,7.64Z"/>
        <path class="cls-4" d="M45.59,44.4s.12-5.14,1.25-11.09c0-.03-.41-4-15.99-4s-16.03,3.97-16.03,4c1.13,5.96,1.26,11.09,1.26,11.09h0s-.12,5.14-1.25,11.09c0,.03.41,4,15.99,4s16.03-3.97,16.03-4c-1.13-5.96-1.26-11.09-1.26-11.09h0Z"/>
        <path class="cls-6" d="M46.84,33.31s-.41-4-15.99-4c-4.74,0-8.08.37-10.43.88.33,2.85.79,5.81,1.44,8.55h-6.22c.38,3.34.44,5.67.44,5.67h0s-.07,2.74-.54,6.54c3,1.51,6.59,2.39,10.45,2.39,6.91,0,12.95-2.81,16.3-7.02.78-.2,1.87-.56,3.33-1.21-.02-.45-.03-.7-.03-.7h0s.12-5.14,1.25-11.09Z"/>
        <path class="cls-5" d="M44.15,14.73l-22.31-5.32s-.15,14.23,2.62,24.3c0,0,7.86,3.26,18.42,6.25l6.89-13.7-5.62-11.53Z"/>
        <path class="cls-4" d="M42.87,39.96s2.25.22,8.83-3.41c0,0,3.82-8.71,4.94-21.83h-12.5s.52,10.18-1.27,25.23Z"/>
        <path class="cls-5" d="M6.92,37.89c0,6.79,7.19,12.3,16.06,12.3s16.06-5.51,16.06-12.3H6.92Z"/>
        <path class="cls-6" d="M57.94,13.63l.18-2.13c.04-.46-.13-.9-.44-1.2l-13.35,2.57-.12,4.91c.12,0,.24-.01.36-.04l12.19-2.76c.64-.15,1.12-.69,1.18-1.35Z"/>
        <path class="cls-4" d="M21.31,11.86l22.54,5.87c.12.03.24.05.36.05l.12-4.91-23.88-6.1c-.34.31-.54.77-.5,1.26l.23,2.5c.06.64.51,1.17,1.13,1.33Z"/>
        <path class="cls-5" d="M20.46,6.76l23.88,6.1,13.35-2.57c-.19-.19-.44-.34-.73-.41l-22.86-5.34c-.19-.04-.38-.05-.57-.02l-12.28,1.87c-.3.05-.57.18-.79.37Z"/>
        <path class="cls-4" d="M31.81,37.89c-.78,4.88-2.9,9.12-5.83,12.08,7.43-1.08,13.05-6.08,13.05-12.08h-7.22Z"/>
        <path class="cls-6" d="M5.87,32.83v3.52c0,3.37,7.66,6.1,17.11,6.1s17.11-2.73,17.11-6.1v-3.52H5.87Z"/>
        <path class="cls-4" d="M26.86,42.29c1.19-3.11,1.7-6.96,1.93-9.46H5.87v3.52c0,3.37,7.66,6.1,17.11,6.1,1.34,0,2.63-.06,3.88-.16Z"/>
        <ellipse class="cls-5" cx="22.98" cy="32.83" rx="17.11" ry="5.62"/>
        <ellipse class="cls-1" cx="22.98" cy="32.44" rx="11.32" ry="2.7"/>
        <ellipse class="cls-4" cx="38.23" cy="8.32" rx="2.68" ry="1.09"/>
      </g>
    </g>
  </g>
</svg>