<?xml version="1.0" encoding="UTF-8"?>
<svg id="Layer_2" data-name="Layer 2" xmlns="http://www.w3.org/2000/svg" viewBox="0 0 64 64">
  <defs>
    <style>
      .cls-1, .cls-2 {
        fill: #1a1a1a;
        stroke-width: 0px;
      }

      .cls-2 {
        opacity: 0;
      }
    </style>
  </defs>
  <g id="Exports_2" data-name="Exports 2">
    <g>
      <rect class="cls-2" width="64" height="64"/>
      <path class="cls-1" d="M57.69,10.29c-.19-.19-.44-.34-.73-.41l-22.86-5.34c-.19-.04-.38-.05-.57-.02l-12.28,1.87c-.3.05-.57.18-.79.37-.34.31-.54.77-.5,1.26l.23,2.5c.06.64.51,1.17,1.13,1.33l.54.14c.07,3.31.33,9.32,1.25,15.22-.04,0-.09,0-.13,0-9.45,0-17.11,2.51-17.11,5.62v3.52c0,.75.4,1.46,1.09,2.12.28,4.55,3.78,8.45,8.81,10.4-.19,1.87-.48,4.18-.94,6.63,0,.03.41,4,15.99,4s16.03-3.97,16.03-4c-1.13-5.96-1.26-11.09-1.26-11.09h0s.05-2.1.38-5.16c1.36-.49,3.24-1.31,5.74-2.69,0,0,3.76-8.59,4.91-21.55l.14-.03c.64-.15,1.12-.69,1.18-1.35l.18-2.13c.04-.46-.13-.9-.44-1.2ZM22.98,35.14c-6.25,0-11.32-1.21-11.32-2.7s5.07-2.7,11.32-2.7,11.32,1.21,11.32,2.7-5.07,2.7-11.32,2.7Z"/>
    </g>
  </g>
</svg>