<?xml version="1.0" encoding="UTF-8"?>
<svg id="Layer_2" data-name="Layer 2" xmlns="http://www.w3.org/2000/svg" viewBox="0 0 64 64">
  <defs>
    <style>
      .cls-1 {
        fill: #fff;
      }

      .cls-2 {
        fill: #eba969;
      }

      .cls-3 {
        fill: #d1774b;
      }

      .cls-4 {
        opacity: 0;
      }

      .cls-4, .cls-5 {
        fill: #1a1a1a;
      }
    </style>
  </defs>
  <g id="Outlines">
    <g id="Easel_Outline" data-name="Easel Outline">
      <rect class="cls-4" width="64" height="64"/>
      <g>
        <path class="cls-5" d="M56,37.31V13.5c0-3.31-2.69-6-6-6h-10.5v-1c0-3.31-2.69-6-6-6h-3c-3.31,0-6,2.69-6,6v1H14c-3.31,0-6,2.69-6,6v23.81c-1.79,1.04-3,2.98-3,5.19v3c0,3.31,2.69,6,6,6h1.52l-1.22,4.39c-.51,1.82-.14,3.73,1,5.24,1.14,1.51,2.89,2.37,4.78,2.37h3.12c2.68,0,5.06-1.8,5.78-4.39l2.13-7.61h7.82l2.13,7.61c.72,2.58,3.1,4.39,5.78,4.39h3.12c1.89,0,3.63-.86,4.78-2.37,1.14-1.51,1.51-3.42,1-5.24l-1.22-4.39h1.52c3.31,0,6-2.69,6-6v-3c0-2.22-1.21-4.16-3-5.19Z"/>
        <rect class="cls-2" x="16.5" y="16.5" width="31" height="7" rx="2" ry="2" transform="translate(52 -12) rotate(90)"/>
        <g>
          <path class="cls-3" d="M27.33,39.35c.3-1.06-.32-2.17-1.39-2.46l-2.89-.81c-1.06-.3-2.17,.32-2.46,1.39l-5.44,19.5c-.36,1.27,.6,2.54,1.93,2.54h3.11c.9,0,1.69-.6,1.93-1.46l5.22-18.69Z"/>
          <path class="cls-3" d="M43.41,37.46c-.3-1.06-1.4-1.69-2.46-1.39l-2.89,.81c-1.06,.3-1.69,1.4-1.39,2.46l5.22,18.69c.24,.86,1.03,1.46,1.93,1.46h3.11c1.32,0,2.28-1.26,1.93-2.54l-5.44-19.5Z"/>
        </g>
        <rect class="cls-2" x="9" y="40.5" width="46" height="7" rx="2" ry="2"/>
        <path class="cls-1" d="M14,11.5H50c1.1,0,2,.9,2,2v27H12V13.5c0-1.1,.9-2,2-2Z"/>
      </g>
    </g>
  </g>
</svg>