<?xml version="1.0" encoding="UTF-8"?>
<svg id="Layer_2" data-name="Layer 2" xmlns="http://www.w3.org/2000/svg" viewBox="0 0 64 64">
  <defs>
    <style>
      .cls-1, .cls-2 {
        fill: #fff;
      }

      .cls-2 {
        opacity: 0;
      }
    </style>
  </defs>
  <g id="White">
    <g id="Easel_Flat_White" data-name="Easel Flat White">
      <rect class="cls-2" width="64" height="64"/>
      <path class="cls-1" d="M53,40.5h-1V13.5c0-1.1-.9-2-2-2h-14.5V6.5c0-1.1-.9-2-2-2h-3c-1.1,0-2,.9-2,2v5H14c-1.1,0-2,.9-2,2v27h-1c-1.1,0-2,.9-2,2v3c0,1.1,.9,2,2,2h6.78l-2.64,9.46c-.36,1.28,.6,2.54,1.93,2.54h3.11c.9,0,1.68-.6,1.93-1.46l2.94-10.54h13.89l2.94,10.54c.24,.86,1.03,1.46,1.93,1.46h3.11c1.32,0,2.28-1.26,1.93-2.54l-2.64-9.46h6.78c1.1,0,2-.9,2-2v-3c0-1.1-.9-2-2-2Z"/>
    </g>
  </g>
</svg>