<?xml version="1.0" encoding="UTF-8"?>
<svg id="Layer_2" data-name="Layer 2" xmlns="http://www.w3.org/2000/svg" viewBox="0 0 64 64">
  <defs>
    <style>
      .cls-1, .cls-2 {
        fill: #fff;
      }

      .cls-2 {
        opacity: 0;
      }
    </style>
  </defs>
  <g id="White">
    <g id="Calendar_2_Flat_White" data-name="Calendar 2 Flat White">
      <rect class="cls-2" width="64" height="64"/>
      <g>
        <path class="cls-1" d="M55.96,9.89h-2.39v-2.7c0-1.49-1.21-2.7-2.7-2.7s-2.7,1.21-2.7,2.7v2.7h-13.48v-2.7c0-1.49-1.21-2.7-2.7-2.7s-2.7,1.21-2.7,2.7v2.7H15.82v-2.7c0-1.49-1.21-2.7-2.7-2.7s-2.7,1.21-2.7,2.7v2.7h-2.39c-1.66,0-3,1.34-3,3v5.88H58.96v-5.88c0-1.66-1.34-3-3-3Z"/>
        <path class="cls-1" d="M5.04,53.26c0,1.66,1.34,3,3,3H55.96c1.66,0,3-1.34,3-3V21.77H5.04v31.49Zm28.48-21.53c1.1-.88,2.64-1.95,4.64-3.19,.36-.23,.97-.41,1.83-.54,.86-.13,1.73-.18,2.62-.15,.89,.03,1.68,.15,2.38,.37,.7,.22,1.08,.57,1.13,1.04,.14,1.33,.22,3.03,.24,5.09,.02,2.06-.01,4.08-.1,6.08-.08,1.99-.21,3.76-.37,5.29-.17,1.53-.36,2.44-.57,2.71-.19,.37-1.16,.59-2.9,.66-1.74,.07-2.97-.05-3.69-.35-.35-.15-.56-1.39-.62-3.73-.06-2.34-.14-4.74-.24-7.21-.6,.25-1.21,.48-1.83,.69-.62,.21-1,.31-1.16,.28-.42,0-1-.65-1.74-1.98s-1.15-2.4-1.21-3.19c-.03-.36,.51-.98,1.6-1.87Zm-19.22,10.8c.54-.4,1.19-.73,1.95-.99,.76-.26,1.5-.44,2.22-.52,.72-.08,1.16-.05,1.32,.1,.14,.15,.22,.33,.24,.54,.04,.72,.5,.96,1.39,.71,.89-.24,1.27-.59,1.12-1.05-.17-.5-.81-1.06-1.94-1.69-1.13-.63-1.71-1.41-1.73-2.33,0-.21,.05-.56,.17-1.05,.12-.49,.47-1.05,1.05-1.67-1.76-.03-2.98-.08-3.66-.15-.44-.05-.82-.34-1.12-.87-.3-.53-.51-1.14-.64-1.81-.12-.68-.15-1.33-.08-1.98,.07-.64,.26-1.11,.57-1.39,.24-.22,1.06-.39,2.46-.49,1.4-.11,2.92-.15,4.56-.12s3.16,.11,4.57,.25c1.41,.14,2.25,.35,2.52,.62,.58,.61,.55,1.85-.11,3.71-.66,1.86-1.28,3.29-1.86,4.29,2.51,1.67,3.38,3.98,2.62,6.94-.26,1.03-.72,1.93-1.39,2.71s-1.46,1.4-2.38,1.86c-.92,.47-1.98,.78-3.19,.92-1.21,.14-2.34,.08-3.39-.17-2.73-.69-4.66-2.37-5.79-5.04-.19-.47-.02-.91,.52-1.3Z"/>
      </g>
    </g>
  </g>
</svg>