<?xml version="1.0" encoding="UTF-8"?>
<svg id="Layer_2" data-name="Layer 2" xmlns="http://www.w3.org/2000/svg" viewBox="0 0 64 64">
  <defs>
    <style>
      .cls-1 {
        fill: #fff;
      }

      .cls-2 {
        fill: #476475;
      }

      .cls-3 {
        fill: #bdccd4;
      }

      .cls-4 {
        opacity: 0;
      }

      .cls-4, .cls-5 {
        fill: #1a1a1a;
      }

      .cls-6 {
        fill: #e62e49;
      }
    </style>
  </defs>
  <g id="Outlines">
    <g id="Calendar_2_Outline" data-name="Calendar 2 Outline">
      <rect class="cls-4" width="64" height="64"/>
      <g>
        <path class="cls-5" d="M57.48,6.11c-.52-3.18-3.29-5.61-6.61-5.61s-5.96,2.32-6.57,5.39h-5.73c-.61-3.07-3.32-5.39-6.57-5.39s-5.96,2.32-6.57,5.39h-5.73c-.61-3.07-3.32-5.39-6.57-5.39S7.04,2.93,6.52,6.11c-3.14,.79-5.48,3.64-5.48,7.02V56.26c0,3.99,3.25,7.24,7.24,7.24H55.73c3.99,0,7.24-3.25,7.24-7.24V13.13c0-3.38-2.34-6.23-5.48-7.02Z"/>
        <rect class="cls-3" x="5.04" y="13.13" width="53.92" height="46.37" rx="3" ry="3"/>
        <rect class="cls-1" x="5.04" y="9.89" width="53.92" height="46.37" rx="3" ry="3"/>
        <path class="cls-6" d="M8.04,9.89H55.96c1.66,0,3,1.34,3,3v8.86H5.04V12.89c0-1.66,1.34-3,3-3Z"/>
        <path class="cls-3" d="M32,4.5c-1.49,0-2.7,1.21-2.7,2.7v5.39c0,1.49,1.21,2.7,2.7,2.7s2.7-1.21,2.7-2.7V7.2c0-1.49-1.21-2.7-2.7-2.7Z"/>
        <path class="cls-3" d="M50.87,4.5c-1.49,0-2.7,1.21-2.7,2.7v5.39c0,1.49,1.21,2.7,2.7,2.7s2.7-1.21,2.7-2.7V7.2c0-1.49-1.21-2.7-2.7-2.7Z"/>
        <path class="cls-3" d="M13.13,4.5c-1.49,0-2.7,1.21-2.7,2.7v5.39c0,1.49,1.21,2.7,2.7,2.7s2.7-1.21,2.7-2.7V7.2c0-1.49-1.21-2.7-2.7-2.7Z"/>
        <g>
          <path class="cls-2" d="M27.29,36.62c2.51,1.67,3.38,3.98,2.62,6.94-.26,1.03-.72,1.93-1.39,2.71s-1.46,1.4-2.38,1.86c-.92,.47-1.98,.78-3.19,.92-1.21,.14-2.34,.08-3.39-.17-2.73-.69-4.66-2.37-5.79-5.04-.19-.47-.02-.91,.52-1.3,.54-.4,1.19-.73,1.95-.99,.76-.26,1.5-.44,2.22-.52,.72-.08,1.16-.05,1.32,.1,.14,.15,.22,.33,.24,.54,.04,.72,.5,.96,1.39,.71,.89-.24,1.27-.59,1.12-1.05-.17-.5-.81-1.06-1.94-1.69s-1.71-1.41-1.73-2.33c0-.21,.05-.56,.17-1.05,.12-.49,.47-1.05,1.05-1.67-1.76-.03-2.98-.08-3.66-.15-.44-.05-.82-.34-1.12-.87-.3-.53-.51-1.14-.64-1.81-.12-.68-.15-1.33-.08-1.98,.07-.64,.26-1.11,.57-1.39,.24-.22,1.06-.39,2.46-.49s2.92-.15,4.56-.12,3.16,.11,4.57,.25c1.41,.14,2.25,.35,2.52,.62,.58,.61,.55,1.85-.11,3.71-.66,1.86-1.28,3.29-1.86,4.29Z"/>
          <path class="cls-2" d="M45.31,48.43c-.19,.37-1.16,.59-2.9,.66-1.74,.07-2.97-.05-3.69-.35-.35-.15-.56-1.39-.62-3.73-.06-2.34-.14-4.74-.24-7.21-.6,.25-1.21,.48-1.83,.69-.62,.21-1,.31-1.16,.28-.42,0-1-.65-1.74-1.98s-1.15-2.4-1.21-3.19c-.03-.36,.51-.98,1.6-1.87s2.64-1.95,4.64-3.19c.36-.23,.97-.41,1.83-.54,.86-.13,1.73-.18,2.62-.15,.89,.03,1.68,.15,2.38,.37,.7,.22,1.08,.57,1.13,1.04,.14,1.33,.22,3.03,.24,5.09,.02,2.06-.01,4.08-.1,6.08-.08,1.99-.21,3.76-.37,5.29-.17,1.53-.36,2.44-.57,2.71Z"/>
        </g>
      </g>
    </g>
  </g>
</svg>