<svg xmlns="http://www.w3.org/2000/svg" viewBox="0 0 64 64"><defs><style>.cls-1{opacity:0;}.cls-2,.cls-3{fill:#1a1a1a;}.cls-3,.cls-4,.cls-5{fill-rule:evenodd;}.cls-4{fill:#80bad9;}.cls-5{fill:#fff;}</style></defs><title>Arrows Expand Outline </title><g id="Layer_2" data-name="Layer 2"><g id="Layer_3" data-name="Layer 3"><g class="cls-1"><rect class="cls-2" width="64" height="64"/></g><path class="cls-3" d="M54.82,28.49l3-15.19a4.05,4.05,0,0,0,.09-.77,1.69,1.69,0,0,0,0-.23v-3a3.25,3.25,0,0,0,0-.44,4.82,4.82,0,0,0-4.77-4.31,5,5,0,0,0-.95.09L37,7.68a4.8,4.8,0,0,0-3.86,4.77v2.79a5,5,0,0,0,.19,1.49l-.42.42a4.73,4.73,0,0,0-.92,1.3,4.79,4.79,0,0,0-.91-1.29l-.43-.43a5.09,5.09,0,0,0,.19-1.46V12.46c0-.11,0-.26,0-.37A4.82,4.82,0,0,0,27,7.68l-15.2-3a5,5,0,0,0-.95-.09A4.8,4.8,0,0,0,6.06,8.91c0,.14,0,.3,0,.45v3.08a5.34,5.34,0,0,0,.09.85l3.05,15.2A4.82,4.82,0,0,0,12.12,32a4.82,4.82,0,0,0-2.94,3.51l-3,15.19a3.59,3.59,0,0,0-.09.79.41.41,0,0,0,0,.11v3.07a3.75,3.75,0,0,0,0,.48,4.82,4.82,0,0,0,4.77,4.31,5,5,0,0,0,.95-.09l15.2-3a4.81,4.81,0,0,0,3.86-4.77v-2.8a4.93,4.93,0,0,0-.19-1.48l.42-.43A4.68,4.68,0,0,0,32,45.55a4.64,4.64,0,0,0,.91,1.29l.43.43a5.07,5.07,0,0,0-.19,1.45v2.82c0,.11,0,.26,0,.37A4.82,4.82,0,0,0,37,56.32l15.2,3a5,5,0,0,0,.95.09A4.84,4.84,0,0,0,58,55c0-.09,0-.19,0-.28s0-3.12,0-3.14a4.15,4.15,0,0,0-.08-.84l-3-15.2A4.82,4.82,0,0,0,51.88,32,4.82,4.82,0,0,0,54.82,28.49ZM15.69,32a4.87,4.87,0,0,0,1.46-.92l.92.92-.92.92A4.68,4.68,0,0,0,15.69,32Zm17.23,5a4.73,4.73,0,0,0-.92,1.3,4.86,4.86,0,0,0-.91-1.29L26,32l5-5a4.73,4.73,0,0,0,.92-1.3A4.86,4.86,0,0,0,32.91,27L38,32Zm13-5,.92-.92a4.87,4.87,0,0,0,1.46.92,4.68,4.68,0,0,0-1.46.92Z"/><path class="cls-4" d="M28.49,20.55h0a.78.78,0,0,0-.23-.55l-2.84-2.84L26.61,16a.8.8,0,0,0,.24-.62h0v-3h0a.8.8,0,0,0-.65-.74L11,8.56a.8.8,0,0,0-1,.72h0v3.05h0a.41.41,0,0,0,0,.16l3,15.2a.8.8,0,0,0,1.36.41l2.69-2.69,4.34,4.34a.8.8,0,0,0,1.13,0l5.64-5.64a.79.79,0,0,0,.22-.51h0V20.56Z"/><path class="cls-4" d="M54,9.3h0a.8.8,0,0,0-1-.72l-15.2,3a.8.8,0,0,0-.65.81v2.92a.85.85,0,0,0,.23.63l1.2,1.19L35.74,20a.78.78,0,0,0-.23.55h0v3.06h0a.79.79,0,0,0,.22.51l5.64,5.64a.8.8,0,0,0,1.13,0l4.34-4.34,2.69,2.69a.8.8,0,0,0,1.36-.41l3-15.2c0-.05,0-.1,0-.15h0v0h0Z"/><path class="cls-5" d="M23.92,15.65,26.61,13a.8.8,0,0,0-.41-1.36L11,8.56a.79.79,0,0,0-.94.94l3,15.2a.8.8,0,0,0,1.36.41l2.69-2.69,4.34,4.34a.8.8,0,0,0,1.13,0l5.64-5.64a.8.8,0,0,0,0-1.13Z"/><path class="cls-5" d="M41.38,26.76a.8.8,0,0,0,1.13,0l4.34-4.34,2.69,2.69a.8.8,0,0,0,1.36-.41l3-15.2A.79.79,0,0,0,53,8.56l-15.2,3A.81.81,0,0,0,37.38,13l2.7,2.69L35.74,20a.8.8,0,0,0,0,1.13Z"/><path class="cls-4" d="M54,51.67h0a.78.78,0,0,0,0-.16l-3-15.21a.81.81,0,0,0-1.36-.41l-2.69,2.7-4.34-4.34a.8.8,0,0,0-1.13,0l-5.64,5.64a.79.79,0,0,0-.22.51h0v3h0v0h0a.78.78,0,0,0,.23.55l2.84,2.84L37.38,48a.83.83,0,0,0-.23.62h0v3h0a.8.8,0,0,0,.65.74l15.2,3a.8.8,0,0,0,1-.72h0v-3Z"/><path class="cls-4" d="M28.48,40.4h0a.79.79,0,0,0-.22-.51l-5.64-5.64a.8.8,0,0,0-1.13,0l-4.34,4.34-2.69-2.7a.81.81,0,0,0-1.36.41l-3,15.21a.39.39,0,0,0,0,.15h0v0h0v3h0a.8.8,0,0,0,1,.72l15.2-3a.81.81,0,0,0,.65-.81V48.67a.83.83,0,0,0-.24-.63l-1.19-1.19L28.26,44a.78.78,0,0,0,.23-.55h0v-3A.11.11,0,0,0,28.48,40.4Z"/><path class="cls-5" d="M50.9,36.29a.81.81,0,0,0-1.36-.41l-2.69,2.7-4.34-4.34a.8.8,0,0,0-1.13,0l-5.64,5.64a.8.8,0,0,0,0,1.13l4.34,4.34L37.38,48a.81.81,0,0,0,.42,1.36l15.2,3a.79.79,0,0,0,.94-.94Z"/><path class="cls-5" d="M22.62,34.24a.8.8,0,0,0-1.13,0l-4.34,4.34-2.69-2.7a.81.81,0,0,0-1.36.41l-3,15.21a.79.79,0,0,0,.94.94l15.2-3A.8.8,0,0,0,26.61,48l-2.69-2.69L28.26,41a.8.8,0,0,0,0-1.13Z"/></g></g></svg>