<svg xmlns="http://www.w3.org/2000/svg" viewBox="0 0 64 64"><defs><style>.cls-1{opacity:0;}.cls-2,.cls-4{fill:#fff;}.cls-3{fill:#80bad9;}.cls-3,.cls-4{fill-rule:evenodd;}</style></defs><title>Arrows Expand </title><g id="Layer_2" data-name="Layer 2"><g id="Layer_3" data-name="Layer 3"><g class="cls-1"><rect class="cls-2" width="64" height="64"/></g><path class="cls-3" d="M28.49,20.55h0a.78.78,0,0,0-.23-.55l-2.84-2.84L26.62,16a.83.83,0,0,0,.23-.62h0v-3h0a.8.8,0,0,0-.65-.74L11,8.56a.8.8,0,0,0-1,.72h0v3.05h0a.41.41,0,0,0,0,.16l3,15.2a.8.8,0,0,0,1.36.41l2.69-2.69,4.34,4.34a.8.8,0,0,0,1.13,0l5.64-5.64a.79.79,0,0,0,.22-.51h0V20.56Z"/><path class="cls-3" d="M54,9.3h0a.8.8,0,0,0-1-.72l-15.2,3a.8.8,0,0,0-.65.81v2.92a.85.85,0,0,0,.23.63l1.2,1.19L35.74,20a.78.78,0,0,0-.23.55h0v3a.17.17,0,0,0,0,.07v0h0a.79.79,0,0,0,.22.51l5.64,5.64a.8.8,0,0,0,1.13,0l4.34-4.34,2.69,2.69a.8.8,0,0,0,1.36-.41l3-15.2a.77.77,0,0,0,0-.15h0v0h0Z"/><path class="cls-3" d="M54,54.67v-3l-.74-.77L50.9,39.3a.81.81,0,0,0-1.36-.42l-2.69,2.7-4.34-4.34a.8.8,0,0,0-1.13,0l-3.67,3.67-2.2-.52v3h0v0h0a.78.78,0,0,0,.23.55l3.41,3.41-2,1.24v3h0a.8.8,0,0,0,.65.74l15.2,3a.8.8,0,0,0,1-.72h0Z"/><path class="cls-3" d="M28.49,43.43v-3l-2.19.51-3.67-3.66a.8.8,0,0,0-1.13,0l-4.34,4.34-2.69-2.7a.81.81,0,0,0-1.36.42L10.78,50.88l-.74.78v3h0a.8.8,0,0,0,1,.72l15.2-3a.8.8,0,0,0,.65-.81V48.66l-2-1.24L28.26,44a.78.78,0,0,0,.23-.55h0Z"/><path class="cls-4" d="M23.92,15.65,26.62,13a.81.81,0,0,0-.42-1.36L11,8.56a.79.79,0,0,0-.94.94l3,15.2a.8.8,0,0,0,1.36.41l2.69-2.69,4.34,4.34a.8.8,0,0,0,1.13,0l5.64-5.64a.8.8,0,0,0,0-1.13Z"/><path class="cls-4" d="M41.38,26.76a.8.8,0,0,0,1.13,0l4.34-4.34,2.69,2.69a.8.8,0,0,0,1.36-.41l3-15.2A.79.79,0,0,0,53,8.56l-15.2,3A.81.81,0,0,0,37.38,13l2.7,2.69L35.74,20a.8.8,0,0,0,0,1.13Z"/><path class="cls-4" d="M50.9,36.3a.81.81,0,0,0-1.36-.42l-2.69,2.7-4.34-4.34a.8.8,0,0,0-1.13,0l-5.64,5.64a.8.8,0,0,0,0,1.13l4.34,4.34L37.38,48a.81.81,0,0,0,.42,1.36l15.2,3a.79.79,0,0,0,.94-.94Z"/><path class="cls-4" d="M22.62,34.24a.8.8,0,0,0-1.13,0l-4.34,4.34-2.69-2.7a.81.81,0,0,0-1.36.42l-3,15.2a.79.79,0,0,0,.94.94l15.2-3A.81.81,0,0,0,26.62,48l-2.7-2.69L28.26,41a.8.8,0,0,0,0-1.13Z"/></g></g></svg>