<svg xmlns="http://www.w3.org/2000/svg" viewBox="0 0 64 64"><defs><style>.cls-1{opacity:0;}.cls-2,.cls-3{fill:#fff;}.cls-3{fill-rule:evenodd;}</style></defs><title>Arrows Expand White </title><g id="Layer_2" data-name="Layer 2"><g id="Layer_3" data-name="Layer 3"><g class="cls-1"><rect class="cls-2" width="64" height="64"/></g><path class="cls-3" d="M49.54,37.38l-2.69,2.7-4.34-4.34a.8.8,0,0,0-1.13,0l-5.64,5.64a.8.8,0,0,0,0,1.13l4.34,4.34-2.7,2.69a.81.81,0,0,0,.42,1.36l15.2,3a.79.79,0,0,0,.94-.94l-3-15.2A.81.81,0,0,0,49.54,37.38Z"/><path class="cls-3" d="M14.46,26.62l2.69-2.7,4.34,4.34a.8.8,0,0,0,1.13,0l5.64-5.64a.8.8,0,0,0,0-1.13l-4.34-4.34,2.7-2.69a.81.81,0,0,0-.42-1.36l-15.2-3a.79.79,0,0,0-.94.94l3,15.2A.81.81,0,0,0,14.46,26.62Z"/><path class="cls-3" d="M26.62,49.54l-2.7-2.69,4.34-4.34a.8.8,0,0,0,0-1.13l-5.64-5.64a.8.8,0,0,0-1.13,0l-4.34,4.34-2.69-2.7a.81.81,0,0,0-1.36.42l-3,15.2a.79.79,0,0,0,.94.94l15.2-3A.81.81,0,0,0,26.62,49.54Z"/><path class="cls-3" d="M37.38,14.46l2.7,2.69-4.34,4.34a.8.8,0,0,0,0,1.13l5.64,5.64a.8.8,0,0,0,1.13,0l4.34-4.34,2.69,2.7a.81.81,0,0,0,1.36-.42l3-15.2a.79.79,0,0,0-.94-.94l-15.2,3A.81.81,0,0,0,37.38,14.46Z"/></g></g></svg>