<?xml version="1.0" encoding="UTF-8"?>
<svg id="Layer_2" data-name="Layer 2" xmlns="http://www.w3.org/2000/svg" viewBox="0 0 64 64">
  <defs>
    <style>
      .cls-1 {
        fill: #ffdfb5;
      }

      .cls-2 {
        fill: #f0ba84;
      }

      .cls-3 {
        opacity: 0;
      }

      .cls-3, .cls-4 {
        fill: #1a1a1a;
      }
    </style>
  </defs>
  <g id="Outlines">
    <g id="Shark_Tooth_Outline" data-name="Shark Tooth Outline">
      <rect class="cls-3" width="64" height="64"/>
      <g>
        <path class="cls-4" d="M38.61,63.5c-.54,0-1.09-.11-1.6-.33-.65-.28-15.95-7.03-24-16.91-.46-.56-.75-1.24-.86-1.96-.03-.21-3.03-20.97-6.67-29.29-.58-1.32-.4-2.85,.47-4.01,.14-.19,3.6-4.77,8.53-9.41,.76-.71,1.74-1.09,2.74-1.09,.53,0,1.07,.11,1.58,.33,.05,.02,6.32,2.65,14.18,2.65,4.56,0,8.75-.88,12.46-2.6,.54-.25,1.11-.37,1.69-.37,.84,0,1.68,.26,2.38,.78,1.15,.85,7.01,5.33,9,9.99,.34,.8,.42,1.7,.2,2.55-.05,.2-1.26,4.95-5.83,14.66-.17,.35-.38,.68-.64,.96-.07,.08-8.56,10.01-9.65,30.27-.07,1.31-.78,2.5-1.89,3.19-.64,.4-1.37,.6-2.1,.6Z"/>
        <path class="cls-2" d="M16.12,43.73s-3.06-21.41-6.96-30.32c0,0,3.34-4.44,8.08-8.91,0,0,15.52,6.69,29.91,0,0,0,6.03,4.45,7.7,8.35,0,0-1.11,4.46-5.57,13.93,0,0-9.47,10.59-10.66,32.72,0,0-14.97-6.53-22.49-15.77Z"/>
        <path class="cls-1" d="M54.84,12.85s-11.46,5.77-26.07,4.56c0,0-3.61,25.78,9.84,42.09,1.19-22.13,10.66-32.72,10.66-32.72,4.46-9.47,5.57-13.93,5.57-13.93Z"/>
      </g>
    </g>
  </g>
</svg>