<svg xmlns="http://www.w3.org/2000/svg" viewBox="0 0 64 64"><defs><style>.cls-1,.cls-2{fill:#fff;}.cls-1{opacity:0;}.cls-2{fill-rule:evenodd;}</style></defs><title>Storm White</title><g id="Layer_2" data-name="Layer 2"><g id="Layer_2-2" data-name="Layer 2"><rect class="cls-1" width="64" height="64"/><path class="cls-2" d="M55.57,37.83a19.69,19.69,0,0,0-3.84-1.18c2-2.19,5.59-7.08,4.17-13.11-2.25-9.57-12-3.76-12-3.76S44.22.35,30.62,5.31C17.92,9.94,21,25.43,21,25.43,18.57,22.24,10.4,20,8.71,27.3a10.16,10.16,0,0,0,3,9.42A19.54,19.54,0,0,0,8.2,37.83c-.9.41-.27,1.86.8,1.86H24.66L22.79,48.2a1,1,0,0,0,1,1.18l6.66-.23-2.66,9.1a1,1,0,0,0,1.65.94L42.23,45.45a1,1,0,0,0-.67-1.63l-4.89-.19,1.71-3.94H54.77C55.84,39.69,56.47,38.24,55.57,37.83Z"/></g></g></svg>