<svg xmlns="http://www.w3.org/2000/svg" viewBox="0 0 64 64"><defs><style>.cls-1,.cls-2{fill:#1a1a1a;}.cls-1{opacity:0;}.cls-2,.cls-3,.cls-4,.cls-5{fill-rule:evenodd;}.cls-3{fill:#fdbc0d;}.cls-4{fill:#476475;}.cls-5{fill:#7b97a6;}</style></defs><title>Storm Outline</title><g id="Layer_2" data-name="Layer 2"><g id="Layer_2-2" data-name="Layer 2"><rect class="cls-1" width="64" height="64"/><path class="cls-2" d="M58,34.66a17.14,17.14,0,0,0,1.76-12C58.52,17.16,54.9,14,49.87,14a12.62,12.62,0,0,0-2.41.24c-.58-3.38-1.87-7.56-4.69-10.43a11.06,11.06,0,0,0-8-3.34,16,16,0,0,0-5.47,1.05C20.54,4.73,17.44,12.2,16.8,18.66a12.48,12.48,0,0,0-2.35-.23c-4.81,0-8.49,3.05-9.63,8a13.2,13.2,0,0,0,.78,8.37,4.74,4.74,0,0,0-1.71,4.78A5.27,5.27,0,0,0,9,43.69H19.69l-.8,3.66a5,5,0,0,0,4.85,6l1.3,0-1.1,3.79a4.94,4.94,0,0,0,.78,4.37,5,5,0,0,0,4,2,4.9,4.9,0,0,0,3.63-1.59L45.16,48.18a5,5,0,0,0,1.21-4.49h8.41a5.27,5.27,0,0,0,5.11-4.14A4.74,4.74,0,0,0,58,34.66Z"/><path class="cls-3" d="M26.77,30.1l-4,18.1a1,1,0,0,0,1,1.18l6.65-.23-2.65,9.1a1,1,0,0,0,1.64.94L42.24,45.45a1,1,0,0,0-.68-1.63l-4.88-.19,3.77-8.72Z"/><path class="cls-4" d="M55.57,37.83a19.69,19.69,0,0,0-3.84-1.18c2-2.19,5.6-7.08,4.18-13.11-2.25-9.57-12-3.76-12-3.76S44.23.35,30.63,5.31C17.93,9.94,21,25.43,21,25.43,18.57,22.24,10.41,20,8.72,27.3a10.16,10.16,0,0,0,3,9.42,19.4,19.4,0,0,0-3.5,1.11c-.9.41-.27,1.86.79,1.86H54.78C55.84,39.69,56.47,38.24,55.57,37.83Z"/><path class="cls-5" d="M9,39.69H54.78c1.06,0,1.69-1.45.79-1.86a19.69,19.69,0,0,0-3.84-1.18s3.11-6.73-1.1-9.89c-4.44-3.33-9.62.58-9.62.58s-.4-12.26-11.2-8.6c-9.09,3.07-6.71,12.8-6.71,12.8s-7.28-4.22-10.71-1.41c-3.26,2.69-.68,6.59-.68,6.59a19.4,19.4,0,0,0-3.5,1.11C7.31,38.24,7.94,39.69,9,39.69Z"/><path class="cls-4" d="M18.42,35.66A9.34,9.34,0,0,1,28.77,32c.47.12.85-.45.46-.71-3.15-2.07-8.83-4.29-11.6,4.1C17.48,35.83,18.12,36.05,18.42,35.66Z"/></g></g></svg>