<svg xmlns="http://www.w3.org/2000/svg" viewBox="0 0 64 64"><defs><style>.cls-1{fill:none;}.cls-2{fill:#1a1a1a;}.cls-3{isolation:isolate;}.cls-4{fill:#a72d3e;}.cls-5{fill:#e62e49;}.cls-6{fill:#fc9504;}.cls-7{fill:#fdbc0d;}.cls-8{fill:#1778ff;}.cls-9{fill:#37b9ff;}</style></defs><title>Stats Outline</title><g id="Layer_2" data-name="Layer 2"><g id="Layer_2-2" data-name="Layer 2"><rect class="cls-1" width="64" height="64"/><path class="cls-2" d="M57,12.51,47.19,9.87l.05-3a4,4,0,0,0-3-3.95L32.9.12a4,4,0,0,0-1-.12,4.46,4.46,0,0,0-.63.05L21.61,1.61a4,4,0,0,0-3.37,3.95V26.31h-.1a3.55,3.55,0,0,0-.86.1L7.14,28.63A4,4,0,0,0,4,32.58l.28,22.57A4,4,0,0,0,6.6,58.73l10.56,4.9a4,4,0,0,0,1.69.37A3.82,3.82,0,0,0,20,63.84L30,60.92a4,4,0,0,0,1.87-1.18,4,4,0,0,0,1.09.15,4.18,4.18,0,0,0,1.11-.15L43.53,57a4,4,0,0,0,1.76-1.06,3.73,3.73,0,0,0,.94.12,4.19,4.19,0,0,0,1.11-.16l8.81-2.56A4,4,0,0,0,59,49.62l1-33.13A4,4,0,0,0,57,12.51Z"/><g class="cls-3"><polygon class="cls-4" points="46.23 52.06 35.34 47.75 35.72 15.05 46.95 18.22 46.23 52.06"/><polygon class="cls-4" points="46.95 18.22 35.72 15.05 44.7 13.34 56 16.38 46.95 18.22"/><polygon class="cls-5" points="56 16.38 55.04 49.5 46.23 52.06 46.95 18.22 56 16.38"/></g><g class="cls-3"><polygon class="cls-6" points="33 55.9 22.25 51.31 22.25 5.56 33.45 8.5 33 55.9"/><polygon class="cls-6" points="33.45 8.5 22.25 5.56 31.93 4 43.24 6.81 33.45 8.5"/><polygon class="cls-7" points="43.24 6.81 42.41 53.16 33 55.9 33.45 8.5 43.24 6.81"/></g><g class="cls-3"><polygon class="cls-8" points="18.85 60 8.28 55.1 8 32.53 18.77 36.61 18.85 60"/><polygon class="cls-8" points="18.77 36.61 8 32.53 18.15 30.31 29.06 34.2 18.77 36.61"/><polygon class="cls-9" points="29.06 34.2 28.93 57.08 18.85 60 18.77 36.61 29.06 34.2"/></g></g></g></svg>