<svg xmlns="http://www.w3.org/2000/svg" viewBox="0 0 64 64"><defs><style>.cls-1{opacity:0;}.cls-2{fill:#1a1a1a;}.cls-3{fill:#37b9ff;}.cls-4{fill:#fdbc0d;}.cls-5{fill:#e62e49;}</style></defs><title>Stats 2 Outline</title><g id="Layer_2" data-name="Layer 2"><g id="Weapons_BW" data-name="Weapons BW"><g class="cls-1"><rect class="cls-2" width="64" height="64"/></g><path class="cls-2" d="M57.5,16H45.74a6,6,0,0,0-1.86.3V6.5a6,6,0,0,0-6-6H26.12a6,6,0,0,0-6,6V29.87a6,6,0,0,0-1.86-.3H6.5a6,6,0,0,0-6,6V57.5a6,6,0,0,0,6,6H18.26A6,6,0,0,0,22.19,62a6,6,0,0,0,3.93,1.47H37.88A6,6,0,0,0,41.81,62a6,6,0,0,0,3.93,1.47H57.5a6,6,0,0,0,6-6V22A6,6,0,0,0,57.5,16Z"/><rect class="cls-3" x="4.5" y="33.57" width="15.76" height="25.93" rx="2"/><rect class="cls-4" x="24.12" y="4.5" width="15.76" height="55" rx="2"/><rect class="cls-5" x="43.74" y="20" width="15.76" height="39.5" rx="2"/></g></g></svg>