<?xml version="1.0" encoding="UTF-8"?>
<svg id="Layer_2" data-name="Layer 2" xmlns="http://www.w3.org/2000/svg" viewBox="0 0 64 64">
  <defs>
    <style>
      .cls-1 {
        fill: #f67714;
      }

      .cls-2 {
        fill: #fec92b;
      }

      .cls-3 {
        fill: #1778ff;
      }

      .cls-4 {
        fill: #37b9ff;
      }

      .cls-5 {
        fill: rgba(26, 26, 26, 0);
      }
    </style>
  </defs>
  <g id="Colour">
    <g>
      <rect class="cls-5" width="64" height="64"/>
      <g>
        <path class="cls-3" d="M59.5,19.42h-.01c.03-.35-.06-.71-.28-1.02-.1-.15-.23-.27-.37-.38l-14.82-10.52c-.71-.49-1.69-.31-2.18,.4-.18,.26-.27,.56-.28,.88v3.64h-13.75c-.87,0-1.57,.7-1.57,1.57v18.5c0,.87,.7,1.57,1.57,1.57h13.75v3.63c0,.87,.71,1.56,1.58,1.55,.31,0,.62-.1,.88-.28l14.82-10.52c.43-.3,.66-.79,.66-1.28h0v-7.74Z"/>
        <path class="cls-4" d="M58.84,18.03l-14.82-10.52c-.71-.49-1.69-.31-2.18,.4-.18,.26-.27,.56-.28,.88v3.64h-13.75c-.87,0-1.57,.7-1.57,1.57v10.65c0,.87,.7,1.57,1.57,1.57h13.75v3.63c0,.87,.71,1.56,1.58,1.55,.31,0,.62-.1,.88-.28l14.82-10.52c.71-.5,.87-1.48,.38-2.18-.1-.15-.23-.27-.38-.38Z"/>
        <path class="cls-1" d="M36.22,29.95h-13.75v-3.63c0-.87-.71-1.56-1.58-1.55-.31,0-.62,.1-.88,.28l-14.86,10.52c-.43,.31-.66,.79-.66,1.28h0v7.86h0c0,.31,.09,.63,.29,.91,.1,.14,.23,.27,.37,.37l14.82,10.52c.71,.49,1.69,.31,2.18-.4,.18-.26,.27-.56,.28-.88v-3.64h13.75c.87,0,1.57-.7,1.57-1.57V31.51c0-.85-.68-1.54-1.53-1.56Z"/>
        <path class="cls-2" d="M36.22,29.95h-13.75v-3.63c0-.87-.71-1.56-1.58-1.55-.31,0-.62,.1-.88,.28l-14.86,10.52c-.71,.5-.87,1.48-.37,2.18,.1,.14,.23,.27,.37,.37l14.82,10.52c.71,.49,1.69,.31,2.18-.4,.18-.26,.27-.56,.28-.88v-3.64h13.75c.87,0,1.57-.7,1.57-1.57h0v-10.65c0-.85-.68-1.54-1.53-1.56Z"/>
      </g>
    </g>
  </g>
</svg>