<?xml version="1.0" encoding="UTF-8"?>
<svg id="Layer_2" data-name="Layer 2" xmlns="http://www.w3.org/2000/svg" viewBox="0 0 64 64">
  <defs>
    <style>
      .cls-1 {
        fill: #f67714;
      }

      .cls-2 {
        fill: #fec92b;
      }

      .cls-3 {
        fill: #1778ff;
      }

      .cls-4 {
        fill: #37b9ff;
      }

      .cls-5 {
        fill: rgba(26, 26, 26, 0);
      }

      .cls-6 {
        fill: #1a1a1a;
      }
    </style>
  </defs>
  <g id="Colour">
    <g>
      <rect class="cls-5" width="64" height="64"/>
      <g>
        <path class="cls-6" d="M63.49,19.16c-.03-1.1-.38-2.17-1.01-3.06-.37-.52-.81-.97-1.33-1.33l-14.87-10.55c-.93-.64-2.03-.98-3.16-.98-1.83,0-3.55,.9-4.58,2.41-.57,.82-.9,1.77-.97,2.78h-9.76c-3.07,0-5.57,2.5-5.57,5.57v6.96c-.44-.11-.9-.19-1.38-.19-1.12,0-2.2,.35-3.16,1.01L2.84,32.3c-1.38,.98-2.24,2.55-2.33,4.24,0,.1-.01,.2-.01,.3v7.86c0,.1,0,.19,0,.29,.05,1.06,.4,2.07,1.02,2.94,.36,.51,.8,.95,1.31,1.31l14.87,10.55c.93,.64,2.03,.98,3.16,.98,1.83,0,3.54-.9,4.58-2.41,.57-.82,.9-1.77,.97-2.78h9.76c3.07,0,5.57-2.5,5.57-5.57v-6.96c.44,.11,.9,.19,1.37,.19h.05c1.12-.01,2.2-.35,3.15-1.02l14.82-10.52c1.39-.98,2.25-2.56,2.34-4.25,0-.1,.01-.2,.01-.3v-7.74c0-.09,0-.17,0-.26Z"/>
        <path class="cls-3" d="M59.5,19.42h-.01c.03-.35-.06-.71-.28-1.02-.1-.15-.23-.27-.37-.38l-14.82-10.52c-.71-.49-1.69-.31-2.18,.4-.18,.26-.27,.56-.28,.88v3.64h-13.75c-.87,0-1.57,.7-1.57,1.57v18.5c0,.87,.7,1.57,1.57,1.57h13.75v3.63c0,.87,.71,1.56,1.58,1.55,.31,0,.62-.1,.88-.28l14.82-10.52c.43-.3,.66-.79,.66-1.28h0v-7.74Z"/>
        <path class="cls-4" d="M58.84,18.03l-14.82-10.52c-.71-.49-1.69-.31-2.18,.4-.18,.26-.27,.56-.28,.88v3.64h-13.75c-.87,0-1.57,.7-1.57,1.57v10.65c0,.87,.7,1.57,1.57,1.57h13.75v3.63c0,.87,.71,1.56,1.58,1.55,.31,0,.62-.1,.88-.28l14.82-10.52c.71-.5,.87-1.48,.38-2.18-.1-.15-.23-.27-.38-.38Z"/>
        <path class="cls-1" d="M36.22,29.95h-13.75v-3.63c0-.87-.71-1.56-1.58-1.55-.31,0-.62,.1-.88,.28l-14.86,10.52c-.43,.31-.66,.79-.66,1.28h0v7.86h0c0,.31,.09,.63,.29,.91,.1,.14,.23,.27,.37,.37l14.82,10.52c.71,.49,1.69,.31,2.18-.4,.18-.26,.27-.56,.28-.88v-3.64h13.75c.87,0,1.57-.7,1.57-1.57V31.51c0-.85-.68-1.54-1.53-1.56Z"/>
        <path class="cls-2" d="M36.22,29.95h-13.75v-3.63c0-.87-.71-1.56-1.58-1.55-.31,0-.62,.1-.88,.28l-14.86,10.52c-.71,.5-.87,1.48-.37,2.18,.1,.14,.23,.27,.37,.37l14.82,10.52c.71,.49,1.69,.31,2.18-.4,.18-.26,.27-.56,.28-.88v-3.64h13.75c.87,0,1.57-.7,1.57-1.57h0v-10.65c0-.85-.68-1.54-1.53-1.56Z"/>
      </g>
    </g>
  </g>
</svg>