<svg xmlns="http://www.w3.org/2000/svg" viewBox="0 0 128 128"><defs><style>.cls-1{fill:none;}.cls-2{fill:#1a1a1a;}</style></defs><title>Trade Black </title><g id="Layer_2" data-name="Layer 2"><g id="_1-13" data-name="1-13"><rect class="cls-1" width="128" height="128"/><path class="cls-2" d="M72.6,67.82h-28v-7.4a3.19,3.19,0,0,0-5-2.6L9.34,79.25a3.19,3.19,0,0,0,0,5.2l30.19,21.43a3.19,3.19,0,0,0,5-2.6V95.87h28a3.19,3.19,0,0,0,3.19-3.19V71A3.19,3.19,0,0,0,72.6,67.82Z"/><path class="cls-2" d="M118.66,43.55,88.47,22.12a3.19,3.19,0,0,0-5,2.6v7.41h-28a3.19,3.19,0,0,0-3.19,3.19V57a3.19,3.19,0,0,0,3.19,3.19h28v7.4a3.19,3.19,0,0,0,5,2.6l30.19-21.43A3.19,3.19,0,0,0,118.66,43.55Z"/></g></g></svg>