<svg xmlns="http://www.w3.org/2000/svg" viewBox="0 0 64 64"><defs><style>.cls-1{fill:#1a1a1a;opacity:0;}.cls-2{fill:#bb5938;}.cls-3{fill:#d1864b;}.cls-4{fill:#ebb369;}</style></defs><title>Chair Wood</title><g id="Layer_2" data-name="Layer 2"><g id="Layer_3" data-name="Layer 3"><rect class="cls-1" width="64" height="64"/><path class="cls-2" d="M42.57,35.09V49.46C42.57,51.21,44,52,45.74,52s3.16-.81,3.16-2.56V35.09Z"/><path class="cls-2" d="M14.33,35.09V49.46c0,1.75,1.42,2.56,3.17,2.56s3.17-.81,3.17-2.56V35.09Z"/><path class="cls-2" d="M28.21,39.78V56.57c0,2,1.59,2.93,3.54,2.93s3.54-1,3.54-2.93V39.78Z"/><path class="cls-3" d="M48.9,49.46V35.09h-4V48.7c0,1.75,1.42,2.56,3.17,2.56h.1A2.26,2.26,0,0,0,48.9,49.46Z"/><path class="cls-3" d="M20.67,49.46V35.09h-4V48.7c0,1.75,1.41,2.56,3.16,2.56h.11A2.29,2.29,0,0,0,20.67,49.46Z"/><path class="cls-3" d="M35.29,56.57V39.78H30.5v16c0,2,1.59,2.94,3.55,2.94l.26,0A2.66,2.66,0,0,0,35.29,56.57Z"/><polygon class="cls-4" points="31.62 22.29 12.57 31.24 31.62 38.66 52.63 30.48 31.62 22.29"/><polygon class="cls-3" points="52.64 36.74 52.64 30.48 31.62 38.56 31.62 44.83 52.64 36.74"/><polygon class="cls-2" points="16.71 32.83 16.71 13.63 11.36 11.34 11.37 30.48 11.46 30.51 11.36 30.48 11.36 36.74 31.62 44.83 31.62 38.56 16.71 32.83"/><polygon class="cls-3" points="38.93 6.14 16.71 13.63 16.71 32.83 38.16 24.84 38.93 6.14"/><polygon class="cls-4" points="11.36 11.34 32.9 4.5 38.93 6.14 16.71 13.63 11.36 11.34"/></g></g></svg>