<svg xmlns="http://www.w3.org/2000/svg" viewBox="0 0 64 64"><defs><style>.cls-1,.cls-2{fill:#1a1a1a;}.cls-1{opacity:0;}</style></defs><title>Chair Flat Black</title><g id="Layer_2" data-name="Layer 2"><g id="Layer_3" data-name="Layer 3"><rect class="cls-1" width="64" height="64"/><path class="cls-2" d="M52.63,31.84A2,2,0,0,0,51.36,30l-13.2-5.14h0l.7-17.1a2,2,0,0,0-1.47-2L34,4.81a4,4,0,0,0-2.27.05l-19,6a2,2,0,0,0-1.4,1.91V30.48l.09,0-.1,0v4.91a2,2,0,0,0,1.26,1.86l1.71.68V49.07A3,3,0,0,0,17.08,52c1.93.13,3.59-.66,3.59-2.55v-9l7.54,3V56a3.48,3.48,0,0,0,3.34,3.47c2.05.07,3.74-.91,3.74-2.93V43.41l7.28-2.79v8.45A3,3,0,0,0,45.31,52c1.94.13,3.59-.66,3.59-2.55V38.18l2.46-1a2,2,0,0,0,1.28-1.86Z"/></g></g></svg>