<svg xmlns="http://www.w3.org/2000/svg" viewBox="0 0 64 64"><defs><style>.cls-1{fill:#1a1a1a;opacity:0;}.cls-2{fill:#fff;}</style></defs><title>Chair Flat White</title><g id="Layer_2" data-name="Layer 2"><g id="Layer_3" data-name="Layer 3"><rect class="cls-1" width="64" height="64"/><path class="cls-2" d="M52.63,31.76a2,2,0,0,0-1.27-1.86l-13.2-5.14h0l.7-17.11a2,2,0,0,0-1.47-2L34,4.73a4,4,0,0,0-2.27,0l-19,6a2,2,0,0,0-1.4,1.91V30.39l.09,0-.1,0V35.3a2,2,0,0,0,1.26,1.86l1.71.68V49a3,3,0,0,0,2.75,2.93c1.93.14,3.59-.66,3.59-2.54v-9l7.54,3V56a3.46,3.46,0,0,0,3.34,3.46c2.05.07,3.74-.91,3.74-2.93V43.33l7.28-2.8V49a3,3,0,0,0,2.74,2.93c1.94.14,3.59-.66,3.59-2.54V38.1l2.46-1a2,2,0,0,0,1.28-1.87Z"/></g></g></svg>