<svg xmlns="http://www.w3.org/2000/svg" viewBox="0 0 64 64"><defs><style>.cls-1,.cls-2{fill:#1a1a1a;}.cls-1{opacity:0;}.cls-3{fill:#bb5938;}.cls-4{fill:#d1864b;}.cls-5{fill:#ebb369;}</style></defs><title>Chair Wood Outline</title><g id="Layer_2" data-name="Layer 2"><g id="Layer_3" data-name="Layer 3"><rect class="cls-1" width="64" height="64"/><path class="cls-2" d="M54.9,27.18a3.91,3.91,0,0,0-1-.49L42.28,22.15l.64-15.84a4,4,0,0,0-2.94-4L34,.64A4.15,4.15,0,0,0,32.9.5a3.83,3.83,0,0,0-1.21.19L10.15,7.52a4,4,0,0,0-2.79,3.82V30.17c0,.1,0,.21,0,.31v6.26a4,4,0,0,0,2.52,3.72l.45.18v8.82c0,3.8,3,6.56,7.17,6.56a7.43,7.43,0,0,0,5-1.77,6.08,6.08,0,0,0,.85-.91l.16-.22a7,7,0,0,0,.52-.9,3.65,3.65,0,0,0,.14-.35v4.7c0,4,3.17,6.93,7.54,6.93a7.93,7.93,0,0,0,5.06-1.66,6.69,6.69,0,0,0,1-1,6.44,6.44,0,0,0,.81-1.3,3.52,3.52,0,0,0,.18-.45,6.56,6.56,0,0,0,.3-1,7.1,7.1,0,0,0,.16-1.53V52.48A7,7,0,0,0,45.74,56a7.23,7.23,0,0,0,5.88-2.67,1.6,1.6,0,0,0,.16-.23,6.22,6.22,0,0,0,.55-1c.07-.15.13-.32.19-.49a5.61,5.61,0,0,0,.23-.8,6.69,6.69,0,0,0,.15-1.41V40.93l1.17-.45a4,4,0,0,0,2.57-3.74V30.48A4,4,0,0,0,54.9,27.18Z"/><path class="cls-3" d="M42.57,35.09V49.46C42.57,51.21,44,52,45.74,52s3.16-.81,3.16-2.56V35.09Z"/><path class="cls-3" d="M14.33,35.09V49.46c0,1.75,1.42,2.56,3.17,2.56s3.17-.81,3.17-2.56V35.09Z"/><path class="cls-3" d="M28.21,39.78V56.57c0,2,1.59,2.93,3.54,2.93s3.54-1,3.54-2.93V39.78Z"/><path class="cls-4" d="M48.9,49.46V35.09h-4V48.7c0,1.75,1.42,2.56,3.17,2.56h.1A2.26,2.26,0,0,0,48.9,49.46Z"/><path class="cls-4" d="M20.67,49.46V35.09h-4V48.7c0,1.75,1.41,2.56,3.16,2.56h.11A2.29,2.29,0,0,0,20.67,49.46Z"/><path class="cls-4" d="M35.29,56.57V39.78H30.5v16c0,2,1.59,2.94,3.55,2.94l.26,0A2.66,2.66,0,0,0,35.29,56.57Z"/><polygon class="cls-5" points="31.62 22.29 12.57 31.24 31.62 38.66 52.63 30.48 31.62 22.29"/><polygon class="cls-4" points="52.64 36.74 52.64 30.48 31.62 38.56 31.62 44.83 52.64 36.74"/><polygon class="cls-3" points="16.71 32.83 16.71 13.63 11.36 11.34 11.37 30.48 11.46 30.51 11.36 30.48 11.36 36.74 31.62 44.83 31.62 38.56 16.71 32.83"/><polygon class="cls-4" points="38.93 6.14 16.71 13.63 16.71 32.83 38.16 24.84 38.93 6.14"/><polygon class="cls-5" points="11.36 11.34 32.9 4.5 38.93 6.14 16.71 13.63 11.36 11.34"/></g></g></svg>