<?xml version="1.0" encoding="UTF-8"?>
<svg id="Layer_2" data-name="Layer 2" xmlns="http://www.w3.org/2000/svg" viewBox="0 0 64 64">
  <defs>
    <style>
      .cls-1 {
        opacity: 0;
      }

      .cls-1, .cls-2 {
        fill: #1a1a1a;
      }
    </style>
  </defs>
  <g id="BW">
    <g>
      <rect class="cls-1" width="64" height="64"/>
      <path class="cls-2" d="M58.94,26.03l-27.58-4.99,27.39-5.95c1.04-.23,1.94-.85,2.52-1.75,.57-.89,.77-1.98,.54-3.01l-1.12-5.17c-.59-2.71-3.02-4.67-5.79-4.67-.42,0-.85,.05-1.26,.14L10.36,10.03c-3.19,.69-5.23,3.85-4.53,7.05l.95,4.4L1.87,48.64c-.28,1.56,.06,3.13,.96,4.43,.9,1.3,2.26,2.17,3.81,2.45l43.58,7.88c.35,.06,.7,.09,1.06,.09,2.87,0,5.32-2.05,5.83-4.87l5.05-27.95c.39-2.17-1.05-4.25-3.22-4.65ZM49.31,5.67l6.24,6.03-7.06,1.53-6.24-6.03,7.06-1.53Zm-29.16,6.33l6.24,6.03-7.06,1.53-6.24-6.03,7.06-1.53Zm.32,18.48l-7.11-1.28,6.02-6.25,7.11,1.28-6.02,6.25Zm14.26-21.65l6.24,6.03-7.06,1.53-6.24-6.03,7.06-1.53Zm.42,24.3l-7.11-1.28,6.02-6.25,7.11,1.28-6.02,6.25Zm14.68,2.66l-7.1-1.28,6.02-6.25,7.11,1.28-6.02,6.25Z"/>
    </g>
  </g>
</svg>