<svg xmlns="http://www.w3.org/2000/svg" viewBox="0 0 64 64"><defs><style>.cls-1{fill:#1a1a1a;opacity:0;}.cls-2{fill:#bb5938;}.cls-3{fill:#d1864b;}.cls-4{fill:#e62e49;}.cls-5{fill:#c62d43;}.cls-6{fill:#a72d3e;}.cls-7{fill:#fff;}.cls-8{fill:#cef;}.cls-9{fill:#9bc5eb;}</style></defs><title>Table Checked</title><g id="Layer_2" data-name="Layer 2"><g id="Layer_3" data-name="Layer 3"><rect class="cls-1" width="64" height="64"/><path class="cls-2" d="M47.6,21.91V45.7c0,2.29,1.85,3.35,4.14,3.35S55.88,48,55.88,45.7V21.91Z"/><path class="cls-2" d="M8,21.91V45.7C8,48,9.9,49.05,12.18,49.05S16.33,48,16.33,45.7V21.91Z"/><path class="cls-2" d="M27.51,28V55c0,2.56,2.07,3.84,4.63,3.84s4.63-1.28,4.63-3.84V28Z"/><path class="cls-3" d="M55.88,45.7V21.91H50.6V44.7c0,2.29,1.85,3.35,4.14,3.35h.14A3,3,0,0,0,55.88,45.7Z"/><path class="cls-3" d="M16.33,45.7V21.91H11V44.7c0,2.29,1.86,3.35,4.14,3.35h.14A3,3,0,0,0,16.33,45.7Z"/><path class="cls-3" d="M36.77,55V28H30.51V54c0,2.56,2.07,3.84,4.63,3.84l.34,0A3.46,3.46,0,0,0,36.77,55Z"/><polygon class="cls-4" points="31.96 5.16 4.48 15.87 31.96 26.58 59.45 15.87 31.96 5.16"/><polygon class="cls-3" points="59.46 24.06 59.46 15.87 31.96 26.44 31.96 34.64 59.46 24.06"/><polygon class="cls-2" points="31.96 34.64 4.46 24.06 4.46 15.87 31.96 26.44 31.96 34.64"/><polygon class="cls-5" points="59.46 24.06 45.6 45.44 31.96 37.28 31.96 26.44 59.46 15.87 59.46 24.06"/><polygon class="cls-6" points="4.46 24.06 18.33 45.44 31.96 37.28 31.96 26.44 4.46 15.87 4.46 24.06"/><polygon class="cls-7" points="22.94 8.67 13.68 12.28 22.46 15.59 31.71 11.88 22.94 8.67"/><polygon class="cls-7" points="51.26 19.02 41.48 15.45 32 19.18 41.52 22.77 51.26 19.02"/><polygon class="cls-7" points="13.3 19.27 22.65 22.86 32 19.18 22.46 15.59 13.3 19.27"/><polygon class="cls-7" points="49.88 12.14 40.33 8.42 31.71 11.88 41.48 15.45 49.88 12.14"/><polygon class="cls-8" points="41.52 34.69 41.52 43 45.6 45.44 51.26 36.71 51.26 30.01 41.52 34.69"/><polygon class="cls-8" points="57.58 26.97 59.46 24.06 59.46 15.87 51.26 19.02 51.26 30.01 57.58 26.97"/><polygon class="cls-8" points="41.52 22.77 31.96 26.44 31.96 37.28 33.82 38.39 41.52 34.69 41.52 22.77"/><polygon class="cls-9" points="22.4 34.69 22.4 43 18.33 45.44 12.67 36.71 12.67 30.01 22.4 34.69"/><polygon class="cls-9" points="6.36 26.97 4.48 24.06 4.48 15.87 12.67 19.02 12.67 30.01 6.36 26.97"/><polygon class="cls-9" points="22.4 22.77 31.96 26.44 31.96 37.28 30.11 38.39 22.4 34.69 22.4 22.77"/></g></g></svg>