<svg xmlns="http://www.w3.org/2000/svg" viewBox="0 0 64 64"><defs><style>.cls-1,.cls-2{fill:#1a1a1a;}.cls-1{opacity:0;}.cls-3{fill:#bb5938;}.cls-4{fill:#d1864b;}.cls-5{fill:#e62e49;}.cls-6{fill:#c62d43;}.cls-7{fill:#a72d3e;}.cls-8{fill:#fff;}.cls-9{fill:#cef;}.cls-10{fill:#9bc5eb;}</style></defs><title>Table Checked Outline</title><g id="Layer_2" data-name="Layer 2"><g id="Layer_3" data-name="Layer 3"><rect class="cls-1" width="64" height="64"/><path class="cls-2" d="M63.5,21.26c0-.25,0-.49,0-.7V15.87a4,4,0,0,0-1.73-3.3,4.07,4.07,0,0,0-1-.5L35.58,2.28l-.31-.16a7.42,7.42,0,0,0-3.31-1,5.9,5.9,0,0,0-2.66.73l-.1.05-25,9.76h0a5.08,5.08,0,0,0-2.81,1.67A4.88,4.88,0,0,0,.46,17v6.43a5.6,5.6,0,0,0,.59,2.73,23,23,0,0,0,2,3.12c.39.54.76,1.05,1.06,1.54,0,.12,0,.25,0,.36,0,.32,0,.64,0,.93V44.79c0,5.64,3.49,7.4,5.58,8a10.39,10.39,0,0,0,2.62.33,8.34,8.34,0,0,0,6.12-2.4,6.83,6.83,0,0,0,1-1.36,6.1,6.1,0,0,0,2.14-1.11l0,0L23.46,47c0,2.64,0,5.32.05,8a7.77,7.77,0,0,0,6.33,7.57,10.39,10.39,0,0,0,2.3.25c4.11,0,7.39-2.26,8.35-5.75a11,11,0,0,0,.29-3.27c0-.17,0-.34,0-.51v-6.1l.56.33.21.15a8.57,8.57,0,0,0,3,1.62,8.06,8.06,0,0,0,7.18,3.78h0a9.42,9.42,0,0,0,4.59-1.16c2.39-1.37,3.59-3.72,3.59-7V30.73a.61.61,0,0,0,.07-.1l.4-.58c.23-.36.47-.72.71-1.07.56-.82,1.13-1.67,1.67-2.61A8.79,8.79,0,0,0,63.5,21.26Z"/><path class="cls-3" d="M47.6,21.91V45.7c0,2.29,1.85,3.35,4.14,3.35S55.88,48,55.88,45.7V21.91Z"/><path class="cls-3" d="M8,21.91V45.7C8,48,9.9,49.05,12.18,49.05S16.33,48,16.33,45.7V21.91Z"/><path class="cls-3" d="M27.51,28V55c0,2.56,2.07,3.84,4.63,3.84s4.63-1.28,4.63-3.84V28Z"/><path class="cls-4" d="M55.88,45.7V21.91H50.6V44.7c0,2.29,1.85,3.35,4.14,3.35h.14A3,3,0,0,0,55.88,45.7Z"/><path class="cls-4" d="M16.33,45.7V21.91H11V44.7c0,2.29,1.86,3.35,4.14,3.35h.14A3,3,0,0,0,16.33,45.7Z"/><path class="cls-4" d="M36.77,55V28H30.51V54c0,2.56,2.07,3.84,4.63,3.84l.34,0A3.46,3.46,0,0,0,36.77,55Z"/><polygon class="cls-5" points="31.96 5.16 4.48 15.87 31.96 26.58 59.45 15.87 31.96 5.16"/><polygon class="cls-4" points="59.46 24.06 59.46 15.87 31.96 26.44 31.96 34.64 59.46 24.06"/><polygon class="cls-3" points="31.96 34.64 4.46 24.06 4.46 15.87 31.96 26.44 31.96 34.64"/><polygon class="cls-6" points="59.46 24.06 45.6 45.44 31.96 37.28 31.96 26.44 59.46 15.87 59.46 24.06"/><polygon class="cls-7" points="4.46 24.06 18.33 45.44 31.96 37.28 31.96 26.44 4.46 15.87 4.46 24.06"/><polygon class="cls-8" points="22.94 8.67 13.68 12.28 22.46 15.59 31.71 11.88 22.94 8.67"/><polygon class="cls-8" points="51.26 19.02 41.48 15.45 32 19.18 41.52 22.77 51.26 19.02"/><polygon class="cls-8" points="13.3 19.27 22.65 22.86 32 19.18 22.46 15.59 13.3 19.27"/><polygon class="cls-8" points="49.88 12.14 40.33 8.42 31.71 11.88 41.48 15.45 49.88 12.14"/><polygon class="cls-9" points="41.52 34.69 41.52 43 45.6 45.44 51.26 36.71 51.26 30.01 41.52 34.69"/><polygon class="cls-9" points="57.58 26.97 59.46 24.06 59.46 15.87 51.26 19.02 51.26 30.01 57.58 26.97"/><polygon class="cls-9" points="41.52 22.77 31.96 26.44 31.96 37.28 33.82 38.39 41.52 34.69 41.52 22.77"/><polygon class="cls-10" points="22.4 34.69 22.4 43 18.33 45.44 12.67 36.71 12.67 30.01 22.4 34.69"/><polygon class="cls-10" points="6.36 26.97 4.48 24.06 4.48 15.87 12.67 19.02 12.67 30.01 6.36 26.97"/><polygon class="cls-10" points="22.4 22.77 31.96 26.44 31.96 37.28 30.11 38.39 22.4 34.69 22.4 22.77"/></g></g></svg>