<svg xmlns="http://www.w3.org/2000/svg" viewBox="0 0 64 64"><defs><style>.cls-1{fill:#1a1a1a;opacity:0;}.cls-2{fill:#bb5938;}.cls-3{fill:#d1864b;}.cls-4{fill:#ebb369;}</style></defs><title>Table Wood</title><g id="Layer_2" data-name="Layer 2"><g id="Layer_3" data-name="Layer 3"><rect class="cls-1" width="64" height="64"/><path class="cls-2" d="M47.64,21.91v23.8c0,2.28,1.85,3.35,4.14,3.35s4.14-1.07,4.14-3.35V21.91Z"/><path class="cls-2" d="M8.08,21.91v23.8c0,2.28,1.85,3.35,4.14,3.35s4.14-1.07,4.14-3.35V21.91Z"/><path class="cls-2" d="M27.54,28V55c0,2.56,2.08,3.84,4.64,3.84s4.63-1.28,4.63-3.84V28Z"/><path class="cls-3" d="M55.92,45.71V21.91H50.64v22.8c0,2.28,1.85,3.35,4.14,3.35h.13A3,3,0,0,0,55.92,45.71Z"/><path class="cls-3" d="M16.36,45.71V21.91H11.08v22.8c0,2.28,1.85,3.35,4.14,3.35h.14A3,3,0,0,0,16.36,45.71Z"/><path class="cls-3" d="M36.81,55V28H30.54V54c0,2.56,2.08,3.84,4.64,3.84l.34,0A3.48,3.48,0,0,0,36.81,55Z"/><polygon class="cls-4" points="32 5.16 4.51 15.87 32 26.58 59.48 15.87 32 5.16"/><polygon class="cls-3" points="59.5 24.07 59.5 15.87 32 26.45 32 34.64 59.5 24.07"/><polygon class="cls-2" points="32 34.64 4.5 24.07 4.5 15.87 32 26.45 32 34.64"/></g></g></svg>