<svg xmlns="http://www.w3.org/2000/svg" viewBox="0 0 64 64"><defs><style>.cls-1{fill:#1a1a1a;opacity:0;}.cls-2{fill:#fff;}</style></defs><title>Table Flat White</title><g id="Layer_2" data-name="Layer 2"><g id="Layer_3" data-name="Layer 3"><rect class="cls-1" width="64" height="64"/><path class="cls-2" d="M59.49,17.09a2,2,0,0,0-1.27-1.86L33.45,5.58a4,4,0,0,0-2.9,0L5.78,15.23A2,2,0,0,0,4.5,17.09v5.46a2,2,0,0,0,1.28,1.86l2.3.89V45.56c0,2.29,1.86,3.35,4.14,3.35s4.15-1.06,4.15-3.35V28.48l11.17,4.3V54.85c0,2.56,2.08,3.84,4.64,3.84s4.63-1.28,4.63-3.84V32.65l10.83-4.17V45.56c0,2.29,1.85,3.35,4.14,3.35s4.14-1.06,4.14-3.35V25.3l2.3-.89a2,2,0,0,0,1.28-1.87Z"/></g></g></svg>