<svg xmlns="http://www.w3.org/2000/svg" viewBox="0 0 64 64"><defs><style>.cls-1,.cls-2{fill:#1a1a1a;}.cls-1{opacity:0;}.cls-3{fill:#abc0c9;}.cls-4{fill:#d3dee3;}.cls-5{fill:#fff;}</style></defs><title>Table Outline</title><g id="Layer_2" data-name="Layer 2"><g id="Layer_3" data-name="Layer 3"><rect class="cls-1" width="64" height="64"/><path class="cls-2" d="M61.76,12.57a4.25,4.25,0,0,0-1-.5L33.45,1.43a4,4,0,0,0-2.9,0L3.24,12.07a4.25,4.25,0,0,0-1,.5A4,4,0,0,0,.5,15.87v8.2A4,4,0,0,0,3.06,27.8l1,.39V45.71c0,4.32,3.35,7.35,8.14,7.35s8.15-3,8.15-7.35V34.46l3.17,1.22V55c0,4.62,3.55,7.84,8.64,7.84s8.63-3.22,8.63-7.84V35.54l2.82-1.08V45.71c0,4.32,3.35,7.35,8.15,7.35s8.14-3,8.14-7.35V28.19l1-.39a4,4,0,0,0,2.56-3.73v-8.2A4,4,0,0,0,61.76,12.57Z"/><path class="cls-3" d="M47.64,21.91v23.8c0,2.28,1.85,3.35,4.14,3.35s4.14-1.07,4.14-3.35V21.91Z"/><path class="cls-3" d="M8.08,21.91v23.8c0,2.28,1.85,3.35,4.14,3.35s4.14-1.07,4.14-3.35V21.91Z"/><path class="cls-3" d="M27.54,28V55c0,2.56,2.08,3.84,4.64,3.84s4.63-1.28,4.63-3.84V28Z"/><path class="cls-4" d="M55.92,45.71V21.91H50.64v22.8c0,2.28,1.85,3.35,4.14,3.35h.13A3,3,0,0,0,55.92,45.71Z"/><path class="cls-4" d="M16.36,45.71V21.91H11.08v22.8c0,2.28,1.85,3.35,4.14,3.35h.14A3,3,0,0,0,16.36,45.71Z"/><path class="cls-4" d="M36.81,55V28H30.54V54c0,2.56,2.08,3.84,4.64,3.84l.34,0A3.48,3.48,0,0,0,36.81,55Z"/><polygon class="cls-5" points="32 5.16 4.51 15.87 32 26.58 59.48 15.87 32 5.16"/><polygon class="cls-4" points="59.5 24.07 59.5 15.87 32 26.45 32 34.64 59.5 24.07"/><polygon class="cls-3" points="32 34.64 4.5 24.07 4.5 15.87 32 26.45 32 34.64"/></g></g></svg>