<svg xmlns="http://www.w3.org/2000/svg" viewBox="0 0 128 128"><defs><style>.cls-1{fill:none;}.cls-2{fill:#65d666;}.cls-3{fill:#39b54a;}.cls-4{fill:#009245;}</style></defs><title>Luck </title><g id="Layer_2" data-name="Layer 2"><g id="_1-13" data-name="1-13"><rect class="cls-1" width="128" height="128"/><path class="cls-2" d="M114.52,73.41c-4.88-4.88-12-7.75-19.48-9.41,7.45-1.66,14.6-4.53,19.48-9.41.15-.14.29-.29.43-.43,10.59-10.84,2-29-13.09-28h0c1-15.12-17.18-23.68-28-13.09-.14.14-.29.28-.43.43C68.53,18.36,65.66,25.51,64,33c-1.66-7.45-4.53-14.6-9.41-19.48-.14-.15-.29-.29-.43-.43-10.84-10.59-29-2-28,13.09h0c-15.12-1-23.68,17.18-13.09,28,.14.14.28.29.43.43,4.88,4.88,12,7.75,19.48,9.41-7.45,1.66-14.6,4.53-19.48,9.41-.15.14-.29.29-.43.43-10.59,10.84-2,29.05,13.09,28h0c-1,15.12,17.18,23.68,28,13.09.14-.14.29-.28.43-.43,4.88-4.88,7.75-12,9.41-19.48,1.66,7.45,4.53,14.6,9.41,19.48.14.15.29.29.43.43,10.84,10.59,29.05,2,28-13.09h0c15.12,1,23.68-17.18,13.09-28C114.81,73.7,114.67,73.55,114.52,73.41Z"/><path class="cls-3" d="M90.6,37.4h0c-.31-12.17-7.42-27.12-15.3-25.61a17.09,17.09,0,0,0-1.46,1.26c-.14.14-.29.28-.43.43C68.53,18.36,65.66,25.51,64,33c-1.66-7.45-4.53-14.6-9.41-19.48-.14-.15-.29-.29-.43-.43a17.09,17.09,0,0,0-1.46-1.26c-7.88-1.51-15,13.44-15.3,25.61h0c-12.17.31-27.12,7.42-25.61,15.3a17.09,17.09,0,0,0,1.26,1.46c.14.14.28.29.43.43,4.88,4.88,12,7.75,19.48,9.41-7.45,1.66-14.6,4.53-19.48,9.41-.15.14-.29.29-.43.43a17.09,17.09,0,0,0-1.26,1.46c-1.51,7.88,13.44,15,25.61,15.3h0c.31,12.17,7.42,27.12,15.3,25.61A17.09,17.09,0,0,0,54.16,115c.14-.14.29-.28.43-.43,4.88-4.88,7.75-12,9.41-19.48,1.66,7.45,4.53,14.6,9.41,19.48.14.15.29.29.43.43a17.09,17.09,0,0,0,1.46,1.26c7.88,1.51,15-13.44,15.3-25.61h0c12.17-.31,27.12-7.42,25.61-15.3A17.09,17.09,0,0,0,115,73.84c-.14-.14-.28-.29-.43-.43-4.88-4.88-12-7.75-19.48-9.41,7.45-1.66,14.6-4.53,19.48-9.41.15-.14.29-.29.43-.43a17.09,17.09,0,0,0,1.26-1.46C117.72,44.82,102.77,37.71,90.6,37.4Z"/><path class="cls-2" d="M64,35.14A44.54,44.54,0,0,0,35.14,64,44.54,44.54,0,0,0,64,92.86,44.54,44.54,0,0,0,92.86,64,44.54,44.54,0,0,0,64,35.14Z"/><path class="cls-3" d="M64,47.25A25.81,25.81,0,0,0,47.25,64,25.81,25.81,0,0,0,64,80.75,25.81,25.81,0,0,0,80.75,64,25.81,25.81,0,0,0,64,47.25Z"/><path class="cls-3" d="M90.6,37.4h0c1.08,0,2.19.13,3.3.26A33.88,33.88,0,0,0,98,30a33.88,33.88,0,0,0-7.64,4.08c.13,1.11.23,2.22.26,3.3Z"/><path class="cls-4" d="M81.93,46.07c.91.91,1.76,1.86,2.57,2.82a79,79,0,0,0,9.4-11.23c-1.11-.13-2.22-.23-3.3-.26h0c0-1.08-.13-2.19-.26-3.3a79,79,0,0,0-11.23,9.4C80.07,44.31,81,45.16,81.93,46.07Z"/><path class="cls-3" d="M79.11,43.5s0,0,0,0a63.49,63.49,0,0,0-6.92,8.05,30,30,0,0,1,2.26,2,28.12,28.12,0,0,1,2,2.26,63.49,63.49,0,0,0,8-6.92l0,0c-.81-1-1.66-1.91-2.57-2.82S80.07,44.31,79.11,43.5Z"/><path class="cls-4" d="M76.41,55.85a28.12,28.12,0,0,0-2-2.26,30,30,0,0,0-2.26-2,33.84,33.84,0,0,0-4.63,8.89A33.84,33.84,0,0,0,76.41,55.85Z"/><path class="cls-3" d="M37.4,90.6h0c-1.08,0-2.19-.13-3.3-.26A33.88,33.88,0,0,0,30,98a33.88,33.88,0,0,0,7.64-4.08c-.13-1.11-.23-2.22-.26-3.3Z"/><path class="cls-4" d="M46.07,81.93c-.91-.91-1.76-1.86-2.57-2.82a79,79,0,0,0-9.4,11.23c1.11.13,2.22.23,3.3.26h0c0,1.08.13,2.19.26,3.3a79,79,0,0,0,11.23-9.4C47.93,83.69,47,82.84,46.07,81.93Z"/><path class="cls-3" d="M55.85,76.41a24.77,24.77,0,0,1-4.26-4.26,63.49,63.49,0,0,0-8.05,6.92l0,0c.81,1,1.66,1.91,2.57,2.82s1.86,1.76,2.82,2.57l0,0A63.49,63.49,0,0,0,55.85,76.41Z"/><path class="cls-4" d="M51.59,72.15a24.77,24.77,0,0,0,4.26,4.26,33.84,33.84,0,0,0,4.63-8.89A33.84,33.84,0,0,0,51.59,72.15Z"/><path class="cls-3" d="M90.6,90.6h0c0,1.08-.13,2.19-.26,3.3A33.88,33.88,0,0,0,98,98a33.88,33.88,0,0,0-4.08-7.64c-1.11.13-2.22.23-3.3.26Z"/><path class="cls-4" d="M81.93,81.93c-.91.91-1.86,1.76-2.82,2.57a79,79,0,0,0,11.23,9.4c.13-1.11.23-2.22.26-3.3h0c1.08,0,2.19-.13,3.3-.26a79,79,0,0,0-9.4-11.23C83.69,80.07,82.84,81,81.93,81.93Z"/><path class="cls-3" d="M76.41,72.15a24.77,24.77,0,0,1-4.26,4.26,63.49,63.49,0,0,0,6.92,8s0,0,0,0c1-.81,1.91-1.66,2.82-2.57s1.76-1.86,2.57-2.82l0,0A63.49,63.49,0,0,0,76.41,72.15Z"/><path class="cls-4" d="M72.15,76.41a24.77,24.77,0,0,0,4.26-4.26,33.84,33.84,0,0,0-8.89-4.63A33.84,33.84,0,0,0,72.15,76.41Z"/><path class="cls-3" d="M37.4,37.4h0c0-1.08.13-2.19.26-3.3A33.88,33.88,0,0,0,30,30a33.88,33.88,0,0,0,4.08,7.64c1.11-.13,2.22-.23,3.3-.26Z"/><path class="cls-4" d="M46.07,46.07c.91-.91,1.86-1.76,2.82-2.57a79,79,0,0,0-11.23-9.4c-.13,1.11-.23,2.22-.26,3.3h0c-1.08,0-2.19.13-3.3.26a79,79,0,0,0,9.4,11.23C44.31,47.93,45.16,47,46.07,46.07Z"/><path class="cls-3" d="M51.59,55.85a28.12,28.12,0,0,1,2-2.26,30,30,0,0,1,2.26-2,63.49,63.49,0,0,0-6.92-8.05l0,0c-1,.81-1.91,1.66-2.82,2.57s-1.76,1.86-2.57,2.82l0,0A63.49,63.49,0,0,0,51.59,55.85Z"/><path class="cls-4" d="M55.85,51.59a30,30,0,0,0-2.26,2,28.12,28.12,0,0,0-2,2.26,33.84,33.84,0,0,0,8.89,4.63A33.84,33.84,0,0,0,55.85,51.59Z"/></g></g></svg>