<svg xmlns="http://www.w3.org/2000/svg" viewBox="0 0 128 128"><defs><style>.cls-1{fill:none;}.cls-2{fill:#1a1a1a;}</style></defs><title>Luck Black </title><g id="Layer_2" data-name="Layer 2"><g id="_1-13" data-name="1-13"><rect class="cls-1" width="128" height="128"/><path class="cls-2" d="M115,73.84c-.14-.14-.28-.29-.43-.43-4.88-4.88-12-7.75-19.48-9.41,7.45-1.66,14.6-4.53,19.48-9.41.15-.14.29-.29.43-.43,10.59-10.84,2-29-13.09-28h0c1-15.12-17.18-23.68-28-13.09-.14.14-.29.28-.43.43C68.53,18.36,65.66,25.51,64,33c-1.66-7.45-4.53-14.6-9.41-19.48-.14-.15-.29-.29-.43-.43-10.84-10.59-29-2-28,13.09h0c-15.12-1-23.68,17.18-13.09,28,.14.14.28.29.43.43,4.88,4.88,12,7.75,19.48,9.41-7.45,1.66-14.6,4.53-19.48,9.41-.15.14-.29.29-.43.43-10.59,10.84-2,29.05,13.09,28h0c-1,15.12,17.18,23.68,28,13.09.14-.14.29-.28.43-.43,4.88-4.88,7.75-12,9.41-19.48,1.66,7.45,4.53,14.6,9.41,19.48.14.15.29.29.43.43,10.84,10.59,29.05,2,28-13.09h0C117,102.89,125.54,84.68,115,73.84Z"/></g></g></svg>