<svg xmlns="http://www.w3.org/2000/svg" viewBox="0 0 128 128"><defs><style>.cls-1{fill:none;}.cls-2{fill:#1a1a1a;}.cls-3{fill:#65d666;}.cls-4{fill:#39b54a;}.cls-5{fill:#009245;}</style></defs><title>Luck Outline </title><g id="Layer_2" data-name="Layer 2"><g id="_1-13" data-name="1-13"><rect class="cls-1" width="128" height="128"/><path class="cls-2" d="M120.11,68.32l-.5-.5A33.38,33.38,0,0,0,115,64a33.63,33.63,0,0,0,4.62-3.84l.47-.47a24.55,24.55,0,0,0,1.81-2.09,23.85,23.85,0,0,0,2.57-25.33,24.1,24.1,0,0,0-15.82-12.94A23.62,23.62,0,0,0,103,8.83,24.66,24.66,0,0,0,85,1a23.49,23.49,0,0,0-14.6,5.06,26.49,26.49,0,0,0-2.08,1.8l-.5.5A33.92,33.92,0,0,0,64,13a34,34,0,0,0-3.83-4.6l-.49-.49a26.47,26.47,0,0,0-2.09-1.81A23.49,23.49,0,0,0,43,1,24.66,24.66,0,0,0,25,8.83a23.72,23.72,0,0,0-5.71,10.49A24.11,24.11,0,0,0,3.49,32.25,23.87,23.87,0,0,0,6.06,57.59c.61.78,1.21,1.46,1.82,2.1l.48.48A33.32,33.32,0,0,0,13,64,33.67,33.67,0,0,0,8.38,67.8l-.51.51A26.21,26.21,0,0,0,6.06,70.4,23.85,23.85,0,0,0,3.5,95.74a24.1,24.1,0,0,0,15.81,12.93A23.64,23.64,0,0,0,25,119.16,24.62,24.62,0,0,0,43,127a23.49,23.49,0,0,0,14.6-5.06c.8-.63,1.46-1.21,2.1-1.82l.48-.48A34,34,0,0,0,64,115a33.92,33.92,0,0,0,3.82,4.6l.49.48A23.8,23.8,0,0,0,85,127a24.64,24.64,0,0,0,18-7.83,23.64,23.64,0,0,0,5.72-10.52,24.25,24.25,0,0,0,16.39-14.16A23.74,23.74,0,0,0,120.11,68.32Z"/><path class="cls-3" d="M114.1,73.33c-4.84-4.84-11.93-7.69-19.32-9.34,7.39-1.64,14.48-4.49,19.32-9.33.15-.14.29-.29.43-.43,10.5-10.75,2-28.82-13-27.8h0c1-15-17-23.49-27.79-13l-.43.42C68.48,18.71,65.63,25.81,64,33.2c-1.65-7.39-4.5-14.49-9.34-19.33l-.42-.42c-10.76-10.51-28.82-2-27.8,13h0c-15-1-23.49,17-13,27.8l.42.43C18.71,59.5,25.8,62.35,33.19,64c-7.39,1.65-14.48,4.5-19.32,9.34l-.42.43c-10.51,10.75-2,28.82,13,27.8h0c-1,15,17,23.49,27.8,13l.42-.42c4.84-4.84,7.69-11.94,9.34-19.33,1.64,7.39,4.49,14.49,9.33,19.33l.43.42c10.75,10.51,28.82,2,27.79-13h0c15,1,23.49-17,13-27.8C114.39,73.61,114.25,73.47,114.1,73.33Z"/><path class="cls-4" d="M90.37,37.61h0C90.06,25.53,83,10.69,75.19,12.2a15.15,15.15,0,0,0-1.44,1.25l-.43.42C68.48,18.71,65.63,25.81,64,33.2c-1.65-7.39-4.5-14.49-9.34-19.33l-.42-.42a16.6,16.6,0,0,0-1.45-1.25C45,10.69,37.91,25.53,37.6,37.6h0C25.53,37.92,10.69,45,12.2,52.79a16.5,16.5,0,0,0,1.25,1.44l.42.43C18.71,59.5,25.8,62.35,33.19,64c-7.39,1.65-14.48,4.5-19.32,9.34l-.42.43A15.15,15.15,0,0,0,12.2,75.2C10.69,83,25.53,90.07,37.6,90.38h0c.31,12.07,7.36,26.91,15.18,25.4a16.6,16.6,0,0,0,1.45-1.25l.42-.42c4.84-4.84,7.69-11.94,9.34-19.33,1.64,7.39,4.49,14.49,9.33,19.33l.43.42a15.15,15.15,0,0,0,1.44,1.25c7.83,1.51,14.87-13.33,15.18-25.4h0c12.08-.31,26.91-7.35,25.41-15.18a18.66,18.66,0,0,0-1.25-1.44c-.14-.15-.28-.29-.43-.43-4.84-4.84-11.93-7.69-19.32-9.34,7.39-1.64,14.48-4.49,19.32-9.33.15-.14.29-.29.43-.43.45-.47.86-.95,1.25-1.44C117.28,45,102.45,37.92,90.37,37.61Z"/><path class="cls-3" d="M64,35.37A44.17,44.17,0,0,0,35.36,64,42.66,42.66,0,0,0,46.2,81.78,42.45,42.45,0,0,0,64,92.62,42.48,42.48,0,0,0,81.77,81.78,42.66,42.66,0,0,0,92.61,64,44.18,44.18,0,0,0,64,35.37Z"/><path class="cls-4" d="M64,47.38A25.62,25.62,0,0,0,47.37,64,25.6,25.6,0,0,0,64,80.61,25.62,25.62,0,0,0,80.6,64,25.63,25.63,0,0,0,64,47.38Z"/><path class="cls-4" d="M90.37,37.61h0c1.08,0,2.17.12,3.28.25a33.26,33.26,0,0,0,4-7.58,33.52,33.52,0,0,0-7.57,4c.13,1.1.22,2.2.25,3.27Z"/><path class="cls-5" d="M81.77,46.21c.91.9,1.74,1.84,2.55,2.79a78.45,78.45,0,0,0,9.33-11.14c-1.11-.13-2.2-.23-3.28-.25h0c0-1.07-.12-2.17-.25-3.27A77.78,77.78,0,0,0,79,43.66C79.93,44.46,80.87,45.3,81.77,46.21Z"/><path class="cls-4" d="M79,43.66l0,0a63.39,63.39,0,0,0-6.87,8,27.74,27.74,0,0,1,2.24,2,25.81,25.81,0,0,1,2,2.24,62.69,62.69,0,0,0,8-6.87l0,0c-.81-1-1.64-1.89-2.55-2.79S79.93,44.46,79,43.66Z"/><path class="cls-5" d="M76.29,55.91a25.81,25.81,0,0,0-2-2.24,27.74,27.74,0,0,0-2.24-2,33.74,33.74,0,0,0-4.59,8.82A33.54,33.54,0,0,0,76.29,55.91Z"/><path class="cls-4" d="M37.6,90.38h0c-1.07,0-2.17-.12-3.28-.25a33.43,33.43,0,0,0-4,7.57,33.47,33.47,0,0,0,7.58-4c-.13-1.1-.23-2.2-.26-3.27Z"/><path class="cls-5" d="M46.2,81.78c-.9-.9-1.74-1.84-2.55-2.79a78.45,78.45,0,0,0-9.33,11.14c1.11.13,2.21.23,3.28.25h0c0,1.07.13,2.17.26,3.27A77.2,77.2,0,0,0,49,84.33C48,83.53,47.11,82.69,46.2,81.78Z"/><path class="cls-4" d="M55.9,76.3a24.31,24.31,0,0,1-4.22-4.22,62.69,62.69,0,0,0-8,6.87l0,0c.81,1,1.65,1.89,2.55,2.79S48,83.53,49,84.33l0,0A61.11,61.11,0,0,0,55.9,76.3Z"/><path class="cls-5" d="M51.68,72.08A24.31,24.31,0,0,0,55.9,76.3a33.54,33.54,0,0,0,4.59-8.81A33.54,33.54,0,0,0,51.68,72.08Z"/><path class="cls-4" d="M90.37,90.38h0c0,1.07-.13,2.17-.25,3.27a33.43,33.43,0,0,0,7.57,4,33.43,33.43,0,0,0-4-7.57c-1.11.13-2.2.23-3.28.25Z"/><path class="cls-5" d="M81.77,81.78c-.9.91-1.84,1.75-2.79,2.55a77.78,77.78,0,0,0,11.14,9.33c.12-1.1.22-2.2.25-3.27h0c1.08,0,2.17-.12,3.28-.25A78.45,78.45,0,0,0,84.32,79C83.51,79.94,82.68,80.88,81.77,81.78Z"/><path class="cls-4" d="M76.29,72.08a24.31,24.31,0,0,1-4.22,4.22,62.69,62.69,0,0,0,6.87,8l0,0c1-.8,1.89-1.64,2.79-2.55s1.74-1.84,2.55-2.79l0,0A62.69,62.69,0,0,0,76.29,72.08Z"/><path class="cls-5" d="M72.07,76.3a24.31,24.31,0,0,0,4.22-4.22,33.54,33.54,0,0,0-8.81-4.59A33.54,33.54,0,0,0,72.07,76.3Z"/><path class="cls-4" d="M37.6,37.61h0c0-1.07.13-2.17.26-3.27a33.56,33.56,0,0,0-7.58-4,33.26,33.26,0,0,0,4,7.58c1.11-.13,2.21-.23,3.28-.25Z"/><path class="cls-5" d="M46.2,46.21c.91-.91,1.84-1.75,2.79-2.55a77.2,77.2,0,0,0-11.13-9.33c-.13,1.1-.23,2.2-.26,3.27h0c-1.07,0-2.17.12-3.28.25A78.45,78.45,0,0,0,43.65,49C44.46,48.05,45.3,47.11,46.2,46.21Z"/><path class="cls-4" d="M51.68,55.91a25.81,25.81,0,0,1,2-2.24,27.74,27.74,0,0,1,2.24-2,61.77,61.77,0,0,0-6.87-8l0,0c-1,.8-1.88,1.64-2.79,2.55S44.46,48.05,43.65,49l0,0A62.69,62.69,0,0,0,51.68,55.91Z"/><path class="cls-5" d="M55.9,51.68a27.74,27.74,0,0,0-2.24,2,25.81,25.81,0,0,0-2,2.24,33.54,33.54,0,0,0,8.81,4.59A33.44,33.44,0,0,0,55.9,51.68Z"/></g></g></svg>