<svg xmlns="http://www.w3.org/2000/svg" viewBox="0 0 64 64"><defs><style>.cls-1,.cls-5{fill:#fff;}.cls-1{opacity:0;}.cls-2{fill:#fee854;}.cls-3{fill:#fdbc0d;}.cls-4{fill:#fc9504;}</style></defs><title>Super Luck</title><g id="Layer_2" data-name="Layer 2"><g id="Finals"><rect class="cls-1" width="64" height="64"/><path class="cls-2" d="M57,36.65C54.55,34.24,51,32.82,47.34,32c3.68-.82,7.21-2.24,9.62-4.65l.21-.21a8.19,8.19,0,0,0-6.46-13.85h0A8.19,8.19,0,0,0,36.86,6.82L36.65,7C34.24,9.45,32.82,13,32,16.66,31.18,13,29.76,9.45,27.35,7l-.21-.22A8.18,8.18,0,0,0,13.3,13.29h0A8.19,8.19,0,0,0,6.83,27.14l.21.21C9.45,29.76,13,31.18,16.66,32,13,32.82,9.45,34.24,7,36.65l-.21.21a8.19,8.19,0,0,0,6.46,13.85h0a8.18,8.18,0,0,0,13.84,6.47l.21-.21C29.76,54.55,31.18,51,32,47.34c.82,3.68,2.24,7.21,4.65,9.63l.21.21A8.18,8.18,0,0,0,50.7,50.71h0a8.19,8.19,0,0,0,6.46-13.85Z"/><path class="cls-3" d="M45.14,18.86h0c-.15-6-3.66-13.41-7.56-12.66-.24.19-.49.4-.72.62L36.65,7C34.24,9.45,32.82,13,32,16.66,31.18,13,29.76,9.45,27.35,7l-.21-.22c-.23-.22-.48-.43-.72-.62-3.9-.75-7.41,6.64-7.56,12.66h0c-6,.15-13.4,3.66-12.65,7.56a8.17,8.17,0,0,0,.62.72l.21.21C9.45,29.76,13,31.18,16.66,32,13,32.82,9.45,34.24,7,36.65l-.21.21c-.23.24-.43.48-.62.72-.75,3.9,6.63,7.41,12.65,7.56h0c.15,6,3.66,13.41,7.56,12.66.24-.19.49-.4.72-.62l.21-.21C29.76,54.55,31.18,51,32,47.34c.82,3.68,2.24,7.21,4.65,9.63l.21.21c.23.22.48.43.72.62,3.9.75,7.41-6.64,7.56-12.66h0c6-.15,13.4-3.66,12.65-7.56-.19-.24-.39-.48-.62-.72L57,36.65C54.55,34.24,51,32.82,47.34,32c3.68-.82,7.21-2.24,9.62-4.65l.21-.21a8.17,8.17,0,0,0,.62-.72C58.54,22.52,51.16,19,45.14,18.86Z"/><path class="cls-2" d="M32,17.74A22,22,0,0,0,17.74,32,22,22,0,0,0,32,46.26,22,22,0,0,0,46.26,32,22,22,0,0,0,32,17.74Z"/><path class="cls-3" d="M32,23.72A12.83,12.83,0,0,0,23.72,32,12.83,12.83,0,0,0,32,40.28,12.83,12.83,0,0,0,40.28,32,12.83,12.83,0,0,0,32,23.72Z"/><path class="cls-3" d="M45.14,18.86h0c.54,0,1.08.06,1.63.12a16.25,16.25,0,0,0,2-3.77,16.81,16.81,0,0,0-3.78,2,15.3,15.3,0,0,1,.13,1.64Z"/><path class="cls-4" d="M40.86,23.14c.45.45.87.92,1.27,1.39A38.3,38.3,0,0,0,46.77,19c-.55-.06-1.09-.11-1.63-.12h0A15.3,15.3,0,0,0,45,17.22a38.92,38.92,0,0,0-5.54,4.65C39.94,22.27,40.41,22.69,40.86,23.14Z"/><path class="cls-3" d="M39.47,21.87l0,0a30.35,30.35,0,0,0-3.42,4,13,13,0,0,1,2.1,2.1,30.35,30.35,0,0,0,4-3.42l0,0c-.4-.47-.82-.94-1.27-1.39S39.94,22.27,39.47,21.87Z"/><path class="cls-4" d="M38.13,28a13,13,0,0,0-2.1-2.1,16.45,16.45,0,0,0-2.29,4.39A16.45,16.45,0,0,0,38.13,28Z"/><path class="cls-3" d="M18.86,45.14h0c-.54,0-1.08-.06-1.63-.12a16.25,16.25,0,0,0-2,3.77,16.81,16.81,0,0,0,3.78-2,15.3,15.3,0,0,1-.13-1.64Z"/><path class="cls-4" d="M23.14,40.86c-.45-.45-.87-.92-1.27-1.39A38.3,38.3,0,0,0,17.23,45c.55.06,1.09.11,1.63.12h0A15.3,15.3,0,0,0,19,46.78a39.6,39.6,0,0,0,5.54-4.65C24.06,41.73,23.59,41.31,23.14,40.86Z"/><path class="cls-3" d="M28,38.13a13,13,0,0,1-2.1-2.1,30.35,30.35,0,0,0-4,3.42l0,0c.4.47.82.94,1.27,1.39s.92.87,1.39,1.27l0,0A30.35,30.35,0,0,0,28,38.13Z"/><path class="cls-4" d="M25.87,36a13,13,0,0,0,2.1,2.1,16.45,16.45,0,0,0,2.29-4.39A16.45,16.45,0,0,0,25.87,36Z"/><path class="cls-3" d="M45.14,45.14h0A15.3,15.3,0,0,1,45,46.78a16.81,16.81,0,0,0,3.78,2,16.25,16.25,0,0,0-2-3.77c-.55.06-1.09.11-1.63.12Z"/><path class="cls-4" d="M40.86,40.86c-.45.45-.92.87-1.39,1.27A38.92,38.92,0,0,0,45,46.78a15.3,15.3,0,0,0,.13-1.64h0c.54,0,1.08-.06,1.63-.12a38.3,38.3,0,0,0-4.64-5.55C41.73,39.94,41.31,40.41,40.86,40.86Z"/><path class="cls-3" d="M38.13,36a13,13,0,0,1-2.1,2.1,30.35,30.35,0,0,0,3.42,4l0,0c.47-.4.94-.82,1.39-1.27s.87-.92,1.27-1.39l0,0A30.35,30.35,0,0,0,38.13,36Z"/><path class="cls-4" d="M36,38.13a13,13,0,0,0,2.1-2.1,16.45,16.45,0,0,0-4.39-2.29A16.45,16.45,0,0,0,36,38.13Z"/><path class="cls-3" d="M18.86,18.86h0A15.3,15.3,0,0,1,19,17.22a16.81,16.81,0,0,0-3.78-2,16.25,16.25,0,0,0,2,3.77c.55-.06,1.09-.11,1.63-.12Z"/><path class="cls-4" d="M23.14,23.14c.45-.45.92-.87,1.39-1.27A39.6,39.6,0,0,0,19,17.22a15.3,15.3,0,0,0-.13,1.64h0c-.54,0-1.08.06-1.63.12a38.3,38.3,0,0,0,4.64,5.55C22.27,24.06,22.69,23.59,23.14,23.14Z"/><path class="cls-3" d="M25.87,28a13,13,0,0,1,2.1-2.1,30.35,30.35,0,0,0-3.42-4l0,0c-.47.4-.94.82-1.39,1.27s-.87.92-1.27,1.39l0,0A30.35,30.35,0,0,0,25.87,28Z"/><path class="cls-4" d="M28,25.87a13,13,0,0,0-2.1,2.1,16.45,16.45,0,0,0,4.39,2.29A16.45,16.45,0,0,0,28,25.87Z"/><polygon class="cls-5" points="20.88 30.88 23.54 37.62 30.28 40.28 23.54 42.94 20.88 49.67 18.22 42.94 11.48 40.28 18.22 37.62 20.88 30.88"/><polygon class="cls-5" points="15.63 13.69 17.45 18.3 22.06 20.12 17.45 21.94 15.63 26.55 13.81 21.94 9.19 20.12 13.81 18.3 15.63 13.69"/><polygon class="cls-5" points="42.35 19.43 44.17 24.05 48.79 25.87 44.17 27.69 42.35 32.3 40.53 27.69 35.92 25.87 40.53 24.05 42.35 19.43"/></g></g></svg>