<svg xmlns="http://www.w3.org/2000/svg" viewBox="0 0 64 64"><defs><style>.cls-1,.cls-2{fill:#fff;}.cls-1{opacity:0;}</style></defs><title>Super Luck White</title><g id="Layer_2" data-name="Layer 2"><g id="Finals"><rect class="cls-1" width="64" height="64"/><path class="cls-2" d="M57,36.65C54.55,34.24,51,32.82,47.34,32c3.68-.82,7.21-2.24,9.62-4.65l.21-.21a8.19,8.19,0,0,0-6.46-13.85h0A8.19,8.19,0,0,0,36.86,6.82L36.65,7C34.24,9.45,32.82,13,32,16.66,31.18,13,29.76,9.45,27.35,7l-.21-.22A8.18,8.18,0,0,0,13.3,13.29h0A8.19,8.19,0,0,0,6.83,27.14l.21.21C9.45,29.76,13,31.18,16.66,32,13,32.82,9.45,34.24,7,36.65l-.21.21a8.19,8.19,0,0,0,6.46,13.85h0a8.18,8.18,0,0,0,13.84,6.47l.21-.21C29.76,54.55,31.18,51,32,47.34c.82,3.68,2.24,7.21,4.65,9.63l.21.21A8.18,8.18,0,0,0,50.7,50.71h0a8.19,8.19,0,0,0,6.46-13.85ZM15.63,26.55l-1.82-4.61L9.19,20.12l4.62-1.82,1.82-4.61,1.82,4.61,4.61,1.82-4.61,1.82Zm7.91,16.38-2.66,6.74-2.66-6.74-6.74-2.65,6.74-2.66,2.66-6.74,2.66,6.74,6.74,2.66ZM42.35,32.3l-1.82-4.61-4.61-1.82,4.61-1.82,1.82-4.62,1.82,4.62,4.62,1.82-4.62,1.82Z"/></g></g></svg>