<svg xmlns="http://www.w3.org/2000/svg" viewBox="0 0 64 64"><defs><style>.cls-1{fill:#1a1a1a;opacity:0;}.cls-2{fill:#fee854;}.cls-3{fill:#bb5938;}.cls-4{fill:#d1864b;}.cls-5{fill:#fec92b;}.cls-6{fill:#fdaf18;}</style></defs><title>Pickaxe Gold</title><g id="Layer_2" data-name="Layer 2"><g id="Layer_3" data-name="Layer 3"><rect class="cls-1" width="64" height="64"/><path class="cls-2" d="M15.68,4.83a1.55,1.55,0,0,0-.42,2.94,67.94,67.94,0,0,1,19.3,13.65l7.93-7.93A31.32,31.32,0,0,0,15.68,4.83Z"/><path class="cls-2" d="M59.16,48.31A31.35,31.35,0,0,0,50.51,21.5l-7.94,7.93a67.94,67.94,0,0,1,13.65,19.3A1.55,1.55,0,0,0,59.16,48.31Z"/><path class="cls-3" d="M50.36,13.63l-1.15,1.15L10.42,53.57,13.81,57,53.17,17.59C53.49,17.27,52.23,15.5,50.36,13.63Z"/><path class="cls-4" d="M46.4,10.82,7,50.18l3.38,3.39L49.21,14.78l1.15-1.15C48.49,11.76,46.72,10.5,46.4,10.82Z"/><rect class="cls-5" x="7.51" y="46.92" width="6.32" height="12.84" rx="1.47" transform="translate(-34.59 23.16) rotate(-45)"/><path class="cls-6" d="M16.4,54.61l-3.86-3.87a9.68,9.68,0,0,1-1.87,2.6,9.84,9.84,0,0,1-2.6,1.87l3.86,3.87a1.48,1.48,0,0,0,2.08,0l2.39-2.4A1.45,1.45,0,0,0,16.4,54.61Z"/><path class="cls-5" d="M51.64,19,45.4,12.77a2.28,2.28,0,0,0-3.24,0l-9.4,9.4a2.28,2.28,0,0,0,0,3.24L39,31.65a1.72,1.72,0,0,0,2.43,0L51.64,21.44A1.7,1.7,0,0,0,51.64,19Z"/><path class="cls-6" d="M51.64,19l-3.37-3.38a50.82,50.82,0,0,1-5.8,6.85,50.7,50.7,0,0,1-6.85,5.79L39,31.65a1.72,1.72,0,0,0,2.43,0L51.64,21.44A1.7,1.7,0,0,0,51.64,19Z"/></g></g></svg>