<svg xmlns="http://www.w3.org/2000/svg" viewBox="0 0 64 64"><defs><style>.cls-1,.cls-2{fill:#1a1a1a;}.cls-1{opacity:0;}</style></defs><title>Pickaxe Flat Black</title><g id="Layer_2" data-name="Layer 2"><g id="Layer_3" data-name="Layer 3"><rect class="cls-1" width="64" height="64"/><path class="cls-2" d="M51,22.06l.62-.62a1.71,1.71,0,0,0,0-2.37l1.48-1.48c.32-.32-.94-2.09-2.8-4s-3.65-3.13-4-2.81l-1.55,1.55a2.29,2.29,0,0,0-2.69.4L42,13A31.39,31.39,0,0,0,15.68,4.83a1.55,1.55,0,0,0-.42,2.94A67.91,67.91,0,0,1,34,20.91l-1.26,1.26a2.28,2.28,0,0,0-.39,2.69L9.51,47.71,9.4,47.6a1.48,1.48,0,0,0-2.08,0L4.93,50a1.47,1.47,0,0,0,0,2.07l3.14,3.14h0l3.87,3.87a1.48,1.48,0,0,0,1.59.32,1.49,1.49,0,0,0,.48-.32l2.39-2.4a1.45,1.45,0,0,0,0-2.07l-.12-.13L39.06,31.7a1.72,1.72,0,0,0,2.38-.05L43.1,30A67.59,67.59,0,0,1,56.22,48.73a1.55,1.55,0,0,0,2.94-.42A31.34,31.34,0,0,0,51,22.06Z"/></g></g></svg>