<?xml version="1.0" encoding="UTF-8"?>
<svg id="Layer_2" data-name="Layer 2" xmlns="http://www.w3.org/2000/svg" viewBox="0 0 64 64">
  <defs>
    <style>
      .cls-1 {
        fill: #fec92b;
      }

      .cls-1, .cls-2, .cls-3, .cls-4, .cls-5, .cls-6 {
        stroke-width: 0px;
      }

      .cls-2 {
        fill: #1a1a1a;
      }

      .cls-7 {
        opacity: 0;
      }

      .cls-3 {
        fill: #fdaf18;
      }

      .cls-4 {
        fill: #fc9504;
      }

      .cls-5 {
        fill: #fee854;
      }

      .cls-6 {
        fill: #fff;
      }
    </style>
  </defs>
  <g id="Exports_1" data-name="Exports 1">
    <g>
      <g class="cls-7">
        <rect class="cls-6" width="64" height="64"/>
      </g>
      <g>
        <g>
          <ellipse class="cls-3" cx="13.34" cy="43.71" rx="8.7" ry="3.81"/>
          <rect class="cls-3" x="4.64" y="38.58" width="17.4" height="5.13" transform="translate(26.67 82.29) rotate(180)"/>
          <ellipse class="cls-5" cx="13.34" cy="38.58" rx="8.7" ry="3.81"/>
        </g>
        <path class="cls-3" d="M19.3,15.45c.13,3.47-8.74,9.31-12.62,8.73-4.36-.66-1.33-11.58,1.72-13.42,3.05-1.83,10.78,1.44,10.89,4.69Z"/>
        <path class="cls-4" d="M36.43,43.67l2.16,5.37c.57,1.4,1.84,2.32,3.18,2.24,3.15-.19,8.31-1.91,7.76-11.34,0,0-7.32,2.87-13.1,3.73Z"/>
        <path class="cls-4" d="M10.59,41.87l.7,5.75c.18,1.5,1.18,2.71,2.49,2.98,3.09.63,8.52.3,10.42-8.95,0,0-7.81.89-13.62.22Z"/>
        <path class="cls-1" d="M53.5,28.16c0,12.49-9.68,21.95-24.08,21.82-14.57-.13-24.21-9.43-24.08-21.82.13-12.49,9.68-21.82,24.08-21.82s24.08,9.33,24.08,21.82Z"/>
        <path class="cls-1" d="M21.28,46.95l1.35,5.67c.35,1.48,1.59,2.6,3.1,2.76,3.55.37,9.65-.43,10.91-9.8,0,0-8.74,1.55-15.36,1.37Z"/>
        <g>
          <g>
            <path class="cls-6" d="M29.57,30.93c-.02,2.82-2.25,4.62-4.91,4.04-2.56-.56-4.56-3.14-4.54-5.79.02-2.65,2.05-4.49,4.61-4.1s4.85,3.03,4.83,5.84Z"/>
            <path class="cls-6" d="M14.91,28.22c-.02,2.56-1.86,4.23-4.05,3.75-2.13-.46-3.79-2.78-3.77-5.2s1.71-4.12,3.83-3.79,4.01,2.69,3.99,5.24Z"/>
            <path class="cls-2" d="M26.15,30.3c-.01,1.6-1.26,2.65-2.77,2.34s-2.64-1.79-2.63-3.34,1.2-2.6,2.67-2.36,2.74,1.76,2.73,3.36Z"/>
            <path class="cls-2" d="M14.33,28.12c-.01,1.48-1.08,2.46-2.36,2.2s-2.26-1.62-2.25-3.05,1.03-2.43,2.29-2.22,2.34,1.59,2.33,3.07Z"/>
          </g>
          <g>
            <path class="cls-5" d="M13.39,18.84c.06.88-.93,1.56-2.19,1.52s-2.27-.76-2.33-1.62c-.06-.85.88-1.53,2.11-1.52s2.34.74,2.4,1.61Z"/>
            <path class="cls-5" d="M27.35,21.03c-.09.95-1.4,1.43-2.91,1.09s-2.59-1.34-2.51-2.25,1.33-1.42,2.82-1.11,2.69,1.33,2.6,2.28Z"/>
          </g>
          <g>
            <path class="cls-3" d="M12.97,29.45c6.11,1.2,9.6,8.19,7.31,11.53-2.02,2.94-12.39-.03-14.05-3.7-1.79-3.95,1.12-8.93,6.75-7.82Z"/>
            <path class="cls-4" d="M17.72,36.69c.21,1.56-.6,2.68-1.8,2.37s-2.15-1.85-2.18-3.32c-.03-1.36.76-2.2,1.78-1.98s2.01,1.5,2.2,2.93Z"/>
            <path class="cls-4" d="M7.12,34.16c-.2,1.35.48,2.76,1.55,3.03s2.02-.74,2.06-2.17c.04-1.32-.69-2.48-1.63-2.69s-1.8.57-1.99,1.82Z"/>
          </g>
        </g>
        <path class="cls-4" d="M32.69,8.71c-3.16,1.02-5.89,2.18-8.11,3.45-.51.29-1.54.36-2.32.14l-2.01-.55c-.78-.21-.98-.63-.41-.9,2.51-1.2,5.52-2.28,8.96-3.22.74-.2,1.92-.19,2.65,0l1.16.32c.73.2.75.53.08.74Z"/>
        <path class="cls-6" d="M24.26,12.38l-2.41-.95-.95-2.41c-.2-.5-.91-.5-1.11,0l-.95,2.41-2.41.95c-.5.2-.5.91,0,1.11l2.41.95.95,2.41c.2.5.91.5,1.11,0l.95-2.41,2.41-.95c.5-.2.5-.91,0-1.11Z"/>
        <path class="cls-5" d="M47.35,23.91c-2.1,2.53-3.92-1.92-7.95-5.27s-8.74-4.32-6.64-6.86c2.1-2.53,7.07-1.87,11.1,1.48,4.03,3.35,5.59,8.11,3.49,10.64Z"/>
        <path class="cls-3" d="M29.15,15.8c-1.37,3.19,4.8,11.84,8.62,12.69,4.31.96,5.42-10.32,3.23-13.14s-10.57-2.54-11.85.45Z"/>
        <g>
          <ellipse class="cls-3" cx="50.8" cy="53.86" rx="8.7" ry="3.81"/>
          <rect class="cls-3" x="42.1" y="48.72" width="17.4" height="5.13" transform="translate(101.59 102.58) rotate(180)"/>
          <ellipse class="cls-5" cx="50.8" cy="48.72" rx="8.7" ry="3.81"/>
        </g>
        <g>
          <ellipse class="cls-3" cx="48.28" cy="47.48" rx="8.7" ry="3.81"/>
          <rect class="cls-3" x="39.58" y="42.35" width="17.4" height="5.13" transform="translate(96.56 89.83) rotate(180)"/>
          <ellipse class="cls-5" cx="48.28" cy="42.35" rx="8.7" ry="3.81"/>
        </g>
        <path class="cls-6" d="M48.84,34.18l-3.91-1.54-1.54-3.91c-.32-.82-1.48-.82-1.8,0l-1.54,3.91-3.91,1.54c-.82.32-.82,1.48,0,1.8l3.91,1.54,1.54,3.91c.32.82,1.48.82,1.8,0l1.54-3.91,3.91-1.54c.82-.32.82-1.48,0-1.8Z"/>
      </g>
    </g>
  </g>
</svg>