<?xml version="1.0" encoding="UTF-8"?>
<svg id="Layer_2" data-name="Layer 2" xmlns="http://www.w3.org/2000/svg" viewBox="0 0 64 64">
  <defs>
    <style>
      .cls-1 {
        opacity: 0;
      }

      .cls-2 {
        fill: #fff;
        stroke-width: 0px;
      }
    </style>
  </defs>
  <g id="Exports_1" data-name="Exports 1">
    <g>
      <g class="cls-1">
        <rect class="cls-2" width="64" height="64"/>
      </g>
      <g>
        <path class="cls-2" d="M26.15,30.3c.01-1.6-1.22-3.11-2.73-3.36-1.48-.25-2.66.81-2.67,2.36-.01,1.55,1.16,3.04,2.63,3.34,1.5.31,2.76-.74,2.77-2.34Z"/>
        <path class="cls-2" d="M12,25.05c-1.26-.21-2.28.78-2.29,2.22,0,.78.3,1.54.77,2.11.75-.11,1.58-.1,2.48.08.29.06.56.14.83.22.32-.39.53-.92.53-1.55.01-1.48-1.04-2.86-2.33-3.07Z"/>
        <path class="cls-2" d="M13.74,35.74c.02,1.09.55,2.2,1.3,2.84.27.23.57.4.88.48.6.16,1.1-.05,1.43-.48.33-.44.47-1.11.37-1.89-.07-.55-.26-1.07-.53-1.52-.43-.73-1.04-1.27-1.68-1.41-.74-.17-1.37.25-1.63,1.02-.1.28-.15.6-.14.96Z"/>
        <path class="cls-2" d="M7.12,34.16c-.08.58,0,1.17.2,1.67.27.67.74,1.2,1.35,1.36,1.08.28,2.02-.74,2.06-2.17,0-.03,0-.05,0-.08.01-1.28-.71-2.4-1.63-2.61-.93-.21-1.8.57-1.99,1.82Z"/>
        <path class="cls-2" d="M57.21,51.29c-1.59.76-3.87,1.24-6.42,1.24s-4.83-.48-6.42-1.24c-.22-.11-.43-.22-.62-.33-.21-.13-.41-.26-.59-.4.31.1.64.19.98.27.28.07.57.12.87.18,1.01.18,2.1.28,3.26.28,2.22,0,4.24-.37,5.77-.96,1.1-.43,1.95-.98,2.45-1.6.31-.39.48-.81.48-1.24v-5.13c0,.99-.87,1.89-2.28,2.57-.2.1-.42.19-.64.28-1.41.55-3.23.9-5.24.95-.18,0-.35.01-.53.01-1.15,0-2.25-.1-3.26-.28-.22-.04-.44-.08-.65-.13-.95-.21-1.8-.49-2.51-.83-1.08-.52-1.84-1.17-2.14-1.89-.09-.22-.15-.45-.15-.68,0-2.1,3.9-3.81,8.7-3.81.9,0,1.76.06,2.57.17,1.71-3.1,2.65-6.68,2.65-10.55,0-12.49-9.68-21.82-24.08-21.82-6.08,0-11.29,1.68-15.29,4.55-2.12-.74-4.38-.94-5.73-.13-2.82,1.69-5.61,11.12-2.6,13.08-.28,1.39-.43,2.83-.45,4.32-.02,1.8.17,3.53.55,5.18.35-1.28,1.15-2.42,2.33-3.16-.71-.95-1.15-2.16-1.14-3.4,0-1.05.34-1.95.88-2.62.7-.88,1.75-1.35,2.95-1.17.15.02.29.08.44.12,1.99.56,3.57,2.74,3.55,5.12,0,.63-.12,1.21-.33,1.72,3.13,1.22,5.34,3.96,6.1,6.6.2.7.3,1.38.29,2.04-.02.83-.22,1.6-.62,2.25-.03.05-.05.1-.08.15-.41.6-1.18.94-2.13,1.09-.55.09-1.15.12-1.8.08-.13,0-.27-.02-.41-.04-2.49-.22-5.42-1.2-7.46-2.54.57.91,1.22,1.78,1.94,2.59-3.36-.53-5.77-1.93-5.77-3.58v5.13c0,1.79,2.83,3.29,6.63,3.7l.03.21c.18,1.5,1.18,2.71,2.49,2.98,1.93.39,4.77.41,7.1-1.88.29.09.58.18.87.25l.87,3.64c.35,1.48,1.59,2.6,3.1,2.76,2.99.31,7.79-.23,9.98-6.02.94-.2,1.85-.43,2.72-.72l.16.41c.56,1.4,1.84,2.32,3.18,2.24.11,0,.22-.02.33-.03v2.6c0,2.1,3.9,3.81,8.7,3.81s8.7-1.71,8.7-3.81v-5.13c0,.99-.87,1.89-2.28,2.57ZM49.84,28.98l-3.91,1.54-1.54,3.91c-.32.82-1.48.82-1.8,0l-1.54-3.91-3.91-1.54c-.82-.32-.82-1.48,0-1.8l3.91-1.54,1.51-3.83.03-.08c.32-.82,1.48-.82,1.8,0l1.1,2.79.44,1.12,3.91,1.54c.82.32.82,1.48,0,1.8ZM34.8,23.85l-.95-2.41-2.41-.95c-.5-.2-.5-.91,0-1.11l2.41-.95.95-2.41c.06-.14.16-.23.28-.3.29-.15.69-.06.83.3l.11.27.84,2.13,2.41.95c.5.2.5.91,0,1.11l-2.41.95-.95,2.41c-.2.5-.91.5-1.11,0ZM19.84,10.86c2.51-1.2,5.52-2.28,8.96-3.22.74-.2,1.92-.19,2.65,0l1.16.32c.73.2.75.53.08.74-3.16,1.02-5.89,2.18-8.11,3.45-.51.29-1.54.36-2.32.14-.67-.18-1.34-.37-2.01-.55-.78-.21-.98-.63-.41-.9ZM20.12,29.19c.02-2.65,2.05-4.49,4.61-4.1,2.65.41,4.85,3.03,4.83,5.84-.02,2.82-2.25,4.62-4.91,4.04-2.56-.56-4.56-3.14-4.54-5.79Z"/>
      </g>
    </g>
  </g>
</svg>