<?xml version="1.0" encoding="UTF-8"?>
<svg id="Layer_2" data-name="Layer 2" xmlns="http://www.w3.org/2000/svg" viewBox="0 0 64 64">
  <defs>
    <style>
      .cls-1 {
        fill: #606060;
        opacity: 0;
      }

      .cls-2 {
        fill: #1a1a1a;
      }
    </style>
  </defs>
  <g id="Black">
    <g id="Spinner_Flat_Black" data-name="Spinner Flat Black">
      <rect class="cls-1" width="64" height="64"/>
      <path class="cls-2" d="M56.76,42.93c2.74-6.62,2.74-13.9,0-20.52-2.72-6.57-7.82-11.69-14.36-14.45,.37-1.49,.17-3.1-.62-4.47-1.07-1.85-3.06-3-5.2-3h-9.17c-2.14,0-4.13,1.15-5.2,3-.79,1.36-.99,2.97-.62,4.47-6.55,2.75-11.64,7.88-14.36,14.45-2.74,6.62-2.74,13.9,0,20.52,1.64,3.95,4.16,7.4,7.39,10.13l-.83,1.44c-1.07,1.85-1.07,4.15,0,6,1.07,1.85,3.06,3,5.2,3h26.02c2.14,0,4.13-1.15,5.2-3,1.07-1.85,1.07-4.15,0-6l-.83-1.44c3.23-2.74,5.75-6.18,7.39-10.14ZM27.42,4.5h9.17c1.54,0,2.5,1.67,1.73,3l-4.58,7.94c-.77,1.33-2.69,1.33-3.46,0l-4.58-7.94c-.77-1.33,.19-3,1.73-3Zm4.58,28.17l-8.73,21.07c-5.82-2.41-10.11-6.95-12.34-12.34l21.07-8.73L10.93,23.94c2.41-5.82,6.95-10.11,12.34-12.34l8.73,21.07,8.73-21.07c5.82,2.41,10.11,6.95,12.34,12.34l-21.07,8.73h0s0,0,0,0Zm8.73,21.07l-8.73-21.07,21.07,8.73c-2.41,5.82-6.95,10.11-12.34,12.34Z"/>
    </g>
  </g>
</svg>