<?xml version="1.0" encoding="UTF-8"?>
<svg id="Layer_2" data-name="Layer 2" xmlns="http://www.w3.org/2000/svg" viewBox="0 0 64 64">
  <defs>
    <style>
      .cls-1 {
        fill: #ff608a;
      }

      .cls-2 {
        fill: #fff;
      }

      .cls-3 {
        fill: #fec92b;
      }

      .cls-4 {
        fill: #1778ff;
      }

      .cls-5 {
        fill: #8cc936;
      }

      .cls-6 {
        fill: #39b54a;
      }

      .cls-7 {
        fill: #476475;
      }

      .cls-8 {
        fill: #fc9504;
      }

      .cls-9 {
        fill: #c442ff;
      }

      .cls-10 {
        fill: #1a1a1a;
        opacity: 0;
      }

      .cls-11 {
        fill: #e62e49;
      }
    </style>
  </defs>
  <g id="No_outline" data-name="No outline">
    <g id="Spinner">
      <rect class="cls-10" width="64" height="64"/>
      <g>
        <path class="cls-7" d="M18.99,59.5h26.02c1.54,0,2.5-1.67,1.73-3l-13.01-22.54c-.77-1.33-2.69-1.33-3.46,0l-13.01,22.54c-.77,1.33,.19,3,1.73,3Z"/>
        <g>
          <path class="cls-11" d="M40.73,11.6c-5.82-2.41-12.06-2.23-17.45,0l8.73,21.07,8.73-21.07Z"/>
          <path class="cls-8" d="M53.07,23.94c-2.23-5.39-6.52-9.93-12.34-12.34l-8.73,21.07,21.07-8.73Z"/>
          <path class="cls-3" d="M32,32.67l21.07,8.73c2.41-5.82,2.23-12.06,0-17.45l-21.07,8.73h0Z"/>
          <path class="cls-9" d="M10.93,23.94c-2.41,5.82-2.23,12.06,0,17.45l21.07-8.73L10.93,23.94Z"/>
          <path class="cls-5" d="M32,32.67l8.73,21.07c5.39-2.23,9.93-6.52,12.34-12.34l-21.07-8.73Z"/>
          <path class="cls-6" d="M32,32.67l-8.73,21.07c5.82,2.41,12.06,2.23,17.45,0l-8.73-21.07h0Z"/>
          <path class="cls-4" d="M32,32.67l-21.07,8.73c2.23,5.39,6.52,9.93,12.34,12.34l8.73-21.07h0Z"/>
          <path class="cls-1" d="M32,32.67L23.27,11.6c-5.39,2.23-9.93,6.52-12.34,12.34l21.07,8.73h0Z"/>
        </g>
        <path class="cls-2" d="M36.58,4.5h-9.17c-1.54,0-2.5,1.67-1.73,3l4.58,7.94c.77,1.33,2.69,1.33,3.46,0l4.58-7.94c.77-1.33-.19-3-1.73-3Z"/>
      </g>
    </g>
  </g>
</svg>