<svg xmlns="http://www.w3.org/2000/svg" viewBox="0 0 64 64"><defs><style>.cls-1,.cls-2{fill:#1a1a1a;}.cls-1{opacity:0;}</style></defs><title>Gold Black</title><g id="Layer_2" data-name="Layer 2"><g id="Finals"><rect class="cls-1" width="64" height="64"/><path class="cls-2" d="M59.27,27l-3-6.12a2.13,2.13,0,0,0-.31-.47,2.6,2.6,0,0,0-.38-.36L42,9.76a2.3,2.3,0,0,0-2.5-.18L8.34,26.8a2.2,2.2,0,0,0-.51.4,2.39,2.39,0,0,0-.54.82L6.6,29.9l-2,5.33A2.3,2.3,0,0,0,5,37.46L18,53.84a2.29,2.29,0,0,0,1.49.84,2.24,2.24,0,0,0,1.58-.35l1.55-1a1.38,1.38,0,0,0,.17-.12h0L58.46,29.9A2.31,2.31,0,0,0,59.27,27Zm-26.13,5.3L13.38,26.32l9.46-5.23,20,5.12ZM47,23.6l-19.76-5,5-2.79,20.11,4.26.09.07Z"/></g></g></svg>