<svg xmlns="http://www.w3.org/2000/svg" viewBox="0 0 64 64"><defs><style>.cls-1,.cls-7{fill:#fff;}.cls-1{opacity:0;}.cls-2{fill:#bfd9e6;}.cls-3{fill:none;}.cls-4{fill:#99bccf;}.cls-5{fill:#7b97a6;}.cls-6{fill:#abc0c9;}</style></defs><title>Iron</title><g id="Layer_2" data-name="Layer 2"><g id="Finals"><rect class="cls-1" width="64" height="64"/><path class="cls-2" d="M56,20.37a2.6,2.6,0,0,0-.38-.36L42,9.76a2.3,2.3,0,0,0-2.5-.18L8.34,26.8a2.2,2.2,0,0,0-.51.4L21.08,42.14Z"/><path class="cls-3" d="M22.63,53.33a1.38,1.38,0,0,0,.17-.12Z"/><path class="cls-4" d="M59.26,27l-3-6.12a2.55,2.55,0,0,0-.31-.47L23.7,40.5l-2.62,1.64L19.5,54.69a2.3,2.3,0,0,0,1.58-.36l1.55-1,.17-.12h0L58.45,29.9A2.29,2.29,0,0,0,59.26,27Z"/><path class="cls-5" d="M7.83,27.2a2.26,2.26,0,0,0-.54.82L6.6,29.9l-2,5.33A2.3,2.3,0,0,0,5,37.46L18,53.84a2.33,2.33,0,0,0,1.49.85l1.58-12.55Z"/><path class="cls-2" d="M28.54,49.46h0s-6.9,4.23-6.58-1.07.66-5.66,5.9-10.29a5.49,5.49,0,0,0,.48-.49L23.7,40.5l-2.62,1.64L19.5,54.69a2.3,2.3,0,0,0,1.58-.36l1.55-1,.17-.12h0Z"/><path class="cls-2" d="M41.75,40.82,58.45,29.9A2.29,2.29,0,0,0,59.26,27l-3-6.12a2.55,2.55,0,0,0-.31-.47L44.22,27.7Z"/><path class="cls-6" d="M7.83,27.2a2.26,2.26,0,0,0-.54.82L6.6,29.9l-2,5.33A2.3,2.3,0,0,0,5,37.46L6.54,39.4a7.65,7.65,0,0,1-.28-5c1.17-4.22,2.51-4.12,6.9,1s5.27,9,5.27,12.66c0,2-1.5,2.66-2.8,2.81l2.38,3a2.33,2.33,0,0,0,1.49.85l1.58-12.55Z"/><path class="cls-7" d="M55.59,20l-5.15-3.89h0c4.42,5.6-20.13,18.66-24.45,20s-9.62-2.85-12.76-6.38S16,22.58,16,22.58h0L8.34,26.8a2.2,2.2,0,0,0-.51.4L21.08,42.14,56,20.37A2.6,2.6,0,0,0,55.59,20Z"/></g></g></svg>