<?xml version="1.0" encoding="UTF-8"?>
<svg id="Layer_2" data-name="Layer 2" xmlns="http://www.w3.org/2000/svg" viewBox="0 0 64 64">
  <defs>
    <style>
      .cls-1, .cls-2, .cls-3, .cls-4 {
        stroke-width: 0px;
      }

      .cls-1, .cls-2, .cls-4 {
        fill: #1a1a1a;
      }

      .cls-2 {
        opacity: 0;
      }

      .cls-3 {
        fill: none;
      }

      .cls-4 {
        fill-rule: evenodd;
      }
    </style>
  </defs>
  <g id="Exports_1" data-name="Exports 1">
    <g>
      <rect class="cls-2" width="64" height="64"/>
      <g>
        <path class="cls-4" d="M36.39,40.29c0-1.74-1.62-1.5-2.99-1.24.15,1.23.31,2.45.48,3.67,1.27-.27,2.5-1.02,2.51-2.43Z"/>
        <g>
          <path class="cls-3" d="M38.41,39.49c-.04-.22-.09-.42-.16-.61,0,0,0,0,0,0-.25-.75-.68-1.24-1.22-1.54-.02-.01-.04-.02-.05-.03-.09-.05-.18-.09-.28-.13-.03-.01-.06-.02-.09-.04-.09-.03-.19-.06-.28-.09-.04-.01-.08-.02-.11-.03-.09-.02-.19-.04-.29-.06-.04,0-.09-.01-.14-.02-.1-.01-.19-.02-.29-.03-.05,0-.1,0-.16,0-.1,0-.2,0-.29,0-.06,0-.12,0-.17,0-.1,0-.19,0-.29.01-.06,0-.13,0-.2.01-.09,0-.19.02-.28.03-.07,0-.15.02-.22.03-.09.01-.18.02-.27.04-.08.01-.16.03-.24.04-.09.01-.17.03-.26.04-.1.02-.2.04-.29.05-.07.01-.14.03-.21.04-.17.03-.34.07-.51.11-.16.04-.3.11-.43.19-.04.03-.07.06-.1.09-.08.07-.14.14-.2.23-.01.02-.04.04-.05.06,0,0,.01,0,.02,0-.09.17-.14.35-.12.57.4,3.33.88,6.65,1.42,9.96.21,1.29,2.27.95,2.06-.34-.19-1.12-.35-2.25-.52-3.38,2.4-.47,4.74-2.41,4.23-5.19Z"/>
          <path class="cls-3" d="M28.14,40.4c1.35.24,1.62-1.69.25-1.88-1.33-.22-2.7-.4-4.05-.65-.29-.16-.62-.22-.88-.18-1.49-.31-2.95-.74-4.33-1.36-1.27-.6-.96,1.36.31,1.96,1.17.53,2.42.91,3.69,1.2.44,3.18.88,6.36,1.32,9.53.17,1.28,2.25,1.73,2.08.44-.44-3.19-.88-6.38-1.32-9.57.98.17,1.97.32,2.93.5Z"/>
          <path class="cls-3" d="M45.22,37.36c0-.07-.03-.14-.05-.2,0-.02-.02-.03-.02-.05-.02-.04-.04-.08-.06-.11-.01-.02-.02-.03-.04-.04-.03-.03-.06-.05-.09-.07-.02,0-.03-.02-.05-.02-.05-.02-.11-.03-.18-.02h0c-.11.02-.23.04-.36.07-.03,0-.07.02-.1.02-.11.03-.22.06-.34.09-.03,0-.06.02-.09.03-.96.3-2.18.89-3.09,1.82-.65.67-1.14,1.5-1.26,2.54-.15,1.53,1.05,1.72,1.88,2.17.27.15.37-.08.36.31,0,.51-.88.78-1.26.94-.91.43-1.78.56-2.65.32-1.15-.32-1.89,1.67-.72,2.05,1.84.67,5.46-.31,6.4-3.14.39-1.08.3-2.1-.28-2.48-.32-.21-1.21.01-1.4-.37-.78-1.61,2.01-1.88,2.35-1.95.44-.01.78-.52.94-1.08,0-.02.01-.04.02-.06.02-.07.03-.14.04-.21,0-.02,0-.05.01-.07,0-.07.02-.13.02-.2,0-.02,0-.04,0-.06,0-.08,0-.17-.01-.24,0,0,0,0,0,0Z"/>
          <path class="cls-3" d="M29.58,43.63c-.35-1.21-2.45-1.3-2.1-.06.73,2.61,1.51,5.2,2.35,7.78.41,1.28,2.34.69,1.94-.56-.78-2.37-1.52-4.76-2.19-7.16Z"/>
          <path class="cls-1" d="M39.12,33.55c-2.19.46-4.59.72-7.12.72-7.47,0-13.89-2.25-16.71-5.46v21.56c0,5.04,7.48,9.13,16.71,9.13s16.71-4.09,16.71-9.13v-21.56c-1.87,2.13-5.31,3.83-9.6,4.74ZM24.46,49.02c-.44-3.18-.88-6.36-1.32-9.53-1.27-.29-2.52-.67-3.69-1.2-1.27-.61-1.58-2.56-.31-1.96,1.38.62,2.84,1.05,4.33,1.36.26-.05.59.02.88.18,1.35.25,2.72.43,4.05.65,1.36.19,1.1,2.12-.25,1.88-.96-.18-1.95-.33-2.93-.5.44,3.19.88,6.38,1.32,9.57.17,1.29-1.91.84-2.08-.44ZM29.84,51.35c-.84-2.58-1.63-5.18-2.35-7.78-.35-1.24,1.75-1.14,2.1.06.68,2.4,1.41,4.79,2.19,7.16.41,1.25-1.53,1.83-1.94.56ZM32.64,48.4c-.55-3.31-1.02-6.63-1.42-9.96-.03-.21.03-.4.12-.57,0,0-.01,0-.02,0,.01-.02.04-.04.05-.06.05-.09.12-.16.2-.23.03-.03.06-.06.1-.09.13-.08.27-.15.43-.19.17-.04.34-.07.51-.11.07-.01.14-.03.21-.04.1-.02.2-.04.29-.05.09-.02.17-.03.26-.04.08-.01.16-.03.24-.04.09-.01.18-.02.27-.04.07,0,.15-.02.22-.03.1-.01.19-.02.28-.03.07,0,.13-.01.2-.01.1,0,.2,0,.29-.01.06,0,.12,0,.17,0,.1,0,.2,0,.29,0,.05,0,.1,0,.16,0,.1,0,.2.02.29.03.05,0,.09.01.14.02.1.02.19.03.29.06.04,0,.08.02.11.03.1.03.19.05.28.09.03.01.06.02.09.04.1.04.19.08.28.13.02,0,.04.02.05.03.55.31.97.79,1.22,1.54,0,0,0,0,0,0,.06.19.12.39.16.61.51,2.77-1.83,4.71-4.23,5.19.17,1.13.33,2.25.52,3.38.21,1.29-1.85,1.63-2.06.34ZM45.23,37.67c0,.07,0,.13-.02.2,0,.02,0,.05-.01.07-.01.07-.03.14-.04.21,0,.02-.01.04-.02.06-.16.55-.5,1.06-.94,1.08-.34.07-3.13.33-2.35,1.95.18.38,1.07.16,1.4.37.58.38.67,1.4.28,2.48-.95,2.82-4.56,3.81-6.4,3.14-1.16-.39-.43-2.37.72-2.05.87.24,1.74.11,2.65-.32.37-.17,1.25-.43,1.26-.94,0-.39-.09-.16-.36-.31-.84-.45-2.03-.64-1.88-2.17.12-1.04.61-1.87,1.26-2.54.91-.93,2.13-1.52,3.09-1.82.03,0,.06-.02.09-.03.12-.04.23-.07.34-.09.03,0,.07-.02.1-.02.13-.03.25-.05.36-.07h0c.07,0,.12,0,.18.02.02,0,.03.02.05.02.03.02.06.04.09.07.01.01.03.03.04.04.02.03.04.07.06.11,0,.02.02.03.02.05.02.06.04.12.05.2,0,0,0,0,0,0,0,.08.01.16.01.24,0,.02,0,.04,0,.06Z"/>
          <path class="cls-1" d="M50.26,13.63c0-5.04-8.18-9.13-18.26-9.13S13.74,8.59,13.74,13.63v8.5c0,1.31.56,2.55,1.55,3.67,2.83,3.21,9.24,5.46,16.71,5.46,2.52,0,4.93-.26,7.12-.72,4.29-.91,7.73-2.61,9.6-4.74.99-1.12,1.55-2.36,1.55-3.67v-8.5h0ZM23.5,13.53l11.3-5.46c.56-.27,1.2-.3,1.78-.08l3.89,1.46c.39.15.43.69.07.89l-10.6,5.91c-.62.34-1.36.38-2.01.1l-4.41-1.92c-.39-.17-.4-.71-.02-.9Z"/>
        </g>
      </g>
    </g>
  </g>
</svg>