<?xml version="1.0" encoding="UTF-8"?>
<svg id="Layer_2" data-name="Layer 2" xmlns="http://www.w3.org/2000/svg" viewBox="0 0 64 64">
  <defs>
    <style>
      .cls-1, .cls-2, .cls-3, .cls-4, .cls-5, .cls-6, .cls-7, .cls-8, .cls-9, .cls-10 {
        stroke-width: 0px;
      }

      .cls-1, .cls-2, .cls-4, .cls-8, .cls-10 {
        fill-rule: evenodd;
      }

      .cls-1, .cls-9 {
        fill: #fff;
      }

      .cls-2 {
        fill: #fec92b;
      }

      .cls-11 {
        opacity: 0;
      }

      .cls-3 {
        fill: #d3dee3;
      }

      .cls-4 {
        fill: #37b9ff;
      }

      .cls-5 {
        fill: #1778ff;
      }

      .cls-6 {
        fill: #abc0c9;
      }

      .cls-7 {
        fill: #cef;
      }

      .cls-8 {
        fill: #7b97a6;
      }

      .cls-10 {
        fill: #476475;
      }
    </style>
  </defs>
  <g id="Exports_1" data-name="Exports 1">
    <g>
      <g class="cls-11">
        <rect class="cls-9" width="64" height="64"/>
      </g>
      <g>
        <path class="cls-1" d="M15.29,22.13v28.23c0,5.04,7.48,9.13,16.71,9.13s16.71-4.09,16.71-9.13v-28.23H15.29Z"/>
        <path class="cls-2" d="M32,55.74c-7.78,0-12.95-3.23-12.95-5.37v-24.47h25.9v24.47c0,2.14-5.16,5.37-12.95,5.37Z"/>
        <path class="cls-4" d="M15.29,45.65c2.28,3.67,8.9,6.32,16.71,6.32s14.43-2.65,16.71-6.32v-23.52H15.29v23.52Z"/>
        <g>
          <path class="cls-1" d="M29.58,40.63c-.35-1.21-2.45-1.3-2.1-.06.73,2.61,1.51,5.2,2.35,7.78.41,1.28,2.34.69,1.94-.56-.78-2.37-1.52-4.76-2.19-7.16Z"/>
          <path class="cls-1" d="M38.41,36.49c-.55-3.13-3.5-2.8-6.32-2.19-.57.13-.94.57-.88,1.13.4,3.33.88,6.65,1.42,9.96.21,1.29,2.27.95,2.06-.34-.19-1.12-.35-2.25-.52-3.38,2.4-.47,4.74-2.41,4.23-5.19ZM36.39,37.29c0,1.41-1.23,2.16-2.51,2.43-.17-1.22-.33-2.45-.48-3.67,1.37-.26,3-.5,2.99,1.24Z"/>
          <path class="cls-1" d="M44.74,33.85c-1.45.22-4.9,1.59-5.23,4.58-.15,1.53,1.05,1.72,1.88,2.17.27.15.37-.08.36.31,0,.51-.88.78-1.26.94-.91.43-1.78.56-2.65.32-1.15-.32-1.89,1.67-.72,2.05,1.84.67,5.46-.31,6.4-3.14.39-1.08.3-2.1-.28-2.48-.32-.21-1.21.01-1.4-.37-.78-1.61,2.01-1.88,2.35-1.95.98-.02,1.47-2.52.54-2.44Z"/>
          <path class="cls-1" d="M28.4,35.51c-1.33-.22-2.7-.4-4.05-.65-.29-.16-.62-.22-.88-.18-1.49-.31-2.95-.74-4.33-1.36-1.27-.6-.96,1.36.31,1.96,1.17.53,2.42.91,3.69,1.2.44,3.18.88,6.36,1.32,9.53.17,1.28,2.25,1.73,2.08.44-.44-3.19-.88-6.38-1.32-9.57.98.17,1.97.32,2.93.5,1.35.24,1.62-1.69.25-1.88Z"/>
        </g>
        <g>
          <path class="cls-5" d="M15.29,22.13v1.23c2.96,5.42,8.8,9.64,16.03,11.5.14-.28.42-.48.78-.56,2.62-.57,5.34-.88,6.16,1.58.45.02.9.03,1.35.03.39,0,.78,0,1.16-.02,1.23-1.26,3.02-1.9,3.97-2.04.58-.05.6.89.31,1.62,1.26-.21,2.48-.48,3.66-.82v-12.52H15.29Z"/>
          <path class="cls-7" d="M32.09,34.3c-.35.08-.63.29-.78.56,2.2.57,4.53.92,6.94,1.02-.82-2.46-3.54-2.15-6.16-1.58Z"/>
          <path class="cls-7" d="M44.74,33.85c-.95.14-2.74.78-3.97,2.04,1.46-.05,2.89-.19,4.28-.42.3-.73.27-1.67-.31-1.62Z"/>
        </g>
        <g>
          <path class="cls-8" d="M39.12,13.63v16.92c6.55-1.39,11.15-4.63,11.15-8.41v-8.5h-11.15Z"/>
          <path class="cls-6" d="M38.65,13.63c-2.06-.4-4.3-.63-6.65-.63s-4.59.22-6.65.63h-11.61v8.5c0,5.04,8.18,9.13,18.26,9.13,2.52,0,4.93-.26,7.12-.72V13.63h-.46Z"/>
        </g>
        <ellipse class="cls-3" cx="32" cy="13.63" rx="18.26" ry="9.13"/>
        <path class="cls-1" d="M29.88,7.96c.27,1.17-1.71,2.13-4.28,2.72s-4.77.58-5.03-.59,1.6-2.59,4.17-3.17,4.87-.12,5.14,1.05Z"/>
        <path class="cls-10" d="M40.47,9.44l-3.89-1.46c-.58-.22-1.22-.19-1.78.08l-11.3,5.46c-.38.18-.37.73.02.9l4.41,1.92c.65.28,1.39.25,2.01-.1l10.6-5.91c.37-.2.33-.75-.07-.89Z"/>
      </g>
    </g>
  </g>
</svg>