<svg xmlns="http://www.w3.org/2000/svg" viewBox="0 0 64 64"><defs><style>.cls-1{fill:#1a1a1a;opacity:0;}.cls-2{fill:#fff;}</style></defs><title>Door Open Flat White</title><g id="Layer_2" data-name="Layer 2"><g id="Layer_3" data-name="Layer 3"><rect class="cls-1" width="64" height="64"/><path class="cls-2" d="M49.71,7.88,37.78,1.15a1.5,1.5,0,0,0-2.23,1.31V61.54a1.5,1.5,0,0,0,2.23,1.31l11.93-6.73a2,2,0,0,0,1-1.74V9.62A2,2,0,0,0,49.71,7.88ZM44.94,35.21a3.3,3.3,0,1,1-3.88-3.87A3.3,3.3,0,0,1,44.94,35.21Z"/><path class="cls-2" d="M31.64,9H15.27a2,2,0,0,0-2,2V53a2,2,0,0,0,2,2H31.64V51H17.27V13H31.64Z"/></g></g></svg>