<svg xmlns="http://www.w3.org/2000/svg" viewBox="0 0 64 64"><defs><style>.cls-1{fill:#1a1a1a;opacity:0;}.cls-2{fill:#476475;}.cls-3{fill:#d1864b;}.cls-4{fill:#bb5938;}.cls-5{fill:#ebb369;}</style></defs><title>Door Open</title><g id="Layer_2" data-name="Layer 2"><g id="Layer_3" data-name="Layer 3"><rect class="cls-1" width="64" height="64"/><path class="cls-2" d="M47.37,4.5H16.63a1,1,0,0,0-1,1v53a1,1,0,0,0,1,1H47.37a1,1,0,0,0,1-1V5.5A1,1,0,0,0,47.37,4.5Z"/><path class="cls-3" d="M47.53,4.53,33.17,11.81A1.92,1.92,0,0,0,32,13.47V50.59a1.92,1.92,0,0,0,1.18,1.66l14.34,7.22a1,1,0,0,0,.85-1V5.5A1,1,0,0,0,47.53,4.53Z"/><polygon class="cls-4" points="34.75 15.25 44.93 10.82 44.93 15.85 39.4 17.81 34.75 15.25"/><polygon class="cls-4" points="44.93 40.28 39.4 39.27 34.75 35.88 44.93 36.91 44.93 40.28"/><polygon class="cls-4" points="39.4 39.27 34.75 35.88 34.75 48.71 39.4 46.15 39.4 39.27"/><polygon class="cls-5" points="39.4 46.15 34.75 48.71 44.93 53.15 44.93 48.11 39.4 46.15"/><polygon class="cls-5" points="39.4 28.76 34.75 31.99 44.93 31.99 44.93 28.31 39.4 28.76"/><polygon class="cls-4" points="39.4 17.81 34.75 15.25 34.75 31.99 39.4 28.76 39.4 17.81"/><circle class="cls-5" cx="33.92" cy="35.88" r="1.8"/></g></g></svg>