<svg xmlns="http://www.w3.org/2000/svg" viewBox="0 0 64 64"><defs><style>.cls-1,.cls-2{fill:#1a1a1a;}.cls-1{opacity:0;}.cls-3{fill:#d1864b;}.cls-4{fill:#ebb369;}.cls-5{fill:#bb5938;}.cls-6{fill:#9c3d29;}</style></defs><title>Door Closed Outline</title><g id="Layer_2" data-name="Layer 2"><g id="Layer_3" data-name="Layer 3"><rect class="cls-1" width="64" height="64"/><rect class="cls-2" x="11.63" y="0.5" width="40.73" height="63" rx="5"/><path class="cls-3" d="M15.63,5.5v53a1,1,0,0,0,1,1H47.37a1,1,0,0,0,1-1V5.5a1,1,0,0,0-1-1H16.63A1,1,0,0,0,15.63,5.5Z"/><polygon class="cls-4" points="39.03 13.83 39.03 27.86 24.97 27.86 20.82 32.01 43.18 32.01 43.18 9.69 39.03 13.83"/><polygon class="cls-5" points="24.97 13.83 39.03 13.83 43.18 9.69 20.82 9.69 20.82 32.01 24.97 27.86 24.97 13.83"/><polygon class="cls-6" points="24.97 27.86 20.82 32.01 24.97 27.86 24.97 27.86"/><polygon class="cls-6" points="39.03 13.83 43.18 9.69 39.03 13.83 39.03 13.83"/><polygon class="cls-5" points="24.97 41.34 39.03 41.34 43.18 37.2 20.82 37.2 20.82 54.31 24.97 50.17 24.97 41.34"/><polygon class="cls-4" points="39.03 41.34 39.03 50.17 24.97 50.17 20.82 54.31 43.18 54.31 43.18 37.2 39.03 41.34"/><circle class="cls-4" cx="20.82" cy="37.2" r="2.84"/></g></g></svg>