<svg xmlns="http://www.w3.org/2000/svg" viewBox="0 0 64 64"><defs><style>.cls-1,.cls-2{fill:#1a1a1a;}.cls-1{opacity:0;}</style></defs><title>Envelope Black</title><g id="Layer_2" data-name="Layer 2"><g id="Finals"><rect class="cls-1" width="64" height="64"/><path class="cls-2" d="M31.24,35a1.36,1.36,0,0,0,1.52,0L61.6,15.23a.93.93,0,0,0,.4-.76V12.05a2.79,2.79,0,0,0-2.78-2.79H4.78A2.79,2.79,0,0,0,2,12.05v2.42a.93.93,0,0,0,.4.76Z"/><path class="cls-2" d="M60.55,22.88l-14,9.61a1,1,0,0,0,0,1.65l14,9.61A.93.93,0,0,0,62,43V23.65A.93.93,0,0,0,60.55,22.88Z"/><path class="cls-2" d="M41.5,37.64a1,1,0,0,0-1,0L36,40.71a7.07,7.07,0,0,1-7.94,0l-4.48-3.07a1,1,0,0,0-1.05,0L2,51.68V52a2.79,2.79,0,0,0,2.78,2.79H59.22A2.79,2.79,0,0,0,62,52v-.27Z"/><path class="cls-2" d="M17.48,32.49l-14-9.61A.93.93,0,0,0,2,23.65V43a.93.93,0,0,0,1.45.77l14-9.61A1,1,0,0,0,17.48,32.49Z"/></g></g></svg>