<svg xmlns="http://www.w3.org/2000/svg" viewBox="0 0 64 64"><defs><style>.cls-1,.cls-2{fill:#1a1a1a;}.cls-1{opacity:0;}.cls-3{fill:#96dbff;}.cls-4{fill:#fff;}</style></defs><title>Envelope White Outline</title><g id="Layer_2" data-name="Layer 2"><g id="_001-100" data-name="001-100"><rect class="cls-1" width="64" height="64"/><rect class="cls-2" x="0.5" y="7.16" width="63" height="49.68" rx="6.55"/><rect class="cls-3" x="4.5" y="15.93" width="55" height="34.11"/><path class="cls-4" d="M31.3,34.72a1.24,1.24,0,0,0,1.4,0L59.13,16.63a.85.85,0,0,0,.37-.7V13.71A2.55,2.55,0,0,0,57,11.16H7.05A2.55,2.55,0,0,0,4.5,13.71v2.22a.85.85,0,0,0,.37.7Z"/><path class="cls-4" d="M59.5,22.73,45.31,32.45a.92.92,0,0,0,0,1.51L59.5,43.68Z"/><path class="cls-4" d="M40.71,37.17a.84.84,0,0,0-1,0L35.64,40a6.52,6.52,0,0,1-7.28,0l-4.11-2.82a.84.84,0,0,0-1,0L4.5,50v.25a2.55,2.55,0,0,0,2.55,2.55H57a2.55,2.55,0,0,0,2.55-2.55V50Z"/><path class="cls-4" d="M18.69,32.45,4.5,22.73v21L18.69,34A.92.92,0,0,0,18.69,32.45Z"/><path class="cls-4" d="M27.93,47.4H55.65L40.71,37.17a.84.84,0,0,0-1,0L35.64,40a6.52,6.52,0,0,1-7.28,0l-4.11-2.82a.84.84,0,0,0-1,0L8.35,47.4H27.93Z"/></g></g></svg>