<?xml version="1.0" encoding="UTF-8"?>
<svg id="Layer_2" data-name="Layer 2" xmlns="http://www.w3.org/2000/svg" viewBox="0 0 64 64">
  <defs>
    <style>
      .cls-1 {
        fill: #fff;
      }

      .cls-2 {
        fill: #fec92b;
      }

      .cls-3 {
        fill: #7b97a6;
      }

      .cls-4 {
        fill: #476475;
      }

      .cls-5 {
        fill: #324652;
      }

      .cls-6 {
        fill: #1a1a1a;
        opacity: 0;
      }
    </style>
  </defs>
  <g id="Rough">
    <g>
      <rect class="cls-6" width="64" height="64"/>
      <g>
        <path class="cls-4" d="M25.09,35.1c-3.2,2.76-6.46,5.77-9.71,9.02s-6.26,6.5-9.02,9.71c-.9,1.05-.85,2.62,.13,3.6l1.3,1.3c.98,.98,2.55,1.03,3.6,.13,3.2-2.76,6.46-5.77,9.71-9.02s6.26-6.5,9.02-9.71c.9-1.05,.85-2.62-.13-3.6l-1.3-1.3c-.98-.98-2.55-1.03-3.6-.13Z"/>
        <circle class="cls-3" cx="36.45" cy="26.33" r="21.83"/>
        <circle class="cls-5" cx="36.45" cy="26.33" r="19.67"/>
        <circle class="cls-4" cx="36.45" cy="26.33" r="15.32"/>
        <path class="cls-1" d="M41.96,15.27c-3.42-2.01-7.93-2.27-9.21,2.93-1.21,4.91-7.19,6.45-6.02,11.49,.87,6.99,3.14,8.18,8.25,6.97,1.39-.33,2.84-.23,4.18,.26,5.86,2.18,8.92-4.79,8.85-11.06-.05-4.33-2.32-8.4-6.06-10.59Z"/>
        <circle class="cls-2" cx="38.72" cy="25.39" r="4.83"/>
      </g>
    </g>
  </g>
</svg>