<?xml version="1.0" encoding="UTF-8"?>
<svg id="Layer_2" data-name="Layer 2" xmlns="http://www.w3.org/2000/svg" viewBox="0 0 64 64">
  <defs>
    <style>
      .cls-1 {
        fill: #fff;
      }

      .cls-2 {
        fill: #1a1a1a;
        opacity: 0;
      }
    </style>
  </defs>
  <g id="Rough">
    <g>
      <rect class="cls-2" width="64" height="64"/>
      <path class="cls-1" d="M51.88,10.89c-8.53-8.53-22.35-8.53-30.87,0-8,8-8.49,20.65-1.49,29.23-1.38,1.29-2.76,2.62-4.13,4-3.24,3.24-6.26,6.5-9.02,9.71-.9,1.05-.85,2.62,.13,3.6l1.3,1.3c.98,.98,2.55,1.03,3.6,.13,3.2-2.76,6.46-5.77,9.71-9.02,1.54-1.54,3.02-3.07,4.45-4.61,8.35,4.82,19.19,3.68,26.33-3.46,8.53-8.53,8.53-22.35,0-30.87Z"/>
    </g>
  </g>
</svg>