<svg xmlns="http://www.w3.org/2000/svg" viewBox="0 0 64 64"><defs><style>.cls-1,.cls-2{fill:#1a1a1a;}.cls-1{opacity:0;}.cls-3{fill:#bb5938;}.cls-4{fill:#9c3d29;}.cls-5{fill:#d1864b;}.cls-6{fill:#1778ff;}.cls-7{fill:#37b9ff;}.cls-8{fill:#cef;}</style></defs><title>Bonfire Blue Outline</title><g id="Layer_2" data-name="Layer 2"><g id="_001-100" data-name="001-100"><rect class="cls-1" width="64" height="64"/><path class="cls-2" d="M55.4,44.33a4.21,4.21,0,0,0-1.71-1.94,22.25,22.25,0,0,0,1.72-7.17C56,27.42,54,21.91,47.85,14.86a5.48,5.48,0,0,0-5.7-1.6,32.82,32.82,0,0,1-1.81-8A5.26,5.26,0,0,0,35,.5a5.38,5.38,0,0,0-3.48,1.27c-4.62,3.91-9.87,9-12.8,15.76a5.57,5.57,0,0,0-1.91-.34,5.39,5.39,0,0,0-4.39,2.23,22.15,22.15,0,0,0-3.8,10c-.84,6.17.41,11.67,3.54,16l-1.41.64-.25.13c-1.38.74-4.19,3.2-.54,10,2,3.68,4.19,5.54,6.56,5.54a4.45,4.45,0,0,0,2.08-.52l3.18-1.83c.75,1.76,2.69,3.41,6.31,3.41a10.34,10.34,0,0,0,1.46-.1c3.52-.45,6-2.28,6.6-4.76,0-.13.06-.26.08-.39s.09-.47.16-.77l5.73,5.54.21.18a4.39,4.39,0,0,0,2.83,1c2,0,4.12-1.3,6.43-3.85s3.27-4.67,3.13-6.56a4.35,4.35,0,0,0-.37-1.53,13.77,13.77,0,0,0,.57-1.27C55.92,47.85,56.08,45.84,55.4,44.33Z"/><path class="cls-3" d="M51.6,45.8,36.12,40.67l-7-3c-.31-.12-1.06,1-1.66,2.53s-.85,2.83-.54,2.94l16.77,5.61,5.71,2.53Z"/><path class="cls-4" d="M27.12,41.14c-.35,1.07-.44,1.9-.2,2l16.61,5.54,5.87,2.6.73-1.8Z"/><ellipse class="cls-5" cx="50.5" cy="48.54" rx="2.95" ry="0.77" transform="translate(-13.44 77.14) rotate(-67.96)"/><path class="cls-3" d="M37.06,41.09c1.78-.31,5.55-1.08,7.71-2.42l3.12,3-3.62,2c-.38.22-.74.46-1.09.7-.69.46-2.7,1.14-6.43-2.47A.53.53,0,0,1,37.06,41.09Z"/><path class="cls-4" d="M42.21,43.36a2.06,2.06,0,0,1-.44.19,7.14,7.14,0,0,1-2.48.43c2.13,1.26,3.37.81,3.89.47.35-.24.71-.48,1.09-.7l3.62-2L47.1,41l-3.65,1.74C43,42.89,42.62,43.13,42.21,43.36Z"/><ellipse class="cls-5" cx="46.34" cy="40.19" rx="1.02" ry="2.19" transform="translate(-14.47 48.29) rotate(-48.52)"/><path class="cls-3" d="M16.71,57.68,38.84,45l10.83-5.07c.45-.24-.14-2.22-1.32-4.41s-2.51-3.78-3-3.53l-24,13.72-8.92,4.06Z"/><path class="cls-4" d="M47.56,34.14c-.93-1.46-1.82-2.39-2.18-2.19L21.6,45.56l-9.17,4.17,1.41,2.62Z"/><ellipse class="cls-5" cx="14.57" cy="53.71" rx="1.21" ry="4.51" transform="translate(-23.76 13.36) rotate(-28.36)"/><path class="cls-3" d="M37.36,45.62C35.9,48,32.93,53.08,32.3,56.88l-6.87.57,1.3-6.17c.13-.65.21-1.3.3-2,.16-1.24,1.41-4.23,9.59-4.94A.81.81,0,0,1,37.36,45.62Z"/><path class="cls-4" d="M29.32,49.3a3.26,3.26,0,0,1,.23-.69,10.74,10.74,0,0,1,2-3.28c-3.71,1.2-4.44,3.08-4.56,4-.09.65-.17,1.3-.3,2l-1.3,6.17,1.73-.14,1.69-5.92C29.05,50.7,29.18,50,29.32,49.3Z"/><ellipse class="cls-5" cx="28.87" cy="57.18" rx="3.47" ry="1.55" transform="translate(-7.05 4.15) rotate(-7.32)"/><path class="cls-3" d="M50.63,53.08,32.14,38.4l-8-7.58c-.36-.31-1.94.87-3.51,2.62s-2.56,3.42-2.2,3.72l20,16,6.5,6.28Z"/><path class="cls-4" d="M19.68,34.56c-1,1.29-1.54,2.36-1.26,2.6L38.23,53l6.69,6.46,1.88-2.09Z"/><ellipse class="cls-5" cx="47.77" cy="56.25" rx="4.27" ry="1.12" transform="translate(-25.99 53.92) rotate(-47.85)"/><path class="cls-6" d="M12.6,30a18.43,18.43,0,0,1,3.09-8.24,1.44,1.44,0,0,1,2.23-.06l2.75,3.49c1.22-8.44,6.82-14.75,13.45-20.35a1.36,1.36,0,0,1,2.24.78,37.07,37.07,0,0,0,4.8,15l1.39-2.86a1.42,1.42,0,0,1,2.28-.25c5.57,6.41,7.1,10.94,6.59,17.42-.55,7-4.46,15-19.28,15.55C21.07,50.86,10.76,43.57,12.6,30Z"/><path class="cls-7" d="M43.24,45.27c5-8.11-5.41-12.29-7.57-16.61-1.45-2.9-1.4-7.74-1.3-9.89a.77.77,0,0,0-1.08-.67c-2.76,1.12-9.42,4.67-8.26,12.41,1,6.78-3.31,6.42-3.88,3.15a.79.79,0,0,0-1.42-.24c-2.26,4-4.68,11.48,4.56,16a22.74,22.74,0,0,0,7.85,1.07,31.78,31.78,0,0,0,6.77-.91A12.6,12.6,0,0,0,43.24,45.27Z"/><path class="cls-8" d="M26.19,43c-1.14,6,7.33,6.95,10.53,2.71,3.78-5-1.84-10.11-5.17-13.87C29.93,35.05,27,39.49,26.19,43Z"/><path class="cls-7" d="M41.29,23.82a1.16,1.16,0,0,0-1.82.42c-.38,1.71-.28,4.69,3.62,7.34.72.49,1.85.06,1.76-.68A11.52,11.52,0,0,0,41.29,23.82Z"/></g></g></svg>