<svg xmlns="http://www.w3.org/2000/svg" viewBox="0 0 64 64"><defs><style>.cls-1,.cls-2{fill:#1a1a1a;}.cls-1{opacity:0;}</style></defs><title>Bonfire Black</title><g id="Layer_2" data-name="Layer 2"><g id="Finals"><rect class="cls-1" width="64" height="64"/><path class="cls-2" d="M51.23,48.8c.61-1.51.78-2.85.37-3h0l-3.91-1.3a16.17,16.17,0,0,0,3.73-9.6c.52-6.48-1-11-6.58-17.42a1.43,1.43,0,0,0-2.29.25l-1.38,2.86a36.77,36.77,0,0,1-4.8-15,1.37,1.37,0,0,0-2.25-.78c-6.63,5.6-12.23,11.91-13.45,20.35l-2.75-3.49a1.43,1.43,0,0,0-2.22.06A18.32,18.32,0,0,0,12.61,30c-1,7.67,1.79,13.33,6.44,16.73l-6.62,3c-.59.32-.11,2.36,1.07,4.55s2.63,3.72,3.22,3.4L26.58,52l-1.11,5.28a.13.13,0,0,0,0,.06l0,.1h0a.5.5,0,0,0,0,.17c.11.85,1.74,1.34,3.64,1.1s3.16-1,3.22-1.84h0a24.69,24.69,0,0,1,2.43-6.61h.08l3.6,2.88,6.5,6.28c.48.4,2.14-.7,3.72-2.45s2.47-3.49,2-3.89L47,50.23l2.37,1C49.81,51.42,50.63,50.31,51.23,48.8ZM33,47.29a9.71,9.71,0,0,1-10.22-5.57C20,35.37,27.88,33.4,29.88,30.5c1.33-1.94,1.79-5.44,1.93-7a.56.56,0,0,1,.85-.37c1.87,1.08,6.32,4.31,4.7,9.78-1.41,4.79,1.74,5,2.48,2.67a.57.57,0,0,1,1,0C42.26,39.07,43.36,45.73,33,47.29Z"/></g></g></svg>