<svg xmlns="http://www.w3.org/2000/svg" viewBox="0 0 64 64"><defs><style>.cls-1{fill:#1a1a1a;opacity:0;}.cls-2{fill:#bb5938;}.cls-3{fill:#9c3d29;}.cls-4{fill:#d1864b;}.cls-5{fill:#e62e49;}.cls-6{fill:#fdbc0d;}.cls-7{fill:#fee854;}</style></defs><title>Bonfire</title><g id="Layer_2" data-name="Layer 2"><g id="Finals"><rect class="cls-1" width="64" height="64"/><path class="cls-2" d="M51.6,45.8,36.12,40.67l-7-3c-.31-.12-1.05,1-1.66,2.53s-.85,2.83-.54,2.94L43.7,48.74l5.71,2.53Z"/><path class="cls-3" d="M27.12,41.14c-.34,1.07-.44,1.9-.2,2l16.61,5.54,5.88,2.6.72-1.8Z"/><ellipse class="cls-4" cx="50.5" cy="48.54" rx="2.95" ry="0.77" transform="translate(-13.44 77.14) rotate(-67.96)"/><path class="cls-2" d="M37.06,41.09c1.79-.31,5.55-1.08,7.71-2.42l3.12,3-3.62,2c-.37.22-.73.46-1.09.7-.69.46-2.7,1.14-6.42-2.47A.53.53,0,0,1,37.06,41.09Z"/><path class="cls-3" d="M42.22,43.36a2.31,2.31,0,0,1-.44.19A7.19,7.19,0,0,1,39.3,44c2.13,1.26,3.37.81,3.88.47s.72-.48,1.09-.7l3.62-2L47.11,41l-3.65,1.74C43,42.89,42.62,43.13,42.22,43.36Z"/><ellipse class="cls-4" cx="46.34" cy="40.19" rx="1.02" ry="2.19" transform="translate(-14.46 48.29) rotate(-48.52)"/><path class="cls-2" d="M16.72,57.68,38.84,45l10.83-5.07c.46-.24-.14-2.22-1.32-4.41s-2.51-3.78-3-3.53l-24,13.72-8.92,4.06Z"/><path class="cls-3" d="M47.57,34.14c-.94-1.46-1.83-2.39-2.18-2.19L21.61,45.56l-9.18,4.17,1.41,2.62Z"/><ellipse class="cls-4" cx="14.57" cy="53.71" rx="1.21" ry="4.51" transform="translate(-23.76 13.37) rotate(-28.36)"/><path class="cls-2" d="M37.37,45.62C35.9,48,32.93,53.08,32.31,56.88l-6.87.57,1.29-6.17c.14-.65.22-1.3.3-2,.16-1.24,1.41-4.23,9.59-4.94A.81.81,0,0,1,37.37,45.62Z"/><path class="cls-3" d="M29.33,49.3a3.83,3.83,0,0,1,.22-.69,10.74,10.74,0,0,1,2-3.28c-3.71,1.2-4.44,3.08-4.56,4-.08.65-.16,1.3-.3,2l-1.29,6.17,1.73-.14,1.68-5.92C29.05,50.7,29.19,50,29.33,49.3Z"/><ellipse class="cls-4" cx="28.87" cy="57.18" rx="3.47" ry="1.55" transform="translate(-7.05 4.15) rotate(-7.32)"/><path class="cls-2" d="M50.63,53.08,32.15,38.4l-8-7.58c-.36-.31-1.93.87-3.51,2.62s-2.56,3.42-2.2,3.72l20,16,6.5,6.28Z"/><path class="cls-3" d="M19.68,34.56c-1,1.29-1.54,2.36-1.26,2.6L38.24,53l6.68,6.46,1.88-2.09Z"/><ellipse class="cls-4" cx="47.78" cy="56.25" rx="4.27" ry="1.12" transform="translate(-25.99 53.93) rotate(-47.85)"/><path class="cls-5" d="M12.61,30a18.32,18.32,0,0,1,3.09-8.24,1.43,1.43,0,0,1,2.22-.06l2.75,3.49c1.22-8.44,6.82-14.75,13.45-20.35a1.36,1.36,0,0,1,2.24.78,36.94,36.94,0,0,0,4.81,15l1.38-2.86a1.43,1.43,0,0,1,2.29-.25c5.56,6.41,7.1,10.94,6.58,17.42-.55,7-4.46,15-19.27,15.55C21.08,50.86,10.76,43.57,12.61,30Z"/><path class="cls-6" d="M43.25,45.27c5-8.11-5.42-12.29-7.58-16.61-1.45-2.9-1.4-7.74-1.3-9.89a.77.77,0,0,0-1.08-.67c-2.76,1.12-9.42,4.67-8.26,12.41,1,6.78-3.31,6.42-3.88,3.15a.78.78,0,0,0-1.41-.24c-2.26,4-4.69,11.48,4.55,16a22.56,22.56,0,0,0,7.86,1.07,31.68,31.68,0,0,0,6.76-.91A12.71,12.71,0,0,0,43.25,45.27Z"/><path class="cls-7" d="M26.2,43c-1.15,6,7.32,6.95,10.52,2.71,3.78-5-1.84-10.11-5.17-13.87C29.93,35.05,27,39.49,26.2,43Z"/><path class="cls-6" d="M41.29,23.82a1.17,1.17,0,0,0-1.82.42c-.38,1.71-.28,4.69,3.63,7.34.71.49,1.84.06,1.75-.68A11.46,11.46,0,0,0,41.29,23.82Z"/></g></g></svg>