<?xml version="1.0" encoding="UTF-8"?>
<svg id="Layer_2" data-name="Layer 2" xmlns="http://www.w3.org/2000/svg" viewBox="0 0 64 64">
  <defs>
    <style>
      .cls-1 {
        fill: #606060;
        opacity: 0;
      }

      .cls-2 {
        fill: #1a1a1a;
      }
    </style>
  </defs>
  <g id="Black">
    <g id="Chalkboard_Flat_Black" data-name="Chalkboard Flat Black">
      <rect class="cls-1" width="64" height="64"/>
      <g>
        <path class="cls-2" d="M7.5,47H56.5V15H7.5V47Zm18.5-6.5c0-.55,.45-1,1-1h8c.55,0,1,.45,1,1v2c0,.55-.45,1-1,1h-8c-.55,0-1-.45-1-1v-2Zm-13,0c0-.55,.45-1,1-1h8c.55,0,1,.45,1,1v2c0,.55-.45,1-1,1H14c-.55,0-1-.45-1-1v-2Z"/>
        <path class="cls-2" d="M58.5,8H5.5c-2.76,0-5,2.24-5,5V51c0,2.76,2.24,5,5,5H58.5c2.76,0,5-2.24,5-5V13c0-2.76-2.24-5-5-5Zm1,43c0,.55-.45,1-1,1H5.5c-.55,0-1-.45-1-1V13c0-.55,.45-1,1-1H58.5c.55,0,1,.45,1,1V51Z"/>
      </g>
    </g>
  </g>
</svg>