<?xml version="1.0" encoding="UTF-8"?>
<svg id="Layer_2" data-name="Layer 2" xmlns="http://www.w3.org/2000/svg" viewBox="0 0 64 64">
  <defs>
    <style>
      .cls-1 {
        fill: #606060;
        opacity: 0;
      }

      .cls-2 {
        fill: #1a1a1a;
      }
    </style>
  </defs>
  <g id="Black">
    <g id="Chalkboard_2_Flat_Black" data-name="Chalkboard 2 Flat Black">
      <rect class="cls-1" width="64" height="64"/>
      <g>
        <path class="cls-2" d="M7.5,47H56.5V15H7.5V47Zm15.5-4.5c0,.55-.45,1-1,1H14c-.55,0-1-.45-1-1v-2c0-.55,.45-1,1-1h8c.55,0,1,.45,1,1v2Zm13,0c0,.55-.45,1-1,1h-8c-.55,0-1-.45-1-1v-2c0-.55,.45-1,1-1h8c.55,0,1,.45,1,1v2ZM13.71,28.01c1.41-2.86,4.15-3.76,7.38-2.47,.49-.52,1.46-.7,2.39-.62,.17,.01,.33,.11,.42,.26,.09,.15,.1,.33,.04,.49-1.54,3.72-1.31,5.96-.66,6.3,.47,.25,2.01-.27,4.47-3.99l1.09-5.49c-.64,.04-1.22-.17-1.65-.53-.36-.31-.79-.89-.75-1.93,0-.2,.13-.38,.31-.47,.18-.08,.4-.06,.56,.06,.98,.76,2.3,.39,3.96-.08,.16-.05,.4-.03,.54,.08,.13,.11,.27,.25,.26,.43-.03,.85-.39,2.34-.81,4.08-.75,3.1-1.88,7.79-.93,9.01,.69,.58,1.46,.62,2.18,.06,1.2-.93,1.81-3.04,1.3-4.4-1.35-.51-2.16-1.16-2.44-1.91-.13-.35-.2-.91,.2-1.57,.1-.18,.3-.27,.51-.26,1.64,.13,2.91,.84,3.8,2.11,1.66,.97,2.87,.19,4.4-.79,1.19-.77,2.43-1.56,3.98-1.47,1.43-.13,2.47,.74,2.62,1.66,.12,.76-.32,1.7-1.93,2.09-.18,.04-.37-.01-.5-.14-.13-.13-.19-.32-.14-.5,.19-.81-.2-.96-.33-1.01-.65-.25-1.86,.18-2.35,1.04-.97,1.99-1.21,3.63-.63,4.48,.4,.6,1.13,.67,1.67,.63,1.95-.15,4.9-2.05,6.74-5.9,.06-.14,.19-.24,.33-.28,.14-.04,.3-.02,.43,.05l.71,.42c.22,.13,.32,.41,.23,.65-1.48,3.98-6.2,7.52-9.6,7.52-.42,0-.83-.05-1.2-.17-1.16-.36-2.89-1.59-2.08-5.83-.54,.07-1.1,.07-1.64,0,.19,1.77-.57,3.44-2.14,4.59-1.83,1.34-4.25,1.59-5.76,.61-.57-.37-1.37-1.17-1.48-2.74-1.66,1.83-3.92,3.1-5.54,2.5-.74-.28-1.52-1-1.64-2.8-2.59,3.89-4.4,4.12-5.5,3.54-1.74-.92-2.12-4.53-.77-7.29Z"/>
        <path class="cls-2" d="M16.11,32.65c.13,.02,1.47,.05,4.11-4.81,0,0,0-.02,.02-.03,0,0,.02-.03,.03-.05-.71-.43-1.36-.64-1.95-.64-.45,0-.86,.13-1.24,.38-1.25,.85-1.83,3.01-1.51,4.38,.05,.22,.2,.73,.54,.77Z"/>
        <path class="cls-2" d="M58.5,8H5.5c-2.76,0-5,2.24-5,5V51c0,2.76,2.24,5,5,5H58.5c2.76,0,5-2.24,5-5V13c0-2.76-2.24-5-5-5Zm1,43c0,.55-.45,1-1,1H5.5c-.55,0-1-.45-1-1V13c0-.55,.45-1,1-1H58.5c.55,0,1,.45,1,1V51Z"/>
      </g>
    </g>
  </g>
</svg>