<?xml version="1.0" encoding="UTF-8"?>
<svg id="Layer_2" data-name="Layer 2" xmlns="http://www.w3.org/2000/svg" viewBox="0 0 64 64">
  <defs>
    <style>
      .cls-1 {
        fill: #fff;
      }

      .cls-2 {
        fill: #de925a;
      }

      .cls-3 {
        fill: #ffbdc6;
      }

      .cls-4 {
        fill: #006837;
      }

      .cls-5 {
        fill: #fee854;
      }

      .cls-6 {
        fill: #bb5938;
      }

      .cls-7 {
        fill: #1a1a1a;
        opacity: 0;
      }
    </style>
  </defs>
  <g id="No_outline" data-name="No outline">
    <g id="Chalkboard_2" data-name="Chalkboard 2">
      <rect class="cls-7" width="64" height="64"/>
      <g>
        <g>
          <rect class="cls-4" x="6" y="13.5" width="52" height="37"/>
          <path class="cls-2" d="M56.5,15V47H7.5V15H56.5m2-3H5.5c-.55,0-1,.45-1,1V51c0,.55,.45,1,1,1H58.5c.55,0,1-.45,1-1V13c0-.55-.45-1-1-1h0Z"/>
        </g>
        <rect class="cls-6" x="7.5" y="47" width="49" height="2.5"/>
        <rect class="cls-5" x="13" y="45.5" width="10" height="4" rx="1" ry="1"/>
        <rect class="cls-3" x="26" y="45.5" width="10" height="4" rx="1" ry="1"/>
        <path class="cls-1" d="M50.85,30.44l-.71-.42c-.13-.08-.29-.1-.43-.05-.14,.04-.27,.15-.33,.28-1.84,3.85-4.79,5.76-6.74,5.9-.54,.04-1.27-.04-1.67-.63-.58-.85-.34-2.49,.63-4.48,.48-.86,1.69-1.29,2.35-1.04,.13,.05,.52,.2,.33,1.01-.04,.18,.01,.37,.14,.5,.13,.13,.32,.19,.5,.14,1.61-.38,2.05-1.33,1.93-2.09-.15-.92-1.19-1.79-2.62-1.66-1.55-.09-2.79,.7-3.98,1.47-1.53,.98-2.74,1.76-4.4,.79-.88-1.27-2.16-1.98-3.8-2.11-.21,0-.4,.09-.5,.26-.39,.66-.32,1.21-.2,1.57,.27,.76,1.09,1.4,2.44,1.91,.51,1.36-.09,3.47-1.3,4.4-.73,.56-1.49,.52-2.18-.06-.95-1.22,.18-5.9,.93-9.01,.42-1.73,.78-3.23,.81-4.08,0-.17-.13-.32-.26-.43-.13-.11-.37-.13-.54-.08-1.67,.46-2.98,.83-3.96,.08-.16-.12-.37-.15-.56-.06-.18,.08-.3,.26-.31,.46-.04,1.04,.38,1.62,.75,1.93,.43,.36,1.01,.56,1.65,.53l-1.09,5.49c-2.46,3.72-4,4.24-4.47,3.99-.65-.34-.88-2.58,.66-6.3,.07-.16,.05-.34-.04-.49-.09-.15-.25-.24-.42-.26-.93-.07-1.9,.11-2.39,.62-3.23-1.29-5.96-.39-7.38,2.47-1.36,2.75-.98,6.36,.77,7.29,1.1,.58,2.91,.35,5.5-3.54,.12,1.8,.9,2.52,1.64,2.8,1.62,.6,3.88-.67,5.54-2.5,.11,1.57,.91,2.37,1.48,2.74,1.51,.98,3.93,.73,5.76-.61,1.57-1.14,2.33-2.82,2.14-4.59,.54,.07,1.1,.08,1.64,0-.81,4.24,.93,5.48,2.08,5.83,.37,.12,.78,.17,1.2,.17,3.41,0,8.12-3.54,9.6-7.52,.09-.24,0-.52-.23-.65Zm-34.74,5.21c-.33-.04-.49-.55-.54-.77-.32-1.37,.26-3.53,1.51-4.38,.37-.25,.79-.38,1.24-.38,.59,0,1.24,.21,1.95,.64-.02,.02-.03,.04-.03,.05,0,0-.01,.02-.02,.03-2.65,4.87-3.99,4.83-4.11,4.81Z"/>
      </g>
    </g>
  </g>
</svg>