<svg xmlns="http://www.w3.org/2000/svg" viewBox="0 0 64 64"><defs><style>.cls-1{fill:none;}.cls-2{fill:#fff;}</style></defs><title>Codes White</title><g id="Layer_2" data-name="Layer 2"><g id="Layer_2-2" data-name="Layer 2"><rect class="cls-1" width="64" height="64"/><polygon class="cls-2" points="17.88 33.07 20.54 33.07 19.22 29.7 17.88 33.07"/><path class="cls-2" d="M33.41,32.92H30.9V35.1h2.55c1,0,1.57-.39,1.57-1.08v0C35,33.34,34.51,32.92,33.41,32.92Z"/><path class="cls-2" d="M34.53,29.58v0c0-.64-.51-1-1.49-1H30.9v2.08H33C34,30.61,34.53,30.27,34.53,29.58Z"/><path class="cls-2" d="M55,18H9a5,5,0,0,0-5,5V41a5,5,0,0,0,5,5H55a5,5,0,0,0,5-5V23A5,5,0,0,0,55,18ZM22.35,37.75l-.86-2.12H16.91l-.85,2.12H12.61L17.66,25.8h3.17l5.05,12Zm16-3.27c0,2-1.66,3.27-4.49,3.27H27.7V25.88h6.08A4.38,4.38,0,0,1,37,27a2.63,2.63,0,0,1,.76,1.92v0A2.74,2.74,0,0,1,36,31.54c1.44.48,2.36,1.29,2.36,2.9Zm9.23,3.27-2.27-3.58L43,37.75H39.29l4.06-6-3.9-5.83h3.78l2.11,3.34,2.11-3.34h3.7l-3.9,5.8,4.07,6.07Z"/></g></g></svg>