<svg xmlns="http://www.w3.org/2000/svg" viewBox="0 0 64 64"><defs><style>.cls-1{fill:none;}.cls-2{fill:#1a1a1a;}.cls-3{fill:#a0f;}.cls-4{fill:#fff;}.cls-5{fill:#bdccd4;}.cls-6{fill:#4d4d4d;}.cls-7{fill:#5414b3;}.cls-8{fill:#fc62ff;}</style></defs><title>Codes Outline</title><g id="Layer_2" data-name="Layer 2"><g id="Layer_2-2" data-name="Layer 2"><rect class="cls-1" width="64" height="64"/><path class="cls-2" d="M55,14H9a9,9,0,0,0-9,9V41a9,9,0,0,0,5.49,8.29,8.84,8.84,0,0,0,1.7.53A9.18,9.18,0,0,0,9,50H55a8.93,8.93,0,0,0,5-1.54A8.78,8.78,0,0,0,62.46,46,8.93,8.93,0,0,0,64,41V23A9,9,0,0,0,55,14Z"/><rect class="cls-3" x="4" y="18" width="56" height="28" rx="5"/><rect class="cls-4" x="23" y="9" width="18" height="46" rx="2" transform="translate(64 0) rotate(90)"/><path class="cls-5" d="M32,1.75h1.74a0,0,0,0,1,0,0v46a0,0,0,0,1,0,0H32A1.75,1.75,0,0,1,30.26,46V3.5A1.75,1.75,0,0,1,32,1.75Z" transform="translate(56.75 -7.25) rotate(90)"/><path class="cls-6" d="M18.45,26.13h3l4.77,11.29H22.88l-.81-2H17.75l-.8,2H13.68ZM21.17,33l-1.25-3.19L18.66,33Z"/><path class="cls-6" d="M27.94,26.21h5.74a4.13,4.13,0,0,1,3.06,1A2.45,2.45,0,0,1,37.46,29v0a2.59,2.59,0,0,1-1.73,2.5A2.72,2.72,0,0,1,38,34.29v0c0,1.92-1.57,3.09-4.24,3.09H27.94Zm5,4.47c.94,0,1.47-.32,1.47-1v0c0-.61-.48-1-1.41-1H31v2Zm.44,4.24c1,0,1.49-.37,1.49-1v0c0-.61-.48-1-1.52-1H31v2.07Z"/><path class="cls-6" d="M42.72,31.72,39,26.21h3.57l2,3.15,2-3.15h3.49L46.4,31.68l3.85,5.74H46.68L44.53,34l-2.16,3.38H38.88Z"/><path class="cls-7" d="M55,44H9a5,5,0,0,1-5-5v2a5,5,0,0,0,5,5H55a5,5,0,0,0,5-5V39A5,5,0,0,1,55,44Z"/><path class="cls-8" d="M19.46,21c6.89,0,12.48-.09,12.48-1.62,0-.48-.58-.94-1.59-1.34H10a5.66,5.66,0,0,0-2.59.63,1,1,0,0,0-.43.71C7,20.87,12.56,21,19.46,21Z"/><path class="cls-8" d="M39,21c2.37,0,4.32-.07,4.82-1.45A1.75,1.75,0,0,0,43.69,18H34.38a1.75,1.75,0,0,0-.16,1.51C34.72,20.89,36.67,21,39,21Z"/></g></g></svg>