<svg xmlns="http://www.w3.org/2000/svg" viewBox="0 0 64 64"><defs><style>.cls-1{opacity:0;}.cls-2{fill:#fff;}.cls-3{fill:#e62e49;}.cls-4{fill:#bdccd4;}.cls-5{fill:#a72d3e;}.cls-6{fill:#ff7a6e;}</style></defs><title>Book Red</title><g id="Layer_2" data-name="Layer 2"><g id="_101-200" data-name="101-200"><g class="cls-1"><rect class="cls-2" width="64" height="64"/></g><path class="cls-3" d="M58.27,12.66l-4-.07,1.08-4.78-1.9-3.14L26.12,4.44a12.47,12.47,0,0,0-2,.12A6.47,6.47,0,0,0,22.56,5a3.15,3.15,0,0,0-1,.66,2,2,0,0,0-.53.89l-1.1,4.17c-.16.63-.39,1.47-.55,2.1-.34,1.27-.78,3-1.12,4.23s-.79,3-1.12,4.26l-.57,2.15c-.34,1.29-.8,3-1.14,4.32s-.81,3.05-1.15,4.36c-.18.65-.41,1.53-.58,2.19L12.5,38.72c-.35,1.34-.83,3.12-1.18,4.46l-.59,2.25L9.53,50a0,0,0,0,0,0,0,1.67,1.67,0,0,0,0,.91,5.2,5.2,0,0,0,1.23,1.94,12.05,12.05,0,0,0,2.31,2A17.1,17.1,0,0,0,16,56.29a21.73,21.73,0,0,0,7,1.58l27.4,1.69,9.68-43.93Z"/><path class="cls-4" d="M52.83,10.19l2.81,4.73L46.52,54.54l-24.59-1.3a6.4,6.4,0,0,1-4.27-2l-1-1.05,27.12,1Z"/><polygon class="cls-2" points="46.52 54.54 43.78 51.25 52.83 10.19 55.64 14.91 46.52 54.54"/><path class="cls-5" d="M43,49.91l2.12,2.77L17.09,51.13a5.59,5.59,0,0,0-.72,0,1.36,1.36,0,0,0-.68.19.49.49,0,0,0-.18.58,3.16,3.16,0,0,0,.77,1.2,7.31,7.31,0,0,0,1.36,1.21,5.38,5.38,0,0,0,2.33.93,7.34,7.34,0,0,0,.78.08L48.4,57l2,2.61L23,57.87a21.73,21.73,0,0,1-7-1.58,17.81,17.81,0,0,1-2.91-1.54,12.46,12.46,0,0,1-2.31-2,5.2,5.2,0,0,1-1.23-1.94,1.41,1.41,0,0,1,.27-1.42,3,3,0,0,1,1.73-.84,13.16,13.16,0,0,1,3.16-.15Z"/><polygon class="cls-5" points="48.4 56.95 58.27 12.66 60.07 15.63 50.39 59.56 48.4 56.95"/><polygon class="cls-5" points="43.03 49.91 53.44 4.67 55.34 7.81 45.15 52.68 43.03 49.91"/><path class="cls-6" d="M40.78,26,34.84,14.15A.82.82,0,0,0,33.5,14L23.69,25a.79.79,0,0,0-.13.88l5.38,11.75a.82.82,0,0,0,1.33.23L40.64,26.94A.81.81,0,0,0,40.78,26Z"/></g></g></svg>