<svg xmlns="http://www.w3.org/2000/svg" viewBox="0 0 128 128"><defs><style>.cls-1{fill:none;}.cls-2{fill:#1a1a1a;}.cls-3{fill:#37b9ff;}.cls-4{fill:#bdccd4;}.cls-5{fill:#fff;}.cls-6{fill:#0049c7;}.cls-7{fill:#1778ff;}.cls-8{fill:#96dbff;}</style></defs><title>Book Outline </title><g id="Layer_2" data-name="Layer 2"><g id="_14-25" data-name="14-25"><rect class="cls-1" width="128" height="128"/><path class="cls-2" d="M121.32,27.19l-3.6-6a7.86,7.86,0,0,0-5-3.6l.06-.27a7.86,7.86,0,0,0-.94-5.82l-3.8-6.29a7.88,7.88,0,0,0-6.68-3.8L46.4,1a34,34,0,0,0-4.93.34,21,21,0,0,0-4.93,1.32,14.14,14.14,0,0,0-4.61,3A11.9,11.9,0,0,0,28.83,11L5.89,97.89a7,7,0,0,0-.22,1.16c0,.32-.08.65-.1,1s0,.73,0,1A12.13,12.13,0,0,0,6,103.81a17.84,17.84,0,0,0,4.2,7A33.3,33.3,0,0,0,16.26,116c1.09.73,2.26,1.43,3.46,2.07s2.42,1.21,3.7,1.74a49.63,49.63,0,0,0,8,2.54c1.39.31,2.8.58,4.21.78s2.9.36,4.34.44L94.73,127a4,4,0,0,0,.49,0,7.87,7.87,0,0,0,7.68-6.18L122.27,33A7.92,7.92,0,0,0,121.32,27.19Z"/><path class="cls-3" d="M111,25.32l-8-.13,2.17-9.56-3.8-6.29L46.68,8.88a25,25,0,0,0-4,.25,13,13,0,0,0-3.07.81,6,6,0,0,0-2.07,1.32,3.91,3.91,0,0,0-1.05,1.79l-2.2,8.33c-.33,1.26-.77,2.94-1.11,4.2L30.9,34c-.68,2.56-1.58,6-2.25,8.53-.34,1.29-.8,3-1.14,4.29-.68,2.59-1.59,6-2.28,8.64l-2.3,8.72c-.35,1.32-.81,3.08-1.16,4.39l-2.34,8.84c-.7,2.68-1.65,6.25-2.35,8.92-.36,1.35-.83,3.15-1.19,4.5-.72,2.71-1.67,6.33-2.39,9a.14.14,0,0,0,0-.06,3.24,3.24,0,0,0,0,1.82A10.35,10.35,0,0,0,16,105.54a24.9,24.9,0,0,0,4.63,3.95,34.79,34.79,0,0,0,5.81,3.09,42.15,42.15,0,0,0,6.69,2.12,45.31,45.31,0,0,0,7.27,1l54.8,3.37,19.37-87.86Z"/><path class="cls-4" d="M100.09,20.37l5.62,9.46L87.48,109.07l-49.19-2.59a12.73,12.73,0,0,1-8.54-4l-2-2.09,54.24,2Z"/><polygon class="cls-5" points="87.48 109.07 81.99 102.49 100.09 20.37 105.71 29.83 87.48 109.07"/><path class="cls-6" d="M80.5,99.82l4.23,5.54-56.11-3.1a13.53,13.53,0,0,0-1.45,0,2.9,2.9,0,0,0-1.36.37,1,1,0,0,0-.36,1.17A6.49,6.49,0,0,0,27,106.17a14.86,14.86,0,0,0,2.73,2.44,11.48,11.48,0,0,0,4.66,1.86,14.11,14.11,0,0,0,1.55.15l55.3,3.28,4,5.22-54.8-3.37a45.31,45.31,0,0,1-7.27-1,42.15,42.15,0,0,1-6.69-2.12,34.79,34.79,0,0,1-5.81-3.09A24.9,24.9,0,0,1,16,105.54a10.35,10.35,0,0,1-2.45-3.88,2.88,2.88,0,0,1,.53-2.85,6.23,6.23,0,0,1,3.46-1.66,25.73,25.73,0,0,1,6.33-.32Z"/><polygon class="cls-7" points="91.23 113.9 110.98 25.32 114.58 31.26 95.21 119.13 91.23 113.9"/><polygon class="cls-7" points="80.5 99.82 101.32 9.34 105.12 15.63 84.73 105.36 80.5 99.82"/><polygon class="cls-8" points="77.22 58.4 36.7 57.58 46.55 19.76 86.23 19.76 77.22 58.4"/><polygon class="cls-8" points="73.2 75.62 32.31 74.43 34.59 65.66 75.29 66.66 73.2 75.62"/></g></g></svg>