<svg xmlns="http://www.w3.org/2000/svg" viewBox="0 0 128 128"><defs><style>.cls-1{fill:none;}.cls-2{fill:#fff;}</style></defs><title>Book White </title><g id="Layer_2" data-name="Layer 2"><g id="_14-25" data-name="14-25"><rect class="cls-1" width="128" height="128"/><path class="cls-2" d="M114.62,28.77l-1.42-2.4a2,2,0,0,0-3.69.58l-18,80.52a6,6,0,0,1-6.21,4.71L36,109.49s-8.65-.65-11.16-4.55a1,1,0,0,1,.36-1.2,2.77,2.77,0,0,1,1.39-.37,12.14,12.14,0,0,1,1.49,0l.93.06,52,3.13a6,6,0,0,0,6.25-4.7l18.52-82.43a8,8,0,0,0-.65-5.35l-2.79-5.62h0L46.5,8a27.31,27.31,0,0,0-4.14.26,13.4,13.4,0,0,0-3.13.82,6.67,6.67,0,0,0-2.12,1.35A4.07,4.07,0,0,0,36,12.26c-.67,2.56-1.57,6-2.25,8.52l-1.13,4.28c-.68,2.59-1.59,6.05-2.28,8.64l-2.3,8.7-1.16,4.39-2.33,8.82c-.7,2.68-1.65,6.24-2.35,8.91L21.05,69l-2.38,9C18,80.77,17,84.41,16.26,87.15l-1.21,4.58c-.73,2.78-1.71,6.47-2.44,9.24a.14.14,0,0,0,0-.06s0,.06,0,.1a3,3,0,0,0-.08.62c0,.07,0,.14,0,.22a3.88,3.88,0,0,0,.14.92,10.7,10.7,0,0,0,2.5,4,24.4,24.4,0,0,0,2.19,2.11,29.28,29.28,0,0,0,2.55,1.92,32.54,32.54,0,0,0,2.83,1.69c1,.52,2,1,3.1,1.46s2.18.85,3.32,1.21,2.31.68,3.5,1,2.42.5,3.66.68,2.5.31,3.78.39L85.84,120a12,12,0,0,0,12.44-9.38l17-77.36A6.23,6.23,0,0,0,114.62,28.77Zm-67.1-7.12H84.45l-8.39,36-37.71-.76ZM36.39,64.37l37.87.93-1.94,8.34-38-1.12Z"/></g></g></svg>