<svg xmlns="http://www.w3.org/2000/svg" viewBox="0 0 64 64"><defs><style>.cls-1{opacity:0;}.cls-2{fill:#1a1a1a;}.cls-3{fill:#39b54a;}.cls-4{fill:#bdccd4;}.cls-5{fill:#fff;}.cls-6{fill:#006837;}.cls-7{fill:#009245;}.cls-8{fill:#65d666;}</style></defs><title>Book Green Outline</title><g id="Layer_2" data-name="Layer 2"><g id="_101-200" data-name="101-200"><g class="cls-1"><rect class="cls-2" width="64" height="64"/></g><path class="cls-2" d="M60.66,13.59l-1.8-3a4,4,0,0,0-2.49-1.8l0-.13a3.93,3.93,0,0,0-.47-2.92L54,2.63A3.94,3.94,0,0,0,50.69.73L23.2.5a17.11,17.11,0,0,0-2.47.17,10.91,10.91,0,0,0-2.46.66A7.23,7.23,0,0,0,16,2.84a6,6,0,0,0-1.54,2.68L2.94,48.94c0,.2-.08.39-.11.59s0,.32,0,.5a2.9,2.9,0,0,0,0,.51A5.67,5.67,0,0,0,3,51.9a8.84,8.84,0,0,0,2.1,3.52,16.51,16.51,0,0,0,3,2.6c.55.36,1.13.71,1.73,1s1.21.61,1.85.87a24.64,24.64,0,0,0,4,1.27c.69.16,1.4.29,2.11.39s1.44.18,2.16.22l27.4,1.69h.25a3.93,3.93,0,0,0,3.84-3.09l9.68-43.93A4,4,0,0,0,60.66,13.59Z"/><path class="cls-3" d="M55.49,12.66l-4-.07,1.09-4.78-1.9-3.14L23.34,4.44a12.47,12.47,0,0,0-2,.12A6.47,6.47,0,0,0,19.78,5a3.15,3.15,0,0,0-1,.66,2,2,0,0,0-.53.89l-1.1,4.17c-.17.63-.39,1.47-.55,2.1-.34,1.27-.78,3-1.12,4.23s-.79,3-1.13,4.26c-.17.64-.39,1.5-.56,2.15-.35,1.29-.8,3-1.14,4.32s-.81,3.05-1.16,4.36c-.17.65-.4,1.53-.58,2.19-.35,1.33-.81,3.1-1.16,4.42s-.83,3.12-1.18,4.46l-.6,2.25c-.35,1.36-.83,3.16-1.19,4.52,0,0,0,0,0,0a1.67,1.67,0,0,0,0,.91A5.15,5.15,0,0,0,8,52.77a12.44,12.44,0,0,0,2.32,2,17.1,17.1,0,0,0,2.91,1.55,21.73,21.73,0,0,0,7,1.58l27.4,1.69,9.68-43.93Z"/><path class="cls-4" d="M50,10.19l2.82,4.73L43.74,54.54l-24.6-1.3a6.42,6.42,0,0,1-4.27-2l-1-1.05,27.12,1Z"/><polygon class="cls-5" points="43.74 54.54 41 51.25 50.05 10.19 52.85 14.91 43.74 54.54"/><path class="cls-6" d="M40.25,49.91l2.11,2.77-28-1.55a5.75,5.75,0,0,0-.73,0,1.4,1.4,0,0,0-.68.19.49.49,0,0,0-.17.58,3.23,3.23,0,0,0,.76,1.2,7,7,0,0,0,1.37,1.21,5.38,5.38,0,0,0,2.33.93,7.09,7.09,0,0,0,.78.08L45.62,57l2,2.61-27.4-1.69a21.73,21.73,0,0,1-7-1.58,17.81,17.81,0,0,1-2.91-1.54,12.87,12.87,0,0,1-2.32-2,5.15,5.15,0,0,1-1.22-1.94,1.41,1.41,0,0,1,.27-1.42,3,3,0,0,1,1.73-.84,13.13,13.13,0,0,1,3.16-.15Z"/><polygon class="cls-7" points="45.62 56.95 55.49 12.66 57.29 15.63 47.61 59.56 45.62 56.95"/><polygon class="cls-7" points="40.25 49.91 50.66 4.67 52.56 7.81 42.36 52.68 40.25 49.91"/><path class="cls-8" d="M37.28,12.07A18.39,18.39,0,0,0,19,30.31a2,2,0,0,0,2,2A18.39,18.39,0,0,0,39.28,14.07,2,2,0,0,0,37.28,12.07Z"/><path class="cls-8" d="M33.59,37.18a9.19,9.19,0,0,0-12.9.35,1,1,0,0,0,0,1.41,9.19,9.19,0,0,0,12.89-.34A1,1,0,0,0,33.59,37.18Z"/></g></g></svg>