<svg xmlns="http://www.w3.org/2000/svg" viewBox="0 0 64 64"><defs><style>.cls-1{fill:none;}.cls-2{fill:#fff;}</style></defs><title>Home Flat White</title><g id="Layer_2" data-name="Layer 2"><g id="Layer_2-2" data-name="Layer 2"><rect class="cls-1" width="64" height="64"/><path class="cls-2" d="M59.5,34.37,33.21,8.07a1.73,1.73,0,0,0-2.42,0L4.5,34.37a1.7,1.7,0,0,0,0,2.41l3.57,3.57a1.71,1.71,0,0,0,2.41,0l2.07-2.07V54.72a1.71,1.71,0,0,0,1.7,1.71H25.47V38.69a3,3,0,0,1,3-3h7.06a3,3,0,0,1,3,3V56.43H49.75a1.71,1.71,0,0,0,1.7-1.71V38.28l2.07,2.07a1.71,1.71,0,0,0,2.41,0l3.57-3.57A1.7,1.7,0,0,0,59.5,34.37Z"/></g></g></svg>