<svg xmlns="http://www.w3.org/2000/svg" viewBox="0 0 64 64"><defs><style>.cls-1{fill:none;}.cls-2{fill:#fdbc0d;}.cls-3{fill:#fc9504;}.cls-4{fill:#e62e49;}.cls-5{fill:#fff;}.cls-6{fill:#37b9ff;}.cls-7{fill:#1778ff;}.cls-8{fill:#f66;}.cls-9{fill:#a72d3e;}.cls-10{fill:#f2d8c2;}</style></defs><title>Home</title><g id="Layer_2" data-name="Layer 2"><g id="Layer_2-2" data-name="Layer 2"><rect class="cls-1" width="64" height="64"/><path class="cls-2" d="M49.75,56.43H14.25a1.71,1.71,0,0,1-1.7-1.71V27.86L32,10.8,51.45,27.86V54.72A1.71,1.71,0,0,1,49.75,56.43Z"/><polygon class="cls-3" points="12.55 43.96 32 24.51 51.45 43.96 51.45 32 40.85 21.41 32 13.64 23.14 21.41 12.55 32 12.55 43.96"/><path class="cls-4" d="M30.79,8.07,4.5,34.37a1.7,1.7,0,0,0,0,2.41l3.57,3.57a1.71,1.71,0,0,0,2.41,0L32,18.83,53.52,40.35a1.71,1.71,0,0,0,2.41,0l3.57-3.57a1.7,1.7,0,0,0,0-2.41L33.21,8.07A1.73,1.73,0,0,0,30.79,8.07Z"/><path class="cls-4" d="M36.84,37.69H43.9a3,3,0,0,1,3,3V56.43a0,0,0,0,1,0,0H33.84a0,0,0,0,1,0,0V40.69A3,3,0,0,1,36.84,37.69Z"/><rect class="cls-5" x="17.1" y="37.69" width="13.06" height="13.06" rx="3"/><rect class="cls-6" x="19.73" y="40.33" width="7.79" height="7.79"/><polygon class="cls-7" points="19.73 42.52 27.52 44.73 27.52 40.33 19.73 40.33 19.73 42.52"/><path class="cls-8" d="M33.21,8.07a1.73,1.73,0,0,0-2.42,0L4.5,34.37a1.7,1.7,0,0,0,0,2.41l.56.56L33.77,8.63Z"/><circle class="cls-9" cx="42.45" cy="49.33" r="2.32"/><circle class="cls-10" cx="42.45" cy="47.63" r="2.32"/></g></g></svg>