<svg xmlns="http://www.w3.org/2000/svg" viewBox="0 0 64 64"><defs><style>.cls-1,.cls-2{fill:#1a1a1a;}.cls-1{opacity:0;}.cls-3{fill:#39b54a;}.cls-4{fill:#65d666;}.cls-5{fill:#ff3d85;}.cls-6{fill:#ff8ca9;}</style></defs><title>Flower Outline</title><g id="Layer_2" data-name="Layer 2"><g id="Layer_2-2" data-name="Layer 2"><rect class="cls-1" width="64" height="64"/><path class="cls-2" d="M54.22,30.94a4.19,4.19,0,0,0-.5,0l-.68.08c1.18-7.52,1.49-18-1.36-22.1a5.7,5.7,0,0,0-4.77-2.64c-1.56,0-3.27.63-6.13,3.21C37.34,1.71,34.45.5,32,.5s-5.36,1.22-8.82,9.11C20.26,7,18.53,6.31,17,6.31a5.71,5.71,0,0,0-4.76,2.62C9.29,13.12,9.6,23.52,10.8,31L10.28,31a4.19,4.19,0,0,0-.5,0,4.61,4.61,0,0,0-4.41,3.17,4.52,4.52,0,0,0,1.66,5A55.69,55.69,0,0,1,24.14,60.32a4,4,0,0,0,1.91,1.93,13.2,13.2,0,0,0,5.73,1.25,16,16,0,0,0,6.08-1.21,4,4,0,0,0,2-2A55.78,55.78,0,0,1,57,39.15a4.52,4.52,0,0,0,1.66-5A4.61,4.61,0,0,0,54.22,30.94Z"/><path class="cls-3" d="M36.09,58.64S30.1,37.08,9.86,35c-.62-.07-1,.61-.48,1A59.83,59.83,0,0,1,27.77,58.64S32.78,60.15,36.09,58.64Z"/><path class="cls-4" d="M35.18,37.47c-.15-2.85-1.69-5-3.45-4.73s-3.06,2.75-2.91,5.59l1,19.74c0,.67,1,1.22,2.16,1.22s2.17-.55,2.17-1.22a.43.43,0,0,0,0,0l1-19.69A8.22,8.22,0,0,0,35.18,37.47Z"/><path class="cls-5" d="M47.64,36.59C45.25,42.52,38.25,47.32,32,47.32s-9.38-4.8-7-10.73,18.33-26.28,21.9-26.28C51.55,10.31,50,30.66,47.64,36.59Z"/><path class="cls-5" d="M16.23,36.59c2.38,5.93,9.38,10.73,15.63,10.73s9.38-4.8,7-10.73S20.52,10.31,17,10.31C12.31,10.31,13.84,30.66,16.23,36.59Z"/><path class="cls-5" d="M43.31,34.91c0,6.86-5.06,12.41-11.31,12.41S20.69,41.77,20.69,34.91,27.36,4.5,32,4.5,43.31,28.05,43.31,34.91Z"/><path class="cls-6" d="M45.94,39.65c-.06-2.38-1.07-4-2.86-4-2,0-4.32,1.9-6.15,4.67-.51-3.82-2.52-6.67-4.93-6.67s-4.41,2.85-4.93,6.67c-1.82-2.77-4.19-4.67-6.15-4.67s-2.85,1.66-2.86,4.15c3.2,4.34,8.75,7.48,13.8,7.48H32C37.13,47.32,42.77,44.08,45.94,39.65Z"/><path class="cls-4" d="M27.77,58.64S33.9,37.08,54.14,35c.62-.07,1,.61.48,1A59.83,59.83,0,0,0,36.23,58.64S31.85,60.58,27.77,58.64Z"/></g></g></svg>