<svg xmlns="http://www.w3.org/2000/svg" viewBox="0 0 64 64"><defs><style>.cls-1{opacity:0;}.cls-2{fill:#1a1a1a;}.cls-3{fill:#39b54a;}.cls-4{fill:#65d666;}.cls-5{fill:#ff8ca9;}.cls-6{fill:#ffbdc6;}</style></defs><title>Flower Pink Outline</title><g id="Layer_2" data-name="Layer 2"><g id="_101-200" data-name="101-200"><g class="cls-1"><rect class="cls-2" width="64" height="64"/></g><path class="cls-2" d="M57.29,21a9.17,9.17,0,0,0,1.08-3.34,9.78,9.78,0,0,0-2.9-8A15.74,15.74,0,0,0,44.3,5.26c-.41,0-.81,0-1.21,0C40.77,2.36,36.66.5,32,.5S23.23,2.36,20.91,5.3c-.4,0-.8,0-1.21,0A15.71,15.71,0,0,0,8.53,9.66a9.75,9.75,0,0,0-2.9,8A9.17,9.17,0,0,0,6.71,21a12,12,0,0,0-2.65,4.67,10.35,10.35,0,0,0,.91,8,12.74,12.74,0,0,0,8,5.89,21,21,0,0,0-2.46.6,4,4,0,0,0-2.79,4.49A22.55,22.55,0,0,0,29.9,63.5c.58,0,1.17,0,1.76-.07s1.17.07,1.75.07A22.55,22.55,0,0,0,55.64,44.64a4,4,0,0,0-2.79-4.49,20.93,20.93,0,0,0-2.07-.53,12.8,12.8,0,0,0,8.25-6,10.35,10.35,0,0,0,.91-8A12,12,0,0,0,57.29,21Z"/><rect class="cls-3" x="28.45" y="28.89" width="7.1" height="26.84"/><path class="cls-3" d="M26.82,46a18.51,18.51,0,0,1,7.61,9.3,3.08,3.08,0,0,1-2.57,4.15A18.55,18.55,0,0,1,11.62,44,18.58,18.58,0,0,1,26.82,46Z"/><path class="cls-4" d="M36.49,46a18.51,18.51,0,0,0-7.61,9.3,3.08,3.08,0,0,0,2.57,4.15A18.56,18.56,0,0,0,51.7,44,18.6,18.6,0,0,0,36.49,46Z"/><path class="cls-5" d="M51.46,21.43c3.48-2.21,4-6.06,1.13-9S44.94,8.55,40.94,9.72c-.78-3-4.55-5.22-8.94-5.22s-8.16,2.22-8.94,5.22c-4-1.17-8.94-.09-11.65,2.72s-2.35,6.78,1.13,9C8.33,23.7,6.41,28.05,8.46,31.71c2.15,3.84,7.77,5.4,12.86,3.71.42,4.5,4.93,8.15,10.68,8.15s10.26-3.65,10.68-8.15c5.09,1.69,10.71.13,12.86-3.71C57.59,28.05,55.67,23.7,51.46,21.43Z"/><path class="cls-6" d="M41.37,22.13c.26,4.19-3.93,7.75-9.37,7.75s-9.63-3.56-9.37-7.75c.25-4,4.44-7,9.37-7S41.12,18.17,41.37,22.13Z"/></g></g></svg>