<svg xmlns="http://www.w3.org/2000/svg" viewBox="0 0 64 64"><defs><style>.cls-1{opacity:0;}.cls-2{fill:#fff;}.cls-3{fill:#39b54a;}.cls-4{fill:#65d666;}.cls-5{fill:#ff8ca9;}.cls-6{fill:#ffbdc6;}</style></defs><title>Flower Pink</title><g id="Layer_2" data-name="Layer 2"><g id="_101-200" data-name="101-200"><g class="cls-1"><rect class="cls-2" width="64" height="64"/></g><rect class="cls-3" x="28.45" y="28.89" width="7.1" height="26.84"/><path class="cls-3" d="M26.82,46a18.51,18.51,0,0,1,7.61,9.3,3.08,3.08,0,0,1-2.57,4.15A18.59,18.59,0,0,1,11.61,44,18.6,18.6,0,0,1,26.82,46Z"/><path class="cls-4" d="M36.49,46a18.51,18.51,0,0,0-7.61,9.3,3.08,3.08,0,0,0,2.57,4.15A18.59,18.59,0,0,0,51.7,44,18.6,18.6,0,0,0,36.49,46Z"/><path class="cls-5" d="M51.46,21.42c3.48-2.2,4-6.06,1.13-9S44.94,8.55,40.94,9.72c-.78-3-4.55-5.22-8.94-5.22s-8.16,2.22-8.94,5.22c-4-1.17-8.94-.09-11.65,2.71s-2.35,6.79,1.13,9C8.33,23.7,6.41,28.05,8.46,31.7c2.15,3.84,7.77,5.41,12.86,3.71.42,4.5,4.93,8.16,10.68,8.16s10.26-3.66,10.68-8.16c5.09,1.7,10.71.13,12.86-3.71C57.59,28.05,55.67,23.7,51.46,21.42Z"/><path class="cls-6" d="M41.37,22.13c.26,4.18-3.93,7.75-9.37,7.75s-9.63-3.57-9.37-7.75c.25-4,4.44-7,9.37-7S41.12,18.17,41.37,22.13Z"/></g></g></svg>