<svg xmlns="http://www.w3.org/2000/svg" viewBox="0 0 64 64"><defs><style>.cls-1{opacity:0;}.cls-2{fill:#1a1a1a;}</style></defs><title>Flower Flat Black</title><g id="Layer_2" data-name="Layer 2"><g id="Weapons_BW" data-name="Weapons BW"><g class="cls-1"><rect class="cls-2" width="64" height="64"/></g><path class="cls-2" d="M51.46,21.43c3.48-2.21,4-6.06,1.13-9S44.94,8.55,40.94,9.72c-.78-3-4.55-5.22-8.94-5.22s-8.16,2.22-8.94,5.22c-4-1.17-8.94-.09-11.65,2.72s-2.35,6.78,1.13,9C8.33,23.7,6.41,28.05,8.46,31.71c2.15,3.84,7.77,5.4,12.86,3.71.33,3.52,3.17,6.51,7.13,7.65v4A19.73,19.73,0,0,0,26.82,46a18.6,18.6,0,0,0-15.21-2A18.54,18.54,0,0,0,31.66,59.41,18.54,18.54,0,0,0,51.7,44a18.6,18.6,0,0,0-15.21,2c-.33.21-.63.42-.94.64V43.07c4-1.14,6.8-4.13,7.13-7.65,5.09,1.69,10.71.13,12.86-3.71C57.59,28.05,55.67,23.7,51.46,21.43ZM32,29.88c-5.44,0-9.63-3.56-9.37-7.75.25-4,4.44-7,9.37-7s9.12,3.06,9.37,7C41.63,26.32,37.44,29.88,32,29.88Z"/></g></g></svg>