<?xml version="1.0" encoding="UTF-8"?>
<svg id="Layer_2" data-name="Layer 2" xmlns="http://www.w3.org/2000/svg" viewBox="0 0 64 64">
  <defs>
    <style>
      .cls-1, .cls-2 {
        fill: #1a1a1a;
        stroke-width: 0px;
      }

      .cls-2 {
        opacity: 0;
      }
    </style>
  </defs>
  <g id="Exports_1" data-name="Exports 1">
    <g>
      <rect class="cls-2" width="64" height="64"/>
      <path class="cls-1" d="M48.27,15.73C35.75,3.21,22.5,1.81,21.28,8.32l-3.81,20.27-1.73,1.73c-.54-.5-1.24-.78-1.98-.78-.58,0-1.15.17-1.63.5-.64.44-1.07,1.1-1.22,1.86s.02,1.53.45,2.17c.09.13.17.24.26.36l-2.13,2.13c-.52-.49-1.22-.78-1.93-.78-.58,0-1.13.17-1.61.5-.62.43-1.04,1.08-1.17,1.82-.13.74.03,1.49.46,2.11.26.38.52.69.78.98-1.77,4.76-2.43,13.59.38,16.4.17.17.36.32.57.46h0c2.07,1.43,6.04,1.68,9.81,1.26,0,0,0,0,0,0,.46-.05.91-.11,1.36-.18.02,0,.05,0,.07-.01.43-.07.85-.14,1.26-.23.04,0,.08-.02.12-.02.4-.08.79-.17,1.17-.27.04-.01.09-.02.13-.03.37-.1.73-.2,1.07-.31.04-.01.09-.03.13-.04.28-.09.55-.18.8-.28.29.08.57.16.87.23.48.11.97.2,1.52.25h.02c.05,0,.1,0,.16.01,1.05.01,1.92-.83,1.93-1.89,0-.56-.23-1.06-.61-1.41l2.24-2.24c.75.14,1.55.24,2.44.26h.06c1.38,0,2.55-.99,2.78-2.34.13-.74-.04-1.49-.48-2.11-.08-.12-.18-.22-.28-.33l1.72-1.72c.09,0,.17.02.26.02.56,0,1.09-.17,1.55-.46l18.58-3.49c6.51-1.22,5.11-14.47-7.41-26.99ZM50.55,26.37l-2.24-.75,1.32,2.96c.57,1.28.24,2.16-.79,1.92l-3.68-.87c-1.25-.3-2.72-1.76-3.2-3.2l-1.1-3.29-3.29-1.1c-1.44-.48-2.9-1.95-3.2-3.2l-.87-3.68c-.24-1.03.64-1.36,1.92-.79l2.96,1.32-.75-2.24c-.28-.84.35-1.08,1.37-.57l3.08,1.54c.89.44,1.86,1.42,2.22,2.22l.94,2.11,2.11.94c.8.36,1.78,1.34,2.22,2.22l1.54,3.08c.51,1.02.28,1.65-.57,1.37Z"/>
    </g>
  </g>
</svg>