<?xml version="1.0" encoding="UTF-8"?>
<svg id="Layer_2" data-name="Layer 2" xmlns="http://www.w3.org/2000/svg" viewBox="0 0 64 64">
  <defs>
    <style>
      .cls-1 {
        fill: #7b97a6;
      }

      .cls-1, .cls-2, .cls-3, .cls-4, .cls-5, .cls-6 {
        stroke-width: 0px;
      }

      .cls-2, .cls-3 {
        fill: #1a1a1a;
      }

      .cls-3 {
        opacity: 0;
      }

      .cls-4 {
        fill: #d3dee3;
      }

      .cls-5 {
        fill: #abc0c9;
      }

      .cls-6 {
        fill: #fff;
      }
    </style>
  </defs>
  <g id="Exports_1" data-name="Exports 1">
    <g>
      <rect class="cls-3" width="64" height="64"/>
      <g>
        <path class="cls-2" d="M51.1,12.9C43.33,5.14,34.41.5,27.23.5c-5.28,0-9.06,2.71-9.88,7.08l-3.56,18.95h-.03c-1.19,0-2.33.35-3.32,1.02-1.3.89-2.18,2.23-2.48,3.78-.08.4-.11.8-.1,1.2l-.25.25s-.04,0-.06,0c-1.19,0-2.33.36-3.31,1.04-2.18,1.51-3.01,4.26-2.2,6.65-1.86,5.66-2.78,15.64,1.53,19.95,2.05,2.04,5.42,3.08,10.02,3.08,3.16,0,6.67-.52,9.49-1.4.66.14,1.26.24,1.88.3.15.01.3.02.55.03,3.22,0,5.87-2.62,5.91-5.84,0-.14,0-.27,0-.4l.03-.03s.08,0,.1,0c2.84,0,5.25-2.03,5.74-4.83.06-.36.09-.72.08-1.08l19.05-3.58c3.15-.59,5.53-2.79,6.54-6.04,2.24-7.25-2.53-18.39-11.86-27.72Z"/>
        <path class="cls-4" d="M26.66,19.39L7.49,38.57c-2.7,2.7-4.57,15.52-1.08,19.02s16.33,1.62,19.02-1.08l19.17-19.17-17.95-17.95Z"/>
        <path class="cls-5" d="M25.32,58.42c-.56-.05-1.05-.15-1.52-.25-.47-.11-.93-.23-1.37-.36-.89-.26-1.75-.57-2.59-.89-.88-.33-1.32-1.32-.99-2.2.32-.84,1.22-1.28,2.06-1.03h.02c.8.24,1.61.45,2.4.62.39.08.79.16,1.17.21.38.05.74.09,1.06.09,1.05.01,1.9.88,1.89,1.93-.01,1.05-.88,1.9-1.93,1.89-.05,0-.11,0-.16,0h-.02Z"/>
        <path class="cls-5" d="M31.51,52.15c-1.42-.03-2.59-.28-3.77-.56-1.17-.29-2.3-.63-3.41-1.02-2.22-.76-4.36-1.67-6.46-2.68-2.09-1.01-4.14-2.13-6.12-3.4-.99-.64-1.96-1.32-2.91-2.07-.47-.39-.94-.77-1.4-1.22-.46-.45-.91-.9-1.37-1.56-.57-.83-.37-1.97.46-2.54.74-.51,1.72-.4,2.34.21l.11.11c.23.24.62.55,1.01.84.39.3.83.59,1.26.88.88.58,1.81,1.14,2.75,1.68.94.54,1.9,1.07,2.88,1.57.97.52,1.96,1,2.94,1.49,1.98.97,3.99,1.87,6.01,2.69,1.01.4,2.02.79,3.03,1.13,1,.34,2.03.64,2.87.78l.13.02c.99.17,1.66,1.12,1.49,2.11-.16.9-.95,1.53-1.83,1.51Z"/>
        <path class="cls-5" d="M35.27,45.65c-2.24-.34-4.32-.97-6.35-1.71-1.02-.36-2.01-.78-3-1.2-.98-.44-1.96-.89-2.91-1.37-1.92-.97-3.79-2.02-5.6-3.24-.91-.6-1.79-1.25-2.67-1.97-.43-.36-.86-.74-1.29-1.16-.43-.43-.84-.87-1.26-1.49-.59-.87-.37-2.05.5-2.64.75-.51,1.74-.41,2.38.19l.15.14c.22.21.57.48.92.75.36.26.75.54,1.15.8.8.53,1.66,1.04,2.52,1.54,1.73.99,3.52,1.94,5.33,2.84.91.45,1.81.9,2.73,1.32.91.44,1.84.85,2.75,1.26,1.84.81,3.7,1.59,5.52,2.24l.05.02c.99.36,1.51,1.45,1.16,2.44-.31.87-1.2,1.38-2.08,1.25Z"/>
        <path class="cls-5" d="M27.5,41.41s-12.32,14.13-20.52,16.64c4.14,2.85,15.88,1.03,18.45-1.54l12.47-12.47-10.4-2.63Z"/>
        <path class="cls-5" d="M21.28,8.32l-3.81,20.27c-.27,1.43,3.1,6.04,7.51,10.44s9,7.78,10.44,7.51l20.27-3.81L21.28,8.32Z"/>
        <path class="cls-1" d="M27.5,41.41c3.52,3.17,6.76,5.33,7.92,5.11l20.27-3.81-10.99-10.99c-4.79,4.33-10.66,7.67-17.19,9.68Z"/>
        <path class="cls-4" d="M55.68,42.72c-4.98.94-14.44-4.66-22.09-12.32s-13.25-17.11-12.32-22.09c1.22-6.51,14.47-5.11,26.99,7.41,12.52,12.52,13.92,25.77,7.41,26.99Z"/>
        <path class="cls-6" d="M41.23,17.78c-1.61.76-4.82-1.17-8.11-3.1s-6.55-3.78-6.68-5.56c-.16-2.33,4.48-3.03,9.86.12,5.38,3.15,7.04,7.54,4.93,8.54Z"/>
        <path class="cls-1" d="M48.86,25.68l2.37.79c.89.3,1.14-.37.6-1.46l-1.63-3.27c-.47-.94-1.51-1.98-2.36-2.36l-2.24-1-1-2.24c-.38-.85-1.42-1.89-2.36-2.36l-3.27-1.63c-1.08-.54-1.76-.29-1.46.6l.79,2.37-3.14-1.4c-1.35-.61-2.29-.26-2.03.84l.93,3.91c.31,1.33,1.87,2.89,3.39,3.39l3.49,1.17,1.17,3.49c.51,1.52,2.07,3.08,3.39,3.39l3.91.93c1.1.26,1.44-.68.84-2.03l-1.4-3.14Z"/>
      </g>
    </g>
  </g>
</svg>