<svg xmlns="http://www.w3.org/2000/svg" viewBox="0 0 64 64"><defs><style>.cls-1{fill:#1a1a1a;opacity:0;}.cls-2{fill:#fff;}.cls-3{fill:#d3dee3;}.cls-4{fill:#bdccd4;}.cls-5{fill:#e62e49;}.cls-6{fill:#476475;}.cls-7{fill:#56768a;}</style></defs><title>Dice</title><g id="Layer_2" data-name="Layer 2"><g id="Finals"><rect class="cls-1" width="64" height="64"/><path class="cls-2" d="M7,15.79,32.25,28,57,15.66a4.08,4.08,0,0,0-1.8-1.5L33.44,4.83a4.06,4.06,0,0,0-3.26,0L8.77,14.29A4.1,4.1,0,0,0,7,15.79Z"/><path class="cls-3" d="M32.25,28l0,31.54a4.13,4.13,0,0,0,2-.54l20.4-11.67a4.09,4.09,0,0,0,2.06-3.39l1-25.83A4.13,4.13,0,0,0,57,15.66Z"/><path class="cls-4" d="M6.74,29.27,7.28,44a4.09,4.09,0,0,0,2.1,3.42L30.18,59a4.13,4.13,0,0,0,2,.51l0-31.54L7,15.79a4.05,4.05,0,0,0-.68,2.39Z"/><ellipse class="cls-5" cx="32" cy="15.1" rx="8.17" ry="4.28"/><path class="cls-6" d="M12.18,29.87c1.47.79,2.69,0,2.69-1.85a5.54,5.54,0,0,0-2.69-4.61c-1.45-.7-2.61.15-2.61,1.91A5.58,5.58,0,0,0,12.18,29.87Z"/><path class="cls-6" d="M18,33.36c-1.58-.85-2.83,0-2.83,1.78a6.32,6.32,0,0,0,2.83,5c1.61.94,2.95.18,2.95-1.72A6.29,6.29,0,0,0,18,33.36Z"/><path class="cls-6" d="M24.39,36.4c1.76.94,3.22.1,3.22-1.89a6.3,6.3,0,0,0-3.22-5.17c-1.73-.84-3.1,0-3.1,1.95A6.35,6.35,0,0,0,24.39,36.4Z"/><path class="cls-6" d="M12.18,37.05c-1.45-.86-2.61-.12-2.61,1.63a6.33,6.33,0,0,0,2.61,4.83c1.47.93,2.69.24,2.69-1.58A6.25,6.25,0,0,0,12.18,37.05Z"/><path class="cls-6" d="M24.39,44.23c-1.73-1-3.1-.28-3.1,1.63a7.2,7.2,0,0,0,3.1,5.43c1.76,1.12,3.22.44,3.22-1.55A7.17,7.17,0,0,0,24.39,44.23Z"/><path class="cls-7" d="M51.82,29.87c-1.47.79-2.69,0-2.69-1.85a5.54,5.54,0,0,1,2.69-4.61c1.45-.7,2.61.15,2.61,1.91A5.58,5.58,0,0,1,51.82,29.87Z"/><path class="cls-7" d="M46,33.36c1.58-.85,2.83,0,2.83,1.78a6.32,6.32,0,0,1-2.83,5c-1.61.94-3,.18-3-1.72A6.29,6.29,0,0,1,46,33.36Z"/><path class="cls-7" d="M39.61,44.23c1.73-1,3.1-.28,3.1,1.63a7.2,7.2,0,0,1-3.1,5.43c-1.76,1.12-3.22.44-3.22-1.55A7.17,7.17,0,0,1,39.61,44.23Z"/></g></g></svg>