<svg xmlns="http://www.w3.org/2000/svg" viewBox="0 0 64 64"><defs><style>.cls-1,.cls-2{fill:#fff;}.cls-1{opacity:0;}</style></defs><title>Dice White</title><g id="Layer_2" data-name="Layer 2"><g id="Finals"><rect class="cls-1" width="64" height="64"/><path class="cls-2" d="M57,15.66a4.08,4.08,0,0,0-1.8-1.5L33.44,4.83a4.06,4.06,0,0,0-3.26,0L8.77,14.29A4.1,4.1,0,0,0,7,15.79a4.05,4.05,0,0,0-.68,2.39l.41,11.09L7.28,44a4.09,4.09,0,0,0,2.1,3.42L30.18,59a4.09,4.09,0,0,0,4,0l20.4-11.67a4.09,4.09,0,0,0,2.06-3.39l1-25.83A4.13,4.13,0,0,0,57,15.66ZM12.18,43.51a6.33,6.33,0,0,1-2.61-4.83c0-1.75,1.16-2.49,2.61-1.63a6.25,6.25,0,0,1,2.69,4.88C14.87,43.75,13.65,44.44,12.18,43.51Zm0-13.64a5.58,5.58,0,0,1-2.61-4.55c0-1.76,1.16-2.61,2.61-1.91A5.54,5.54,0,0,1,14.87,28C14.87,29.83,13.65,30.66,12.18,29.87ZM18,40.11a6.32,6.32,0,0,1-2.83-5c0-1.82,1.25-2.63,2.83-1.78a6.29,6.29,0,0,1,2.95,5C21,40.29,19.62,41.05,18,40.11Zm6.38,11.18a7.2,7.2,0,0,1-3.1-5.43c0-1.91,1.37-2.65,3.1-1.63a7.17,7.17,0,0,1,3.22,5.51C27.61,51.73,26.15,52.41,24.39,51.29Zm0-14.89a6.35,6.35,0,0,1-3.1-5.11c0-1.91,1.37-2.79,3.1-1.95a6.3,6.3,0,0,1,3.22,5.17C27.61,36.5,26.15,37.34,24.39,36.4ZM32,18.77c-3.86,0-7-1.64-7-3.67s3.13-3.66,7-3.66,7,1.64,7,3.66S35.86,18.77,32,18.77Zm7.61,32.52c-1.76,1.12-3.22.44-3.22-1.55a7.17,7.17,0,0,1,3.22-5.51c1.73-1,3.1-.28,3.1,1.63A7.2,7.2,0,0,1,39.61,51.29ZM46,40.11c-1.61.94-3,.18-3-1.72a6.29,6.29,0,0,1,3-5c1.58-.85,2.83,0,2.83,1.78A6.32,6.32,0,0,1,46,40.11Zm5.83-10.24c-1.47.79-2.69,0-2.69-1.85a5.54,5.54,0,0,1,2.69-4.61c1.45-.7,2.61.15,2.61,1.91A5.58,5.58,0,0,1,51.82,29.87Z"/></g></g></svg>