<svg xmlns="http://www.w3.org/2000/svg" viewBox="0 0 64 64"><defs><style>.cls-1,.cls-8{fill:#fff;}.cls-1{opacity:0;}.cls-2{fill:#39b54a;}.cls-3{fill:#9c3d29;}.cls-4{fill:#e62e49;}.cls-5{fill:#a72d3e;}.cls-6{fill:#fdbc0d;}.cls-7{fill:#fee854;}</style></defs><title>Apple</title><g id="Layer_2" data-name="Layer 2"><g id="Finals"><rect class="cls-1" width="64" height="64"/><path class="cls-2" d="M46.34,6.19a1.77,1.77,0,0,0-1.66-1.66A12.54,12.54,0,0,0,31.35,17.87,1.77,1.77,0,0,0,33,19.52,12.54,12.54,0,0,0,46.34,6.19Z"/><path class="cls-3" d="M33,19.07a24.39,24.39,0,0,0-2.88-11,1.51,1.51,0,0,0-2-.62L23.72,9.62a1.51,1.51,0,0,0-.29,2.51,15.69,15.69,0,0,1,5.25,7.35,1.52,1.52,0,0,0,1.45,1.11h1.4A1.49,1.49,0,0,0,33,19.07Z"/><path class="cls-4" d="M35.51,17.21h0a6.94,6.94,0,0,1-7,0h0a10.91,10.91,0,0,0-9-1C10.09,19.38,7,26.66,7.85,36.4c1.1,12,8,23.1,24.15,23.1s23-11.1,24.15-23.1c.9-9.74-2.24-17-11.63-20.17A10.91,10.91,0,0,0,35.51,17.21Z"/><path class="cls-5" d="M44.52,16.23l-.32-.09c2.76,3.7,3.64,8.6,3.11,14.36-1.11,12-8,23.1-24.15,23.1a27.47,27.47,0,0,1-9.1-1.42C17.94,56.61,23.77,59.5,32,59.5c16.13,0,23-11.1,24.15-23.1C57.05,26.66,53.91,19.38,44.52,16.23Z"/><path class="cls-6" d="M32,59.5c11.09,0,17.83-5.25,21.31-12.43a8.42,8.42,0,0,0-5.41,2.7c-4.21,4.34-7.53,4.27-14,.15S24.55,48.26,20.2,51c-2.21,1.4-5.07.67-7.41-.44C16.63,55.9,22.82,59.5,32,59.5Z"/><path class="cls-7" d="M35.39,50.82c-.48-.28-1-.57-1.49-.9-6.47-4.13-9.35-1.66-13.7,1.11-2.21,1.4-5.07.67-7.41-.44.4.56.83,1.08,1.28,1.6a27.67,27.67,0,0,0,9.09,1.41A25.62,25.62,0,0,0,35.39,50.82Z"/><path class="cls-8" d="M21.28,27.9c-2.34,2.34-5.28,3.19-7,1.43S13,24.26,15.3,21.92s5.65-2.81,7.41-1.06S23.62,25.56,21.28,27.9Z"/></g></g></svg>