<svg xmlns="http://www.w3.org/2000/svg" viewBox="0 0 64 64"><defs><style>.cls-1{opacity:0;}.cls-2{fill:#fff;}.cls-3{fill:#65d666;}.cls-4{fill:#9c3d29;}.cls-5{fill:#39b54a;}.cls-6{fill:#009245;}</style></defs><title>Apple Green</title><g id="Layer_2" data-name="Layer 2"><g id="_101-200" data-name="101-200"><g class="cls-1"><rect class="cls-2" width="64" height="64"/></g><path class="cls-3" d="M46.35,6.2a1.79,1.79,0,0,0-1.66-1.66A12.55,12.55,0,0,0,31.35,17.88,1.79,1.79,0,0,0,33,19.54,12.55,12.55,0,0,0,46.35,6.2Z"/><path class="cls-4" d="M33,19.08a24.56,24.56,0,0,0-2.89-11,1.49,1.49,0,0,0-2-.61L23.73,9.64a1.49,1.49,0,0,0-.3,2.5,15.69,15.69,0,0,1,5.25,7.35,1.52,1.52,0,0,0,1.45,1.11h1.4A1.5,1.5,0,0,0,33,19.08Z"/><path class="cls-5" d="M35.51,17.22h0a6.93,6.93,0,0,1-7,0h0a11,11,0,0,0-9-1C10.09,19.39,7,26.67,7.85,36.41c1.11,12,8,23.1,24.15,23.1s23-11.1,24.16-23.1c.9-9.74-2.24-17-11.64-20.17A11,11,0,0,0,35.51,17.22Z"/><path class="cls-6" d="M44.52,16.24l-.32-.09c2.76,3.7,3.65,8.6,3.11,14.37-1.1,12-8,23.1-24.15,23.1a27.77,27.77,0,0,1-9.1-1.42C18,56.62,23.77,59.51,32,59.51c16.13,0,23-11.1,24.16-23.1C57.06,26.67,53.92,19.39,44.52,16.24Z"/><path class="cls-5" d="M32,59.51c11.09,0,17.83-5.25,21.31-12.42a8.47,8.47,0,0,0-5.41,2.69c-4.21,4.35-7.52,4.27-14,.15S24.55,48.27,20.2,51c-2.21,1.4-5.06.68-7.41-.43C16.63,55.92,22.82,59.51,32,59.51Z"/><path class="cls-3" d="M35.39,50.83c-.48-.28-1-.57-1.49-.9C27.43,45.8,24.55,48.27,20.2,51c-2.21,1.4-5.06.68-7.41-.43.4.55.83,1.08,1.28,1.59a27.71,27.71,0,0,0,9.09,1.42A25.59,25.59,0,0,0,35.39,50.83Z"/><path class="cls-2" d="M21.28,27.91c-2.34,2.34-5.28,3.19-7,1.43S13,24.27,15.3,21.93s5.66-2.81,7.41-1.06S23.62,25.58,21.28,27.91Z"/></g></g></svg>