<svg xmlns="http://www.w3.org/2000/svg" viewBox="0 0 64 64"><defs><style>.cls-1,.cls-2{fill:#fff;}.cls-1{opacity:0;}</style></defs><title>Apple White</title><g id="Layer_2" data-name="Layer 2"><g id="Finals"><rect class="cls-1" width="64" height="64"/><path class="cls-2" d="M44.52,16.23a10.08,10.08,0,0,0-1.77-.41,12.5,12.5,0,0,0,3.59-9.63,1.77,1.77,0,0,0-1.66-1.66,12.55,12.55,0,0,0-12.61,8.24,23.09,23.09,0,0,0-1.92-4.72,1.51,1.51,0,0,0-2-.62L23.72,9.62a1.51,1.51,0,0,0-.29,2.51,18.19,18.19,0,0,1,4,4.52,10.94,10.94,0,0,0-7.94-.42C10.09,19.38,7,26.66,7.85,36.4c1.1,12,8,23.1,24.15,23.1s23-11.1,24.15-23.1C57.05,26.66,53.91,19.38,44.52,16.23ZM21.28,27.9c-2.34,2.34-5.28,3.19-7,1.43S13,24.26,15.3,21.92s5.65-2.81,7.41-1.06S23.62,25.56,21.28,27.9Z"/></g></g></svg>