<svg xmlns="http://www.w3.org/2000/svg" viewBox="0 0 64 64"><defs><style>.cls-1,.cls-2{fill:#1a1a1a;}.cls-1{opacity:0;}.cls-3{fill:#39b54a;}.cls-4{fill:#9c3d29;}.cls-5{fill:#e62e49;}.cls-6{fill:#a72d3e;}.cls-7{fill:#fdbc0d;}.cls-8{fill:#fee854;}.cls-9{fill:#fff;}</style></defs><title>Apple Outline</title><g id="Layer_2" data-name="Layer 2"><g id="Finals"><rect class="cls-1" width="64" height="64"/><path class="cls-2" d="M59.65,27.16a19.56,19.56,0,0,0-5.52-9.89A20.7,20.7,0,0,0,49.4,14c-.3-.16-.37-.12-.39-.4a3,3,0,0,1,.34-.84c.17-.45.31-.91.44-1.38a16,16,0,0,0,.54-3.21,7.64,7.64,0,0,0-1.08-5.21,5.84,5.84,0,0,0-4-2.36A16.13,16.13,0,0,0,34.47,3.44c-.4.28-.79.57-1.16.88-.58.48-.51.58-1.08.14a5.46,5.46,0,0,0-2.47-1.09,6.16,6.16,0,0,0-3.87.74c-1.66.82-3.73,1.51-5.14,2.75A5.43,5.43,0,0,0,19.27,9,7.87,7.87,0,0,0,19,11.84c0,.68.15.19-.2.44a2.84,2.84,0,0,1-.54.17l-.74.26c-.54.2-1.06.41-1.58.64a21.62,21.62,0,0,0-5.64,3.59c-4.36,3.89-6.32,9.5-6.53,15.24-.28,7.75,1.85,16,6.86,22.1,6.46,7.78,16.89,10.29,26.6,8.86a25.77,25.77,0,0,0,16.17-8.78c4.88-5.83,7-13.69,6.95-21.2A27.57,27.57,0,0,0,59.65,27.16Z"/><path class="cls-3" d="M46.35,6.2a1.79,1.79,0,0,0-1.66-1.66A12.55,12.55,0,0,0,31.35,17.88,1.79,1.79,0,0,0,33,19.54,12.55,12.55,0,0,0,46.35,6.2Z"/><path class="cls-4" d="M33,19.08a24.56,24.56,0,0,0-2.89-11,1.49,1.49,0,0,0-2-.61L23.73,9.64a1.49,1.49,0,0,0-.3,2.5,15.69,15.69,0,0,1,5.25,7.35,1.52,1.52,0,0,0,1.45,1.11h1.4A1.5,1.5,0,0,0,33,19.08Z"/><path class="cls-5" d="M35.51,17.22h0a6.93,6.93,0,0,1-7,0h0a11,11,0,0,0-9-1C10.09,19.39,7,26.67,7.85,36.41c1.11,12,8,23.1,24.15,23.1s23-11.1,24.16-23.1c.9-9.74-2.24-17-11.64-20.17A11,11,0,0,0,35.51,17.22Z"/><path class="cls-6" d="M44.52,16.24l-.32-.09c2.76,3.7,3.65,8.6,3.11,14.37-1.1,12-8,23.1-24.15,23.1a27.77,27.77,0,0,1-9.1-1.42C18,56.62,23.77,59.51,32,59.51c16.13,0,23-11.1,24.16-23.1C57.06,26.67,53.92,19.39,44.52,16.24Z"/><path class="cls-7" d="M32,59.51c11.09,0,17.83-5.25,21.31-12.42a8.47,8.47,0,0,0-5.41,2.69c-4.21,4.35-7.52,4.27-14,.15S24.55,48.27,20.2,51c-2.21,1.4-5.06.68-7.41-.43C16.63,55.92,22.82,59.51,32,59.51Z"/><path class="cls-8" d="M35.39,50.83c-.48-.28-1-.57-1.49-.9C27.43,45.8,24.55,48.27,20.2,51c-2.21,1.4-5.06.68-7.41-.43.4.55.83,1.08,1.28,1.59a27.71,27.71,0,0,0,9.09,1.42A25.59,25.59,0,0,0,35.39,50.83Z"/><path class="cls-9" d="M21.28,27.91c-2.34,2.34-5.28,3.19-7,1.43S13,24.27,15.3,21.93s5.66-2.81,7.41-1.06S23.62,25.58,21.28,27.91Z"/></g></g></svg>