<svg xmlns="http://www.w3.org/2000/svg" viewBox="0 0 64 64"><defs><style>.cls-1{fill:#1a1a1a;opacity:0;}.cls-2{fill:#fff;}</style></defs><title>Clock Flat White</title><g id="Layer_2" data-name="Layer 2"><g id="Layer_3" data-name="Layer 3"><rect class="cls-1" width="64" height="64"/><path class="cls-2" d="M32,7A25,25,0,1,0,57,32,25,25,0,0,0,32,7Zm0,43.17A18.17,18.17,0,1,1,50.17,32,18.16,18.16,0,0,1,32,50.17Z"/><path class="cls-2" d="M39.58,36.43l-5.61-4V21.59a3,3,0,0,0-5.94,0V33.42a2.91,2.91,0,0,0,.21,1.75c0,.06.05.11.07.16l.45-.24h0l-.4.33a.88.88,0,0,1,.07.13,2.88,2.88,0,0,0,1.25,1.16l6.47,4.57a3,3,0,0,0,1.7.54,2.92,2.92,0,0,0,.51,0,3,3,0,0,0,1.92-1.22,2.89,2.89,0,0,0,.5-2.21A2.93,2.93,0,0,0,39.58,36.43Z"/></g></g></svg>