<svg xmlns="http://www.w3.org/2000/svg" viewBox="0 0 64 64"><defs><style>.cls-1,.cls-3{fill:#fff;}.cls-1{opacity:0;}.cls-2{fill:#e7c3a4;}.cls-4{fill:#cea067;}</style></defs><title>Bone</title><g id="Layer_2" data-name="Layer 2"><g id="Layer_2-2" data-name="Layer 2"><rect class="cls-1" width="64" height="64"/><circle class="cls-2" cx="51.07" cy="25.95" r="8.43"/><circle class="cls-2" cx="12.93" cy="38.05" r="8.43"/><rect class="cls-2" x="14.08" y="24.72" width="35.85" height="14.55"/><circle class="cls-2" cx="12.93" cy="25.95" r="8.43"/><path class="cls-3" d="M12.11,25.43c-1.44,1.44-3.12,2.09-4.27.93s-.93-3.26.5-4.69S11.88,20,13,21.16,13.54,24,12.11,25.43Z"/><path class="cls-3" d="M50.26,25.43c-1.44,1.44-3.12,2.09-4.27.93s-.93-3.26.5-4.69S50,20,51.19,21.16,51.69,24,50.26,25.43Z"/><path class="cls-4" d="M21,35.48H19.31a1.45,1.45,0,0,0-1.39,1.05,9.33,9.33,0,0,1-11.86,6.4,8.42,8.42,0,0,0,15.2-3.65H49.92v-3.8Z"/><circle class="cls-2" cx="51.07" cy="38.05" r="8.43"/><path class="cls-4" d="M56,31.18A9.34,9.34,0,0,1,44.2,42.93,8.43,8.43,0,1,0,56,31.18Z"/></g></g></svg>