<?xml version="1.0" encoding="UTF-8"?>
<svg id="Layer_2" data-name="Layer 2" xmlns="http://www.w3.org/2000/svg" viewBox="0 0 64 64">
  <defs>
    <style>
      .cls-1 {
        fill: #606060;
        opacity: 0;
      }

      .cls-2 {
        fill: #1a1a1a;
      }
    </style>
  </defs>
  <g id="Black">
    <g id="Key_2_Flat_Black" data-name="Key 2 Flat Black">
      <rect class="cls-1" width="64" height="64"/>
      <path class="cls-2" d="M59.26,16.29l-3.37-3.37c-.31-.31-.81-.31-1.12,0l-.98,.98-1.12-1.12,1.54-1.54c.46-.46,.46-1.22,0-1.68l-2.24-2.24c-.46-.46-1.22-.46-1.68,0l-10.24,10.24-.14-.14c-.46-.46-1.22-.46-1.68,0l-1.96,1.96c-.46,.46-.46,1.22,0,1.68l.14,.14-13.19,13.18-.14-.14c-.46-.46-1.22-.46-1.68,0l-1.28,1.28c-4.91-3.17-9.86-2.77-13.03,.4-3.17,3.17-3.57,8.12-.4,13.03l-1.28,1.28c-.46,.46-.46,1.22,0,1.68l4.21,4.21c.46,.46,1.22,.46,1.68,0l1.28-1.28c4.91,3.17,9.86,2.77,13.03-.4,3.17-3.17,3.57-8.12,.4-13.03l1.28-1.28c.46-.46,.46-1.22,0-1.68l-.14-.14,13.19-13.18,.14,.14c.46,.46,1.22,.46,1.68,0l1.96-1.96c.46-.46,.46-1.22,0-1.68l-.14-.14,1.68-1.68,1.12,1.12-.98,.98c-.31,.31-.31,.81,0,1.12l3.37,3.37c.31,.31,.81,.31,1.12,0l1.12-1.12c.31-.31,.31-.81,0-1.12l-1.12-1.12,1.4-1.4,1.12,1.12c.31,.31,.81,.31,1.12,0l1.68-1.68c.31-.31,.31-.81,0-1.12l-1.12-1.12,1.4-1.4,1.12,1.12c.31,.31,.81,.31,1.12,0l1.12-1.12c.31-.31,.31-.81,0-1.12ZM22.35,52.04c-1.89,1.52-4.66,1.52-6.55,0-1.19-.96-1.84-2.29-1.96-3.66-.03-.36-.32-.65-.68-.68-1.37-.12-2.7-.77-3.66-1.96-1.52-1.9-1.52-4.66,0-6.55,2-2.49,5.65-2.64,7.84-.44,.9,.9,1.4,2.04,1.51,3.22,.04,.39,.34,.69,.73,.73,1.18,.11,2.32,.61,3.22,1.51,2.19,2.19,2.05,5.84-.44,7.84Z"/>
    </g>
  </g>
</svg>