<?xml version="1.0" encoding="UTF-8"?>
<svg id="Layer_2" data-name="Layer 2" xmlns="http://www.w3.org/2000/svg" viewBox="0 0 64 64">
  <defs>
    <style>
      .cls-1 {
        fill: #5d7c8c;
      }

      .cls-2 {
        fill: #476475;
      }

      .cls-3 {
        opacity: 0;
      }

      .cls-3, .cls-4 {
        fill: #1a1a1a;
      }
    </style>
  </defs>
  <g id="Outlines">
    <g id="Key_2_Black_Outline" data-name="Key 2 Black Outline">
      <rect class="cls-3" width="64" height="64"/>
      <g>
        <path class="cls-4" d="M62.09,13.47l-3.37-3.37c-.06-.06-.12-.12-.19-.18-.11-1.16-.61-2.3-1.5-3.19l-2.24-2.24c-.98-.98-2.28-1.52-3.67-1.52s-2.69,.54-3.67,1.52l-8.58,8.58c-1.31,.05-2.54,.58-3.48,1.52l-1.96,1.96c-.94,.94-1.47,2.17-1.52,3.48l-9.87,9.87c-.91,.03-1.79,.3-2.55,.77-2.02-.88-4.1-1.33-6.12-1.33-3.46,0-6.69,1.33-9.12,3.76-3.97,3.97-4.81,9.71-2.42,15.24-1.24,2-.99,4.67,.74,6.41l4.21,4.21c.98,.98,2.28,1.52,3.67,1.52,.98,0,1.92-.27,2.73-.78,2.02,.88,4.1,1.33,6.13,1.33,3.46,0,6.69-1.33,9.12-3.76,3.97-3.97,4.81-9.71,2.43-15.24,.47-.76,.74-1.63,.77-2.55l9.87-9.87c1.31-.05,2.54-.58,3.48-1.52l.12-.12,1.24,1.24c.91,.9,2.11,1.4,3.39,1.4s2.48-.5,3.39-1.4l1.12-1.12c.44-.44,.78-.96,1.01-1.5,.56-.24,1.07-.58,1.51-1.02l1.69-1.69c.44-.44,.78-.96,1.01-1.5,.56-.24,1.07-.58,1.51-1.02l1.13-1.12c1.87-1.87,1.87-4.91,0-6.78Z"/>
        <g>
          <path class="cls-2" d="M53.79,13.91l-3.09-3.09-7.01,7.01,3.09,3.09-.98,.98c-.31,.31-.31,.81,0,1.12l3.37,3.37c.31,.31,.81,.31,1.12,0l1.12-1.12c.31-.31,.31-.81,0-1.12l-1.12-1.12,1.4-1.4,1.12,1.12c.31,.31,.81,.31,1.12,0l1.68-1.68c.31-.31,.31-.81,0-1.12l-1.12-1.12,1.4-1.4,1.12,1.12c.31,.31,.81,.31,1.12,0l1.12-1.12c.31-.31,.31-.81,0-1.12l-3.37-3.37c-.31-.31-.81-.31-1.12,0l-.98,.98Z"/>
          <path class="cls-1" d="M54.22,9.56l-2.24-2.24c-.46-.46-1.22-.46-1.68,0l-30.3,30.3,3.93,3.93L54.22,11.24c.46-.46,.46-1.22,0-1.68Z"/>
          <rect class="cls-2" x="37.61" y="17.18" width="5.16" height="8.33" rx="1.19" ry="1.19" transform="translate(-3.32 34.67) rotate(-45)"/>
          <g>
            <rect class="cls-2" x="6.75" y="48.04" width="5.16" height="8.33" rx="1.19" ry="1.19" transform="translate(-34.18 21.89) rotate(-45)"/>
            <rect class="cls-2" x="20.78" y="34.01" width="5.16" height="8.33" rx="1.19" ry="1.19" transform="translate(-20.15 27.7) rotate(-45)"/>
          </g>
          <path class="cls-1" d="M23.36,38.18c-5.86-5.86-12.4-6.12-16.27-2.24s-3.62,10.41,2.24,16.27c5.86,5.86,12.4,6.12,16.27,2.24,3.87-3.87,3.62-10.41-2.24-16.27Zm-1.01,13.86c-1.89,1.52-4.66,1.52-6.55,0-1.19-.96-1.84-2.29-1.96-3.66-.03-.36-.32-.65-.68-.68-1.37-.12-2.7-.77-3.66-1.96-1.52-1.9-1.52-4.66,0-6.55,2-2.49,5.65-2.64,7.84-.44,.9,.9,1.4,2.04,1.51,3.22,.04,.39,.34,.69,.73,.73,1.18,.11,2.32,.61,3.22,1.51,2.19,2.19,2.05,5.84-.44,7.84Z"/>
        </g>
      </g>
    </g>
  </g>
</svg>