<?xml version="1.0" encoding="UTF-8"?>
<svg id="Layer_2" data-name="Layer 2" xmlns="http://www.w3.org/2000/svg" viewBox="0 0 64 64">
  <defs>
    <style>
      .cls-1 {
        fill: #fec92b;
      }

      .cls-2 {
        fill: #fee854;
      }

      .cls-3 {
        fill: #fc9504;
      }

      .cls-4 {
        fill: #fdaf18;
      }

      .cls-5 {
        fill: rgba(26, 26, 26, 0);
      }

      .cls-6 {
        fill: #1a1a1a;
      }
    </style>
  </defs>
  <g id="Layer_1-2" data-name="Layer 1">
    <g id="Layer_2-2" data-name="Layer 2">
      <g id="_001-100" data-name=" 001-100">
        <rect class="cls-5" width="64" height="64"/>
        <path class="cls-6" d="M63.25,24.7c-.75-2.82-3.11-4.91-6-5.31l-13-1.89-5.76-11.78c-1.76-3.59-6.1-5.07-9.69-3.31-1.44,.71-2.6,1.87-3.31,3.31l-5.79,11.78-13,1.89c-2.87,.41-5.21,2.51-5.95,5.31-.67,2.51,.07,5.19,1.94,7l9.41,9.2-2.22,13c-.64,3.95,2.04,7.68,6,8.32,.37,.06,.75,.09,1.12,.09,1.17,0,2.32-.29,3.36-.84l11.64-6.11,11.63,6.11c1.04,.55,2.19,.84,3.36,.84,4-.01,7.24-3.26,7.23-7.27,0-.4-.04-.8-.1-1.19l-2.22-13,9.41-9.17c1.86-1.8,2.6-4.47,1.94-6.98Z"/>
        <path class="cls-4" d="M32,34.63h0L15.16,57.8c1,.69,2.31,.76,3.38,.19l13.46-7.08h0v-16.28Z"/>
        <path class="cls-1" d="M4.55,25.71c-.31,1.15,.03,2.38,.89,3.2l10.89,10.61v.21l-2.57,14.78c-.23,1.28,.32,2.57,1.4,3.29l16.84-23.17L4.55,25.71Z"/>
        <path class="cls-3" d="M32,50.91l13.46,7.09c1.07,.57,2.38,.5,3.38-.19l-16.84-23.18v16.28Z"/>
        <path class="cls-4" d="M59.45,25.71l-27.45,8.92h0l16.84,23.17c1.08-.72,1.63-2.01,1.4-3.29l-2.53-14.78v-.21l10.85-10.61c.86-.82,1.2-2.05,.89-3.2Z"/>
        <path class="cls-2" d="M29.05,7.47l-6.74,13.63h-.12l-14.92,2.19c-1.31,.18-2.39,1.14-2.72,2.42l27.45,8.92h0V5.63c-1.26-.01-2.41,.7-2.95,1.84Z"/>
        <path class="cls-1" d="M56.73,23.29l-14.92-2.17h-.12l-6.69-13.65c-.55-1.15-1.73-1.87-3-1.84v29l27.45-8.92c-.33-1.28-1.41-2.24-2.72-2.42Z"/>
      </g>
    </g>
  </g>
</svg>