<svg xmlns="http://www.w3.org/2000/svg" viewBox="0 0 64 64"><defs><style>.cls-1,.cls-2{fill:#1a1a1a;}.cls-1{opacity:0;}.cls-3{fill:#a72d3e;}.cls-4{fill:#e62e49;}.cls-5{fill:#800d2d;}.cls-6{fill:#ff8769;}</style></defs><title>Star Red Outline</title><g id="Layer_2" data-name="Layer 2"><g id="_001-100" data-name="001-100"><rect class="cls-1" width="64" height="64"/><path class="cls-2" d="M63.25,24.7a7.23,7.23,0,0,0-6-5.31l-13-1.89L38.49,5.72a7.24,7.24,0,0,0-13,0L19.7,17.5l-13,1.89A7.22,7.22,0,0,0,.75,24.7a7.16,7.16,0,0,0,1.94,7L12.1,40.9l-2.22,13A7.25,7.25,0,0,0,17,62.31a7.21,7.21,0,0,0,3.36-.84L32,55.36l11.63,6.11a7.24,7.24,0,0,0,3.36.84,7.25,7.25,0,0,0,7.13-8.46l-2.22-13,9.41-9.17A7.16,7.16,0,0,0,63.25,24.7Z"/><path class="cls-3" d="M32,34.63h0L15.16,57.8a3.26,3.26,0,0,0,3.38.19L32,50.91h0V34.63Z"/><path class="cls-4" d="M4.55,25.71a3.25,3.25,0,0,0,.89,3.2L16.33,39.52l0,.21L13.76,54.51a3.27,3.27,0,0,0,1.4,3.29L32,34.63Z"/><path class="cls-5" d="M32,50.91,45.46,58a3.26,3.26,0,0,0,3.38-.19L32,34.63Z"/><path class="cls-3" d="M59.45,25.71,32,34.63h0L48.84,57.8a3.27,3.27,0,0,0,1.4-3.29L47.71,39.73l0-.21L58.56,28.91A3.25,3.25,0,0,0,59.45,25.71Z"/><path class="cls-6" d="M29.05,7.47,22.31,21.1l-.12,0L7.27,23.29a3.26,3.26,0,0,0-2.72,2.42L32,34.63h0v-29A3.23,3.23,0,0,0,29.05,7.47Z"/><path class="cls-4" d="M56.73,23.29,41.81,21.12l-.12,0L35,7.47a3.26,3.26,0,0,0-3-1.84v29l27.45-8.92A3.26,3.26,0,0,0,56.73,23.29Z"/></g></g></svg>