<svg xmlns="http://www.w3.org/2000/svg" viewBox="0 0 64 64"><defs><style>.cls-1{opacity:0;}.cls-2{fill:#fff;}.cls-3{fill:#bb5938;}.cls-4{fill:#e62e49;}</style></defs><title>Umbrella Red</title><g id="Layer_2" data-name="Layer 2"><g id="Layer_3" data-name="Layer 3"><g class="cls-1"><rect class="cls-2" width="64" height="64"/></g><path class="cls-3" d="M28.91,54.9a5,5,0,0,1-5-5,1.87,1.87,0,0,1,3.73,0,1.23,1.23,0,0,0,2.46,0V11a1.87,1.87,0,0,1,3.73,0v39A5,5,0,0,1,28.91,54.9Z"/><path class="cls-4" d="M32,12.83A33.52,33.52,0,0,0,4.5,27.16,16.14,16.14,0,0,1,6.82,27a17.5,17.5,0,0,1,13.5,6.35A29.82,29.82,0,0,1,32,12.83Z"/><path class="cls-4" d="M32,12.83A33.52,33.52,0,0,1,59.5,27.16,16.14,16.14,0,0,0,57.18,27a17.5,17.5,0,0,0-13.5,6.35A29.82,29.82,0,0,0,32,12.83Z"/><path class="cls-2" d="M32,12.83a29.82,29.82,0,0,0-11.68,20.5,17.47,17.47,0,0,1,23.36,0A29.82,29.82,0,0,0,32,12.83Z"/></g></g></svg>