<svg xmlns="http://www.w3.org/2000/svg" viewBox="0 0 64 64"><defs><style>.cls-1{opacity:0;}.cls-2{fill:#1a1a1a;}.cls-3{fill:#bb5938;}.cls-4{fill:#e62e49;}.cls-5{fill:#fff;}</style></defs><title>Umbrella Red_1 Outline</title><g id="Layer_2" data-name="Layer 2"><g id="Layer_3" data-name="Layer 3"><g class="cls-1"><rect class="cls-2" width="64" height="64"/></g><path class="cls-2" d="M62.78,24.86A37.33,37.33,0,0,0,37.61,9.25a5.87,5.87,0,0,0-11.22,0A37.33,37.33,0,0,0,1.22,24.86a4,4,0,0,0,3.28,6.3,4.91,4.91,0,0,0,.53,0A14.13,14.13,0,0,1,6.82,31a13.54,13.54,0,0,1,10.43,4.9A4,4,0,0,0,20,37.31l.29,0a4.06,4.06,0,0,0,2.67-1,13.36,13.36,0,0,1,3.15-2.11v9.89h-.33A5.87,5.87,0,0,0,20,49.94a9,9,0,1,0,17.92,0V34.2A13.3,13.3,0,0,1,41,36.31a4.06,4.06,0,0,0,2.67,1l.29,0a4,4,0,0,0,2.78-1.43A13.54,13.54,0,0,1,57.18,31a14.13,14.13,0,0,1,1.79.14,4.91,4.91,0,0,0,.53,0,4,4,0,0,0,3.28-6.3Z"/><path class="cls-3" d="M28.91,54.9a5,5,0,0,1-5-5,1.87,1.87,0,0,1,3.73,0,1.23,1.23,0,0,0,2.46,0V11a1.87,1.87,0,0,1,3.73,0v39A5,5,0,0,1,28.91,54.9Z"/><path class="cls-4" d="M32,12.83A33.52,33.52,0,0,0,4.5,27.16,16.14,16.14,0,0,1,6.82,27a17.5,17.5,0,0,1,13.5,6.35A29.82,29.82,0,0,1,32,12.83Z"/><path class="cls-4" d="M32,12.83A33.52,33.52,0,0,1,59.5,27.16,16.14,16.14,0,0,0,57.18,27a17.5,17.5,0,0,0-13.5,6.35A29.82,29.82,0,0,0,32,12.83Z"/><path class="cls-5" d="M32,12.83a29.82,29.82,0,0,0-11.68,20.5,17.47,17.47,0,0,1,23.36,0A29.82,29.82,0,0,0,32,12.83Z"/></g></g></svg>