<svg xmlns="http://www.w3.org/2000/svg" viewBox="0 0 64 64"><defs><style>.cls-1{opacity:0;}.cls-2{fill:#1a1a1a;}</style></defs><title>Umbrella Flat Black</title><g id="Layer_2" data-name="Layer 2"><g id="Layer_4" data-name="Layer 4"><g class="cls-1"><rect class="cls-2" width="64" height="64"/></g><path class="cls-2" d="M33.87,12.89V11a1.87,1.87,0,0,0-3.73,0v1.93A33.51,33.51,0,0,0,4.5,27.16,16.14,16.14,0,0,1,6.82,27a17.52,17.52,0,0,1,13.5,6.34A17.51,17.51,0,0,1,30.14,29v21a1.24,1.24,0,0,1-2.47,0,1.86,1.86,0,0,0-3.72,0,5,5,0,1,0,9.92,0V29a17.51,17.51,0,0,1,9.81,4.36A17.52,17.52,0,0,1,57.18,27a16.14,16.14,0,0,1,2.32.18A33.51,33.51,0,0,0,33.87,12.89Z"/></g></g></svg>