<svg xmlns="http://www.w3.org/2000/svg" viewBox="0 0 64 64"><defs><style>.cls-1,.cls-2{fill:#1a1a1a;}.cls-1{opacity:0;}</style></defs><title>Spring Black</title><g id="Layer_2" data-name="Layer 2"><g id="Layer_2-2" data-name="Layer 2"><rect class="cls-1" width="64" height="64"/><path class="cls-2" d="M55.23,46.6A7.75,7.75,0,0,0,53.28,40a7.72,7.72,0,0,0,0-10.51A7.72,7.72,0,0,0,49,16.63l-1.29-.23,2.12-.72.49-.2A7.73,7.73,0,0,0,47.61.5H16.39a7.73,7.73,0,0,0-5.67,13,7.74,7.74,0,0,0-.66,9.69,7.4,7.4,0,0,0,.66.82,7.53,7.53,0,0,0-1.94,3.9,7.65,7.65,0,0,0,1.28,5.78,6.58,6.58,0,0,0,.66.82,7.73,7.73,0,0,0,4.33,12.87l1.35.24-2.14.73A7.73,7.73,0,0,0,16.39,63.5H47.61a7.73,7.73,0,0,0,5.67-13A7.72,7.72,0,0,0,55.23,46.6ZM16.39,4.5H47.61a3.74,3.74,0,0,1,0,7.47H16.39a3.74,3.74,0,0,1,0-7.47Zm31.22,55H16.39a3.74,3.74,0,0,1,0-7.47H47.61a3.74,3.74,0,0,1,0,7.47Zm3.68-13.59a3.75,3.75,0,0,1-4.33,3L15.74,43.43A3.73,3.73,0,1,1,17,36.08l31.22,5.5A3.75,3.75,0,0,1,51.29,45.91Zm0-10.51a3.74,3.74,0,0,1-4.33,3L15.74,32.92A3.73,3.73,0,1,1,17,25.57l31.22,5.51A3.73,3.73,0,0,1,51.29,35.4Zm0-10.51a3.74,3.74,0,0,1-4.33,3l-31.22-5.5A3.74,3.74,0,1,1,17,15.06l31.22,5.51A3.74,3.74,0,0,1,51.29,24.89Z"/></g></g></svg>