<svg xmlns="http://www.w3.org/2000/svg" viewBox="0 0 64 64"><defs><style>.cls-1{opacity:0;}.cls-2{fill:#fff;}.cls-3{fill:#9c3d29;}.cls-4{fill:#d1864b;}.cls-5{fill:#ebb369;}</style></defs><title>Spring Bronze</title><g id="Layer_2" data-name="Layer 2"><g id="_001-100" data-name="001-100"><g class="cls-1"><rect class="cls-2" width="64" height="64"/></g><rect class="cls-3" x="13.12" y="23.03" width="37.86" height="7.47" rx="3.73" transform="translate(-3.98 5.65) rotate(-9.5)"/><rect class="cls-3" x="12.22" y="46.7" width="39.65" height="7.47" rx="3.73" transform="translate(-14.6 13.09) rotate(-18.88)"/><rect class="cls-3" x="13.12" y="33.54" width="37.86" height="7.47" rx="3.73" transform="translate(-5.71 5.8) rotate(-9.5)"/><rect class="cls-3" x="12.22" y="9.83" width="39.65" height="7.47" rx="3.73" transform="translate(-2.67 11.1) rotate(-18.88)"/><rect class="cls-4" x="12.66" y="52.03" width="38.68" height="7.47" rx="3.73"/><path class="cls-5" d="M25.34,53.33H19a1.22,1.22,0,1,0,0,2.44h6.38a1.22,1.22,0,1,0,0-2.44Z"/><rect class="cls-4" x="12.42" y="38.77" width="39.17" height="7.47" rx="3.73" transform="translate(7.87 -4.91) rotate(10)"/><path class="cls-5" d="M26,39l-6.18-1.09a1.22,1.22,0,1,0-.43,2.4l6.19,1.09A1.22,1.22,0,1,0,26,39Z"/><rect class="cls-4" x="12.42" y="28.27" width="39.17" height="7.47" rx="3.73" transform="translate(6.04 -5.07) rotate(10)"/><path class="cls-5" d="M26,28.46l-6.18-1.09a1.22,1.22,0,1,0-.43,2.4l6.19,1.09a1.22,1.22,0,0,0,.42-2.4Z"/><rect class="cls-4" x="12.42" y="17.76" width="39.17" height="7.47" rx="3.73" transform="translate(4.22 -5.23) rotate(10)"/><path class="cls-5" d="M26,18l-6.18-1.09a1.21,1.21,0,1,0-.43,2.39l6.19,1.1a1.23,1.23,0,0,0,1.41-1A1.2,1.2,0,0,0,26,18Z"/><rect class="cls-4" x="12.66" y="4.5" width="38.68" height="7.47" rx="3.73"/><path class="cls-5" d="M25.34,5.8H19a1.22,1.22,0,1,0,0,2.43h6.38a1.22,1.22,0,1,0,0-2.43Z"/></g></g></svg>