<svg xmlns="http://www.w3.org/2000/svg" viewBox="0 0 64 64"><defs><style>.cls-1,.cls-2{fill:#1a1a1a;}.cls-1{opacity:0;}.cls-3{fill:#0049c7;}.cls-4{fill:#37b9ff;}.cls-5{fill:#96dbff;}</style></defs><title>Spring Blue Outline</title><g id="Layer_2" data-name="Layer 2"><g id="_001-100" data-name="001-100"><rect class="cls-1" width="64" height="64"/><path class="cls-2" d="M55.23,46.6A7.75,7.75,0,0,0,53.28,40a7.72,7.72,0,0,0,0-10.51A7.72,7.72,0,0,0,49,16.63l-1.29-.23,2.12-.72.49-.2A7.73,7.73,0,0,0,47.61.5H16.39a7.73,7.73,0,0,0-5.67,13,7.74,7.74,0,0,0-.66,9.69,7.4,7.4,0,0,0,.66.82,7.53,7.53,0,0,0-1.94,3.9,7.65,7.65,0,0,0,1.28,5.78,6.58,6.58,0,0,0,.66.82,7.73,7.73,0,0,0,4.33,12.87l1.35.24-2.14.73A7.73,7.73,0,0,0,16.39,63.5H47.61a7.73,7.73,0,0,0,5.67-13A7.72,7.72,0,0,0,55.23,46.6Z"/><rect class="cls-3" x="13.12" y="23.03" width="37.86" height="7.47" rx="3.73" transform="translate(-3.98 5.65) rotate(-9.5)"/><rect class="cls-3" x="12.22" y="46.7" width="39.65" height="7.47" rx="3.73" transform="translate(-14.6 13.09) rotate(-18.88)"/><rect class="cls-3" x="13.12" y="33.54" width="37.86" height="7.47" rx="3.73" transform="translate(-5.71 5.8) rotate(-9.5)"/><rect class="cls-3" x="12.22" y="9.84" width="39.65" height="7.47" rx="3.73" transform="translate(-2.67 11.1) rotate(-18.88)"/><rect class="cls-4" x="12.66" y="52.03" width="38.68" height="7.47" rx="3.73"/><path class="cls-5" d="M25.34,53.33H19a1.22,1.22,0,1,0,0,2.44h6.38a1.22,1.22,0,1,0,0-2.44Z"/><rect class="cls-4" x="12.42" y="38.77" width="39.17" height="7.47" rx="3.73" transform="translate(7.87 -4.91) rotate(10)"/><path class="cls-5" d="M26,39l-6.18-1.09a1.22,1.22,0,0,0-.43,2.4l6.19,1.09A1.22,1.22,0,1,0,26,39Z"/><rect class="cls-4" x="12.42" y="28.27" width="39.17" height="7.47" rx="3.73" transform="translate(6.04 -5.07) rotate(10)"/><path class="cls-5" d="M26,28.46l-6.18-1.09a1.22,1.22,0,0,0-.43,2.4l6.19,1.09a1.22,1.22,0,0,0,.42-2.4Z"/><rect class="cls-4" x="12.42" y="17.76" width="39.17" height="7.47" rx="3.73" transform="translate(4.22 -5.23) rotate(10)"/><path class="cls-5" d="M26,18l-6.18-1.09a1.21,1.21,0,1,0-.43,2.39l6.19,1.1a1.23,1.23,0,0,0,1.41-1A1.2,1.2,0,0,0,26,18Z"/><rect class="cls-4" x="12.66" y="4.5" width="38.68" height="7.47" rx="3.73"/><path class="cls-5" d="M25.34,5.8H19a1.22,1.22,0,1,0,0,2.43h6.38a1.22,1.22,0,1,0,0-2.43Z"/></g></g></svg>