<svg xmlns="http://www.w3.org/2000/svg" viewBox="0 0 64 64"><defs><style>.cls-1{opacity:0;}.cls-2,.cls-3{fill:#1a1a1a;}.cls-3,.cls-4,.cls-5{fill-rule:evenodd;}.cls-4{fill:#80bad9;}.cls-5{fill:#fff;}</style></defs><title>Arrows Shrink Outline </title><g id="Layer_2" data-name="Layer 2"><g id="Layer_3" data-name="Layer 3"><g class="cls-1"><rect class="cls-2" width="64" height="64"/></g><path class="cls-3" d="M57.75,45.38a4.79,4.79,0,0,0-1.38-2.94L55.94,42a4.83,4.83,0,0,0,.19-1.47V37.74c0-.11,0-.25,0-.36A4.81,4.81,0,0,0,52.27,33l-4.81-1,4.81-1a4.8,4.8,0,0,0,3.86-4.77v-2.8A4.66,4.66,0,0,0,55.94,22l.44-.43a4.78,4.78,0,0,0,1.39-3.3V15.11a4.48,4.48,0,0,0-.05-.64,4.87,4.87,0,0,0-1.35-2.71L50.74,6.13a4.8,4.8,0,0,0-6.8,0L42.43,7.64a4.8,4.8,0,0,0-8,2.59L32,22.52,29.54,10.23a4.84,4.84,0,0,0-4.72-3.87,4.75,4.75,0,0,0-3.25,1.28L20.06,6.13a4.8,4.8,0,0,0-6.8,0L7.63,11.76a4.76,4.76,0,0,0-1.37,2.85,4.53,4.53,0,0,0,0,.52v3c0,.13,0,.25,0,.37a4.82,4.82,0,0,0,1.39,3l.43.42a4.76,4.76,0,0,0-.19,1.46v2.82c0,.11,0,.25,0,.36a1.09,1.09,0,0,0,0,.18A4.83,4.83,0,0,0,11.72,31l4.82,1-4.81,1a4.8,4.8,0,0,0-3.86,4.77v2.8A4.66,4.66,0,0,0,8.06,42l-.43.42a4.77,4.77,0,0,0-1.4,3.31V48.9a3.12,3.12,0,0,0,0,.54,4.82,4.82,0,0,0,1.36,2.8l5.63,5.63a4.8,4.8,0,0,0,6.8,0l1.51-1.51a4.8,4.8,0,0,0,8-2.59L32,41.48l2.46,12.29a4.8,4.8,0,0,0,8,2.59l1.51,1.51a4.8,4.8,0,0,0,6.8,0l5.63-5.63a4.82,4.82,0,0,0,1.36-2.8,3.64,3.64,0,0,0,0-.57v-3A3.19,3.19,0,0,0,57.75,45.38Z"/><path class="cls-4" d="M53.77,45.83a.8.8,0,0,0-.23-.56l-2.83-2.83,1.19-1.2a.81.81,0,0,0,.23-.61h0v-3h0a.79.79,0,0,0-.64-.74l-15.2-3a.8.8,0,0,0-1,.73h0v3.06h0a.92.92,0,0,0,0,.16l3,15.2a.8.8,0,0,0,1.35.41l2.7-2.69L46.77,55a.8.8,0,0,0,1.14,0l5.63-5.63a.88.88,0,0,0,.23-.52h0v-3h0Z"/><path class="cls-4" d="M27.71,33.84l-15.2,3a.79.79,0,0,0-.64.81v2.92a.76.76,0,0,0,.23.62l1.19,1.2-2.83,2.83a.78.78,0,0,0-.23.56h0v3.05h0a.77.77,0,0,0,.23.52L16.09,55a.8.8,0,0,0,1.14,0l4.33-4.33,2.7,2.69A.8.8,0,0,0,25.61,53l3.05-15.2a.92.92,0,0,0,0-.16h0v0h0v-3h0A.8.8,0,0,0,27.71,33.84Z"/><path class="cls-4" d="M10.46,18.73l2.83,2.83-1.19,1.2a.74.74,0,0,0-.23.61h0v3h0a.79.79,0,0,0,.64.74l15.2,3.05a.8.8,0,0,0,1-.73h0V26.37h0a.92.92,0,0,0,0-.16L25.61,11a.8.8,0,0,0-1.35-.41l-2.7,2.69L17.23,9a.8.8,0,0,0-1.14,0l-5.63,5.63a.77.77,0,0,0-.23.52h0v3.05h0A.75.75,0,0,0,10.46,18.73Z"/><path class="cls-4" d="M36.29,30.16l15.2-3.05a.79.79,0,0,0,.64-.81V23.38a.76.76,0,0,0-.23-.62l-1.19-1.2,2.83-2.83a.8.8,0,0,0,.23-.56h0V15.12h0a.88.88,0,0,0-.23-.52L47.91,9a.8.8,0,0,0-1.14,0l-4.33,4.33-2.7-2.69a.8.8,0,0,0-1.35.41l-3,15.2a.92.92,0,0,0,0,.16h0v0h0v3h0A.8.8,0,0,0,36.29,30.16Z"/><path class="cls-5" d="M49.21,40.94l2.69-2.7a.8.8,0,0,0-.41-1.35l-15.2-3a.81.81,0,0,0-.95.95l3,15.2a.8.8,0,0,0,1.35.41l2.7-2.69L46.77,52a.8.8,0,0,0,1.14,0l5.63-5.63a.8.8,0,0,0,0-1.14Z"/><path class="cls-5" d="M16.09,52a.8.8,0,0,0,1.14,0l4.33-4.33,2.7,2.69A.8.8,0,0,0,25.61,50l3.05-15.2a.81.81,0,0,0-.95-.95l-15.2,3a.8.8,0,0,0-.41,1.35l2.69,2.7-4.33,4.33a.8.8,0,0,0,0,1.14Z"/><path class="cls-5" d="M25.61,11a.8.8,0,0,0-1.35-.41l-2.7,2.69L17.23,9a.8.8,0,0,0-1.14,0l-5.63,5.63a.8.8,0,0,0,0,1.14l4.33,4.33-2.69,2.7a.8.8,0,0,0,.41,1.35l15.2,3.05a.81.81,0,0,0,.95-.95Z"/><path class="cls-5" d="M47.91,9a.8.8,0,0,0-1.14,0l-4.33,4.33-2.7-2.69a.8.8,0,0,0-1.35.41l-3,15.2a.81.81,0,0,0,.95.95l15.2-3.05a.8.8,0,0,0,.41-1.35l-2.69-2.7,4.33-4.33a.8.8,0,0,0,0-1.14Z"/></g></g></svg>