<svg xmlns="http://www.w3.org/2000/svg" viewBox="0 0 64 64"><defs><style>.cls-1{opacity:0;}.cls-2,.cls-4{fill:#fff;}.cls-3{fill:#80bad9;}.cls-3,.cls-4{fill-rule:evenodd;}</style></defs><title>Arrows Shrink </title><g id="Layer_2" data-name="Layer 2"><g id="Layer_3" data-name="Layer 3"><g class="cls-1"><rect class="cls-2" width="64" height="64"/></g><path class="cls-3" d="M53.78,45.84h0a.8.8,0,0,0-.23-.56l-2.83-2.83,1.19-1.2a.81.81,0,0,0,.23-.61h0v-3h0a.79.79,0,0,0-.64-.74l-15.2-3a.8.8,0,0,0-1,.73h0v3.06h0a.92.92,0,0,0,0,.16l3,15.2a.8.8,0,0,0,1.35.41l2.7-2.69L46.77,55a.8.8,0,0,0,1.14,0l5.63-5.63a.82.82,0,0,0,.23-.52h0v-3Z"/><path class="cls-4" d="M49.21,40.94l2.69-2.7a.8.8,0,0,0-.41-1.35l-15.2-3a.81.81,0,0,0-.95.95l3,15.2a.8.8,0,0,0,1.35.41l2.7-2.69L46.77,52a.8.8,0,0,0,1.14,0l5.63-5.63a.8.8,0,0,0,0-1.14Z"/><path class="cls-3" d="M28.67,34.59h0a.8.8,0,0,0-1-.73l-15.2,3a.79.79,0,0,0-.64.81v2.92a.76.76,0,0,0,.23.62l1.19,1.2-2.83,2.83a.78.78,0,0,0-.23.56h0s0,0,0,0v3h0a.82.82,0,0,0,.23.52L16.09,55a.8.8,0,0,0,1.14,0l4.33-4.33,2.7,2.69A.8.8,0,0,0,25.61,53l3.05-15.2a.92.92,0,0,0,0-.16h0v0h0Z"/><path class="cls-4" d="M16.09,52a.8.8,0,0,0,1.14,0l4.33-4.33,2.7,2.69A.8.8,0,0,0,25.61,50l3.05-15.2a.81.81,0,0,0-.95-.95l-15.2,3a.8.8,0,0,0-.41,1.35l2.69,2.7-4.33,4.33a.8.8,0,0,0,0,1.14Z"/><path class="cls-3" d="M28.67,29.39v-3l-.73-.77L25.61,14a.8.8,0,0,0-1.35-.41l-2.7,2.69L17.23,12a.8.8,0,0,0-1.14,0l-3.66,3.66-2.2-.51v3.05h0a.8.8,0,0,0,.23.56l3.4,3.4-2,1.24v3h0a.79.79,0,0,0,.64.74l15.2,3.05a.8.8,0,0,0,1-.73h0Z"/><path class="cls-4" d="M25.61,11a.8.8,0,0,0-1.35-.41l-2.7,2.69L17.23,9a.8.8,0,0,0-1.14,0l-5.63,5.63a.8.8,0,0,0,0,1.14l4.33,4.33-2.69,2.7a.8.8,0,0,0,.41,1.35l15.2,3.05a.81.81,0,0,0,.95-.95Z"/><path class="cls-3" d="M53.77,18.15v-3l-2.2.51L47.91,12a.8.8,0,0,0-1.14,0l-4.33,4.33-2.7-2.69a.8.8,0,0,0-1.35.41L36.06,25.6l-.73.77v3h0a.8.8,0,0,0,1,.73l15.2-3.05a.79.79,0,0,0,.64-.81V23.37l-2-1.24,3.4-3.4a.78.78,0,0,0,.23-.56h0S53.78,18.16,53.77,18.15Z"/><path class="cls-4" d="M47.91,9a.8.8,0,0,0-1.14,0l-4.33,4.33-2.7-2.69a.8.8,0,0,0-1.35.41l-3,15.2a.81.81,0,0,0,.95.95l15.2-3.05a.8.8,0,0,0,.41-1.35l-2.69-2.7,4.33-4.33a.8.8,0,0,0,0-1.14Z"/></g></g></svg>