<svg xmlns="http://www.w3.org/2000/svg" viewBox="0 0 64 64"><defs><style>.cls-1{opacity:0;}.cls-2,.cls-3{fill:#fff;}.cls-3{fill-rule:evenodd;}</style></defs><title>Arrows Shrink White </title><g id="Layer_2" data-name="Layer 2"><g id="Layer_3" data-name="Layer 3"><g class="cls-1"><rect class="cls-2" width="64" height="64"/></g><path class="cls-3" d="M24.26,12.1l-2.7,2.69-4.33-4.33a.8.8,0,0,0-1.14,0l-5.63,5.63a.8.8,0,0,0,0,1.14l4.33,4.33-2.69,2.7a.8.8,0,0,0,.41,1.35l15.2,3.05a.81.81,0,0,0,.95-.95l-3.05-15.2A.8.8,0,0,0,24.26,12.1Z"/><path class="cls-3" d="M39.74,51.9l2.7-2.69,4.33,4.33a.8.8,0,0,0,1.14,0l5.63-5.63a.8.8,0,0,0,0-1.14l-4.33-4.33,2.69-2.7a.8.8,0,0,0-.41-1.35l-15.2-3a.81.81,0,0,0-.95.95l3,15.2A.8.8,0,0,0,39.74,51.9Z"/><path class="cls-3" d="M51.9,24.26l-2.69-2.7,4.33-4.33a.8.8,0,0,0,0-1.14l-5.63-5.63a.8.8,0,0,0-1.14,0l-4.33,4.33-2.7-2.69a.8.8,0,0,0-1.35.41l-3,15.2a.81.81,0,0,0,.95.95l15.2-3.05A.8.8,0,0,0,51.9,24.26Z"/><path class="cls-3" d="M12.1,39.74l2.69,2.7-4.33,4.33a.8.8,0,0,0,0,1.14l5.63,5.63a.8.8,0,0,0,1.14,0l4.33-4.33,2.7,2.69a.8.8,0,0,0,1.35-.41l3.05-15.2a.81.81,0,0,0-.95-.95l-15.2,3A.8.8,0,0,0,12.1,39.74Z"/></g></g></svg>