<svg xmlns="http://www.w3.org/2000/svg" viewBox="0 0 64 64"><defs><style>.cls-1{fill:#1a1a1a;opacity:0;}.cls-2{fill:#fff;}</style></defs><title>Robux Flat White</title><g id="Layer_2" data-name="Layer 2"><g id="Layer_3" data-name="Layer 3"><rect class="cls-1" width="64" height="64"/><path class="cls-2" d="M43.68,24.61,32.56,18.19a1.12,1.12,0,0,0-1.12,0L20.32,24.61a1.13,1.13,0,0,0-.56,1V38.42a1.13,1.13,0,0,0,.56,1l11.12,6.42a1.12,1.12,0,0,0,1.12,0l11.12-6.42a1.13,1.13,0,0,0,.56-1V25.58A1.13,1.13,0,0,0,43.68,24.61ZM36.45,35.34a1.11,1.11,0,0,1-1.11,1.11H28.66a1.11,1.11,0,0,1-1.11-1.11V28.66a1.11,1.11,0,0,1,1.11-1.11h6.68a1.11,1.11,0,0,1,1.11,1.11Z"/><path class="cls-2" d="M52,17.87,34.22,7.6a4.41,4.41,0,0,0-4.44,0L12,17.87a4.46,4.46,0,0,0-2.23,3.85V42.28A4.46,4.46,0,0,0,12,46.13L29.78,56.4a4.41,4.41,0,0,0,4.44,0L52,46.13a4.46,4.46,0,0,0,2.23-3.85V21.72A4.46,4.46,0,0,0,52,17.87ZM48.69,41a1.11,1.11,0,0,1-.56,1L32.56,51a1.17,1.17,0,0,1-1.12,0L15.87,42a1.11,1.11,0,0,1-.56-1V23a1.11,1.11,0,0,1,.56-1l15.57-9a1.17,1.17,0,0,1,1.12,0l15.57,9a1.11,1.11,0,0,1,.56,1Z"/></g></g></svg>