<svg xmlns="http://www.w3.org/2000/svg" viewBox="0 0 128 128"><defs><style>.cls-1{fill:none;}.cls-2{fill:#fff;}</style></defs><title>Scroll White </title><g id="Layer_2" data-name="Layer 2"><g id="_14-25" data-name="14-25"><rect class="cls-1" width="128" height="128"/><path class="cls-2" d="M110.53,17.47A30.35,30.35,0,0,0,76,10.7a106.51,106.51,0,0,1-9,19.24A62.83,62.83,0,0,1,85.05,43,62.83,62.83,0,0,1,98.06,61,106.51,106.51,0,0,1,117.3,52,30.35,30.35,0,0,0,110.53,17.47Z"/><path class="cls-2" d="M54.69,37.38,39.84,57.51a2.12,2.12,0,0,0,1.25,3.1c3.74,1.28,9.86,5,15.59,10.71s9.43,11.85,10.71,15.59a2.12,2.12,0,0,0,3.1,1.25L81,80.4a35.39,35.39,0,0,0-4-11.94.72.72,0,0,1,1.09-.91A28.28,28.28,0,0,1,85.57,77l5.05-3.73c4.9-3.61.55-15.31-10-25.9S58.3,32.48,54.69,37.38Z"/><path class="cls-2" d="M63.41,93.69C61.51,88.62,58.5,82.22,53.24,77c-6.6-6.6-15-9.69-20.31-11.42A104.77,104.77,0,0,1,12.06,76.69l-.06,0-.16.06h0a6,6,0,0,0-2,1.28C5,82.92,10,95.83,21.1,106.9s24,16.11,28.84,11.25a6,6,0,0,0,1.28-2h0a19,19,0,0,0,3.19,3.38l10-.36C59.84,104.48,63.41,93.69,63.41,93.69Zm-21.5,19.36c-1.66,1.66-9-3-16.48-10.48S13.29,87.75,15,86.09s9.05,3,16.49,10.47S43.58,111.38,41.91,113.05Z"/></g></g></svg>