<svg xmlns="http://www.w3.org/2000/svg" viewBox="0 0 128 128"><defs><style>.cls-1{fill:none;}.cls-2{fill:#1a1a1a;}.cls-3{fill:#bb5938;}.cls-4{fill:#a72d3e;}.cls-5{fill:#d1864b;}.cls-6{fill:#ebb369;}.cls-7{fill:#ffd59e;}.cls-8{fill:#e62e49;}.cls-9{fill:#f66;}</style></defs><title>Scroll Outline </title><g id="Layer_2" data-name="Layer 2"><g id="_14-25" data-name="14-25"><rect class="cls-1" width="128" height="128"/><path class="cls-2" d="M103.69,2.82l-.59-.2c-.89-.3-1.8-.55-2.53-.72l-.32-.08c-1-.21-2-.39-3-.52l-.12,0c-.93-.11-1.86-.19-2.68-.23l-.33,0c-.55,0-1.09,0-1.64,0L91.28,1c-.89,0-1.77.08-2.64.15h0c-.88.08-1.75.18-2.74.33-.78.12-1.55.25-2.3.4l-.21,0c-.73.15-1.45.31-2.14.48l-.11,0c-.7.17-1.37.35-2,.53L79,3c-.64.18-1.25.37-2,.61l-1.56.53-.12,0c-.48.17-.92.33-1.32.49l-1.21.48-1,.43-.56.25-.52.25a7.86,7.86,0,0,0-3.94,4.63c-.46,1.46-.95,2.89-1.45,4.29l-.52,1.37c-.34.92-.68,1.83-1,2.72l-.65,1.57c-.33.79-.66,1.59-1,2.36l-.72,1.57c-.34.74-.68,1.46-1,2.18l-.1.2-.38.09a19.31,19.31,0,0,0-3,1.05,6.56,6.56,0,0,0-.6.3A18.25,18.25,0,0,0,54,29.8c-.22.17-.45.33-.72.55a15.91,15.91,0,0,0-2.4,2.38,15.24,15.24,0,0,0-1.58,2.44A175.85,175.85,0,0,1,36.87,52.44c0,.05-.09.11-.14.17A12.74,12.74,0,0,0,34,60.89l-1.51,1.25c-.43.35-1.92,1.51-1.92,1.51-.49.38-1,.73-1.44,1.08l-.4.3c-.61.44-1.21.87-1.81,1.28l-.19.13c-.51.35-1,.69-1.48,1l-1.58,1-1.54,1-1.37.79-1.29.72-1,.53-3.87,1.81-.37.19c-.87.46-8.52,4.79-10.54,13.78-1,4.44-.89,11.51,5.34,20,9.4,12.74,25.12,18.55,35.74,18.55a22,22,0,0,0,12.45-3.36,25.66,25.66,0,0,0,17.82,4.44,7.88,7.88,0,0,0,6.64-5.69l1.8-6.42a7.86,7.86,0,0,0-1.36-7C77.9,102.28,76,97.08,76.33,92a12.43,12.43,0,0,0,5.35-3.87c.11-.14.22-.28.32-.43A50.85,50.85,0,0,1,94.56,75l.45-.26a13.86,13.86,0,0,0,1.35-.91l.26-.19A16,16,0,0,0,99.3,71a16.22,16.22,0,0,0,3.41-8.73A127.17,127.17,0,0,1,119.58,54a7.88,7.88,0,0,0,5.09-7.06C125.85,17.07,114,6.45,103.69,2.82Z"/><ellipse class="cls-3" cx="36.49" cy="97.57" rx="15.12" ry="22.16" transform="translate(-66.26 80.45) rotate(-60.04)"/><ellipse class="cls-4" cx="59.2" cy="70.36" rx="9.23" ry="20.76" transform="translate(-32.7 73.47) rotate(-51.86)"/><path class="cls-5" d="M18,80.38S4.43,87.64,15.4,102.5s34.44,19.76,39.62,11-9.89-22.38-24.72-20l1.58,7.15s8.69-1.9,13.81,4-1.62,9.65-11.43,5.49S16.1,96.8,19.16,89.62s16.59-7.13,21.78-4.14,7.29,10.11,12.48,20.4,13.12,14,20.7,13.11l1.81-6.42L64.5,104.63,44.19,68.09Z"/><path class="cls-6" d="M74.25,13.12S119-8.71,116.8,46.6c0,0-71.25,26.89-40.87,66,0,0-13.13,3-19.32-15.2S38.74,71.19,18,80.38C18,80.38,57.74,65.05,74.25,13.12Z"/><path class="cls-7" d="M74.25,13.12C59.26,60.25,25.13,77.24,18.94,80c10.27-4.33,18.26-4.39,24.44-1a191.4,191.4,0,0,1,19.9-24.77c12.38-12.72,28.5-29.48,37.57-44C88.76,6,74.25,13.12,74.25,13.12Z"/><path class="cls-7" d="M18.94,80l-1,.41S18.32,80.25,18.94,80Z"/><path class="cls-8" d="M83.29,41.54C73.32,33.69,61.56,32,57,37.64a8.52,8.52,0,0,0-.89,1.43A183.27,183.27,0,0,1,42.89,57.52l3.6,2.83-.08-.2s20-.54,25.39,20.12l3.72,2.93A58.32,58.32,0,0,1,90.13,68.46c.27-.18.55-.34.83-.51s.52-.33.76-.51h0a8.24,8.24,0,0,0,1.41-1.36C97.67,60.37,93.26,49.39,83.29,41.54Z"/><path class="cls-9" d="M57,37.64a8.52,8.52,0,0,0-.89,1.43A183.27,183.27,0,0,1,42.89,57.52l3.33,2.62h.19a7.17,7.17,0,0,1,7.2-1.4c10.9,1.27,29.57,4,26.6-10.64a24,24,0,0,0-6.21-12C66.87,33.32,60.19,33.67,57,37.64Z"/><path class="cls-4" d="M65,63.13c-9-7.09-18.89-9.6-22.06-5.61l3.6,2.83-.08-.2S65.82,61.3,71.8,80.27l3.72,2.93.27-.39C78.39,78.65,73.68,70,65,63.13Z"/></g></g></svg>