<svg xmlns="http://www.w3.org/2000/svg" viewBox="0 0 64 64"><defs><style>.cls-1{opacity:0;}.cls-2{fill:#1a1a1a;}.cls-3{fill:#1778ff;}.cls-4{fill:#37b9ff;}.cls-5{fill:#fff;}</style></defs><title>Info Outline </title><g id="Layer_2" data-name="Layer 2"><g id="Layer_3" data-name="Layer 3"><g class="cls-1"><rect class="cls-2" width="64" height="64"/></g><path class="cls-2" d="M32,63A28.17,28.17,0,0,1,3.86,34.86V29.14a28.14,28.14,0,0,1,56.28,0v5.72A28.17,28.17,0,0,1,32,63Z"/><path class="cls-3" d="M32,4.82A24.32,24.32,0,0,0,7.68,29.14v5.72a24.32,24.32,0,0,0,48.64,0V29.14A24.32,24.32,0,0,0,32,4.82Z"/><circle class="cls-4" cx="32" cy="29.14" r="24.32"/><path class="cls-3" d="M35.76,21.42a2.12,2.12,0,0,1-1.3,1,8.57,8.57,0,0,1-2.46.29,8.52,8.52,0,0,1-2.46-.29,2.09,2.09,0,0,1-1.3-1,4.38,4.38,0,0,1-.44-1.29,14.24,14.24,0,0,1-.07-1.69,14.16,14.16,0,0,1,.07-1.68,4,4,0,0,1,.42-1.24c.45-.88,1.72-1.32,3.8-1.32s3.29.44,3.71,1.32a3.93,3.93,0,0,1,.47,1.29,14,14,0,0,1,.07,1.68,14.24,14.24,0,0,1-.07,1.69A4.19,4.19,0,0,1,35.76,21.42Zm-8,9a14.24,14.24,0,0,1,.07-1.69,4.56,4.56,0,0,1,.42-1.29c.45-.84,1.72-1.27,3.8-1.27a5.17,5.17,0,0,1,3.32.83,2.71,2.71,0,0,1,.88,2.1c0,.33.05.8.05,1.41V42a13.93,13.93,0,0,1-.07,1.68,4,4,0,0,1-.47,1.3c-.42.84-1.67,1.27-3.75,1.27s-3.31-.44-3.76-1.32a4.56,4.56,0,0,1-.42-1.27,14.07,14.07,0,0,1-.07-1.71Z"/><path class="cls-5" d="M35.76,19.33a2.12,2.12,0,0,1-1.3,1,8.57,8.57,0,0,1-2.46.29,8.52,8.52,0,0,1-2.46-.29,2.09,2.09,0,0,1-1.3-1A4.38,4.38,0,0,1,27.8,18a14,14,0,0,1-.07-1.68,14.24,14.24,0,0,1,.07-1.69,4,4,0,0,1,.42-1.24c.45-.88,1.72-1.32,3.8-1.32s3.29.44,3.71,1.32a4,4,0,0,1,.47,1.29,14.16,14.16,0,0,1,.07,1.68,14.24,14.24,0,0,1-.07,1.69A4.1,4.1,0,0,1,35.76,19.33Zm-8,9.05a14.24,14.24,0,0,1,.07-1.69,4.56,4.56,0,0,1,.42-1.29c.45-.84,1.72-1.27,3.8-1.27a5.17,5.17,0,0,1,3.32.83,2.71,2.71,0,0,1,.88,2.1c0,.33.05.8.05,1.42V39.86a14.24,14.24,0,0,1-.07,1.69,4,4,0,0,1-.47,1.29c-.42.84-1.67,1.27-3.75,1.27s-3.31-.44-3.76-1.32a4.56,4.56,0,0,1-.42-1.27,14.07,14.07,0,0,1-.07-1.71Z"/></g></g></svg>