<svg xmlns="http://www.w3.org/2000/svg" viewBox="0 0 64 64"><defs><style>.cls-1{opacity:0;}.cls-2{fill:#fff;}.cls-3{fill:#1778ff;}.cls-4{fill:#37b9ff;}</style></defs><title>Info </title><g id="Layer_2" data-name="Layer 2"><g id="Layer_3" data-name="Layer 3"><g class="cls-1"><rect class="cls-2" width="64" height="64"/></g><path class="cls-3" d="M32,4.5A24.61,24.61,0,0,0,7.39,29.11v5.78a24.61,24.61,0,0,0,49.22,0V29.11A24.61,24.61,0,0,0,32,4.5Z"/><circle class="cls-4" cx="32" cy="29.11" r="24.61"/><path class="cls-3" d="M35.8,21.29a2.06,2.06,0,0,1-1.31,1,8.36,8.36,0,0,1-2.49.3,8.36,8.36,0,0,1-2.49-.3,2.05,2.05,0,0,1-1.31-1A4.25,4.25,0,0,1,27.75,20a14.43,14.43,0,0,1-.07-1.7,14.51,14.51,0,0,1,.07-1.71,4.08,4.08,0,0,1,.42-1.25C28.63,14.41,29.92,14,32,14s3.33.45,3.76,1.34a3.78,3.78,0,0,1,.46,1.3,14,14,0,0,1,.08,1.71,14,14,0,0,1-.08,1.7A3.61,3.61,0,0,1,35.8,21.29Zm-8.12,9.16a14.32,14.32,0,0,1,.07-1.7,4.57,4.57,0,0,1,.42-1.31c.46-.86,1.75-1.28,3.85-1.28a5.3,5.3,0,0,1,3.36.83,2.73,2.73,0,0,1,.89,2.13c0,.33,0,.8,0,1.43V42.07a14,14,0,0,1-.08,1.7,3.82,3.82,0,0,1-.46,1.31c-.43.85-1.7,1.28-3.8,1.28s-3.35-.44-3.81-1.33a4.67,4.67,0,0,1-.42-1.29A14.15,14.15,0,0,1,27.68,42Z"/><path class="cls-2" d="M35.8,19.18a2.09,2.09,0,0,1-1.31,1,8.36,8.36,0,0,1-2.49.3,8.36,8.36,0,0,1-2.49-.3,2.06,2.06,0,0,1-1.31-1,4.12,4.12,0,0,1-.45-1.3,14.51,14.51,0,0,1-.07-1.71,14.43,14.43,0,0,1,.07-1.7,4,4,0,0,1,.42-1.26c.46-.89,1.75-1.33,3.85-1.33s3.33.44,3.76,1.33a3.82,3.82,0,0,1,.46,1.31,14,14,0,0,1,.08,1.7,14,14,0,0,1-.08,1.71A3.75,3.75,0,0,1,35.8,19.18Zm-8.12,9.16a14.51,14.51,0,0,1,.07-1.71,4.61,4.61,0,0,1,.42-1.3C28.63,24.47,29.92,24,32,24a5.23,5.23,0,0,1,3.36.84A2.71,2.71,0,0,1,36.27,27c0,.33,0,.81,0,1.44V40a14,14,0,0,1-.08,1.71,3.71,3.71,0,0,1-.46,1.3c-.43.86-1.7,1.29-3.8,1.29s-3.35-.45-3.81-1.34a4.61,4.61,0,0,1-.42-1.28,14.34,14.34,0,0,1-.07-1.73Z"/></g></g></svg>