<svg xmlns="http://www.w3.org/2000/svg" viewBox="0 0 64 64"><defs><style>.cls-1{opacity:0;}.cls-2{fill:#1a1a1a;}</style></defs><title>Plus Black </title><g id="Layer_2" data-name="Layer 2"><g id="Layer_3" data-name="Layer 3"><g class="cls-1"><rect class="cls-2" width="64" height="64"/></g><path class="cls-2" d="M56.44,24.24H39.76V7.56a3.05,3.05,0,0,0-3-3.06H27.29a3.06,3.06,0,0,0-3.05,3.06V24.24H7.56A3.06,3.06,0,0,0,4.5,27.29v9.42a3.06,3.06,0,0,0,3.06,3H24.24V56.44a3.06,3.06,0,0,0,3.05,3.06h9.42a3.06,3.06,0,0,0,3-3.06V39.76H56.44a3.06,3.06,0,0,0,3.06-3V27.29A3.06,3.06,0,0,0,56.44,24.24Z"/></g></g></svg>