<svg xmlns="http://www.w3.org/2000/svg" viewBox="0 0 64 64"><defs><style>.cls-1{opacity:0;}.cls-2{fill:#1a1a1a;}.cls-3{fill:#39b54a;}</style></defs><title>Plus Outline </title><g id="Layer_2" data-name="Layer 2"><g id="Layer_3" data-name="Layer 3"><g class="cls-1"><rect class="cls-2" width="64" height="64"/></g><path class="cls-2" d="M27.29,63.5a7.06,7.06,0,0,1-7-7.06V43.76H7.56a7.06,7.06,0,0,1-7.06-7V27.29a7.06,7.06,0,0,1,7.06-7H20.24V7.56A7.06,7.06,0,0,1,27.29.5h9.42a7.06,7.06,0,0,1,7,7.06V20.24H56.44a7.06,7.06,0,0,1,7.06,7.05v9.42a7.06,7.06,0,0,1-7.06,7H43.76V56.44a7.06,7.06,0,0,1-7,7.06Z"/><path class="cls-3" d="M56.44,24.24H39.76V7.56a3.05,3.05,0,0,0-3-3.06H27.29a3.06,3.06,0,0,0-3.05,3.06V24.24H7.56A3.06,3.06,0,0,0,4.5,27.29v9.42a3.06,3.06,0,0,0,3.06,3H24.24V56.44a3.06,3.06,0,0,0,3.05,3.06h9.42a3.05,3.05,0,0,0,3-3.06V39.76H56.44a3.06,3.06,0,0,0,3.06-3V27.29A3.06,3.06,0,0,0,56.44,24.24Z"/></g></g></svg>