<svg xmlns="http://www.w3.org/2000/svg" viewBox="0 0 64 64"><defs><style>.cls-1{opacity:0;}.cls-2{fill:#1a1a1a;}.cls-3{fill:#e62e49;}</style></defs><title>Question Mark Outline </title><g id="Layer_2" data-name="Layer 2"><g id="Layer_3" data-name="Layer 3"><g class="cls-1"><rect class="cls-2" width="64" height="64"/></g><path class="cls-2" d="M31.28,63a10.64,10.64,0,0,1-7.41-2.54l-.12-.12c-1.58-1.58-2.38-3.92-2.38-7V52.23a23.71,23.71,0,0,1,.14-3,9.9,9.9,0,0,1,1.09-3.3,7,7,0,0,1,3.33-3.15,6.36,6.36,0,0,1-2.23-2.24,8.36,8.36,0,0,1-1.1-2.92,19,19,0,0,1-.15-2.73v-.25l.07-.59a10.61,10.61,0,0,1,2.27-6.69,7.13,7.13,0,0,1-1.86.24,14.19,14.19,0,0,1-5-1.13c-5.65-2.16-6.83-5.42-6.83-7.78a10,10,0,0,1,.69-3.61c.29-.74.53-1.35.71-1.85a18.19,18.19,0,0,1,2-3.43,20.4,20.4,0,0,1,3.56-4,19.85,19.85,0,0,1,5.68-3.27,21.55,21.55,0,0,1,8-1.47A20.58,20.58,0,0,1,47,7.07a19.59,19.59,0,0,1,6,14.13,18.4,18.4,0,0,1-1.43,7.26,16.23,16.23,0,0,1-3.6,5.45,23.05,23.05,0,0,1-6.06,4.37A7.38,7.38,0,0,1,40.56,41a6.21,6.21,0,0,1-2.17,1.89,7.91,7.91,0,0,1,1.76,1.31c1.72,1.72,2.55,4.41,2.55,8.22a13.28,13.28,0,0,1-1.15,6.08A7.54,7.54,0,0,1,37,62.35,19.59,19.59,0,0,1,31.28,63Zm-.83-42-.06.16A14.26,14.26,0,0,1,29.08,24,11.68,11.68,0,0,1,31,23.24,7.07,7.07,0,0,0,33.51,22c.16-.12.24-.19.24-.6a1.51,1.51,0,0,0-.14-.81h0a3,3,0,0,0-1.25-.18,5.17,5.17,0,0,0-1.82.21h0Z"/><path class="cls-3" d="M26.39,34.88l.07-.58a6.67,6.67,0,0,1,1.76-4.89A8.68,8.68,0,0,1,32.07,27a10.93,10.93,0,0,0,3.85-1.94,4.44,4.44,0,0,0,1.77-3.71,4.82,4.82,0,0,0-1.34-3.63,5.48,5.48,0,0,0-4-1.3,7.28,7.28,0,0,0-3.92.83A3.59,3.59,0,0,0,26.89,19l-.22.87a8.41,8.41,0,0,1-1.51,2.84,2.83,2.83,0,0,1-2.23,1,10.75,10.75,0,0,1-3.6-.86C16.45,21.68,15,20.32,15,18.68a6.18,6.18,0,0,1,.43-2.19c.29-.74.53-1.37.72-1.87A16.73,16.73,0,0,1,17.71,12a16.23,16.23,0,0,1,2.88-3.27,16.34,16.34,0,0,1,4.57-2.6,17.44,17.44,0,0,1,6.55-1.18A16.71,16.71,0,0,1,44.16,9.83,15.69,15.69,0,0,1,49,21.2a14.6,14.6,0,0,1-1.12,5.73,12,12,0,0,1-2.7,4.13,18.08,18.08,0,0,1-5.9,4l-1.15.35A12.57,12.57,0,0,1,38,37.33a3.42,3.42,0,0,1-.65,1.4,3.08,3.08,0,0,1-1.8,1.08,13.69,13.69,0,0,1-3.34.32,12.56,12.56,0,0,1-3.35-.36,2.77,2.77,0,0,1-1.76-1.22A4.72,4.72,0,0,1,26.49,37,15.49,15.49,0,0,1,26.39,34.88ZM26.1,47.73a3.36,3.36,0,0,1,2-1.62,15.35,15.35,0,0,1,4.64-.51c2.11,0,3.64.47,4.57,1.41s1.41,2.74,1.41,5.43a9.74,9.74,0,0,1-.72,4.28,3.66,3.66,0,0,1-2.2,1.88,16.47,16.47,0,0,1-4.57.46,6.79,6.79,0,0,1-4.75-1.51c-.82-.81-1.22-2.2-1.22-4.17V52.23a22.63,22.63,0,0,1,.1-2.52A6.1,6.1,0,0,1,26.1,47.73Z"/></g></g></svg>