<svg xmlns="http://www.w3.org/2000/svg" viewBox="0 0 64 64"><defs><style>.cls-1{opacity:0;}.cls-2{fill:#1a1a1a;}</style></defs><title>Question Mark Black </title><g id="Layer_2" data-name="Layer 2"><g id="Layer_3" data-name="Layer 3"><g class="cls-1"><rect class="cls-2" width="64" height="64"/></g><path class="cls-2" d="M26.3,34.93l.07-.59a6.76,6.76,0,0,1,1.79-5A8.72,8.72,0,0,1,32.07,27,11.15,11.15,0,0,0,36,25a4.53,4.53,0,0,0,1.79-3.77,4.89,4.89,0,0,0-1.36-3.69,5.58,5.58,0,0,0-4.05-1.32,7.41,7.41,0,0,0-4,.84,3.64,3.64,0,0,0-1.57,1.72l-.22.88a8.51,8.51,0,0,1-1.54,2.89,2.88,2.88,0,0,1-2.27,1,10.9,10.9,0,0,1-3.65-.88Q14.74,21,14.74,18.47a6.23,6.23,0,0,1,.44-2.23c.29-.76.53-1.39.73-1.9a16,16,0,0,1,1.57-2.67,16.51,16.51,0,0,1,2.93-3.33,16.31,16.31,0,0,1,4.64-2.63A17.59,17.59,0,0,1,31.71,4.5a17,17,0,0,1,12.65,5A16,16,0,0,1,49.26,21a14.79,14.79,0,0,1-1.13,5.81,12.4,12.4,0,0,1-2.75,4.21,18.31,18.31,0,0,1-6,4.1l-1.17.36a12.78,12.78,0,0,1-.11,1.9,3.69,3.69,0,0,1-.66,1.43,3.13,3.13,0,0,1-1.83,1.1,14.71,14.71,0,0,1-3.4.32,12.92,12.92,0,0,1-3.4-.36A2.84,2.84,0,0,1,27,38.66a4.43,4.43,0,0,1-.62-1.58A14.15,14.15,0,0,1,26.3,34.93ZM26,48a3.53,3.53,0,0,1,2.09-1.65,15.84,15.84,0,0,1,4.71-.51q3.23,0,4.65,1.43t1.43,5.52a9.87,9.87,0,0,1-.74,4.35A3.62,3.62,0,0,1,35.91,59a16.45,16.45,0,0,1-4.64.48A6.89,6.89,0,0,1,26.44,58c-.83-.82-1.24-2.24-1.24-4.24V52.55A20.83,20.83,0,0,1,25.31,50,6.15,6.15,0,0,1,26,48Z"/></g></g></svg>