<svg xmlns="http://www.w3.org/2000/svg" viewBox="0 0 64 64"><defs><style>.cls-1{fill:#1a1a1a;opacity:0;}.cls-2{fill:#fff;}</style></defs><title>Chevrons Up Flat White</title><g id="Layer_2" data-name="Layer 2"><g id="Layer_3" data-name="Layer 3"><rect class="cls-1" width="64" height="64"/><path class="cls-2" d="M51.78,15.58,34.7,7.6a6.38,6.38,0,0,0-5.4,0l-17.08,8a3.58,3.58,0,0,0-2.09,3.59l1.1,13.21A2.08,2.08,0,0,0,14.1,34L32,26.2,49.9,34a2.08,2.08,0,0,0,2.87-1.59l1.1-13.21A3.58,3.58,0,0,0,51.78,15.58Z"/><path class="cls-2" d="M49.78,41.91,34.42,35.48a6.34,6.34,0,0,0-4.84,0L14.22,41.91a2.9,2.9,0,0,0-1.91,2.9l.9,10.76a1.9,1.9,0,0,0,2.59,1.3L32,50.52l16.2,6.35a1.9,1.9,0,0,0,2.59-1.3l.9-10.76A2.9,2.9,0,0,0,49.78,41.91Z"/></g></g></svg>