<svg xmlns="http://www.w3.org/2000/svg" viewBox="0 0 64 64"><defs><style>.cls-1{fill:#1a1a1a;opacity:0;}.cls-2{fill:#39b54a;}.cls-3{fill:#65d666;}.cls-4{fill:#9feb97;}</style></defs><title>Chevrons Up</title><g id="Layer_2" data-name="Layer 2"><g id="Layer_3" data-name="Layer 3"><rect class="cls-1" width="64" height="64"/><path class="cls-2" d="M51.78,13.08,34.7,5.1a6.38,6.38,0,0,0-5.4,0l-17.08,8a3.58,3.58,0,0,0-2.09,3.59l1.1,13.21a2.08,2.08,0,0,0,2.87,1.59L32,23.7l17.9,7.77a2.08,2.08,0,0,0,2.87-1.59l1.1-13.21A3.58,3.58,0,0,0,51.78,13.08Z"/><path class="cls-2" d="M49.78,44.41,34.42,38a6.34,6.34,0,0,0-4.84,0L14.22,44.41a2.9,2.9,0,0,0-1.91,2.9l.9,10.76a1.9,1.9,0,0,0,2.59,1.3L32,53l16.2,6.35a1.9,1.9,0,0,0,2.59-1.3l.9-10.76A2.9,2.9,0,0,0,49.78,44.41Z"/><path class="cls-3" d="M42,8.53,34.7,5.1a6.38,6.38,0,0,0-5.4,0L22,8.53c-2.85,4.84-4.63,11.72-4.63,19.35,0,.73,0,1.45.05,2.16L32,23.7,46.62,30c0-.71.05-1.43.05-2.16C46.67,20.25,44.89,13.37,42,8.53Z"/><path class="cls-3" d="M29.58,38,18.49,42.62c1.33,5.62,3.69,10.24,6.65,13.09L32,53l6.86,2.69c3-2.85,5.32-7.47,6.65-13.09L34.42,38A6.34,6.34,0,0,0,29.58,38Z"/><path class="cls-4" d="M25.94,13c.74,1.79-1.26,3.85-4.26,5.09s-5.87,1.19-6.61-.6,1.09-4.26,4.09-5.5S25.2,11.24,25.94,13Z"/></g></g></svg>