<?xml version="1.0" encoding="UTF-8"?>
<svg id="Layer_2" data-name="Layer 2" xmlns="http://www.w3.org/2000/svg" viewBox="0 0 64 64">
  <defs>
    <style>
      .cls-1 {
        fill: #ffdfb5;
      }

      .cls-2 {
        fill: #f4c38e;
      }

      .cls-3 {
        fill: #fff2d4;
      }

      .cls-4 {
        fill: #1a1a1a;
        opacity: 0;
      }
    </style>
  </defs>
  <g id="Colour">
    <g>
      <rect class="cls-4" width="64" height="64"/>
      <g>
        <path class="cls-3" d="M45.69,53.33l-9.13-14.42h-9.11l-9.13,14.42c-.12,.2-.23,.4-.32,.61h28.01c-.09-.21-.19-.42-.32-.61Z"/>
        <path class="cls-2" d="M17.58,55.84v2.49c0,.65,.53,1.17,1.17,1.17h26.48c.65,0,1.17-.53,1.17-1.17v-2.49c0-.12-.02-.24-.03-.36-.04-.53-.17-1.05-.38-1.54H17.99c-.21,.49-.34,1.01-.38,1.54,0,.12-.03,.24-.03,.36Z"/>
        <circle class="cls-3" cx="32" cy="28.34" r="10.44"/>
        <rect class="cls-1" x="22.95" y="36.5" width="18.11" height="6.05" rx="2" ry="2"/>
      </g>
    </g>
  </g>
</svg>