<svg xmlns="http://www.w3.org/2000/svg" viewBox="0 0 64 64"><defs><style>.cls-1{opacity:0;}.cls-2{fill:#1a1a1a;}.cls-3{fill:#0049c7;}.cls-4{fill:#1778ff;}</style></defs><title>Planet Neptune Outline</title><g id="Layer_2" data-name="Layer 2"><g id="_101-200" data-name="101-200"><g class="cls-1"><rect class="cls-2" width="64" height="64"/></g><path class="cls-2" d="M32,.53A31.63,31.63,0,0,0,2.53,20.79a31.86,31.86,0,0,0,9.22,35.36,31.71,31.71,0,0,0,36.31,3A31.78,31.78,0,0,0,62.9,26,31.47,31.47,0,0,0,32,.53Z"/><path class="cls-3" d="M32,4.53h-.35A21.63,21.63,0,1,1,4.49,31.69V32A27.5,27.5,0,1,0,32,4.53Z"/><path class="cls-4" d="M25.11,46.78A21.62,21.62,0,0,0,31.64,4.54,27.5,27.5,0,0,0,4.49,31.69,21.63,21.63,0,0,0,25.11,46.78Z"/></g></g></svg>