<svg xmlns="http://www.w3.org/2000/svg" viewBox="0 0 64 64"><defs><style>.cls-1{opacity:0;}.cls-2{fill:#1a1a1a;}.cls-3{fill:#abc0c9;}.cls-4{fill:#d3dee3;}.cls-5{fill:#7b97a6;}</style></defs><title>Planet Mercury Outline</title><g id="Layer_2" data-name="Layer 2"><g id="_101-200" data-name="101-200"><g class="cls-1"><rect class="cls-2" width="64" height="64"/></g><path class="cls-2" d="M32,.53A31.61,31.61,0,0,0,2.53,20.8a31.84,31.84,0,0,0,9.22,35.35,31.71,31.71,0,0,0,36.31,3A31.78,31.78,0,0,0,62.9,26,31.47,31.47,0,0,0,32,.53Z"/><path class="cls-3" d="M32,4.53h-.34a21.64,21.64,0,0,1,15.1,20.62,21.31,21.31,0,0,1-1.38,7.52,6.84,6.84,0,0,1-6.28,9.6c-.25,0-.5,0-.74,0A21.61,21.61,0,0,1,4.49,31.69c0,.11,0,.22,0,.34A27.5,27.5,0,1,0,32,4.53ZM29.52,52.76c-.86,2-3.53,2.79-6,1.74S19.86,51,20.72,49s3.54-2.78,6-1.74S30.39,50.76,29.52,52.76ZM47.2,49.31a3.38,3.38,0,1,1-3.35-5.81,3.38,3.38,0,1,1,3.35,5.81Zm6.89-22c-1.57.64-3.57-.6-4.47-2.78s-.37-4.48,1.19-5.13,3.57.6,4.47,2.78S55.65,26.62,54.09,27.27Z"/><path class="cls-4" d="M25.11,46.78a21.49,21.49,0,0,0,13.23-4.54,6.85,6.85,0,1,1,7-9.56,21.31,21.31,0,0,0,1.38-7.52A21.64,21.64,0,0,0,31.64,4.54,27.5,27.5,0,0,0,4.49,31.69,21.63,21.63,0,0,0,25.11,46.78Zm6-33.55c.31-2.62,3.11-4.45,6.24-4.08s5.43,2.79,5.12,5.42S39.34,19,36.2,18.66,30.77,15.86,31.08,13.23ZM14.5,17.57a3.5,3.5,0,0,1,4.77-1.28,3.5,3.5,0,0,1,.65,4.89,3.5,3.5,0,0,1-4.76,1.27A3.49,3.49,0,0,1,14.5,17.57Zm-1.27,8.25c2.75,0,5,3,5,6.64s-2.23,6.64-5,6.64-5-3-5-6.64S10.48,25.82,13.23,25.82Z"/><path class="cls-5" d="M38.34,42.24c.24,0,.49,0,.74,0a6.84,6.84,0,0,0,6.28-9.6A21.58,21.58,0,0,1,38.34,42.24Z"/><path class="cls-3" d="M39.08,28.57a6.85,6.85,0,0,0-.74,13.67,21.58,21.58,0,0,0,7-9.56A6.84,6.84,0,0,0,39.08,28.57Z"/><path class="cls-5" d="M43.85,43.5a3.38,3.38,0,1,0,3.35,5.81,3.38,3.38,0,1,0-3.35-5.81Z"/><ellipse class="cls-3" cx="13.23" cy="32.46" rx="4.98" ry="6.64"/><path class="cls-3" d="M15.16,22.45a3.5,3.5,0,0,0,4.76-1.27,3.5,3.5,0,0,0-.65-4.89,3.5,3.5,0,0,0-4.77,1.28A3.49,3.49,0,0,0,15.16,22.45Z"/><path class="cls-3" d="M36.2,18.66c3.14.37,5.94-1.46,6.24-4.09s-2-5.05-5.12-5.42-5.93,1.46-6.24,4.08S33.07,18.29,36.2,18.66Z"/><path class="cls-5" d="M26.69,47.23c-2.43-1-5.1-.26-6,1.74s.41,4.49,2.84,5.53,5.1.27,6-1.74S29.12,48.28,26.69,47.23Z"/><path class="cls-5" d="M55.28,22.14c-.9-2.18-2.91-3.43-4.47-2.78s-2.1,2.94-1.19,5.13,2.9,3.42,4.47,2.78S56.19,24.32,55.28,22.14Z"/></g></g></svg>