<svg xmlns="http://www.w3.org/2000/svg" viewBox="0 0 64 64"><defs><style>.cls-1{opacity:0;}.cls-2{fill:#1a1a1a;}.cls-3{fill:#f0be7f;}.cls-4{fill:#ffdfb5;}.cls-5{fill:#fff2d4;}</style></defs><title>Planet Venus Outline</title><g id="Layer_2" data-name="Layer 2"><g id="_101-200" data-name="101-200"><g class="cls-1"><rect class="cls-2" width="64" height="64"/></g><path class="cls-2" d="M61.85,22A31.8,31.8,0,0,0,34,.59,31.81,31.81,0,0,0,3.79,18,31.49,31.49,0,0,0,46,60.24,31.78,31.78,0,0,0,63.1,27.16,31.08,31.08,0,0,0,61.85,22Z"/><path class="cls-3" d="M42.63,12.5q3.88-.32,7.94-.73A27.38,27.38,0,0,0,32,4.53h-.34A21.6,21.6,0,0,1,42.63,12.5Z"/><path class="cls-3" d="M46.66,23.39c.05.58.07,1.17.07,1.76a21.22,21.22,0,0,1-.54,4.75c4.35.06,8.77,0,13.19-.16a27.47,27.47,0,0,0-1.33-6.45C55.2,23.4,51.27,23.48,46.66,23.39Z"/><path class="cls-3" d="M32,59.53a27.43,27.43,0,0,0,20.11-8.75,154.84,154.84,0,0,1-34.32,4.8A27.45,27.45,0,0,0,32,59.53Z"/><path class="cls-3" d="M37.51,42.86a21.57,21.57,0,0,1-22.72,1.29c-2.46,0-5-.08-7.6-.21a27.45,27.45,0,0,0,6.1,8.25,212.7,212.7,0,0,0,43.09-7.48,27.5,27.5,0,0,0,2.33-6.2A129.59,129.59,0,0,1,37.51,42.86Z"/><path class="cls-4" d="M46.73,25.15c0-.59,0-1.18-.07-1.76-10.87-.19-25.48-1.3-38.48-5.11A27.2,27.2,0,0,0,5,26.89a366.84,366.84,0,0,0,41.21,3A21.22,21.22,0,0,0,46.73,25.15Z"/><path class="cls-4" d="M42.63,12.5a21.6,21.6,0,0,0-11-8,27.42,27.42,0,0,0-20,9C18.91,13.64,30,13.5,42.63,12.5Z"/><path class="cls-4" d="M14.79,44.15a21.57,21.57,0,0,0,22.72-1.29A171.8,171.8,0,0,1,14.79,44.15Z"/><path class="cls-4" d="M46.66,23.39c4.61.09,8.54,0,11.39-.1a27.44,27.44,0,0,0-7.48-11.52q-4.05.42-7.94.73A21.53,21.53,0,0,1,46.66,23.39Z"/><path class="cls-5" d="M42.63,12.5c-12.63,1-23.72,1.14-31,1.06a27.49,27.49,0,0,0-3.43,4.72c13,3.81,27.61,4.92,38.48,5.11A21.53,21.53,0,0,0,42.63,12.5Z"/><path class="cls-4" d="M46.19,29.9a21.61,21.61,0,0,1-8.68,13,129.59,129.59,0,0,0,21.2-4.35A27.7,27.7,0,0,0,59.48,32c0-.77,0-1.53-.1-2.29C55,29.91,50.54,30,46.19,29.9Z"/><path class="cls-4" d="M4.49,31.68c0,.12,0,.23,0,.35A27.32,27.32,0,0,0,7.19,43.94c2.61.13,5.14.19,7.6.21A21.7,21.7,0,0,1,4.49,31.68Z"/><path class="cls-5" d="M14.79,44.15a171.8,171.8,0,0,0,22.72-1.29,21.61,21.61,0,0,0,8.68-13A366.84,366.84,0,0,1,5,26.89a27.1,27.1,0,0,0-.49,4.79A21.7,21.7,0,0,0,14.79,44.15Z"/><path class="cls-4" d="M17.77,55.58a154.84,154.84,0,0,0,34.32-4.8,27.63,27.63,0,0,0,4.29-6.07,212.7,212.7,0,0,1-43.09,7.48A28,28,0,0,0,17.77,55.58Z"/></g></g></svg>