<svg xmlns="http://www.w3.org/2000/svg" viewBox="0 0 64 64"><defs><style>.cls-1{opacity:0;}.cls-2{fill:#1a1a1a;}.cls-3{fill:#1778ff;}.cls-4{fill:#37b9ff;}.cls-5{fill:#96dbff;}</style></defs><title>Planet Uranus Outline</title><g id="Layer_2" data-name="Layer 2"><g id="_101-200" data-name="101-200"><g class="cls-1"><rect class="cls-2" width="64" height="64"/></g><path class="cls-2" d="M61.85,22A31.78,31.78,0,0,0,34,.59,31.81,31.81,0,0,0,3.87,17.83,31.49,31.49,0,0,0,46.11,60.17a31.79,31.79,0,0,0,17-33A32.25,32.25,0,0,0,61.85,22Z"/><path class="cls-3" d="M42.63,12.5q3.88-.32,7.94-.73A27.38,27.38,0,0,0,32,4.53h-.34A21.6,21.6,0,0,1,42.63,12.5Z"/><path class="cls-3" d="M46.66,23.39c.05.58.07,1.17.07,1.76a21.81,21.81,0,0,1-.54,4.75c4.34.06,8.77,0,13.19-.16a27.47,27.47,0,0,0-1.33-6.45C55.19,23.4,51.27,23.48,46.66,23.39Z"/><path class="cls-3" d="M32,59.53a27.43,27.43,0,0,0,20.11-8.75,154.84,154.84,0,0,1-34.32,4.8A27.45,27.45,0,0,0,32,59.53Z"/><path class="cls-3" d="M37.5,42.86a21.55,21.55,0,0,1-22.71,1.29c-2.46,0-5-.08-7.6-.21a27.45,27.45,0,0,0,6.1,8.25,213.11,213.11,0,0,0,43.09-7.47,27.25,27.25,0,0,0,2.32-6.21A129.1,129.1,0,0,1,37.5,42.86Z"/><path class="cls-4" d="M46.73,25.15c0-.59,0-1.18-.07-1.76-10.87-.19-25.48-1.3-38.49-5.11A27.54,27.54,0,0,0,5,26.89a366.86,366.86,0,0,0,41.22,3A21.81,21.81,0,0,0,46.73,25.15Z"/><path class="cls-4" d="M42.63,12.5a21.6,21.6,0,0,0-11-8,27.42,27.42,0,0,0-20,9C18.91,13.64,30,13.5,42.63,12.5Z"/><path class="cls-4" d="M14.79,44.15A21.55,21.55,0,0,0,37.5,42.86,171.54,171.54,0,0,1,14.79,44.15Z"/><path class="cls-4" d="M46.66,23.39c4.61.09,8.53,0,11.39-.1a27.44,27.44,0,0,0-7.48-11.52q-4.05.42-7.94.73A21.53,21.53,0,0,1,46.66,23.39Z"/><path class="cls-5" d="M42.63,12.5c-12.63,1-23.72,1.14-31,1.07a27.09,27.09,0,0,0-3.44,4.71c13,3.81,27.62,4.92,38.49,5.11A21.53,21.53,0,0,0,42.63,12.5Z"/><path class="cls-4" d="M46.19,29.9a21.55,21.55,0,0,1-8.69,13,129.1,129.1,0,0,0,21.2-4.35A27.18,27.18,0,0,0,59.48,32c0-.77,0-1.53-.1-2.29C55,29.91,50.53,30,46.19,29.9Z"/><path class="cls-4" d="M4.49,31.69c0,.11,0,.22,0,.34A27.32,27.32,0,0,0,7.19,43.94c2.61.13,5.14.19,7.6.21A21.71,21.71,0,0,1,4.49,31.69Z"/><path class="cls-5" d="M14.79,44.15A171.54,171.54,0,0,0,37.5,42.86a21.55,21.55,0,0,0,8.69-13A366.86,366.86,0,0,1,5,26.89a28.09,28.09,0,0,0-.48,4.8A21.71,21.71,0,0,0,14.79,44.15Z"/><path class="cls-4" d="M17.77,55.58a154.84,154.84,0,0,0,34.32-4.8,27.81,27.81,0,0,0,4.29-6.06,213.11,213.11,0,0,1-43.09,7.47A28,28,0,0,0,17.77,55.58Z"/></g></g></svg>