<svg xmlns="http://www.w3.org/2000/svg" viewBox="0 0 64 64"><defs><style>.cls-1{opacity:0;}.cls-2{fill:#fff;}.cls-3{fill:#abc0c9;}.cls-4{fill:#d3dee3;}.cls-5{fill:#7b97a6;}</style></defs><title>Planet Mercury</title><g id="Layer_2" data-name="Layer 2"><g id="_101-200" data-name="101-200"><g class="cls-1"><rect class="cls-2" width="64" height="64"/></g><path class="cls-3" d="M32,4.5h-.34A21.57,21.57,0,0,1,45.38,32.65,7,7,0,0,1,46,35.39a6.86,6.86,0,0,1-6.86,6.86c-.25,0-.49,0-.73,0A21.61,21.61,0,0,1,4.51,31.66c0,.11,0,.22,0,.34A27.5,27.5,0,1,0,32,4.5ZM29.54,52.73c-.87,2-3.54,2.79-6,1.74S19.87,51,20.74,49s3.53-2.79,6-1.75S30.4,50.73,29.54,52.73Zm17.67-3.45a3.38,3.38,0,1,1-3.35-5.81,3.38,3.38,0,1,1,3.35,5.81Zm6.89-22c-1.56.65-3.56-.6-4.47-2.78s-.37-4.48,1.2-5.13,3.56.6,4.47,2.78S55.67,26.59,54.1,27.24Z"/><path class="cls-4" d="M25.13,46.75a21.52,21.52,0,0,0,13.23-4.54,6.85,6.85,0,1,1,7-9.56A21.57,21.57,0,0,0,31.66,4.51,27.48,27.48,0,0,0,4.51,31.66,21.63,21.63,0,0,0,25.13,46.75Zm6-33.54c.31-2.63,3.1-4.46,6.24-4.09s5.43,2.8,5.12,5.42-3.1,4.46-6.24,4.09S30.79,15.83,31.1,13.21ZM14.52,17.54a3.5,3.5,0,0,1,4.76-1.28,3.51,3.51,0,0,1,.66,4.89,3.52,3.52,0,0,1-4.77,1.28A3.51,3.51,0,0,1,14.52,17.54Zm-1.27,8.25c2.75,0,5,3,5,6.64s-2.23,6.64-5,6.64-5-3-5-6.64S10.49,25.79,13.25,25.79Z"/><path class="cls-5" d="M38.36,42.21c.24,0,.48,0,.73,0A6.86,6.86,0,0,0,46,35.39a7,7,0,0,0-.57-2.74A21.73,21.73,0,0,1,38.36,42.21Z"/><path class="cls-3" d="M39.09,28.54a6.85,6.85,0,0,0-.73,13.67,21.73,21.73,0,0,0,7-9.56A6.86,6.86,0,0,0,39.09,28.54Z"/><path class="cls-5" d="M43.86,43.47a3.38,3.38,0,1,0,3.35,5.81,3.38,3.38,0,1,0-3.35-5.81Z"/><ellipse class="cls-3" cx="13.25" cy="32.43" rx="4.98" ry="6.64"/><path class="cls-3" d="M15.17,22.43a3.52,3.52,0,0,0,4.77-1.28,3.51,3.51,0,0,0-.66-4.89,3.5,3.5,0,0,0-4.76,1.28A3.51,3.51,0,0,0,15.17,22.43Z"/><path class="cls-3" d="M36.22,18.63c3.14.37,5.93-1.46,6.24-4.09s-2-5-5.12-5.42-5.93,1.46-6.24,4.09S33.08,18.26,36.22,18.63Z"/><path class="cls-5" d="M26.7,47.2c-2.43-1-5.1-.26-6,1.75s.4,4.48,2.83,5.52,5.1.27,6-1.74S29.13,48.25,26.7,47.2Z"/><path class="cls-5" d="M55.3,22.11c-.91-2.18-2.91-3.43-4.47-2.78s-2.1,2.94-1.2,5.13,2.91,3.43,4.47,2.78S56.2,24.29,55.3,22.11Z"/></g></g></svg>