<svg xmlns="http://www.w3.org/2000/svg" viewBox="0 0 64 64"><defs><style>.cls-1{opacity:0;}.cls-2{fill:#fff;}.cls-3{fill:#e62e49;}.cls-4{fill:#ebb369;}.cls-5{fill:#a72d3e;}.cls-6{fill:#ffdfb5;}.cls-7{fill:#ff7a6e;}.cls-8{fill:#e6875c;}.cls-9{fill:#f5b47f;}</style></defs><title>Planet Jupiter</title><g id="Layer_2" data-name="Layer 2"><g id="_101-200" data-name="101-200"><g class="cls-1"><rect class="cls-2" width="64" height="64"/></g><path class="cls-3" d="M42.65,12.47q3.89-.32,7.94-.73A27.38,27.38,0,0,0,32,4.5h-.34A21.66,21.66,0,0,1,42.65,12.47Z"/><path class="cls-4" d="M46.68,23.37c0,.58.07,1.16.07,1.76a21.19,21.19,0,0,1-.54,4.74c4.35.06,8.77,0,13.19-.16a27.47,27.47,0,0,0-1.33-6.45C55.22,23.37,51.29,23.45,46.68,23.37Z"/><path class="cls-5" d="M32,59.5a27.43,27.43,0,0,0,20.11-8.75,154.84,154.84,0,0,1-34.32,4.8A27.36,27.36,0,0,0,32,59.5Z"/><path class="cls-4" d="M37.53,42.83a21.57,21.57,0,0,1-22.72,1.29q-3.69,0-7.6-.21a27.32,27.32,0,0,0,6.1,8.25A213.11,213.11,0,0,0,56.4,44.69a27.76,27.76,0,0,0,2.33-6.21A129.59,129.59,0,0,1,37.53,42.83Z"/><path class="cls-6" d="M46.75,25.13c0-.6,0-1.18-.07-1.76-10.87-.2-25.48-1.31-38.48-5.12A27.31,27.31,0,0,0,5,26.86a367.25,367.25,0,0,0,41.22,3A21.19,21.19,0,0,0,46.75,25.13Z"/><path class="cls-7" d="M42.65,12.47a21.66,21.66,0,0,0-11-8,27.43,27.43,0,0,0-20,9C18.93,13.61,30,13.47,42.65,12.47Z"/><path class="cls-6" d="M14.81,44.12a21.57,21.57,0,0,0,22.72-1.29A171.8,171.8,0,0,1,14.81,44.12Z"/><path class="cls-8" d="M46.68,23.37c4.61.08,8.54,0,11.39-.11a27.44,27.44,0,0,0-7.48-11.52q-4.05.42-7.94.73A21.53,21.53,0,0,1,46.68,23.37Z"/><path class="cls-9" d="M42.65,12.47c-12.63,1-23.72,1.14-31,1.07A26.89,26.89,0,0,0,8.2,18.25c13,3.81,27.61,4.92,38.48,5.12A21.53,21.53,0,0,0,42.65,12.47Z"/><path class="cls-3" d="M46.21,29.87a21.58,21.58,0,0,1-8.68,13,129.59,129.59,0,0,0,21.2-4.35A27.7,27.7,0,0,0,59.5,32c0-.77,0-1.53-.1-2.29C55,29.89,50.56,29.93,46.21,29.87Z"/><path class="cls-3" d="M4.51,31.66c0,.11,0,.22,0,.34A27.29,27.29,0,0,0,7.21,43.91q3.92.2,7.6.21A21.68,21.68,0,0,1,4.51,31.66Z"/><path class="cls-7" d="M14.81,44.12a171.8,171.8,0,0,0,22.72-1.29,21.58,21.58,0,0,0,8.68-13A367.25,367.25,0,0,1,5,26.86a28.09,28.09,0,0,0-.48,4.8A21.68,21.68,0,0,0,14.81,44.12Z"/><path class="cls-3" d="M17.79,55.55a154.84,154.84,0,0,0,34.32-4.8,27.81,27.81,0,0,0,4.29-6.06,213.11,213.11,0,0,1-43.09,7.47A27.47,27.47,0,0,0,17.79,55.55Z"/><path class="cls-3" d="M30.66,50.25a10.39,10.39,0,0,0,7.23-3.5C41,43,44,42.22,48.1,44.12c4.8,2.22,7.46.8,7.46.8L46.21,51.1Z"/><ellipse class="cls-5" cx="43.98" cy="48.11" rx="3.59" ry="2.56" transform="translate(-10.75 12.7) rotate(-14.67)"/></g></g></svg>