<svg xmlns="http://www.w3.org/2000/svg" viewBox="0 0 64 64"><defs><style>.cls-1,.cls-2{fill:#fff;}.cls-1{opacity:0;}</style></defs><title>Planet White</title><g id="Layer_2" data-name="Layer 2"><g id="Finals"><rect class="cls-1" width="64" height="64"/><path class="cls-2" d="M58.5,5.5C56,3,49.07,5.38,40.68,11.14c.25.11.49.24.74.36A22.42,22.42,0,0,0,11.5,41.42c-.12-.24-.26-.49-.36-.74C5.38,49.07,3,56,5.5,58.5s9.6.06,18.12-5.84a22.44,22.44,0,0,0,29-29C58.56,15.1,61.06,8.07,58.5,5.5ZM11.09,51.25c-1-1-.25-3.66,1.85-7.22l-.11-.19a22.3,22.3,0,0,0,3,3.77,24,24,0,0,0,2.24,1.93C14.64,51.53,12.09,52.25,11.09,51.25ZM49.54,18.09a22.72,22.72,0,0,0-1.94-2.24,21.84,21.84,0,0,0-3.76-3l.19.11c3.56-2.1,6.2-2.87,7.22-1.85S51.53,14.64,49.54,18.09Z"/></g></g></svg>