<svg xmlns="http://www.w3.org/2000/svg" viewBox="0 0 64 64"><defs><style>.cls-1{opacity:0;}.cls-2{fill:#fff;}.cls-3{fill:#d1413f;}.cls-4{fill:#e6755c;}.cls-5{fill:#b5071b;}</style></defs><title>Planet Mars</title><g id="Layer_2" data-name="Layer 2"><g id="_101-200" data-name="101-200"><g class="cls-1"><rect class="cls-2" width="64" height="64"/></g><path class="cls-3" d="M32,4.5h-.34a21.68,21.68,0,0,1,7.12,3.86,5.24,5.24,0,0,1,3.12.33c2.18.91,3.42,2.91,2.77,4.47a2.33,2.33,0,0,1-.89,1.05,21.32,21.32,0,0,1,2.87,8.9,4.32,4.32,0,0,1,2.81-1.58c2.63-.31,5.06,2,5.43,5.12s-1.46,5.93-4.09,6.24a4.83,4.83,0,0,1-4.67-2.72A21.62,21.62,0,0,1,31.58,45.77c3.66,0,6.63,2.23,6.63,5s-3,5-6.64,5-6.64-2.23-6.64-5a4.89,4.89,0,0,1,3.13-4.22,21.72,21.72,0,0,1-2.93.22,21.5,21.5,0,0,1-11.38-3.24,4.79,4.79,0,0,1-4.22-3.08c-.08-.18-.12-.36-.18-.54a21.45,21.45,0,0,1-4.84-8.23c0,.11,0,.22,0,.34A27.5,27.5,0,1,0,32,4.5Zm14.47,45a3.29,3.29,0,1,1-3.62-5.42,3.29,3.29,0,1,1,3.62,5.42Z"/><path class="cls-4" d="M11.27,34.46c2-.86,4.48.41,5.53,2.84s.27,5.1-1.74,6a3.28,3.28,0,0,1-1.31.25,21.5,21.5,0,0,0,11.38,3.24,21.72,21.72,0,0,0,2.93-.22,8.26,8.26,0,0,1,3.51-.76h0A21.62,21.62,0,0,0,46.13,30.18a6.9,6.9,0,0,1-.76-2.4,6.2,6.2,0,0,1,1.28-4.66,21.32,21.32,0,0,0-2.87-8.9,4.59,4.59,0,0,1-4.23.15c-2.19-.91-3.43-2.91-2.78-4.47a2.69,2.69,0,0,1,2-1.53,21.68,21.68,0,0,0-7.12-3.86A27.48,27.48,0,0,0,4.51,31.66a21.45,21.45,0,0,0,4.84,8.23C8.62,37.62,9.41,35.26,11.27,34.46ZM28.61,18.05a6.86,6.86,0,1,1-6.85,6.86A6.86,6.86,0,0,1,28.61,18.05ZM14.73,16.79a3.62,3.62,0,0,1,4.82-1.65,3.62,3.62,0,0,1,1,5,3.61,3.61,0,0,1-4.82,1.64A3.61,3.61,0,0,1,14.73,16.79Z"/><path class="cls-3" d="M28.61,31.76a6.86,6.86,0,1,0-6.85-6.85A6.86,6.86,0,0,0,28.61,31.76Z"/><path class="cls-3" d="M15.71,21.78a3.61,3.61,0,0,0,4.82-1.64,3.62,3.62,0,0,0-1-5,3.62,3.62,0,0,0-4.82,1.65A3.61,3.61,0,0,0,15.71,21.78Z"/><path class="cls-5" d="M24.93,50.75c0,2.76,3,5,6.64,5s6.64-2.23,6.64-5-3-5-6.63-5a20.39,20.39,0,0,1-3.52.76A4.89,4.89,0,0,0,24.93,50.75Z"/><path class="cls-3" d="M28.06,46.53a20.39,20.39,0,0,0,3.52-.76h0A8.26,8.26,0,0,0,28.06,46.53Z"/><path class="cls-5" d="M42.85,44.06a3.29,3.29,0,1,0,3.62,5.42,3.29,3.29,0,1,0-3.62-5.42Z"/><path class="cls-5" d="M46.13,30.18A4.83,4.83,0,0,0,50.8,32.9c2.63-.31,4.46-3.1,4.09-6.24s-2.8-5.43-5.43-5.12a4.32,4.32,0,0,0-2.81,1.58c.06.66.1,1.33.1,2A21.62,21.62,0,0,1,46.13,30.18Z"/><path class="cls-3" d="M45.37,27.78a6.9,6.9,0,0,0,.76,2.4,21.62,21.62,0,0,0,.62-5.05c0-.68,0-1.35-.1-2A6.2,6.2,0,0,0,45.37,27.78Z"/><path class="cls-5" d="M9.35,39.89c.06.18.1.36.18.54a4.79,4.79,0,0,0,4.22,3.08A21.55,21.55,0,0,1,9.35,39.89Z"/><path class="cls-3" d="M16.8,37.3c-1.05-2.43-3.52-3.7-5.53-2.84-1.86.8-2.65,3.16-1.92,5.43a21.55,21.55,0,0,0,4.4,3.62,3.28,3.28,0,0,0,1.31-.25C17.07,42.4,17.85,39.73,16.8,37.3Z"/><path class="cls-5" d="M43.78,14.22a2.33,2.33,0,0,0,.89-1.05c.65-1.56-.59-3.56-2.77-4.47a5.24,5.24,0,0,0-3.12-.33A21.61,21.61,0,0,1,43.78,14.22Z"/><path class="cls-3" d="M36.77,9.9c-.65,1.56.59,3.56,2.78,4.47a4.59,4.59,0,0,0,4.23-.15,21.61,21.61,0,0,0-5-5.85A2.69,2.69,0,0,0,36.77,9.9Z"/></g></g></svg>