<svg xmlns="http://www.w3.org/2000/svg" viewBox="0 0 64 64"><defs><style>.cls-1{opacity:0;}.cls-2{fill:#1a1a1a;}.cls-3{fill:#d1413f;}.cls-4{fill:#e6755c;}.cls-5{fill:#b5071b;}</style></defs><title>Planet Mars Outline</title><g id="Layer_2" data-name="Layer 2"><g id="_101-200" data-name="101-200"><g class="cls-1"><rect class="cls-2" width="64" height="64"/></g><path class="cls-2" d="M32,.53A31.62,31.62,0,0,0,2.53,20.79a31.86,31.86,0,0,0,9.22,35.36,31.71,31.71,0,0,0,36.31,3A31.78,31.78,0,0,0,62.9,26,31.47,31.47,0,0,0,32,.53Z"/><path class="cls-3" d="M32,4.53h-.35A21.48,21.48,0,0,1,38.76,8.4a5.23,5.23,0,0,1,3.12.33c2.18.91,3.43,2.91,2.78,4.47a2.39,2.39,0,0,1-.89,1.05,21.47,21.47,0,0,1,2.87,8.9,4.28,4.28,0,0,1,2.81-1.58c2.62-.31,5,2,5.42,5.12s-1.46,5.93-4.09,6.24a4.81,4.81,0,0,1-4.66-2.72A21.65,21.65,0,0,1,31.56,45.8c3.67,0,6.64,2.23,6.64,5s-3,5-6.64,5-6.64-2.23-6.64-5a4.87,4.87,0,0,1,3.13-4.22,21.87,21.87,0,0,1-2.94.22,21.49,21.49,0,0,1-11.37-3.24,4.78,4.78,0,0,1-4.22-3.08,3.8,3.8,0,0,1-.18-.54,21.59,21.59,0,0,1-4.85-8.23V32A27.5,27.5,0,1,0,32,4.53Zm14.46,45a3.28,3.28,0,1,1-3.61-5.42,3.28,3.28,0,1,1,3.61,5.42Z"/><path class="cls-4" d="M11.26,34.49c2-.86,4.48.41,5.53,2.84s.26,5.1-1.75,6a3.27,3.27,0,0,1-1.3.25,21.49,21.49,0,0,0,11.37,3.24,21.87,21.87,0,0,0,2.94-.22,8.26,8.26,0,0,1,3.51-.76h0A21.65,21.65,0,0,0,46.12,30.21a6.5,6.5,0,0,1-.76-2.4,6.16,6.16,0,0,1,1.28-4.66,21.47,21.47,0,0,0-2.87-8.9,4.64,4.64,0,0,1-4.24.15c-2.18-.91-3.43-2.91-2.78-4.47a2.73,2.73,0,0,1,2-1.53,21.48,21.48,0,0,0-7.12-3.86A27.5,27.5,0,0,0,4.49,31.69a21.59,21.59,0,0,0,4.85,8.23C8.61,37.65,9.39,35.29,11.26,34.49ZM28.6,18.08a6.86,6.86,0,1,1-6.86,6.85A6.85,6.85,0,0,1,28.6,18.08ZM14.71,16.81a3.63,3.63,0,0,1,4.82-1.64,3.62,3.62,0,0,1,1,5,3.62,3.62,0,0,1-4.82,1.64A3.62,3.62,0,0,1,14.71,16.81Z"/><path class="cls-3" d="M28.6,31.79a6.86,6.86,0,1,0-6.86-6.86A6.86,6.86,0,0,0,28.6,31.79Z"/><path class="cls-3" d="M15.7,21.81a3.62,3.62,0,0,0,4.82-1.64,3.62,3.62,0,0,0-1-5,3.63,3.63,0,0,0-4.82,1.64A3.62,3.62,0,0,0,15.7,21.81Z"/><path class="cls-5" d="M24.92,50.78c0,2.76,3,5,6.64,5s6.64-2.23,6.64-5-3-5-6.64-5a22.58,22.58,0,0,1-3.51.76A4.87,4.87,0,0,0,24.92,50.78Z"/><path class="cls-3" d="M28.05,46.56a22.58,22.58,0,0,0,3.51-.76h0A8.26,8.26,0,0,0,28.05,46.56Z"/><path class="cls-5" d="M42.84,44.09a3.28,3.28,0,1,0,3.61,5.42,3.28,3.28,0,1,0-3.61-5.42Z"/><path class="cls-5" d="M46.12,30.21a4.81,4.81,0,0,0,4.66,2.72c2.63-.31,4.46-3.1,4.09-6.24s-2.8-5.43-5.42-5.12a4.28,4.28,0,0,0-2.81,1.58c.06.66.1,1.33.1,2A21.62,21.62,0,0,1,46.12,30.21Z"/><path class="cls-3" d="M45.36,27.81a6.5,6.5,0,0,0,.76,2.4,21.62,21.62,0,0,0,.62-5.05c0-.68,0-1.35-.1-2A6.16,6.16,0,0,0,45.36,27.81Z"/><path class="cls-5" d="M9.34,39.92a3.8,3.8,0,0,0,.18.54,4.78,4.78,0,0,0,4.22,3.08A21.6,21.6,0,0,1,9.34,39.92Z"/><path class="cls-3" d="M16.79,37.33c-1-2.43-3.53-3.7-5.53-2.84s-2.65,3.16-1.92,5.43a21.6,21.6,0,0,0,4.4,3.62,3.27,3.27,0,0,0,1.3-.25C17.05,42.43,17.83,39.76,16.79,37.33Z"/><path class="cls-5" d="M43.77,14.25a2.39,2.39,0,0,0,.89-1.05c.65-1.56-.6-3.56-2.78-4.47a5.23,5.23,0,0,0-3.12-.33A21.65,21.65,0,0,1,43.77,14.25Z"/><path class="cls-3" d="M36.75,9.93c-.65,1.56.6,3.56,2.78,4.47a4.64,4.64,0,0,0,4.24-.15,21.65,21.65,0,0,0-5-5.85A2.73,2.73,0,0,0,36.75,9.93Z"/></g></g></svg>