<svg xmlns="http://www.w3.org/2000/svg" viewBox="0 0 64 64"><defs><style>.cls-1,.cls-2{fill:#1a1a1a;}.cls-1{opacity:0;}.cls-3{fill:#fdbc0d;}.cls-4{fill:#fee854;}.cls-5{fill:#fc9504;}.cls-6{fill:#de6529;}</style></defs><title>Planet Outline</title><g id="Layer_2" data-name="Layer 2"><g id="Finals"><rect class="cls-1" width="64" height="64"/><path class="cls-2" d="M61.32,2.68A7.79,7.79,0,0,0,55.57.5C50.84.5,44.85,3.63,40.16,6.68a26.8,26.8,0,0,0-8.47-1.39,26.41,26.41,0,0,0-25,34.87c-6.58,10.12-7.93,17.23-4,21.16A7.78,7.78,0,0,0,8.42,63.5c4.84,0,11-3.27,15.79-6.42a26.24,26.24,0,0,0,7.54,1.09h0a26.43,26.43,0,0,0,25.33-34C63.88,13.9,65.3,6.66,61.32,2.68Z"/><circle class="cls-3" cx="31.73" cy="31.73" r="22.45"/><path class="cls-4" d="M9.43,29.15a10.43,10.43,0,0,0,2.79,5.25c4.88,4.88,13.8,3.87,19.92-2.25s7.14-15,2.26-19.92a10.44,10.44,0,0,0-5.25-2.8A22.42,22.42,0,0,0,9.43,29.15Z"/><path class="cls-5" d="M47.6,47.61a22.46,22.46,0,0,0,3.74-26.79L20.82,51.34A22.44,22.44,0,0,0,47.6,47.61Z"/><path class="cls-6" d="M40.68,11.14A22.14,22.14,0,0,1,44,12.94c3.56-2.1,6.2-2.87,7.22-1.85,2.35,2.35-4.74,13.25-15.83,24.33s-22,18.18-24.33,15.83c-1-1-.25-3.66,1.85-7.22a22.14,22.14,0,0,1-1.8-3.35C5.38,49.07,3,56,5.5,58.5c4.06,4,19.2-4.53,33.84-19.16S62.55,9.56,58.5,5.5C56,3,49.07,5.38,40.68,11.14Z"/></g></g></svg>