<svg xmlns="http://www.w3.org/2000/svg" viewBox="0 0 64 64"><defs><style>.cls-1,.cls-2{fill:#fff;}.cls-1{opacity:0;}</style></defs><title>Hammer White</title><g id="Layer_2" data-name="Layer 2"><g id="Layer_2-2" data-name="Layer 2"><rect class="cls-1" width="64" height="64"/><path class="cls-2" d="M54.23,15.13h0c-7.14-2.81-5.73-2.23-7-2.73a1.84,1.84,0,0,0-1.93.42,4.62,4.62,0,0,0-.59.72C43.28,15.36,41,15.34,40,13.4a27.73,27.73,0,0,1-1.43-3.51,2.25,2.25,0,0,0-1.41-1.44Q34.1,7.3,31.05,6.09c-4.06-1.6-8-.83-11.76,1.62a30.66,30.66,0,0,0-7.62,7.46,1.09,1.09,0,0,0-.15,1.37c.33.5.8.44,1.3.2,1.32-.62,2.64-1.27,4-1.83a14.16,14.16,0,0,1,5.5-1.21,4.21,4.21,0,0,1,3.84,1.85,13.82,13.82,0,0,1-1,7.24,1,1,0,0,0,.15,1L13.8,50.14a6.13,6.13,0,0,0,3.39,8.18h0a6.14,6.14,0,0,0,8-3.72l9.23-26.84a1,1,0,0,0,1-.54,23.62,23.62,0,0,1,2.29-3.72,1.64,1.64,0,0,1,1.5.32A2,2,0,0,1,39.84,26a1.9,1.9,0,0,0,1.26,2.49c1.09.44-.06,0,6.87,2.69h0c.6.23,2.49-3.17,4.21-7.59S54.82,15.37,54.23,15.13Z"/></g></g></svg>