<svg xmlns="http://www.w3.org/2000/svg" viewBox="0 0 64 64"><defs><style>.cls-1{fill:#fff;opacity:0;}.cls-2{fill:#bb5938;}.cls-3{fill:#9c3d29;}.cls-4{fill:#7b97a6;}.cls-5{fill:#abc0c9;}.cls-6{fill:#d3dee3;}</style></defs><title>Hammer</title><g id="Layer_2" data-name="Layer 2"><g id="Layer_2-2" data-name="Layer 2"><rect class="cls-1" width="64" height="64"/><path class="cls-2" d="M17.19,58.64h0a6.14,6.14,0,0,1-3.39-8.18L26,22.53l9.12,3.56L25.23,54.92A6.14,6.14,0,0,1,17.19,58.64Z"/><path class="cls-3" d="M26,22.53l2.91,1.14L16.23,52.79a6.53,6.53,0,0,0,.07,5.41,6.12,6.12,0,0,1-2.5-7.74Z"/><polygon class="cls-4" points="18.63 19.81 11.76 17.13 19.02 10.59 22.53 13.21 18.63 19.81"/><path class="cls-4" d="M38.38,24.62c.64-.48,1.25-.63,1.77-.15a2.06,2.06,0,0,1,.29,2.06c-.3,1.28-.06,2,.82,2.32l1,.38,6.25-16c.94.34-.08,0-1.09-.41a1.47,1.47,0,0,0-1.59.55,5.17,5.17,0,0,0-.53.74c-1.26,1.87-3.06,2-3.74.22a25.28,25.28,0,0,1-.89-3.3,1.61,1.61,0,0,0-1-1.29q-2.38-.88-4.75-1.82c-3.14-1.24-6.35-.2-9.59,2.46a35.52,35.52,0,0,0-6.7,7.82,1.29,1.29,0,0,0-.23,1.34.54.54,0,0,0,.29.29.89.89,0,0,0,.74-.19c1.12-.71,2.23-1.44,3.36-2.08A11.07,11.07,0,0,1,27.25,16a2.68,2.68,0,0,1,3.17,2.1,11.3,11.3,0,0,1,.4,2.66,14.89,14.89,0,0,1-1.09,5.46l.44.18a41.86,41.86,0,0,0,5.53,1.72A9.34,9.34,0,0,1,38.38,24.62Z"/><path class="cls-5" d="M33.05,22.54c.67-.47,1.32-.6,1.88-.1a2,2,0,0,1,.37,2.09c-.29,1.29,0,2,1,2.37l8,3.14,6.25-16c-6-2.35-7.09-2.76-8.19-3.18a1.57,1.57,0,0,0-1.68.52,5.16,5.16,0,0,0-.55.73c-1.3,1.86-3.22,2-4,.12a25.11,25.11,0,0,1-1-3.35A1.83,1.83,0,0,0,34,7.51q-2.58-1-5.14-2C25.42,4.2,22,5.16,18.62,7.76a33.86,33.86,0,0,0-7,7.73,1.23,1.23,0,0,0-.21,1.35c.26.46.67.38,1.11.12,1.18-.68,2.34-1.39,3.53-2a12,12,0,0,1,4.8-1.48,3.06,3.06,0,0,1,3.46,2.21,10.67,10.67,0,0,1,.49,2.7,13.06,13.06,0,0,1-.83,5,41.64,41.64,0,0,0,6.07,3A9.06,9.06,0,0,1,33.05,22.54Z"/><ellipse class="cls-6" cx="47.42" cy="22.03" rx="8.6" ry="4.49" transform="translate(9.66 58.2) rotate(-68.69)"/></g></g></svg>