<?xml version="1.0" encoding="UTF-8"?>
<svg id="Layer_2" data-name="Layer 2" xmlns="http://www.w3.org/2000/svg" viewBox="0 0 64 64">
  <defs>
    <style>
      .cls-1 {
        fill: #fff;
      }

      .cls-2 {
        fill: #a72d3e;
      }

      .cls-3 {
        fill: #e6f7ff;
      }

      .cls-4 {
        opacity: 0;
      }

      .cls-4, .cls-5 {
        fill: #1a1a1a;
      }

      .cls-6 {
        fill: #e62e49;
      }

      .cls-7 {
        fill: #c62d43;
      }
    </style>
  </defs>
  <g id="Rough">
    <g>
      <rect class="cls-4" width="64" height="64"/>
      <g>
        <path class="cls-5" d="M50.48,11.87c-.99-6.59-5.64-11.37-11.06-11.37-.44,0-.89,.03-1.32,.1-2.35,.35-4.48,1.66-6.05,3.69-.08,.09-.15,.19-.22,.28-1.25,1.75-2.72,2.89-4.04,3.62-1.05-.47-2.19-.72-3.37-.72-.41,0-.83,.03-1.23,.09-1.98,.3-3.76,1.3-5.04,2.78-1.21,.42-2.27,1.2-3.05,2.26-1.02,1.38-1.44,3.08-1.19,4.79,.3,1.97,1.44,3.6,3.03,4.56v.09c-2.75,2.95-4.05,7.02-3.43,11.12l3.7,24.56c.33,2.16,2,5.79,9.52,5.79,1.47,0,3.09-.13,4.83-.4,11.52-1.73,12.54-6.62,12.13-9.38l-3.7-24.56c-.15-1-.41-1.97-.77-2.89,.48,.08,.97,.12,1.45,.12h0c.44,0,.88-.03,1.31-.1,2.99-.45,5.59-2.42,7.15-5.4,1.36-2.61,1.85-5.81,1.36-9.02Z"/>
        <path class="cls-3" d="M25.33,21.87h0c-5.13,.77-8.66,5.55-7.89,10.68l3.7,24.56c.36,2.38,4.67,2.81,9.8,2.04s9.12-2.45,8.77-4.83l-3.7-24.56c-.77-5.13-5.55-8.66-10.68-7.89Z"/>
        <path class="cls-1" d="M25.04,52.59c6.21-.93,10.06-9.56,8.6-19.26-.68-4.5-2.38-8.44-4.62-11.28-1.17-.29-2.41-.37-3.68-.18h0c-5.13,.77-8.66,5.55-7.89,10.68l2.85,18.93c1.39,.95,2.97,1.37,4.74,1.1Z"/>
        <path class="cls-7" d="M20.26,13.85h4.1v4.88h-4.1c-1.35,0-2.44-1.09-2.44-2.44h0c0-1.35,1.09-2.44,2.44-2.44Z" transform="translate(-2.19 3.32) rotate(-8.56)"/>
        <path class="cls-6" d="M23.78,11.52h0c-2.36,.36-3.99,2.56-3.63,4.92l1.27,8.46c.18,1.17,2.19,1.55,4.55,1.2s4.18-1.32,4-2.48l-1.27-8.46c-.36-2.36-2.56-3.99-4.92-3.63Z"/>
        <path class="cls-7" d="M25.07,13.36c-1.26,.19-2.13,1.37-1.94,2.63s1.37,2.13,2.63,1.94c0,0,5.89-1.05,11.48,3.23l-1.07-7.14-1.07-7.14c-4.08,5.74-10.02,6.47-10.02,6.47Z"/>
        <ellipse class="cls-6" cx="40.03" cy="13.44" rx="6.56" ry="8.99" transform="translate(-1.56 6.11) rotate(-8.56)"/>
        <ellipse class="cls-2" cx="40.43" cy="13.38" rx="3.92" ry="5.93" transform="translate(-1.54 6.17) rotate(-8.56)"/>
      </g>
    </g>
  </g>
</svg>