<?xml version="1.0" encoding="UTF-8"?>
<svg id="Layer_2" data-name="Layer 2" xmlns="http://www.w3.org/2000/svg" viewBox="0 0 64 64">
  <defs>
    <style>
      .cls-1 {
        opacity: 0;
      }

      .cls-1, .cls-2 {
        fill: #1a1a1a;
      }
    </style>
  </defs>
  <g id="Rough">
    <g>
      <rect class="cls-1" width="64" height="64"/>
      <path class="cls-2" d="M46.52,12.47c-.74-4.91-4.24-8.45-7.83-7.91-1.45,.22-2.69,1.08-3.6,2.35h0c-2.44,3.42-5.55,5.06-7.65,5.82-.94-.92-2.27-1.41-3.66-1.2-1.47,.22-2.64,1.15-3.25,2.39l-.63,.09c-1.33,.2-2.25,1.44-2.05,2.78,.19,1.29,1.37,2.18,2.66,2.06l.71,4.72c-2.74,1.99-4.31,5.4-3.77,8.99l3.7,24.56c.36,2.38,4.67,2.81,9.8,2.04,5.13-.77,9.12-2.45,8.77-4.83l-3.7-24.56c-.54-3.58-3.04-6.38-6.25-7.48l-.66-4.36c2.2,.24,5.2,1.01,8.12,3.25h0c1.25,.93,2.68,1.39,4.13,1.17,3.58-.54,5.89-4.96,5.15-9.87Zm-5.29,6.21c-1.93,.29-3.85-1.84-4.29-4.77s.77-5.53,2.7-5.82c1.93-.29,3.85,1.84,4.29,4.77s-.77,5.53-2.7,5.82Z"/>
    </g>
  </g>
</svg>