<?xml version="1.0" encoding="UTF-8"?>
<svg id="Layer_2" data-name="Layer 2" xmlns="http://www.w3.org/2000/svg" viewBox="0 0 64 64">
  <defs>
    <style>
      .cls-1 {
        fill: #fff;
      }

      .cls-2 {
        fill: #a72d3e;
      }

      .cls-3 {
        fill: #e6f7ff;
      }

      .cls-4 {
        fill: #1a1a1a;
        opacity: 0;
      }

      .cls-5 {
        fill: #e62e49;
      }

      .cls-6 {
        fill: #c62d43;
      }
    </style>
  </defs>
  <g id="Rough">
    <g>
      <rect class="cls-4" width="64" height="64"/>
      <g>
        <path class="cls-3" d="M25.33,21.87h0c-5.13,.77-8.66,5.55-7.89,10.68l3.7,24.56c.36,2.38,4.67,2.81,9.8,2.04s9.12-2.45,8.77-4.83l-3.7-24.56c-.77-5.13-5.55-8.66-10.68-7.89Z"/>
        <path class="cls-1" d="M25.04,52.59c6.21-.93,10.06-9.56,8.6-19.26-.68-4.5-2.38-8.44-4.62-11.28-1.17-.29-2.41-.37-3.68-.18h0c-5.13,.77-8.66,5.55-7.89,10.68l2.85,18.93c1.39,.95,2.97,1.37,4.74,1.1Z"/>
        <path class="cls-6" d="M20.25,13.85h4.1v4.88h-4.1c-1.35,0-2.44-1.09-2.44-2.44h0c0-1.35,1.09-2.44,2.44-2.44Z" transform="translate(-2.19 3.32) rotate(-8.56)"/>
        <path class="cls-5" d="M23.78,11.52h0c-2.36,.36-3.99,2.56-3.63,4.92l1.27,8.46c.18,1.17,2.19,1.55,4.55,1.2s4.18-1.32,4-2.48l-1.27-8.46c-.36-2.36-2.56-3.99-4.92-3.63Z"/>
        <path class="cls-6" d="M25.07,13.36c-1.26,.19-2.13,1.37-1.94,2.63s1.37,2.13,2.63,1.94c0,0,5.89-1.05,11.48,3.23l-1.07-7.14-1.07-7.14c-4.08,5.74-10.02,6.47-10.02,6.47Z"/>
        <ellipse class="cls-5" cx="40.03" cy="13.44" rx="6.56" ry="8.99" transform="translate(-1.56 6.11) rotate(-8.56)"/>
        <ellipse class="cls-2" cx="40.43" cy="13.38" rx="3.92" ry="5.93" transform="translate(-1.54 6.17) rotate(-8.56)"/>
      </g>
    </g>
  </g>
</svg>