<svg xmlns="http://www.w3.org/2000/svg" viewBox="0 0 64 64"><defs><style>.cls-1,.cls-2{fill:#1a1a1a;}.cls-1{opacity:0;}</style></defs><title>Shovel Flat Black</title><g id="Layer_2" data-name="Layer 2"><g id="Layer_3" data-name="Layer 3"><rect class="cls-1" width="64" height="64"/><path class="cls-2" d="M59.25,47.67q-.14-.84-.36-1.71A37.8,37.8,0,0,0,50.6,31.2a3.26,3.26,0,0,0-4.11-.67,43.62,43.62,0,0,0-4.78,3.28L39.8,31.9a1.28,1.28,0,0,0-1.81,0l-.09.1L25.09,19.19a4.78,4.78,0,0,0,.58-5.84L21.58,6.77a4.82,4.82,0,0,0-7.5-.86L5.91,14.08a4.82,4.82,0,0,0,.86,7.5l6.58,4.09a4.78,4.78,0,0,0,5.84-.58L32,37.9l-.11.11a1.24,1.24,0,0,0-.28,1.38,1.07,1.07,0,0,0,.28.42l1.91,1.91a44.38,44.38,0,0,0-3.27,4.77,3.26,3.26,0,0,0,.67,4.11c9.8,8.49,20.94,11.45,25.89,6.49a8.87,8.87,0,0,0,2.4-6.22A16.17,16.17,0,0,0,59.25,47.67Zm-49-29.95a.43.43,0,0,1-.08-.67l2.63-2.62,4.25-4.26a.43.43,0,0,1,.67.08L21,15.57a.44.44,0,0,1-.06.53l-2.52,2.51h0l-.77.77L16.1,21a.42.42,0,0,1-.26.12.43.43,0,0,1-.27-.06Z"/></g></g></svg>