<svg xmlns="http://www.w3.org/2000/svg" viewBox="0 0 64 64"><defs><style>.cls-1,.cls-2{fill:#1a1a1a;}.cls-1{opacity:0;}.cls-3{fill:#bb5938;}.cls-4{fill:#d1864b;}.cls-5{fill:#9c3d29;}</style></defs><title>Shovel Wood Outline</title><g id="Layer_2" data-name="Layer 2"><g id="Layer_3" data-name="Layer 3"><rect class="cls-1" width="64" height="64"/><path class="cls-2" d="M62.77,45c-1.37-5.34-4.62-11.16-9.15-16.39a7.25,7.25,0,0,0-9.17-1.49c-.79.47-1.59,1-2.37,1.5a5.27,5.27,0,0,0-3-1.06L30,18.46a8.83,8.83,0,0,0-.94-7.22L25,4.66A8.83,8.83,0,0,0,11.25,3.08L3.08,11.25A8.83,8.83,0,0,0,4.66,25l6.58,4.09a8.82,8.82,0,0,0,7.22.95l9.06,9.06a5.27,5.27,0,0,0,1.06,3c-.53.78-1,1.57-1.49,2.36a7.24,7.24,0,0,0,1.49,9.17c7.24,6.28,15.21,9.88,21.87,9.88h0a13,13,0,0,0,9.47-3.58A12.88,12.88,0,0,0,63.49,51a20.41,20.41,0,0,0-.29-4C63.09,46.34,62.94,45.66,62.77,45Z"/><rect class="cls-3" x="25.13" y="14.35" width="8.34" height="29.89" transform="translate(70.73 29.3) rotate(135)"/><rect class="cls-4" x="28.69" y="12.88" width="4.17" height="29.89" transform="translate(72.21 25.74) rotate(135)"/><path class="cls-3" d="M46.49,30.53a44.57,44.57,0,0,0-6,4.27c.27.28-.78,1.77-2.34,3.34s-3.06,2.61-3.34,2.34a44.57,44.57,0,0,0-4.27,6,3.26,3.26,0,0,0,.67,4.11c9.8,8.49,20.94,11.45,25.89,6.49S59.09,41,50.6,31.2A3.26,3.26,0,0,0,46.49,30.53Z"/><path class="cls-4" d="M25,19.31,19.31,25a4.81,4.81,0,0,1-6,.68L6.77,21.58a4.82,4.82,0,0,1-.86-7.5l8.17-8.17a4.82,4.82,0,0,1,7.5.86l4.09,6.58A4.81,4.81,0,0,1,25,19.31ZM16.1,21,21,16.1a.44.44,0,0,0,.06-.53l-3.31-5.32a.43.43,0,0,0-.67-.08l-6.88,6.88a.43.43,0,0,0,.08.67L15.57,21A.44.44,0,0,0,16.1,21Z"/><path class="cls-4" d="M57.09,57.09c5-5,2-16.09-6.49-25.89a3.26,3.26,0,0,0-4.11-.67,44.57,44.57,0,0,0-6,4.27c.27.28-.78,1.77-2.34,3.34Z"/><path class="cls-5" d="M38.14,38.14a15.66,15.66,0,0,1-2.41,2C42,46.4,48,50.44,49.23,49.23S46.4,42,40.17,35.73A15.66,15.66,0,0,1,38.14,38.14Z"/><rect class="cls-3" x="31.29" y="34.15" width="11.19" height="5.51" rx="1.28" transform="translate(-15.29 36.89) rotate(-45)"/><path class="cls-5" d="M36.89,36.9a8.37,8.37,0,0,1-1.63-2.26L31.89,38a1.27,1.27,0,0,0,0,1.8L34,41.9a1.28,1.28,0,0,0,1.81,0l3.37-3.37A8.37,8.37,0,0,1,36.89,36.9Z"/><path class="cls-3" d="M18.45,18.61,16.1,21a.44.44,0,0,1-.53.06l-5.32-3.31a.43.43,0,0,1-.08-.67l2.63-2.62a21.61,21.61,0,0,1-3.12-4.12L5.91,14.08a4.82,4.82,0,0,0,.86,7.5l6.58,4.09a4.81,4.81,0,0,0,6-.68L24,20.26A15.52,15.52,0,0,1,18.45,18.61Z"/></g></g></svg>