<?xml version="1.0" encoding="UTF-8"?>
<svg id="Layer_2" data-name="Layer 2" xmlns="http://www.w3.org/2000/svg" viewBox="0 0 64 64">
  <defs>
    <style>
      .cls-1 {
        fill: #fff;
      }

      .cls-2 {
        fill: #5d7c8c;
      }

      .cls-3 {
        fill: #476475;
      }

      .cls-4 {
        fill: #ebf0f3;
      }

      .cls-5 {
        fill: rgba(26, 26, 26, 0);
      }
    </style>
  </defs>
  <g id="Colour">
    <g id="Layer_2-2" data-name="Layer 2">
      <g id="Layer_3" data-name="Layer 3">
        <rect class="cls-5" width="64" height="64"/>
        <polygon class="cls-2" points="22.03 17.81 4.5 8.74 5.49 45.72 22.33 59.15 22.03 17.81"/>
        <polygon class="cls-2" points="59.5 12.8 38.81 4.85 4.5 8.74 22.03 17.81 59.5 12.8"/>
        <polygon class="cls-3" points="22.03 17.81 22.33 59.15 58.16 51.68 59.5 12.8 22.03 17.81"/>
        <path class="cls-4" d="M53.37,30.49c-.55-2-7.56-1.27-7.56-1.27,0,0-2.43-7.09-4.49-6.79s-4.79,8.28-4.79,8.28c0,0-7.47,1.62-8.14,3.92-.66,2.29,5.14,6.3,5.14,6.3,0,0-1.95,7.95-.28,8.91,1.66,.96,7.73-4.42,7.73-4.42,0,0,5.82,3.03,7.43,1.46,1.61-1.57-.02-8.61-.02-8.61,0,0,5.51-5.8,4.97-7.79Z"/>
        <path class="cls-1" d="M19.1,33.73c-.35-2.37-3.93-5.01-3.93-5.01,0,0-1.36-8.15-2.33-8.7s-2.01,6.01-2.01,6.01c0,0-3.19-1.61-3.42,.24-.22,1.83,2.33,8.13,2.33,8.13,0,0-.67,6.53,.08,8.28,.75,1.77,3.41-.25,3.41-.25,0,0,2.91,6.24,3.69,5.57,.79-.67-.23-8.81-.23-8.81,0,0,2.75-3.08,2.41-5.45Z"/>
      </g>
    </g>
  </g>
</svg>