<?xml version="1.0" encoding="UTF-8"?>
<svg id="Layer_2" data-name="Layer 2" xmlns="http://www.w3.org/2000/svg" viewBox="0 0 64 64">
  <defs>
    <style>
      .cls-1 {
        fill: #fff;
      }

      .cls-2 {
        fill: rgba(26, 26, 26, 0);
      }
    </style>
  </defs>
  <g id="BW">
    <g id="Layer_2-2" data-name="Layer 2">
      <g id="Layer_3" data-name="Layer 3">
        <rect class="cls-2" width="64" height="64"/>
        <path class="cls-1" d="M38.81,4.85L4.5,8.74l.99,36.98,16.84,13.43,35.83-7.47,1.34-38.88-20.69-7.95Zm9.61,42.04c-1.61,1.57-7.43-1.46-7.43-1.46,0,0-6.07,5.38-7.73,4.42-1.67-.97,.28-8.91,.28-8.91,0,0-5.81-4.01-5.14-6.3,.66-2.3,8.14-3.92,8.14-3.92,0,0,2.71-7.98,4.79-8.28,2.06-.3,4.49,6.79,4.49,6.79,0,0,7.01-.73,7.56,1.27,.54,1.99-4.97,7.79-4.97,7.79,0,0,1.63,7.05,.02,8.61Z"/>
      </g>
    </g>
  </g>
</svg>