<svg xmlns="http://www.w3.org/2000/svg" viewBox="0 0 64 64"><defs><style>.cls-1,.cls-2{fill:#1a1a1a;}.cls-1{opacity:0;}.cls-2{fill-rule:evenodd;}</style></defs><title>Cloud Black</title><g id="Layer_2" data-name="Layer 2"><g id="Layer_2-2" data-name="Layer 2"><rect class="cls-1" width="64" height="64"/><path class="cls-2" d="M58.75,49.86a23.12,23.12,0,0,0-4.36-1.34c2.29-2.48,6.35-8,4.74-14.88-2.55-10.85-13.59-4.27-13.59-4.27s.33-22-15.11-16.42C16,18.2,19.55,35.79,19.55,35.79c-2.8-3.62-12.07-6.18-14,2.12C4.41,43,7.13,46.72,9,48.61a22,22,0,0,0-4,1.25c-1,.47-.31,2.11.9,2.11h52C59.06,52,59.77,50.33,58.75,49.86Z"/></g></g></svg>