<svg xmlns="http://www.w3.org/2000/svg" viewBox="0 0 64 64"><defs><style>.cls-1,.cls-2{fill:#1a1a1a;}.cls-1{opacity:0;}.cls-2,.cls-3,.cls-4{fill-rule:evenodd;}.cls-3{fill:#fff;}.cls-4{fill:#96dbff;}</style></defs><title>Cloud Outline</title><g id="Layer_2" data-name="Layer 2"><g id="Layer_2-2" data-name="Layer 2"><rect class="cls-1" width="64" height="64"/><path class="cls-2" d="M5.89,56A5.45,5.45,0,0,1,.61,51.7a4.85,4.85,0,0,1,2.1-5.14,14.29,14.29,0,0,1-1-9.55c1.25-5.4,5.13-8.63,10.4-8.63a13.65,13.65,0,0,1,3.15.39c.58-7.3,3.92-16,13.84-19.58a17.73,17.73,0,0,1,6-1.16,12,12,0,0,1,8.74,3.64C47.1,15,48.5,19.91,49.1,23.76a14.72,14.72,0,0,1,3.17-.37c5.44,0,9.36,3.4,10.75,9.33a19,19,0,0,1-2.19,13.72,4.85,4.85,0,0,1,2.29,5.26A5.45,5.45,0,0,1,57.84,56Z"/><path class="cls-3" d="M58.74,49.86a23,23,0,0,0-4.35-1.34c2.29-2.48,6.35-8,4.74-14.88-2.56-10.85-13.6-4.27-13.6-4.27s.34-22-15.1-16.42C16,18.2,19.54,35.79,19.54,35.79c-2.79-3.62-12.06-6.18-14,2.12C4.41,43,7.12,46.72,9,48.61a21.72,21.72,0,0,0-4,1.25c-1,.47-.31,2.11.9,2.11h52C59.05,52,59.77,50.33,58.74,49.86Z"/><path class="cls-4" d="M5.89,52h52c1.21,0,1.93-1.64.9-2.11a23,23,0,0,0-4.35-1.34s3.53-7.64-1.25-11.22c-5-3.78-10.92.65-10.92.65s-.45-13.9-12.72-9.76c-10.31,3.49-7.61,14.53-7.61,14.53s-8.26-4.79-12.15-1.59C6,44.18,9,48.61,9,48.61a21.72,21.72,0,0,0-4,1.25C4,50.33,4.68,52,5.89,52Z"/><path class="cls-3" d="M16.58,47.4c2-2.59,5.78-5.78,11.74-4.16.54.14,1-.51.53-.8-3.57-2.35-10-4.87-13.17,4.65C15.51,47.59,16.24,47.84,16.58,47.4Z"/></g></g></svg>