<?xml version="1.0" encoding="UTF-8"?>
<svg id="Layer_2" data-name="Layer 2" xmlns="http://www.w3.org/2000/svg" viewBox="0 0 64 64">
  <defs>
    <style>
      .cls-1 {
        fill: #fec92b;
      }

      .cls-1, .cls-2, .cls-3, .cls-4, .cls-5, .cls-6, .cls-7, .cls-8, .cls-9 {
        stroke-width: 0px;
      }

      .cls-2 {
        fill: #d1774b;
      }

      .cls-3, .cls-4 {
        fill: #1a1a1a;
      }

      .cls-4 {
        opacity: 0;
      }

      .cls-5 {
        fill: #eba969;
      }

      .cls-6 {
        fill: #fc9504;
      }

      .cls-7 {
        fill: #cef;
      }

      .cls-8 {
        fill: #fff;
      }

      .cls-9 {
        fill: #bb5938;
      }
    </style>
  </defs>
  <g id="Exports_2" data-name="Exports 2">
    <g>
      <rect class="cls-4" width="64" height="64"/>
      <g>
        <path class="cls-3" d="M62.78,26.74s-.11-.3-.12-.31c-.31-.76-.72-1.49-1.22-2.16-2.87-3.86-14.25-7.62-19.13-9.09-.04-.01-1.67-.49-1.67-.49-.45-.13-.9-.25-1.31-.36l-.23-.06c-.37-.1-.73-.19-1.16-.29l-.15-.04c-.36-.09-.7-.17-1-.24-.02-.02-.09-.11-.11-.14-.17-.21-.36-.41-.56-.62-.02-.02-.03-.03-.04-.05-.2-.2-.41-.4-.62-.59h0s-.05-.04-.07-.06c-1.78-1.58-4.06-2.76-6.78-3.52-.66-.18-1.36-.28-2.07-.28h-.21c-2.85.07-9.96.61-15.16,4.07-.09.05-.18.11-.26.17-.1.07-.19.14-.29.22-.4.29-.79.61-1.2.97-.11.1-.22.19-.32.29-.53.51-.96.98-1.34,1.47-.02.03-.05.06-.07.09-.71.93-1.1,2.08-1.12,3.26-.63.26-1.19.52-1.68.77-.02,0-.03.02-.05.03-.19.1-.36.2-.54.31-.07.04-.16.09-.21.12-.2.13-.38.25-.54.37-.08.06-.18.13-.25.18-.2.15-.36.3-.53.47-.09.09-.19.18-.27.27-.32.35-.59.73-.8,1.12-1.93,3.64-1.04,7.57-.46,9.32v2.32c0,1.61.76,3.11,2.01,4.06v.6c0,2.02,1.19,3.85,3.03,4.67l2.53,1.13c.87.39,1.8.61,2.75.65.1,0,.21,0,.31,0,.85,0,1.69-.14,2.49-.42l1.91-.67,7.58,3.37v1.43c0,2.02,1.19,3.85,3.03,4.67l2.54,1.13c.87.39,1.8.6,2.76.64.1,0,.2,0,.3,0,.85,0,1.69-.14,2.5-.42l2.72-.95c2.05-.72,3.42-2.66,3.42-4.83v-1l6.08-2.13,1.74.78c.87.39,1.8.61,2.76.65.1,0,.32,0,.32,0,.85,0,1.69-.14,2.49-.42l2.72-.95c2.05-.72,3.42-2.66,3.42-4.83v-.15c1.33-.94,2.15-2.49,2.15-4.17v-2.18c.53-1.57,1.26-4.78-.02-8.21Z"/>
        <g>
          <path class="cls-9" d="M51.86,43.64l.15-5.42-4.64-2.06v5.03c0,.44.26.84.66,1.02l2.54,1.13c.41.18.85.28,1.29.3Z"/>
          <path class="cls-2" d="M56.64,41.44v-4.95l-4.64,1.74-.15,5.42c.44.02.89-.05,1.32-.2l2.72-.95c.45-.16.74-.58.74-1.05Z"/>
        </g>
        <g>
          <path class="cls-9" d="M11.72,41.38l.15-5.42-4.64-2.06v5.03c0,.44.26.84.66,1.02l2.54,1.13c.41.18.85.28,1.29.3Z"/>
          <path class="cls-2" d="M16.5,39.19v-4.95l-4.64,1.74-.15,5.42c.44.02.89-.05,1.32-.2l2.72-.95c.45-.16.74-.58.74-1.05Z"/>
        </g>
        <g>
          <path class="cls-9" d="M32.33,51.55l.15-5.42-4.64-2.06v5.03c0,.44.26.84.66,1.02l2.54,1.13c.41.18.85.28,1.29.3Z"/>
          <path class="cls-2" d="M37.12,49.35v-4.95l-4.64,1.74-.15,5.42c.44.02.89-.05,1.32-.2l2.72-.95c.45-.16.74-.58.74-1.05Z"/>
        </g>
        <polygon class="cls-5" points="5.22 29.46 32.64 40.8 58.8 31.82 32.01 22.44 5.22 29.46"/>
        <path class="cls-2" d="M5.22,29.46v4.82c0,.44.26.84.66,1.02l26.6,11.84.16-6.33L5.22,29.46Z"/>
        <path class="cls-5" d="M32.48,47.13l25.57-8.96c.45-.16.74-.58.74-1.05v-5.3l-26.16,8.98-.16,6.33Z"/>
        <g>
          <path class="cls-1" d="M38.23,41.24l20-6.84s2.61-4.23,0-7.74-22.32-9.81-25.83-9.54c-3.51.27-25.21,4.32-26.83,7.38-1.62,3.06-.35,6.75-.35,6.75l23.62,9.7c2.99,1.23,6.33,1.33,9.39.28Z"/>
          <path class="cls-6" d="M58.97,27.97c-4.75,3.06-21.3,6.98-25.02,7.05-4.59.09-22.33-7.07-25.47-9.38-1.1-.81-1.59-1.62-1.75-2.34l-1.51,7.95,23.62,9.7c2.99,1.23,6.33,1.33,9.39.28l20.56-7.03s1.45-3.07.17-6.24Z"/>
          <path class="cls-8" d="M41.07,18.98s0,0,0,0c-3.96-1.19-7.39-1.96-8.67-1.87-3.51.27-25.56,4.32-27.18,7.38-1.62,3.06,0,6.75,0,6.75l7.12,2.93s-1.4-4.61-.44-7.58c.96-2.98,24.25-8.71,29.17-7.61Z"/>
          <path class="cls-8" d="M20.65,24.68s9.95-1.14,13.57-4.71c.62-.61.79-1.54.4-2.32-.72-1.45-2.56-3.81-7.1-5.07-.36-.1-.73-.14-1.11-.13-2.43.06-11.71.62-15.56,5.7-.26.34-.36.77-.29,1.19.26,1.71,1.75,5.93,10.08,5.35Z"/>
          <path class="cls-7" d="M12.34,34.18s-1.16-3.83-.64-6.76c-1.48-.71-2.62-1.33-3.22-1.77-1.1-.81-1.59-1.62-1.75-2.34-.78.41-1.31.81-1.51,1.2-1.62,3.06,0,6.75,0,6.75l7.12,2.93Z"/>
          <path class="cls-7" d="M32.73,15.24c-.92,2.86-10.7,7.6-16.57,5.44-3.75-1.38-3.75-3.27-2.98-4.7-.88.61-1.67,1.32-2.31,2.16-.26.34-.36.78-.29,1.2.27,1.71,1.76,5.92,10.08,5.34,0,0,11.24-1.29,14.18-5.41.18-.25.21-.58.11-.87-.23-.67-.81-1.92-2.21-3.16Z"/>
        </g>
      </g>
    </g>
  </g>
</svg>