<?xml version="1.0" encoding="UTF-8"?>
<svg id="Layer_2" data-name="Layer 2" xmlns="http://www.w3.org/2000/svg" viewBox="0 0 64 64">
  <defs>
    <style>
      .cls-1 {
        fill: #d1774b;
      }

      .cls-1, .cls-2, .cls-3, .cls-4, .cls-5, .cls-6, .cls-7 {
        stroke-width: 0px;
      }

      .cls-8 {
        opacity: 0;
      }

      .cls-2 {
        fill: #e62e49;
      }

      .cls-3 {
        fill: #eba969;
      }

      .cls-4 {
        fill: #cef;
      }

      .cls-5 {
        fill: #fff;
      }

      .cls-6 {
        fill: #c62d43;
      }

      .cls-7 {
        fill: #bb5938;
      }
    </style>
  </defs>
  <g id="Exports_2" data-name="Exports 2">
    <g>
      <g class="cls-8">
        <rect class="cls-5" width="64" height="64"/>
      </g>
      <g>
        <g>
          <path class="cls-7" d="M51.86,43.64l.15-5.42-4.64-2.06v5.03c0,.44.26.84.66,1.02l2.54,1.13c.41.18.85.28,1.29.3Z"/>
          <path class="cls-1" d="M56.64,41.44v-4.95l-4.64,1.74-.15,5.42c.44.02.89-.05,1.32-.2l2.72-.95c.45-.16.74-.58.74-1.05Z"/>
        </g>
        <g>
          <path class="cls-7" d="M11.72,41.38l.15-5.42-4.64-2.06v5.03c0,.44.26.84.66,1.02l2.54,1.13c.41.18.85.28,1.29.3Z"/>
          <path class="cls-1" d="M16.5,39.19v-4.95l-4.64,1.74-.15,5.42c.44.02.89-.05,1.32-.2l2.72-.95c.45-.16.74-.58.74-1.05Z"/>
        </g>
        <g>
          <path class="cls-7" d="M32.33,51.55l.15-5.42-4.64-2.06v5.03c0,.44.26.84.66,1.02l2.54,1.13c.41.18.85.28,1.29.3Z"/>
          <path class="cls-1" d="M37.12,49.35v-4.95l-4.64,1.74-.15,5.42c.44.02.89-.05,1.32-.2l2.72-.95c.45-.16.74-.58.74-1.05Z"/>
        </g>
        <polygon class="cls-3" points="5.22 29.46 32.64 40.8 58.8 31.82 32.01 22.44 5.22 29.46"/>
        <path class="cls-1" d="M5.22,29.46v4.82c0,.44.26.84.66,1.02l26.6,11.84.16-6.33L5.22,29.46Z"/>
        <path class="cls-3" d="M32.48,47.13l25.57-8.96c.45-.16.74-.58.74-1.05v-5.3l-26.16,8.98-.16,6.33Z"/>
        <g>
          <path class="cls-2" d="M38.23,41.24l20-6.84s2.61-4.23,0-7.74-22.32-9.81-25.83-9.54c-3.51.27-25.21,4.32-26.83,7.38s-.35,6.75-.35,6.75l23.62,9.7c2.99,1.23,6.33,1.33,9.39.28Z"/>
          <path class="cls-6" d="M58.97,27.97c-4.75,3.06-21.3,6.98-25.02,7.05-4.59.09-22.33-7.07-25.47-9.38-1.1-.81-1.59-1.62-1.75-2.34l-1.51,7.95,23.62,9.7c2.99,1.23,6.33,1.33,9.39.28l20.56-7.03s1.45-3.07.17-6.24Z"/>
          <path class="cls-5" d="M41.07,18.98s0,0,0,0c-3.96-1.19-7.39-1.96-8.67-1.87-3.51.27-25.56,4.32-27.18,7.38-1.62,3.06,0,6.75,0,6.75l7.12,2.93s-1.4-4.61-.44-7.58c.96-2.98,24.25-8.71,29.17-7.61Z"/>
          <path class="cls-5" d="M20.65,24.68s9.95-1.14,13.57-4.71c.62-.61.79-1.54.4-2.32-.72-1.45-2.56-3.81-7.1-5.07-.36-.1-.73-.14-1.11-.13-2.43.06-11.71.62-15.56,5.7-.26.34-.36.77-.29,1.19.26,1.71,1.75,5.93,10.08,5.35Z"/>
          <path class="cls-4" d="M12.34,34.18s-1.16-3.83-.64-6.76c-1.48-.71-2.62-1.33-3.22-1.77-1.1-.81-1.59-1.62-1.75-2.34-.78.41-1.31.81-1.51,1.2-1.62,3.06,0,6.75,0,6.75l7.12,2.93Z"/>
          <path class="cls-4" d="M32.73,15.24c-.92,2.86-10.7,7.6-16.57,5.44-3.75-1.38-3.75-3.27-2.98-4.7-.88.61-1.67,1.32-2.31,2.16-.26.34-.36.78-.29,1.2.27,1.71,1.76,5.92,10.08,5.34,0,0,11.24-1.29,14.18-5.41.18-.25.21-.58.11-.87-.23-.67-.81-1.92-2.21-3.16Z"/>
        </g>
      </g>
    </g>
  </g>
</svg>