<?xml version="1.0" encoding="UTF-8"?>
<svg id="Layer_2" data-name="Layer 2" xmlns="http://www.w3.org/2000/svg" viewBox="0 0 64 64">
  <defs>
    <style>
      .cls-1 {
        opacity: 0;
      }

      .cls-2 {
        fill: #fff;
        stroke-width: 0px;
      }
    </style>
  </defs>
  <g id="Exports_2" data-name="Exports 2">
    <g>
      <g class="cls-1">
        <rect class="cls-2" width="64" height="64"/>
      </g>
      <g>
        <path class="cls-2" d="M11.38,21.6h0c.25.38.57.76.98,1.12.03.02.05.04.08.07.17.14.35.28.55.42.06.04.11.08.17.11.2.13.42.25.65.37.05.03.1.05.15.08.29.14.59.26.93.37.06.02.14.04.2.06.27.08.56.16.87.23.12.03.25.05.38.07.28.05.58.1.9.13.13.02.26.03.4.04.46.04.93.06,1.44.06.48,0,.98-.02,1.51-.05,0,0,9.95-1.14,13.57-4.71.62-.61.79-1.54.4-2.32-.05-.11-.12-.22-.18-.34,0,0,0,0,0,0h0c-.83-1.46-2.72-3.56-6.91-4.73-.32-.09-.66-.13-1-.13-.03,0-.07,0-.1,0-2.43.06-11.71.62-15.56,5.7-.26.34-.36.77-.29,1.19.09.57.32,1.41.88,2.27Z"/>
        <path class="cls-2" d="M58.17,27.66c-1.9-2.55-12.84-6.58-20.02-8.48-.68-.18-1.33.29-1.44.99-.13.82-.52,1.61-1.15,2.23-4,3.94-13.66,5.15-14.75,5.27h-.04s-.04,0-.04,0c-.56.04-1.12.06-1.65.06-5.14,0-7.78-1.86-9.15-3.74-.32-.43-.88-.61-1.38-.4-1.61.65-2.73,1.3-3.05,1.9-1.62,3.06-.35,6.75-.35,6.75v3.02c0,.44.26.84.66,1.02l1.35.6v3.04c0,.44.26.84.66,1.02l2.54,1.13c.41.18.85.28,1.29.3.44.02.89-.05,1.32-.2l2.72-.95c.19-.07.35-.19.47-.34l11.62,5.17v4.03c0,.44.26.84.66,1.02l2.54,1.13c.41.18.85.28,1.29.3.44.02.89-.05,1.32-.2l2.72-.95c.45-.16.74-.58.74-1.05v-3.84l10.47-3.67c.11.16.26.29.45.37l2.54,1.13c.41.18.85.28,1.29.3.44.02.89-.05,1.32-.2l2.72-.95c.45-.16.74-.58.74-1.05v-2.77l1.41-.49c.45-.16.74-.58.74-1.05v-3.91c.59-1.5,1.2-4.19-.56-6.56Z"/>
      </g>
    </g>
  </g>
</svg>