<svg xmlns="http://www.w3.org/2000/svg" viewBox="0 0 64 64"><defs><style>.cls-1,.cls-2{fill:#fff;}.cls-1{opacity:0;}</style></defs><title>Volcano White</title><g id="Layer_2" data-name="Layer 2"><g id="Finals"><rect class="cls-1" width="64" height="64"/><path class="cls-2" d="M62.9,47.63l-4.66-9.32a7.41,7.41,0,0,0,.11-3.09c-.48-2.85-2.45-4.47-4-5.77a8.61,8.61,0,0,1-3.24-4c-1.26-3.74-3.36-6.1-5.79-8.84A63.63,63.63,0,0,1,39,8.46l-.19-.34a6.41,6.41,0,0,0-5.55-3.21,6.74,6.74,0,0,0-.77,0L24,6a6.4,6.4,0,0,0-5.31,4.39L13.8,25.66l-5,7.25a4.42,4.42,0,0,0-.49,1l-1,3a9.49,9.49,0,0,1-1.76,2.26l-.45.41c-2.56,2.32-5,4.52-4.59,7.71A5,5,0,0,0,1.09,49a5.38,5.38,0,0,0,.28,2.13,5.52,5.52,0,0,0,3.92,3.65l11.16,2.83a4,4,0,0,0,.69.12l18.71,1.35h.29a3.8,3.8,0,0,0,1.33-.23l6.25-2.21,14.54-.94a5.59,5.59,0,0,0,4.64-8.08ZM8.28,42.08A14.14,14.14,0,0,0,11,38.5L9.3,43.57l-3.63,4.5C3,46.65,5.3,44.79,8.28,42.08Zm-1,9.07s14.82-7.71,17.54-12.73S26,28.93,28,25s-.54-9.22-.54-9.22l-3.36-1.6-2.09-1h0l.51-1.6a2.39,2.39,0,0,1,2-1.64l8.43-1a2.42,2.42,0,0,1,2.37,1.19l.24.43c5.65,8.72,9.92,10.7,11.75,16.14s6.6,6.15,7.11,9.2a2.65,2.65,0,0,1-.61,2.47L52,34.76l-5.7-5.42L44.41,26h0l-6-5.77h0S30,29.48,28.6,36.79s-11.17,17-11.17,17Zm41.58,1.16.31-2L46.68,43l4.16,4.48,2,4.59-3.62.23Z"/></g></g></svg>