<svg xmlns="http://www.w3.org/2000/svg" viewBox="0 0 64 64"><defs><style>.cls-1{fill:#fff;opacity:0;}.cls-2{fill:#de6529;}.cls-3{fill:#7b97a6;}.cls-4{fill:#476475;}.cls-5{fill:#abc0c9;}.cls-6{fill:#fdbc0d;}.cls-7{fill:#fc9504;}</style></defs><title>Volcano</title><g id="Layer_2" data-name="Layer 2"><g id="Finals"><rect class="cls-1" width="64" height="64"/><path class="cls-2" d="M12.59,34.81a17.61,17.61,0,0,1-4.31,7.27c-3,2.78-5.38,4.66-2.42,6.09s9.54-8.06,9.54-8.06Z"/><path class="cls-2" d="M52.06,39.17a2.62,2.62,0,0,0,2.34-3.29c-.51-3.05-5.28-3.76-7.11-9.2s-6.1-7.42-11.75-16.14l-1.47,3.65Z"/><path class="cls-3" d="M6.28,50.91l11.15,2.83,18.71,1.35,6.77-2.39,15.09-1a1.59,1.59,0,0,0,1.33-2.3L52,34.76l-5.7-5.42-11-19.23a2.42,2.42,0,0,0-2.37-1.19L24.5,10a2.39,2.39,0,0,0-2,1.64L17.43,27.44l-5.29,7.73L9.3,43.57,5.43,48.36A1.6,1.6,0,0,0,6.28,50.91Z"/><path class="cls-4" d="M36.14,55.09l3-16.13V32.62l2.82.39-3.5-12.75,6,5.77,1.89,3.31L52,34.76l7.33,14.66A1.59,1.59,0,0,1,58,51.72l-15.09,1Z"/><path class="cls-5" d="M9.3,43.57l3.62-7.9,7.63-7.32,2.64-8.09-.54-2.39,3.17-8.08L24.5,10a2.39,2.39,0,0,0-2,1.64L17.43,27.44l-5.29,7.73Z"/><path class="cls-6" d="M44.41,26l-6-5.77S30,29.47,28.6,36.79s-11.17,17-11.17,17L7.23,51.15s14.82-7.71,17.54-12.73S26,28.93,28,25s-.54-9.22-.54-9.22L22,13.19l.51-1.6a2.39,2.39,0,0,1,2-1.64l8.43-1a2.42,2.42,0,0,1,2.37,1.19Z"/><path class="cls-7" d="M23.43,41.24a1.71,1.71,0,0,0-.58-.45,59.92,59.92,0,0,1-10.26,7.34,2.25,2.25,0,0,0,.4,1.8c1.19,1.44,4.5.66,7.39-1.74S24.63,42.68,23.43,41.24Z"/><path class="cls-7" d="M33.51,22.55c0,1.27-.55,2.3-1.22,2.3s-1.22-1-1.22-2.3.75-1.77,1.42-1.77S33.51,21.28,33.51,22.55Z"/><path class="cls-7" d="M34.37,16.66c2.57,2.78-6,4.86-4.46-.76C30.86,12.38,33.62,14.55,34.37,16.66Z"/><path class="cls-4" d="M26.92,54.43l2.15-3.8a25.26,25.26,0,0,0,2.79-7.52l.79-3.94.22,4.46a13.94,13.94,0,0,1-.4,4.12l-1,3.94a3.69,3.69,0,0,0,.65,3.11h0Z"/><polygon class="cls-2" points="52.81 52.06 50.84 47.47 46.67 42.99 49.12 50.3 48.81 52.31 52.81 52.06"/></g></g></svg>