<svg xmlns="http://www.w3.org/2000/svg" viewBox="0 0 64 64"><defs><style>.cls-1,.cls-2{fill:#1a1a1a;}.cls-1{opacity:0;}.cls-3{fill:#ffdfb5;}.cls-4{fill:#ebb369;}.cls-5{fill:#e62e49;}.cls-6{fill:#a72d3e;}.cls-7{fill:#dce9f0;}.cls-8{fill:#fff;}</style></defs><title>Mushroom Red Outline</title><g id="Layer_2" data-name="Layer 2"><g id="Finals"><rect class="cls-1" width="64" height="64"/><path class="cls-2" d="M61.36,21.41c-.22-.53-.47-1.05-.72-1.55l0-.1a29.64,29.64,0,0,0-3.91-5.84l-.08-.09a31.41,31.41,0,0,0-3.81-3.75l0,0c-.46-.37-.92-.74-1.4-1.09l-.09-.06a32.36,32.36,0,0,0-6.36-3.65l-.09,0A32.67,32.67,0,0,0,32,2.56,32.61,32.61,0,0,0,21.61,4.27h0A32.13,32.13,0,0,0,4.78,17.35a28.16,28.16,0,0,0-2.49,4.93L2,23c-.12.34-.23.69-.35,1.06l0,.16A25.49,25.49,0,0,0,.83,27.6l-.07.46q-.09.63-.15,1.29l0,.48c0,.55-.07,1.1-.07,1.65v.07C.5,36.47,2,40.47,5,43.45a18.39,18.39,0,0,0,7,4.24c0,.05,0,.09,0,.13,0,.21,0,.42.06.62l0,.28c0,.21,0,.41.07.6l.09.42c2.18,11.7,14,11.7,19.69,11.7s17.51,0,19.69-11.7l.09-.42c0-.19,0-.39.07-.6l0-.28c0-.2,0-.41.06-.62,0,0,0-.09,0-.13,5.48-2,9.05-5.35,10.61-10.09l0,0c.12-.38.24-.78.34-1.2s.19-.81.26-1.23v0c.07-.41.13-.84.18-1.27a22.84,22.84,0,0,0,.12-2.29A25.61,25.61,0,0,0,61.36,21.41Z"/><path class="cls-3" d="M48,45.82c0,10.38-7.18,11.62-16,11.62S16,56.2,16,45.82s7.18-20.08,16-20.08S48,35.45,48,45.82Z"/><path class="cls-4" d="M32,25.74c-8.86,0-16,9.71-16,20.08a17.93,17.93,0,0,0,.21,2.86A41.05,41.05,0,0,0,32,51.77a41.05,41.05,0,0,0,15.83-3.09A17.93,17.93,0,0,0,48,45.82C48,35.45,40.86,25.74,32,25.74Z"/><path class="cls-5" d="M59.5,31.55C59.5,44.46,47.19,46,32,46S4.5,44.46,4.5,31.55s12.31-25,27.5-25S59.5,18.64,59.5,31.55Z"/><path class="cls-6" d="M38.42,41.31A31.9,31.9,0,0,1,8.16,19.49,22.64,22.64,0,0,0,4.5,31.55C4.5,44.46,16.81,46,32,46c14.42,0,26.23-1.41,27.4-12.59A31.75,31.75,0,0,1,38.42,41.31Z"/><path class="cls-7" d="M13.38,43.58c0,.12,0,.23,0,.35C18.29,45.66,24.82,46,32,46q3.2,0,6.2-.12a12.56,12.56,0,0,0,.22-2.31,12.24,12.24,0,0,0-.22-2.28A31.81,31.81,0,0,1,18,33.89,12.49,12.49,0,0,0,13.38,43.58Z"/><path class="cls-7" d="M5.8,24.28a12.49,12.49,0,0,0,6,2.66A32.42,32.42,0,0,1,8.16,19.5,24.69,24.69,0,0,0,5.8,24.28Z"/><path class="cls-8" d="M38.51,7.32A12.51,12.51,0,1,0,57.69,23,27.88,27.88,0,0,0,38.51,7.32Z"/><path class="cls-8" d="M25.9,31.06A12.46,12.46,0,0,0,18,33.89,31.81,31.81,0,0,0,38.2,41.3,12.52,12.52,0,0,0,25.9,31.06Z"/><path class="cls-8" d="M26.22,14.57a12.46,12.46,0,0,0-2.08-6.9,28.28,28.28,0,0,0-16,11.83,32.42,32.42,0,0,0,3.61,7.44,13.59,13.59,0,0,0,1.93.15A12.52,12.52,0,0,0,26.22,14.57Z"/></g></g></svg>