<svg xmlns="http://www.w3.org/2000/svg" viewBox="0 0 64 64"><defs><style>.cls-1,.cls-2{fill:#fff;}.cls-1{opacity:0;}</style></defs><title>Snowflake White</title><g id="Layer_2" data-name="Layer 2"><g id="Layer_2-2" data-name="Layer 2"><rect class="cls-1" width="64" height="64"/><path class="cls-2" d="M54.14,38.28a1.08,1.08,0,0,0-1.32-.76L48.4,38.71l-3-1.75V27l3-1.75,4.42,1.19a1.08,1.08,0,0,0,1.32-.76l1.78-6.65a1.1,1.1,0,0,0-.1-.82,1.05,1.05,0,0,0-.66-.5L48.51,16a1.07,1.07,0,0,0-1.32.76L46,21.15,43,22.9l-8.59-5v-3.5l3.24-3.23a1.09,1.09,0,0,0,0-1.53L32.76,4.82a1.06,1.06,0,0,0-1.52,0L26.37,9.68a1.09,1.09,0,0,0,0,1.53l3.24,3.23v3.5L21,22.9l-3-1.75-1.18-4.42A1.07,1.07,0,0,0,15.49,16L8.84,17.75a1.05,1.05,0,0,0-.66.5,1.1,1.1,0,0,0-.1.82l1.78,6.65a1.08,1.08,0,0,0,1.32.76l4.42-1.19,3,1.75V37l-3,1.75-4.42-1.19a1.08,1.08,0,0,0-1.32.76L8.08,44.93a1.1,1.1,0,0,0,.1.82,1.05,1.05,0,0,0,.66.5L15.49,48a1.07,1.07,0,0,0,1.32-.76L18,42.85l3-1.75,8.59,5v3.5l-3.24,3.23a1.09,1.09,0,0,0,0,1.53l4.87,4.86a1.06,1.06,0,0,0,1.52,0l4.87-4.86a1.09,1.09,0,0,0,0-1.53l-3.24-3.23v-3.5l8.59-5,3,1.75,1.18,4.42a1.07,1.07,0,0,0,1.32.76l6.65-1.78a1.05,1.05,0,0,0,.66-.5,1.1,1.1,0,0,0,.1-.82ZM25,36.07V27.93l7-4.06,7,4.06v8.14l-7,4.06Z"/></g></g></svg>