<svg xmlns="http://www.w3.org/2000/svg" viewBox="0 0 64 64"><defs><style>.cls-1,.cls-2{fill:#1a1a1a;}.cls-1{opacity:0;}.cls-3{fill:#fff;}.cls-4{fill:#cef;}.cls-5{fill:#73adff;}.cls-6{fill:#96dbff;}</style></defs><title>Snowflake Outline</title><g id="Layer_2" data-name="Layer 2"><g id="Layer_2-2" data-name="Layer 2"><rect class="cls-1" width="64" height="64"/><path class="cls-2" d="M58,37.25a5.08,5.08,0,0,0-4.9-3.77,4.82,4.82,0,0,0-1.31.18l-2.42.64V29.7l2.41.64a4.94,4.94,0,0,0,1.32.18A5.08,5.08,0,0,0,58,26.75l1.79-6.66a5,5,0,0,0-.51-3.84,5.1,5.1,0,0,0-3.08-2.37L49.54,12.1a5.23,5.23,0,0,0-1.31-.17,5.08,5.08,0,0,0-4.9,3.76l-.65,2.42-4-2.31L40.46,14a5.08,5.08,0,0,0,0-7.19L35.59,2a5.07,5.07,0,0,0-7.18,0L23.54,6.85a5.08,5.08,0,0,0,0,7.19l1.77,1.76-4,2.31-.65-2.42a5.08,5.08,0,0,0-4.9-3.76,5.37,5.37,0,0,0-1.32.17L7.8,13.88a5.1,5.1,0,0,0-3.08,2.37,5,5,0,0,0-.51,3.85L6,26.75a5.08,5.08,0,0,0,4.9,3.77,4.82,4.82,0,0,0,1.31-.18l2.42-.64v4.6l-2.42-.64a4.82,4.82,0,0,0-1.31-.18A5.08,5.08,0,0,0,6,37.25L4.21,43.91a5,5,0,0,0,.51,3.84A5.1,5.1,0,0,0,7.8,50.12l6.66,1.78a5.23,5.23,0,0,0,1.31.17,5.08,5.08,0,0,0,4.9-3.76l.65-2.42,4,2.31L23.54,50a5.08,5.08,0,0,0,0,7.19L28.41,62a5.07,5.07,0,0,0,7.18,0l4.87-4.86a5.08,5.08,0,0,0,0-7.19L38.69,48.2l4-2.31.65,2.42a5.08,5.08,0,0,0,4.9,3.76,5.37,5.37,0,0,0,1.32-.17l6.65-1.78a5.1,5.1,0,0,0,3.08-2.37,5,5,0,0,0,.51-3.85Zm-23-7v3.52l-3,1.76-3-1.76V30.24l3-1.76Z"/><path class="cls-3" d="M31.24,4.82,26.37,9.68a1.09,1.09,0,0,0,0,1.53l3.24,3.23v8.69L32,21.75V4.5A1.07,1.07,0,0,0,31.24,4.82Z"/><path class="cls-4" d="M34.39,14.44l3.24-3.23a1.09,1.09,0,0,0,0-1.53L32.76,4.82A1.07,1.07,0,0,0,32,4.5V21.75l2.39,1.38Z"/><path class="cls-5" d="M34.39,49.56V40.87L32,42.25V59.5a1,1,0,0,0,.76-.32l4.87-4.86a1.09,1.09,0,0,0,0-1.53Z"/><path class="cls-6" d="M29.61,40.87v8.69l-3.24,3.23a1.09,1.09,0,0,0,0,1.53l4.87,4.86a1,1,0,0,0,.76.32V42.25Z"/><path class="cls-5" d="M8.84,46.25,15.49,48a1.07,1.07,0,0,0,1.32-.76L18,42.85l7.53-4.34-2.4-1.38L8.18,45.75A1.05,1.05,0,0,0,8.84,46.25Z"/><path class="cls-6" d="M15.6,38.71l-4.42-1.19a1.08,1.08,0,0,0-1.32.76L8.08,44.93a1.1,1.1,0,0,0,.1.82l14.94-8.62V34.36Z"/><path class="cls-3" d="M46,21.15l-7.53,4.34,2.4,1.38,14.94-8.62a1.09,1.09,0,0,0-.66-.5L48.51,16a1.07,1.07,0,0,0-1.32.76Z"/><path class="cls-4" d="M40.88,29.64,48.4,25.3l4.42,1.18a1.08,1.08,0,0,0,1.32-.76l1.78-6.65a1.1,1.1,0,0,0-.1-.82L40.88,26.87Z"/><path class="cls-4" d="M55.92,44.93l-1.78-6.65a1.08,1.08,0,0,0-1.32-.76L48.4,38.71l-7.52-4.35v2.77l14.94,8.62A1.1,1.1,0,0,0,55.92,44.93Z"/><path class="cls-5" d="M46,42.85l1.18,4.42a1.07,1.07,0,0,0,1.32.76l6.65-1.78a1.05,1.05,0,0,0,.66-.5L40.88,37.13l-2.4,1.38Z"/><path class="cls-6" d="M15.6,25.3l7.52,4.34V26.87L8.18,18.25a1.1,1.1,0,0,0-.1.82l1.78,6.65a1.08,1.08,0,0,0,1.32.76Z"/><path class="cls-3" d="M25.52,25.49,18,21.15l-1.18-4.42A1.07,1.07,0,0,0,15.49,16L8.84,17.75a1.09,1.09,0,0,0-.66.5l14.94,8.62Z"/><polygon class="cls-4" points="42.42 25.98 45.37 24.28 32 16.56 32 19.97 42.42 25.98"/><polygon class="cls-6" points="21.58 38.02 21.58 38.02 18.63 39.72 32 47.44 32 44.03 21.58 38.02"/><polygon class="cls-6" points="21.58 25.98 18.63 24.28 18.63 39.72 21.58 38.02 21.58 25.98"/><polygon class="cls-4" points="42.42 25.98 42.42 25.98 42.42 38.02 42.42 38.02 45.37 39.72 45.37 24.28 42.42 25.98"/><polygon class="cls-5" points="32 44.03 32 47.44 45.37 39.72 42.42 38.02 32 44.03"/><polygon class="cls-3" points="21.58 25.98 32 19.97 32 16.56 18.63 24.28 21.58 25.98 21.58 25.98"/><polygon class="cls-3" points="32 40.13 32 44.03 42.42 38.02 39.04 36.07 32 40.13"/><polygon class="cls-5" points="32 23.87 32 19.97 21.58 25.98 21.58 25.98 24.96 27.93 32 23.87"/><polygon class="cls-4" points="24.96 36.07 24.96 27.93 24.96 27.93 21.58 25.98 21.58 38.02 24.96 36.07 24.96 36.07"/><polygon class="cls-3" points="24.96 36.07 21.58 38.02 21.58 38.02 32 44.03 32 40.13 24.96 36.07"/><polygon class="cls-5" points="32 23.87 39.04 27.93 42.42 25.98 32 19.97 32 23.87"/><polygon class="cls-6" points="39.04 27.93 39.04 36.07 39.04 36.07 42.42 38.02 42.42 38.02 42.42 25.98 42.42 25.98 39.04 27.93 39.04 27.93"/></g></g></svg>