<svg xmlns="http://www.w3.org/2000/svg" viewBox="0 0 64 64"><defs><style>.cls-1{fill:#fff;opacity:0;}.cls-2{fill:#7b97a6;}.cls-3{fill:#abc0c9;}.cls-4{fill:#e8f4fa;}</style></defs><title>Silver Coin</title><g id="Layer_2" data-name="Layer 2"><g id="Finals"><rect class="cls-1" width="64" height="64"/><path class="cls-2" d="M26.53,4.5H37.47V10c4.43,5,7.3,13,7.3,22s-2.87,17-7.3,22V59.5H26.53C16.46,59.5,8.29,47.19,8.29,32S16.46,4.5,26.53,4.5Z"/><path class="cls-3" d="M44.77,32a40.76,40.76,0,0,1-.27,4.73H8.56A43.1,43.1,0,0,1,8.29,32c0-7.9,2.21-15,5.75-20H39C42.56,17,44.77,24.1,44.77,32Z"/><ellipse class="cls-4" cx="37.47" cy="32" rx="18.24" ry="27.5"/><ellipse class="cls-3" cx="38.72" cy="32" rx="10.13" ry="17.33"/><path class="cls-2" d="M44.65,32c0-8.34-3.45-15.29-8-16.95a6.1,6.1,0,0,1,2.11-.38c5.6,0,10.13,7.76,10.13,17.33S44.32,49.33,38.72,49.33A6.1,6.1,0,0,1,36.61,49C41.2,47.29,44.65,40.34,44.65,32Z"/></g></g></svg>