<svg xmlns="http://www.w3.org/2000/svg" viewBox="0 0 64 64"><defs><style>.cls-1{opacity:0;}.cls-2{fill:#fff;}</style></defs><title>Wing_3 Flat White</title><g id="Layer_2" data-name="Layer 2"><g id="Layer_4" data-name="Layer 4"><g class="cls-1"><rect class="cls-2" width="64" height="64"/></g><path class="cls-2" d="M39.88,18.39C49.65,11.09,56.3,3.91,50.33,4.54c-10.12,1.07-40.65,13.4-42,28.52-.86,9.51.5,14.89,5.26,23.34,4,7.18,5.16.7,5.29-7.48a43.09,43.09,0,0,0,15.65-.3c7.1-1.55,1.6-4.19-4.32-6.14A50.49,50.49,0,0,0,44.29,38c7.66-3.83,1.09-5.33-6.2-5.91a64.79,64.79,0,0,0,14-7.6C62.14,17.19,50.45,17.25,39.88,18.39Z"/></g></g></svg>