<svg xmlns="http://www.w3.org/2000/svg" viewBox="0 0 64 64"><defs><style>.cls-1{opacity:0;}.cls-2{fill:#fff;}.cls-3{fill:#bdccd4;}</style></defs><title>Wing</title><g id="Layer_2" data-name="Layer 2"><g id="Layer_3" data-name="Layer 3"><g class="cls-1"><rect class="cls-2" width="64" height="64"/></g><path class="cls-3" d="M15.9,37.33s19.7-.9,36.15-12.83-25.11-4.23-25.11-4.23L13.29,30.46Z"/><path class="cls-3" d="M15.79,43.11s14.77,1.75,28.5-5.1-18.18-6.25-18.18-6.25L14.69,37.67Z"/><path class="cls-3" d="M10.8,46.93s11.41,4.38,23.72,1.69S21.31,40,21.31,40L11,42.37Z"/><path class="cls-2" d="M13.58,56.41C8.83,48,7.47,42.57,8.32,33.06,9.68,17.94,40.2,5.61,50.33,4.54S34.26,24.88,18.16,31.2C18.16,31.2,21.58,70.63,13.58,56.41Z"/><path class="cls-2" d="M17.43,27.08l-.24,8.33A51.93,51.93,0,0,0,33,29.56C43.94,23.25,17.43,27.08,17.43,27.08Z"/><path class="cls-2" d="M16,30.63l-2.94,7.79a44.92,44.92,0,0,0,15.62-.76C40.18,35,16,30.63,16,30.63Z"/><path class="cls-2" d="M17.86,35.45,13.37,40.1a34.88,34.88,0,0,0,11.36,4.26C33.76,46,17.86,35.45,17.86,35.45Z"/></g></g></svg>