<svg xmlns="http://www.w3.org/2000/svg" viewBox="0 0 64 64"><defs><style>.cls-1{opacity:0;}.cls-2{fill:#1a1a1a;}.cls-3{fill:#bdccd4;}.cls-4{fill:#fff;}</style></defs><title>Wing_1 Outline</title><g id="Layer_2" data-name="Layer 2"><g id="Layer_3" data-name="Layer 3"><g class="cls-1"><rect class="cls-2" width="64" height="64"/></g><path class="cls-2" d="M59.65,18.44c-1.06-3.28-4.48-4.27-8.2-4.53,6.18-6.1,5.35-8.6,4.89-10C56.07,3.13,54.9.5,51,.5c-.33,0-.69,0-1.09.06C38.83,1.73,6,14.61,4.34,32.71c-.9,10.07.5,16.3,5.76,25.66,1.34,2.39,3.28,5.13,6.4,5.13,4.66,0,5.87-5.23,6.22-10.12q1.73.12,3.42.12h0a43.31,43.31,0,0,0,9.23-1c1.56-.34,6.28-1.37,6.5-5.53a4.81,4.81,0,0,0-1-3.2,49.72,49.72,0,0,0,5.16-2.21c1.58-.79,6.39-3.2,5.55-7.5a5.09,5.09,0,0,0-2-3.2q2.49-1.5,4.79-3.16C56.23,26.41,61.09,22.88,59.65,18.44Z"/><path class="cls-3" d="M15.9,37.33s19.7-.9,36.15-12.83-25.11-4.23-25.11-4.23L13.29,30.46Z"/><path class="cls-3" d="M15.79,43.11s14.77,1.75,28.5-5.1-18.18-6.25-18.18-6.25L14.69,37.67Z"/><path class="cls-3" d="M10.8,46.93s11.41,4.38,23.72,1.69S21.31,40,21.31,40L11,42.37Z"/><path class="cls-4" d="M13.58,56.41C8.83,48,7.47,42.57,8.32,33.06,9.68,17.94,40.2,5.61,50.33,4.54S34.26,24.88,18.16,31.2C18.16,31.2,21.58,70.63,13.58,56.41Z"/><path class="cls-4" d="M17.43,27.08l-.24,8.33A51.93,51.93,0,0,0,33,29.56C43.94,23.25,17.43,27.08,17.43,27.08Z"/><path class="cls-4" d="M16,30.63l-2.94,7.79a44.92,44.92,0,0,0,15.62-.76C40.18,35,16,30.63,16,30.63Z"/><path class="cls-4" d="M17.86,35.45,13.37,40.1a34.88,34.88,0,0,0,11.36,4.26C33.76,46,17.86,35.45,17.86,35.45Z"/></g></g></svg>