<svg xmlns="http://www.w3.org/2000/svg" viewBox="0 0 64 64"><defs><style>.cls-1,.cls-2{fill:#1a1a1a;}.cls-1{opacity:0;}.cls-3{fill:#37b9ff;}.cls-4{fill:#fff;}.cls-5{fill:#1778ff;}.cls-6{fill:#7b97a6;}.cls-7{fill:#bdccd4;}</style></defs><title>Deck of Cards Blue Outline</title><g id="Layer_2" data-name="Layer 2"><g id="_001-100" data-name="001-100"><rect class="cls-1" width="64" height="64"/><path class="cls-2" d="M58.24,10.12,52.92,5.73a4,4,0,0,0-2-.87L22.51.54a4.12,4.12,0,0,0-.6,0,4,4,0,0,0-3.84,2.86L4.47,49.15a4,4,0,0,0,1.82,4.59l6.07,3.55a4.18,4.18,0,0,0,1.23.47l28.15,5.66a4.34,4.34,0,0,0,.8.08,4,4,0,0,0,3.84-2.91L59.54,14.3A4,4,0,0,0,58.24,10.12Z"/><path class="cls-3" d="M31.78,14.44h.29l0,0a1.23,1.23,0,0,1,.31.14,1.31,1.31,0,0,1,.27.19,2.73,2.73,0,0,1,.23.25,2.9,2.9,0,0,1,.19.29l0,.08,0,.07,0,.08,0,.08.08-.06.09-.05.08-.06.09,0a2.39,2.39,0,0,1,.34-.21,2.52,2.52,0,0,1,.34-.15,1.61,1.61,0,0,1,.36-.1A2.2,2.2,0,0,1,35,15h.46a1.42,1.42,0,0,1,.38.14,1.24,1.24,0,0,1,.32.23,1.58,1.58,0,0,1,.26.31,3.14,3.14,0,0,1,.19.41,2.66,2.66,0,0,1,.08.33c0,.11,0,.22,0,.34s0,.23,0,.35a2.33,2.33,0,0,1-.08.36v.1l-.1.27c0,.09-.08.18-.13.27l-.15.25a2.2,2.2,0,0,1-.17.25,3.47,3.47,0,0,1-.3.37c-.1.12-.21.24-.32.35l-.35.32c-.12.1-.24.21-.37.3s-.35.27-.53.4-.35.25-.54.37l-.55.34-.57.32-.28.16-.28.15-.28.14-.28.15-.17-.22-.17-.22-.18-.23-.16-.23c-.12-.15-.23-.31-.33-.46s-.21-.32-.31-.49-.19-.33-.29-.5-.17-.35-.25-.53-.11-.26-.16-.39-.1-.26-.14-.39-.07-.28-.1-.42l-.06-.43a2.44,2.44,0,0,1,0-.27,2.62,2.62,0,0,1,0-.28l0-.28.06-.28a2.35,2.35,0,0,1,.14-.37,2.31,2.31,0,0,1,.18-.35,3.71,3.71,0,0,1,.23-.32,2.57,2.57,0,0,1,.28-.29l0,0,0,0,0,0,0,0,.23-.18.24-.14.24-.1.24-.08.17,0h.5Z"/><path class="cls-4" d="M50.37,8.81,36.86,56,8.31,50.29,21.91,4.5Zm-39,39.39,23.91,4.69L47.28,11,23.43,7.3,11.32,48.2"/><path class="cls-4" d="M44.2,13.14l-2.75,9.55a26.16,26.16,0,0,1-2.9,1.52,18.93,18.93,0,0,1-2.81,1,13.87,13.87,0,0,1-2.71.43,11.12,11.12,0,0,1-2.59-.13A11,11,0,0,1,28,24.78a10.75,10.75,0,0,1-2.17-1.26,12.9,12.9,0,0,1-1.95-1.77,17.64,17.64,0,0,1-1.72-2.26L25,10.13ZM29.13,17.51l.06.43c0,.14.06.28.1.42s.09.26.14.39.1.26.16.39.16.36.25.53.19.34.29.5.2.33.31.49.21.31.33.46a2,2,0,0,0,.17.23c0,.08.11.15.17.23l.17.22.17.22.28-.15.28-.14.28-.15.28-.16.57-.32.55-.34c.19-.12.37-.24.54-.37s.36-.26.53-.4.25-.2.37-.3l.35-.32c.11-.11.22-.23.32-.35a3.47,3.47,0,0,0,.3-.37,2.2,2.2,0,0,0,.17-.25l.15-.25c0-.09.09-.18.13-.27l.1-.27v-.1c0-.12,0-.24.07-.36s0-.24,0-.35,0-.23,0-.34a2.66,2.66,0,0,0-.08-.33,3.14,3.14,0,0,0-.19-.41,1.58,1.58,0,0,0-.26-.31,1.24,1.24,0,0,0-.32-.23A1.42,1.42,0,0,0,35.5,15H35a2.2,2.2,0,0,0-.36,0,1.61,1.61,0,0,0-.36.1,2.52,2.52,0,0,0-.34.15,2.39,2.39,0,0,0-.34.21l-.09,0-.08.06-.09.05-.08.06,0-.08,0-.08,0-.07,0-.08a2.9,2.9,0,0,0-.19-.29,2.73,2.73,0,0,0-.23-.25,1.31,1.31,0,0,0-.27-.19,1.23,1.23,0,0,0-.31-.14l0,0h-.79l-.17,0-.24.08-.24.1-.24.14-.23.18,0,0,0,0,0,0,0,0a2.57,2.57,0,0,0-.28.29,3.71,3.71,0,0,0-.23.32,2.31,2.31,0,0,0-.18.35,2.35,2.35,0,0,0-.14.37l-.06.28,0,.28a2.62,2.62,0,0,0,0,.28,2.44,2.44,0,0,0,0,.27"/><path class="cls-4" d="M28,33.85a10.6,10.6,0,0,1,2.42.74,11.53,11.53,0,0,1,2.21,1.3,14.45,14.45,0,0,1,2,1.85,18.47,18.47,0,0,1,1.79,2.36l-2.31,8L14.84,44.4l2.31-7.84A25.11,25.11,0,0,1,20,35.07a17.44,17.44,0,0,1,2.76-1,13.3,13.3,0,0,1,2.67-.41A11.06,11.06,0,0,1,28,33.85Z"/><path class="cls-5" d="M47.28,11,35.23,52.89,11.32,48.2,23.43,7.3ZM22.19,19.49a17.64,17.64,0,0,0,1.72,2.26,12.9,12.9,0,0,0,1.95,1.77A10.75,10.75,0,0,0,28,24.78a11,11,0,0,0,2.41.72,11.12,11.12,0,0,0,2.59.13,13.87,13.87,0,0,0,2.71-.43,18.93,18.93,0,0,0,2.81-1,26.16,26.16,0,0,0,2.9-1.52l2.75-9.55L25,10.13l-2.77,9.36M14.84,44.4l19.28,3.7,2.31-8a18.47,18.47,0,0,0-1.79-2.36,13.86,13.86,0,0,0-2-1.85,11.53,11.53,0,0,0-2.21-1.3A10.6,10.6,0,0,0,28,33.85a11.06,11.06,0,0,0-2.58-.15,13.3,13.3,0,0,0-2.67.41,17.44,17.44,0,0,0-2.76,1,25.11,25.11,0,0,0-2.84,1.49L14.84,44.4"/><polygon class="cls-6" points="14.38 53.83 8.31 50.29 36.86 55.97 42.53 59.5 14.38 53.83"/><polygon class="cls-7" points="42.53 59.5 36.86 55.97 50.37 8.81 55.69 13.21 42.53 59.5"/></g></g></svg>