<svg xmlns="http://www.w3.org/2000/svg" viewBox="0 0 64 64"><defs><style>.cls-1,.cls-2{fill:#fff;}.cls-1{opacity:0;}</style></defs><title>Deck of Cards White</title><g id="Layer_2" data-name="Layer 2"><g id="Finals"><rect class="cls-1" width="64" height="64"/><path class="cls-2" d="M29.17,18c0,.14.06.27.1.41s.09.27.14.4.1.26.16.38.16.36.25.53.19.34.29.5.2.33.31.49.21.31.33.47l.16.22.18.23.17.22c.06.08.12.15.17.23l.28-.15.28-.15.28-.15.28-.15.57-.32c.19-.11.37-.23.55-.35a5.14,5.14,0,0,0,.54-.37c.18-.12.36-.26.53-.39l.37-.31.35-.32c.11-.11.22-.22.32-.34a3.57,3.57,0,0,0,.3-.38l.17-.24.15-.26a1.51,1.51,0,0,0,.12-.26c0-.09.08-.19.11-.28v-.1a2.33,2.33,0,0,0,.08-.36c0-.12,0-.23,0-.35s0-.23,0-.34a2,2,0,0,0-.09-.33,1.72,1.72,0,0,0-.19-.41,1.26,1.26,0,0,0-.25-.31,1.24,1.24,0,0,0-.32-.23,1.88,1.88,0,0,0-.38-.14H35a2.19,2.19,0,0,0-.36,0,2.42,2.42,0,0,0-.36.1,2.07,2.07,0,0,0-.34.15,2.39,2.39,0,0,0-.34.21l-.09.05-.08.06-.09.05-.08.06a.35.35,0,0,1-.05-.08l0-.07a.35.35,0,0,0,0-.08.59.59,0,0,1,0-.08,2.9,2.9,0,0,0-.19-.29,1.75,1.75,0,0,0-.23-.24,1.35,1.35,0,0,0-.27-.2,1.23,1.23,0,0,0-.31-.14l0,0h-.29l-.17,0h-.17l-.17,0a.45.45,0,0,0-.16,0,1.09,1.09,0,0,0-.24.07l-.24.1c-.08.05-.16.09-.24.15l-.23.17,0,0,0,0,0,0,0,0a3.83,3.83,0,0,0-.28.29,3.71,3.71,0,0,0-.23.32,2.31,2.31,0,0,0-.18.35,2.35,2.35,0,0,0-.14.37l-.06.29,0,.27a2.61,2.61,0,0,0,0,.28,2.72,2.72,0,0,0,0,.28C29.12,17.68,29.15,17.83,29.17,18Z"/><path class="cls-2" d="M49.53,8.71,22.75,4.65a1,1,0,0,0-1.11.71L8.51,49.56A1,1,0,0,0,9,50.71l5,2.89a2.94,2.94,0,0,0,.92.36l26.76,5.38a1,1,0,0,0,1.16-.71L55.49,13.86a1,1,0,0,0-.32-1L51,9.36A3,3,0,0,0,49.53,8.71ZM34.1,48.12,14.82,44.43l2.31-7.85A24.17,24.17,0,0,1,20,35.1a17.51,17.51,0,0,1,2.76-1,13.3,13.3,0,0,1,2.67-.41,11.09,11.09,0,0,1,5,.89,11.58,11.58,0,0,1,2.21,1.31,13.22,13.22,0,0,1,2,1.84,17.64,17.64,0,0,1,1.8,2.36Zm7.32-25.41a23.71,23.71,0,0,1-2.89,1.52,18.64,18.64,0,0,1-2.82,1,13.8,13.8,0,0,1-2.7.44,11.69,11.69,0,0,1-2.59-.14A10.45,10.45,0,0,1,28,24.81a11.25,11.25,0,0,1-2.17-1.26,13,13,0,0,1-1.95-1.78,17.52,17.52,0,0,1-1.72-2.25l2.77-9.37,19.24,3Z"/></g></g></svg>