<svg xmlns="http://www.w3.org/2000/svg" viewBox="0 0 64 64"><defs><style>.cls-1{opacity:0;}.cls-2{fill:#1a1a1a;}.cls-3{fill:#ebb369;}.cls-4{fill:#ffdfb5;}.cls-5{fill:#d1864b;}.cls-6{fill:#324652;}.cls-7{fill:#476475;}.cls-8{fill:#7b97a6;}</style></defs><title>Chest Medium 3_1</title><g id="Layer_2" data-name="Layer 2"><g id="_101-200" data-name="101-200"><g class="cls-1"><rect class="cls-2" width="64" height="64"/></g><path class="cls-2" d="M63.27,11.76a4.91,4.91,0,0,0-4.68-6.39,4.32,4.32,0,0,0-1,.1L49.31,7.11h-1.4a5.77,5.77,0,0,0-5.23,3.27H21.32a5.76,5.76,0,0,0-5.23-3.27h-1.4L6.36,5.47a4.32,4.32,0,0,0-1-.1A4.91,4.91,0,0,0,.73,11.75l2.65,8.46L5.07,45,3.31,52.61a4.92,4.92,0,0,0,4.78,6A5.24,5.24,0,0,0,9,58.55l6.56-1.19h1.89a5.75,5.75,0,0,0,3.09-.9h23a5.75,5.75,0,0,0,3.09.9h1.89L55,58.55a5.24,5.24,0,0,0,.88.08,4.92,4.92,0,0,0,4.78-6L58.93,45l1.69-24.78Z"/><polygon class="cls-3" points="12.68 52.46 10.87 14.38 53.13 14.38 51.33 52.46 12.68 52.46"/><rect class="cls-4" x="29.46" y="-4.21" width="5.09" height="42.25" transform="translate(48.92 -15.08) rotate(90)"/><rect class="cls-5" x="23.24" y="23.75" width="17.53" height="39.89" transform="translate(75.7 11.7) rotate(90)"/><rect class="cls-6" x="27.48" y="18.33" width="9.05" height="42.25" transform="translate(71.46 7.46) rotate(90)"/><path class="cls-7" d="M17.42,53.36H11.34a1.8,1.8,0,0,1-1.8-1.68L6.9,13a1.8,1.8,0,0,1,1.8-1.92h7.39a1.81,1.81,0,0,1,1.81,1.74L19.22,51.5A1.8,1.8,0,0,1,17.42,53.36Z"/><path class="cls-7" d="M52.66,53.36H46.58a1.8,1.8,0,0,1-1.8-1.86L46.1,12.85a1.81,1.81,0,0,1,1.81-1.74H55.3A1.8,1.8,0,0,1,57.1,13L54.46,51.68A1.8,1.8,0,0,1,52.66,53.36Z"/><path class="cls-8" d="M37,45.91h-9.9a1.79,1.79,0,0,1-1.8-1.73l-.44-10.92a1.8,1.8,0,0,1,1.8-1.87H37.39a1.8,1.8,0,0,1,1.8,1.87l-.44,10.92A1.79,1.79,0,0,1,37,45.91Z"/><path class="cls-6" d="M33.9,34.37H30.1a.9.9,0,0,0-.9.93l.15,3.88a.91.91,0,0,0,.9.87h.47l.08,2a.89.89,0,0,0,.9.86h.6a.89.89,0,0,0,.9-.86l.08-2h.47a.91.91,0,0,0,.9-.87l.15-3.88A.9.9,0,0,0,33.9,34.37Z"/><path class="cls-8" d="M6.9,13l.89,13.05H18.35L17.9,12.85a1.81,1.81,0,0,0-1.81-1.74H8.7A1.8,1.8,0,0,0,6.9,13Z"/><path class="cls-8" d="M46.1,12.85l-.45,13.23H56.21l.89-13a1.8,1.8,0,0,0-1.8-1.92H47.91A1.81,1.81,0,0,0,46.1,12.85Z"/><path class="cls-6" d="M56.79,53.51l-1.9-8.19a9.48,9.48,0,0,0-6.07,8l6.92,1.25A.91.91,0,0,0,56.79,53.51Z"/><path class="cls-7" d="M49.7,11.11s-.68,6.78,7,8.36l2.8-8.91a.92.92,0,0,0-1.05-1.17Z"/><path class="cls-6" d="M7.21,53.51l1.9-8.19a9.48,9.48,0,0,1,6.07,8L8.26,54.61A.91.91,0,0,1,7.21,53.51Z"/><path class="cls-7" d="M14.3,11.11s.68,6.78-7,8.36l-2.8-8.91a.92.92,0,0,1,1-1.17Z"/></g></g></svg>