<svg xmlns="http://www.w3.org/2000/svg" viewBox="0 0 64 64"><defs><style>.cls-1{fill:none;}.cls-2{fill:#1a1a1a;}.cls-3{fill:#37b9ff;}.cls-4{fill:#5414b3;}.cls-5{fill:#1778ff;}.cls-6{fill:#8ff2ff;}.cls-7{fill:#fff;}</style></defs><title>Lightning Bolt Outline</title><g id="Layer_2" data-name="Layer 2"><g id="Layer_2-2" data-name="Layer 2"><rect class="cls-1" width="64" height="64"/><path class="cls-2" d="M31.22,63.87a6.55,6.55,0,0,1-6.57-6.29A32.08,32.08,0,0,1,24.91,52c-.89.18-1.67.3-2.33.39a6.36,6.36,0,0,1-.87.06,6.6,6.6,0,0,1-6.4-5.15c-2.65-12.05-4-28.22-4.35-32.89A6.57,6.57,0,0,1,13.24,9C21.62,1.77,34.7.34,41.75.13h.19A6.55,6.55,0,0,1,48.5,6.47c.23,6.91-2.06,14.52-4.28,20.17.68-.1,1.32-.15,1.89-.19h.4a6.56,6.56,0,0,1,5.24,2.63,6.5,6.5,0,0,1,1,5.81A63.17,63.17,0,0,1,35.69,62.09,6.5,6.5,0,0,1,31.22,63.87Z"/><path class="cls-3" d="M33,59.19A59,59,0,0,0,49,33.74a2.58,2.58,0,0,0-2.62-3.31,21.71,21.71,0,0,0-9.55,2.85s8.12-14.77,7.71-26.67a2.58,2.58,0,0,0-2.65-2.5c-5.35.16-18.31,1.25-26,7.88a2.62,2.62,0,0,0-.9,2.16c.34,4.53,1.67,20.51,4.27,32.33a2.58,2.58,0,0,0,2.86,2,35,35,0,0,0,8.16-2.18,34.54,34.54,0,0,0-1.59,11.11A2.57,2.57,0,0,0,33,59.19Z"/><path class="cls-4" d="M40.58,31.56l-.4.14A1.93,1.93,0,0,0,40.58,31.56Z"/><path class="cls-5" d="M33,59.19A59,59,0,0,0,49,33.74a2.58,2.58,0,0,0-2.62-3.31,22.12,22.12,0,0,0-5.06.9c3.09-.55,3,6-2.06,12.53-5.43,7-9,2.44-9,2.44a34.54,34.54,0,0,0-1.59,11.11A2.57,2.57,0,0,0,33,59.19Z"/><path class="cls-6" d="M41.9,21.36A43.66,43.66,0,0,0,44.51,6.61a2.61,2.61,0,0,0-2.68-2.5c-5.37.17-18.3,1.27-26,7.88a2.62,2.62,0,0,0-.9,2.16c.28,3.72,1.23,15.17,3,25.7h0c-.59-10.28,1-17.21,3-21.78A17.21,17.21,0,0,1,34.17,7.89C46.67,6.07,41.9,21.35,41.9,21.36Z"/><ellipse class="cls-7" cx="23.6" cy="19.17" rx="6.46" ry="5.24" transform="translate(-2.62 34.57) rotate(-69.52)"/><path class="cls-6" d="M46.35,30.43a21.71,21.71,0,0,0-9.55,2.85s11.43-3.55,12,1l.18-.56A2.58,2.58,0,0,0,46.35,30.43Z"/><path class="cls-5" d="M18.48,42.94c.23,1.21.47,2.4.72,3.54a2.58,2.58,0,0,0,2.86,2,35,35,0,0,0,8.16-2.18l2.18-5.69S20.41,50.4,18.48,42.94Z"/></g></g></svg>