<svg xmlns="http://www.w3.org/2000/svg" viewBox="0 0 64 64"><defs><style>.cls-1{fill:none;}.cls-2{fill:#1a1a1a;}</style></defs><title>Lightning Bolt Flat Black</title><g id="Layer_2" data-name="Layer 2"><g id="Layer_2-2" data-name="Layer 2"><rect class="cls-1" width="64" height="64"/><path class="cls-2" d="M46.41,30.42l-1.06.09-.35,0-.8.11-.45.08-.8.16-.5.12-.82.22-.3.08h0a20.91,20.91,0,0,0-4.56,2,80.35,80.35,0,0,0,5.63-13.54c0-.11.07-.21.1-.32.16-.52.31-1.05.46-1.59,0-.09,0-.18.07-.28.14-.5.26-1,.38-1.52a1.46,1.46,0,0,0,0-.2c.13-.55.25-1.1.35-1.65,0-.12,0-.23.07-.35.11-.56.2-1.11.29-1.67a1.23,1.23,0,0,1,0-.19c.07-.52.14-1,.19-1.55l0-.3c0-.55.08-1.09.1-1.63,0-.11,0-.22,0-.33,0-.56,0-1.11,0-1.66A2.58,2.58,0,0,0,41.9,4h0l-.59,0H40.8l-.69,0-.57,0-.71,0-.69,0-.77.08-.74.07-.92.11-.7.09-1,.15-.72.1L32.35,5l-.82.15-1,.2-.86.18-1,.25L27.87,6c-.33.08-.65.19-1,.28L26,6.53l-1,.35-.84.28-1,.41-.8.32-1,.49c-.25.12-.5.22-.75.35s-.68.37-1,.56l-.69.38c-.35.21-.69.45-1,.68l-.58.38c-.52.37-1,.77-1.51,1.18a2.61,2.61,0,0,0-.91,2.17c0,.21,0,.45.06.7v.15c0,.25,0,.53.06.83l0,.18c.05.63.11,1.35.18,2.14l0,.21c0,.4.07.82.11,1.26l0,.12q.06.66.12,1.35v.11q.07.71.15,1.47l0,.22c0,.52.11,1.05.17,1.59v0L16,26.11l0,.14c.06.56.12,1.12.19,1.7l0,.23c.14,1.18.29,2.39.45,3.62l0,.18c.08.6.16,1.21.25,1.81L17,34c.17,1.24.35,2.47.55,3.71a2.34,2.34,0,0,0,0,.26c.09.6.19,1.2.29,1.8v.09h0c.18,1.05.36,2.1.56,3.12h0v0c.1.54.21,1.07.32,1.6,0,.12,0,.23.07.35.11.53.22,1.06.33,1.57a2.6,2.6,0,0,0,2.87,2,34.58,34.58,0,0,0,8.2-2.2,34.89,34.89,0,0,0-1.61,11.16A2.59,2.59,0,0,0,33,59.3a59.39,59.39,0,0,0,15.9-25h0c.06-.19.12-.37.17-.56A2.58,2.58,0,0,0,46.41,30.42Z"/></g></g></svg>