<svg xmlns="http://www.w3.org/2000/svg" viewBox="0 0 64 64"><defs><style>.cls-1,.cls-2{fill:#1a1a1a;}.cls-1{opacity:0;}.cls-3{fill:#fec92b;}.cls-4{fill:#5414b3;}.cls-5{fill:#fc9504;}.cls-6{fill:#fee854;}.cls-7{fill:#fff;}</style></defs><title>Lightning Bolt Yellow Outline</title><g id="Layer_2" data-name="Layer 2"><g id="_001-100" data-name="001-100"><rect class="cls-1" width="64" height="64"/><path class="cls-2" d="M31.22,63.5a6.48,6.48,0,0,1-6.49-6.22A32.39,32.39,0,0,1,25,51.8c-.88.18-1.65.3-2.3.39a6.33,6.33,0,0,1-.86.06,6.52,6.52,0,0,1-6.33-5.09c-2.61-11.91-3.95-27.89-4.3-32.51a6.55,6.55,0,0,1,2.25-5.41C21.74,2.12,34.66.71,41.63.5h.19A6.46,6.46,0,0,1,48.3,6.77c.24,6.83-2,14.34-4.22,19.93.67-.09,1.3-.15,1.86-.19h.4a6.49,6.49,0,0,1,5.18,2.61,6.42,6.42,0,0,1,1,5.73,62.36,62.36,0,0,1-16.9,26.9A6.43,6.43,0,0,1,31.22,63.5Z"/><path class="cls-3" d="M33,58.87A58.32,58.32,0,0,0,48.77,33.72a2.55,2.55,0,0,0-2.59-3.28,21.45,21.45,0,0,0-9.44,2.82s8-14.59,7.63-26.36a2.55,2.55,0,0,0-2.62-2.46C36.46,4.6,23.65,5.68,16,12.23a2.55,2.55,0,0,0-.89,2.13c.34,4.48,1.65,20.27,4.22,32a2.54,2.54,0,0,0,2.82,2,34.64,34.64,0,0,0,8.07-2.16,34.28,34.28,0,0,0-1.58,11A2.55,2.55,0,0,0,33,58.87Z"/><path class="cls-4" d="M40.48,31.56l-.39.14A1.56,1.56,0,0,0,40.48,31.56Z"/><path class="cls-5" d="M33,58.87A58.32,58.32,0,0,0,48.77,33.72a2.55,2.55,0,0,0-2.59-3.28,22.23,22.23,0,0,0-5,.9c3-.54,3,5.93-2,12.39-5.36,6.91-8.9,2.4-8.9,2.4a34.28,34.28,0,0,0-1.58,11A2.55,2.55,0,0,0,33,58.87Z"/><path class="cls-6" d="M41.78,21.48A43.46,43.46,0,0,0,44.37,6.9a2.58,2.58,0,0,0-2.65-2.46C36.41,4.6,23.63,5.69,16,12.23a2.55,2.55,0,0,0-.89,2.13c.28,3.68,1.21,15,3,25.4h0c-.58-10.16,1-17,3-21.53A17,17,0,0,1,34.15,8.17C46.5,6.38,41.79,21.48,41.78,21.48Z"/><ellipse class="cls-7" cx="23.69" cy="19.32" rx="6.38" ry="5.18" transform="translate(-2.7 34.75) rotate(-69.52)"/><path class="cls-6" d="M46.18,30.44a21.45,21.45,0,0,0-9.44,2.82s11.3-3.5,11.85,1l.18-.56A2.55,2.55,0,0,0,46.18,30.44Z"/><path class="cls-5" d="M18.64,42.82c.22,1.19.46,2.36.71,3.49a2.54,2.54,0,0,0,2.82,2,34.64,34.64,0,0,0,8.07-2.16l2.16-5.62S20.55,50.18,18.64,42.82Z"/></g></g></svg>