<?xml version="1.0" encoding="UTF-8"?>
<svg id="Layer_2" data-name="Layer 2" xmlns="http://www.w3.org/2000/svg" viewBox="0 0 64 64">
  <defs>
    <style>
      .cls-1 {
        fill: #cef;
      }

      .cls-2 {
        fill: #37b9ff;
      }

      .cls-3 {
        fill: #e6f7ff;
      }

      .cls-4 {
        fill: #1a1a1a;
        opacity: 0;
      }

      .cls-5 {
        fill: #96dbff;
      }
    </style>
  </defs>
  <g id="No_outline" data-name="No outline">
    <g id="Frozen_Clock" data-name="Frozen Clock">
      <rect class="cls-4" width="64" height="64"/>
      <g>
        <path class="cls-2" d="M8.62,42.8l6.05,15c.34,.85,1.55,.83,1.87-.03l3.94-10.77c.92-2.8-5.16-7.33-7.97-8.19l-3.88,4Z"/>
        <path class="cls-2" d="M56.07,29.21c-3.06-13.29-16.32-21.59-29.61-18.53-9.21,2.12-16.41,9.31-18.53,18.53h-.64v5.58c0,13.65,11.06,24.71,24.71,24.71s24.71-11.06,24.71-24.71v-5.58h-.64Z"/>
        <path class="cls-5" d="M32,4.5C18.35,4.5,7.29,15.56,7.29,29.21h0c0,.85,.04,1.69,.13,2.53L34.51,4.64c-.82-.08-1.66-.14-2.51-.14Z"/>
        <path class="cls-5" d="M51.72,14.33L17.11,48.94c10.89,8.22,26.39,6.06,34.61-4.83,6.65-8.81,6.65-20.97,0-29.78Z"/>
        <path class="cls-1" d="M34.51,4.64L7.42,31.74c.7,6.83,4.21,13.06,9.69,17.2L51.72,14.33c-4.14-5.48-10.38-8.99-17.21-9.69Z"/>
        <g>
          <path class="cls-1" d="M21.8,44.25c2.91,1.98,6.42,3.13,10.2,3.13,10.04,0,18.17-8.13,18.17-18.17,0-3.78-1.16-7.29-3.13-10.2l-25.24,25.24Z"/>
          <path class="cls-1" d="M14.4,24.75l13.13-13.14c-6.45,1.63-11.51,6.69-13.13,13.14Z"/>
          <path class="cls-3" d="M32,11.04c-1.54,0-3.03,.21-4.46,.58l-13.13,13.14c-.36,1.43-.57,2.92-.57,4.46,0,6.25,3.16,11.77,7.97,15.04l25.24-25.24c-3.27-4.81-8.78-7.97-15.04-7.97Z"/>
        </g>
        <path class="cls-2" d="M39.29,33.05l-5.82-4.12v-11.13c0-1.36-1.11-2.47-2.47-2.47s-2.47,1.11-2.47,2.47v11.92c-.09,.5-.02,1.02,.19,1.48,0,.05,.05,.1,.07,.16,.03,.05,.06,.1,.09,.15,.25,.44,.64,.79,1.1,1l6.46,4.57c1.19,.67,2.7,.24,3.36-.94,.57-1.01,.35-2.28-.51-3.06v-.03Z"/>
        <path class="cls-5" d="M26.52,10.05l-6.48,18.23c-.32,.9-1.59,.88-1.89-.02l-3.45-10.48c-.92-2.8,.63-5.8,3.45-6.67l8.38-1.07Z"/>
        <path class="cls-5" d="M56.71,29.21v5.94c0,2.31-.17,4.61-.52,6.9l-1.89,12.56c-.16,1.08-1.69,1.16-1.96,.1l-2.48-9.71,6.84-15.78Z"/>
      </g>
    </g>
  </g>
</svg>