<?xml version="1.0" encoding="UTF-8"?>
<svg id="Layer_2" data-name="Layer 2" xmlns="http://www.w3.org/2000/svg" viewBox="0 0 64 64">
  <defs>
    <style>
      .cls-1 {
        fill: #606060;
        opacity: 0;
      }

      .cls-2 {
        fill: #1a1a1a;
      }
    </style>
  </defs>
  <g id="Black">
    <g id="Frozen_Clock_Flat_Black" data-name="Frozen Clock Flat Black">
      <rect class="cls-1" width="64" height="64"/>
      <g>
        <path class="cls-2" d="M51.72,14.33c-4.14-5.48-10.38-8.99-17.21-9.69-.82-.08-1.66-.14-2.51-.14C18.35,4.5,7.29,15.56,7.29,29.21v5.58c0,2.8,.47,5.49,1.33,8h0s.04,.1,.04,.1c.26,.76,.57,1.51,.9,2.24l5.1,12.66c.34,.85,1.55,.83,1.87-.03l1.06-2.9c4.06,2.92,9.03,4.64,14.41,4.64,7.77,0,14.7-3.59,19.23-9.19l1.12,4.4c.27,1.06,1.8,.98,1.96-.1l1.89-12.56c.34-2.28,.52-4.59,.52-6.9v-5.91c0-5.25-1.66-10.5-4.99-14.91ZM32,47.38c-3.78,0-7.29-1.16-10.2-3.13-4.81-3.27-7.97-8.78-7.97-15.04,0-1.54,.21-3.03,.57-4.46,.32-1.28,.79-2.51,1.37-3.67l2.36,7.17c.3,.9,1.57,.92,1.89,.02l5.73-16.1c.58-.21,1.17-.41,1.78-.56,1.43-.36,2.92-.58,4.46-.58,6.25,0,11.77,3.16,15.04,7.97,1.98,2.91,3.13,6.42,3.13,10.2,0,10.04-8.13,18.17-18.17,18.17Z"/>
        <path class="cls-2" d="M39.29,33.05l-5.82-4.12v-11.13c0-1.36-1.11-2.47-2.47-2.47s-2.47,1.11-2.47,2.47v11.92c-.09,.5-.02,1.02,.19,1.48,0,.05,.05,.1,.07,.16,.03,.05,.06,.1,.09,.15,.25,.44,.64,.79,1.1,1l6.46,4.57c1.19,.67,2.7,.24,3.36-.94,.57-1.01,.35-2.28-.51-3.06v-.03Z"/>
      </g>
    </g>
  </g>
</svg>