<svg xmlns="http://www.w3.org/2000/svg" viewBox="0 0 64 64"><defs><style>.cls-1{fill:#1a1a1a;opacity:0;}.cls-2{fill:#fee854;}.cls-3{fill:#fec92b;}</style></defs><title>Pointing Hand</title><g id="Layer_2" data-name="Layer 2"><g id="Finals"><rect class="cls-1" width="64" height="64"/><path class="cls-2" d="M51.12,17.81a5,5,0,0,0-8.86-.67,5,5,0,0,0-9.49,2.55,5,5,0,0,0-9.44,2.62L17.22,7.58A5,5,0,1,0,8,11.39l8.84,21.34h0l1,2.39a5.07,5.07,0,0,0-1.73.37A5,5,0,0,0,13.42,42l.22.52A31.05,31.05,0,0,0,28.86,58.61a9.09,9.09,0,0,0,7.4.2l14.49-6a9.05,9.05,0,0,0,5.59-8.16,63.36,63.36,0,0,0-4.82-25.88l-.4-1Z"/><path class="cls-3" d="M27.1,28.78a.36.36,0,0,1-.28-.67,36.83,36.83,0,0,1,3.87-2.06,49.45,49.45,0,0,1,11.72-3.68,39.19,39.19,0,0,1,4.32-.53.37.37,0,0,1,.13.72c-1.34.58-2.69,1.07-4,1.57-1.91.68-3.82,1.33-5.74,1.92s-3.84,1.17-5.79,1.69C29.91,28.11,28.52,28.47,27.1,28.78Z"/><path class="cls-3" d="M50.75,52.81a9.06,9.06,0,0,0,5.59-8.16A61.65,61.65,0,0,0,56,36.72,30.37,30.37,0,0,1,44.39,49.38c-11.13,6.76-21.19,3-27.89-1.52A31,31,0,0,0,28.86,58.61a9.09,9.09,0,0,0,7.4.2Z"/></g></g></svg>