<svg xmlns="http://www.w3.org/2000/svg" viewBox="0 0 64 64"><defs><style>.cls-1,.cls-2{fill:#1a1a1a;}.cls-1{opacity:0;}.cls-3{fill:#fee854;}.cls-4{fill:#fec92b;}</style></defs><title>Pointing Hand Outline</title><g id="Layer_2" data-name="Layer 2"><g id="Finals"><rect class="cls-1" width="64" height="64"/><path class="cls-2" d="M32.79,63.5a13.2,13.2,0,0,1-5.66-1.29A35,35,0,0,1,9.94,44.05l-.21-.52a9,9,0,0,1,2.88-10.6l-8.29-20A9,9,0,0,1,9.18,1.19,8.88,8.88,0,0,1,12.62.5a9,9,0,0,1,8.3,5.55l3.25,7.84c.22-.12.45-.22.68-.32a9,9,0,0,1,3.44-.68A8.91,8.91,0,0,1,31,13.3a8.92,8.92,0,0,1,3.32-2.41,9.05,9.05,0,0,1,3.44-.68,8.92,8.92,0,0,1,4.86,1.43l.5-.23a9,9,0,0,1,11.74,4.86l.4,1a67.16,67.16,0,0,1,5.12,27.5A13.06,13.06,0,0,1,52.28,56.5l-14.49,6a13,13,0,0,1-5,1Z"/><path class="cls-3" d="M51.12,17.81a5,5,0,0,0-8.86-.67,5,5,0,0,0-9.49,2.55,5,5,0,0,0-9.44,2.62L17.22,7.58A5,5,0,1,0,8,11.39l8.84,21.34h0l1,2.39A5,5,0,0,0,13.42,42l.22.52A31.05,31.05,0,0,0,28.86,58.61a9.09,9.09,0,0,0,7.4.2l14.49-6a9.05,9.05,0,0,0,5.59-8.16,63.53,63.53,0,0,0-4.82-25.88l-.4-1Z"/><path class="cls-4" d="M27.1,28.78a.36.36,0,0,1-.28-.67,36.83,36.83,0,0,1,3.87-2.06,50.1,50.1,0,0,1,5.75-2.21,51,51,0,0,1,6-1.47,39.19,39.19,0,0,1,4.32-.53.37.37,0,0,1,.13.72c-1.34.58-2.69,1.07-4,1.57-1.91.68-3.82,1.33-5.74,1.92s-3.84,1.17-5.79,1.69C29.91,28.11,28.52,28.47,27.1,28.78Z"/><path class="cls-4" d="M50.75,52.81a9.05,9.05,0,0,0,5.59-8.16A61.65,61.65,0,0,0,56,36.72,30.37,30.37,0,0,1,44.39,49.38c-11.13,6.76-21.2,3-27.89-1.52A30.9,30.9,0,0,0,28.86,58.61a9.09,9.09,0,0,0,7.4.2Z"/></g></g></svg>