<svg xmlns="http://www.w3.org/2000/svg" viewBox="0 0 64 64"><defs><style>.cls-1,.cls-2{fill:#fff;}.cls-1{opacity:0;}</style></defs><title>Pointing Hand White</title><g id="Layer_2" data-name="Layer 2"><g id="Finals"><rect class="cls-1" width="64" height="64"/><path class="cls-2" d="M51.12,17.81a5,5,0,0,0-8.86-.67,5,5,0,0,0-9.49,2.55,5,5,0,0,0-9.44,2.62L17.22,7.58A5,5,0,1,0,8,11.39l8.84,21.34h0l1,2.39a5.07,5.07,0,0,0-1.73.37A5,5,0,0,0,13.42,42l.22.52A31.05,31.05,0,0,0,28.86,58.61a9.09,9.09,0,0,0,7.4.2l14.49-6a9.05,9.05,0,0,0,5.59-8.16,63.36,63.36,0,0,0-4.82-25.88l-.4-1Z"/></g></g></svg>