<svg xmlns="http://www.w3.org/2000/svg" viewBox="0 0 64 64"><defs><style>.cls-1,.cls-2{fill:#1a1a1a;}.cls-1{opacity:0;}.cls-3{fill:#bdccd4;}.cls-4{fill:#009245;}.cls-5{fill:#39b54a;}.cls-6{fill:#65d666;}.cls-7{fill:#fff;}</style></defs><title>Balloon Green Outline</title><g id="Layer_2" data-name="Layer 2"><g id="_001-100" data-name="001-100"><rect class="cls-1" width="64" height="64"/><path class="cls-2" d="M52.28,44.8a19.13,19.13,0,0,0-3.34-.31c-.5,0-1,0-1.42.06a31.36,31.36,0,0,0,7.79-20,24.1,24.1,0,0,0-14.26-22l-.18-.08-.17-.08C40.1,2.19,39.52,2,39,1.79l-.45-.16c-.65-.2-1.29-.36-1.87-.5L36.16,1C35.51.87,34.87.79,34.24.7L33.72.63A23.53,23.53,0,0,0,31.22.5,24.12,24.12,0,0,0,7.13,24.59c0,.49,0,1,0,1.47l0,.42c0,.37.06.73.11,1.19l0,.31c0,.42.12.85.2,1.32a.59.59,0,0,1,0,.13c.1.52.21,1,.36,1.65s.25.94.39,1.45l.05.14c2.14,7.08,7.4,14.75,14.87,18.14a6.19,6.19,0,0,0-.08.95c0,2.3,1.46,4.18,3.87,5.18a11.51,11.51,0,0,0,2.38,3.35,11.69,11.69,0,0,0,8.37,3.21l.81,0c6.28-.33,8.51-4.78,9.59-6.92.16-.31.36-.72.51-1h.18a8.32,8.32,0,0,1,1.47.16,6.22,6.22,0,0,0,1,.08h0a5.56,5.56,0,0,0,1-11Z"/><path class="cls-3" d="M37.79,59.5a7.67,7.67,0,0,1-5.58-2.08c-2.63-2.56-2.55-6.51-2.55-6.68a1.56,1.56,0,0,1,3.12.08A6.69,6.69,0,0,0,34.4,55.2a4.81,4.81,0,0,0,3.83,1.17c2.05-.1,2.62-1,3.6-3,1.23-2.46,2.93-5.84,9.75-4.63A1.56,1.56,0,1,1,51,51.81c-4.54-.8-5.29.69-6.43,3-1,1.9-2.26,4.51-6.21,4.71Z"/><path class="cls-4" d="M35.27,51.76c0,1.09-1.81,2-4.05,2s-4-.89-4-2,1.81-4.95,4-4.95S35.27,50.67,35.27,51.76Z"/><path class="cls-5" d="M51.31,24.59c0,11.1-9,24-20.09,24s-20.09-12.89-20.09-24a20.09,20.09,0,0,1,40.18,0Z"/><path class="cls-6" d="M39.24,6.17A20.09,20.09,0,0,0,11.13,24.59a25.59,25.59,0,0,0,2.61,10.86A13,13,0,0,0,16.94,38c7.71,4.45,18.34.46,23.75-8.91C45.39,21,44.6,11.44,39.24,6.17Z"/><path class="cls-7" d="M25.7,11.65c1.95,1.2,1.19,4.44-.85,7.77s-4.59,5.48-6.54,4.29-2.56-5.29-.51-8.62S23.76,10.46,25.7,11.65Z"/></g></g></svg>