<svg xmlns="http://www.w3.org/2000/svg" viewBox="0 0 64 64"><defs><style>.cls-1{opacity:0;}.cls-2{fill:#fff;}.cls-3{fill:#bdccd4;}.cls-4{fill:#a72d3e;}.cls-5{fill:#e62e49;}</style></defs><title>Balloon Red</title><g id="Layer_2" data-name="Layer 2"><g id="_001-100" data-name="001-100"><g class="cls-1"><rect class="cls-2" width="64" height="64"/></g><path class="cls-3" d="M37.79,59.5a7.67,7.67,0,0,1-5.58-2.08c-2.63-2.56-2.55-6.51-2.55-6.68a1.56,1.56,0,0,1,3.12.08A6.69,6.69,0,0,0,34.4,55.2a4.82,4.82,0,0,0,3.84,1.17c2-.1,2.61-1,3.59-3,1.23-2.46,2.93-5.84,9.75-4.63A1.56,1.56,0,1,1,51,51.81c-4.54-.8-5.29.69-6.43,3-1,1.9-2.26,4.51-6.21,4.71Z"/><path class="cls-4" d="M35.27,51.76c0,1.09-1.81,2-4.05,2s-4-.89-4-2,1.81-4.95,4-4.95S35.27,50.67,35.27,51.76Z"/><path class="cls-4" d="M51.31,24.59c0,11.1-9,24-20.09,24s-20.09-12.89-20.09-24a20.09,20.09,0,0,1,40.18,0Z"/><path class="cls-5" d="M39.24,6.17A20.09,20.09,0,0,0,11.13,24.59a25.59,25.59,0,0,0,2.61,10.86A13,13,0,0,0,16.94,38c7.71,4.45,18.34.46,23.75-8.91C45.39,21,44.6,11.44,39.24,6.17Z"/><path class="cls-2" d="M25.7,11.65c1.95,1.2,1.19,4.44-.85,7.77s-4.59,5.48-6.54,4.29-2.56-5.29-.51-8.62S23.76,10.46,25.7,11.65Z"/></g></g></svg>