<svg xmlns="http://www.w3.org/2000/svg" viewBox="0 0 64 64"><defs><style>.cls-1,.cls-2{fill:#1a1a1a;}.cls-1{opacity:0;}</style></defs><title>Balloon Black</title><g id="Layer_2" data-name="Layer 2"><g id="Finals"><rect class="cls-1" width="64" height="64"/><path class="cls-2" d="M51.59,48.72a9.9,9.9,0,0,0-6.42.6,7.47,7.47,0,0,0-2.86,3.11c-.78,1.42-1.35,3.3-3.08,3.78a4.84,4.84,0,0,1-5.94-2.77c.92-.27,2.08-.82,2-1.93a6.78,6.78,0,0,0-1.54-3.17c8.11-1.42,14.05-9,16.42-16.5,2.57-8.08.69-17-5.89-22.56a20.09,20.09,0,0,0-33,17.82c1.06,9.2,7.78,19.55,17.45,21.24-.66.84-1.83,2.51-1.52,3.67a2,2,0,0,0,1.11,1.11,5.51,5.51,0,0,0,1.1.38c.56.14.62.11.81.67a7.61,7.61,0,0,0,6.91,5.29,6.86,6.86,0,0,0,6.65-3.2c.91-1.47,1.43-3.57,3.13-4.34,1.33-.6,2.74-.24,4.12-.13C53,52,53.6,49.07,51.59,48.72ZM24.86,19.4c-1.08,1.77-3.07,4.75-5.49,4.62-2.24-.13-2.9-3-2.83-4.82a8.71,8.71,0,0,1,3.68-6.69c1.45-1,3.82-1.93,5.49-.88C28.33,13.26,26,17.59,24.86,19.4Z"/></g></g></svg>