<svg xmlns="http://www.w3.org/2000/svg" viewBox="0 0 64 64"><defs><style>.cls-1{fill:#1a1a1a;opacity:0;}.cls-2{fill:#ff8ca9;}.cls-3{fill:#ffbdc6;}.cls-4{fill:#ff3d85;}</style></defs><title>Candy</title><g id="Layer_2" data-name="Layer 2"><g id="Finals"><rect class="cls-1" width="64" height="64"/><path class="cls-2" d="M41.72,32.48s13-6,16.74-3.2-3.53,5.43-.51,9.21-.76,6.45-3.21,7.37c-3.76,1.42-2.6,8.54-8,5.76-4.95-2.55-8.12-13.72-8.12-13.72Z"/><path class="cls-3" d="M59,40.83a4.45,4.45,0,0,0-1-2.26c-4.86-1.92-13.51-.74-8.92-5a13,13,0,0,1,10-3.72,3,3,0,0,0-.6-.56c-3.7-2.79-16.74,3.2-16.74,3.2l-1.27,2.23-.05,3.37s5.68,10.12,8.92,9c1.72-.58-3.45-4.1-1.16-5.63C49.69,40.47,56.23,41,59,40.83Z"/><circle class="cls-4" cx="32.68" cy="32.36" r="14.44"/><path class="cls-2" d="M46.9,29.86A14.43,14.43,0,0,0,26.28,19.42,12,12,0,1,0,46.9,29.86Z"/><ellipse class="cls-3" cx="37.27" cy="26.28" rx="4.23" ry="5.44" transform="translate(-7.67 34.05) rotate(-45)"/><path class="cls-2" d="M25.79,30.81a8.67,8.67,0,0,0-.23-5.42c-1.66-4.35-5.27-12.6-9-13.52-5.29-1.3-1.54,7.38-7.25,7.72-5.9.35-5.52,6.37-3.46,8.81,3.48,4.1-6.23,7.65,2.18,11,3.69,1.47,9.57-1.37,13.19-3.14a8.68,8.68,0,0,0,4.54-5.44Z"/><path class="cls-3" d="M11.79,35.22S22.26,33,24.19,30.54s-9.34-3.81-12.45-7,3.9-8.73,7.83-5.83c2.55,1.87,4.81,5.61,6.08,8l-.09-.28c-1.66-4.35-5.27-12.6-9-13.52-5.29-1.3-1.54,7.38-7.25,7.72-5.9.35-5.52,6.37-3.46,8.81,1.72,2,.21,3.92-.73,5.73Z"/><path class="cls-4" d="M16.35,16.25c.93-3.13.6-4.1.22-4.38-5.28-1.29-1.53,7.38-7.24,7.72-5.9.35-5.52,6.37-3.46,8.81,3.15,3.71-4.54,7,.27,10.06,5.81,1.73,10.3-7,7.18-10.81S14.86,21.27,16.35,16.25Z"/></g></g></svg>