<svg xmlns="http://www.w3.org/2000/svg" viewBox="0 0 64 64"><defs><style>.cls-1,.cls-2{fill:#1a1a1a;}.cls-1{opacity:0;}.cls-3{fill:#ff8ca9;}.cls-4{fill:#ffbdc6;}.cls-5{fill:#ff3d85;}</style></defs><title>Candy Outline</title><g id="Layer_2" data-name="Layer 2"><g id="Finals"><rect class="cls-1" width="64" height="64"/><path class="cls-2" d="M61.81,35.61c2.53-4,2.21-7.17-1-9.53a8.7,8.7,0,0,0-5.34-1.54,23.92,23.92,0,0,0-5.79.85,18.5,18.5,0,0,0-17-11.47,18.21,18.21,0,0,0-7.32,1.52c-2.51-4.37-5-6.77-7.82-7.45a8,8,0,0,0-1.94-.25c-5,0-6,4.74-6.39,6.52-.09.41-.21,1-.33,1.35a8.64,8.64,0,0,0-7.65,5.11,10.42,10.42,0,0,0,1.28,9.87c-.13.27-.31.59-.45.84C1.24,32.89-.13,35.32.87,38.14s3.73,4.2,5.7,5a10.38,10.38,0,0,0,3.85.7,20.41,20.41,0,0,0,6.82-1.41A18.5,18.5,0,0,0,32.68,50.8a18.22,18.22,0,0,0,6.68-1.26,14.93,14.93,0,0,0,5.56,5.64,8.65,8.65,0,0,0,4,1.08h0c4.08,0,5.69-3.38,6.55-5.19a9.33,9.33,0,0,1,.82-1.51c1.39-.54,5.39-2.43,6.5-6.46a7.81,7.81,0,0,0-1.42-6.75C61.49,36.11,61.67,35.82,61.81,35.61Z"/><path class="cls-3" d="M41.72,32.48s13-6,16.74-3.2-3.52,5.43-.51,9.21-.76,6.45-3.21,7.37c-3.76,1.42-2.6,8.54-8,5.76-4.95-2.55-8.12-13.72-8.12-13.72Z"/><path class="cls-4" d="M59,40.83a4.45,4.45,0,0,0-1-2.26c-4.86-1.92-13.5-.74-8.91-5a12.94,12.94,0,0,1,10-3.72,3,3,0,0,0-.6-.56c-3.7-2.79-16.74,3.2-16.74,3.2l-1.27,2.23-.05,3.37s5.68,10.12,8.92,9c1.72-.58-3.45-4.1-1.16-5.63C49.69,40.47,56.23,41,59,40.83Z"/><circle class="cls-5" cx="32.68" cy="32.36" r="14.44"/><path class="cls-3" d="M46.9,29.86A14.45,14.45,0,0,0,32.68,17.92a14.25,14.25,0,0,0-6.39,1.5A12,12,0,1,0,46.9,29.86Z"/><ellipse class="cls-4" cx="37.27" cy="26.28" rx="4.23" ry="5.44" transform="translate(-7.67 34.06) rotate(-45)"/><path class="cls-3" d="M25.79,30.81a8.67,8.67,0,0,0-.23-5.42c-1.66-4.35-5.27-12.6-9-13.52-5.29-1.3-1.54,7.38-7.24,7.72C3.43,19.94,3.81,26,5.88,28.4c3.47,4.1-6.24,7.65,2.17,11,3.69,1.47,9.57-1.37,13.19-3.14a8.65,8.65,0,0,0,4.54-5.44Z"/><path class="cls-4" d="M11.79,35.22S22.26,33,24.19,30.54s-9.33-3.81-12.45-7,3.9-8.73,7.84-5.83c2.54,1.87,4.8,5.61,6.08,8,0-.09-.06-.19-.1-.28-1.66-4.35-5.27-12.6-9-13.52-5.29-1.3-1.54,7.38-7.24,7.72C3.43,19.94,3.81,26,5.88,28.4c1.72,2,.2,3.92-.74,5.73Z"/><path class="cls-5" d="M16.35,16.25c.93-3.13.6-4.1.22-4.38C11.3,10.58,15,19.25,9.34,19.59,3.43,19.94,3.81,26,5.88,28.4c3.15,3.71-4.54,7,.27,10.06,5.8,1.73,10.29-7,7.17-10.81S14.86,21.27,16.35,16.25Z"/><path class="cls-3" d="M41.72,32.48s13-6,16.74-3.2-3.52,5.43-.51,9.21-.76,6.45-3.21,7.37c-3.76,1.42-2.6,8.54-8,5.76-4.95-2.55-8.12-13.72-8.12-13.72Z"/><path class="cls-4" d="M59,40.83a4.45,4.45,0,0,0-1-2.26c-4.86-1.92-13.5-.74-8.91-5a12.94,12.94,0,0,1,10-3.72,3,3,0,0,0-.6-.56c-3.7-2.79-16.74,3.2-16.74,3.2l-1.27,2.23-.05,3.37s5.68,10.12,8.92,9c1.72-.58-3.45-4.1-1.16-5.63C49.69,40.47,56.23,41,59,40.83Z"/><circle class="cls-5" cx="32.68" cy="32.36" r="14.44"/><path class="cls-3" d="M46.9,29.86A14.45,14.45,0,0,0,32.68,17.92a14.25,14.25,0,0,0-6.39,1.5A12,12,0,1,0,46.9,29.86Z"/><ellipse class="cls-4" cx="37.27" cy="26.28" rx="4.23" ry="5.44" transform="translate(-7.67 34.06) rotate(-45)"/><path class="cls-3" d="M25.79,30.81a8.67,8.67,0,0,0-.23-5.42c-1.66-4.35-5.27-12.6-9-13.52-5.29-1.3-1.54,7.38-7.24,7.72C3.43,19.94,3.81,26,5.88,28.4c3.47,4.1-6.24,7.65,2.17,11,3.69,1.47,9.57-1.37,13.19-3.14a8.65,8.65,0,0,0,4.54-5.44Z"/><path class="cls-4" d="M11.79,35.22S22.26,33,24.19,30.54s-9.33-3.81-12.45-7,3.9-8.73,7.84-5.83c2.54,1.87,4.8,5.61,6.08,8,0-.09-.06-.19-.1-.28-1.66-4.35-5.27-12.6-9-13.52-5.29-1.3-1.54,7.38-7.24,7.72C3.43,19.94,3.81,26,5.88,28.4c1.72,2,.2,3.92-.74,5.73Z"/><path class="cls-5" d="M16.35,16.25c.93-3.13.6-4.1.22-4.38C11.3,10.58,15,19.25,9.34,19.59,3.43,19.94,3.81,26,5.88,28.4c3.15,3.71-4.54,7,.27,10.06,5.8,1.73,10.29-7,7.17-10.81S14.86,21.27,16.35,16.25Z"/></g></g></svg>