<svg xmlns="http://www.w3.org/2000/svg" viewBox="0 0 64 64"><defs><style>.cls-1,.cls-2{fill:#1a1a1a;}.cls-1{opacity:0;}.cls-3{fill:#ff8ca9;}.cls-4{fill:#ffbdc6;}.cls-5{fill:#ff3d85;}.cls-6{fill:#37b9ff;}.cls-7{fill:#96dbff;}.cls-8{fill:#1778ff;}</style></defs><title>Candy Blue Outline</title><g id="Layer_2" data-name="Layer 2"><g id="_001-100" data-name="001-100"><rect class="cls-1" width="64" height="64"/><path class="cls-2" d="M61.82,35.61c2.52-4,2.2-7.17-1-9.53a8.65,8.65,0,0,0-5.34-1.54,23.85,23.85,0,0,0-5.79.85,18.44,18.44,0,0,0-24.38-10c-2.51-4.37-5-6.76-7.83-7.45a8.38,8.38,0,0,0-1.93-.25c-5,0-6,4.74-6.4,6.53-.09.41-.21,1-.33,1.35a8.63,8.63,0,0,0-7.65,5.11,10.39,10.39,0,0,0,1.29,9.87c-.14.27-.32.59-.46.84-.82,1.46-2.19,3.9-1.19,6.71s3.74,4.2,5.71,5a10.33,10.33,0,0,0,3.84.69,20.47,20.47,0,0,0,6.83-1.41,18.42,18.42,0,0,0,22.12,7.14,14.91,14.91,0,0,0,5.57,5.63,8.6,8.6,0,0,0,4,1.09h0c4.08,0,5.69-3.38,6.56-5.2a8.86,8.86,0,0,1,.82-1.5c1.38-.55,5.39-2.43,6.5-6.46a7.82,7.82,0,0,0-1.42-6.76C61.49,36.11,61.68,35.83,61.82,35.61Z"/><path class="cls-3" d="M41.73,32.48s13-6,16.74-3.21-3.53,5.44-.51,9.22-.76,6.45-3.21,7.38c-3.76,1.42-2.6,8.54-8,5.76-4.95-2.56-8.12-13.73-8.12-13.73Z"/><path class="cls-4" d="M59,40.84a4.53,4.53,0,0,0-1-2.27c-4.87-1.92-13.51-.74-8.92-5a13,13,0,0,1,10-3.72,3.68,3.68,0,0,0-.6-.57c-3.71-2.78-16.74,3.21-16.74,3.21l-1.27,2.23-.06,3.37s5.68,10.12,8.93,9c1.71-.57-3.45-4.1-1.16-5.63C49.7,40.47,56.24,41,59,40.84Z"/><circle class="cls-5" cx="32.68" cy="32.36" r="14.44"/><path class="cls-3" d="M46.9,29.86A14.43,14.43,0,0,0,26.28,19.42,12,12,0,1,0,46.9,29.86Z"/><ellipse class="cls-4" cx="37.28" cy="26.28" rx="4.23" ry="5.44" transform="translate(-7.67 34.06) rotate(-45)"/><path class="cls-3" d="M25.79,30.81a8.67,8.67,0,0,0-.23-5.42c-1.66-4.36-5.27-12.61-9-13.52-5.29-1.3-1.54,7.37-7.25,7.72-5.9.35-5.52,6.37-3.46,8.81,3.47,4.1-6.24,7.65,2.18,11,3.69,1.47,9.57-1.37,13.19-3.14a8.68,8.68,0,0,0,4.54-5.44Z"/><path class="cls-4" d="M11.79,35.22S22.26,33,24.19,30.54s-9.34-3.81-12.45-7,3.9-8.73,7.83-5.83c2.55,1.87,4.81,5.61,6.09,8,0-.09-.06-.19-.1-.28-1.66-4.36-5.27-12.61-9-13.52-5.29-1.3-1.54,7.37-7.25,7.72-5.9.35-5.52,6.37-3.46,8.81,1.72,2,.21,3.92-.74,5.73Z"/><path class="cls-5" d="M16.35,16.25c.92-3.13.6-4.1.22-4.38-5.28-1.3-1.54,7.37-7.24,7.72-5.9.35-5.52,6.37-3.46,8.81,3.15,3.71-4.54,7,.27,10.06,5.8,1.73,10.3-7,7.18-10.81S14.86,21.27,16.35,16.25Z"/><path class="cls-6" d="M41.73,32.48s13-6,16.74-3.21-3.53,5.44-.51,9.22-.76,6.45-3.21,7.38c-3.76,1.42-2.6,8.54-8,5.76-4.95-2.56-8.12-13.73-8.12-13.73Z"/><path class="cls-7" d="M59,40.84a4.53,4.53,0,0,0-1-2.27c-4.87-1.92-13.51-.74-8.92-5a13,13,0,0,1,10-3.72,3.68,3.68,0,0,0-.6-.57c-3.71-2.78-16.74,3.21-16.74,3.21l-1.27,2.23-.06,3.37s5.68,10.12,8.93,9c1.71-.57-3.45-4.1-1.16-5.63C49.7,40.47,56.24,41,59,40.84Z"/><circle class="cls-8" cx="32.68" cy="32.36" r="14.44"/><path class="cls-6" d="M46.9,29.86A14.43,14.43,0,0,0,26.28,19.42,12,12,0,1,0,46.9,29.86Z"/><ellipse class="cls-7" cx="37.28" cy="26.28" rx="4.23" ry="5.44" transform="translate(-7.67 34.06) rotate(-45)"/><path class="cls-6" d="M25.79,30.81a8.67,8.67,0,0,0-.23-5.42c-1.66-4.36-5.27-12.61-9-13.52-5.29-1.3-1.54,7.37-7.25,7.72-5.9.35-5.52,6.37-3.46,8.81,3.47,4.1-6.24,7.65,2.18,11,3.69,1.47,9.57-1.37,13.19-3.14a8.68,8.68,0,0,0,4.54-5.44Z"/><path class="cls-7" d="M11.79,35.22S22.26,33,24.19,30.54s-9.34-3.81-12.45-7,3.9-8.73,7.83-5.83c2.55,1.87,4.81,5.61,6.09,8,0-.09-.06-.19-.1-.28-1.66-4.36-5.27-12.61-9-13.52-5.29-1.3-1.54,7.37-7.25,7.72-5.9.35-5.52,6.37-3.46,8.81,1.72,2,.21,3.92-.74,5.73Z"/><path class="cls-8" d="M16.35,16.25c.92-3.13.6-4.1.22-4.38-5.28-1.3-1.54,7.37-7.24,7.72-5.9.35-5.52,6.37-3.46,8.81,3.15,3.71-4.54,7,.27,10.06,5.8,1.73,10.3-7,7.18-10.81S14.86,21.27,16.35,16.25Z"/></g></g></svg>