<svg xmlns="http://www.w3.org/2000/svg" viewBox="0 0 64 64"><defs><style>.cls-1,.cls-2{fill:#fff;}.cls-1{opacity:0;}</style></defs><title>Candy White</title><g id="Layer_2" data-name="Layer 2"><g id="Finals"><rect class="cls-1" width="64" height="64"/><path class="cls-2" d="M58.46,29.28C56.31,27.66,51,29,47,30.4A14.41,14.41,0,0,0,23.73,21c-1.87-4.06-4.48-8.51-7.15-9.17-5.29-1.3-1.54,7.38-7.25,7.72-5.9.35-5.52,6.37-3.46,8.81,3.48,4.1-6.23,7.65,2.18,11,3,1.21,7.55-.5,11.07-2.13A14.41,14.41,0,0,0,41,44.15c1.4,3,3.37,6.24,5.76,7.47,5.38,2.78,4.22-4.34,8-5.76,2.45-.92,6.14-3.7,3.21-7.37S62.05,32,58.46,29.28Z"/></g></g></svg>