<?xml version="1.0" encoding="UTF-8"?>
<svg id="Layer_2" data-name="Layer 2" xmlns="http://www.w3.org/2000/svg" viewBox="0 0 64 64">
  <defs>
    <style>
      .cls-1 {
        fill: #dce9f0;
      }

      .cls-2 {
        fill: #f66;
      }

      .cls-3 {
        fill: #a72d3e;
      }

      .cls-4 {
        fill: #8ca0ab;
      }

      .cls-5 {
        fill: #bdccd4;
      }

      .cls-6 {
        fill: none;
      }

      .cls-7 {
        fill: #e62e49;
      }

      .cls-8 {
        fill: #1a1a1a;
      }
    </style>
  </defs>
  <g id="Layer_2-2" data-name="Layer 2">
    <g>
      <rect class="cls-6" x="0" width="64" height="64"/>
      <g>
        <path class="cls-8" d="M63.77,24.89c-.38-1.07-1.19-1.93-2.24-2.36l-12.66-5.26,.54-8.27c.12-1.91-1.12-3.63-2.96-4.12l-4.24-1.13c-.34-.09-.68-.13-1.03-.13-.44,0-.88,.07-1.3,.22L13.4,12.94c-1.11,.38-1.97,1.22-2.4,2.26l-8.24,2.67c-2.05,.67-3.2,2.83-2.61,4.9l6.49,22.83c.28,.98,.92,1.81,1.78,2.33l19.76,11.89c.63,.38,1.35,.57,2.06,.57,.66,0,1.31-.16,1.91-.49l18.97-10.32c.68-.37,1.24-.93,1.6-1.61l10.78-19.86c.54-1,.63-2.17,.26-3.24Z"/>
        <g>
          <polygon class="cls-2" points="4 21.68 34.06 37.46 60 26.22 29.3 13.46 4 21.68"/>
          <polygon class="cls-3" points="34.06 37.46 30.24 56.4 49.22 46.08 60 26.22 34.06 37.46"/>
          <polygon class="cls-7" points="34.06 37.46 4 21.68 10.49 44.51 30.24 56.4 34.06 37.46"/>
          <polygon class="cls-3" points="12.76 22.31 34.06 33.15 51.52 25.58 29.65 16.49 12.76 22.31"/>
          <polygon class="cls-7" points="29.65 16.49 30.81 28.1 37.89 31.48 51.52 25.58 29.65 16.49"/>
          <polygon class="cls-4" points="18.9 34.8 18.9 18.25 45.42 8.73 44.7 19.86 42.7 19.03 43.15 11.87 21.21 19.98 21.31 33.75 18.9 34.8"/>
          <polygon class="cls-1" points="18.9 18.25 14.7 16.72 41.18 7.6 45.42 8.73 18.9 18.25"/>
          <polygon class="cls-5" points="14.7 16.72 15.15 32.86 18.9 34.8 18.9 18.25 14.7 16.72"/>
          <polygon class="cls-5" points="42.7 19.03 39.89 17.86 40.19 12.96 43.15 11.87 42.7 19.03"/>
        </g>
      </g>
    </g>
  </g>
</svg>