<svg xmlns="http://www.w3.org/2000/svg" viewBox="0 0 64 64"><defs><style>.cls-1{fill:none;}.cls-2{fill:#fff;}</style></defs><title>Shop Flat White</title><g id="Layer_2" data-name="Layer 2"><g id="Layer_2-2" data-name="Layer 2"><rect class="cls-1" width="64" height="64"/><path class="cls-2" d="M23.3,34.35H47a4.19,4.19,0,0,0,3.67-2.17l8.78-16A4.19,4.19,0,0,0,55.81,10H15.71l-1.3-3.87A1.66,1.66,0,0,0,12.83,5H5.67A1.67,1.67,0,0,0,4,6.67V8.34A1.67,1.67,0,0,0,5.67,10H9l9.76,21.86a1.09,1.09,0,0,0,.08.15l-3,5.32A5.73,5.73,0,0,0,16,43.2,6,6,0,0,0,21.2,46H52.39a1.67,1.67,0,0,0,1.67-1.67V42.62A1.67,1.67,0,0,0,52.39,41H21a.79.79,0,0,1-.68-.39.77.77,0,0,1,0-.78Z"/><path class="cls-2" d="M22.43,48.94a5,5,0,1,0,5,5A5,5,0,0,0,22.43,48.94Z"/><path class="cls-2" d="M46.78,48.94a5,5,0,1,0,5,5A5,5,0,0,0,46.78,48.94Z"/></g></g></svg>