<svg xmlns="http://www.w3.org/2000/svg" viewBox="0 0 64 64"><defs><style>.cls-1{fill:#1a1a1a;opacity:0;}.cls-2{fill:#d769ff;}.cls-3{fill:#a0f;}.cls-4{fill:#5414b3;}.cls-5{fill:#f2a6ff;}.cls-6{fill:#476475;}.cls-7{fill:#5d7c8c;}</style></defs><title>Shopping Basket Purple</title><g id="Layer_2" data-name="Layer 2"><g id="Layer_3" data-name="Layer 3"><rect class="cls-1" width="64" height="64"/><path class="cls-2" d="M4.54,27.08H59.46L57.3,34.91a2.24,2.24,0,0,1-2.17,1.7H8.43a2.25,2.25,0,0,1-2.18-1.7Z"/><path class="cls-2" d="M54.14,36.61H9.41l4.06,17a2.24,2.24,0,0,0,2.18,1.72H47.9a2.24,2.24,0,0,0,2.18-1.72Z"/><path class="cls-3" d="M10.87,42.73a51.1,51.1,0,0,0,20.91,4.2,51.09,51.09,0,0,0,20.9-4.2l1.46-6.12H9.41Z"/><path class="cls-4" d="M22.72,40.5A1.83,1.83,0,0,0,21,39h-3a1.24,1.24,0,0,0-1.27,1.54l1.87,9.57a1.61,1.61,0,0,0,1.57,1.17h2.59a1.09,1.09,0,0,0,1.2-1.17Z"/><path class="cls-4" d="M33.29,39h-3a1.5,1.5,0,0,0-1.52,1.54l.36,9.57a1.31,1.31,0,0,0,1.38,1.17h2.59a1.33,1.33,0,0,0,1.39-1.17l.35-9.57A1.5,1.5,0,0,0,33.29,39Z"/><path class="cls-4" d="M45.63,39h-3a1.81,1.81,0,0,0-1.76,1.54l-1.17,9.57a1.1,1.1,0,0,0,1.21,1.17h2.58A1.61,1.61,0,0,0,45,50.07L46.9,40.5A1.24,1.24,0,0,0,45.63,39Z"/><path class="cls-5" d="M58.15,28.11H5.85a1.35,1.35,0,0,1-1-2.29L14,16.51a3.56,3.56,0,0,1,2.56-1.08H47.42A3.56,3.56,0,0,1,50,16.51l9.13,9.31A1.35,1.35,0,0,1,58.15,28.11Z"/><polygon class="cls-3" points="53.2 24.91 10.8 24.91 17.3 17.97 46.7 17.97 53.2 24.91"/><polygon class="cls-4" points="17.3 17.97 18.11 24.91 10.8 24.91 17.3 17.97"/><polygon class="cls-4" points="46.7 17.97 45.88 24.91 53.2 24.91 46.7 17.97"/><path class="cls-6" d="M36.45,11.8h-8.9a4.42,4.42,0,0,0-.1,1.36L29,33.21a1.8,1.8,0,0,0,1.79,1.65h2.42A1.8,1.8,0,0,0,35,33.21l1.55-20A4.42,4.42,0,0,0,36.45,11.8Z"/><path class="cls-7" d="M36,10.61l-.74-1.3a1.32,1.32,0,0,0-1.17-.69H29.92a1.32,1.32,0,0,0-1.17.69L28,10.61a4.52,4.52,0,0,0-.46,1.19h8.9A4.52,4.52,0,0,0,36,10.61Z"/></g></g></svg>