<svg xmlns="http://www.w3.org/2000/svg" viewBox="0 0 64 64"><defs><style>.cls-1,.cls-2{fill:#1a1a1a;}.cls-1{opacity:0;}.cls-3{fill:#e62e49;}.cls-4{fill:#c62d43;}.cls-5{fill:#9e0a30;}.cls-6{fill:#ff7a6e;}.cls-7{fill:#a72d3e;}.cls-8{fill:#476475;}.cls-9{fill:#5d7c8c;}</style></defs><title>Shopping Basket Red Outline</title><g id="Layer_2" data-name="Layer 2"><g id="Layer_3" data-name="Layer 3"><rect class="cls-1" width="64" height="64"/><path class="cls-2" d="M62,23l-9.13-9.31a7.62,7.62,0,0,0-5.42-2.28h-7c0-.18-.06-.36-.1-.53a8.63,8.63,0,0,0-.88-2.26l-.73-1.3a5.35,5.35,0,0,0-4.66-2.72H29.92a5.35,5.35,0,0,0-4.66,2.72l-.73,1.31a8.3,8.3,0,0,0-.88,2.25c0,.17-.07.35-.1.53h-7a7.62,7.62,0,0,0-5.42,2.28L2,23A5.32,5.32,0,0,0,.56,27.46a4,4,0,0,0,.07.48l1.74,7.94a6.23,6.23,0,0,0,3.78,4.3l3.43,14.4a6.22,6.22,0,0,0,6.07,4.8H47.9A6.22,6.22,0,0,0,54,54.58l3.43-14.4A6.16,6.16,0,0,0,61.16,36l2.16-7.82a4.16,4.16,0,0,0,.12-.69A5.31,5.31,0,0,0,62,23Z"/><path class="cls-3" d="M4.54,27.08H59.46L57.3,34.91a2.24,2.24,0,0,1-2.17,1.7H8.43a2.25,2.25,0,0,1-2.18-1.7Z"/><path class="cls-3" d="M54.14,36.61H9.41l4.06,17a2.24,2.24,0,0,0,2.18,1.72H47.9a2.24,2.24,0,0,0,2.18-1.72Z"/><path class="cls-4" d="M10.87,42.73a51.1,51.1,0,0,0,20.91,4.2,51.09,51.09,0,0,0,20.9-4.2l1.46-6.12H9.41Z"/><path class="cls-5" d="M22.72,40.5A1.83,1.83,0,0,0,21,39h-3a1.24,1.24,0,0,0-1.27,1.54l1.87,9.57a1.61,1.61,0,0,0,1.57,1.17h2.59a1.09,1.09,0,0,0,1.2-1.17Z"/><path class="cls-5" d="M33.29,39h-3a1.5,1.5,0,0,0-1.52,1.54l.36,9.57a1.31,1.31,0,0,0,1.38,1.17h2.59a1.33,1.33,0,0,0,1.39-1.17l.35-9.57A1.5,1.5,0,0,0,33.29,39Z"/><path class="cls-5" d="M45.63,39h-3a1.81,1.81,0,0,0-1.76,1.54l-1.17,9.57a1.1,1.1,0,0,0,1.21,1.17h2.58A1.61,1.61,0,0,0,45,50.07L46.9,40.5A1.24,1.24,0,0,0,45.63,39Z"/><path class="cls-6" d="M58.15,28.11H5.85a1.35,1.35,0,0,1-1-2.29L14,16.51a3.56,3.56,0,0,1,2.56-1.08H47.42A3.56,3.56,0,0,1,50,16.51l9.13,9.31A1.35,1.35,0,0,1,58.15,28.11Z"/><polygon class="cls-4" points="53.2 24.91 10.8 24.91 17.3 17.97 46.7 17.97 53.2 24.91"/><polygon class="cls-7" points="17.3 17.97 18.11 24.91 10.8 24.91 17.3 17.97"/><polygon class="cls-7" points="46.7 17.97 45.88 24.91 53.2 24.91 46.7 17.97"/><path class="cls-8" d="M36.45,11.8h-8.9a4.42,4.42,0,0,0-.1,1.36L29,33.21a1.8,1.8,0,0,0,1.79,1.65h2.42A1.8,1.8,0,0,0,35,33.21l1.55-20A4.42,4.42,0,0,0,36.45,11.8Z"/><path class="cls-9" d="M36,10.61l-.74-1.3a1.32,1.32,0,0,0-1.17-.69H29.92a1.32,1.32,0,0,0-1.17.69L28,10.61a4.52,4.52,0,0,0-.46,1.19h8.9A4.52,4.52,0,0,0,36,10.61Z"/></g></g></svg>