<svg xmlns="http://www.w3.org/2000/svg" viewBox="0 0 64 64"><defs><style>.cls-1,.cls-2{fill:#1a1a1a;}.cls-1{opacity:0;}</style></defs><title>Tower Black</title><g id="Layer_2" data-name="Layer 2"><g id="Finals"><rect class="cls-1" width="64" height="64"/><path class="cls-2" d="M59.11,6c0-1.19-2.09-.91-2.86-.94l-3.87-.16A39.16,39.16,0,0,0,47.66,5c-.69.06-1.61,0-1.82.8a5.73,5.73,0,0,0,0,1.31v5c0,.1.06.51,0,.59s-1.77.05-2.08.05c-2,0-4,0-6,.05V6.57a5.56,5.56,0,0,0,0-1.47c-.23-.83-1.35-.55-2.06-.56H32.79l-5.61,0c-1,0-.94.64-.94,1.42V12.8c-2,0-4.1,0-6.15-.05-.33,0-1.73.15-1.9-.07s0-.63,0-.76c0-1.88,0-3.75,0-5.63,0-.79-.36-1.14-1.16-1.22s-1.83-.17-2.75-.23a68.38,68.38,0,0,0-8,.27c-.87,0-1.39.24-1.42,1.12,0,.45,0,.89,0,1.33v5.23l0,11.7c0,.79-.27,1.65.53,2a10.71,10.71,0,0,0,3,.65c.25,0,1.33,0,1.45.2s0,.58,0,.74v22.3a40.09,40.09,0,0,0,0,4.52c.15,1.23,1.43,1.87,2.44,2.32a24.39,24.39,0,0,0,5,1.47,21.44,21.44,0,0,0,5.2.77,2,2,0,0,0,1.83-2c.19-3.41,0-4.87,0-8.28,0-1.21,0-2.42,0-3.63a8.27,8.27,0,0,1,3.77-6.91c5.11-3.2,11.54.83,11.61,6.63,0,3.43,0,4.85,0,8.28,0,1.29-.07,2.61,0,3.91a2,2,0,0,0,1.84,2,14.29,14.29,0,0,0,2.9-.36c.93-.15,1.87-.31,2.8-.52,2-.43,5.25-1,6.57-2.8.66-.91.32-2.44.32-3.51v-22a10.61,10.61,0,0,1,0-2.7c0-.05,0-.2,0-.24s.88-.12,1.09-.15a24.11,24.11,0,0,0,2.52-.43c.46-.12,1.23-.23,1.41-.74a3.3,3.3,0,0,0,0-.94V20.39l0-12.08Z"/></g></g></svg>