<svg xmlns="http://www.w3.org/2000/svg" viewBox="0 0 64 64"><defs><style>.cls-1{fill:#fff;opacity:0;}.cls-2{fill:#abc0c9;}.cls-3{fill:#7b97a6;}.cls-4{fill:#38586b;}.cls-5{fill:#d3dee3;}</style></defs><title>Tower</title><g id="Layer_2" data-name="Layer 2"><g id="Finals"><rect class="cls-1" width="64" height="64"/><path class="cls-2" d="M9.88,31.88v23h0c0,2,5.23,3.78,12.77,4.59V48a9.35,9.35,0,1,1,18.7,0V59.5c7.54-.81,12.77-2.56,12.77-4.59v-23Z"/><path class="cls-3" d="M32,38.69A9.35,9.35,0,0,0,22.65,48V59.5l3.42-1.4V48.18a5.93,5.93,0,1,1,11.86,0V58.1l3.42,1.4V48A9.35,9.35,0,0,0,32,38.69Z"/><path class="cls-4" d="M37.93,58.1V48.18a5.93,5.93,0,1,0-11.86,0V58.1c1.88.12,3.87.19,5.93.19S36.05,58.22,37.93,58.1Z"/><path class="cls-3" d="M32,12.79c-6.59,0-12.66-.06-17.52-.16v5.44h35V12.63C44.66,12.73,38.59,12.79,32,12.79Z"/><path class="cls-3" d="M45.81,15.81h5.4l-1.05-11-3.5.3a.85.85,0,0,0-.85.84Z"/><path class="cls-3" d="M12.79,15.81h5.4V5.91a.85.85,0,0,0-.85-.84l-3.5-.3Z"/><rect class="cls-3" x="9.88" y="26.05" width="44.24" height="5.83"/><ellipse class="cls-3" cx="32" cy="31.88" rx="22.12" ry="1.99"/><path class="cls-2" d="M58.31,5.11c-2-.12-6.31-.28-8.15-.34a.84.84,0,0,0-.87.84v8.3c-3.35.13-7.27.22-11.53.27v-9a.83.83,0,0,0-.37-.69L32,4.5l-5.39,0a.83.83,0,0,0-.37.69v9c-4.26,0-8.18-.14-11.53-.27V5.61a.84.84,0,0,0-.87-.84C12,4.83,7.72,5,5.69,5.11A.83.83,0,0,0,4.9,6l0,20.1c0,1.19,11.21,2.15,27.13,2.15s27.13-1,27.13-2.15L59.1,6A.83.83,0,0,0,58.31,5.11Z"/><path class="cls-5" d="M9.88,31.88h0v23h0c0,1.6,3.25,3,8.31,4V33.43C13.12,33.07,9.88,32.51,9.88,31.88Z"/><path class="cls-2" d="M9.88,26.05v5.83h0c0,.63,3.24,1.19,8.31,1.55V26.05Z"/><path class="cls-3" d="M45.26,50.32v2.92a1,1,0,0,0,1.16,1,73.62,73.62,0,0,0,7.7-1.6V47.39a73.62,73.62,0,0,1-7.7,1.6A1.4,1.4,0,0,0,45.26,50.32Z"/><path class="cls-2" d="M17.05,45.62V42.69a1.4,1.4,0,0,0-1.16-1.33c-2-.3-4-.69-6-1.16v5.25c2,.47,4,.86,6,1.16A1,1,0,0,0,17.05,45.62Z"/><path class="cls-3" d="M49,42.76v2.93a.92.92,0,0,0,1.17.92c1.31-.29,2.62-.62,3.92-1V40.39c-1.3.35-2.61.68-3.92,1A1.51,1.51,0,0,0,49,42.76Z"/><path class="cls-5" d="M12.79,4.81c-2.1.07-5.39.2-7.1.3A.83.83,0,0,0,4.9,6l0,20.1c0,.6,2.93,1.16,7.92,1.55Z"/></g></g></svg>