<?xml version="1.0" encoding="UTF-8"?>
<svg id="Layer_2" data-name="Layer 2" xmlns="http://www.w3.org/2000/svg" viewBox="0 0 64 64">
  <defs>
    <style>
      .cls-1 {
        fill: #fff;
      }

      .cls-1, .cls-2, .cls-3, .cls-4 {
        stroke-width: 0px;
      }

      .cls-1, .cls-2, .cls-4 {
        fill-rule: evenodd;
      }

      .cls-2 {
        fill: #80bad9;
      }

      .cls-3 {
        opacity: 0;
      }

      .cls-3, .cls-4 {
        fill: #1a1a1a;
      }
    </style>
  </defs>
  <g id="Exports_1" data-name="Exports 1">
    <g>
      <rect class="cls-3" width="64" height="64"/>
      <g>
        <path class="cls-4" d="M29.19,60.9c-3.71,0-6.72-3.22-6.71-7.15v-.97l-8.81,6.77c-1.15.89-2.52,1.35-3.95,1.35-3.72,0-6.73-3.22-6.72-7.15V10.22c0-1.33.35-2.61.99-3.72,1.23-2.13,3.37-3.4,5.73-3.4,1.43,0,2.79.47,3.94,1.36l8.81,6.76v-1c0-1.33.35-2.61.99-3.72,1.23-2.13,3.37-3.4,5.73-3.4,1.43,0,2.79.47,3.94,1.36l25.07,19.24c.72.56,1.33,1.25,1.79,2.05.63,1.1.97,2.36.99,3.65,0,.03,0,5.1,0,5.1-.01,2.3-1.05,4.45-2.78,5.77l-25.07,19.27c-1.15.89-2.52,1.35-3.95,1.35h-.01Z"/>
        <path class="cls-2" d="M57,34.5v-4.99h0s0,0,0,0c0-.6-.14-1.21-.45-1.75-.2-.35-.46-.65-.76-.88L30.71,7.63c-1.25-.96-2.94-.57-3.77.87-.29.51-.45,1.11-.46,1.72v9.11L11.23,7.63c-1.25-.96-2.94-.57-3.77.87-.29.51-.45,1.11-.46,1.72v43.53c0,1.73,1.21,3.14,2.72,3.15.54,0,1.07-.18,1.51-.53l15.25-11.72v9.1c0,1.73,1.21,3.14,2.72,3.15.54,0,1.07-.18,1.51-.53l25.07-19.27c.78-.6,1.21-1.59,1.22-2.6h0Z"/>
        <path class="cls-1" d="M56.54,27.75c-.2-.35-.46-.65-.76-.88L30.71,7.63c-1.25-.96-2.94-.57-3.77.87-.29.51-.45,1.11-.46,1.72v9.11L11.23,7.63c-1.25-.96-2.94-.57-3.77.87-.29.51-.45,1.11-.46,1.72v38.53c0,1.73,1.21,3.14,2.72,3.15.54,0,1.07-.18,1.51-.53l15.25-11.72v9.1c0,1.73,1.21,3.14,2.72,3.15.54,0,1.07-.18,1.51-.53l25.07-19.27c1.25-.96,1.59-2.91.76-4.35Z"/>
      </g>
    </g>
  </g>
</svg>