<?xml version="1.0" encoding="UTF-8"?>
<svg id="Layer_2" data-name="Layer 2" xmlns="http://www.w3.org/2000/svg" viewBox="0 0 64 64">
  <defs>
    <style>
      .cls-1 {
        fill: #fff;
      }

      .cls-1, .cls-2, .cls-3, .cls-4 {
        stroke-width: 0px;
      }

      .cls-1, .cls-2, .cls-4 {
        fill-rule: evenodd;
      }

      .cls-2 {
        fill: #80bad9;
      }

      .cls-3 {
        opacity: 0;
      }

      .cls-3, .cls-4 {
        fill: #1a1a1a;
      }
    </style>
  </defs>
  <g id="Exports_1" data-name="Exports 1">
    <g>
      <rect class="cls-3" width="64" height="64"/>
      <g>
        <path class="cls-4" d="M32.02,63.5c-2.29,0-4.46-1.04-5.79-2.78L6.96,35.65c-.88-1.15-1.35-2.51-1.35-3.93v-5.1c0-.19.01-.38.04-.57.26-2.62,2.08-4.76,4.57-5.64l-3.26-4.24c-.89-1.16-1.36-2.53-1.35-3.97v-5.24c0-.43.07-.84.19-1.23.73-3.03,3.58-5.23,6.95-5.23h38.54c1.33,0,2.61.35,3.72.99,1.66.96,2.81,2.5,3.22,4.29.12.37.18.77.18,1.18v5.08c0,.11,0,.22-.01.33-.03,1.37-.5,2.69-1.34,3.79l-3.26,4.25c.42.15.83.34,1.22.56,1.92,1.1,3.15,2.99,3.36,5.1.02.18.04.36.04.55v5.09c0,1.44-.48,2.79-1.35,3.94l-19.24,25.07c-.55.72-1.24,1.32-2.05,1.79-1.13.65-2.42.99-3.74.99h0Z"/>
        <path class="cls-2" d="M9.6,31.71c0,.53.18,1.06.53,1.5l19.27,25.07c.96,1.25,2.91,1.59,4.35.76.35-.2.65-.46.88-.76l19.24-25.07c.36-.46.52-.99.52-1.5h0v-5.09h0c-.03-.85-.51-1.68-1.39-2.19-.51-.29-1.11-.45-1.72-.46h-5.27l7.86-10.25c.4-.52.55-1.11.51-1.69h.02v-5.09h-.03c-.09-.78-.55-1.53-1.37-2-.51-.29-1.11-.45-1.72-.46H12.75c-1.63,0-2.96,1.08-3.12,2.46h-.03v5.09h.02c0,.06-.02.11-.02.17,0,.54.18,1.07.53,1.51l7.88,10.25h-5.26c-1.7,0-3.09,1.17-3.14,2.64h0v5.09h0Z"/>
        <path class="cls-1" d="M33.75,54.04c.35-.2.65-.46.88-.76l19.24-25.07c.96-1.25.57-2.94-.87-3.77-.51-.29-1.11-.45-1.72-.46h-9.11l11.7-15.25c.96-1.25.57-2.94-.87-3.77-.51-.29-1.11-.45-1.72-.46H12.75c-1.73,0-3.14,1.21-3.15,2.72,0,.54.18,1.07.53,1.51l11.72,15.25h-9.1c-1.73,0-3.14,1.21-3.15,2.72,0,.54.18,1.07.53,1.51l19.27,25.07c.96,1.25,2.91,1.59,4.35.76Z"/>
      </g>
    </g>
  </g>
</svg>