<?xml version="1.0" encoding="UTF-8"?>
<svg id="Layer_2" data-name="Layer 2" xmlns="http://www.w3.org/2000/svg" viewBox="0 0 64 64">
  <defs>
    <style>
      .cls-1 {
        opacity: 0;
      }

      .cls-1, .cls-2 {
        fill: #1a1a1a;
        stroke-width: 0px;
      }

      .cls-2 {
        fill-rule: evenodd;
      }
    </style>
  </defs>
  <g id="Exports_1" data-name="Exports 1">
    <g>
      <rect class="cls-1" width="64" height="64"/>
      <path class="cls-2" d="M56.54,29.75c-.2-.35-.46-.65-.76-.88L30.71,9.63c-1.25-.96-2.94-.57-3.77.87-.29.51-.45,1.11-.46,1.72v9.11l-15.25-11.7c-1.25-.96-2.94-.57-3.77.87-.29.51-.45,1.11-.46,1.72v38.53c0,1.73,1.21,3.14,2.72,3.15.54,0,1.07-.18,1.51-.53l15.25-11.72v9.1c0,1.73,1.21,3.14,2.72,3.15.54,0,1.07-.18,1.51-.53l25.07-19.27c1.25-.96,1.59-2.91.76-4.35Z"/>
    </g>
  </g>
</svg>