<?xml version="1.0" encoding="UTF-8"?>
<svg id="Layer_2" data-name="Layer 2" xmlns="http://www.w3.org/2000/svg" viewBox="0 0 64 64">
  <defs>
    <style>
      .cls-1 {
        fill-rule: evenodd;
      }

      .cls-1, .cls-2 {
        fill: #fff;
        stroke-width: 0px;
      }

      .cls-3 {
        opacity: 0;
      }
    </style>
  </defs>
  <g id="Exports_1" data-name="Exports 1">
    <g>
      <g class="cls-3">
        <rect class="cls-2" width="64" height="64"/>
      </g>
      <path class="cls-1" d="M33.75,56.04c.35-.2.65-.46.88-.76l19.24-25.07c.96-1.25.57-2.94-.87-3.77-.51-.29-1.11-.45-1.72-.46h-9.11l11.7-15.25c.96-1.25.57-2.94-.87-3.77-.51-.29-1.11-.45-1.72-.46H12.75c-1.73,0-3.14,1.21-3.15,2.72,0,.54.18,1.07.53,1.51l11.72,15.25h-9.1c-1.73,0-3.14,1.21-3.15,2.72,0,.54.18,1.07.53,1.51l19.27,25.07c.96,1.25,2.91,1.59,4.35.76Z"/>
    </g>
  </g>
</svg>