<?xml version="1.0" encoding="UTF-8"?>
<svg id="Layer_2" data-name="Layer 2" xmlns="http://www.w3.org/2000/svg" viewBox="0 0 64 64">
  <defs>
    <style>
      .cls-1, .cls-2 {
        fill-rule: evenodd;
      }

      .cls-1, .cls-2, .cls-3 {
        stroke-width: 0px;
      }

      .cls-1, .cls-3 {
        fill: #fff;
      }

      .cls-2 {
        fill: #80bad9;
      }

      .cls-4 {
        opacity: 0;
      }
    </style>
  </defs>
  <g id="Exports_1" data-name="Exports 1">
    <g>
      <g class="cls-4">
        <rect class="cls-3" width="64" height="64"/>
      </g>
      <g>
        <path class="cls-2" d="M9.6,31.71c0,.53.18,1.06.53,1.5l19.27,25.07c.96,1.25,2.91,1.59,4.35.76.35-.2.65-.46.88-.76l19.24-25.07c.36-.46.52-.99.52-1.5h0v-5.09h0c-.03-.85-.51-1.68-1.39-2.19-.51-.29-1.11-.45-1.72-.46h-5.27l7.86-10.25c.4-.52.55-1.11.51-1.69h.02v-5.09h-.03c-.09-.78-.55-1.53-1.37-2-.51-.29-1.11-.45-1.72-.46H12.75c-1.63,0-2.96,1.08-3.12,2.46h-.03v5.09h.02c0,.06-.02.11-.02.17,0,.54.18,1.07.53,1.51l7.88,10.25h-5.26c-1.7,0-3.09,1.17-3.14,2.64h0v5.09h0Z"/>
        <path class="cls-1" d="M33.75,54.04c.35-.2.65-.46.88-.76l19.24-25.07c.96-1.25.57-2.94-.87-3.77-.51-.29-1.11-.45-1.72-.46h-9.11l11.7-15.25c.96-1.25.57-2.94-.87-3.77-.51-.29-1.11-.45-1.72-.46H12.75c-1.73,0-3.14,1.21-3.15,2.72,0,.54.18,1.07.53,1.51l11.72,15.25h-9.1c-1.73,0-3.14,1.21-3.15,2.72,0,.54.18,1.07.53,1.51l19.27,25.07c.96,1.25,2.91,1.59,4.35.76Z"/>
      </g>
    </g>
  </g>
</svg>