<?xml version="1.0" encoding="UTF-8"?>
<svg id="Layer_2" data-name="Layer 2" xmlns="http://www.w3.org/2000/svg" viewBox="0 0 64 64">
  <defs>
    <style>
      .cls-1 {
        fill-rule: evenodd;
      }

      .cls-1, .cls-2 {
        fill: #fff;
        stroke-width: 0px;
      }

      .cls-3 {
        opacity: 0;
      }
    </style>
  </defs>
  <g id="Exports_1" data-name="Exports 1">
    <g>
      <g class="cls-3">
        <rect class="cls-2" width="64" height="64"/>
      </g>
      <path class="cls-1" d="M7.46,33.25c.2.35.46.65.76.88l25.07,19.24c1.25.96,2.94.57,3.77-.87.29-.51.45-1.11.46-1.72v-9.11l15.25,11.7c1.25.96,2.94.57,3.77-.87.29-.51.45-1.11.46-1.72V12.25c0-1.73-1.21-3.14-2.72-3.15-.54,0-1.07.18-1.51.53l-15.25,11.72v-9.1c0-1.73-1.21-3.14-2.72-3.15-.54,0-1.07.18-1.51.53L8.22,28.9c-1.25.96-1.59,2.91-.76,4.35Z"/>
    </g>
  </g>
</svg>