<svg xmlns="http://www.w3.org/2000/svg" viewBox="0 0 64 64"><defs><style>.cls-1,.cls-2{fill:#1a1a1a;}.cls-1{opacity:0;}.cls-3{fill:#bb5938;}.cls-4{fill:#9c3d29;}.cls-5{fill:#ebb369;}.cls-6{fill:#d1864b;}</style></defs><title>Tree Stump Outline</title><g id="Layer_2" data-name="Layer 2"><g id="Finals"><rect class="cls-1" width="64" height="64"/><path class="cls-2" d="M62.82,42.49a46.22,46.22,0,0,1-4.59-26.82A6.46,6.46,0,0,0,58.45,14C58.45,5.76,44,2.84,31.7,2.84S4.94,5.76,4.94,14a1.48,1.48,0,0,0,0,.21c.85,16.52-2.27,24-3.66,26.48A6.16,6.16,0,0,0,1,46a5.66,5.66,0,0,0,3.72,3.29c8.87,2.46,9.57,4.06,10.19,5.47A12,12,0,0,0,16.79,58a9.29,9.29,0,0,0,5.69,3.09l.28,0a5,5,0,0,0,.57,0l.6,0h.33c.2,0,.41,0,.7-.08a7.91,7.91,0,0,0,.87-.13,6.29,6.29,0,0,0,.74-.22l.1,0a7,7,0,0,0,.69-.23,8.87,8.87,0,0,0,1.34-.68l.13-.08c.62-.39,1.24-.75,1.85-1.11l.52-.29,1.52-.81.37-.2c.61-.3,1.22-.59,1.83-.86l.54-.24c.46-.2.91-.4,1.37-.58l.57-.24,1.74-.65.18-.06A29.42,29.42,0,0,0,47.46,56h0a13.46,13.46,0,0,0,4.72-.77,5.06,5.06,0,0,0,3.2-3.91c.93-.07,1.73-.1,2.36-.13a6,6,0,0,0,5.08-8.72Z"/><path class="cls-3" d="M54.45,14a49.41,49.41,0,0,0,4.82,30.34,2,2,0,0,1-1.66,2.89c-6,.2-19,1.56-30.92,9.11a5.33,5.33,0,0,1-6.88-1c-2.61-3,.08-6-14.07-9.94a1.86,1.86,0,0,1-1-2.78C6.68,39.27,9.82,31,8.94,14Z"/><ellipse class="cls-4" cx="31.7" cy="13.99" rx="22.76" ry="7.16"/><ellipse class="cls-5" cx="31.7" cy="13.49" rx="17.33" ry="4.19"/><path class="cls-4" d="M19.68,18.79a67.32,67.32,0,0,1,.46,17.66.65.65,0,0,0,1.24.33c1.45-3.4,3.3-9.54,3.18-18.6Z"/><path class="cls-4" d="M39.79,18.75a41.37,41.37,0,0,0-.39,13.71c.08.58-.93.79-1.22.26A29,29,0,0,1,35,18.3Z"/><path class="cls-4" d="M14.07,30.19A77,77,0,0,1,8.55,46.26a36.76,36.76,0,0,1,5,1.94c1.38-5.54,1.64-13.06,1.64-17.88A.55.55,0,0,0,14.07,30.19Z"/><path class="cls-6" d="M59.27,44.34A48.29,48.29,0,0,1,54.4,29.21c-.16.32-.32.63-.49.94a20.76,20.76,0,0,0-2.56,10.06,55.59,55.59,0,0,0,.6,7.45c2.24-.27,4.18-.39,5.66-.44A2,2,0,0,0,59.27,44.34Z"/><path class="cls-6" d="M41.4,40.09a24,24,0,0,1,2.24-7.45c1.49-3,2.86-3.95,3.51.47.27,1.84.52,3.4.76,4.75,0,0,0,4,2.68,10,.25.68.51,1.4.8,2.21a1.15,1.15,0,0,1-.6,1.46c-3.54,1.31-9-.21-11.52-1a56.09,56.09,0,0,0-12.58,5.87,5.38,5.38,0,0,1-3.48.81,88.87,88.87,0,0,0,5.11-17.63,2,2,0,0,1,3-1.39l.51.29a27.56,27.56,0,0,1,7.51,6.39h0c.09.12.18.23.28.34l.15.17a.86.86,0,0,0,.13.14A.63.63,0,0,0,41,45c0-.09,0-.18,0-.27l0-.69,0-.39c0-.22,0-.44,0-.66l0-.35c0-.24,0-.48.07-.71l0-.26S41.27,41.09,41.4,40.09Z"/><ellipse class="cls-6" cx="31.7" cy="13.14" rx="10.04" ry="2.08"/></g></g></svg>