<svg xmlns="http://www.w3.org/2000/svg" viewBox="0 0 64 64"><defs><style>.cls-1{fill:#1a1a1a;opacity:0;}.cls-2{fill:#bb5938;}.cls-3{fill:#9c3d29;}.cls-4{fill:#ebb369;}.cls-5{fill:#d1864b;}</style></defs><title>Tree Stump</title><g id="Layer_2" data-name="Layer 2"><g id="Finals"><rect class="cls-1" width="64" height="64"/><path class="cls-2" d="M54.45,14a49.42,49.42,0,0,0,4.82,30.34,2,2,0,0,1-1.66,2.88c-6,.2-19,1.56-30.92,9.12a5.32,5.32,0,0,1-6.88-1c-2.61-3,.08-6-14.07-9.93a1.86,1.86,0,0,1-1-2.78C6.68,39.27,9.82,31,8.94,14Z"/><ellipse class="cls-3" cx="31.7" cy="13.99" rx="22.76" ry="7.16"/><ellipse class="cls-4" cx="31.7" cy="13.48" rx="17.33" ry="4.19"/><path class="cls-3" d="M19.68,18.79a67.32,67.32,0,0,1,.46,17.66.65.65,0,0,0,1.24.33c1.45-3.41,3.3-9.55,3.18-18.6Z"/><path class="cls-3" d="M39.79,18.74a41.41,41.41,0,0,0-.39,13.71c.08.58-.93.8-1.22.27A29.11,29.11,0,0,1,35,18.29Z"/><path class="cls-3" d="M14.07,30.19A77.19,77.19,0,0,1,8.55,46.26a35.48,35.48,0,0,1,5,1.94c1.38-5.55,1.64-13.06,1.65-17.89A.56.56,0,0,0,14.07,30.19Z"/><path class="cls-5" d="M59.27,44.34A48.42,48.42,0,0,1,54.4,29.2c-.16.32-.32.64-.49.95a20.73,20.73,0,0,0-2.56,10.06,55.9,55.9,0,0,0,.6,7.45c2.24-.27,4.18-.4,5.66-.45A2,2,0,0,0,59.27,44.34Z"/><path class="cls-5" d="M41.4,40.09a24,24,0,0,1,2.24-7.46c1.49-3,2.86-4,3.51.47.27,1.84.52,3.4.76,4.76,0,0,0,4,2.68,10,.25.68.52,1.4.8,2.2a1.15,1.15,0,0,1-.6,1.46c-3.54,1.32-9-.21-11.52-1a55.65,55.65,0,0,0-12.58,5.87,5.43,5.43,0,0,1-3.48.8A88.87,88.87,0,0,0,28.32,39.5a2,2,0,0,1,3-1.39l.51.3a27.07,27.07,0,0,1,7.51,6.39v0a3.39,3.39,0,0,0,.28.34l.15.17a.86.86,0,0,0,.13.14A.63.63,0,0,0,41,45c0-.09,0-.18,0-.27l0-.68,0-.39c0-.22,0-.45,0-.67s0-.23,0-.35,0-.47.07-.71l0-.26S41.27,41.09,41.4,40.09Z"/><ellipse class="cls-5" cx="31.7" cy="13.13" rx="10.04" ry="2.08"/></g></g></svg>