<svg xmlns="http://www.w3.org/2000/svg" viewBox="0 0 64 64"><defs><style>.cls-1,.cls-2{fill:#1a1a1a;}.cls-1{opacity:0;}</style></defs><title>Tree Stump Black</title><g id="Layer_2" data-name="Layer 2"><g id="Finals"><rect class="cls-1" width="64" height="64"/><path class="cls-2" d="M59.27,44.33a49.76,49.76,0,0,1-5-29.55,2.39,2.39,0,0,0,.14-.79c0-4-10.19-7.15-22.76-7.15S8.94,10,8.94,14c.89,17-2.26,25.28-4.16,28.65a1.86,1.86,0,0,0,1,2.78c14.15,3.93,11.46,6.93,14.08,9.94a5.21,5.21,0,0,0,3.4,1.77h.27a5.62,5.62,0,0,0,.58,0l.35,0A5.21,5.21,0,0,0,25,57a3.5,3.5,0,0,0,.46-.14l.42-.13a5.6,5.6,0,0,0,.84-.44q1-.63,2-1.2l.55-.31c.55-.31,1.11-.6,1.66-.89l.39-.2c.66-.33,1.31-.64,2-.94l.58-.25c.49-.22,1-.43,1.48-.63l.61-.25c.62-.24,1.25-.48,1.87-.7l.57-.19.9-.31c2.51.84,8,2.36,11.51,1a1.14,1.14,0,0,0,.6-1.46c-.28-.81-.55-1.53-.79-2.21a66,66,0,0,1,7-.62A2,2,0,0,0,59.27,44.33ZM31.7,17.51c-9.19,0-16.64-1.8-16.64-4s7.45-4,16.64-4,16.64,1.8,16.64,4S40.89,17.51,31.7,17.51Z"/></g></g></svg>