<svg xmlns="http://www.w3.org/2000/svg" viewBox="0 0 64 64"><defs><style>.cls-1,.cls-2{fill:#1a1a1a;}.cls-1{opacity:0;}.cls-3{fill:#dae2e6;}.cls-4{fill:#abc0c9;}.cls-5{fill:#fff;}</style></defs><title>Tableware Outline</title><g id="Layer_2" data-name="Layer 2"><g id="Layer_3" data-name="Layer 3"><rect class="cls-1" width="64" height="64"/><path class="cls-2" d="M61.14,37.25A5.45,5.45,0,0,0,63.5,32.6a48.42,48.42,0,0,0-.73-6.72s-.05-.27-.05-.27c-.12-.65-.25-1.31-.42-2s-.34-1.37-.54-2.09l-.09-.33c-.21-.71-.44-1.42-.69-2.14l-.1-.26c-.27-.76-.54-1.46-.84-2.14L60,16.48a32.15,32.15,0,0,0-1.54-3.11,4.72,4.72,0,0,0-8.83,2.32v3.64a21,21,0,0,0-32.78-.9c-.11-1.09-.23-2.27-.37-3.5A4.44,4.44,0,0,0,12,11a4.92,4.92,0,0,0-.94.1,4.73,4.73,0,0,0-.93-.1H9.82a4.41,4.41,0,0,0-.89.09A4.41,4.41,0,0,0,8,11H7.69a4.73,4.73,0,0,0-.93.1,4.92,4.92,0,0,0-.94-.1,4.44,4.44,0,0,0-4.42,4c-.5,4.5-.85,8.34-.89,9.33a8.81,8.81,0,0,0,2.77,7.33L2.55,46.32a6.39,6.39,0,1,0,12.77,0l-.15-3a21,21,0,0,0,34.46,1.33v2.18A6.22,6.22,0,1,0,62,46.18Z"/><circle class="cls-3" cx="32.87" cy="32" r="17.03"/><path class="cls-4" d="M23.42,31.27a9.47,9.47,0,0,1,18.89,0,9.07,9.07,0,0,1,2.23,2.47A12.5,12.5,0,0,0,44.68,32a11.82,11.82,0,0,0-23.63,0,11.14,11.14,0,0,0,.15,1.74A9,9,0,0,1,23.42,31.27Z"/><path class="cls-5" d="M32.87,43.81A11.8,11.8,0,0,0,44.54,33.74a9.07,9.07,0,0,0-2.23-2.47c0,.24,0,.48,0,.73a9.49,9.49,0,0,1-19,0c0-.25,0-.49,0-.73a9,9,0,0,0-2.22,2.47A11.79,11.79,0,0,0,32.87,43.81Z"/><path class="cls-4" d="M8.93,49h0a2.39,2.39,0,0,1-2.39-2.51L7.46,28H10.4l.92,18.49A2.39,2.39,0,0,1,8.93,49Z"/><path class="cls-3" d="M13.35,24.42c0-.83-.37-4.61-.86-9.05a.45.45,0,0,0-.44-.4h0a.45.45,0,0,0-.44.45v7a.36.36,0,0,1-.36.35h-.35a.36.36,0,0,1-.36-.35v-7.1a.36.36,0,0,0-.36-.36H9.82a.36.36,0,0,0-.36.36v7.1a.35.35,0,0,1-.35.35H8.76a.36.36,0,0,1-.36-.35v-7.1A.36.36,0,0,0,8,15H7.69a.36.36,0,0,0-.36.36v7.1a.36.36,0,0,1-.36.35H6.62a.36.36,0,0,1-.36-.35v-7A.45.45,0,0,0,5.82,15h0a.45.45,0,0,0-.45.4c-.49,4.44-.83,8.22-.86,9.05-.16,3.81,1.86,5.08,4.42,5.08S13.51,28.23,13.35,24.42Z"/><path class="cls-4" d="M55.86,49h0a2.21,2.21,0,0,1-2.22-2.22l0-18.78h2.58l1.87,18.56A2.21,2.21,0,0,1,55.86,49Z"/><path class="cls-3" d="M55,15.32a.72.72,0,0,0-1.34.37v20h0a7.37,7.37,0,0,0,3.32-.79l1.78-.89a1.43,1.43,0,0,0,.79-1.33C59.41,30.06,58.83,22.18,55,15.32Z"/></g></g></svg>