<svg xmlns="http://www.w3.org/2000/svg" viewBox="0 0 64 64"><defs><style>.cls-1{fill:#1a1a1a;opacity:0;}.cls-2{fill:#dae2e6;}.cls-3{fill:#abc0c9;}.cls-4{fill:#fff;}</style></defs><title>Tableware</title><g id="Layer_2" data-name="Layer 2"><g id="Layer_3" data-name="Layer 3"><rect class="cls-1" width="64" height="64"/><circle class="cls-2" cx="32.87" cy="32" r="17.03"/><path class="cls-3" d="M23.42,31.27a9.47,9.47,0,0,1,18.89,0,9.07,9.07,0,0,1,2.23,2.47A12.5,12.5,0,0,0,44.68,32a11.82,11.82,0,0,0-23.63,0,11.14,11.14,0,0,0,.15,1.74A9,9,0,0,1,23.42,31.27Z"/><path class="cls-4" d="M32.87,43.81A11.8,11.8,0,0,0,44.54,33.74a9.07,9.07,0,0,0-2.23-2.47c0,.24,0,.48,0,.73a9.49,9.49,0,0,1-19,0c0-.25,0-.49,0-.73a9,9,0,0,0-2.22,2.47A11.79,11.79,0,0,0,32.87,43.81Z"/><path class="cls-3" d="M8.93,49h0a2.39,2.39,0,0,1-2.39-2.51L7.46,28H10.4l.92,18.49A2.39,2.39,0,0,1,8.93,49Z"/><path class="cls-2" d="M13.35,24.42c0-.83-.37-4.61-.86-9.05a.45.45,0,0,0-.44-.4h0a.45.45,0,0,0-.44.45v7a.36.36,0,0,1-.36.35h-.35a.36.36,0,0,1-.36-.35v-7.1a.36.36,0,0,0-.36-.36H9.82a.36.36,0,0,0-.36.36v7.1a.35.35,0,0,1-.35.35H8.76a.36.36,0,0,1-.36-.35v-7.1A.36.36,0,0,0,8,15H7.69a.36.36,0,0,0-.36.36v7.1a.36.36,0,0,1-.36.35H6.62a.36.36,0,0,1-.36-.35v-7A.45.45,0,0,0,5.82,15h0a.45.45,0,0,0-.45.4c-.49,4.44-.83,8.22-.86,9.05-.16,3.81,1.86,5.08,4.42,5.08S13.51,28.23,13.35,24.42Z"/><path class="cls-3" d="M55.86,49h0a2.21,2.21,0,0,1-2.22-2.22l0-18.78h2.58l1.87,18.56A2.21,2.21,0,0,1,55.86,49Z"/><path class="cls-2" d="M55,15.32a.72.72,0,0,0-1.34.37v20h0a7.37,7.37,0,0,0,3.32-.79l1.78-.89a1.43,1.43,0,0,0,.79-1.33C59.41,30.06,58.83,22.18,55,15.32Z"/></g></g></svg>