<svg xmlns="http://www.w3.org/2000/svg" viewBox="0 0 64 64"><defs><style>.cls-1{fill:#1a1a1a;opacity:0;}.cls-2{fill:#fff;}</style></defs><title>Tableware Flat White</title><g id="Layer_2" data-name="Layer 2"><g id="Layer_3" data-name="Layer 3"><rect class="cls-1" width="64" height="64"/><path class="cls-2" d="M32.87,22.52a9.48,9.48,0,0,0-9.45,8.75c0,.25,0,.49,0,.73a9.49,9.49,0,1,0,19,0c0-.24,0-.48,0-.73A9.47,9.47,0,0,0,32.87,22.52Z"/><path class="cls-2" d="M32.87,15a17,17,0,1,0,17,17A17,17,0,0,0,32.87,15ZM44.54,33.74a11.8,11.8,0,0,1-23.34,0A11.14,11.14,0,0,1,21.05,32a11.82,11.82,0,0,1,23.63,0A12.5,12.5,0,0,1,44.54,33.74Z"/><path class="cls-2" d="M12.49,15.37a.46.46,0,0,0-.44-.4h0a.45.45,0,0,0-.44.45v7a.36.36,0,0,1-.36.36h-.35a.36.36,0,0,1-.36-.36v-7.1a.36.36,0,0,0-.36-.36H9.82a.36.36,0,0,0-.36.36v7.1a.36.36,0,0,1-.35.36H8.76a.36.36,0,0,1-.36-.36v-7.1A.36.36,0,0,0,8,15H7.69a.36.36,0,0,0-.36.36v7.1a.36.36,0,0,1-.36.36H6.62a.36.36,0,0,1-.36-.36v-7A.45.45,0,0,0,5.82,15h0a.46.46,0,0,0-.45.4c-.48,4.44-.83,8.22-.86,9.05-.13,3,1.11,4.43,2.89,4.89L6.54,46.52a2.39,2.39,0,1,0,4.78,0l-.86-17.21c1.78-.46,3-1.88,2.89-4.89C13.32,23.59,13,19.81,12.49,15.37Z"/><path class="cls-2" d="M55,15.32a.72.72,0,0,0-1.34.37V28h0v7.7h0l0,11.08a2.22,2.22,0,1,0,4.42-.22L56.89,35h0l1.78-.89a1.44,1.44,0,0,0,.79-1.34C59.41,30.07,58.83,22.18,55,15.32Z"/></g></g></svg>