<svg xmlns="http://www.w3.org/2000/svg" viewBox="0 0 64 64"><defs><style>.cls-1{fill:none;}.cls-2{isolation:isolate;}.cls-3{fill:#bb5938;}.cls-4{fill:#9c3d29;}.cls-5{fill:#d1864b;}</style></defs><title>Storage Box</title><g id="Layer_2" data-name="Layer 2"><g id="Layer_2-2" data-name="Layer 2"><rect class="cls-1" width="64" height="64"/><g class="cls-2"><polygon class="cls-3" points="6.9 16.53 9.32 31.8 8.74 44.45 32 60 31.91 31.07 6.9 16.53"/><polygon class="cls-4" points="31.91 31.07 32 60 55.53 44.46 54.83 31.78 57.21 16.52 31.91 31.07"/><polygon class="cls-5" points="6.89 16.53 31.9 31.07 57.11 16.52 32.07 4 6.89 16.53"/></g><polygon class="cls-5" points="9.41 31.8 31.95 45.13 32 60 8.83 44.45 9.41 31.8"/><polygon class="cls-3" points="43.86 24.16 18.79 10.61 21.01 9.5 46.14 22.85 43.86 24.16"/><polygon class="cls-3" points="11 42.82 11.28 35.93 21.27 42.16 21 49.38 11 42.82"/><polygon class="cls-3" points="31.95 45.13 54.74 31.78 55.44 44.46 32 60 31.95 45.13"/></g></g></svg>