<svg xmlns="http://www.w3.org/2000/svg" viewBox="0 0 64 64"><defs><style>.cls-1,.cls-2{fill:#1a1a1a;}.cls-1{opacity:0;}.cls-3{isolation:isolate;}.cls-4{fill:#fc9504;}.cls-5{fill:#f15a24;}.cls-6{fill:#fec92b;}</style></defs><title>Storage Box Gold Outline</title><g id="Layer_2" data-name="Layer 2"><g id="_001-100" data-name="001-100"><rect class="cls-1" width="64" height="64"/><path class="cls-2" d="M58.48,13.23,33.83.92A3.9,3.9,0,0,0,32.07.5a4,4,0,0,0-1.75.41L5.53,13.24A4,4,0,0,0,3.4,17.39L5.71,32l-.55,12A4,4,0,0,0,6.9,47.53L29.8,62.84a3.95,3.95,0,0,0,4.37,0l23.07-15.3A3.92,3.92,0,0,0,59,44.05L58.33,32l2.28-14.62A4,4,0,0,0,58.48,13.23Z"/><g class="cls-3"><polygon class="cls-4" points="7.28 16.77 9.66 31.8 9.09 44.26 31.99 59.56 31.9 31.09 7.28 16.77"/><polygon class="cls-5" points="31.9 31.09 31.99 59.56 55.06 44.26 54.38 31.79 56.72 16.76 31.9 31.09"/><polygon class="cls-6" points="7.28 16.77 31.9 31.09 56.72 16.76 32.07 4.44 7.28 16.77"/></g><polygon class="cls-6" points="9.66 31.8 31.9 44.95 31.99 59.56 9.09 44.26 9.66 31.8"/><polygon class="cls-4" points="43.67 24.29 18.99 10.95 21.18 9.86 45.92 22.99 43.67 24.29"/><polygon class="cls-4" points="11.33 42.66 11.61 35.87 21.43 42 21.17 49.11 11.33 42.66"/><polygon class="cls-4" points="31.9 44.95 54.38 31.79 55.06 44.26 31.99 59.56 31.9 44.95"/></g></g></svg>