<svg xmlns="http://www.w3.org/2000/svg" viewBox="0 0 64 64"><defs><style>.cls-1{fill:none;}.cls-2{fill:#1a1a1a;}.cls-3{isolation:isolate;}.cls-4{fill:#bb5938;}.cls-5{fill:#9c3d29;}.cls-6{fill:#d1864b;}</style></defs><title>Storage Box Outline</title><g id="Layer_2" data-name="Layer 2"><g id="Layer_2-2" data-name="Layer 2"><rect class="cls-1" width="64" height="64"/><path class="cls-2" d="M58.06,13.53,33.8,1.41a3.85,3.85,0,0,0-3.46,0L6,13.54a3.89,3.89,0,0,0-2.1,4.08L6.13,32,5.58,43.88a3.87,3.87,0,0,0,1.72,3.4L29.84,62.35a3.86,3.86,0,0,0,4.29,0L56.84,47.3a3.88,3.88,0,0,0,1.72-3.45L57.91,32l2.24-14.39A3.89,3.89,0,0,0,58.06,13.53Z"/><g class="cls-3"><polygon class="cls-4" points="7.68 17.01 10.02 31.81 9.46 44.06 31.99 59.12 31.9 31.1 7.68 17.01"/><polygon class="cls-5" points="31.9 31.1 31.99 59.12 54.7 44.07 54.02 31.79 56.32 17 31.9 31.1"/><polygon class="cls-6" points="7.68 17.01 31.9 31.1 56.32 17 32.07 4.88 7.68 17.01"/></g><polygon class="cls-6" points="10.02 31.81 31.9 44.74 31.99 59.12 9.46 44.06 10.02 31.81"/><polygon class="cls-4" points="43.49 24.41 19.2 11.28 21.35 10.21 45.7 23.13 43.49 24.41"/><polygon class="cls-4" points="11.65 42.49 11.93 35.8 21.6 41.84 21.35 48.83 11.65 42.49"/><polygon class="cls-4" points="31.9 44.74 54.02 31.79 54.7 44.07 31.99 59.12 31.9 44.74"/></g></g></svg>