<svg xmlns="http://www.w3.org/2000/svg" viewBox="0 0 64 64"><defs><style>.cls-1,.cls-7{fill:#fff;}.cls-1{opacity:0;}.cls-2{fill:#bb5938;}.cls-3{fill:#d1864b;}.cls-4{fill:#96dbff;}.cls-5{fill:#37b9ff;}.cls-6{fill:#ffdfb5;}</style></defs><title>Hourglass</title><g id="Layer_2" data-name="Layer 2"><g id="Layer_2-2" data-name="Layer 2"><rect class="cls-1" width="64" height="64"/><ellipse class="cls-2" cx="32" cy="53.4" rx="17.19" ry="6.1"/><rect class="cls-2" x="14.81" y="47.93" width="34.38" height="5.47"/><ellipse class="cls-3" cx="32" cy="47.93" rx="17.19" ry="6.1"/><path class="cls-4" d="M36.29,30.66A15.76,15.76,0,0,0,47.76,15.5H16.24A15.76,15.76,0,0,0,27.71,30.66a.52.52,0,0,1,0,1A15.76,15.76,0,0,0,16.24,46.82H47.76A15.76,15.76,0,0,0,36.29,31.66.52.52,0,0,1,36.29,30.66Z"/><path class="cls-5" d="M17.68,15.41a14.32,14.32,0,0,0,28.64,0Z"/><ellipse class="cls-5" cx="32" cy="46.82" rx="15.76" ry="5.82"/><ellipse class="cls-2" cx="32" cy="14.65" rx="17.19" ry="5.35"/><rect class="cls-2" x="14.81" y="9.85" width="34.38" height="4.8"/><ellipse class="cls-3" cx="32" cy="9.85" rx="17.19" ry="5.35"/><ellipse class="cls-2" cx="32" cy="9.5" rx="12.48" ry="3.14"/><path class="cls-6" d="M40.87,46.46c0,1.81-4,3.27-8.87,3.27s-8.87-1.46-8.87-3.27,5.68-9.19,8.87-9.19S40.87,44.65,40.87,46.46Z"/><path class="cls-6" d="M32,22.38c-3.78,0-7,.4-8.28,1a.55.55,0,0,0-.24.92A11.74,11.74,0,0,0,32,27.65a11.74,11.74,0,0,0,8.52-3.38.55.55,0,0,0-.24-.92C39,22.78,35.78,22.38,32,22.38Z"/><path class="cls-7" d="M26.91,34.92c1,1,.13,2.66-1.43,4.22s-3.22,2.43-4.22,1.43-.55-3.08,1-4.64S25.91,33.92,26.91,34.92Z"/><circle class="cls-7" cx="19.91" cy="43.5" r="1.55"/></g></g></svg>