<svg xmlns="http://www.w3.org/2000/svg" viewBox="0 0 64 64"><defs><style>.cls-1,.cls-2{fill:#1a1a1a;}.cls-1{opacity:0;}</style></defs><title>Hourglass Black</title><g id="Layer_2" data-name="Layer 2"><g id="Layer_2-2" data-name="Layer 2"><rect class="cls-1" width="64" height="64"/><path class="cls-2" d="M36.29,30.66A15.78,15.78,0,0,0,47.7,16.82a2.85,2.85,0,0,0,1.49-2.17V9.85C49.19,6.9,41.49,4.5,32,4.5S14.81,6.9,14.81,9.85v4.8a2.85,2.85,0,0,0,1.49,2.17A15.78,15.78,0,0,0,27.71,30.66a.52.52,0,0,1,0,1A15.78,15.78,0,0,0,16.3,45.45a3.29,3.29,0,0,0-1.49,2.48V53.4c0,3.37,7.7,6.1,17.19,6.1s17.19-2.73,17.19-6.1V47.93a3.29,3.29,0,0,0-1.49-2.48A15.78,15.78,0,0,0,36.29,31.66.52.52,0,0,1,36.29,30.66Zm4.58,15.8c0,1.81-4,3.27-8.87,3.27s-8.87-1.46-8.87-3.27,5.68-9.19,8.87-9.19S40.87,44.65,40.87,46.46ZM32,27.65a11.74,11.74,0,0,1-8.52-3.38.55.55,0,0,1,.24-.92c1.27-.57,4.5-1,8.28-1s7,.4,8.28,1a.55.55,0,0,1,.24.92A11.74,11.74,0,0,1,32,27.65Z"/></g></g></svg>