<svg xmlns="http://www.w3.org/2000/svg" viewBox="0 0 64 64"><defs><style>.cls-1,.cls-3{fill:#fff;}.cls-1{opacity:0;}.cls-2{fill:#80bad9;}</style></defs><title>Message Box</title><g id="Layer_2" data-name="Layer 2"><g id="Layer_2-2" data-name="Layer 2"><rect class="cls-1" width="64" height="64"/><path class="cls-2" d="M48.69,9.27H15.31A9.53,9.53,0,0,0,5.78,18.8V37.87a9.53,9.53,0,0,0,9.53,9.53H32.24L43.78,58.94A1.9,1.9,0,0,0,47,57.59V47.4h1.66a9.53,9.53,0,0,0,9.53-9.53V18.8A9.53,9.53,0,0,0,48.69,9.27Z"/><path class="cls-3" d="M48.69,4.5H15.31A9.53,9.53,0,0,0,5.78,14V33.1a9.54,9.54,0,0,0,9.53,9.54H34.15l9.63,9.62A1.9,1.9,0,0,0,47,50.92V42.64h1.66a9.54,9.54,0,0,0,9.53-9.54V14A9.53,9.53,0,0,0,48.69,4.5Z"/><circle class="cls-2" cx="32" cy="23.57" r="4.41"/><circle class="cls-2" cx="46.65" cy="23.57" r="4.41"/><circle class="cls-2" cx="17.35" cy="23.57" r="4.41"/></g></g></svg>