<svg xmlns="http://www.w3.org/2000/svg" viewBox="0 0 64 64"><defs><style>.cls-1,.cls-2{fill:#1a1a1a;}.cls-1{opacity:0;}</style></defs><title>Message Box Black</title><g id="Layer_2" data-name="Layer 2"><g id="Layer_2-2" data-name="Layer 2"><rect class="cls-1" width="64" height="64"/><path class="cls-2" d="M48.69,7.84H15.31a9.53,9.53,0,0,0-9.53,9.53V36.44A9.53,9.53,0,0,0,15.31,46H34.15l9.63,9.63A1.9,1.9,0,0,0,47,54.25V46h1.66a9.53,9.53,0,0,0,9.53-9.53V17.37A9.53,9.53,0,0,0,48.69,7.84ZM17.35,31.32a4.42,4.42,0,1,1,4.41-4.41A4.42,4.42,0,0,1,17.35,31.32Zm14.65,0a4.42,4.42,0,1,1,4.41-4.41A4.41,4.41,0,0,1,32,31.32Zm14.65,0a4.42,4.42,0,1,1,4.42-4.41A4.42,4.42,0,0,1,46.65,31.32Z"/></g></g></svg>