<svg xmlns="http://www.w3.org/2000/svg" viewBox="0 0 64 64"><defs><style>.cls-1,.cls-2{fill:#1a1a1a;}.cls-1{opacity:0;}.cls-3{fill:#abc0c9;}.cls-4{fill:#e62e49;}.cls-5{fill:#a72d3e;}.cls-6{fill:#d3dee3;}.cls-7{fill:#7b97a6;}</style></defs><title>Screwdriver Outline</title><g id="Layer_2" data-name="Layer 2"><g id="Finals"><rect class="cls-1" width="64" height="64"/><path class="cls-2" d="M60.82,42.41,48.66,30.25a9.1,9.1,0,0,0-6.48-2.68,9.2,9.2,0,0,0-3.54.7L26.75,16.38l-1.44-5.45a4,4,0,0,0-1.78-2.39L11.33,1.09A3.93,3.93,0,0,0,9.25.5,4,4,0,0,0,6.42,1.67L1.67,6.41a4,4,0,0,0-.58,4.92L8.54,23.52a4.06,4.06,0,0,0,2.39,1.79l5.46,1.44L28.28,38.64a9.17,9.17,0,0,0,2,10L42.42,60.82a9.16,9.16,0,0,0,12.95,0l5.45-5.45A9.18,9.18,0,0,0,60.82,42.41Z"/><rect class="cls-3" x="23.63" y="9.8" width="6.65" height="34.3" transform="translate(-11.16 26.95) rotate(-45)"/><rect class="cls-4" x="36.52" y="31.77" width="18.03" height="27.52" rx="5.16" transform="translate(-18.86 45.54) rotate(-45)"/><rect class="cls-5" x="40.96" y="39.13" width="3.56" height="17.9" rx="0.87" transform="translate(-21.48 44.3) rotate(-45)"/><rect class="cls-5" x="46.3" y="33.78" width="3.56" height="17.9" rx="0.87" transform="translate(-16.13 46.51) rotate(-45)"/><polygon class="cls-6" points="9.24 4.5 4.5 9.24 11.95 21.44 21.44 11.95 9.24 4.5"/><polygon class="cls-7" points="11.95 21.44 18.45 23.16 23.16 18.45 21.44 11.95 11.95 21.44"/></g></g></svg>