<svg xmlns="http://www.w3.org/2000/svg" viewBox="0 0 64 64"><defs><style>.cls-1{opacity:0;}.cls-2{fill:#fff;}.cls-3{fill:#d1864b;}.cls-4{fill:#bb5938;}.cls-5{fill:#ebb369;}</style></defs><title>Coin Stack Bronze</title><g id="Layer_2" data-name="Layer 2"><g id="_001-100" data-name="001-100"><g class="cls-1"><rect class="cls-2" width="64" height="64"/></g><path class="cls-3" d="M51.81,41.17H12.19V51.81h0c0,.1,0,.2,0,.3,0,4.08,8.87,7.39,19.81,7.39s19.81-3.31,19.81-7.39c0-.1,0-.2,0-.3h0Z"/><path class="cls-4" d="M51.81,52.11c0-.1,0-.2,0-.3h0V41.17H48.93C46,43,41,44.26,35.25,44.61V59.4C44.65,58.82,51.81,55.78,51.81,52.11Z"/><ellipse class="cls-5" cx="32" cy="41.46" rx="19.81" ry="7.39"/><path class="cls-3" d="M51.81,26.38H12.19V37h0a2.83,2.83,0,0,0,0,.29c0,4.09,8.87,7.4,19.81,7.4s19.81-3.31,19.81-7.4a2.83,2.83,0,0,0,0-.29h0Z"/><path class="cls-4" d="M51.81,26.38H48.93c-3,1.8-7.89,3.09-13.68,3.45V44.61C41,44.26,46,43,48.93,41.17c1.83-1.12,2.88-2.44,2.88-3.85a2.83,2.83,0,0,0,0-.29h0Z"/><ellipse class="cls-5" cx="32" cy="26.68" rx="19.81" ry="7.39"/><path class="cls-3" d="M51.81,11.6H12.19V22.24h0c0,.1,0,.2,0,.3,0,4.08,8.87,7.39,19.81,7.39s19.81-3.31,19.81-7.39c0-.1,0-.2,0-.3h0Z"/><path class="cls-4" d="M51.81,11.6H35.25V29.83C41,29.47,46,28.18,48.93,26.38c1.83-1.12,2.88-2.43,2.88-3.84,0-.1,0-.2,0-.3h0Z"/><ellipse class="cls-5" cx="32" cy="11.89" rx="19.81" ry="7.39"/><ellipse class="cls-3" cx="32" cy="11.3" rx="11.53" ry="3.25"/></g></g></svg>