<svg xmlns="http://www.w3.org/2000/svg" viewBox="0 0 64 64"><defs><style>.cls-1{opacity:0;}.cls-2{fill:#fff;}</style></defs><title>Coin Stack Flat White</title><g id="Layer_2" data-name="Layer 2"><g id="Weapons_BW" data-name="Weapons BW"><g class="cls-1"><rect class="cls-2" width="64" height="64"/></g><path class="cls-2" d="M54.48,11.16a.32.32,0,0,0,0-.14c-.91-2.9-3.62-5.19-8-6.8A41.33,41.33,0,0,0,32.64,2,44.22,44.22,0,0,0,18.69,3.86C14.05,5.34,11.17,7.42,9.9,10.2a12.45,12.45,0,0,0-.69,5.55c0,.44,0,.87,0,1.3v34c.13,3.82,3.18,6.2,5.72,7.52a32.87,32.87,0,0,0,12.31,3.2c1.62.15,3.24.22,4.84.22a49.09,49.09,0,0,0,9-.81c2.83-.53,7-1.51,10.16-3.93a8.33,8.33,0,0,0,3.59-6.4q0-.68,0-1.35Zm-4.36,12a2.73,2.73,0,0,1-.65,1.65,7.1,7.1,0,0,1-1.85,1.55c-3.29,2-9.27,3.26-15.6,3.26s-12.31-1.25-15.6-3.26a7.1,7.1,0,0,1-1.85-1.55,2.73,2.73,0,0,1-.65-1.65c0-.08,0-.16,0-.23a.49.49,0,0,0,0-.17V15.49c2.46,3,9.54,5.06,18.1,5.06s15.64-2.09,18.1-5.06v7.23a.55.55,0,0,0,0,.18C50.11,23,50.12,23.05,50.12,23.13Zm0,13.86a2.73,2.73,0,0,1-.65,1.65,7.1,7.1,0,0,1-1.85,1.55c-3.29,2-9.27,3.26-15.6,3.26s-12.31-1.25-15.6-3.26a7.1,7.1,0,0,1-1.85-1.55A2.73,2.73,0,0,1,13.92,37c0-.08,0-.16,0-.23a.47.47,0,0,0,0-.17V29.35c2.46,3,9.54,5.06,18.1,5.06s15.64-2.09,18.1-5.06v7.23a.55.55,0,0,0,0,.18C50.11,36.83,50.12,36.91,50.12,37Zm0,13.85c0,3.51-8.29,6.47-18.1,6.47s-18.1-3-18.1-6.47c0-.07,0-.15,0-.22a.47.47,0,0,0,0-.17V43.21c2.46,3,9.54,5,18.1,5s15.64-2.09,18.1-5v7.23a.53.53,0,0,0,0,.18C50.11,50.69,50.12,50.77,50.12,50.84Z"/></g></g></svg>