<svg xmlns="http://www.w3.org/2000/svg" viewBox="0 0 64 64"><defs><style>.cls-1,.cls-2{fill:#1a1a1a;}.cls-1{opacity:0;}.cls-3{fill:#abc0c9;}.cls-4{fill:#7b97a6;}.cls-5{fill:#d3dee3;}</style></defs><title>Coin Stack Silver Outline</title><g id="Layer_2" data-name="Layer 2"><g id="_001-100" data-name="001-100"><rect class="cls-1" width="64" height="64"/><path class="cls-2" d="M55.58,24.15c.55-2.29.2-5,.2-7.31s.34-4.87-.35-7.07c-1.15-3.64-4.93-5.71-8.28-6.94A44.16,44.16,0,0,0,32.63.5a46.72,46.72,0,0,0-14.73,2c-3.48,1.12-7.47,3-9.07,6.51-1,2.18-.67,4.75-.67,7.09s-.12,4.57,0,6.84c0,.62.31,1.27.29,1.86s-.28,1.07-.3,1.63c0,.21,0,.42,0,.63v3.83c0,2.26-.12,4.57,0,6.83,0,.55.34,1.21.32,1.74s-.31,1.16-.33,1.75c0,.21,0,.43,0,.63v3.83c0,2.23-.08,4.47,0,6.7.13,3.56,2.87,6,5.84,7.6a35,35,0,0,0,13,3.35,53.48,53.48,0,0,0,14.57-.62c3.7-.69,7.6-1.79,10.64-4.1a8.39,8.39,0,0,0,3.62-6.45c0-.7,0-1.41,0-2.12V41.79c0-.2,0-.41,0-.62a14.67,14.67,0,0,0-.26-1.5A8.06,8.06,0,0,1,55.75,38c.08-.8,0-1.63,0-2.44V27.22c0-.26,0-.53,0-.8C55.76,25.62,55.39,24.92,55.58,24.15Z"/><path class="cls-3" d="M51.78,41.16H12.16V51.81h0c0,.1,0,.2,0,.29,0,4.09,8.87,7.4,19.81,7.4s19.81-3.31,19.81-7.4c0-.09,0-.19,0-.29h0Z"/><path class="cls-4" d="M51.78,52.1c0-.09,0-.19,0-.29h0V41.16H48.9C46,43,41,44.25,35.22,44.61V59.4C44.62,58.82,51.78,55.77,51.78,52.1Z"/><ellipse class="cls-5" cx="31.97" cy="41.46" rx="19.81" ry="7.39"/><path class="cls-3" d="M51.78,26.38H12.16V37h0c0,.1,0,.2,0,.3,0,4.08,8.87,7.39,19.81,7.39s19.81-3.31,19.81-7.39c0-.1,0-.2,0-.3h0Z"/><path class="cls-4" d="M51.78,26.38H48.9C46,28.18,41,29.47,35.22,29.83V44.61C41,44.25,46,43,48.9,41.16c1.83-1.12,2.88-2.43,2.88-3.84,0-.1,0-.2,0-.3h0Z"/><ellipse class="cls-5" cx="31.97" cy="26.67" rx="19.81" ry="7.39"/><path class="cls-3" d="M51.78,11.59H12.16V22.24h0c0,.1,0,.2,0,.29,0,4.09,8.87,7.4,19.81,7.4s19.81-3.31,19.81-7.4c0-.09,0-.19,0-.29h0Z"/><path class="cls-4" d="M51.78,11.59H35.22V29.83C41,29.47,46,28.18,48.9,26.38c1.83-1.12,2.88-2.44,2.88-3.85,0-.09,0-.19,0-.29h0Z"/><ellipse class="cls-5" cx="31.97" cy="11.89" rx="19.81" ry="7.39"/><ellipse class="cls-3" cx="31.97" cy="11.3" rx="11.53" ry="3.25"/></g></g></svg>