<svg xmlns="http://www.w3.org/2000/svg" viewBox="0 0 64 64"><defs><style>.cls-1,.cls-2{fill:#fff;}.cls-1{opacity:0;}</style></defs><title>Feather White</title><g id="Layer_2" data-name="Layer 2"><g id="Finals"><rect class="cls-1" width="64" height="64"/><path class="cls-2" d="M54.82,5.11c-3.9-1.35-7.73-.68-12.41,4.28a1.06,1.06,0,0,0-.26.81,31.17,31.17,0,0,0,1.29,6.45c.16.48-.43,1-.7.58a23.63,23.63,0,0,1-2-3.57,1,1,0,0,0-1.76-.3c-1.85,2.33-3.67,4.71-5.53,7.05C32.27,22,31,23.49,29.75,25c-1,1.17-2,2.33-3,3.46a1.14,1.14,0,0,0-.19.34,22,22,0,0,0-.95,10.11c.07.37-.43.43-.58.07a23,23,0,0,1-1.29-4.15,1.09,1.09,0,0,0-1.86-.52,67.14,67.14,0,0,0-4.53,5.9,31.24,31.24,0,0,0-3.94,7.62,10.66,10.66,0,0,0-3.72-.47.51.51,0,0,0-.32.91,15.73,15.73,0,0,1,3,3.46c-3.45,1.71-6.59,3.15-9,4.22A.81.81,0,0,0,4,57.45a49.74,49.74,0,0,0,9.92-2.91A11.78,11.78,0,0,1,14.66,59c0,.48.65.67,1.05.31A8.71,8.71,0,0,0,18,56c6.46,1.42,13.12-.63,18.71-3.81,1-.55,1-1.84.08-2.1a15.64,15.64,0,0,1-4.13-1.86.4.4,0,0,1-.13-.13.31.31,0,0,1,.37-.46c3.21,1.06,7.32.79,11.54-1a1.39,1.39,0,0,0,.43-.28A40.35,40.35,0,0,0,49.11,42a63.7,63.7,0,0,0,8.8-13.87c.47-1,.93-2.06,1.36-3.14.34-.88-.3-1.77-1.12-1.54A14.33,14.33,0,0,1,54,24c-.47,0-.32-.89.17-1a18,18,0,0,0,6.22-3.58,1.76,1.76,0,0,0,.5-.94C61.82,13.81,59.79,6.82,54.82,5.11Z"/></g></g></svg>