<svg xmlns="http://www.w3.org/2000/svg" viewBox="0 0 64 64"><defs><style>.cls-1,.cls-2{fill:#1a1a1a;}.cls-1{opacity:0;}.cls-3{fill:#f9ecca;}.cls-4{fill:#f6b778;}.cls-5{fill:#ff603d;}.cls-6{fill:#cc7c4c;}</style></defs><title>Feather Outline</title><g id="Layer_2" data-name="Layer 2"><g id="Finals"><rect class="cls-1" width="64" height="64"/><path class="cls-2" d="M63.21,19.81c1.28-6.38-1.74-14.73-8.27-17A13.49,13.49,0,0,0,50.49,2C46.55,2,42.84,4,39.13,7.89a4.7,4.7,0,0,0-1.22,2.47,4.73,4.73,0,0,0-2.2,1.54c-.9,1.13-1.78,2.27-2.67,3.4s-1.73,2.22-2.6,3.32c-1.32,1.67-2.43,3-3.47,4.22s-1.91,2.23-2.84,3.32a4.68,4.68,0,0,0-.91,1.65c-.24.76-.44,1.51-.61,2.26a4.7,4.7,0,0,0-3.11,1.65,68.6,68.6,0,0,0-4.56,5.94,38.43,38.43,0,0,0-3,5.13l-.63,0-.71,0a4.29,4.29,0,0,0-3.37,6.68c-1.58.74-2.95,1.35-4,1.8A4.53,4.53,0,0,0,.6,56.37,4.57,4.57,0,0,0,5.13,60,4.27,4.27,0,0,0,6,59.94a51.21,51.21,0,0,0,5.79-1.41,4.1,4.1,0,0,0,1.12,2.12A4.39,4.39,0,0,0,16,62a4.48,4.48,0,0,0,3.06-1.21A12.85,12.85,0,0,0,20.66,59c.67.06,1.36.09,2.05.09a32,32,0,0,0,15.6-4.56,5.16,5.16,0,0,0,2.58-3.7,23,23,0,0,0,4.4-1.43,5.12,5.12,0,0,0,1.45-.93,41,41,0,0,0,4.48-4.59,63.86,63.86,0,0,0,8.88-14c.54-1.19,1-2.2,1.37-3.18a5,5,0,0,0,0-3.81l0,0A5.37,5.37,0,0,0,63.21,19.81Z"/><path class="cls-3" d="M14.34,47a10.05,10.05,0,0,0-3.53-.44.49.49,0,0,0-.31.86,15.19,15.19,0,0,1,2.89,3.3c-3.28,1.62-6.27,3-8.6,4a.77.77,0,0,0,.53,1.44,46.57,46.57,0,0,0,9.43-2.77,11.48,11.48,0,0,1,.76,4.25c0,.46.62.64,1,.29a8.22,8.22,0,0,0,2.13-3.11c6.15,1.34,12.48-.61,17.8-3.63.91-.53,1-1.75.07-2a14.89,14.89,0,0,1-3.93-1.76.47.47,0,0,1-.12-.13,28.88,28.88,0,0,1-14.36-7.55A30.09,30.09,0,0,0,14.34,47Z"/><path class="cls-4" d="M32.81,46.9c3,1,6.95.75,11-1a1.36,1.36,0,0,0,.41-.26,38.3,38.3,0,0,0,4.08-4.17,60.6,60.6,0,0,0,8.37-13.19c-6.82,3.34-14.84,2.54-20-2.63A15.51,15.51,0,0,1,33.42,21q-1.74,2.2-3.57,4.34L27,28.62a.92.92,0,0,0-.18.32,20.73,20.73,0,0,0-.9,9.61c.06.36-.41.41-.56.07a23.25,23.25,0,0,1-1.22-3.95,1,1,0,0,0-1.77-.5,65.23,65.23,0,0,0-4.31,5.62,28.88,28.88,0,0,0,14.36,7.55A.3.3,0,0,1,32.81,46.9Z"/><path class="cls-5" d="M56.64,28.29c.45-1,.88-2,1.29-3,.33-.83-.28-1.68-1.07-1.46a13.55,13.55,0,0,1-3.94.51c-.44,0-.3-.85.17-1A16.88,16.88,0,0,0,59,20a1.54,1.54,0,0,0,.48-.89c.88-4.37-1-11-5.78-12.65C50,5.15,46.35,5.78,41.9,10.5a1,1,0,0,0-.25.77,28.62,28.62,0,0,0,1.23,6.14c.15.44-.42.91-.67.54a22.61,22.61,0,0,1-1.85-3.39,1,1,0,0,0-1.67-.29c-1.77,2.22-3.5,4.48-5.27,6.71a15.51,15.51,0,0,0,3.21,4.68C41.8,30.83,49.82,31.63,56.64,28.29Z"/><path class="cls-6" d="M17.85,50.51c1.72-1.33,3.39-2.76,5-4.16s3.27-2.87,4.84-4.37,3.11-3,4.6-4.62,2.94-3.21,4.43-4.85h0a.47.47,0,0,1,.76.56,40.68,40.68,0,0,1-3.76,5.55,48.25,48.25,0,0,1-4.52,5,48.16,48.16,0,0,1-5.14,4.32,33,33,0,0,1-5.79,3.44.47.47,0,0,1-.63-.23.49.49,0,0,1,.14-.58Z"/></g></g></svg>