<svg xmlns="http://www.w3.org/2000/svg" viewBox="0 0 64 64"><defs><style>.cls-1{opacity:0;}.cls-2{fill:#1a1a1a;}.cls-3{fill:#f2f2f2;}.cls-4{fill:#96dbff;}.cls-5{fill:#3da8e0;}.cls-6{fill:#1778ff;}.cls-7{fill:#0049c7;}.cls-8{fill:#37b9ff;}.cls-9{fill:#ea5841;}.cls-10{fill:#f2a55d;}.cls-11{fill:#eacc96;}.cls-12{fill:#a72122;}</style></defs><title>Potion 3 Blue Outline</title><g id="Layer_2" data-name="Layer 2"><g id="_101-200" data-name="101-200"><g class="cls-1"><rect class="cls-2" width="64" height="64"/></g><path class="cls-2" d="M52.4,21.08l-6.13-2.14.16-1.78a4,4,0,0,0,.76-1.54l1.11-4.53A4,4,0,0,0,45,6.19l.09-.79A4,4,0,0,0,41.32,1L31,.5h-.41L23.25,1a4,4,0,0,0-3.73,4.48l.1.84A4,4,0,0,0,17,7.8a4,4,0,0,0-.77,3.13L17,15.35a4,4,0,0,0,1.39,2.4l.11,1.09-6.82,2.33a4,4,0,0,0-2.69,4.16l2.55,27a4,4,0,0,0,2.56,3.37l20,7.56a4.1,4.1,0,0,0,1.42.26,4.05,4.05,0,0,0,2-.56L51.2,54.78a4,4,0,0,0,1.94-3.15l1.93-26.48A4,4,0,0,0,52.4,21.08Z"/><polygon class="cls-3" points="35.46 59.5 35.46 30.25 12.92 24.96 15.47 51.94 35.46 59.5"/><polygon class="cls-4" points="35.46 59.5 35.46 30.25 51.08 24.86 49.15 51.34 35.46 59.5"/><polygon class="cls-4" points="35.46 30.25 32.37 18.31 51.08 24.86 35.46 30.25"/><polygon class="cls-3" points="32.37 18.31 12.92 24.96 35.46 30.25 32.37 18.31"/><polygon class="cls-4" points="22.75 21.59 33.91 24.28 33.91 14.11 21.81 12.23 22.75 21.59"/><polygon class="cls-3" points="22.75 21.59 25.02 22.14 24.19 12.6 21.81 12.23 22.75 21.59"/><polygon class="cls-5" points="33.91 24.28 42.01 21.68 42.86 12.12 33.91 14.11 33.91 24.28"/><polygon class="cls-4" points="42.01 21.68 42.86 12.12 40.68 12.61 39.8 22.39 42.01 21.68"/><polygon class="cls-3" points="20.12 10.24 20.89 14.66 33.91 16.87 33.91 12.12 20.12 10.24"/><polygon class="cls-4" points="44.42 10.14 43.31 14.66 33.91 16.87 33.91 12.12 44.42 10.14"/><polygon class="cls-3" points="20.12 10.24 31.66 9.28 44.42 10.14 33.91 12.12 20.12 10.24"/><polygon class="cls-6" points="35.46 55.97 18.33 49.56 17.24 36.17 35.46 41.4 35.46 55.97"/><polygon class="cls-7" points="35.46 55.97 35.46 41.4 47.09 36.17 46.32 49.35 35.46 55.97"/><polygon class="cls-8" points="17.24 36.17 30.13 32.34 35.46 33.54 35.46 41.4 17.24 36.17"/><polygon class="cls-6" points="35.46 41.4 35.46 33.54 47.09 36.17 35.46 41.4"/><polygon class="cls-4" points="17.24 36.17 16.56 27.86 35.46 32.34 35.46 33.54 30.13 32.34 17.24 36.17"/><polygon class="cls-5" points="35.46 32.34 47.58 27.86 47.09 36.17 35.46 33.54 35.46 32.34"/><polygon class="cls-9" points="34.04 11.13 40.55 10.1 41.15 4.94 34.04 5.66 34.04 11.13"/><polygon class="cls-10" points="34.04 11.13 24.14 10.24 23.49 4.94 34.04 5.66 34.04 11.13"/><polygon class="cls-11" points="23.49 4.94 30.87 4.5 41.15 4.94 34.04 5.66 23.49 4.94"/><polygon class="cls-9" points="24.66 18.01 33.91 19.89 33.91 16.87 24.42 15.26 24.66 18.01"/><polygon class="cls-12" points="33.91 19.89 40.18 18.2 40.43 15.34 33.91 16.87 33.91 19.89"/></g></g></svg>