<svg xmlns="http://www.w3.org/2000/svg" viewBox="0 0 64 64"><defs><style>.cls-1,.cls-2{fill:#1a1a1a;}.cls-1{opacity:0;}.cls-3{fill:#fff;}.cls-4{fill:#324652;}</style></defs><title>Card Club Outline</title><g id="Layer_2" data-name="Layer 2"><g id="_001-100" data-name="001-100"><rect class="cls-1" width="64" height="64"/><rect class="cls-2" x="0.5" y="9.5" width="63" height="45" rx="8" transform="translate(64) rotate(90)"/><rect class="cls-3" x="13.5" y="4.5" width="37" height="55" rx="4"/><path class="cls-4" d="M44,33a6.51,6.51,0,0,0-5.7-6.45A6,6,0,0,0,38.5,25a6.5,6.5,0,1,0-12.81,1.55,6.5,6.5,0,1,0,5.08,11.33C30.33,39.51,29,42.17,25,43.5v2H39v-2c-4-1.33-5.33-4-5.77-5.62A6.48,6.48,0,0,0,44,33ZM32,36.5l0,0,0,0H32Z"/></g></g></svg>