<svg xmlns="http://www.w3.org/2000/svg" viewBox="0 0 64 64"><defs><style>.cls-1{opacity:0;}.cls-2{fill:#fff;}.cls-3{fill:#e62e49;}</style></defs><title>Card Heart</title><g id="Layer_2" data-name="Layer 2"><g id="_001-100" data-name="001-100"><g class="cls-1"><rect class="cls-2" width="64" height="64"/></g><rect class="cls-2" x="13.5" y="4.5" width="37" height="55" rx="4"/><path class="cls-3" d="M31.91,25.82a7.63,7.63,0,0,1,2.43-2.2,6.68,6.68,0,0,1,3.19-.74,6.54,6.54,0,0,1,5.36,3c3,4.57-1.08,10-4.33,13.05a40.29,40.29,0,0,1-6.2,4.83c-.31.2-.45.27-.77.07l-.83-.53c-.53-.36-1.05-.72-1.56-1.09a36.32,36.32,0,0,1-2.91-2.34,23.6,23.6,0,0,1-4.9-5.69c-1.21-2.09-1.95-4.67-1.08-7a6.52,6.52,0,0,1,10.4-2.65A10.08,10.08,0,0,1,31.91,25.82Z"/></g></g></svg>