<svg xmlns="http://www.w3.org/2000/svg" viewBox="0 0 64 64"><defs><style>.cls-1,.cls-2{fill:#fff;}.cls-1{opacity:0;}</style></defs><title>Card White</title><g id="Layer_2" data-name="Layer 2"><g id="Finals"><rect class="cls-1" width="64" height="64"/><path class="cls-2" d="M46.5,4.5h-29a4,4,0,0,0-4,4v47a4,4,0,0,0,4,4h29a4,4,0,0,0,4-4V8.5A4,4,0,0,0,46.5,4.5Zm1,51a1,1,0,0,1-1,1h-29a1,1,0,0,1-1-1V8.5a1,1,0,0,1,1-1h29a1,1,0,0,1,1,1Z"/><path class="cls-2" d="M44.5,54h-25a.5.5,0,0,1-.5-.5v-43a.5.5,0,0,1,.5-.5h25a.5.5,0,0,1,.5.5v43A.5.5,0,0,1,44.5,54Z"/></g></g></svg>