<svg xmlns="http://www.w3.org/2000/svg" viewBox="0 0 64 64"><defs><style>.cls-1,.cls-2{fill:#1a1a1a;}.cls-1{opacity:0;}.cls-3{fill:#fff;}.cls-4{fill:#e62e49;}.cls-5{fill:#a72d3e;}.cls-6{fill:#ff8c8c;}</style></defs><title>Card Outline</title><g id="Layer_2" data-name="Layer 2"><g id="Finals"><rect class="cls-1" width="64" height="64"/><rect class="cls-2" x="0.5" y="9.5" width="63" height="45" rx="8" transform="translate(64) rotate(90)"/><rect class="cls-3" x="13.5" y="4.5" width="37" height="55" rx="4"/><rect class="cls-4" x="7.5" y="16.5" width="49" height="31" rx="1" transform="translate(64 0) rotate(90)"/><polygon class="cls-5" points="21.26 47.63 23.41 51.54 25.55 47.63 23.41 43.73 21.26 47.63"/><polygon class="cls-5" points="25.55 47.63 27.7 51.54 29.85 47.63 27.7 43.73 25.55 47.63"/><polygon class="cls-5" points="29.85 47.63 32 51.54 34.15 47.63 32 43.73 29.85 47.63"/><polygon class="cls-5" points="34.15 47.63 36.3 51.54 38.45 47.63 36.3 43.73 34.15 47.63"/><polygon class="cls-5" points="40.59 51.54 42.74 47.63 40.59 43.73 38.45 47.63 40.59 51.54"/><polygon class="cls-5" points="23.41 35.91 21.26 39.82 23.41 43.73 25.55 39.82 23.41 35.91"/><polygon class="cls-5" points="25.55 39.82 27.7 43.73 29.85 39.82 27.7 35.91 25.55 39.82"/><polygon class="cls-5" points="29.85 39.82 32 43.73 34.15 39.82 32 35.91 29.85 39.82"/><polygon class="cls-5" points="36.3 43.73 38.45 39.82 36.3 35.91 34.15 39.82 36.3 43.73"/><polygon class="cls-5" points="40.59 43.73 42.74 39.82 40.59 35.91 38.45 39.82 40.59 43.73"/><polygon class="cls-5" points="23.41 28.09 21.26 32 23.41 35.91 25.55 32 23.41 28.09"/><polygon class="cls-5" points="27.7 28.09 25.55 32 27.7 35.91 29.85 32 27.7 28.09"/><polygon class="cls-5" points="32 35.91 34.15 32 32 28.09 29.85 32 32 35.91"/><polygon class="cls-5" points="36.3 35.91 38.45 32 36.3 28.09 34.15 32 36.3 35.91"/><polygon class="cls-5" points="40.59 35.91 42.74 32 40.59 28.09 38.45 32 40.59 35.91"/><polygon class="cls-5" points="23.41 20.27 21.26 24.18 23.41 28.09 25.55 24.18 23.41 20.27"/><polygon class="cls-5" points="27.7 20.27 25.55 24.18 27.7 28.09 29.85 24.18 27.7 20.27"/><polygon class="cls-5" points="34.15 24.18 32 20.27 29.85 24.18 32 28.09 34.15 24.18"/><polygon class="cls-5" points="34.15 24.18 36.3 28.09 38.45 24.18 36.3 20.27 34.15 24.18"/><polygon class="cls-5" points="40.59 20.27 38.45 24.18 40.59 28.09 42.74 24.18 40.59 20.27"/><polygon class="cls-5" points="23.41 12.46 21.26 16.37 23.41 20.27 25.55 16.37 23.41 12.46"/><polygon class="cls-5" points="29.85 16.37 27.7 12.46 25.55 16.37 27.7 20.27 29.85 16.37"/><polygon class="cls-5" points="34.15 16.37 32 12.46 29.85 16.37 32 20.27 34.15 16.37"/><polygon class="cls-5" points="38.45 16.37 36.3 12.46 34.15 16.37 36.3 20.27 38.45 16.37"/><polygon class="cls-5" points="42.74 16.37 40.59 12.46 38.45 16.37 40.59 20.27 42.74 16.37"/><path class="cls-6" d="M44.5,54h-25a.5.5,0,0,1-.5-.5v-43a.5.5,0,0,1,.5-.5h25a.5.5,0,0,1,.5.5v43A.5.5,0,0,1,44.5,54ZM20,53H44V11H20Z"/></g></g></svg>