<svg xmlns="http://www.w3.org/2000/svg" viewBox="0 0 64 64"><defs><style>.cls-1,.cls-2{fill:#1a1a1a;}.cls-1{opacity:0;}.cls-3{fill:#fff;}.cls-4{fill:#324652;}</style></defs><title>Card Spade Outline</title><g id="Layer_2" data-name="Layer 2"><g id="_001-100" data-name="001-100"><rect class="cls-1" width="64" height="64"/><rect class="cls-2" x="0.5" y="9.5" width="63" height="45" rx="8" transform="translate(64) rotate(90)"/><rect class="cls-3" x="13.5" y="4.5" width="37" height="55" rx="4"/><path class="cls-4" d="M42.54,28.21a23.6,23.6,0,0,0-4.9-5.69,36.32,36.32,0,0,0-2.91-2.34c-.51-.37-1-.73-1.56-1.09l-.83-.53c-.32-.2-.46-.13-.77.07a40.29,40.29,0,0,0-6.2,4.83c-3.25,3.1-7.31,8.48-4.33,13a6.54,6.54,0,0,0,5.36,3,6.68,6.68,0,0,0,3.19-.74,5.83,5.83,0,0,0,1.48-1.12c0,.64-.44,4.07-6,5.92v2h14v-2c-5.31-1.77-5.92-4.88-6-5.81l.14.14a6.52,6.52,0,0,0,10.4-2.65C44.49,32.88,43.75,30.3,42.54,28.21Z"/></g></g></svg>