<?xml version="1.0" encoding="UTF-8"?>
<svg id="Layer_2" data-name="Layer 2" xmlns="http://www.w3.org/2000/svg" viewBox="0 0 64 64">
  <defs>
    <style>
      .cls-1 {
        fill: #fff;
      }

      .cls-2 {
        fill: #cef;
      }

      .cls-3 {
        fill: #1a1a1a;
        opacity: 0;
      }
    </style>
  </defs>
  <g id="Colour">
    <g>
      <rect class="cls-3" width="64" height="64"/>
      <g>
        <path class="cls-2" d="M29.93,4.5h4.13c1.1,0,2,.9,2,2V23.82h-8.13V6.5c0-1.1,.9-2,2-2Z"/>
        <path class="cls-1" d="M32,23.16c-7.28,0-13.8,1.32-18.26,3.42-1.27,.6-1.93,2.02-1.58,3.38l5.3,20.68h29.07l5.3-20.68c.35-1.36-.31-2.78-1.58-3.38-4.45-2.1-10.98-3.42-18.26-3.42Z"/>
        <rect class="cls-2" x="27.93" y="5.26" width="8.13" height="19.32" rx="2" ry="2" transform="translate(46.93 -17.07) rotate(90)"/>
        <path class="cls-2" d="M32,45.35c-6.16,0-11.94-1.53-16.97-4.21l2.44,9.51h29.07l2.44-9.51c-5.03,2.68-10.81,4.21-16.97,4.21Z"/>
        <path class="cls-1" d="M49.8,53.78l-3.27-3.14H17.47l-3.27,3.14c-.05,.05-.09,.11-.13,.16H49.94c-.05-.05-.08-.11-.13-.16Z"/>
        <path class="cls-2" d="M13.47,58.33c0,.65,.53,1.17,1.17,1.17H49.35c.65,0,1.17-.53,1.17-1.17v-2.85c0-.57-.22-1.11-.59-1.54H14.06c-.37,.43-.59,.97-.59,1.54v2.85Z"/>
      </g>
    </g>
  </g>
</svg>