<?xml version="1.0" encoding="UTF-8"?>
<svg id="Layer_2" data-name="Layer 2" xmlns="http://www.w3.org/2000/svg" viewBox="0 0 64 64">
  <defs>
    <style>
      .cls-1 {
        fill: #fff;
      }

      .cls-2 {
        fill: #cef;
      }

      .cls-3 {
        fill: #1a1a1a;
        opacity: 0;
      }
    </style>
  </defs>
  <g id="Colour">
    <g>
      <rect class="cls-3" width="64" height="64"/>
      <g>
        <path class="cls-1" d="M49.8,53.62l-3.27-3.14H17.46l-3.27,3.14c-.11,.11-.21,.22-.29,.34H50.09c-.09-.12-.18-.24-.29-.34Z"/>
        <path class="cls-2" d="M13.47,58.17c0,.65,.53,1.17,1.17,1.17H49.35c.65,0,1.17-.53,1.17-1.17v-2.85c0-.49-.15-.96-.43-1.35H13.9c-.28,.39-.43,.86-.43,1.35v2.85Z"/>
        <rect class="cls-1" x="17.46" y="29.74" width="29.07" height="20.74"/>
        <path class="cls-1" d="M17.46,29.74l-3.48-4.36c-.33-.42-.51-.93-.51-1.46v-7.14H50.53v7.14c0,.53-.18,1.05-.51,1.46l-3.48,4.36H17.46Z"/>
        <path class="cls-1" d="M15.47,11.56h4.65c1.1,0,2,.9,2,2v3.22H13.47v-3.22c0-1.1,.9-2,2-2Z"/>
        <path class="cls-1" d="M43.88,11.56h4.65c1.1,0,2,.9,2,2v3.22h-8.65v-3.22c0-1.1,.9-2,2-2Z"/>
        <path class="cls-1" d="M29.67,11.56h4.65c1.1,0,2,.9,2,2v3.22h-8.65v-3.22c0-1.1,.9-2,2-2Z"/>
        <path class="cls-2" d="M50.53,23.92H13.47c0,.53,.18,1.05,.51,1.46l3.48,4.36h29.07l3.48-4.36c.33-.42,.51-.93,.51-1.46Z"/>
      </g>
    </g>
  </g>
</svg>