<svg xmlns="http://www.w3.org/2000/svg" viewBox="0 0 64 64"><defs><style>.cls-1,.cls-2{fill:#1a1a1a;}.cls-1{opacity:0;}.cls-3{fill:#dae2e6;}.cls-4{fill:#abc0c9;}.cls-5{fill:#fff;}</style></defs><title>Plate Outline</title><g id="Layer_2" data-name="Layer 2"><g id="Layer_3" data-name="Layer 3"><rect class="cls-1" width="64" height="64"/><circle class="cls-2" cx="32" cy="32" r="31.5"/><circle class="cls-3" cx="32" cy="32" r="27.5"/><path class="cls-4" d="M16.74,30.82a15.3,15.3,0,0,1,30.52,0,14.78,14.78,0,0,1,3.59,4A20,20,0,0,0,51.08,32a19.08,19.08,0,0,0-38.16,0,20,20,0,0,0,.23,2.81A14.78,14.78,0,0,1,16.74,30.82Z"/><path class="cls-5" d="M32,51.08A19.07,19.07,0,0,0,50.85,34.81a14.78,14.78,0,0,0-3.59-4c0,.39.06.78.06,1.18a15.32,15.32,0,0,1-30.64,0c0-.4,0-.79.06-1.18a14.78,14.78,0,0,0-3.59,4A19.07,19.07,0,0,0,32,51.08Z"/></g></g></svg>