<svg xmlns="http://www.w3.org/2000/svg" viewBox="0 0 64 64"><defs><style>.cls-1{fill:#1a1a1a;opacity:0;}.cls-2{fill:#fff;}</style></defs><title>Plate Flat White</title><g id="Layer_2" data-name="Layer 2"><g id="Layer_3" data-name="Layer 3"><rect class="cls-1" width="64" height="64"/><path class="cls-2" d="M32,16.68A15.32,15.32,0,0,0,16.74,30.82c0,.39-.06.78-.06,1.18a15.32,15.32,0,0,0,30.64,0c0-.4,0-.79-.06-1.18A15.32,15.32,0,0,0,32,16.68Z"/><path class="cls-2" d="M32,4.5A27.5,27.5,0,1,0,59.5,32,27.5,27.5,0,0,0,32,4.5ZM50.85,34.81a19.05,19.05,0,0,1-37.7,0A20,20,0,0,1,12.92,32a19.08,19.08,0,0,1,38.16,0A20,20,0,0,1,50.85,34.81Z"/></g></g></svg>