<svg xmlns="http://www.w3.org/2000/svg" viewBox="0 0 64 64"><defs><style>.cls-1{opacity:0;}.cls-2{fill:#fff;}.cls-3{fill:#f28f04;}.cls-4{fill:#fdbc0d;}.cls-5{fill:#333;}</style></defs><title>Warning </title><g id="Layer_2" data-name="Layer 2"><g id="Layer_3" data-name="Layer 3"><g class="cls-1"><rect class="cls-2" width="64" height="64"/></g><path class="cls-3" d="M57.5,48.57h0A4,4,0,0,0,57,46.71L35.4,9.36a3.92,3.92,0,0,0-6.8,0L7,46.71a4,4,0,0,0-.52,1.86h0v4h0a3.93,3.93,0,0,0,3.93,4H53.56a3.93,3.93,0,0,0,3.93-4h0Z"/><path class="cls-4" d="M57,46.71,35.4,9.36a3.92,3.92,0,0,0-6.8,0L7,46.71a3.94,3.94,0,0,0,3.41,5.9H53.56A3.94,3.94,0,0,0,57,46.71Z"/><path class="cls-3" d="M28.85,42.09a1.93,1.93,0,0,1,1.15-1,7.89,7.89,0,0,1,2.42-.27,3.34,3.34,0,0,1,2.38.72,3.07,3.07,0,0,1,.73,2.27v.6a10.71,10.71,0,0,1-.06,1.34,3.17,3.17,0,0,1-.35,1c-.41.73-1.37,1.1-2.89,1.1a4.45,4.45,0,0,1-3-.74,4.09,4.09,0,0,1-.73-2.85A4.9,4.9,0,0,1,28.85,42.09Zm5.06-4.4a7.67,7.67,0,0,1-1.93.19,7.67,7.67,0,0,1-1.93-.19,1.56,1.56,0,0,1-1-.68,2.62,2.62,0,0,1-.34-.87A10.56,10.56,0,0,1,28.66,35V23a11.13,11.13,0,0,1,.05-1.19,2.45,2.45,0,0,1,.36-.89,1.67,1.67,0,0,1,1-.7A7.11,7.11,0,0,1,32,20a7.16,7.16,0,0,1,1.93.21,1.61,1.61,0,0,1,1,.72,2.75,2.75,0,0,1,.34.9A11.41,11.41,0,0,1,35.34,23V35a10.56,10.56,0,0,1-.05,1.17,2.36,2.36,0,0,1-.36.85A1.67,1.67,0,0,1,33.91,37.69Z"/><path class="cls-5" d="M28.85,40.09a1.93,1.93,0,0,1,1.15-1,7.89,7.89,0,0,1,2.42-.27,3.34,3.34,0,0,1,2.38.72,3.07,3.07,0,0,1,.73,2.27v.6a10.71,10.71,0,0,1-.06,1.34,3.17,3.17,0,0,1-.35,1c-.41.73-1.37,1.1-2.89,1.1a4.45,4.45,0,0,1-3-.74,4.09,4.09,0,0,1-.73-2.85A4.9,4.9,0,0,1,28.85,40.09Zm5.06-4.4a7.67,7.67,0,0,1-1.93.19,7.67,7.67,0,0,1-1.93-.19,1.56,1.56,0,0,1-1-.68,2.62,2.62,0,0,1-.34-.87A10.56,10.56,0,0,1,28.66,33V21a11.13,11.13,0,0,1,.05-1.19,2.45,2.45,0,0,1,.36-.89,1.67,1.67,0,0,1,1-.7A7.11,7.11,0,0,1,32,18a7.16,7.16,0,0,1,1.93.21,1.61,1.61,0,0,1,1,.72,2.75,2.75,0,0,1,.34.9A11.41,11.41,0,0,1,35.34,21V33a10.56,10.56,0,0,1-.05,1.17,2.36,2.36,0,0,1-.36.85A1.67,1.67,0,0,1,33.91,35.69Z"/></g></g></svg>