<svg xmlns="http://www.w3.org/2000/svg" viewBox="0 0 64 64"><defs><style>.cls-1{opacity:0;}.cls-2{fill:#fff;}</style></defs><title>Warning White </title><g id="Layer_2" data-name="Layer 2"><g id="Layer_3" data-name="Layer 3"><g class="cls-1"><rect class="cls-2" width="64" height="64"/></g><path class="cls-2" d="M58.93,50,35.67,9.74a4.24,4.24,0,0,0-7.34,0L5.07,50a4.24,4.24,0,0,0,3.68,6.36h46.5A4.24,4.24,0,0,0,58.93,50ZM28.4,23.37a9.94,9.94,0,0,1,.06-1.28,2.62,2.62,0,0,1,.38-1,1.86,1.86,0,0,1,1.1-.76A8.2,8.2,0,0,1,32,20.15a8.2,8.2,0,0,1,2.08.22,1.73,1.73,0,0,1,1.08.78,3,3,0,0,1,.36,1,9.94,9.94,0,0,1,.06,1.28V36.32a9.49,9.49,0,0,1-.06,1.26,2.47,2.47,0,0,1-.38.92,1.77,1.77,0,0,1-1.1.71,8.26,8.26,0,0,1-2.08.21,8.26,8.26,0,0,1-2.08-.21,1.68,1.68,0,0,1-1.08-.73,2.72,2.72,0,0,1-.36-.94,9.49,9.49,0,0,1-.06-1.26Zm7.41,23.09a12.49,12.49,0,0,1-.06,1.45A3.57,3.57,0,0,1,35.36,49c-.43.79-1.47,1.18-3.12,1.18S29.52,50,29,49.42a4.42,4.42,0,0,1-.8-3.08A5.41,5.41,0,0,1,28.6,44a2.1,2.1,0,0,1,1.24-1.08,8.73,8.73,0,0,1,2.61-.29,3.55,3.55,0,0,1,2.56.78,3.27,3.27,0,0,1,.8,2.44Z"/></g></g></svg>