<svg xmlns="http://www.w3.org/2000/svg" viewBox="0 0 64 64"><defs><style>.cls-1,.cls-3{fill:#fff;}.cls-1{opacity:0;}.cls-2{fill:#80bad9;}.cls-2,.cls-3{fill-rule:evenodd;}</style></defs><title>Redo</title><g id="Layer_2" data-name="Layer 2"><g id="Layer_2-2" data-name="Layer 2"><rect class="cls-1" width="64" height="64"/><path class="cls-2" d="M4.72,37.89A20.63,20.63,0,0,0,25.36,58.52h24.5a1.29,1.29,0,0,0,1.29-1.29V41.76a1.29,1.29,0,0,0-1.29-1.29H25.36a7.74,7.74,0,0,1-7.29-5.16,7.74,7.74,0,0,1,7.29-5.16H39v5.33a1.28,1.28,0,0,0,2,1.07L58.7,24.78a1.31,1.31,0,0,0,.58-1.08V18.55a1.31,1.31,0,0,0-.58-1.08L41,5.69a1.29,1.29,0,0,0-2,1.08V12.1H25.36A20.64,20.64,0,0,0,4.72,32.73a21.91,21.91,0,0,0,.18,2.58A21.91,21.91,0,0,0,4.72,37.89Z"/><path class="cls-3" d="M25.36,53.37h24.5a1.29,1.29,0,0,0,1.29-1.29V41.76a1.29,1.29,0,0,0-1.29-1.29H25.36a7.74,7.74,0,1,1,0-15.48H39v5.33a1.29,1.29,0,0,0,2,1.08L58.7,19.62a1.29,1.29,0,0,0,0-2.15L41,5.69a1.29,1.29,0,0,0-2,1.08V12.1H25.36a20.64,20.64,0,1,0,0,41.27Z"/></g></g></svg>