<svg xmlns="http://www.w3.org/2000/svg" viewBox="0 0 64 64"><defs><style>.cls-1,.cls-2{fill:#fff;}.cls-1{opacity:0;}.cls-2{fill-rule:evenodd;}</style></defs><title>Redo White</title><g id="Layer_2" data-name="Layer 2"><g id="Layer_2-2" data-name="Layer 2"><rect class="cls-1" width="64" height="64"/><path class="cls-2" d="M25.36,55.94h24.5a1.29,1.29,0,0,0,1.29-1.29V44.34a1.29,1.29,0,0,0-1.29-1.29H25.36a7.74,7.74,0,0,1,0-15.48H39V32.9A1.29,1.29,0,0,0,41,34L58.7,22.2a1.29,1.29,0,0,0,0-2.15L41,8.27a1.29,1.29,0,0,0-2,1.08v5.33H25.36a20.63,20.63,0,1,0,0,41.26Z"/></g></g></svg>