<svg xmlns="http://www.w3.org/2000/svg" viewBox="0 0 64 64"><defs><style>.cls-1,.cls-2{fill:#1a1a1a;}.cls-1{opacity:0;}</style></defs><title>Heart Flat Black</title><g id="Layer_2" data-name="Layer 2"><g id="Layer_3" data-name="Layer 3"><rect class="cls-1" width="64" height="64"/><path class="cls-2" d="M56.42,13.9A13.32,13.32,0,0,0,42.9,8.21a15.87,15.87,0,0,0-9,4.67c-.6.61-1.25,1.19-1.92,1.8-.67-.61-1.32-1.19-1.92-1.8a15.87,15.87,0,0,0-9-4.67A13.32,13.32,0,0,0,7.58,13.9a15.28,15.28,0,0,0-3.07,9.6,19.34,19.34,0,0,0,1.74,7.29A39.19,39.19,0,0,0,12.9,40.92,89,89,0,0,0,25.33,52.49c1,.78,2,1.54,3,2.31a6.09,6.09,0,0,0,7.3,0c1-.77,2-1.53,3-2.31A89.08,89.08,0,0,0,51.14,40.91a39.14,39.14,0,0,0,6.65-10.12,19.48,19.48,0,0,0,1.7-7.28A15.25,15.25,0,0,0,56.42,13.9Z"/></g></g></svg>