<svg xmlns="http://www.w3.org/2000/svg" viewBox="0 0 64 64"><defs><style>.cls-1,.cls-2{fill:#1a1a1a;}.cls-1{opacity:0;}.cls-3{fill:#c62d43;}.cls-4{fill:#e62e49;}.cls-5{fill:#ff7f7d;}</style></defs><title>Heart Outline</title><g id="Layer_2" data-name="Layer 2"><g id="Layer_3" data-name="Layer 3"><rect class="cls-1" width="64" height="64"/><path class="cls-2" d="M32,60A10,10,0,0,1,26,58c-1-.78-2.07-1.56-3.09-2.36a92.4,92.4,0,0,1-13-12.06A43,43,0,0,1,2.6,32.44,23.35,23.35,0,0,1,.51,23.66a19.42,19.42,0,0,1,3.8-12.08A17.29,17.29,0,0,1,21.78,4.27,20,20,0,0,1,32,9.17a20,20,0,0,1,10.22-4.9,17.27,17.27,0,0,1,17.46,7.31,19.41,19.41,0,0,1,3.81,12,23.37,23.37,0,0,1-2.05,8.82A43.12,43.12,0,0,1,54.1,43.6a92.65,92.65,0,0,1-13,12.06c-1,.78-2,1.56-3.07,2.34A10,10,0,0,1,32,60Z"/><path class="cls-3" d="M56.42,13.9A13.33,13.33,0,0,0,42.89,8.21a15.84,15.84,0,0,0-9,4.67c-.61.61-1.25,1.19-1.92,1.8-.67-.61-1.32-1.19-1.93-1.8a15.84,15.84,0,0,0-9-4.67A13.34,13.34,0,0,0,7.57,13.9,15.4,15.4,0,0,0,4.5,23.5a19.54,19.54,0,0,0,1.75,7.29A39.19,39.19,0,0,0,12.9,40.92,89,89,0,0,0,25.33,52.49c1,.78,2,1.54,3,2.31a6.11,6.11,0,0,0,7.31,0c1-.77,2-1.53,3-2.31A89.08,89.08,0,0,0,51.14,40.91a39.14,39.14,0,0,0,6.65-10.12,19.48,19.48,0,0,0,1.7-7.28A15.31,15.31,0,0,0,56.42,13.9Z"/><path class="cls-4" d="M35,43.75c20.57-6.86,20.92-31,8.62-35.65l-.74.11a15.84,15.84,0,0,0-9,4.67c-.61.61-1.25,1.19-1.92,1.8-.67-.61-1.32-1.19-1.93-1.8a15.84,15.84,0,0,0-9-4.67A13.34,13.34,0,0,0,7.57,13.9,15.4,15.4,0,0,0,4.5,23.5a19.54,19.54,0,0,0,1.75,7.29C6.76,31.93,7.35,33,8,34.12,14.38,41,23.84,47.48,35,43.75Z"/><path class="cls-5" d="M21.15,14c1.32,2.16-.57,4.64-3.62,6.5s-6.12,2.41-7.44.25.09-5.42,3.14-7.28S19.83,11.88,21.15,14Z"/></g></g></svg>