<svg xmlns="http://www.w3.org/2000/svg" viewBox="0 0 64 64"><defs><style>.cls-1{opacity:0;}.cls-2{fill:#fff;}.cls-3{fill:#5414b3;}.cls-4{fill:#a0f;}.cls-5{fill:#d769ff;}</style></defs><title>Heart Purple</title><g id="Layer_2" data-name="Layer 2"><g id="_001-100" data-name="001-100"><g class="cls-1"><rect class="cls-2" width="64" height="64"/></g><path class="cls-3" d="M56.87,12.75A13.59,13.59,0,0,0,43.08,7,16,16,0,0,0,34,11.72c-.63.62-1.29,1.21-2,1.83-.68-.62-1.34-1.21-2-1.83A16,16,0,0,0,20.92,7,13.59,13.59,0,0,0,7.13,12.75,15.66,15.66,0,0,0,4,22.53,20,20,0,0,0,5.74,30a39.56,39.56,0,0,0,6.78,10.32A90.1,90.1,0,0,0,25.19,52.07c2.24,1.75,4.54,3.44,6.81,5.16,2.27-1.72,4.57-3.41,6.81-5.16A90.1,90.1,0,0,0,51.48,40.28,39.56,39.56,0,0,0,58.26,30,20,20,0,0,0,60,22.53,15.66,15.66,0,0,0,56.87,12.75Z"/><path class="cls-4" d="M28.6,46.14s24-13.32,25.2-25.63A18.42,18.42,0,0,0,50.51,7.65,14.7,14.7,0,0,0,43.08,7,16,16,0,0,0,34,11.72c-.63.62-1.29,1.21-2,1.83-.68-.62-1.34-1.21-2-1.83A16,16,0,0,0,20.92,7,13.59,13.59,0,0,0,7.13,12.75,15.66,15.66,0,0,0,4,22.53,20,20,0,0,0,5.74,30c.08.19.17.38.26.58A53.75,53.75,0,0,0,28.6,46.14Z"/><path class="cls-5" d="M30,11.72A16,16,0,0,0,20.92,7,13.59,13.59,0,0,0,7.13,12.75,15.65,15.65,0,0,0,4,22.39c1-4.34,3.2-8.57,7.76-10.85C22.94,6,30.93,12.59,31.9,13.46,31.26,12.87,30.63,12.31,30,11.72Z"/><ellipse class="cls-5" cx="14.63" cy="16.67" rx="9.65" ry="7.74" transform="translate(-7.41 14.24) rotate(-42.43)"/></g></g></svg>