<svg xmlns="http://www.w3.org/2000/svg" viewBox="0 0 64 64"><defs><style>.cls-1,.cls-2{fill:#1a1a1a;}.cls-1{opacity:0;}.cls-3{fill:#324652;}</style></defs><title>Heart Empty Outline</title><g id="Layer_2" data-name="Layer 2"><g id="_001-100" data-name="001-100"><rect class="cls-1" width="64" height="64"/><path class="cls-2" d="M59.66,10.73a17.18,17.18,0,0,0-14.28-7.5,22.91,22.91,0,0,0-3,.22A19.44,19.44,0,0,0,32,8.45a19.44,19.44,0,0,0-10.34-5,22.91,22.91,0,0,0-3-.22C12.78,3.23,8,5.75,4.34,10.73A19.2,19.2,0,0,0,.51,22.78a23.43,23.43,0,0,0,2,8.77A42.56,42.56,0,0,0,9.85,42.74a92.82,92.82,0,0,0,13,12.12c1.48,1.15,3,2.28,4.44,3.37L29.62,60a3.94,3.94,0,0,0,4.76,0l2.29-1.72c1.47-1.1,3-2.24,4.46-3.39a92.82,92.82,0,0,0,13-12.12,42.56,42.56,0,0,0,7.32-11.19,23.43,23.43,0,0,0,2-8.77A19.2,19.2,0,0,0,59.66,10.73Z"/><path class="cls-3" d="M56.48,13.05a13.37,13.37,0,0,0-13.57-5.7,15.89,15.89,0,0,0-9,4.68c-.61.61-1.26,1.2-1.93,1.81-.67-.61-1.32-1.2-1.93-1.81a15.89,15.89,0,0,0-9-4.68,13.37,13.37,0,0,0-13.57,5.7,15.37,15.37,0,0,0-3.08,9.63A19.64,19.64,0,0,0,6.15,30a39.26,39.26,0,0,0,6.67,10.16A89,89,0,0,0,25.29,51.76c2.21,1.72,4.48,3.38,6.71,5.07,2.23-1.69,4.5-3.35,6.71-5.07A89,89,0,0,0,51.18,40.15,39.26,39.26,0,0,0,57.85,30a19.64,19.64,0,0,0,1.71-7.31A15.37,15.37,0,0,0,56.48,13.05Z"/></g></g></svg>