<?xml version="1.0" encoding="UTF-8"?>
<svg id="Layer_2" data-name="Layer 2" xmlns="http://www.w3.org/2000/svg" viewBox="0 0 64 64">
  <defs>
    <style>
      .cls-1 {
        fill: #606060;
        opacity: 0;
      }

      .cls-2 {
        fill: #1a1a1a;
      }
    </style>
  </defs>
  <g id="Black">
    <g id="Fan_Flat_Black" data-name="Fan Flat Black">
      <rect class="cls-1" width="64" height="64"/>
      <g>
        <path class="cls-2" d="M55,27.5c0-12.7-10.3-23-23-23S9,14.8,9,27.5c0,10.7,7.31,19.69,17.21,22.26l-.49,1.37c-5,1.04-8.85,3.28-10.25,6.05-.53,1.06,.24,2.31,1.43,2.31h30.2c1.19,0,1.96-1.25,1.43-2.31-1.4-2.77-5.25-5.01-10.25-6.05l-.49-1.37c9.9-2.57,17.21-11.56,17.21-22.26Zm-23,18.49c-10.21,0-18.49-8.28-18.49-18.49S21.79,9.01,32,9.01s18.49,8.28,18.49,18.49-8.28,18.49-18.49,18.49Z"/>
        <path class="cls-2" d="M32,32.51s-2.27,5.47-8.89,6.47c-6.61,1.01-6.49-7.79-3.16-9.94s6.55,3.39,12.05,3.47Z"/>
        <path class="cls-2" d="M32,22.49s2.27-5.47,8.89-6.47,6.49,7.79,3.16,9.94-6.55-3.39-12.05-3.47Z"/>
        <path class="cls-2" d="M26.99,27.5s-5.47-2.27-6.47-8.89,7.79-6.49,9.94-3.16-3.39,6.55-3.47,12.05Z"/>
        <path class="cls-2" d="M37.01,27.5s5.47,2.27,6.47,8.89c1.01,6.61-7.79,6.49-9.94,3.16s3.39-6.55,3.47-12.05Z"/>
        <circle class="cls-2" cx="32" cy="27.5" r="5.94"/>
      </g>
    </g>
  </g>
</svg>