<?xml version="1.0" encoding="UTF-8"?>
<svg id="Layer_2" data-name="Layer 2" xmlns="http://www.w3.org/2000/svg" viewBox="0 0 64 64">
  <defs>
    <style>
      .cls-1 {
        fill: #ebf0f2;
      }

      .cls-2 {
        fill: #abc0c9;
      }

      .cls-3 {
        fill: #d3dee3;
      }

      .cls-4 {
        fill: #7b97a6;
      }

      .cls-5 {
        fill: #91aab5;
      }

      .cls-6 {
        fill: #1a1a1a;
        opacity: 0;
      }
    </style>
  </defs>
  <g id="No_outline" data-name="No outline">
    <g id="Fan">
      <rect class="cls-6" width="64" height="64"/>
      <g>
        <path class="cls-1" d="M48.53,57.19c-1.94-3.85-8.61-6.69-16.53-6.69s-14.59,2.84-16.53,6.69c-.53,1.06,.24,2.31,1.43,2.31h30.2c1.19,0,1.96-1.25,1.43-2.31Z"/>
        <path class="cls-2" d="M34.46,42.5h-4.92c-.44,0-.84,.28-.99,.7l-3.41,9.55c-.22,.61,.16,1.28,.8,1.39,1.28,.22,3.52,.37,6.06,.37s4.78-.15,6.06-.37c.64-.11,1.01-.78,.8-1.39l-3.41-9.55c-.15-.42-.55-.7-.99-.7Z"/>
        <circle class="cls-1" cx="32" cy="27.5" r="23"/>
        <circle class="cls-5" cx="32" cy="27.5" r="19.32"/>
        <path class="cls-4" d="M32,33.5c-8.19,0-15.34-2.94-19.25-7.33-.03,.44-.07,.88-.07,1.33,0,10.67,8.65,19.32,19.32,19.32s19.32-8.65,19.32-19.32c0-.45-.04-.89-.07-1.33-3.91,4.39-11.07,7.33-19.25,7.33Z"/>
        <path class="cls-1" d="M32,32.93s-2.47,5.93-9.64,7.02-7.04-8.44-3.43-10.78,7.1,3.67,13.06,3.76Z"/>
        <path class="cls-1" d="M32,22.07s2.47-5.93,9.64-7.02,7.04,8.44,3.43,10.78-7.1-3.67-13.06-3.76Z"/>
        <path class="cls-1" d="M26.57,27.5s-5.93-2.47-7.02-9.64c-1.09-7.17,8.44-7.04,10.78-3.43s-3.67,7.1-3.76,13.06Z"/>
        <path class="cls-1" d="M37.43,27.5s5.93,2.47,7.02,9.64c1.09,7.17-8.44,7.04-10.78,3.43s3.67-7.1,3.76-13.06Z"/>
        <circle class="cls-3" cx="32" cy="27.5" r="6.44"/>
        <ellipse class="cls-1" cx="30.73" cy="26.23" rx="3.39" ry="2.8" transform="translate(-9.55 29.41) rotate(-45)"/>
      </g>
    </g>
  </g>
</svg>