<svg xmlns="http://www.w3.org/2000/svg" viewBox="0 0 64 64"><defs><style>.cls-1{fill:#1a1a1a;opacity:0;}.cls-2{fill:#fff;}</style></defs><title>Yen Flat White</title><g id="Layer_2" data-name="Layer 2"><g id="Layer_3" data-name="Layer 3"><rect class="cls-1" width="64" height="64"/><path class="cls-2" d="M32,.5A29.33,29.33,0,0,0,2.7,29.8v4.4a29.3,29.3,0,0,0,58.6,0V29.8A29.33,29.33,0,0,0,32,.5Zm0,54.6A25.3,25.3,0,1,1,57.3,29.8,25.3,25.3,0,0,1,32,55.1Z"/><path class="cls-2" d="M38.79,11A20,20,0,1,0,52,29.8,19.83,19.83,0,0,0,38.79,11ZM40,30.79s0,.06,0,.09a7.12,7.12,0,0,1-.18.92,8,8,0,0,1-15.52,0,7.12,7.12,0,0,1-.18-.92s0-.06,0-.09a8.24,8.24,0,0,1-.07-1,8,8,0,0,1,16,0A6.59,6.59,0,0,1,40,30.79Z"/></g></g></svg>