<svg xmlns="http://www.w3.org/2000/svg" viewBox="0 0 64 64"><defs><style>.cls-1{fill:#1a1a1a;opacity:0;}.cls-2{fill:#7500d4;}.cls-3{fill:#f2a6ff;}.cls-4{fill:#d769ff;}</style></defs><title>Yen Purple</title><g id="Layer_2" data-name="Layer 2"><g id="Layer_3" data-name="Layer 3"><rect class="cls-1" width="64" height="64"/><path class="cls-2" d="M56.91,29.8a25.29,25.29,0,0,0-49.82,0H6.7v4.4a25.3,25.3,0,0,0,50.6,0V29.8ZM32,37.82a8,8,0,1,1,8-8A8,8,0,0,1,32,37.82Z"/><path class="cls-3" d="M32,4.5A25.3,25.3,0,1,0,57.3,29.8,25.3,25.3,0,0,0,32,4.5Zm0,33.32a8,8,0,1,1,8-8A8,8,0,0,1,32,37.82Z"/><path class="cls-4" d="M32,8.67A21.13,21.13,0,1,0,53.13,29.8,21.13,21.13,0,0,0,32,8.67Zm0,29.15a8,8,0,1,1,8-8A8,8,0,0,1,32,37.82Z"/><path class="cls-2" d="M32,25.78a8,8,0,0,1,7.76,6,8.24,8.24,0,0,0,.26-2,8,8,0,0,0-16,0,8.24,8.24,0,0,0,.26,2A8,8,0,0,1,32,25.78Z"/></g></g></svg>