<svg xmlns="http://www.w3.org/2000/svg" viewBox="0 0 64 64"><defs><style>.cls-1,.cls-2{fill:#1a1a1a;}.cls-1{opacity:0;}.cls-3{fill:#666;}.cls-4{fill:#e62e49;}.cls-5{fill:#a72d3e;}.cls-6{fill:#f66;}</style></defs><title>Gas Can Outline</title><g id="Layer_2" data-name="Layer 2"><g id="Finals"><rect class="cls-1" width="64" height="64"/><path class="cls-2" d="M59.72,8.91v0a12.51,12.51,0,0,0-2.54-4.23L57,4.48a6.94,6.94,0,0,0-.55-.54l-.24-.23c-.19-.17-.38-.33-.58-.48l-.38-.29-.5-.36-.42-.25c-.28-.17-.58-.34-.86-.48l-.63-.3-.45-.18-.6-.22L51.32,1,50.63.82,50.19.73,49.34.6,49,.56A11.76,11.76,0,0,0,47.8.5H29.24A8.35,8.35,0,0,0,21.1,7.06l-.2.74a6,6,0,0,0-1.7-.25,5.9,5.9,0,0,0-.83.06l-5.9.83a6,6,0,0,0-5.12,6.67,8.35,8.35,0,0,0-3.82,7V50.84a12.49,12.49,0,0,0,.33,2.83,8,8,0,0,0,.22.84c0,.13.08.26.15.46s.15.43.24.65.12.28.21.46l.28.6.25.44a5.58,5.58,0,0,0,.34.56c.09.14.18.29.27.41l.45.6c.08.1.15.2.26.32s.31.35.51.57l.26.26a10.34,10.34,0,0,0,.79.73l.22.17c.24.19.48.38.74.55l.33.21.63.39.42.21c.2.11.42.21.65.32l.44.18c.22.09.44.17.64.23l.46.15.79.2.39.09c.26,0,.52.09.8.12l.38,0a12.1,12.1,0,0,0,1.21.06H47.8c.42,0,.82,0,1.23-.06l.38,0c.27,0,.53-.07.82-.13l.43-.09.69-.18.47-.15c.22-.07.44-.15.68-.25l.43-.18.68-.33L54,61.9l.67-.41.31-.2c.26-.18.51-.37.75-.55l.17-.14c.29-.24.57-.49.85-.77l.28-.3.49-.54.29-.36c.14-.18.27-.35.4-.54l.28-.42c.12-.18.23-.36.34-.55s.16-.29.24-.46.19-.38.31-.63.12-.27.18-.43.17-.42.26-.69.09-.27.13-.4a8,8,0,0,0,.22-.84,12.49,12.49,0,0,0,.33-2.83V13.16A12.44,12.44,0,0,0,59.72,8.91Z"/><path class="cls-3" d="M13.4,12h6a2,2,0,0,1,2,2v3.84a0,0,0,0,1,0,0h-10a0,0,0,0,1,0,0V14A2,2,0,0,1,13.4,12Z" transform="translate(-1.9 2.41) rotate(-7.95)"/><path class="cls-4" d="M47.81,4.5H29.24A4.34,4.34,0,0,0,25,8l-2.12,8L11,17.86A4.33,4.33,0,0,0,7.53,22.1V50.84a8.66,8.66,0,0,0,8.66,8.66H47.81a8.66,8.66,0,0,0,8.66-8.66V13.16A8.66,8.66,0,0,0,47.81,4.5Zm-.13,7.91-.63.91a12,12,0,0,1-9.91,5.22h-6a1.74,1.74,0,0,1-1.7-2.07l1.08-5.38A1.72,1.72,0,0,1,32.23,9.7h14A1.73,1.73,0,0,1,47.68,12.41Z"/><path class="cls-5" d="M50.6,54.3H13.4a10.16,10.16,0,0,1-5.69-1.73,8.66,8.66,0,0,0,8.48,6.93H47.81a8.66,8.66,0,0,0,8.48-6.93A10.16,10.16,0,0,1,50.6,54.3Z"/><path class="cls-5" d="M40.69,44.89a3.17,3.17,0,0,0,.13-.88V33.3a3.3,3.3,0,0,0-.13-.89l3.5-3.5a1.73,1.73,0,1,0-2.45-2.45L38.24,30a3.68,3.68,0,0,0-.89-.13H26.65a3.68,3.68,0,0,0-.89.13l-3.5-3.5a1.73,1.73,0,0,0-2.45,2.45l3.5,3.5a3.3,3.3,0,0,0-.13.89V44a3.17,3.17,0,0,0,.13.88l-3.5,3.51a1.73,1.73,0,0,0,0,2.45,1.75,1.75,0,0,0,2.45,0l3.5-3.51a3.24,3.24,0,0,0,.89.13h10.7a3.24,3.24,0,0,0,.89-.13l3.5,3.51a1.75,1.75,0,0,0,2.45,0,1.73,1.73,0,0,0,0-2.45ZM37.34,44l0,0H26.68l0,0s0,0,0,0V33.33h0l0,0H37.32l0,0h0V44S37.34,44,37.34,44Z"/><path class="cls-6" d="M10.62,21.17l12.29-1.63a2.81,2.81,0,0,0,2.34-2L27,11.18a4.5,4.5,0,0,1,4.44-3.52h17.7a9.14,9.14,0,0,1,7,3.26A8.65,8.65,0,0,0,47.81,4.5H29.24A4.34,4.34,0,0,0,25,8l-2.12,8L11,17.86A4.33,4.33,0,0,0,7.53,22.1v1.28A4.52,4.52,0,0,1,10.62,21.17Z"/></g></g></svg>