<svg xmlns="http://www.w3.org/2000/svg" viewBox="0 0 64 64"><defs><style>.cls-1{fill:#fff;opacity:0;}.cls-2{fill:#595959;}.cls-3{fill:#e62e49;}.cls-4{fill:#a72d3e;}.cls-5{fill:#f66;}</style></defs><title>Gas Can</title><g id="Layer_2" data-name="Layer 2"><g id="Finals"><rect class="cls-1" width="64" height="64"/><path class="cls-2" d="M13.4,12h6a2,2,0,0,1,2,2v3.84a0,0,0,0,1,0,0h-10a0,0,0,0,1,0,0V14a2,2,0,0,1,2-2Z" transform="translate(-1.9 2.41) rotate(-7.95)"/><path class="cls-3" d="M47.81,4.5H29.24A4.34,4.34,0,0,0,25,8l-2.12,8L11,17.86a4.33,4.33,0,0,0-3.48,4.25V50.84a8.66,8.66,0,0,0,8.66,8.66H47.81a8.66,8.66,0,0,0,8.66-8.66V13.16A8.66,8.66,0,0,0,47.81,4.5Zm-.13,7.91-.63.91a12,12,0,0,1-9.9,5.22h-6a1.74,1.74,0,0,1-1.7-2.07l1.08-5.38a1.73,1.73,0,0,1,1.7-1.39h14A1.73,1.73,0,0,1,47.68,12.41Z"/><path class="cls-4" d="M50.6,54.3H13.4a10.16,10.16,0,0,1-5.69-1.73,8.66,8.66,0,0,0,8.48,6.93H47.81a8.66,8.66,0,0,0,8.48-6.93A10.16,10.16,0,0,1,50.6,54.3Z"/><path class="cls-4" d="M40.69,44.89a3.17,3.17,0,0,0,.13-.88V33.3a3.3,3.3,0,0,0-.13-.89l3.5-3.5a1.73,1.73,0,1,0-2.45-2.45L38.24,30a3.68,3.68,0,0,0-.89-.13H26.65a3.68,3.68,0,0,0-.89.13l-3.5-3.5a1.73,1.73,0,0,0-2.45,2.45l3.5,3.5a3.3,3.3,0,0,0-.13.89V44a3.17,3.17,0,0,0,.13.88l-3.5,3.51a1.73,1.73,0,0,0,0,2.45,1.75,1.75,0,0,0,2.45,0l3.5-3.51a3.24,3.24,0,0,0,.89.13h10.7a3.24,3.24,0,0,0,.89-.13l3.5,3.51a1.75,1.75,0,0,0,2.45,0,1.73,1.73,0,0,0,0-2.45ZM37.34,44l0,0H26.68l0,0s0,0,0,0V33.33h0l0,0H37.32l0,0h0V44S37.34,44,37.34,44Z"/><path class="cls-5" d="M10.62,21.17l12.29-1.63a2.81,2.81,0,0,0,2.34-2L27,11.18a4.5,4.5,0,0,1,4.44-3.52h17.7a9.18,9.18,0,0,1,7,3.26A8.65,8.65,0,0,0,47.81,4.5H29.24A4.34,4.34,0,0,0,25,8l-2.12,8L11,17.86a4.33,4.33,0,0,0-3.48,4.25v1.27A4.52,4.52,0,0,1,10.62,21.17Z"/></g></g></svg>