<svg xmlns="http://www.w3.org/2000/svg" viewBox="0 0 64 64"><defs><style>.cls-1,.cls-2{fill:#1a1a1a;}.cls-1{opacity:0;}</style></defs><title>Gas Can Black</title><g id="Layer_2" data-name="Layer 2"><g id="Finals"><rect class="cls-1" width="64" height="64"/><path class="cls-2" d="M10.85,15.45l9.86-1.37-.53-3.8a2,2,0,0,0-2.26-1.71L12,9.4a2,2,0,0,0-1.71,2.25Z"/><path class="cls-2" d="M54.63,56.16l.27-.36.19-.29c.08-.12.16-.25.23-.38a3.07,3.07,0,0,0,.17-.31l.2-.4c0-.11.09-.21.14-.32s.11-.29.16-.44.07-.21.11-.31.1-.38.14-.57a8.88,8.88,0,0,0,.23-1.94V13.16A8.58,8.58,0,0,0,56,10.24h0A8.7,8.7,0,0,0,54.2,7.33l-.1-.1c-.12-.14-.25-.26-.38-.39l-.17-.15-.38-.32L53,6.21a3.89,3.89,0,0,0-.39-.28l-.29-.18c-.19-.12-.39-.23-.59-.33l-.42-.2L51,5.1l-.43-.16-.32-.1-.47-.12-.3-.06a5,5,0,0,0-.54-.08l-.26,0c-.27,0-.55,0-.82,0H29.24A4.34,4.34,0,0,0,25,8l-2.12,8L11,17.86a4.33,4.33,0,0,0-3.48,4.25V50.84a8.88,8.88,0,0,0,.23,1.94c0,.19.09.38.14.57s.08.21.11.31.1.3.16.44.1.21.14.32l.2.4a3.07,3.07,0,0,0,.17.31c.07.13.15.26.23.38l.19.29.27.36.21.26c.1.13.22.25.33.37l.2.21c.18.18.37.35.56.51l.1.08c.18.14.35.27.54.4l.23.15.44.26.28.15.43.21.3.12.45.17.32.1.48.12.3.07.55.08.27,0c.27,0,.55,0,.83,0H47.81c.28,0,.56,0,.83,0l.27,0,.55-.08.3-.07.48-.12.32-.1.45-.17.3-.12.43-.21L52,58.4l.44-.26.23-.15c.19-.13.36-.26.54-.4l.1-.08c.19-.16.38-.33.56-.51l.2-.21c.11-.12.23-.24.33-.37ZM29.46,16.47l1.08-5.38a1.73,1.73,0,0,1,1.7-1.39h14a1.73,1.73,0,0,1,1.43,2.71l-.63.91a12,12,0,0,1-9.9,5.22h-6A1.74,1.74,0,0,1,29.46,16.47Z"/></g></g></svg>