<svg xmlns="http://www.w3.org/2000/svg" viewBox="0 0 128 128"><defs><style>.cls-1{fill:#fff;}.cls-2{fill:none;}</style></defs><title>Trash White </title><g id="Layer_2" data-name="Layer 2"><g id="_1-13" data-name="1-13"><path class="cls-1" d="M104,26.18H85.49a21.79,21.79,0,0,0-43,0H24A10.91,10.91,0,0,0,13.09,37.09v3.64a3.63,3.63,0,0,0,3.63,3.64h94.56a3.63,3.63,0,0,0,3.63-3.64V37.09A10.91,10.91,0,0,0,104,26.18Zm-49.09,0a9.49,9.49,0,0,1,18.18,0Z"/><path class="cls-1" d="M105.42,53.46H22.58a3.64,3.64,0,0,0-3.62,4l7.65,52.75A10.92,10.92,0,0,0,37.47,120H90.53a10.92,10.92,0,0,0,10.86-9.78L109,57.47A3.64,3.64,0,0,0,105.42,53.46ZM44.64,107.27A4.54,4.54,0,0,1,40.11,103L37,71a4.54,4.54,0,0,1,9.06-.53l3.1,32A4.54,4.54,0,0,1,44.64,107.27Zm23.91-4.54A4.54,4.54,0,0,1,64,107.27h0a4.54,4.54,0,0,1-4.54-4.54v-32A4.54,4.54,0,0,1,64,66.19h0a4.54,4.54,0,0,1,4.54,4.54Zm19.34.27a4.54,4.54,0,0,1-9.06-.53l3.1-32A4.54,4.54,0,0,1,91,71Z"/><rect class="cls-2" width="128" height="128"/></g></g></svg>