<svg xmlns="http://www.w3.org/2000/svg" viewBox="0 0 128 128"><defs><style>.cls-1{fill:#abc0c9;}.cls-2{fill:#7b97a6;}.cls-3{fill:none;}.cls-4{fill:#d3dee3;}</style></defs><title>Trash </title><g id="Layer_2" data-name="Layer 2"><g id="_1-13" data-name="1-13"><path class="cls-1" d="M105.42,53.46h-87l.58,4h0l7.65,52.75A10.92,10.92,0,0,0,37.47,120H90.53a10.92,10.92,0,0,0,10.86-9.78L109,57.47h0l.58-4Z"/><rect class="cls-2" x="59.45" y="60.19" width="9.09" height="49.08" rx="4.54"/><path class="cls-2" d="M90.46,60.19a4.54,4.54,0,0,0-4.53,4.27l-5.1,40a4.54,4.54,0,0,0,9.06.53L95,65A4.53,4.53,0,0,0,90.46,60.19Z"/><polygon class="cls-2" points="109.62 53.46 111.21 42.51 16.79 42.51 18.38 53.46 109.62 53.46"/><path class="cls-3" d="M64,19.41a9.49,9.49,0,0,0-9.09,6.77H73.09A9.49,9.49,0,0,0,64,19.41Z"/><path class="cls-3" d="M88.46,58.19a4.54,4.54,0,0,0-4.53,4.27l-5.1,40a4.54,4.54,0,0,0,9.06.53L93,63A4.53,4.53,0,0,0,88.46,58.19Z"/><path class="cls-4" d="M22.58,53.46h-4.2l.58,4h0l7.65,52.75A10.92,10.92,0,0,0,37.47,120H53.2L51.57,53.46Zm20.06,55.81A4.54,4.54,0,0,1,38.11,105L33,65a4.54,4.54,0,0,1,9.06-.53l5.1,40A4.54,4.54,0,0,1,42.64,109.27Z"/><rect class="cls-3" x="59.45" y="66.19" width="9.09" height="41.08" rx="4.54"/><polygon class="cls-1" points="51.09 43.09 51.57 53.46 18.38 53.46 16.79 42.51 51.09 43.09"/><path class="cls-4" d="M104,26.18H24A10.91,10.91,0,0,0,13.09,37.09v3.64a3.63,3.63,0,0,0,3.63,3.64h94.56a3.63,3.63,0,0,0,3.63-3.64V37.09A10.91,10.91,0,0,0,104,26.18Z"/><path class="cls-1" d="M64,19.41a9.49,9.49,0,0,1,9.09,6.77h12.4a21.79,21.79,0,0,0-43,0h12.4A9.49,9.49,0,0,1,64,19.41Z"/><path class="cls-1" d="M111.28,44.37a3.63,3.63,0,0,0,3.63-3.64V37.09a11,11,0,0,0-1.17-4.91H62A10.91,10.91,0,0,0,51.09,43.09v1.28Z"/><rect class="cls-3" width="128" height="128"/></g></g></svg>