<svg xmlns="http://www.w3.org/2000/svg" viewBox="0 0 128 128"><defs><style>.cls-1{fill:#1a1a1a;}.cls-2{fill:#abc0c9;}.cls-3{fill:#7b97a6;}.cls-4{fill:none;}.cls-5{fill:#d3dee3;}</style></defs><title>Trash Outline </title><g id="Layer_2" data-name="Layer 2"><g id="_1-13" data-name="1-13"><path class="cls-1" d="M121.86,35.35c0-.16,0-.32-.06-.43-.08-.55-.18-1.09-.27-1.48,0-.2-.09-.39-.13-.55-.15-.58-.33-1.15-.49-1.61l-.11-.3A18.71,18.71,0,0,0,103.38,18.9H91a29.34,29.34,0,0,0-54,0H24.62A18.63,18.63,0,0,0,6,37.51v3.58a11.44,11.44,0,0,0,4.64,9.21l8.73,60.19A18.58,18.58,0,0,0,37.88,127H90.12a18.58,18.58,0,0,0,18.5-16.51l8.73-60.19A11.44,11.44,0,0,0,122,41.09V37.51A17.74,17.74,0,0,0,121.86,35.35Z"/><path class="cls-2" d="M104.78,53.62H19.09l.57,4h0L27.2,109.5a10.73,10.73,0,0,0,10.68,9.62H90.12a10.73,10.73,0,0,0,10.68-9.62l7.54-51.93h0l.57-4Z"/><rect class="cls-3" x="59.53" y="60.25" width="8.95" height="48.32" rx="4.47"/><path class="cls-3" d="M90.05,60.25a4.46,4.46,0,0,0-4.46,4.2l-5,39.38a4.47,4.47,0,0,0,8.92.53l5-39.38A4.47,4.47,0,0,0,90.05,60.25Z"/><polygon class="cls-3" points="108.91 53.62 110.47 42.84 17.52 42.84 19.09 53.62 108.91 53.62"/><path class="cls-4" d="M64,20.1a9.35,9.35,0,0,0-9,6.67H73A9.35,9.35,0,0,0,64,20.1Z"/><path class="cls-4" d="M88.08,58.28a4.47,4.47,0,0,0-4.46,4.2l-5,39.39a4.47,4.47,0,1,0,8.92.52l5-39.38A4.47,4.47,0,0,0,88.08,58.28Z"/><path class="cls-5" d="M23.22,53.62H19.09l.57,4h0L27.2,109.5a10.73,10.73,0,0,0,10.68,9.62H53.36l-1.59-65.5ZM43,108.56a4.47,4.47,0,0,1-4.46-4.2L33.49,65a4.47,4.47,0,0,1,8.92-.53l5,39.38A4.47,4.47,0,0,1,43,108.56Z"/><rect class="cls-4" x="59.53" y="66.15" width="8.95" height="40.44" rx="4.47"/><polygon class="cls-2" points="51.29 43.42 51.77 53.62 19.09 53.62 17.52 42.84 51.29 43.42"/><path class="cls-5" d="M103.38,26.77H24.62A10.74,10.74,0,0,0,13.88,37.51v3.58a3.58,3.58,0,0,0,3.58,3.58h93.08a3.58,3.58,0,0,0,3.58-3.58V37.51A10.74,10.74,0,0,0,103.38,26.77Z"/><path class="cls-2" d="M64,20.1a9.35,9.35,0,0,1,9,6.67H85.16a21.46,21.46,0,0,0-42.32,0H55.05A9.35,9.35,0,0,1,64,20.1Z"/><path class="cls-2" d="M110.54,44.67a3.58,3.58,0,0,0,3.58-3.58V37.51A10.59,10.59,0,0,0,113,32.68H62A10.74,10.74,0,0,0,51.29,43.42v1.25Z"/><rect class="cls-4" width="128" height="128"/></g></g></svg>