<?xml version="1.0" encoding="UTF-8"?>
<svg id="Layer_2" data-name="Layer 2" xmlns="http://www.w3.org/2000/svg" viewBox="0 0 64 64">
  <defs>
    <style>
      .cls-1 {
        fill: #fec92b;
      }

      .cls-2 {
        fill: #1778ff;
      }

      .cls-3 {
        fill: #37b9ff;
      }

      .cls-4 {
        fill: #39b54a;
      }

      .cls-5 {
        fill: #fc9504;
      }

      .cls-6 {
        fill: #ff7a6e;
      }

      .cls-7 {
        opacity: 0;
      }

      .cls-7, .cls-8 {
        fill: #1a1a1a;
      }

      .cls-9 {
        fill: #e62e49;
      }

      .cls-10 {
        fill: #65d666;
      }
    </style>
  </defs>
  <g id="Outlines">
    <g id="Palette_Outline" data-name="Palette Outline">
      <rect class="cls-7" width="64" height="64"/>
      <g>
        <path class="cls-8" d="M32.02,62.12c-5.53,0-12.28-3.8-20.06-11.3-.05-.05-.1-.1-.15-.15C-2.87,34.91-1.6,19.58,6.18,11.38l2.89-2.92C13.05,4.24,18.83,1.88,25.28,1.88c5.7,0,14.58,1.84,24.54,10.59,9.16,8.23,14,18.01,13.67,27.57,0,.06,0,.13-.01,.19-.35,4.22-1.4,9.86-4.42,12.99-.05,.05-.1,.1-.15,.15l-2.83,2.83c-.06,.06-.11,.11-.17,.16-1.48,1.4-3.28,2.13-5.22,2.13-.57,0-1.15-.06-1.73-.19-2.61-.51-4.21-2.48-5.37-4.36-.44,1.03-1.04,2.07-1.94,3.02-.06,.06-.12,.13-.18,.19l-2.14,2.14c-.08,.08-.16,.15-.25,.23-.3,.28-.6,.52-.91,.74-1.83,1.25-3.89,1.87-6.17,1.87Z"/>
        <path class="cls-5" d="M56.09,50.54c2.42-2.36,3.19-7.95,3.41-10.64,.33-9.66-5.38-18.19-12.32-24.43C33.06,3.06,18.92,3.84,11.91,11.27l-2.83,2.86c-6.73,7.1-6.95,20.28,5.66,33.81,4.39,4.23,14.77,13.39,21.16,9.04,.23-.16,.43-.34,.62-.52h0s2.14-2.14,2.14-2.14h0c1.89-1.86,1.86-4.89,3.06-7.1,3.75-1.88,4.65,6.55,8.08,7.16,1.43,.33,2.57-.12,3.47-1.02h0s2.83-2.83,2.83-2.83h0Zm-22.53-6.21c-1.9,1.8-5.29,1.32-7.57-1.09s-2.58-5.81-.68-7.61,5.29-1.32,7.57,1.09,2.58,5.81,.68,7.61Z"/>
        <path class="cls-1" d="M59.5,39.9c.33-9.66-5.38-18.19-12.32-24.43-27.64-24.28-55.34,1.97-29.58,29.61,4.39,4.23,14.77,13.39,21.16,9.04,3.03-2.11,2.16-6.62,4.66-8.93,4.75-4.39,5.48,5.66,9.23,6.34,5.21,1.21,6.55-7.93,6.85-11.63Zm-23.08,1.58c-1.9,1.8-5.29,1.32-7.57-1.09s-2.58-5.81-.68-7.61,5.29-1.32,7.57,1.09,2.58,5.81,.68,7.61Z"/>
        <path class="cls-9" d="M51.5,32.56c-1.67,1.58-4.63,1.15-6.62-.95s-2.26-5.09-.59-6.67,4.84-2.01,6.83,.09c1.99,2.1,2.05,5.95,.38,7.52Z"/>
        <path class="cls-5" d="M40.67,21.57c-1.67,1.58-4.63,1.15-6.62-.95s-2.26-5.09-.59-6.67,4.84-2.01,6.83,.09,2.05,5.95,.38,7.52Z"/>
        <path class="cls-4" d="M26.92,18.19c-1.67,1.58-4.63,1.15-6.62-.95s-2.26-5.09-.59-6.67,4.84-2.01,6.83,.09,2.05,5.95,.38,7.52Z"/>
        <path class="cls-2" d="M20.09,29.01c-1.67,1.58-4.63,1.15-6.62-.95s-2.26-5.09-.59-6.67,4.84-2.01,6.83,.09c1.99,2.1,2.05,5.95,.38,7.52Z"/>
        <ellipse class="cls-1" cx="37.1" cy="15.55" rx="2.53" ry="2.02"/>
        <ellipse class="cls-6" cx="47.94" cy="26.54" rx="2.53" ry="2.02"/>
        <ellipse class="cls-10" cx="23.36" cy="12.17" rx="2.53" ry="2.02"/>
        <ellipse class="cls-3" cx="16.53" cy="22.99" rx="2.53" ry="2.02"/>
      </g>
    </g>
  </g>
</svg>