<svg xmlns="http://www.w3.org/2000/svg" viewBox="0 0 64 64"><defs><style>.cls-1{fill:none;}.cls-2{fill:#1a1a1a;}.cls-3{fill:#39b54a;}</style></defs><title>Check Mark Outline</title><g id="Layer_2" data-name="Layer 2"><g id="Layer_2-2" data-name="Layer 2"><rect class="cls-1" width="64" height="64"/><path class="cls-2" d="M25.26,58.56a4,4,0,0,1-2.83-1.18L1.17,36.13a4,4,0,0,1,0-5.66L11.54,20.1a4,4,0,0,1,2.83-1.17h.23a4,4,0,0,1,2.9,1.5l7.94,10L46.65,6.77a4,4,0,0,1,2.87-1.32h.11a4,4,0,0,1,2.83,1.18L62.83,17a4,4,0,0,1,0,5.66L28.08,57.38A3.94,3.94,0,0,1,25.26,58.56Z"/><polygon class="cls-3" points="49.63 9.44 25.26 36.63 14.37 22.93 4 33.3 25.26 54.56 60 19.81 49.63 9.44"/></g></g></svg>