<svg xmlns="http://www.w3.org/2000/svg" viewBox="0 0 64 64"><defs><style>.cls-1{opacity:0;}.cls-2{fill:#1a1a1a;}.cls-3{fill:#006837;}.cls-4{fill:#39b54a;}.cls-5{fill:#009245;}.cls-6{fill:#8deb8e;}</style></defs><title>Key Green Outline</title><g id="Layer_2" data-name="Layer 2"><g id="_101-200" data-name="101-200"><g class="cls-1"><rect class="cls-2" width="64" height="64"/></g><path class="cls-2" d="M56.79,6.48a20.91,20.91,0,0,0-17-6h-.08A21.75,21.75,0,0,0,36.88,1l-.13,0-.51.13c-.3.08-.59.18-.88.28l-.19.06-.75.27c-.29.11-.59.24-.88.37l-.9.41L31.85,3c-.32.18-.64.36-1,.59s-.43.27-.65.42-.69.49-1,.76l-.11.08-.42.33a19.87,19.87,0,0,0-1.49,1.35A18.85,18.85,0,0,0,25.86,7.9a16.7,16.7,0,0,0-3.42,15.28A9.93,9.93,0,0,0,20,29.8L3.37,46.46A7.78,7.78,0,0,0,1.67,55c.16.38.33.75.52,1.1a12.21,12.21,0,0,0,5,5,10,10,0,0,0,1.1.52,7.68,7.68,0,0,0,3,.6A7.93,7.93,0,0,0,12.82,62l.67-.17,1.44.85a6.67,6.67,0,0,0,8.14-1l4.34-4.34a6.69,6.69,0,0,0,.65-8.71l5.4-5.4h.14a9.82,9.82,0,0,0,6.48-2.42,18.26,18.26,0,0,0,4.49.58,17.08,17.08,0,0,0,12.22-5.28,21,21,0,0,0,1.42-1.57,7.5,7.5,0,0,0,.49-.66l.26-.35q.26-.33.48-.66c.26-.39.49-.78.71-1.18l.07-.12c.1-.16.19-.31.26-.45.31-.57.55-1.13.71-1.48l.15-.34c.23-.55.43-1.12.61-1.71l.06-.16a21.08,21.08,0,0,0,.91-5.84A20.78,20.78,0,0,0,56.79,6.48ZM44.24,23.05a4.89,4.89,0,0,1-2.53-1.49A5.32,5.32,0,0,1,40.22,19a3.87,3.87,0,0,1,.48,0,3.52,3.52,0,0,1,2.52,1.05A3.57,3.57,0,0,1,44.24,23.05Z"/><path class="cls-3" d="M24.61,50.69l-3-3-9,9L17,59.32a2.74,2.74,0,0,0,3.32-.42l4.34-4.34A2.73,2.73,0,0,0,24.61,50.69Z"/><path class="cls-4" d="M5.33,53.46h0a8.27,8.27,0,0,0,4.48,4.48h0A3.87,3.87,0,0,0,14,57.1L38.75,32.37,30.9,24.52,6.17,49.25A3.89,3.89,0,0,0,5.33,53.46Z"/><path class="cls-5" d="M9.81,57.94h0A3.87,3.87,0,0,0,14,57.1L38.75,32.37,37.35,31c-7.1,6.31-9.56,5.68-9.56,5.68L10.19,54.06l-4.86-.6A8.27,8.27,0,0,0,9.81,57.94Z"/><path class="cls-3" d="M24.42,32h0a12.75,12.75,0,0,0,6.9,6.9h0a5.93,5.93,0,0,0,6.47-1.29l3.34-3.34L29.05,22.14l-3.34,3.34A5.93,5.93,0,0,0,24.42,32Z"/><path class="cls-4" d="M54,9.28a17,17,0,0,0-24,0c-6.64,6.64-4.74,15.5,1.9,22.15S47.35,40,54,33.33A17,17,0,0,0,54,9.28ZM38.91,24.36c-2.47-2.47-3.45-5.62-2-8.31A7.53,7.53,0,0,1,47.22,26.34C44.53,27.81,41.37,26.82,38.91,24.36Z"/><path class="cls-6" d="M38.91,24.36c-2.47-2.47-3.45-5.62-2-8.31a7.5,7.5,0,0,0-1.58,1.2c-2.94,2.94-2.1,6.88.85,9.82s6.88,3.79,9.82.84a7.44,7.44,0,0,0,1.2-1.57C44.53,27.81,41.37,26.82,38.91,24.36Z"/><path class="cls-5" d="M59,21.55a19.08,19.08,0,0,1-4.47,7.1C47,36.13,37,34,29.54,26.5a26.4,26.4,0,0,1-3.09-3.69,21,21,0,0,0,5.39,8.62C38.48,38.07,47.35,40,54,33.33A16.93,16.93,0,0,0,59,21.55Z"/><path class="cls-6" d="M44.29,7c-.52-1.44-2.09-2.34-4.13-2.58A16.88,16.88,0,0,0,29.94,9.28a15.26,15.26,0,0,0-1.89,2.3,3.18,3.18,0,0,0,.16,1.19c.95,2.62,4.74,1.85,9.17.25S45.23,9.6,44.29,7Z"/></g></g></svg>