<svg xmlns="http://www.w3.org/2000/svg" viewBox="0 0 64 64"><defs><style>.cls-1{fill:none;}.cls-2{fill:#1a1a1a;}</style></defs><title>Key Flat Black</title><g id="Layer_2" data-name="Layer 2"><g id="Layer_2-2" data-name="Layer 2"><rect class="cls-1" width="64" height="64"/><path class="cls-2" d="M54.22,9a17.13,17.13,0,0,0-14-4.94h0a16.87,16.87,0,0,0-2.34.42l-.51.13-.82.26c-.23.08-.45.15-.67.24s-.49.2-.74.3l-.72.34c-.23.11-.45.23-.66.35s-.52.29-.78.45L32.42,7c-.29.19-.57.41-.84.62l-.45.34A15.87,15.87,0,0,0,29.91,9a14,14,0,0,0-1.05,1.15,13.2,13.2,0,0,0-2.12,13.6l.07.16a1.8,1.8,0,0,0,.08.21l-1.25,1.25a6,6,0,0,0-1.54,5.82L5.88,49.44A3.92,3.92,0,0,0,5,53.69H5a7.78,7.78,0,0,0,.78,1.45,8.41,8.41,0,0,0,1,1.27,8.25,8.25,0,0,0,2.72,1.81,3.8,3.8,0,0,0,1.69.29,3.89,3.89,0,0,0,2.22-.85l3.3,2a2.75,2.75,0,0,0,3.36-.42l4.39-4.39a2.77,2.77,0,0,0,0-3.9l-2.12-2.12L32,39.16a5.69,5.69,0,0,0,1,.19,6,6,0,0,0,4.13-1.14,5.43,5.43,0,0,0,.68-.59l1.26-1.25a13.29,13.29,0,0,0,15.12-3q.63-.63,1.17-1.29c.18-.22.34-.46.51-.69s.34-.45.5-.68.41-.68.61-1c.08-.13.17-.27.24-.4.22-.42.41-.84.6-1.27,0-.08.07-.15.1-.22a15.07,15.07,0,0,0,.52-1.47l0-.07a17.59,17.59,0,0,0,.75-4.77h0A17.15,17.15,0,0,0,54.22,9ZM48.29,23.75A3.87,3.87,0,0,1,44.35,27,8.43,8.43,0,0,1,39,24.28a8.4,8.4,0,0,1-2.69-5.36,4,4,0,0,1,3.58-4,7.62,7.62,0,0,1,8.42,8.83Z"/></g></g></svg>