<svg xmlns="http://www.w3.org/2000/svg" viewBox="0 0 64 64"><defs><style>.cls-1{opacity:0;}.cls-2{fill:#fff;}.cls-3{fill:#324652;}.cls-4{fill:#7b97a6;}.cls-5{fill:#476475;}.cls-6{fill:#abc0c9;}</style></defs><title>Key Black</title><g id="Layer_2" data-name="Layer 2"><g id="_101-200" data-name="101-200"><g class="cls-1"><rect class="cls-2" width="64" height="64"/></g><path class="cls-3" d="M24.61,50.69l-3-3-9,9L17,59.32a2.74,2.74,0,0,0,3.32-.42l4.34-4.34A2.73,2.73,0,0,0,24.61,50.69Z"/><path class="cls-4" d="M5.33,53.46h0a8.27,8.27,0,0,0,4.48,4.48h0A3.87,3.87,0,0,0,14,57.1L38.75,32.37,30.9,24.52,6.17,49.25A3.89,3.89,0,0,0,5.33,53.46Z"/><path class="cls-5" d="M9.81,57.94h0A3.87,3.87,0,0,0,14,57.1L38.75,32.37,37.35,31c-7.1,6.31-9.56,5.68-9.56,5.68L10.19,54.06l-4.86-.6A8.27,8.27,0,0,0,9.81,57.94Z"/><path class="cls-3" d="M24.42,32h0a12.75,12.75,0,0,0,6.9,6.9h0a5.93,5.93,0,0,0,6.47-1.29l3.34-3.34L29.05,22.14l-3.34,3.34A5.93,5.93,0,0,0,24.42,32Z"/><path class="cls-4" d="M54,9.28a17,17,0,0,0-24,0c-6.64,6.64-4.74,15.5,1.9,22.15S47.35,40,54,33.33A17,17,0,0,0,54,9.28ZM38.91,24.36c-2.47-2.47-3.45-5.62-2-8.31A7.53,7.53,0,0,1,47.22,26.34C44.53,27.81,41.37,26.82,38.91,24.36Z"/><path class="cls-6" d="M38.91,24.36c-2.47-2.47-3.45-5.62-2-8.31a7.5,7.5,0,0,0-1.58,1.2c-2.94,2.94-2.1,6.88.85,9.82s6.88,3.79,9.82.84a7.44,7.44,0,0,0,1.2-1.57C44.53,27.81,41.37,26.82,38.91,24.36Z"/><path class="cls-5" d="M59,21.55a19.08,19.08,0,0,1-4.47,7.1C47,36.13,37,34,29.54,26.5a26.4,26.4,0,0,1-3.09-3.69,21,21,0,0,0,5.39,8.62C38.48,38.07,47.35,40,54,33.33A16.93,16.93,0,0,0,59,21.55Z"/><path class="cls-6" d="M44.29,7c-.52-1.44-2.09-2.34-4.13-2.58A16.88,16.88,0,0,0,29.94,9.28a15.26,15.26,0,0,0-1.89,2.3,3.18,3.18,0,0,0,.16,1.19c.95,2.62,4.74,1.85,9.17.25S45.23,9.6,44.29,7Z"/></g></g></svg>