<svg xmlns="http://www.w3.org/2000/svg" viewBox="0 0 64 64"><defs><style>.cls-1{fill:none;}.cls-2{fill:#1a1a1a;}.cls-3{fill:#de6529;}.cls-4{fill:#fdbc0d;}.cls-5{fill:#fc9504;}.cls-6{fill:#fee226;}</style></defs><title>Key Outline</title><g id="Layer_2" data-name="Layer 2"><g id="Layer_2-2" data-name="Layer 2"><rect class="cls-1" width="64" height="64"/><path class="cls-2" d="M56.78,6.48A20.81,20.81,0,0,0,42,.35c-.74,0-1.49,0-2.22.11h-.08a21.89,21.89,0,0,0-2.8.51l-.12,0-.51.13-.89.29-.19.06c-.24.08-.49.16-.74.26l-.89.37c-.3.13-.6.27-.89.42l-.8.41-1,.59L30.19,4c-.35.24-.68.49-1,.76l-.11.08-.43.33c-.54.45-1,.89-1.49,1.35s-.89.94-1.28,1.42a16.69,16.69,0,0,0-3.41,15.29A10,10,0,0,0,20,29.81L3.36,46.46A7.79,7.79,0,0,0,1.67,55a10,10,0,0,0,.52,1.1,12.19,12.19,0,0,0,5,5c.36.19.73.36,1.11.52a7.84,7.84,0,0,0,4.51.44c.23,0,.45-.1.68-.17l1.43.86a6.72,6.72,0,0,0,3.41.93,6.65,6.65,0,0,0,4.73-2l4.34-4.34a6.69,6.69,0,0,0,.65-8.71l5.41-5.4h.13a9.81,9.81,0,0,0,6.49-2.42,17.66,17.66,0,0,0,4.48.58,17,17,0,0,0,12.22-5.28,19.16,19.16,0,0,0,1.42-1.57c.18-.21.34-.43.5-.65l.26-.36c.16-.21.33-.43.48-.66.25-.38.48-.78.71-1.18l.07-.12.25-.44c.31-.58.56-1.13.71-1.49l.15-.34c.23-.55.43-1.12.62-1.71a1.31,1.31,0,0,0,0-.15,21.2,21.2,0,0,0,.91-5.84A20.77,20.77,0,0,0,56.78,6.48ZM44.23,23.05a4.94,4.94,0,0,1-2.53-1.48A5.3,5.3,0,0,1,40.22,19a3.56,3.56,0,0,1,4,4Z"/><path class="cls-3" d="M24.61,50.7l-3-3-9,9,4.32,2.56a2.74,2.74,0,0,0,3.33-.42l4.34-4.34A2.74,2.74,0,0,0,24.61,50.7Z"/><path class="cls-4" d="M5.32,53.46h0a8.28,8.28,0,0,0,4.49,4.48h0A3.83,3.83,0,0,0,14,57.1L38.74,32.37,30.9,24.52,6.16,49.26A3.87,3.87,0,0,0,5.32,53.46Z"/><path class="cls-5" d="M9.81,57.94h0A3.83,3.83,0,0,0,14,57.1L38.74,32.37,37.34,31c-7.1,6.32-9.56,5.69-9.56,5.69L10.18,54.07l-4.86-.61A8.28,8.28,0,0,0,9.81,57.94Z"/><path class="cls-3" d="M24.41,32h0a12.75,12.75,0,0,0,6.9,6.9h0a5.93,5.93,0,0,0,6.47-1.29l3.34-3.34L29,22.14,25.7,25.48A6,6,0,0,0,24.41,32Z"/><path class="cls-3" d="M27.79,36.66a12.77,12.77,0,0,0,3.52,2.19,5.93,5.93,0,0,0,6.47-1.29l3.34-3.34-3.5-3.5C30.49,37.14,27.91,36.68,27.79,36.66Z"/><path class="cls-4" d="M54,9.28a17,17,0,0,0-24.06,0c-6.64,6.64-4.74,15.51,1.9,22.15S47.34,40,54,33.33A17,17,0,0,0,54,9.28ZM38.9,24.36c-2.46-2.46-3.45-5.62-2-8.31A7.53,7.53,0,0,1,47.21,26.34C44.52,27.81,41.37,26.83,38.9,24.36Z"/><path class="cls-6" d="M38.9,24.36c-2.46-2.46-3.45-5.62-2-8.31a7.79,7.79,0,0,0-1.57,1.2c-3,2.95-2.1,6.88.84,9.82s6.88,3.79,9.82.85a7.25,7.25,0,0,0,1.2-1.58C44.52,27.81,41.37,26.83,38.9,24.36Z"/><path class="cls-5" d="M59,21.56a19.11,19.11,0,0,1-4.48,7.09C47,36.13,37,34,29.53,26.51a28.38,28.38,0,0,1-3.09-3.69,21,21,0,0,0,5.39,8.61C38.48,38.07,47.34,40,54,33.33A17,17,0,0,0,59,21.56Z"/><path class="cls-6" d="M44.28,7c-.52-1.45-2.09-2.34-4.13-2.59A17,17,0,0,0,29.93,9.28,15.26,15.26,0,0,0,28,11.58a3.07,3.07,0,0,0,.17,1.2c.94,2.61,4.73,1.84,9.17.25S45.22,9.6,44.28,7Z"/></g></g></svg>