<svg xmlns="http://www.w3.org/2000/svg" viewBox="0 0 64 64"><defs><style>.cls-1{fill:none;}.cls-2{fill:#de6529;}.cls-3{fill:#fdbc0d;}.cls-4{fill:#fc9504;}.cls-5{fill:#fee226;}</style></defs><title>Key</title><g id="Layer_2" data-name="Layer 2"><g id="Layer_2-2" data-name="Layer 2"><rect class="cls-1" width="64" height="64"/><path class="cls-2" d="M24.53,50.9l-3-3L12.41,57l4.37,2.59a2.75,2.75,0,0,0,3.36-.42l4.39-4.39A2.77,2.77,0,0,0,24.53,50.9Z"/><path class="cls-3" d="M5,53.69H5a8.38,8.38,0,0,0,4.53,4.53h0a3.88,3.88,0,0,0,4.24-.85l25-25-7.93-7.93-25,25A3.92,3.92,0,0,0,5,53.69Z"/><path class="cls-4" d="M9.57,58.22h0a3.88,3.88,0,0,0,4.24-.85l25-25L37.4,31c-7.18,6.38-9.66,5.75-9.66,5.75L10,54.3,5,53.69A8.38,8.38,0,0,0,9.57,58.22Z"/><path class="cls-2" d="M24.33,32h0a12.91,12.91,0,0,0,7,7h0a6,6,0,0,0,6.53-1.31l3.38-3.37L29,22l-3.37,3.37A6,6,0,0,0,24.33,32Z"/><path class="cls-2" d="M27.74,36.71a13,13,0,0,0,3.57,2.22,6,6,0,0,0,6.53-1.31l3.38-3.37-3.54-3.54C30.47,37.19,27.87,36.73,27.74,36.71Z"/><path class="cls-3" d="M54.22,9A17.18,17.18,0,0,0,29.91,9c-6.72,6.71-4.79,15.67,1.92,22.39s15.68,8.63,22.39,1.92A17.18,17.18,0,0,0,54.22,9ZM39,24.28c-2.5-2.49-3.49-5.68-2-8.4a7.62,7.62,0,0,1,10.41,10.4C44.66,27.77,41.47,26.77,39,24.28Z"/><path class="cls-5" d="M39,24.28c-2.5-2.49-3.49-5.68-2-8.4a8.26,8.26,0,0,0-1.59,1.21c-3,3-2.12,7,.86,9.93s6.95,3.83,9.92.85a7.4,7.4,0,0,0,1.22-1.59C44.66,27.77,41.47,26.77,39,24.28Z"/><path class="cls-4" d="M59.25,21.45a19.35,19.35,0,0,1-4.52,7.16C47.16,36.18,37.07,34,29.5,26.45a28.3,28.3,0,0,1-3.12-3.73,21.22,21.22,0,0,0,5.45,8.71c6.72,6.71,15.68,8.63,22.39,1.92A17.17,17.17,0,0,0,59.25,21.45Z"/><path class="cls-5" d="M44.41,6.72c-.52-1.46-2.11-2.37-4.17-2.62A17.13,17.13,0,0,0,29.91,9,15.06,15.06,0,0,0,28,11.36a3.09,3.09,0,0,0,.17,1.21c.95,2.64,4.78,1.87,9.27.25S45.37,9.36,44.41,6.72Z"/></g></g></svg>