<svg xmlns="http://www.w3.org/2000/svg" viewBox="0 0 64 64"><defs><style>.cls-1{fill:#1a1a1a;opacity:0;}.cls-2{fill:#d1864b;}.cls-3{fill:#ebb369;}</style></defs><title>Ladder</title><g id="Layer_2" data-name="Layer 2"><g id="Finals"><rect class="cls-1" width="64" height="64"/><path class="cls-2" d="M4.5,6.5v51c0,1.1,2.69,2,6,2s6-.9,6-2V6.5Z"/><path class="cls-3" d="M4.5,50.2c.41,1.06.85,1.64,1.3,1.64,2.6,0,4.7-18.67,4.7-41.71,0-1.22,0-2.43,0-3.63h-6Z"/><ellipse class="cls-3" cx="10.5" cy="6.5" rx="6" ry="2"/><path class="cls-2" d="M47.5,6.5v51c0,1.1,2.69,2,6,2s6-.9,6-2V6.5Z"/><path class="cls-3" d="M47.5,50.2c.41,1.06.85,1.64,1.3,1.64,2.6,0,4.7-18.67,4.7-41.71,0-1.22,0-2.43,0-3.63h-6Z"/><ellipse class="cls-3" cx="53.5" cy="6.5" rx="6" ry="2"/><path class="cls-2" d="M14.37,11.79H49.63C50.4,11.79,51,13.67,51,16s-.62,4.21-1.39,4.21H14.37C13.6,20.21,13,18.33,13,16S13.6,11.79,14.37,11.79Z"/><path class="cls-3" d="M47.73,13.56c0,1.69-6.28,3-14,3s-14-1.36-14-3c0-.66,1-1.27,2.61-1.77H45.12C46.76,12.29,47.73,12.9,47.73,13.56Z"/><path class="cls-2" d="M14.37,27.79H49.63C50.4,27.79,51,29.67,51,32s-.62,4.21-1.39,4.21H14.37C13.6,36.21,13,34.33,13,32S13.6,27.79,14.37,27.79Z"/><path class="cls-3" d="M47.73,29.56c0,1.69-6.28,3.05-14,3.05s-14-1.36-14-3.05c0-.66,1-1.27,2.61-1.77H45.12C46.76,28.29,47.73,28.9,47.73,29.56Z"/><path class="cls-2" d="M14.37,43.79H49.63C50.4,43.79,51,45.67,51,48s-.62,4.21-1.39,4.21H14.37C13.6,52.21,13,50.33,13,48S13.6,43.79,14.37,43.79Z"/><path class="cls-3" d="M47.73,45.56c0,1.69-6.28,3-14,3s-14-1.36-14-3c0-.66,1-1.27,2.61-1.77H45.12C46.76,44.29,47.73,44.9,47.73,45.56Z"/></g></g></svg>