<?xml version="1.0" encoding="UTF-8"?>
<svg id="Layer_2" data-name="Layer 2" xmlns="http://www.w3.org/2000/svg" viewBox="0 0 64 64">
  <defs>
    <style>
      .cls-1 {
        fill: #324652;
      }

      .cls-1, .cls-2, .cls-3, .cls-4 {
        stroke-width: 0px;
      }

      .cls-5 {
        opacity: 0;
      }

      .cls-2 {
        fill: #5d7c8c;
      }

      .cls-3 {
        fill: #476475;
      }

      .cls-4 {
        fill: #fff;
      }
    </style>
  </defs>
  <g id="Exports_1" data-name="Exports 1">
    <g>
      <g class="cls-5">
        <rect class="cls-4" width="64" height="64"/>
      </g>
      <g>
        <path class="cls-3" d="M20.56,5.99h0c-7.66.48-12.79,13.29-12.79,26.01s5.13,25.53,12.79,26.01c6.49,1.39,13.11,1.84,19.61,1.22V4.77c-6.49-.62-13.11-.17-19.61,1.22ZM34.83,44.21c-1.5-3.2-2.42-7.5-2.42-12.21s.92-9.01,2.42-12.21c1.49,3.18,2.41,7.47,2.41,12.21s-.92,9.03-2.41,12.21Z"/>
        <path class="cls-1" d="M40.17,4.77c-8.39.52-14.96,12.7-14.96,27.23s6.57,26.7,14.96,27.23c8.73.54,16.06-11.64,16.06-27.23s-7.33-27.77-16.06-27.23ZM34.83,44.21c-1.5-3.2-2.42-7.5-2.42-12.21s.92-9.01,2.42-12.21c1.49,3.18,2.41,7.47,2.41,12.21s-.92,9.03-2.41,12.21Z"/>
        <path class="cls-3" d="M41.17,14.15c-2.6.09-4.91,2.39-6.51,6,.06-.12.11-.24.17-.36,1.49,3.18,2.41,7.47,2.41,12.21s-.92,9.03-2.41,12.21c-.05-.12-.11-.24-.17-.36,1.6,3.6,3.91,5.91,6.51,6,4.96.16,9.06-7.83,9.06-17.85s-4.09-18.02-9.06-17.85Z"/>
        <path class="cls-2" d="M21.69,58.24c-5.24-5.61-8.75-15.36-8.75-26.24s3.5-20.63,8.75-26.24c-.38.07-.75.15-1.12.23h0c-.6.04-1.18.16-1.75.34-4.68,6.05-7.64,15.28-7.64,25.67s2.97,19.62,7.64,25.67c.57.18,1.15.3,1.75.34.37.08.75.16,1.12.23Z"/>
        <path class="cls-2" d="M28.53,59.23c.93.09,1.85.15,2.78.2-5.9-5.34-9.96-15.73-9.96-27.42s4.05-22.08,9.96-27.42c-.93.05-1.85.11-2.78.2-5.43,5.94-8.95,15.91-8.95,27.23s3.52,21.28,8.95,27.23Z"/>
      </g>
    </g>
  </g>
</svg>