<?xml version="1.0" encoding="UTF-8"?>
<svg id="Layer_2" data-name="Layer 2" xmlns="http://www.w3.org/2000/svg" viewBox="0 0 64 64">
  <defs>
    <style>
      .cls-1 {
        opacity: 0;
      }

      .cls-2 {
        fill: #fff;
        stroke-width: 0px;
      }
    </style>
  </defs>
  <g id="Exports_1" data-name="Exports 1">
    <g>
      <g class="cls-1">
        <rect class="cls-2" width="64" height="64"/>
      </g>
      <path class="cls-2" d="M40.17,4.77c-6.49-.62-13.11-.17-19.61,1.22-7.66.48-12.79,13.29-12.79,26.01s5.13,25.53,12.79,26.01c6.49,1.39,13.11,1.84,19.61,1.22,8.73.54,16.06-11.64,16.06-27.23s-7.33-27.77-16.06-27.23ZM41.17,49.85c-2.51-.08-4.75-2.25-6.34-5.65,0,0,0,0,0,.01-.05-.12-.11-.24-.17-.36.03.07.07.13.1.21-1.46-3.19-2.35-7.42-2.35-12.06s.89-8.87,2.35-12.06c-.03.07-.07.13-.1.21.06-.12.11-.24.17-.36,0,0,0,0,0,.01,1.59-3.4,3.83-5.57,6.34-5.65,4.96-.16,9.06,7.83,9.06,17.85s-4.09,18.02-9.06,17.85Z"/>
    </g>
  </g>
</svg>