<svg xmlns="http://www.w3.org/2000/svg" viewBox="0 0 64 64"><defs><style>.cls-1{opacity:0;}.cls-2{fill:#1a1a1a;}.cls-3{fill:#80bad9;}.cls-4{fill:#fff;}.cls-5{fill:#fdbc0d;}</style></defs><title>Mouse Click Outline </title><g id="Layer_2" data-name="Layer 2"><g id="Layer_3" data-name="Layer 3"><g class="cls-1"><rect class="cls-2" width="64" height="64"/></g><path class="cls-2" d="M61.28,45.6a5.75,5.75,0,0,0-1.17-3.4,6.21,6.21,0,0,0,.43-1.72c.06-.55.11-1.1.16-1.65l.07-.73c0-.41.1-.83.15-1.26a26.18,26.18,0,0,0,.27-3A6.12,6.12,0,0,0,61,31.79a6,6,0,0,0-4.1-4.15c-.63-.23-1.24-.38-1.74-.51L54.68,27l-7-1.94a6.93,6.93,0,0,0,1.37-1L54,19.13a6.72,6.72,0,0,0-9.5-9.5l-4.87,4.88a1.22,1.22,0,0,0-.15.17c0-.08,0-.15,0-.23V7.56A6.72,6.72,0,1,0,26,7.56v6.89c0,.08,0,.15,0,.22l-.15-.16L21,9.63a6.71,6.71,0,1,0-9.49,9.5L16.38,24l.17.15H9.43a6.72,6.72,0,1,0,0,13.43h7.12l-.17.14-4.87,4.88a6.72,6.72,0,0,0,9.5,9.5l4.87-4.88a7.57,7.57,0,0,0,.53-.6l3.82,12.11c.09.28.18.55.28.8a6.06,6.06,0,0,0,5.6,3.64,6.33,6.33,0,0,0,2.58-.56,6.68,6.68,0,0,0,3.36-3.85c.94.89,1.9,1.78,2.87,2.64A6.09,6.09,0,0,0,49,63a6.94,6.94,0,0,0,4.81-2.16l4.53-4.3a6.71,6.71,0,0,0,2-2.79,11.18,11.18,0,0,0,.49-3.06c0-.22,0-.44,0-.65l.35-3.38c0-.1,0-.23,0-.37s0-.41,0-.62A.34.34,0,0,0,61.28,45.6Z"/><path class="cls-3" d="M57.28,45.66c0-1-.81-1.55-1.47-2.16l-1.56-1.43c.76-.27,1.64-.46,2.07-1.2a2.32,2.32,0,0,0,.25-.85c.09-.77.15-1.53.22-2.3.13-1.39.41-2.83.41-4.22,0-2-2.09-2.22-3.59-2.64l-7-2-16-4.44-2.05-.57c-1.36-.37-3.24.34-2.95,2.07,0-.05,0-.09,0-.14,0,1.77.34,3.61.5,5.38a10.53,10.53,0,0,0,.25,2c.22.73.46,1.45.69,2.18l3,9.48,3.12,9.87L34,57.43c.06.17.1.35.17.52A2.12,2.12,0,0,0,37,59c1-.47,1.3-1.75,1.7-2.69l1.85-4.44c2.33,2.19,4.62,4.45,7,6.57,1.29,1.15,2.48.55,3.5-.42l4.39-4.18a3.37,3.37,0,0,0,1.06-1.31,13.46,13.46,0,0,0,.35-2.84l.2-1.95.11-1,0-.39c0-.05.06-.55,0-.3A1.72,1.72,0,0,0,57.28,45.66Z"/><path class="cls-4" d="M27.73,23.74a6.74,6.74,0,0,1,1.7.38l3.19.89,9.9,2.76,9.58,2.66,2.86.8c.93.26,1.9.53,2.18,1.6.57,2.11-2.25,2.63-3.66,3.14l-4.23,1.52L54,41.88c.81.73,1.62,1.46,2.41,2.2a2,2,0,0,1,.14,3.08c-1.71,1.67-3.47,3.29-5.2,4.93-1,.95-2.3,1.39-3.49.37-.63-.55-1.22-1.14-1.83-1.71L40.53,45.6l-1.45,3.45-.92,2.19a3.26,3.26,0,0,1-.94,1.52,2.22,2.22,0,0,1-3.4-1c0-.12-.08-.25-.12-.37l-.79-2.48-6-18.82-1.05-3.28c-.06-.2-.13-.4-.18-.6A2,2,0,0,1,27.73,23.74Z"/><rect class="cls-5" x="30.02" y="4.84" width="5.43" height="12.33" rx="2.72"/><rect class="cls-5" x="6.72" y="28.15" width="12.33" height="5.43" rx="2.72"/><rect class="cls-5" x="12.53" y="42.18" width="12.33" height="5.43" rx="2.72" transform="translate(-26.27 26.37) rotate(-45)"/><rect class="cls-5" x="40.61" y="14.11" width="12.33" height="5.43" rx="2.72" transform="translate(1.8 38) rotate(-45)"/><rect class="cls-5" x="15.98" y="10.66" width="5.43" height="12.33" rx="2.72" transform="translate(-6.42 18.15) rotate(-45)"/></g></g></svg>