<svg xmlns="http://www.w3.org/2000/svg" viewBox="0 0 64 64"><defs><style>.cls-1{opacity:0;}.cls-2{fill:#1a1a1a;}</style></defs><title>Mouse Click Black </title><g id="Layer_2" data-name="Layer 2"><g id="Layer_3" data-name="Layer 3"><g class="cls-1"><rect class="cls-2" width="64" height="64"/></g><path class="cls-2" d="M25.75,24.71a6.76,6.76,0,0,1,1.7.39l3.19.89,9.9,2.76,9.57,2.66,2.87.8c.92.26,1.89.53,2.18,1.6.57,2.11-2.25,2.63-3.66,3.13l-4.23,1.53,4.78,4.38,2.41,2.21a2,2,0,0,1,.14,3.08c-1.71,1.67-3.47,3.28-5.2,4.92-1,1-2.3,1.4-3.49.37-.63-.54-1.22-1.14-1.83-1.7l-5.53-5.15L37.1,50l-.92,2.19a3.26,3.26,0,0,1-.94,1.52,2.22,2.22,0,0,1-3.4-1c-.05-.12-.08-.25-.12-.37l-.79-2.49L25,31.08,23.91,27.8c-.06-.2-.13-.4-.19-.6A2,2,0,0,1,25.75,24.71Z"/><rect class="cls-2" x="28.04" y="5.82" width="5.43" height="12.33" rx="2.72"/><rect class="cls-2" x="4.73" y="29.12" width="12.33" height="5.43" rx="2.72"/><rect class="cls-2" x="10.55" y="43.16" width="12.33" height="5.43" rx="2.72" transform="translate(-27.55 25.25) rotate(-45)"/><rect class="cls-2" x="38.63" y="15.08" width="12.33" height="5.43" rx="2.72" transform="translate(0.53 36.88) rotate(-45)"/><rect class="cls-2" x="14" y="11.64" width="5.43" height="12.33" rx="2.72" transform="translate(-7.69 17.03) rotate(-45)"/></g></g></svg>