<svg xmlns="http://www.w3.org/2000/svg" viewBox="0 0 64 64"><defs><style>.cls-1,.cls-2{fill:#fff;}.cls-1{opacity:0;}</style></defs><title>Slime White</title><g id="Layer_2" data-name="Layer 2"><g id="Finals"><rect class="cls-1" width="64" height="64"/><path class="cls-2" d="M38.59,42.86l.11-.11A.29.29,0,0,0,38.59,42.86Z"/><path class="cls-2" d="M29,9.53C13.79,9.53,4.5,21.85,4.5,37S16.81,54.47,32,54.47,59.5,52.22,59.5,37,44.17,9.53,29,9.53Zm.72,30c-1.95,0-3.53-1.73-3.53-5.45s1.58-8,3.53-8,3.52,4.3,3.52,8S31.64,39.52,29.7,39.52ZM42.86,42.4a18,18,0,0,1-1.18,1.8c-.21.28-.42.57-.65.84A2.94,2.94,0,0,1,39,46.09a3.08,3.08,0,0,1-2.21-.76c-.26-.24-.52-.49-.76-.75a8.7,8.7,0,0,1-1.3-1.73,1.31,1.31,0,0,1,.53-1.78A1.34,1.34,0,0,1,36.36,41a8.6,8.6,0,0,1,1.86,1.1,7.64,7.64,0,0,1,.62.51l.52-.5A18.3,18.3,0,0,1,41,40.75a1.27,1.27,0,0,1,1.84,1.65Zm5-2.88c-2,0-3.53-1.73-3.53-5.45s1.58-8,3.53-8,3.52,4.3,3.52,8S49.81,39.52,47.86,39.52Z"/></g></g></svg>