<?xml version="1.0" encoding="UTF-8"?>
<svg id="Layer_2" data-name="Layer 2" xmlns="http://www.w3.org/2000/svg" viewBox="0 0 64 64">
  <defs>
    <style>
      .cls-1 {
        fill: #8cc936;
      }

      .cls-2 {
        fill: #008722;
      }

      .cls-3 {
        fill: #1a1a1a;
        opacity: 0;
      }
    </style>
  </defs>
  <g id="No_outline" data-name="No outline">
    <g id="Recycle">
      <rect class="cls-3" width="64" height="64"/>
      <g>
        <path class="cls-2" d="M55.65,36.18c-1.07-1.85-3.43-2.49-5.28-1.43,.05-.21,.08-.42,.08-.65V16.69c0-2.25-2.44-3.66-4.39-2.53l-2.34,1.35-3.67-6.36c-1.68-2.91-4.69-4.65-8.06-4.65s-6.37,1.74-8.06,4.65c-.35,.61-.51,1.28-.5,1.94h-.02s0,3.85,0,3.85h.01c.01,.45,.11,.9,.28,1.32-.71-.19-1.49-.12-2.21,.29l-11.85,6.84c-.97,.56-1.45,1.54-1.46,2.52h0s0,.01,0,.01c0,0,0,0,0,.01v3.72s0,0,0,.01h0s0,0,0,0c0,.98,.49,1.96,1.46,2.53l.73,.42-2.06,3.56c-1.17,2.03-1.51,4.32-1.05,6.52-.46,2.19-.12,4.49,1.05,6.52,1.68,2.91,4.69,4.65,8.06,4.65,2.15,0,3.88-1.74,3.88-3.88v-3.73c0-2.15-1.74-3.88-3.88-3.88-.17,0-.32-.03-.46-.07l2.81-4.86,2.77,1.6c1.95,1.13,4.39-.28,4.39-2.53V19.1c0-.25-.03-.49-.09-.71,1.78,.75,3.87,.09,4.86-1.62,.39-.67,1-.77,1.33-.77s.94,.1,1.33,.77l2.06,3.56-1.16,.67c-.93,.54-1.4,1.45-1.44,2.39h-.01s0,.11,0,.11c0,.02,0,.05,0,.07v3.66s0,.05,0,.07v.11h.01c.05,.93,.52,1.85,1.44,2.39l11.85,6.84c.85,.49,1.8,.5,2.6,.16-.16,.43-.24,.89-.24,1.35h-.02s0,3.63,0,3.63h.01c0,.11,0,.23,0,.34-.21,.14-.48,.24-.83,.24h-7.34v-3.2c0-2.25-2.44-3.66-4.39-2.53l-11.85,6.84c-1.02,.59-1.5,1.65-1.44,2.68h-.01s0,3.55,0,3.55c0,.02,0,.04,0,.07v.11h.01c.04,.93,.51,1.86,1.45,2.39l11.85,6.84c1.95,1.13,4.39-.28,4.39-2.53v-2.71h7.34c3.36,0,6.37-1.74,8.06-4.65,.87-1.5,1.28-3.16,1.25-4.8h.01s0-3.46,0-3.46h0c.02-1.63-.39-3.27-1.25-4.76Z"/>
        <g>
          <path class="cls-1" d="M24.02,43.47l11.85-6.84c1.95-1.13,4.39,.28,4.39,2.53v3.2s7.34,0,7.34,0c.77,0,1.16-.48,1.33-.77,.17-.29,.39-.87,0-1.53-1.07-1.86-.44-4.23,1.42-5.31,1.86-1.07,4.23-.44,5.31,1.42,1.68,2.91,1.68,6.39,0,9.3-1.68,2.91-4.69,4.65-8.06,4.65h-7.34s0,2.71,0,2.71c0,2.25-2.44,3.66-4.39,2.53l-11.85-6.84c-1.95-1.13-1.95-3.94,0-5.07Z"/>
          <path class="cls-1" d="M46.06,32.9l-11.85-6.84c-1.95-1.13-1.95-3.94,0-5.07l2.77-1.6-3.67-6.36c-.39-.67-1-.77-1.33-.77s-.94,.1-1.33,.77c-1.07,1.86-3.45,2.5-5.31,1.42-1.86-1.07-2.49-3.45-1.42-5.31,1.68-2.91,4.69-4.65,8.06-4.65s6.37,1.74,8.06,4.65l3.67,6.36,2.34-1.35c1.95-1.13,4.39,.28,4.39,2.53v13.68c0,2.25-2.44,3.66-4.39,2.53Z"/>
          <path class="cls-1" d="M8.33,36.18l3.67-6.36-2.34-1.35c-1.95-1.13-1.95-3.94,0-5.07l11.85-6.84c1.95-1.13,4.39,.28,4.39,2.53v13.68c0,2.25-2.44,3.66-4.39,2.53l-2.77-1.6-3.67,6.36c-.39,.67-.17,1.25,0,1.53,.17,.29,.56,.77,1.33,.77,2.15,0,3.88,1.74,3.88,3.88s-1.74,3.88-3.88,3.88c-3.36,0-6.37-1.74-8.06-4.65-1.68-2.91-1.68-6.39,0-9.3Z"/>
        </g>
      </g>
    </g>
  </g>
</svg>