<?xml version="1.0" encoding="UTF-8"?>
<svg id="Layer_2" data-name="Layer 2" xmlns="http://www.w3.org/2000/svg" viewBox="0 0 64 64">
  <defs>
    <style>
      .cls-1, .cls-2 {
        fill: #fff;
      }

      .cls-2 {
        opacity: 0;
      }
    </style>
  </defs>
  <g id="White">
    <g id="Recycle_Flat_White" data-name="Recycle Flat White">
      <rect class="cls-2" width="64" height="64"/>
      <g>
        <path class="cls-1" d="M24.02,45.33l11.85-6.84c1.95-1.13,4.39,.28,4.39,2.53v3.2s7.34,0,7.34,0c.77,0,1.16-.48,1.33-.77,.17-.29,.39-.87,0-1.53-1.07-1.86-.44-4.23,1.42-5.31,1.86-1.07,4.23-.44,5.31,1.42,1.68,2.91,1.68,6.39,0,9.3-1.68,2.91-4.69,4.65-8.06,4.65h-7.34s0,2.71,0,2.71c0,2.25-2.44,3.66-4.39,2.53l-11.85-6.84c-1.95-1.13-1.95-3.94,0-5.07Z"/>
        <path class="cls-1" d="M46.06,34.77l-11.85-6.84c-1.95-1.13-1.95-3.94,0-5.07l2.77-1.6-3.67-6.36c-.39-.67-1-.77-1.33-.77s-.94,.1-1.33,.77c-1.07,1.86-3.45,2.5-5.31,1.42-1.86-1.07-2.49-3.45-1.42-5.31,1.68-2.91,4.69-4.65,8.06-4.65s6.37,1.74,8.06,4.65l3.67,6.36,2.34-1.35c1.95-1.13,4.39,.28,4.39,2.53v13.68c0,2.25-2.44,3.66-4.39,2.53Z"/>
        <path class="cls-1" d="M8.33,38.05l3.67-6.36-2.34-1.35c-1.95-1.13-1.95-3.94,0-5.07l11.85-6.84c1.95-1.13,4.39,.28,4.39,2.53v13.68c0,2.25-2.44,3.66-4.39,2.53l-2.77-1.6-3.67,6.36c-.39,.67-.17,1.25,0,1.53,.17,.29,.56,.77,1.33,.77,2.15,0,3.88,1.74,3.88,3.88s-1.74,3.88-3.88,3.88c-3.36,0-6.37-1.74-8.06-4.65-1.68-2.91-1.68-6.39,0-9.3Z"/>
      </g>
    </g>
  </g>
</svg>