<svg xmlns="http://www.w3.org/2000/svg" viewBox="0 0 64 64"><defs><style>.cls-1,.cls-2{fill:#1a1a1a;}.cls-1{opacity:0;}</style></defs><title>Lock Flat Black</title><g id="Layer_2" data-name="Layer 2"><g id="Layer_3" data-name="Layer 3"><rect class="cls-1" width="64" height="64"/><path class="cls-2" d="M47.34,25.67h-1V23.32h0a14.32,14.32,0,1,0-28.64,0v2.35h-1A3.33,3.33,0,0,0,13.34,29V51.67A3.32,3.32,0,0,0,16.66,55H47.34a3.33,3.33,0,0,0,3.32-3.33h0V29A3.33,3.33,0,0,0,47.34,25.67ZM36.12,47.19a1,1,0,0,1-.95,1.15h-6a1,1,0,0,1-1-1.15l1.05-5.69A5,5,0,1,1,35,41.31Zm4.42-21.52H23.46V23.14h0a8.54,8.54,0,1,1,17.08,0Z"/></g></g></svg>