<svg xmlns="http://www.w3.org/2000/svg" viewBox="0 0 64 64"><defs><style>.cls-1{fill:#1a1a1a;opacity:0;}.cls-2{fill:#abc0c9;}.cls-3{fill:#fec92b;}.cls-4{fill:#fee854;}.cls-5{fill:#d1523f;}.cls-6{fill:#d3dee3;}</style></defs><title>Unlock</title><g id="Layer_2" data-name="Layer 2"><g id="Layer_3" data-name="Layer 3"><rect class="cls-1" width="64" height="64"/><path class="cls-2" d="M36.58,5.21a14.37,14.37,0,0,0-18.9,13.61V39.5H37V34.61H23.46v-16h0a8.45,8.45,0,0,1,5.78-8.11,8.57,8.57,0,0,1,11.3,8.11V19a1,1,0,0,0,1,1h3.78a1,1,0,0,0,1-1v-.19h0A14.17,14.17,0,0,0,36.58,5.21Z"/><path class="cls-3" d="M47.33,30.17H16.66a3.33,3.33,0,0,0-3.33,3.33V56.17a3.34,3.34,0,0,0,3.33,3.33H47.33a3.33,3.33,0,0,0,3.33-3.33h0V33.5A3.33,3.33,0,0,0,47.33,30.17Z"/><path class="cls-4" d="M47,30.17H17v9.55a6,6,0,0,0,4.52,5.84A42.62,42.62,0,0,0,32,46.83a43.11,43.11,0,0,0,10.48-1.27A6,6,0,0,0,47,39.72Z"/><path class="cls-5" d="M35,45.81a5,5,0,1,0-5.77.19l-1.05,5.69a1,1,0,0,0,1,1.15h6a1,1,0,0,0,.95-1.15Z"/><path class="cls-6" d="M25.26,10.31c2.71-2.21,5-3.89,4.31-4.72a2.43,2.43,0,0,0-2-.37A14.37,14.37,0,0,0,20,11c-.49,1.17-.57,2.16-.24,2.57C20.45,14.4,22.56,12.51,25.26,10.31Z"/></g></g></svg>