<svg xmlns="http://www.w3.org/2000/svg" viewBox="0 0 64 64"><defs><style>.cls-1{fill:#1a1a1a;opacity:0;}.cls-2{fill:#fff;}</style></defs><title>Unlock Flat White</title><g id="Layer_2" data-name="Layer 2"><g id="Layer_3" data-name="Layer 3"><rect class="cls-1" width="64" height="64"/><path class="cls-2" d="M47.34,30.17H23.46V18.64h0a8.45,8.45,0,0,1,5.78-8.11,8.57,8.57,0,0,1,11.3,8.11V19a1,1,0,0,0,1,1h3.78a1,1,0,0,0,1-1v-.19h0A14.17,14.17,0,0,0,36.58,5.21a14.37,14.37,0,0,0-18.9,13.61V30.17h-1a3.33,3.33,0,0,0-3.32,3.33V56.17a3.32,3.32,0,0,0,3.32,3.33H47.34a3.33,3.33,0,0,0,3.32-3.33h0V33.5A3.33,3.33,0,0,0,47.34,30.17ZM36.12,51.69a1,1,0,0,1-.95,1.15h-6a1,1,0,0,1-1-1.15L29.26,46A5,5,0,1,1,35,45.81Z"/></g></g></svg>