<svg xmlns="http://www.w3.org/2000/svg" viewBox="0 0 128 128"><defs><style>.cls-1{fill:none;}.cls-2{fill:#1a1a1a;}.cls-3{fill:#009245;}.cls-4{fill:#65d666;}</style></defs><title>Upgrade Outline </title><g id="Layer_2" data-name="Layer 2"><g id="_14-25" data-name="14-25"><rect class="cls-1" width="128" height="128"/><path class="cls-2" d="M44.64,127l-15.78-.75A7.87,7.87,0,0,1,21.38,119L19.07,87.87A7.88,7.88,0,0,1,22.17,81l1-.77A7.87,7.87,0,0,1,18,73.4l-2.68-36a7.89,7.89,0,0,1,3.06-6.83L49.68,6.45A7.78,7.78,0,0,1,53,5L72.22,1.15A7.88,7.88,0,0,1,79,3l31.09,27.44a7.89,7.89,0,0,1,2.65,6.25l-1.56,35.6a7.86,7.86,0,0,1-4.76,6.89l1.08.83a7.89,7.89,0,0,1,3.06,6.58l-1.35,30.77a7.88,7.88,0,0,1-7.86,7.53L84,124.21a7.81,7.81,0,0,1-4.13-1.35L65.92,113.4l-16.2,12A7.88,7.88,0,0,1,45,127Z"/><polygon class="cls-3" points="104.83 36.31 73.75 8.88 54.48 12.69 23.17 36.78 25.85 72.82 42.72 71.73 63.24 56.22 73.38 64.02 55.96 65.36 26.92 87.29 29.23 118.37 45.02 119.13 65.71 103.75 84.27 116.34 101.3 116.98 102.65 86.22 85.38 72.91 103.28 71.91 104.83 36.31"/><polygon class="cls-4" points="73.75 8.88 104.83 36.31 103.28 71.91 73.79 48.24 42.72 71.73 40.9 34.05 73.75 8.88"/><polygon class="cls-4" points="73.81 63.99 102.65 86.22 101.3 116.98 73.85 97.7 45.02 119.13 43.45 86.82 73.81 63.99"/></g></g></svg>