<svg xmlns="http://www.w3.org/2000/svg" viewBox="0 0 64 64"><defs><style>.cls-1,.cls-2{fill:#1a1a1a;}.cls-1{opacity:0;}</style></defs><title>Gear 2 Flat Black</title><g id="Layer_2" data-name="Layer 2"><g id="Layer_3" data-name="Layer 3"><rect class="cls-1" width="64" height="64"/><path class="cls-2" d="M55.26,37.05l-3.88-2.32a17.85,17.85,0,0,0,0-5.46L55.26,27a1.35,1.35,0,0,0,.62-1.51A24.81,24.81,0,0,0,49.63,14.6,1.38,1.38,0,0,0,48,14.38l-3.93,2.21a19.37,19.37,0,0,0-4.75-2.75c0-1.52,0-3-.06-4.51a1.36,1.36,0,0,0-1-1.29A24.59,24.59,0,0,0,25.74,8a1.36,1.36,0,0,0-1,1.29c0,1.49,0,3-.06,4.51a19.37,19.37,0,0,0-4.75,2.75L16,14.38a1.38,1.38,0,0,0-1.63.22A24.81,24.81,0,0,0,8.12,25.44,1.35,1.35,0,0,0,8.74,27l3.88,2.32a17.85,17.85,0,0,0,0,5.46L8.74,37.05a1.35,1.35,0,0,0-.62,1.51A24.81,24.81,0,0,0,14.37,49.4a1.38,1.38,0,0,0,1.63.22l3.93-2.21a19.37,19.37,0,0,0,4.75,2.75c0,1.52,0,3,.06,4.51a1.36,1.36,0,0,0,1,1.29,24.59,24.59,0,0,0,12.52,0,1.36,1.36,0,0,0,1-1.29c0-1.49,0-3,.06-4.51a19.37,19.37,0,0,0,4.75-2.75L48,49.62a1.38,1.38,0,0,0,1.63-.22,24.81,24.81,0,0,0,6.25-10.84A1.35,1.35,0,0,0,55.26,37.05ZM32,41.45A9.45,9.45,0,1,1,41.45,32,9.45,9.45,0,0,1,32,41.45Z"/></g></g></svg>