<svg xmlns="http://www.w3.org/2000/svg" viewBox="0 0 64 64"><defs><style>.cls-1,.cls-2{fill:#1a1a1a;}.cls-1{opacity:0;}.cls-3{fill:#7b97a6;}.cls-4{fill:#d3dee3;}.cls-5{fill:#fff;opacity:0.5;}</style></defs><title>Gear 2 Outline</title><g id="Layer_2" data-name="Layer 2"><g id="Layer_3" data-name="Layer 3"><rect class="cls-1" width="64" height="64"/><path class="cls-2" d="M59.59,33.64a4.64,4.64,0,0,0-.23-.53,6.27,6.27,0,0,0-.55-.88c-.05-.06-.11-.15-.18-.22a5.27,5.27,0,0,0,1.24-2.78,3.71,3.71,0,0,0,.06-.67s0-5.45,0-5.48a5.63,5.63,0,0,0-.18-1.44A28.78,28.78,0,0,0,52.47,9.06a5.28,5.28,0,0,0-3.8-1.59,5.43,5.43,0,0,0-2.61.68l-1.77,1-1-.58,0-2a5.39,5.39,0,0,0-4-5.11,28.88,28.88,0,0,0-14.54,0,5.39,5.39,0,0,0-4,5.11l0,2-1,.58-1.77-1a5.43,5.43,0,0,0-2.61-.68,5.32,5.32,0,0,0-3.8,1.59A28.71,28.71,0,0,0,4.27,21.62a5,5,0,0,0-.19,1.48s0,5.46,0,5.46a3.82,3.82,0,0,0,.06.68A5.35,5.35,0,0,0,5.37,32l-.23.28a5.29,5.29,0,0,0-.49.81,5.45,5.45,0,0,0-.25.55,5.93,5.93,0,0,0-.28,1.14,5.46,5.46,0,0,0,0,.57v5.38a5.41,5.41,0,0,0,.18,1.62,28.78,28.78,0,0,0,7.27,12.58,5.3,5.3,0,0,0,3.8,1.59,5.43,5.43,0,0,0,2.61-.68l1.77-1,1,.58,0,2a5.37,5.37,0,0,0,4,5.11,28.88,28.88,0,0,0,14.54,0,5.38,5.38,0,0,0,4-5.11l0-2,1-.58,1.77,1a5.43,5.43,0,0,0,2.61.68,5.28,5.28,0,0,0,3.8-1.59,28.73,28.73,0,0,0,7.27-12.59,5.35,5.35,0,0,0,.18-1.6v-5.4a4.17,4.17,0,0,0-.06-.71A5.68,5.68,0,0,0,59.59,33.64ZM36.83,31.77a5.44,5.44,0,0,1-9.66,0,5.43,5.43,0,0,1,9.66,0Z"/><path class="cls-3" d="M51.38,32l3.88-2.31a1.36,1.36,0,0,0,.66-1.13h0V23.19h0a1.38,1.38,0,0,0,0-.49,25,25,0,0,0-2.43-5.82,24.75,24.75,0,0,0-3.82-5A1.35,1.35,0,0,0,48,11.65l-3.93,2.2a20,20,0,0,0-4.75-2.75q0-2.26-.06-4.5a1.37,1.37,0,0,0-1-1.3,24.89,24.89,0,0,0-12.52,0,1.37,1.37,0,0,0-1,1.3l-.06,4.5a20,20,0,0,0-4.75,2.75L16,11.65a1.35,1.35,0,0,0-1.63.22,24.75,24.75,0,0,0-3.82,5A25,25,0,0,0,8.12,22.7a1.17,1.17,0,0,0,0,.49h0v5.38h0a1.39,1.39,0,0,0,.66,1.13L12.62,32h0L8.74,34.31a1.37,1.37,0,0,0-.66,1h0v5.47h0a1.3,1.3,0,0,0,0,.48,25,25,0,0,0,2.43,5.82,24.75,24.75,0,0,0,3.82,5,1.35,1.35,0,0,0,1.63.22l3.93-2.2a20,20,0,0,0,4.75,2.75l.06,4.5a1.37,1.37,0,0,0,1,1.3,24.89,24.89,0,0,0,12.52,0,1.37,1.37,0,0,0,1-1.3q0-2.24.06-4.5a20,20,0,0,0,4.75-2.75L48,52.35a1.35,1.35,0,0,0,1.63-.22,24.75,24.75,0,0,0,3.82-5,25,25,0,0,0,2.43-5.82,1.3,1.3,0,0,0,0-.48h0V35.35h0a1.37,1.37,0,0,0-.66-1L51.38,32ZM32,43.71a9.45,9.45,0,1,1,9.45-9.44A9.44,9.44,0,0,1,32,43.71Z"/><path class="cls-4" d="M55.26,34.31,51.38,32a18.86,18.86,0,0,0,.21-2.73,19.11,19.11,0,0,0-.21-2.74l3.88-2.31a1.36,1.36,0,0,0,.62-1.52,25,25,0,0,0-2.43-5.82,24.75,24.75,0,0,0-3.82-5A1.35,1.35,0,0,0,48,11.65l-3.93,2.2a20,20,0,0,0-4.75-2.75q0-2.26-.06-4.5a1.37,1.37,0,0,0-1-1.3,24.89,24.89,0,0,0-12.52,0,1.37,1.37,0,0,0-1,1.3l-.06,4.5a20,20,0,0,0-4.75,2.75L16,11.65a1.35,1.35,0,0,0-1.63.22,24.75,24.75,0,0,0-3.82,5A25,25,0,0,0,8.12,22.7a1.36,1.36,0,0,0,.62,1.52l3.88,2.31a19.11,19.11,0,0,0-.21,2.74A18.86,18.86,0,0,0,12.62,32L8.74,34.31a1.37,1.37,0,0,0-.62,1.52,24.81,24.81,0,0,0,6.25,10.84,1.38,1.38,0,0,0,1.63.22l3.93-2.21a19.37,19.37,0,0,0,4.75,2.75c0,1.51,0,3,.06,4.5a1.36,1.36,0,0,0,1,1.3,24.59,24.59,0,0,0,12.52,0,1.36,1.36,0,0,0,1-1.3c0-1.48,0-3,.06-4.5a19.37,19.37,0,0,0,4.75-2.75L48,46.89a1.38,1.38,0,0,0,1.63-.22,24.81,24.81,0,0,0,6.25-10.84A1.37,1.37,0,0,0,55.26,34.31ZM32,38.71a9.45,9.45,0,1,1,9.45-9.44A9.44,9.44,0,0,1,32,38.71Z"/><path class="cls-5" d="M22.55,29.27a9.45,9.45,0,0,1,17.79-4.45L53.09,16.3a25.29,25.29,0,0,0-3.46-4.43A1.35,1.35,0,0,0,48,11.65l-3.93,2.2a20,20,0,0,0-4.75-2.75q0-2.26-.06-4.5a1.36,1.36,0,0,0-.58-1.09L9.77,24.83l2.85,1.7a19.11,19.11,0,0,0-.21,2.74A18.86,18.86,0,0,0,12.62,32L8.74,34.31a1.37,1.37,0,0,0-.62,1.52,24.17,24.17,0,0,0,3.83,8L24.7,35.27A9.42,9.42,0,0,1,22.55,29.27Z"/></g></g></svg>