<?xml version="1.0" encoding="UTF-8"?>
<svg id="Layer_2" data-name="Layer 2" xmlns="http://www.w3.org/2000/svg" viewBox="0 0 64 64">
  <defs>
    <style>
      .cls-1 {
        fill: #65d666;
      }

      .cls-1, .cls-2, .cls-3, .cls-4 {
        stroke-width: 0px;
      }

      .cls-2, .cls-3 {
        fill: #1a1a1a;
      }

      .cls-3 {
        opacity: 0;
      }

      .cls-4 {
        fill: #39b54a;
      }
    </style>
  </defs>
  <g id="Exports_1" data-name="Exports 1">
    <g>
      <rect class="cls-3" width="64" height="64"/>
      <g>
        <path class="cls-2" d="M46.98,60.83c-.53,0-1.06-.05-1.58-.16l-34.75-7.03c-2.08-.42-3.87-1.62-5.04-3.39s-1.59-3.89-1.17-5.96L11.47,9.54c.75-3.69,4.02-6.37,7.78-6.37.53,0,1.06.05,1.58.16l24.12,4.88c1.04.21,1.95.82,2.54,1.71l11.56,17.43c.59.88.8,1.96.59,3l-4.88,24.11c-.75,3.69-4.02,6.37-7.78,6.37h0Z"/>
        <path class="cls-1" d="M20.04,7.25c-2.13-.43-4.21.95-4.64,3.08l-7.03,34.75c-.43,2.13.95,4.21,3.08,4.64l34.75,7.03c2.13.43,4.21-.95,4.64-3.08l4.88-24.11-11.57-17.43-24.11-4.88Z"/>
        <path class="cls-4" d="M45.08,27.4l10.64,2.15-11.57-17.43-2.15,10.64c-.43,2.13.95,4.21,3.08,4.64Z"/>
      </g>
    </g>
  </g>
</svg>