<?xml version="1.0" encoding="UTF-8"?>
<svg id="Layer_2" data-name="Layer 2" xmlns="http://www.w3.org/2000/svg" viewBox="0 0 64 64">
  <defs>
    <style>
      .cls-1 {
        opacity: 0;
      }

      .cls-2 {
        fill: #fff;
        stroke-width: 0px;
      }
    </style>
  </defs>
  <g id="Exports_1" data-name="Exports 1">
    <g>
      <g class="cls-1">
        <rect class="cls-2" width="64" height="64"/>
      </g>
      <path class="cls-2" d="M54.73,27.83l-9.28-13.98c-.73-1.1-1.88-1.87-3.17-2.14l-22.08-4.47c-2.13-.43-4.21.95-4.64,3.08l-7.03,34.75c-.43,2.13.95,4.21,3.08,4.64l34.75,7.03c2.13.43,4.21-.95,4.64-3.08l4.47-22.08c.26-1.3,0-2.65-.73-3.76ZM50.61,31.55l-7.78-1.57c-2.6-.52-4.27-3.05-3.75-5.65l1.57-7.78c.15-.75,1.13-.94,1.55-.3l9.28,13.99c.42.63-.14,1.46-.88,1.31Z"/>
    </g>
  </g>
</svg>