<svg xmlns="http://www.w3.org/2000/svg" viewBox="0 0 64 64"><defs><style>.cls-1{opacity:0;}.cls-2{fill:#1a1a1a;}.cls-3{fill:#80bad9;}.cls-4{fill:#fff;}</style></defs><title>Hamburger Menu Outline </title><g id="Layer_2" data-name="Layer 2"><g id="Layer_3" data-name="Layer 3"><g class="cls-1"><rect class="cls-2" width="64" height="64"/></g><path class="cls-2" d="M63.5,18.71V12.29a7.06,7.06,0,0,0-7.06-7H7.56a7.06,7.06,0,0,0-7.06,7v6.42A7,7,0,0,0,2.91,24,7,7,0,0,0,.5,29.29v6.42A7,7,0,0,0,2.91,41,7,7,0,0,0,.5,46.29v6.42a7.06,7.06,0,0,0,7.06,7H56.44a7.06,7.06,0,0,0,7.06-7V46.29A7,7,0,0,0,61.09,41a7,7,0,0,0,2.41-5.29V29.29A7,7,0,0,0,61.09,24,7,7,0,0,0,63.5,18.71Z"/><rect class="cls-3" x="4.5" y="26.24" width="55" height="12.53" rx="3.06"/><rect class="cls-3" x="4.5" y="9.24" width="55" height="12.53" rx="3.06"/><rect class="cls-3" x="4.5" y="43.24" width="55" height="12.53" rx="3.06"/><rect class="cls-4" x="4.5" y="26.24" width="55" height="9.53" rx="3.06"/><rect class="cls-4" x="4.5" y="9.24" width="55" height="9.53" rx="3.06"/><rect class="cls-4" x="4.5" y="43.24" width="55" height="9.53" rx="3.06"/></g></g></svg>