<svg xmlns="http://www.w3.org/2000/svg" viewBox="0 0 64 64"><defs><style>.cls-1,.cls-4{fill:#fff;}.cls-1{opacity:0;}.cls-2{fill:#fdbc0d;}.cls-3{fill:#ff0;}</style></defs><title>Explosion</title><g id="Layer_2" data-name="Layer 2"><g id="Layer_2-2" data-name="Layer 2"><rect class="cls-1" width="64" height="64"/><circle class="cls-2" cx="34.58" cy="30.55" r="14.41"/><circle class="cls-2" cx="25.92" cy="35.52" r="14.41"/><circle class="cls-2" cx="34.58" cy="40.34" r="11.73"/><circle class="cls-2" cx="39.1" cy="33.62" r="11.73"/><path class="cls-2" d="M39.44,32.94,55,38.06a.44.44,0,0,1-.08.85L44.1,40.2a.44.44,0,0,0-.37.33L42.16,47a.74.74,0,0,0,0,.21l2.72,10.67a.43.43,0,0,1-.75.39L40,53.49,39.59,56a.44.44,0,0,1-.85,0L35.06,43.1a.39.39,0,0,0-.12-.19l-24.31-23a.44.44,0,0,1,.51-.7L26,27.7a.43.43,0,0,0,.65-.42l.11-13.91a.44.44,0,0,1,.83-.23L39.18,32.71A.49.49,0,0,0,39.44,32.94Z"/><path class="cls-2" d="M38.14,32.91l15.77-5.48a.5.5,0,0,0-.07-.95L43,24.86a.47.47,0,0,1-.37-.38l-2.54.08c-.3,6.28-.62-1.63-.6-1.71L44.08,5.12c.12-.5-.44-.84-.75-.45l-6.07,12,1.45-9.52a.43.43,0,0,0-.86-.06L33.91,21.46a.5.5,0,0,1-.13.22L8.85,47.07c-.39.39.05,1.07.51.79l15.17-9.31a.44.44,0,0,1,.65.48L23.83,59a.44.44,0,0,0,.83.28L37.87,33.16A.44.44,0,0,1,38.14,32.91Z"/><circle class="cls-3" cx="27.37" cy="36.63" r="12.08"/><circle class="cls-3" cx="32.78" cy="37.3" r="12.08"/><circle class="cls-3" cx="33.6" cy="31.99" r="12.08"/><circle class="cls-3" cx="40.84" cy="33.62" r="8.15"/><path class="cls-4" d="M34.58,35.41a5.38,5.38,0,0,0,1.52.38c4.32.35,6-3.42,6.55-7,.74-3.57-7-5.89-9.74-5.64a8,8,0,0,0-1.75.34c-2,.55-3.85,2.4-2.62,4.66C30.18,31,31.62,33.87,34.58,35.41Z"/><path class="cls-4" d="M31.15,34.82c-.76-2.18-2-4.24-4.25-5.06a6.08,6.08,0,0,0-6.37,1.44c-3.28,3.49-2.26,10.06,2.26,11.7,4.11,1.44,8-2,8.37-6.24A4.23,4.23,0,0,0,31.15,34.82Z"/><path class="cls-4" d="M33.69,38.05c-2.47,1.25-4.83,4.25-3.75,7.14s3.77,1.89,5.8.82c2.26-.92,5.9-3.29,4.94-6.24S36,36.9,33.69,38.05Z"/><path class="cls-4" d="M46,30.35c-1.26-1.92-2.6-.54-3,1.21-.6,1.15-2.52,4.54-1.45,5.72,1.38,1.52,3-.56,3.74-1.8S46.93,31.81,46,30.35Z"/></g></g></svg>