<svg xmlns="http://www.w3.org/2000/svg" viewBox="0 0 64 64"><defs><style>.cls-1{opacity:0;}.cls-2{fill:#fff;}.cls-3{fill:#e62e49;}.cls-4{fill:#fec92b;}</style></defs><title>Explosion 2</title><g id="Layer_2" data-name="Layer 2"><g id="_101-200" data-name="101-200"><g class="cls-1"><rect class="cls-2" width="64" height="64"/></g><path class="cls-3" d="M58.5,34.76l-10.13-4,7.75-10.56a.64.64,0,0,0-.65-1l-9.64,2.07L44.89,9a.64.64,0,0,0-1.11-.39l-8.25,8.92L25.59,4.75a.64.64,0,0,0-1.14.34L23.34,19.64,12.93,21.13a.64.64,0,0,0-.43,1l5.44,7.65L5.38,38.17a.64.64,0,0,0,.27,1.17l16,2.22-2.3,10.12a.64.64,0,0,0,.85.74l9.84-3.82,6.7,10.6a.64.64,0,0,0,1.16-.2l2.77-12.36,12.08,5.74a.64.64,0,0,0,.89-.77l-3.8-11.85,8.67-3.82A.64.64,0,0,0,58.5,34.76Z"/><path class="cls-4" d="M45,41.17,40.06,32l3.38-4.93a.64.64,0,0,0-.54-1l-7.22.16-6.1-6.75a.64.64,0,0,0-1.12.49l1,9.34-8.86,6.2a.64.64,0,0,0,.31,1.16l9.19.83,1.5,5.42a.64.64,0,0,0,1.16.17l2.76-4.45,8.68,3.44A.64.64,0,0,0,45,41.17Z"/></g></g></svg>