<svg xmlns="http://www.w3.org/2000/svg" viewBox="0 0 64 64"><defs><style>.cls-1,.cls-2{fill:#1a1a1a;}.cls-1{opacity:0;}</style></defs><title>Explosion Black</title><g id="Layer_2" data-name="Layer 2"><g id="Layer_2-2" data-name="Layer 2"><rect class="cls-1" width="64" height="64"/><path class="cls-2" d="M55,38.06l-4.56-1.5a11.85,11.85,0,0,0,.39-2.94,11.61,11.61,0,0,0-1-4.76l4.1-1.43a.5.5,0,0,0-.07-.95l-5.73-.85a14.44,14.44,0,0,0-7.28-8L44.08,5.12c.12-.5-.44-.84-.75-.45L37.38,16.42H37.3l1.41-9.27a.43.43,0,0,0-.86-.06l-2.49,9.1c-.26,0-.52,0-.78,0a14.36,14.36,0,0,0-4.7.8l-2.25-3.8a.44.44,0,0,0-.83.23l0,5.09a14.3,14.3,0,0,0-3.24,2.87,14.06,14.06,0,0,0-5.18,2l-7.2-4.13a.44.44,0,0,0-.51.7L16.07,25A14.38,14.38,0,0,0,13.33,42.5L8.85,47.07c-.39.39.05,1.07.51.79l5.36-3.3a14.37,14.37,0,0,0,9.73,5.29L23.83,59a.44.44,0,0,0,.83.28L29,50.66a11.53,11.53,0,0,0,8.5,1L38.74,56a.44.44,0,0,0,.85,0L40,53.49l4.12,4.75a.43.43,0,0,0,.75-.39l-2.28-9A11.73,11.73,0,0,0,46,43.11a11.84,11.84,0,0,0,3.21-3.51l5.74-.69A.44.44,0,0,0,55,38.06ZM31.16,22.46a8,8,0,0,1,1.75-.34c2.72-.25,10.48,2.07,9.74,5.64-.51,3.61-2.23,7.38-6.55,7a5.38,5.38,0,0,1-1.52-.38c-3-1.54-4.4-4.42-6-7.29C27.31,24.86,29.16,23,31.16,22.46ZM21.79,42.9c-4.52-1.64-5.54-8.21-2.26-11.7a6.08,6.08,0,0,1,6.37-1.44c2.26.82,3.49,2.88,4.25,5.06a4.23,4.23,0,0,1,0,1.84C29.8,40.85,25.9,44.34,21.79,42.9Zm14,4.11c-2,1.07-4.78,1.92-5.8-.82s1.28-5.89,3.75-7.14c2.29-1.15,6-1.27,7,1.72S38,46.09,35.74,47Zm9.54-10.53c-.73,1.24-2.36,3.32-3.74,1.8-1.07-1.18.85-4.57,1.45-5.72.38-1.75,1.72-3.13,3-1.21C46.93,32.81,46.05,35.18,45.28,36.48Z"/></g></g></svg>