<svg xmlns="http://www.w3.org/2000/svg" viewBox="0 0 64 64"><defs><style>.cls-1{opacity:0;}.cls-2{fill:#1a1a1a;}.cls-3{fill:#e62e49;}.cls-4{fill:#fec92b;}</style></defs><title>Explosion 2 Outline</title><g id="Layer_2" data-name="Layer 2"><g id="_101-200" data-name="101-200"><g class="cls-1"><rect class="cls-2" width="64" height="64"/></g><path class="cls-2" d="M37.29,63.5a4.61,4.61,0,0,1-3.92-2.16l-4.94-7.82-6.77,2.63a4.81,4.81,0,0,1-1.68.31,4.63,4.63,0,0,1-4.52-5.67l1.33-5.87L5.1,43.3a4.64,4.64,0,0,1-1.94-8.45l9.14-6.1-3.06-4.3a4.64,4.64,0,0,1,3.13-7.28l7.23-1,.86-11.35A4.67,4.67,0,0,1,25.09.5a4.59,4.59,0,0,1,3.66,1.79l7,9.06,5-5.45a4.65,4.65,0,0,1,8,2.79l.59,7.71,5.16-1.11a4.73,4.73,0,0,1,1-.1,4.63,4.63,0,0,1,3.74,7.38L54.67,29,60,31a4.64,4.64,0,0,1,.16,8.56L54.76,42l2.7,8.41A4.65,4.65,0,0,1,53,56.44h0A4.64,4.64,0,0,1,51,56L43.49,52.4l-1.67,7.47A4.61,4.61,0,0,1,37.29,63.5Z"/><path class="cls-3" d="M58.5,34.76l-10.13-4,7.75-10.56a.64.64,0,0,0-.65-1l-9.64,2.07L44.89,9a.64.64,0,0,0-1.11-.39l-8.25,8.92L25.59,4.75a.64.64,0,0,0-1.14.34L23.34,19.64,12.93,21.13a.64.64,0,0,0-.43,1l5.44,7.65L5.38,38.17a.64.64,0,0,0,.27,1.17l16,2.22-2.3,10.12a.64.64,0,0,0,.85.74l9.84-3.82,6.7,10.6a.64.64,0,0,0,1.17-.2l2.77-12.36,12.07,5.74a.64.64,0,0,0,.89-.77l-3.8-11.85,8.67-3.82A.64.64,0,0,0,58.5,34.76Z"/><path class="cls-4" d="M45,41.17,40.06,32l3.38-4.93a.64.64,0,0,0-.54-1l-7.22.16-6.1-6.75a.64.64,0,0,0-1.12.49l1,9.34-8.86,6.2a.64.64,0,0,0,.31,1.16l9.19.83,1.5,5.42a.65.65,0,0,0,1.17.17l2.75-4.45,8.68,3.44A.64.64,0,0,0,45,41.17Z"/></g></g></svg>