<?xml version="1.0" encoding="UTF-8"?>
<svg id="Layer_2" data-name="Layer 2" xmlns="http://www.w3.org/2000/svg" viewBox="0 0 64 64">
  <defs>
    <style>
      .cls-1 {
        opacity: 0;
      }

      .cls-2 {
        fill: #fff;
        stroke-width: 0px;
      }
    </style>
  </defs>
  <g id="Exports_1" data-name="Exports 1">
    <g>
      <g class="cls-1">
        <rect class="cls-2" width="64" height="64"/>
      </g>
      <g>
        <path class="cls-2" d="M48.41,53.85h-.83v-3.33c0-.74-.42-1.37-1.04-1.69l2.08-4.28c.64-1.31.82-2.91.49-4.38l-3.9-17.37,1.9-5.22c.23-.63-.24-1.29-.9-1.29h-3.63l-2.35-4.82c-.32-.66-.99-1.08-1.72-1.08h-3.15v-4.94c0-.53-.43-.96-.96-.96h-4.78c-.53,0-.96.43-.96.96v4.94h-3.15c-.73,0-1.4.42-1.72,1.08l-2.35,4.82h-3.63c-.67,0-1.13.66-.9,1.29l1.9,5.22-3.9,17.37c-.33,1.47-.15,3.06.49,4.38l2.08,4.28c-.61.32-1.04.95-1.04,1.69v3.33h-.83c-.53,0-.96.43-.96.96v2.78c0,1.06.86,1.92,1.92,1.92h30.9c1.06,0,1.92-.86,1.92-1.92v-2.78c0-.53-.43-.96-.96-.96ZM32,51.72c-7.31,0-13.24-5.93-13.24-13.24s5.93-13.24,13.24-13.24,13.24,5.93,13.24,13.24-5.93,13.24-13.24,13.24Z"/>
        <path class="cls-2" d="M32,33.12c-2.75,0-4.98,7-4.98,9.75s2.23,4.98,4.98,4.98,4.98-2.23,4.98-4.98-2.23-9.75-4.98-9.75Z"/>
      </g>
    </g>
  </g>
</svg>