<?xml version="1.0" encoding="UTF-8"?>
<svg id="Layer_2" data-name="Layer 2" xmlns="http://www.w3.org/2000/svg" viewBox="0 0 64 64">
  <defs>
    <style>
      .cls-1 {
        fill: #fec92b;
      }

      .cls-1, .cls-2, .cls-3, .cls-4, .cls-5 {
        stroke-width: 0px;
      }

      .cls-2 {
        fill: #9c3d29;
      }

      .cls-6 {
        opacity: 0;
      }

      .cls-3 {
        fill: #fc9504;
      }

      .cls-4 {
        fill: #fff;
      }

      .cls-5 {
        fill: #bb5938;
      }
    </style>
  </defs>
  <g id="Exports_1" data-name="Exports 1">
    <g>
      <g class="cls-6">
        <rect class="cls-4" width="64" height="64"/>
      </g>
      <g>
        <path class="cls-2" d="M34.39,4.5h-4.78c-.53,0-.96.43-.96.96v6.88h6.69v-6.88c0-.53-.43-.96-.96-.96Z"/>
        <polygon class="cls-1" points="43.89 20.09 20.11 20.09 15.32 41.97 20.11 51.54 43.89 51.54 48.68 41.97 43.89 20.09"/>
        <circle class="cls-3" cx="32" cy="49.52" r="6.02"/>
        <path class="cls-3" d="M26.29,44.03c-.18-1.07-.23-2.38-.14-3.58l1.68-21.69,3.82.3-1.69,21.69c-.07.91-.03,1.87.1,2.65l1.36,8.06-3.78.64-1.36-8.06Z"/>
        <path class="cls-5" d="M40.22,11.48c-.32-.66-.99-1.08-1.72-1.08h-12.99c-.73,0-1.4.42-1.72,1.08l-2.35,4.82h21.14l-2.35-4.82Z"/>
        <path class="cls-2" d="M46.21,16.3h-28.41c-.67,0-1.13.66-.9,1.29l2.18,5.98c.14.38.5.63.9.63h24.05c.4,0,.76-.25.9-.63l2.18-5.98c.23-.63-.24-1.29-.9-1.29Z"/>
        <rect class="cls-3" x="19.8" y="21.05" width="24.41" height="4.15"/>
        <path class="cls-2" d="M41.27,50.89l3.9-8.02c.27-.55.34-1.22.19-1.86l-4.87-21.68,3.74-.84,4.87,21.68c.33,1.47.15,3.06-.49,4.38l-3.9,8.02-3.45-1.68Z"/>
        <path class="cls-4" d="M36.57,40.67c0,2.52-2.05,4.57-4.57,4.57s-4.57-2.05-4.57-4.57,2.05-8.94,4.57-8.94,4.57,6.42,4.57,8.94Z"/>
        <path class="cls-2" d="M15.38,44.55c-.64-1.31-.82-2.91-.49-4.38l4.87-21.68,3.74.84-4.87,21.68c-.14.63-.07,1.31.19,1.86l3.9,8.02-3.45,1.68-3.9-8.02Z"/>
        <path class="cls-2" d="M32.57,51.45l1.36-8.06c.13-.78.17-1.74.1-2.65l-1.68-21.69,3.82-.3,1.68,21.69c.09,1.2.04,2.5-.14,3.58l-1.36,8.06-3.78-.64Z"/>
        <path class="cls-5" d="M45.66,48.6h-27.32c-1.06,0-1.92.86-1.92,1.92v5.02h31.15v-5.02c0-1.06-.86-1.92-1.92-1.92Z"/>
        <path class="cls-2" d="M48.41,53.85H15.59c-.53,0-.96.43-.96.96v2.78c0,1.06.86,1.92,1.92,1.92h30.9c1.06,0,1.92-.86,1.92-1.92v-2.78c0-.53-.43-.96-.96-.96Z"/>
      </g>
    </g>
  </g>
</svg>