<?xml version="1.0" encoding="UTF-8"?>
<svg id="Layer_2" data-name="Layer 2" xmlns="http://www.w3.org/2000/svg" viewBox="0 0 64 64">
  <defs>
    <style>
      .cls-1, .cls-2 {
        fill: #1a1a1a;
      }

      .cls-1, .cls-2, .cls-3, .cls-4, .cls-5 {
        stroke-width: 0px;
      }

      .cls-2 {
        opacity: 0;
      }

      .cls-3 {
        fill: #e62e49;
      }

      .cls-4 {
        fill: #ff7f7d;
      }

      .cls-5 {
        fill: #c62d43;
      }
    </style>
  </defs>
  <g id="Exports_2" data-name="Exports 2">
    <g>
      <rect class="cls-2" width="64" height="64"/>
      <g>
        <path class="cls-1" d="M31.99,60.02c-2.2,0-4.29-.69-6.05-2.01l-1.04-.8c-.68-.52-1.35-1.04-2.03-1.56-4.67-3.58-9.04-7.65-12.96-12.07-2.98-3.29-5.45-7.05-7.3-11.13-1.26-2.77-1.97-5.72-2.1-8.77-.1-4.37,1.25-8.63,3.8-12.09,3.23-4.76,8.58-7.59,14.34-7.59,1.02,0,2.05.09,3.06.27,3.81.6,7.41,2.33,10.26,4.91,2.82-2.57,6.43-4.31,10.25-4.91,1.03-.19,2.08-.28,3.12-.28,5.76,0,11.11,2.84,14.34,7.6,2.57,3.46,3.92,7.73,3.81,12.03-.11,3.08-.8,6.04-2.05,8.81-1.86,4.1-4.33,7.85-7.34,11.17-3.92,4.4-8.32,8.48-13.04,12.07-.64.5-1.32,1.02-1.99,1.54l-.99.76c-1.81,1.35-3.9,2.04-6.09,2.04Z"/>
        <g>
          <path class="cls-5" d="M24.23,44.93c-.96-.98-.94-2.56.04-3.52h0s.1-.11.1-.11l10-9.66-10.08-9.8c-1.14-1.1-1.31-2.83-.5-4.12l.12-.19,4.04-6.47c-2.04-1.48-4.4-2.48-6.92-2.86-5.22-.95-10.51,1.28-13.47,5.69-2.07,2.77-3.15,6.15-3.07,9.6.11,2.52.7,5,1.75,7.29,1.68,3.7,3.92,7.12,6.65,10.13,3.77,4.24,7.93,8.12,12.43,11.57,1,.78,2,1.54,3,2.31,1.81,1.35,4.18,1.56,6.18.65l-10.28-10.52Z"/>
          <path class="cls-5" d="M56.42,13.9c-2.97-4.43-8.29-6.67-13.53-5.69-1.91.29-3.73.95-5.39,1.89l-6.27,9.11,9.17,10.54.1.11c.98,1.12.88,2.82-.21,3.82l-10.55,9.78,7.95,9.78c.32-.25.64-.49.96-.74,4.53-3.45,8.71-7.33,12.5-11.58,2.73-3.01,4.97-6.42,6.65-10.12,1.03-2.29,1.61-4.77,1.7-7.28.09-3.46-.99-6.85-3.07-9.61Z"/>
        </g>
        <g>
          <path class="cls-3" d="M24.28,41.42h0s.1-.11.1-.11l10-9.66-10.08-9.8c-1.14-1.1-1.31-2.83-.5-4.12l.12-.19,4.04-6.46c-2.04-1.49-4.41-2.48-6.93-2.87-5.22-.95-10.5,1.29-13.46,5.69-2.07,2.77-3.15,6.15-3.07,9.6.11,2.52.7,5,1.75,7.29.51,1.14,1.1,2.21,1.75,3.33,4.11,4.43,9.5,8.69,15.79,10.17-.46-.94-.31-2.1.48-2.87Z"/>
          <path class="cls-3" d="M43.62,8.1l-.74.11c-1.91.29-3.72.94-5.38,1.88l-6.27,9.12,9.17,10.54.1.11c.98,1.12.88,2.82-.21,3.82l-10.55,9.78,1.02,1.25c1.39-.16,2.8-.47,4.25-.95,20.57-6.86,20.92-31,8.62-35.65Z"/>
        </g>
        <g id="Layer_3" data-name="Layer 3">
          <path class="cls-4" d="M21.15,14c1.32,2.16-.57,4.64-3.62,6.5-3.05,1.86-6.12,2.41-7.44.25-1.32-2.16.09-5.42,3.14-7.28,3.05-1.86,6.6-1.59,7.92.53Z"/>
        </g>
      </g>
    </g>
  </g>
</svg>