<?xml version="1.0" encoding="UTF-8"?>
<svg id="Layer_2" data-name="Layer 2" xmlns="http://www.w3.org/2000/svg" viewBox="0 0 64 64">
  <defs>
    <style>
      .cls-1 {
        opacity: 0;
      }

      .cls-2 {
        fill: #fff;
        stroke-width: 0px;
      }
    </style>
  </defs>
  <g id="Exports_2" data-name="Exports 2">
    <g>
      <g class="cls-1">
        <rect class="cls-2" width="64" height="64"/>
      </g>
      <g>
        <path class="cls-2" d="M24.28,41.42h0s.1-.11.1-.11l10-9.66-10.08-9.8c-1.14-1.1-1.31-2.83-.5-4.12l.12-.19,4.04-6.47c-2.04-1.48-4.4-2.48-6.92-2.86-5.22-.95-10.51,1.28-13.47,5.69-2.07,2.77-3.15,6.15-3.07,9.6.11,2.52.7,5,1.75,7.29,1.68,3.7,3.92,7.12,6.65,10.13,3.77,4.24,7.93,8.12,12.43,11.57,1,.78,2,1.54,3,2.31,1.81,1.35,4.18,1.56,6.18.65l-10.28-10.52c-.96-.98-.94-2.56.04-3.52Z"/>
        <path class="cls-2" d="M56.42,13.91c-2.97-4.43-8.29-6.67-13.53-5.69-1.91.29-3.73.95-5.39,1.89l-6.27,9.11,9.17,10.54.1.11c.98,1.12.88,2.82-.21,3.82l-10.55,9.78,7.95,9.78c.32-.25.64-.49.96-.74,4.53-3.45,8.71-7.33,12.5-11.58,2.73-3.01,4.97-6.42,6.65-10.12,1.03-2.29,1.61-4.77,1.7-7.28.09-3.46-.99-6.85-3.07-9.61Z"/>
      </g>
    </g>
  </g>
</svg>