<?xml version="1.0" encoding="UTF-8"?>
<svg id="Layer_2" data-name="Layer 2" xmlns="http://www.w3.org/2000/svg" viewBox="0 0 64 64">
  <defs>
    <style>
      .cls-1 {
        fill: #65d666;
      }

      .cls-1, .cls-2, .cls-3, .cls-4, .cls-5, .cls-6, .cls-7, .cls-8 {
        stroke-width: 0px;
      }

      .cls-2 {
        fill: #324652;
      }

      .cls-3, .cls-4 {
        fill: #1a1a1a;
      }

      .cls-4 {
        opacity: 0;
      }

      .cls-5 {
        fill: #39b54a;
      }

      .cls-6 {
        fill: #fc9504;
      }

      .cls-7 {
        fill: #476475;
      }

      .cls-8 {
        fill: #abc0c9;
      }
    </style>
  </defs>
  <g id="Exports_1" data-name="Exports 1">
    <g>
      <rect class="cls-4" width="64" height="64"/>
      <g>
        <path class="cls-3" d="M55.33,51.98l-1.96-45.54c-.14-3.33-2.97-5.93-6.44-5.93h-29.86c-3.47,0-6.3,2.61-6.44,5.93l-1.96,45.54c-.13,2.97.03,6.7,2.44,9.21,1.47,1.53,3.47,2.31,5.96,2.31h29.86c2.49,0,4.49-.78,5.96-2.31,2.4-2.51,2.57-6.24,2.44-9.21Z"/>
        <path class="cls-2" d="M46.93,59.5h-29.86c-3.22,0-4.64-1.87-4.4-7.35l3.89-35.48c.04-1.04,1.02-1.87,2.18-1.87h26.54c1.16,0,2.13.84,2.18,1.87l3.89,35.48c.24,5.48-1.19,7.35-4.4,7.35Z"/>
        <g>
          <path class="cls-7" d="M48.79,54.79H15.21c-1.46,0-2.6-1.18-2.54-2.64l1.96-45.54c.05-1.17,1.15-2.11,2.45-2.11h29.86c1.3,0,2.4.94,2.45,2.11l1.96,45.54c.06,1.45-1.07,2.64-2.54,2.64Z"/>
          <path class="cls-5" d="M44.17,17.48h-24.33c-.9,0-1.6-.67-1.57-1.48l.19-5.83c.03-.79.76-1.43,1.64-1.43h23.82c.88,0,1.61.64,1.64,1.43l.19,5.83c.03.82-.68,1.48-1.57,1.48Z"/>
          <g>
            <path class="cls-8" d="M24.37,24.67c-.03,1.49-1.35,2.71-2.96,2.71s-2.87-1.22-2.82-2.71,1.37-2.68,2.95-2.68,2.85,1.2,2.82,2.68Z"/>
            <path class="cls-8" d="M31.38,24.67c0,1.49-1.31,2.71-2.91,2.71s-2.89-1.22-2.87-2.71,1.33-2.68,2.91-2.68,2.87,1.2,2.87,2.68Z"/>
            <path class="cls-8" d="M38.39,24.67c.02,1.49-1.26,2.71-2.87,2.71s-2.91-1.22-2.91-2.71,1.28-2.68,2.87-2.68,2.89,1.2,2.91,2.68Z"/>
            <path class="cls-8" d="M45.41,24.67c.05,1.49-1.22,2.71-2.82,2.71s-2.93-1.22-2.96-2.71c-.03-1.48,1.24-2.68,2.82-2.68s2.91,1.2,2.95,2.68Z"/>
            <path class="cls-8" d="M24.24,31.72c-.03,1.54-1.37,2.8-3.01,2.8s-2.92-1.26-2.87-2.8,1.39-2.77,3.01-2.77,2.89,1.24,2.87,2.77Z"/>
            <path class="cls-8" d="M31.37,31.72c0,1.54-1.33,2.8-2.96,2.8s-2.94-1.26-2.91-2.8c.02-1.53,1.35-2.77,2.96-2.77s2.92,1.24,2.91,2.77Z"/>
            <path class="cls-8" d="M38.5,31.72c.02,1.54-1.28,2.8-2.91,2.8s-2.96-1.26-2.96-2.8,1.3-2.77,2.91-2.77,2.94,1.24,2.96,2.77Z"/>
            <path class="cls-8" d="M45.63,31.72c.05,1.54-1.23,2.8-2.87,2.8s-2.98-1.26-3.01-2.8c-.03-1.53,1.26-2.77,2.87-2.77s2.96,1.24,3.01,2.77Z"/>
            <path class="cls-8" d="M24.11,39c-.03,1.6-1.4,2.9-3.06,2.9s-2.96-1.3-2.91-2.9c.05-1.59,1.42-2.86,3.06-2.86s2.94,1.28,2.91,2.86Z"/>
            <path class="cls-8" d="M31.36,39c0,1.6-1.35,2.9-3.01,2.9s-2.99-1.3-2.96-2.9,1.37-2.86,3.01-2.86,2.96,1.28,2.96,2.86Z"/>
            <path class="cls-8" d="M38.61,39c.02,1.6-1.3,2.9-2.96,2.9s-3.01-1.3-3.01-2.9,1.32-2.86,2.96-2.86,2.99,1.28,3.01,2.86Z"/>
            <path class="cls-8" d="M45.86,39c.05,1.6-1.25,2.9-2.91,2.9s-3.03-1.3-3.06-2.9c-.03-1.59,1.28-2.86,2.91-2.86s3.01,1.28,3.06,2.86Z"/>
            <path class="cls-8" d="M23.97,46.54c-.03,1.65-1.42,3-3.11,3s-3.02-1.35-2.96-3,1.44-2.96,3.11-2.96,2.99,1.32,2.96,2.96Z"/>
            <path class="cls-8" d="M31.35,46.54c0,1.65-1.37,3-3.06,3s-3.04-1.35-3.01-3,1.4-2.96,3.06-2.96,3.02,1.32,3.01,2.96Z"/>
            <path class="cls-6" d="M38.73,46.54c.03,1.65-1.32,3-3.01,3s-3.06-1.35-3.06-3c0-1.64,1.35-2.96,3.01-2.96s3.04,1.32,3.06,2.96Z"/>
            <path class="cls-6" d="M46.1,46.54c.05,1.65-1.27,3-2.96,3s-3.08-1.35-3.11-3c-.03-1.64,1.3-2.96,2.96-2.96s3.06,1.32,3.11,2.96Z"/>
          </g>
          <g>
            <path class="cls-1" d="M23.89,10.35h-2.25c-.77,0-1.41.57-1.43,1.26l-.11,3.65c0,.31.26.55.59.55s.61-.25.62-.55l.04-1.65h1.35l1.39,1.96c.11.16.3.25.5.25.12,0,.23-.03.34-.09.28-.17.36-.51.18-.77l-.96-1.34h.48c.33,0,.61-.25.61-.55l.02-1.45c.01-.7-.61-1.26-1.37-1.26ZM21.41,11.61c0-.1.09-.18.2-.18h2.26c.11,0,.2.08.2.18l-.02.91h-2.67l.02-.91Z"/>
            <path class="cls-1" d="M30.85,10.35c-.33,0-.6.24-.6.54v1.63h-2.67l.02-1.63c0-.3-.26-.54-.59-.54s-.6.24-.61.54l-.06,4.37c0,.31.26.55.6.55s.61-.25.61-.55l.02-1.65h2.67v1.65c0,.31.26.55.6.55s.61-.25.61-.55v-4.37c0-.3-.26-.54-.59-.54Z"/>
            <path class="cls-1" d="M36.21,10.35h-2.25c-.77,0-1.39.57-1.39,1.26v2.91c0,.71.64,1.29,1.42,1.29h2.28c.78,0,1.41-.58,1.4-1.29l-.04-2.91c0-.7-.64-1.26-1.41-1.26ZM36.45,14.52c0,.1-.09.18-.2.18h-2.28c-.11,0-.2-.08-.2-.18v-2.91c-.01-.1.08-.18.19-.18h2.26c.11,0,.2.08.2.18l.03,2.91Z"/>
            <path class="cls-1" d="M43.22,12.51h-3.27l-.02-.91c0-.1.09-.18.2-.18h2.26c.11,0,.2.08.2.18,0,.3.28.54.61.54s.59-.24.58-.54c-.02-.7-.66-1.26-1.43-1.26h-2.25c-.77,0-1.39.57-1.37,1.26l.02,1.45c0,.3.28.55.61.55h3.28l.02.92c0,.1-.09.18-.2.18h-2.28c-.11,0-.2-.08-.2-.18,0-.3-.28-.55-.61-.55s-.6.25-.59.55c.01.71.66,1.29,1.43,1.29h2.28c.78,0,1.4-.58,1.38-1.29l-.04-1.46c0-.3-.28-.55-.62-.55Z"/>
          </g>
          <polygon class="cls-6" points="35.66 43.58 42.99 43.58 43.14 49.54 35.71 49.54 35.66 43.58"/>
        </g>
      </g>
    </g>
  </g>
</svg>