<?xml version="1.0" encoding="UTF-8"?>
<svg id="Layer_2" data-name="Layer 2" xmlns="http://www.w3.org/2000/svg" viewBox="0 0 64 64">
  <defs>
    <style>
      .cls-1, .cls-2 {
        fill: #1a1a1a;
        stroke-width: 0px;
      }

      .cls-2 {
        opacity: 0;
      }
    </style>
  </defs>
  <g id="Exports_1" data-name="Exports 1">
    <g>
      <rect class="cls-2" width="64" height="64"/>
      <path class="cls-1" d="M51.33,52.15l-1.96-45.54c-.05-1.17-1.15-2.11-2.45-2.11h-29.86c-1.3,0-2.4.94-2.45,2.11l-1.96,45.54c-.24,5.48,1.19,7.35,4.4,7.35h29.86c3.22,0,4.64-1.87,4.4-7.35ZM42.63,28.95c1.61,0,2.96,1.24,3.01,2.77.05,1.54-1.23,2.8-2.87,2.8s-2.98-1.26-3.01-2.8c-.03-1.53,1.26-2.77,2.87-2.77ZM39.63,24.67c-.03-1.48,1.24-2.68,2.82-2.68s2.91,1.2,2.95,2.68c.05,1.49-1.22,2.71-2.82,2.71s-2.93-1.22-2.96-2.71ZM42.81,36.14c1.64,0,3.01,1.28,3.06,2.86.05,1.6-1.25,2.9-2.91,2.9s-3.03-1.3-3.06-2.9c-.03-1.59,1.28-2.86,2.91-2.86ZM18.45,10.17c.03-.79.76-1.43,1.64-1.43h23.82c.88,0,1.61.64,1.64,1.43l.19,5.83c.03.82-.68,1.48-1.57,1.48h-24.33c-.9,0-1.6-.67-1.57-1.48l.19-5.83ZM20.86,49.54c-1.69,0-3.02-1.35-2.96-3,.05-1.64,1.44-2.96,3.11-2.96s2.99,1.32,2.96,2.96c-.03,1.65-1.42,3-3.11,3ZM21.05,41.9c-1.66,0-2.96-1.3-2.91-2.9.05-1.59,1.42-2.86,3.06-2.86s2.94,1.28,2.91,2.86c-.03,1.6-1.4,2.9-3.06,2.9ZM21.23,34.52c-1.63,0-2.92-1.26-2.87-2.8.05-1.53,1.39-2.77,3.01-2.77s2.89,1.24,2.87,2.77c-.03,1.54-1.37,2.8-3.01,2.8ZM21.41,27.38c-1.61,0-2.87-1.22-2.82-2.71.05-1.48,1.37-2.68,2.95-2.68s2.85,1.2,2.82,2.68c-.03,1.49-1.35,2.71-2.96,2.71ZM28.29,49.54c-1.69,0-3.04-1.35-3.01-3,.02-1.64,1.4-2.96,3.06-2.96s3.02,1.32,3.01,2.96c0,1.65-1.37,3-3.06,3ZM28.35,41.9c-1.66,0-2.99-1.3-2.96-2.9.02-1.59,1.37-2.86,3.01-2.86s2.96,1.28,2.96,2.86c0,1.6-1.35,2.9-3.01,2.9ZM28.41,34.52c-1.63,0-2.94-1.26-2.91-2.8.02-1.53,1.35-2.77,2.96-2.77s2.92,1.24,2.91,2.77c0,1.54-1.33,2.8-2.96,2.8ZM28.47,27.38c-1.61,0-2.89-1.22-2.87-2.71.02-1.48,1.33-2.68,2.91-2.68s2.87,1.2,2.87,2.68c0,1.49-1.31,2.71-2.91,2.71ZM35.48,21.99c1.58,0,2.89,1.2,2.91,2.68.02,1.49-1.26,2.71-2.87,2.71s-2.91-1.22-2.91-2.71c0-1.48,1.28-2.68,2.87-2.68ZM35.54,28.95c1.61,0,2.94,1.24,2.96,2.77.02,1.54-1.28,2.8-2.91,2.8s-2.96-1.26-2.96-2.8c0-1.53,1.3-2.77,2.91-2.77ZM35.6,36.14c1.64,0,2.99,1.28,3.01,2.86.02,1.6-1.3,2.9-2.96,2.9s-3.01-1.3-3.01-2.9c0-1.59,1.32-2.86,2.96-2.86ZM43.14,49.54h-7.43c-1.69,0-3.06-1.35-3.06-3,0-1.64,1.35-2.96,3.01-2.96h7.33c1.67,0,3.06,1.32,3.11,2.96.05,1.65-1.27,3-2.96,3Z"/>
    </g>
  </g>
</svg>