<svg xmlns="http://www.w3.org/2000/svg" viewBox="0 0 64 64"><defs><style>.cls-1{fill:#1a1a1a;opacity:0;}.cls-2{fill:#fff;}</style></defs><title>Chevrons Left Flat White</title><g id="Layer_2" data-name="Layer 2"><g id="Layer_3" data-name="Layer 3"><rect class="cls-1" width="64" height="64"/><path class="cls-2" d="M15.58,51.78,7.6,34.7a6.38,6.38,0,0,1,0-5.4l8-17.08a3.58,3.58,0,0,1,3.59-2.09l13.21,1.1A2.08,2.08,0,0,1,34,14.1L26.2,32,34,49.9a2.08,2.08,0,0,1-1.59,2.87l-13.21,1.1A3.58,3.58,0,0,1,15.58,51.78Z"/><path class="cls-2" d="M41.91,49.78,35.48,34.42a6.34,6.34,0,0,1,0-4.84l6.43-15.36a2.9,2.9,0,0,1,2.9-1.91l10.76.9a1.9,1.9,0,0,1,1.3,2.59L50.52,32l6.35,16.2a1.9,1.9,0,0,1-1.3,2.59l-10.76.9A2.9,2.9,0,0,1,41.91,49.78Z"/></g></g></svg>