<svg xmlns="http://www.w3.org/2000/svg" viewBox="0 0 64 64"><defs><style>.cls-1{fill:#1a1a1a;opacity:0;}.cls-2{fill:#fdaf18;}.cls-3{fill:#fec92b;}.cls-4{fill:#fee854;}</style></defs><title>Chevrons Left</title><g id="Layer_2" data-name="Layer 2"><g id="Layer_3" data-name="Layer 3"><rect class="cls-1" width="64" height="64"/><path class="cls-2" d="M13.09,51.78,5.1,34.7a6.38,6.38,0,0,1,0-5.4l8-17.08a3.56,3.56,0,0,1,3.58-2.09l13.22,1.1a2.07,2.07,0,0,1,1.58,2.87L23.7,32l7.77,17.9a2.07,2.07,0,0,1-1.58,2.87l-13.22,1.1A3.56,3.56,0,0,1,13.09,51.78Z"/><path class="cls-2" d="M44.41,49.78,38,34.42a6.34,6.34,0,0,1,0-4.84l6.43-15.36a2.91,2.91,0,0,1,2.9-1.91l10.76.9a1.89,1.89,0,0,1,1.3,2.59L53,32l6.35,16.2a1.89,1.89,0,0,1-1.3,2.59l-10.76.9A2.91,2.91,0,0,1,44.41,49.78Z"/><path class="cls-3" d="M5.1,29.3l4.65-9.95a66.09,66.09,0,0,1,21.07-3.77L23.7,32l7.12,16.42A66.09,66.09,0,0,1,9.75,44.65L5.1,34.7A6.38,6.38,0,0,1,5.1,29.3Z"/><path class="cls-3" d="M38,29.58l5.58-13.32a57.22,57.22,0,0,1,14.18,3.68L53,32l4.72,12.06a57.22,57.22,0,0,1-14.18,3.68L38,34.42A6.34,6.34,0,0,1,38,29.58Z"/><path class="cls-4" d="M14.45,16.68c0,1.94,2.61,3.1,5.86,3.13s5.89-1.09,5.91-3-2.61-3.55-5.86-3.57S14.47,14.73,14.45,16.68Z"/></g></g></svg>