<?xml version="1.0" encoding="UTF-8"?>
<svg id="Layer_2" data-name="Layer 2" xmlns="http://www.w3.org/2000/svg" viewBox="0 0 64 64">
  <defs>
    <style>
      .cls-1 {
        fill: #fff;
      }

      .cls-2 {
        fill: #cef;
      }

      .cls-3 {
        fill: #1a1a1a;
        opacity: 0;
      }

      .cls-4 {
        fill: #96dbff;
      }
    </style>
  </defs>
  <g id="Layer_3" data-name="Layer 3">
    <g>
      <rect class="cls-3" width="64" height="64"/>
      <g>
        <path class="cls-2" d="M8.65,34.92h0c1.37-.46,2.84-.51,4.24-.14l6.42,1.72,7.81-4.51-7.81-4.51-6.42,1.72c-1.4,.37-2.87,.33-4.24-.14h0c-.98-.33-1.31-1.56-.63-2.34,.95-1.09,2.21-1.86,3.6-2.24l1.71-.46-2.29-1.32c-1.25-.72-2.26-1.8-2.9-3.09-.46-.93,.17-2.03,1.21-2.1,1.44-.09,2.88,.24,4.13,.97l2.35,1.36-.48-1.8c-.37-1.4-.33-2.87,.14-4.24h0c.33-.98,1.56-1.31,2.34-.63h0c1.09,.95,1.86,2.21,2.24,3.6l1.74,6.51,7.75,4.48v-8.95s-4.77-4.77-4.77-4.77c-1.02-1.02-1.72-2.32-2-3.74h0c-.2-1.02,.69-1.92,1.71-1.71h0c1.42,.28,2.72,.98,3.74,2l1.32,1.32v-2.71c0-1.45,.43-2.86,1.23-4.06,.58-.86,1.85-.86,2.42,0,.8,1.2,1.23,2.62,1.23,4.06v2.65s1.25-1.25,1.25-1.25c1.02-1.02,2.32-1.72,3.74-2,1.02-.2,1.92,.69,1.71,1.71h0c-.28,1.42-.98,2.72-2,3.74l-4.7,4.7v9.02s7.75-4.48,7.75-4.48l1.74-6.51c.37-1.4,1.15-2.65,2.24-3.6h0c.78-.69,2.01-.36,2.34,.63h0c.46,1.37,.51,2.84,.14,4.24l-.48,1.8,2.35-1.36c1.25-.72,2.69-1.06,4.13-.97,1.04,.07,1.67,1.17,1.21,2.1-.64,1.3-1.65,2.37-2.9,3.09l-2.29,1.32,1.71,.46c1.4,.37,2.65,1.15,3.6,2.24,.69,.78,.36,2.01-.63,2.34h0c-1.37,.46-2.84,.51-4.24,.14l-6.42-1.72-7.81,4.51,7.81,4.51,6.42-1.72c1.4-.37,2.87-.33,4.24,.14h0c.98,.33,1.31,1.56,.63,2.34h0c-.95,1.09-2.21,1.86-3.6,2.24l-1.71,.46,2.29,1.32c1.25,.72,2.26,1.8,2.9,3.09,.46,.93-.17,2.03-1.21,2.1-1.44,.09-2.88-.24-4.13-.97l-2.35-1.36,.48,1.8c.37,1.4,.33,2.87-.14,4.24h0c-.33,.98-1.56,1.31-2.34,.63h0c-1.09-.95-1.86-2.21-2.24-3.6l-1.74-6.51-7.75-4.48v8.95s4.77,4.77,4.77,4.77c1.02,1.02,1.72,2.32,2,3.74h0c.2,1.02-.69,1.92-1.71,1.71h0c-1.42-.28-2.72-.98-3.74-2l-1.32-1.32v2.71c0,1.45-.43,2.86-1.23,4.06-.58,.86-1.85,.86-2.42,0-.8-1.2-1.23-2.62-1.23-4.06v-2.65s-1.25,1.25-1.25,1.25c-1.02,1.02-2.32,1.72-3.74,2h0c-1.02,.2-1.92-.69-1.71-1.71h0c.28-1.42,.98-2.72,2-3.74l4.7-4.7v-9.02s-7.75,4.48-7.75,4.48l-1.74,6.51c-.37,1.4-1.15,2.65-2.24,3.6h0c-.78,.69-2.01,.36-2.34-.63h0c-.46-1.37-.51-2.84-.14-4.24l.48-1.8-2.35,1.36c-1.25,.72-2.69,1.06-4.13,.97-1.04-.07-1.67-1.17-1.21-2.1,.64-1.3,1.65-2.37,2.9-3.09l2.29-1.32-1.71-.46c-1.4-.37-2.65-1.15-3.6-2.24h0c-.69-.78-.36-2.01,.63-2.34Z"/>
        <g>
          <path class="cls-4" d="M9.35,46.47c1.44,.09,2.88-.24,4.13-.97l2.35-1.36-.48,1.8c-.37,1.4-.33,2.87,.14,4.24,.33,.98,1.56,1.31,2.34,.63h0c1.09-.95,1.86-2.21,2.24-3.6l1.74-6.51,7.75-4.48v9.02l-4.7,4.7c-1.02,1.02-1.72,2.32-2,3.74h0c-.2,1.02,.69,1.92,1.71,1.71,1.42-.28,2.72-.98,3.74-2l1.25-1.25v2.65c0,1.45,.43,2.86,1.23,4.06,.58,.86,1.85,.86,2.42,0,.8-1.2,1.23-2.62,1.23-4.06v-2.71l1.32,1.32c1.02,1.02,2.32,1.72,3.74,2h0c1.02,.2,1.92-.69,1.71-1.71h0c-.28-1.42-.98-2.72-2-3.74l-4.77-4.77v-8.95l7.75,4.48,1.74,6.51c.37,1.4,1.15,2.65,2.24,3.6h0c.78,.69,2.01,.36,2.34-.63,.46-1.37,.51-2.84,.14-4.24l-.48-1.8,2.35,1.36c1.25,.72,2.69,1.06,4.13,.97,.47-.03,.85-.28,1.09-.62l-23.74-13.86-23.74,13.86c.24,.34,.62,.59,1.09,.62Z"/>
          <path class="cls-1" d="M55.74,18.14c-.24-.34-.62-.59-1.09-.62-1.44-.09-2.88,.24-4.13,.97l-2.35,1.36,.48-1.8c.37-1.4,.33-2.87-.14-4.24-.33-.98-1.56-1.31-2.34-.63h0c-1.09,.95-1.86,2.21-2.24,3.6l-1.74,6.51-7.75,4.48v-9.02l4.7-4.7c1.02-1.02,1.72-2.32,2-3.74,.2-1.02-.69-1.92-1.71-1.71-1.42,.28-2.72,.98-3.74,2l-1.25,1.25v-2.65c0-1.45-.43-2.86-1.23-4.06-.58-.86-1.85-.86-2.42,0-.8,1.2-1.23,2.62-1.23,4.06v2.71l-1.32-1.32c-1.02-1.02-2.32-1.72-3.74-2h0c-1.02-.2-1.92,.69-1.71,1.71,.28,1.42,.98,2.72,2,3.74l4.77,4.77v8.95l-7.75-4.48-1.74-6.51c-.37-1.4-1.15-2.65-2.24-3.6-.78-.69-2.01-.36-2.34,.63-.46,1.37-.51,2.84-.14,4.24l.48,1.8-2.35-1.36c-1.25-.72-2.69-1.06-4.13-.97-.47,.03-.85,.28-1.09,.62l23.74,13.86,23.74-13.86Z"/>
        </g>
      </g>
    </g>
  </g>
</svg>