<svg xmlns="http://www.w3.org/2000/svg" viewBox="0 0 64 64"><defs><style>.cls-1,.cls-2{fill:#1a1a1a;}.cls-1{opacity:0;}</style></defs><title>Sun Black</title><g id="Layer_2" data-name="Layer 2"><g id="Layer_2-2" data-name="Layer 2"><rect class="cls-1" width="64" height="64"/><path class="cls-2" d="M59.88,31,49.79,25.44a1.19,1.19,0,0,1-.57-1.38l3.23-11A1.19,1.19,0,0,0,51,11.55l-11,3.23a1.19,1.19,0,0,1-1.38-.57L33.05,4.12a1.2,1.2,0,0,0-2.1,0L25.44,14.21a1.19,1.19,0,0,1-1.38.57L13,11.55A1.19,1.19,0,0,0,11.55,13l3.23,11a1.19,1.19,0,0,1-.57,1.38L4.12,31a1.2,1.2,0,0,0,0,2.1l10.09,5.51a1.19,1.19,0,0,1,.57,1.38L11.55,51A1.19,1.19,0,0,0,13,52.45l11-3.23a1.19,1.19,0,0,1,1.38.57L31,59.88a1.2,1.2,0,0,0,2.1,0l5.51-10.09a1.19,1.19,0,0,1,1.38-.57l11,3.23A1.19,1.19,0,0,0,52.45,51l-3.23-11a1.19,1.19,0,0,1,.57-1.38l10.09-5.51A1.2,1.2,0,0,0,59.88,31Z"/></g></g></svg>