<svg xmlns="http://www.w3.org/2000/svg" viewBox="0 0 64 64"><defs><style>.cls-1,.cls-2{fill:#1a1a1a;}.cls-1{opacity:0;}.cls-3{fill:#fdbc0d;}.cls-4{fill:#fee854;}.cls-5{fill:#fff;}</style></defs><title>Sun Outline</title><g id="Layer_2" data-name="Layer 2"><g id="Layer_2-2" data-name="Layer 2"><rect class="cls-1" width="64" height="64"/><path class="cls-2" d="M32,63a5,5,0,0,1-4.34-2.57l-4.23-7.74L15,55.17a4.95,4.95,0,0,1-5.36-1.79A4.93,4.93,0,0,1,8.83,49l2.48-8.45L3.58,36.34a4.94,4.94,0,0,1,0-8.68l7.73-4.23L8.83,15a4.91,4.91,0,0,1,.78-4.35A4.95,4.95,0,0,1,15,8.83l8.46,2.48,4.22-7.73a5,5,0,0,1,8.69,0l4.23,7.74L49,8.83a4.95,4.95,0,0,1,5.36,1.79A4.93,4.93,0,0,1,55.17,15l-2.48,8.45,7.73,4.23a4.94,4.94,0,0,1,0,8.68l-7.73,4.23L55.17,49a4.91,4.91,0,0,1-.78,4.35,5,5,0,0,1-4,2h0a5,5,0,0,1-1.39-.2l-8.46-2.48-4.22,7.73A5,5,0,0,1,32,63Z"/><path class="cls-3" d="M49,38.26,58.59,33a1.14,1.14,0,0,0,0-2L49,25.74a1.13,1.13,0,0,1-.54-1.32L51.51,13.9a1.14,1.14,0,0,0-1.41-1.41L39.58,15.57A1.13,1.13,0,0,1,38.26,15L33,5.41a1.14,1.14,0,0,0-2,0L25.74,15a1.13,1.13,0,0,1-1.32.54L13.9,12.49a1.14,1.14,0,0,0-1.41,1.41l3.08,10.52A1.13,1.13,0,0,1,15,25.74L5.41,31a1.14,1.14,0,0,0,0,2L15,38.26a1.13,1.13,0,0,1,.54,1.32L12.49,50.1a1.14,1.14,0,0,0,1.41,1.41l10.52-3.08a1.13,1.13,0,0,1,1.32.54L31,58.59a1.14,1.14,0,0,0,2,0L38.26,49a1.13,1.13,0,0,1,1.32-.54L50.1,51.51a1.14,1.14,0,0,0,1.41-1.41L48.43,39.58A1.13,1.13,0,0,1,49,38.26Z"/><circle class="cls-4" cx="32" cy="32" r="16.5"/><path class="cls-5" d="M30.14,21.22c1.62,1.61.24,4.23-2.23,6.69s-5.08,3.85-6.69,2.23-.92-4.91,1.54-7.38S28.53,19.61,30.14,21.22Z"/></g></g></svg>