<?xml version="1.0" encoding="UTF-8"?>
<svg id="Layer_2" data-name="Layer 2" xmlns="http://www.w3.org/2000/svg" viewBox="0 0 64 64">
  <defs>
    <style>
      .cls-1 {
        fill: #fff;
      }

      .cls-2 {
        fill: #fec92b;
      }

      .cls-3 {
        fill: #cef;
      }

      .cls-4 {
        fill: #37b9ff;
      }

      .cls-5 {
        opacity: 0;
      }

      .cls-5, .cls-6 {
        fill: #1a1a1a;
      }

      .cls-7 {
        fill: #e62e49;
      }
    </style>
  </defs>
  <g id="Outlines">
    <g id="Fight_Cloud_Outline" data-name="Fight Cloud Outline">
      <rect class="cls-5" width="64" height="64"/>
      <g>
        <path class="cls-6" d="M63.26,30.41l-.79-4.37c-.42-2.32-2.22-4.09-4.47-4.51-.21-.6-.45-1.19-.72-1.77-.24-.5-.52-.99-.86-1.54-.08-.14-.17-.27-.26-.4-.06-.09-.12-.17-.18-.26,.68-.58,1.15-1.29,1.42-2.12,.68-2.08-.14-4.27-2.48-6.65,.5-3.31-.13-5.56-1.9-6.84-.81-.59-1.81-.9-2.88-.9-1.37,0-2.9,.57-4.21,1.22-1.31-.65-2.85-1.22-4.22-1.22-1.07,0-2.07,.31-2.88,.9-.11,.08-.21,.16-.31,.24-2.42-1.1-5.06-1.68-7.78-1.68s-5.54,.62-8.09,1.85c-1.85,.89-3.53,2.08-4.98,3.49-1.07-1.99-3.14-3.23-5.41-3.23-1.71,0-3.35,.72-4.51,1.98L3.74,8.94c-1.35,1.46-1.91,3.5-1.49,5.45,.22,1.01,.68,1.93,1.34,2.7-1.67,.95-2.83,2.74-2.86,4.78l-.08,4.43c-.03,1.52,.54,2.94,1.6,4.02,.82,.84,1.89,1.39,3.03,1.59,.06,.14,.13,.28,.19,.42,.53,1.1,1.17,2.12,1.92,3.06-.29,.74-.52,1.51-.69,2.3-.04,.15-.08,.31-.11,.47-.04,.22-.06,.44-.09,.65,0,.06-.03,.21-.03,.27-.05,.5-.07,1.02-.06,1.61v.28c.03,.53,.08,1.06,.16,1.54l.06,.33c.1,.56,.23,1.08,.38,1.58,.03,.08,.05,.17,.07,.22,.2,.59,.41,1.13,.66,1.66,2.25,4.67,7.05,7.69,12.23,7.69,1.1,0,2.18-.13,3.23-.39,.58,.52,1.19,.99,1.84,1.42,0,.43,.07,.87,.22,1.33,.61,1.87,2.22,3.06,4.9,3.58,1.33,2.38,2.95,3.55,4.92,3.55s3.59-1.17,4.92-3.55c2.68-.53,4.29-1.71,4.9-3.58,.35-1.07,.27-2.07-.03-2.96,1.02-.95,1.91-2.03,2.66-3.22,.02,0,.04,0,.07,0,2.04,0,4.02-.45,5.87-1.34,5.11-2.46,7.98-7.65,7.67-12.98,.33-.25,.63-.54,.91-.87,1.07-1.28,1.51-2.95,1.21-4.58Z"/>
        <g>
          <path class="cls-1" d="M12.32,34.71c-1.33-1.08-2.44-2.46-3.23-4.1-2.88-5.99-.36-13.18,5.63-16.06,.78-.38,1.58-.66,2.39-.85,1.33-3.27,3.83-6.08,7.26-7.73,7.33-3.53,16.14-.44,19.67,6.89,.31,.65,.57,1.32,.78,1.99,3.72,.63,7.08,2.99,8.84,6.65,1.32,2.74,1.5,5.72,.75,8.43,.71,.73,1.33,1.58,1.79,2.54,2.29,4.76,.29,10.48-4.47,12.77-2.11,1.02-4.41,1.18-6.52,.64-1.05,2.82-3.14,5.25-6.06,6.65-5.26,2.53-11.44,.9-14.82-3.59-.07,.04-.14,.08-.21,.11-4.76,2.29-10.48,.29-12.77-4.47-1.6-3.32-1.1-7.11,.96-9.87Z"/>
          <path class="cls-3" d="M48.19,15.94c2.31,1.15,4.28,3.05,5.48,5.55,1.32,2.74,1.5,5.72,.75,8.43,.71,.73,1.33,1.58,1.79,2.54,2.29,4.76,.29,10.48-4.47,12.77-2.11,1.02-4.41,1.18-6.52,.64-1.05,2.82-3.14,5.25-6.06,6.65-5.26,2.53-11.44,.9-14.82-3.59-.07,.04-.14,.08-.21,.11-4.76,2.29-10.48,.29-12.77-4.47-.89-1.86-1.13-3.86-.81-5.74,1.8,3.47,6.76,10.03,16.35,2.31,0,0,7.53,5.24,14.38-.82,6.85-6.06,2.07-12.55,2.07-12.55,0,0,10.2-4.11,4.85-11.85Z"/>
          <path class="cls-3" d="M26.52,38.28c2.4-.36,4.49-1.71,6.18-3.77,.35-.43,1.04-.1,.93,.45-.91,4.3-3.26,7.44-6.42,7.91s-6.32-1.83-8.46-5.67c-.27-.49,.29-1.01,.76-.7,2.22,1.48,4.62,2.15,7.01,1.79Z"/>
          <path class="cls-2" d="M45.91,6.87s3.73-2.43,4.75-1.69-.14,5.04-.14,5.04c0,0,3.46,2.79,3.07,3.99s-4.83,1.42-4.83,1.42c0,0-1.59,4.16-2.85,4.16s-2.85-4.16-2.85-4.16c0,0-4.44-.23-4.83-1.42-.39-1.2,3.07-3.99,3.07-3.99,0,0-1.16-4.3-.14-5.04s4.75,1.69,4.75,1.69Z"/>
          <path class="cls-7" d="M35.09,49.38s2.92-1.9,3.72-1.32-.11,3.94-.11,3.94c0,0,2.71,2.19,2.41,3.13s-3.78,1.12-3.78,1.12c0,0-1.24,3.25-2.23,3.25s-2.23-3.25-2.23-3.25c0,0-3.48-.18-3.78-1.12s2.41-3.13,2.41-3.13c0,0-.91-3.36-.11-3.94s3.72,1.32,3.72,1.32Z"/>
          <path class="cls-4" d="M10.68,7.31l-4,4.35c-1,1.09-.62,2.83,.74,3.41l8.09,3.44c1.85,.78,3.66-1.18,2.72-2.96l-4.09-7.78c-.69-1.31-2.46-1.54-3.46-.45Z"/>
          <path class="cls-4" d="M4.73,21.94l-.08,4.44c-.02,1.11,1.06,1.9,2.11,1.55l6.25-2.11c1.43-.48,1.46-2.49,.05-3.02l-6.17-2.33c-1.04-.39-2.15,.36-2.17,1.47Z"/>
          <path class="cls-4" d="M59.32,31.11l-.79-4.37c-.2-1.09-1.41-1.66-2.37-1.11l-5.72,3.28c-1.31,.75-.95,2.72,.53,2.97l6.51,1.08c1.09,.18,2.04-.77,1.84-1.86Z"/>
        </g>
      </g>
    </g>
  </g>
</svg>