<?xml version="1.0" encoding="UTF-8"?>
<svg id="Layer_2" data-name="Layer 2" xmlns="http://www.w3.org/2000/svg" viewBox="0 0 64 64">
  <defs>
    <style>
      .cls-1, .cls-2 {
        fill: #fff;
      }

      .cls-2 {
        opacity: 0;
      }

      .cls-3 {
        fill: #e6e6e6;
      }
    </style>
  </defs>
  <g id="White">
    <g id="Fight_Cloud_Flat_White" data-name="Fight Cloud Flat White">
      <rect class="cls-2" width="64" height="64"/>
      <g>
        <path class="cls-1" d="M63.26,30.41l-.79-4.37c-.42-2.32-2.22-4.09-4.47-4.51-.21-.6-.45-1.19-.72-1.77-.24-.5-.52-.99-.86-1.54-.08-.14-.17-.27-.26-.4-.06-.09-.12-.17-.18-.26,.68-.58,1.15-1.29,1.42-2.12,.68-2.08-.14-4.27-2.48-6.65,.5-3.31-.13-5.56-1.9-6.84-.81-.59-1.81-.9-2.88-.9-1.37,0-2.9,.57-4.21,1.22-1.31-.65-2.85-1.22-4.22-1.22-1.07,0-2.07,.31-2.88,.9-.11,.08-.21,.16-.31,.24-2.42-1.1-5.06-1.68-7.78-1.68s-5.54,.62-8.09,1.85c-1.85,.89-3.53,2.08-4.98,3.49-1.07-1.99-3.14-3.23-5.41-3.23-1.71,0-3.35,.72-4.51,1.98L3.74,8.94c-1.35,1.46-1.91,3.5-1.49,5.45,.22,1.01,.68,1.93,1.34,2.7-1.67,.95-2.83,2.74-2.86,4.78l-.08,4.43c-.03,1.52,.54,2.94,1.6,4.02,.82,.84,1.89,1.39,3.03,1.59,.06,.14,.13,.28,.19,.42,.53,1.1,1.17,2.12,1.92,3.06-.29,.74-.52,1.51-.69,2.3-.04,.15-.08,.31-.11,.47-.04,.22-.06,.44-.09,.65,0,.06-.03,.21-.03,.27-.05,.5-.07,1.02-.06,1.61v.28c.03,.53,.08,1.06,.16,1.54l.06,.33c.1,.56,.23,1.08,.38,1.58,.03,.08,.05,.17,.07,.22,.2,.59,.41,1.13,.66,1.66,2.25,4.67,7.05,7.69,12.23,7.69,1.1,0,2.18-.13,3.23-.39,.58,.52,1.19,.99,1.84,1.42,0,.43,.07,.87,.22,1.33,.61,1.87,2.22,3.06,4.9,3.58,1.33,2.38,2.95,3.55,4.92,3.55s3.59-1.17,4.92-3.55c2.68-.53,4.29-1.71,4.9-3.58,.35-1.07,.27-2.07-.03-2.96,1.02-.95,1.91-2.03,2.66-3.22,.02,0,.04,0,.07,0,2.04,0,4.02-.45,5.87-1.34,5.11-2.46,7.98-7.65,7.67-12.98,.33-.25,.63-.54,.91-.87,1.07-1.28,1.51-2.95,1.21-4.58ZM6.68,11.65l4-4.35c.43-.47,1-.69,1.57-.69,.75,0,1.5,.4,1.89,1.14l4.09,7.78c.79,1.5-.38,3.14-1.88,3.14-.28,0-.56-.06-.85-.18l-8.09-3.44c-1.36-.58-1.74-2.33-.74-3.41Zm.09,16.27c-.17,.06-.35,.09-.52,.09-.86,0-1.62-.71-1.6-1.63l.08-4.44c.02-.91,.76-1.58,1.6-1.58,.19,0,.38,.03,.57,.1l6.17,2.33c1.41,.53,1.37,2.54-.05,3.02l-6.25,2.11Zm34.34,27.2c-.3,.94-3.78,1.12-3.78,1.12,0,0-1.24,3.25-2.23,3.25s-2.23-3.25-2.23-3.25c0,0-3.48-.18-3.78-1.12-.3-.94,2.41-3.13,2.41-3.13,0,0-.91-3.36-.11-3.94s3.72,1.32,3.72,1.32c0,0,2.92-1.9,3.72-1.32,.8,.58-.11,3.94-.11,3.94,0,0,2.71,2.19,2.41,3.13Zm2.23-27.34s4.79,6.49-2.07,12.55c-4.61,4.07-9.52,3.03-12.24,1.92,2.23-1.19,3.87-3.87,4.6-7.3,.11-.54-.58-.88-.93-.45-1.68,2.06-3.78,3.41-6.18,3.77-2.4,.36-4.8-.31-7.01-1.79-.46-.31-1.03,.22-.76,.7,1.58,2.84,3.72,4.83,6,5.49-8.17,5.16-12.52-.61-14.19-3.82,.25-1.5,.84-2.93,1.75-4.16-1.33-1.08-2.44-2.46-3.23-4.1-.04-.09-.07-.17-.11-.26l5-1.69c1.87-.63,3.1-2.31,3.13-4.28,.02-1-.28-1.94-.81-2.71,.02,0,.04,0,.06,0,1.78,0,3.46-.96,4.39-2.5,.93-1.54,.99-3.42,.14-5.03l-1.94-3.69c1.37-1.86,3.19-3.43,5.42-4.5,4.42-2.13,9.38-1.84,13.39,.32-.04,.77,.02,1.71,.22,2.85-3.47,3.33-2.83,5.3-2.61,6,.23,.7,.87,2.67,5.63,3.32,2.09,4.33,4.17,4.33,4.9,4.33,.61,0,2.13,0,3.83-2.46-.03,4.9-6.4,7.46-6.4,7.46Zm10.25-13.58c-.39,1.2-4.83,1.42-4.83,1.42,0,0-1.59,4.16-2.85,4.16s-2.85-4.16-2.85-4.16c0,0-4.44-.23-4.83-1.42-.39-1.2,3.07-3.99,3.07-3.99,0,0-1.16-4.3-.14-5.04,.13-.1,.32-.14,.53-.14,1.41,0,4.21,1.83,4.21,1.83,0,0,2.81-1.83,4.21-1.83,.21,0,.4,.04,.53,.14,1.02,.74-.14,5.04-.14,5.04,0,0,3.46,2.79,3.07,3.99Z"/>
        <path class="cls-3" d="M59.32,31.11l-.79-4.37c-.2-1.09-1.41-1.66-2.37-1.11l-5.72,3.28c-1.31,.75-.95,2.72,.53,2.97l6.51,1.08c1.09,.18,2.04-.77,1.84-1.86Z"/>
      </g>
    </g>
  </g>
</svg>