<?xml version="1.0" encoding="UTF-8"?>
<svg id="Layer_2" data-name="Layer 2" xmlns="http://www.w3.org/2000/svg" viewBox="0 0 64 64">
  <defs>
    <style>
      .cls-1 {
        fill: #fff;
      }

      .cls-2 {
        fill: #fec92b;
      }

      .cls-3 {
        fill: #cef;
      }

      .cls-4 {
        fill: #37b9ff;
      }

      .cls-5 {
        fill: #1a1a1a;
        opacity: 0;
      }

      .cls-6 {
        fill: #e62e49;
      }
    </style>
  </defs>
  <g id="No_outline" data-name="No outline">
    <g id="Fight_Cloud" data-name="Fight Cloud">
      <rect class="cls-5" width="64" height="64"/>
      <g>
        <path class="cls-1" d="M12.32,34.71c-1.33-1.08-2.44-2.46-3.23-4.1-2.88-5.99-.36-13.18,5.63-16.06,.78-.38,1.58-.66,2.39-.85,1.33-3.27,3.83-6.08,7.26-7.73,7.33-3.53,16.14-.44,19.67,6.89,.31,.65,.57,1.32,.78,1.99,3.72,.63,7.08,2.99,8.84,6.65,1.32,2.74,1.5,5.72,.75,8.43,.71,.73,1.33,1.58,1.79,2.54,2.29,4.76,.29,10.48-4.47,12.77-2.11,1.02-4.41,1.18-6.52,.64-1.05,2.82-3.14,5.25-6.06,6.65-5.26,2.53-11.44,.9-14.82-3.59-.07,.04-.14,.08-.21,.11-4.76,2.29-10.48,.29-12.77-4.47-1.6-3.32-1.1-7.11,.96-9.87Z"/>
        <path class="cls-3" d="M48.19,15.94c2.31,1.15,4.28,3.05,5.48,5.55,1.32,2.74,1.5,5.72,.75,8.43,.71,.73,1.33,1.58,1.79,2.54,2.29,4.76,.29,10.48-4.47,12.77-2.11,1.02-4.41,1.18-6.52,.64-1.05,2.82-3.14,5.25-6.06,6.65-5.26,2.53-11.44,.9-14.82-3.59-.07,.04-.14,.08-.21,.11-4.76,2.29-10.48,.29-12.77-4.47-.89-1.86-1.13-3.86-.81-5.74,1.8,3.47,6.76,10.03,16.35,2.31,0,0,7.53,5.24,14.38-.82,6.85-6.06,2.07-12.55,2.07-12.55,0,0,10.2-4.11,4.85-11.85Z"/>
        <path class="cls-3" d="M26.52,38.28c2.4-.36,4.49-1.71,6.18-3.77,.35-.43,1.04-.1,.93,.45-.91,4.3-3.26,7.44-6.42,7.91s-6.32-1.83-8.46-5.67c-.27-.49,.29-1.01,.76-.7,2.22,1.48,4.62,2.15,7.01,1.79Z"/>
        <path class="cls-2" d="M45.91,6.87s3.73-2.43,4.75-1.69-.14,5.04-.14,5.04c0,0,3.46,2.79,3.07,3.99s-4.83,1.42-4.83,1.42c0,0-1.59,4.16-2.85,4.16s-2.85-4.16-2.85-4.16c0,0-4.44-.23-4.83-1.42-.39-1.2,3.07-3.99,3.07-3.99,0,0-1.16-4.3-.14-5.04s4.75,1.69,4.75,1.69Z"/>
        <path class="cls-6" d="M35.09,49.38s2.92-1.9,3.72-1.32-.11,3.94-.11,3.94c0,0,2.71,2.19,2.41,3.13s-3.78,1.12-3.78,1.12c0,0-1.24,3.25-2.23,3.25s-2.23-3.25-2.23-3.25c0,0-3.48-.18-3.78-1.12s2.41-3.13,2.41-3.13c0,0-.91-3.36-.11-3.94s3.72,1.32,3.72,1.32Z"/>
        <path class="cls-4" d="M10.68,7.31l-4,4.35c-1,1.09-.62,2.83,.74,3.41l8.09,3.44c1.85,.78,3.66-1.18,2.72-2.96l-4.09-7.78c-.69-1.31-2.46-1.54-3.46-.45Z"/>
        <path class="cls-4" d="M4.73,21.94l-.08,4.44c-.02,1.11,1.06,1.9,2.11,1.55l6.25-2.11c1.43-.48,1.46-2.49,.05-3.02l-6.17-2.33c-1.04-.39-2.15,.36-2.17,1.47Z"/>
        <path class="cls-4" d="M59.32,31.11l-.79-4.37c-.2-1.09-1.41-1.66-2.37-1.11l-5.72,3.28c-1.31,.75-.95,2.72,.53,2.97l6.51,1.08c1.09,.18,2.04-.77,1.84-1.86Z"/>
      </g>
    </g>
  </g>
</svg>