<?xml version="1.0" encoding="UTF-8"?>
<svg id="Layer_2" data-name="Layer 2" xmlns="http://www.w3.org/2000/svg" viewBox="0 0 64 64">
  <defs>
    <style>
      .cls-1 {
        fill: #606060;
        opacity: 0;
      }

      .cls-2 {
        fill: #1a1a1a;
      }
    </style>
  </defs>
  <g id="Black">
    <g id="Bandage_Flat_Black" data-name="Bandage Flat Black">
      <rect class="cls-1" width="64" height="64"/>
      <path class="cls-2" d="M47.05,5.15v-.03H21.24v.03c-.18-.02-.36-.03-.54-.03-6.83,0-12.37,12.04-12.37,26.88,0,0,0,5.85-3.01,12.12,0,.01-.01,.02-.02,.03-.65,1.39,.5,2.98,2.04,2.98H27.49c.39,0,.75-.19,.95-.49,4.52-6.95,4.57-14.56,4.57-14.64,0-.55,.45-1,1-1s1,.45,1,1c0,.33-.06,8.28-4.89,15.73-.57,.88-1.55,1.4-2.62,1.4H11.18c2.27,5.95,5.69,9.75,9.53,9.75,.18,0,.36-.01,.54-.03v.03h25.81v-.03c6.58-.61,11.83-12.4,11.83-26.85s-5.25-26.24-11.83-26.85Zm-.54,36.53c-2.46,0-4.45-4.33-4.45-9.68s1.99-9.68,4.45-9.68,4.45,4.33,4.45,9.68-1.99,9.68-4.45,9.68Z"/>
    </g>
  </g>
</svg>