<?xml version="1.0" encoding="UTF-8"?>
<svg id="Layer_2" data-name="Layer 2" xmlns="http://www.w3.org/2000/svg" viewBox="0 0 64 64">
  <defs>
    <style>
      .cls-1 {
        fill: #ffdfb5;
      }

      .cls-2 {
        fill: #f5b47f;
      }

      .cls-3 {
        fill: #fff2d4;
      }

      .cls-4 {
        opacity: 0;
      }

      .cls-4, .cls-5 {
        fill: #1a1a1a;
      }
    </style>
  </defs>
  <g id="Outlines">
    <g id="Bandage_Outline" data-name="Bandage Outline">
      <rect class="cls-4" width="64" height="64"/>
      <g>
        <path class="cls-5" d="M48.66,1.24c-.32-.08-.65-.12-.99-.12H21.86c-.08,0-.15,0-.22,0-.1,0-.21,0-.31,0C12,1.12,4.96,14.39,4.96,31.98c0,.06-.09,6.46-3.72,12.44-.95,1.57-.99,3.53-.09,5.13,.89,1.59,2.59,2.58,4.41,2.58h3.14c3.01,6.87,7.52,10.75,12.62,10.75,.1,0,.21,0,.31,0,.07,0,.15,0,.22,0h25.81c.33,0,.66-.04,.96-.12,9.76-1.47,14.86-16.44,14.86-30.76S58.41,2.73,48.66,1.24Z"/>
        <g>
          <path class="cls-2" d="M47.67,58.88H21.86v-.03c-.18,.02-.36,.03-.54,.03-6.83,0-12.37-12.04-12.37-26.88H47.67s0,26.88,0,26.88Z"/>
          <path class="cls-1" d="M21.33,5.12c.18,0,.36,.01,.54,.03v-.03h25.81s0,26.88,0,26.88H8.96c0-14.85,5.54-26.88,12.37-26.88Z"/>
        </g>
        <ellipse class="cls-3" cx="47.13" cy="32" rx="12.37" ry="26.88"/>
        <ellipse class="cls-2" cx="47.13" cy="32" rx="4.45" ry="9.68"/>
        <path class="cls-1" d="M29.9,47.18c-.39,.6-1.07,.95-1.79,.95-5.2,0-15.89,0-22.55,0-.84,0-1.34-.91-.91-1.63,4.3-7.08,4.3-14.5,4.3-14.5h25.67s0,7.9-4.73,15.18Z"/>
      </g>
    </g>
  </g>
</svg>