<svg xmlns="http://www.w3.org/2000/svg" viewBox="0 0 64 64"><defs><style>.cls-1{fill:#fff;opacity:0;}.cls-2{fill:#bfd9e6;}.cls-3{fill:#e8f4fa;}.cls-4{fill:#7b97a6;}</style></defs><title>Pillow</title><g id="Layer_2" data-name="Layer 2"><g id="Finals"><rect class="cls-1" width="64" height="64"/><path class="cls-2" d="M57.81,51.34A108.94,108.94,0,0,0,59.5,32a108.94,108.94,0,0,0-1.69-19.34L59.35,8a2.42,2.42,0,0,0-3-3.23l-5.3,1.7a7,7,0,0,1,.59,1.83.36.36,0,0,1,0,.1,99.61,99.61,0,0,1,1.23,15.79c0,1.09,0,2.16-.06,3.23,0,.63,0,1.26-.06,1.88A17.87,17.87,0,0,1,52,33.86,17.48,17.48,0,0,1,35.3,46c-2.72,0-5.45-.1-8.19-.26a135.17,135.17,0,0,1-16.22-1.93,6.82,6.82,0,0,1-4.43-3c.12,1.47.26,2.93.43,4.36l-2.28,7.6c-.5,1.67.78,3.45,2.26,3.12L15.43,54A147.94,147.94,0,0,0,31,55.76c5.11.3,10.2.35,15.2.19L56.4,59.21a2.42,2.42,0,0,0,3-3.23Z"/><path class="cls-3" d="M51.71,8.42a.36.36,0,0,0,0-.1,7,7,0,0,0-.59-1.83L46.24,8.05c-5-.16-10.09-.11-15.2.19A147.94,147.94,0,0,0,15.43,10L6.87,8.06a1.65,1.65,0,0,0-.7,0,2.46,2.46,0,0,0-1.56,3.11l.52,1.73,1.76,5.87A110.67,110.67,0,0,0,6.11,32c0,3,.13,6,.35,8.86a6.82,6.82,0,0,0,4.43,3,135.17,135.17,0,0,0,16.22,1.93c2.74.16,5.47.24,8.19.26A17.48,17.48,0,0,0,52,33.86a17.87,17.87,0,0,0,.83-4.54c0-.62,0-1.25.06-1.88,0-1.07.06-2.14.06-3.23A99.61,99.61,0,0,0,51.71,8.42Z"/><path class="cls-4" d="M54.44,12.89c0,3.08,0,6.17-.06,9.25l-.16,9.25c-.13,6.16-.19,12.32-.42,18.5h0a.86.86,0,0,1-1.72,0,162.69,162.69,0,0,1-.65-18.6c0-3.11.17-6.21.38-9.3s.49-6.19.92-9.28a.86.86,0,0,1,1.71.12Z"/></g></g></svg>