<svg xmlns="http://www.w3.org/2000/svg" viewBox="0 0 64 64"><defs><style>.cls-1,.cls-2{fill:#1a1a1a;}.cls-1{opacity:0;}</style></defs><title>Pillow Black</title><g id="Layer_2" data-name="Layer 2"><g id="Finals"><rect class="cls-1" width="64" height="64"/><path class="cls-2" d="M57.81,51.34A108.94,108.94,0,0,0,59.5,32a108.94,108.94,0,0,0-1.69-19.34L59.35,8a2.42,2.42,0,0,0-3-3.23l-5.3,1.7L46.24,8.05c-5-.16-10.09-.11-15.2.19A147.94,147.94,0,0,0,15.43,10L6.87,8.06a1.65,1.65,0,0,0-.7,0,2.46,2.46,0,0,0-1.56,3.11l.52,1.73,1.76,5.87A110.67,110.67,0,0,0,6.11,32c0,3,.13,6,.35,8.86.12,1.47.26,2.93.43,4.36l-2.28,7.6c-.5,1.67.78,3.45,2.26,3.12L15.43,54A147.94,147.94,0,0,0,31,55.76c5.11.3,10.2.35,15.2.19L56.4,59.21a2.42,2.42,0,0,0,3-3.23Z"/></g></g></svg>