<svg xmlns="http://www.w3.org/2000/svg" viewBox="0 0 64 64"><defs><style>.cls-1,.cls-2{fill:#1a1a1a;}.cls-1{opacity:0;}.cls-3{fill:#e62e49;}</style></defs><title>Blocked Outline</title><g id="Layer_2" data-name="Layer 2"><g id="Layer_3" data-name="Layer 3"><rect class="cls-1" width="64" height="64"/><path class="cls-2" d="M32,63.5A31.49,31.49,0,0,1,9.73,9.73,31.49,31.49,0,1,1,54.27,54.27,31.29,31.29,0,0,1,32,63.5ZM29.6,47.06a16.07,16.07,0,0,0,2.4.19A15.26,15.26,0,0,0,47.06,29.6ZM32,16.75A15.26,15.26,0,0,0,16.94,34.4L34.4,16.94A16.07,16.07,0,0,0,32,16.75Z"/><path class="cls-3" d="M51.45,12.55a27.51,27.51,0,1,0,0,38.9A27.53,27.53,0,0,0,51.45,12.55ZM18.39,18.39a19.27,19.27,0,0,1,23.27-3.05L15.34,41.66A19.27,19.27,0,0,1,18.39,18.39ZM45.61,45.61a19.27,19.27,0,0,1-23.27,3L48.66,22.34A19.27,19.27,0,0,1,45.61,45.61Z"/></g></g></svg>