<svg xmlns="http://www.w3.org/2000/svg" viewBox="0 0 64 64"><defs><style>.cls-1{opacity:0;}.cls-2{fill:#fff;}</style></defs><title>Sound Off White </title><g id="Layer_2" data-name="Layer 2"><g id="Layer_3" data-name="Layer 3"><g class="cls-1"><rect class="cls-2" width="64" height="64"/></g><path class="cls-2" d="M28.22,7.59a1.92,1.92,0,0,0-1.33.64h0l-.06.06-.14.15L15.88,19.9H8.82C6.44,19.9,4.5,25.32,4.5,32a32.25,32.25,0,0,0,.17,3.33h0c0,.28.06.56.1.83a1.11,1.11,0,0,0,0,.17c0,.26.07.51.12.76a.86.86,0,0,0,0,.17c0,.26.08.5.13.75l0,.06a17.57,17.57,0,0,0,.55,2.09,1.87,1.87,0,0,0,.07.22c0,.16.11.31.17.46S6,41,6,41.12l.16.39.14.28c.06.11.11.23.17.33l.18.32a2.26,2.26,0,0,1,.16.26l.31.41.14.15.23.24.15.12a1.77,1.77,0,0,0,.24.17l.15.09a1.31,1.31,0,0,0,.27.12l.13,0a1.39,1.39,0,0,0,.4.06h6.84l11,11.48.15.16,0,0h0a1.92,1.92,0,0,0,1.33.64c3.24,0,5.87-10.93,5.87-24.41S31.46,7.59,28.22,7.59Z"/><path class="cls-2" d="M53.3,32l5.39-5.39a2.77,2.77,0,1,0-3.91-3.92l-5.4,5.4L44,22.69a2.77,2.77,0,1,0-3.91,3.92L45.47,32l-5.39,5.39A2.77,2.77,0,1,0,44,41.31l5.39-5.4,5.4,5.4a2.77,2.77,0,0,0,3.91-3.92Z"/></g></g></svg>