<?xml version="1.0" encoding="UTF-8"?>
<svg id="Layer_2" data-name="Layer 2" xmlns="http://www.w3.org/2000/svg" viewBox="0 0 64 64">
  <defs>
    <style>
      .cls-1, .cls-2 {
        fill: #fff;
      }

      .cls-2 {
        opacity: 0;
      }
    </style>
  </defs>
  <g id="White">
    <g id="Pond_Flat_White" data-name="Pond Flat White">
      <rect class="cls-2" width="64" height="64"/>
      <path class="cls-1" d="M52.81,39.77c-.49-.13-.76-.66-.56-1.12,.29-.65,.44-1.34,.44-2.04,0-2.37-1.65-4.52-5.17-6.13-.08-1.79-.14-7.48,2.11-12.45,.29-.63-.47-1.21-1.02-.8-1.57,1.15-3.63,3.14-4.86,6.17-.55-6.05-3.33-9.95-5.26-11.97-.48-.5-1.31-.03-1.13,.64,1.01,3.65,1.25,7.53,1.19,10.82-.95-2.9-2.53-4.86-3.81-6.06-.51-.48-1.31,.07-1.07,.74,1.35,3.69,1.67,7.74,1.71,10.28-.77-.06-1.58-.11-2.41-.15l-3.49-4.71c-.34-.47-.93-.69-1.49-.58l-2.42,.48-2.46-2.46c-.51-.51-1.32-.58-1.91-.17l-4.81,3.37c-.55,.39-.95,.96-1.11,1.61l-.69,2.76c-1.01-2.16-2-4.91-2.32-7.82-.07-.69-1.02-.81-1.29-.17-.81,1.88-1.61,4.83-.96,8.28-1.26-1.09-2.51-1.81-3.55-2.26-.65-.29-1.23,.5-.78,1.05,1.06,1.28,1.96,2.69,2.72,4.06-2.65,1.52-3.91,3.42-3.91,5.49,0,4.38,5.56,8.03,18.31,8.86,.52,.03,.99,.37,1.14,.88,.93,3.21,6.38,5.66,17.7,5.66,12.5,0,17.85-3,17.85-6.69,0-2.31-2.08-4.34-6.69-5.54Zm-23.21,2.2c-3.7,0-6.69-1.5-6.69-3.35,0-.29,.08-.57,.22-.84-2.72-.03-4.91-1.14-4.91-2.5s2.25-2.51,5.02-2.51,5.02,1.12,5.02,2.51c0,.02-.01,.05-.01,.07,.44-.04,.89-.07,1.35-.07,3.7,0,6.69,1.5,6.69,3.35s-3,3.35-6.69,3.35Zm12.06-4.86c-2.4,0-4.35-.97-4.35-2.18s1.95-2.18,4.35-2.18,4.35,.97,4.35,2.18-1.95,2.18-4.35,2.18Z"/>
    </g>
  </g>
</svg>