<?xml version="1.0" encoding="UTF-8"?>
<svg id="Layer_2" data-name="Layer 2" xmlns="http://www.w3.org/2000/svg" viewBox="0 0 64 64">
  <defs>
    <style>
      .cls-1 {
        fill: #fff;
      }

      .cls-2 {
        fill: #eba969;
      }

      .cls-3 {
        fill: #008751;
      }

      .cls-4 {
        fill: #d3dee3;
      }

      .cls-5 {
        fill: #37b9ff;
      }

      .cls-6 {
        fill: #acdc58;
      }

      .cls-7 {
        opacity: 0;
      }

      .cls-7, .cls-8 {
        fill: #1a1a1a;
      }
    </style>
  </defs>
  <g id="Outlines">
    <g id="Pond_Outline" data-name="Pond Outline">
      <rect class="cls-7" width="64" height="64"/>
      <g>
        <path class="cls-8" d="M56.69,36.84c0-.08,0-.16,0-.23,0-2.58-1.1-6.91-7.65-9.85l1.81-5.74c1.06-3.36-.81-6.95-4.17-8.01-.62-.2-1.27-.3-1.92-.3-.82,0-1.61,.15-2.34,.44-.85-.78-1.97-1.22-3.15-1.22-1,0-1.95,.31-2.77,.91-.25,.18-.52,.39-.79,.61-1.25-2.62-2.77-4.59-4.07-5.95-.89-.94-2.09-1.45-3.37-1.45-1.45,0-2.85,.69-3.73,1.85-.8,1.05-1.11,2.37-.87,3.66-1.18,.23-2.25,.91-2.95,1.92-.39,.56-.64,1.18-.76,1.83-.47-.17-.97-.28-1.47-.32-.11,0-.23-.01-.34-.01-.17,0-.33,.01-.5,.03-.22,.01-.58,.04-.99,.15-.5,.13-.98,.34-1.44,.62-.11,.06-.21,.12-.31,.19l-.15,.11c-.78-1.5-2.35-2.5-4.14-2.5s-3.56,1.11-4.3,2.84c-.41,.96-.83,2.16-1.12,3.53-1.79,0-3.44,1.05-4.21,2.68-.78,1.65-.54,3.55,.63,4.97,.59,.71,1.16,1.52,1.7,2.42-2.38,2.44-2.81,5.03-2.81,6.59,0,4.14,2.7,11.17,20.42,12.72,2.31,3.9,8,6.11,16.99,6.57,.91,.9,2.13,1.49,3.5,1.6l4.78,.4c.28,.02,.56,.04,.84,.04,.98,0,1.95-.14,2.89-.42l4.08-1.21c1.53-.46,2.73-1.51,3.42-2.85,5.23-2.42,6.08-6.06,6.08-8.15,0-2.24-.96-6.07-6.81-8.47Z"/>
        <g>
          <path class="cls-6" d="M25.59,29.25s.52-6.9-1.66-12.84c-.24-.66,.56-1.22,1.07-.74,2.12,1.98,5.04,5.99,4.61,12.91l-4.02,.67Z"/>
          <path class="cls-6" d="M10.51,36.62s-1.8-6.68-5.83-11.56c-.45-.55,.13-1.33,.78-1.05,2.66,1.16,6.73,3.99,8.61,10.64l-3.57,1.96Z"/>
          <path class="cls-6" d="M37.81,29.92s-.64-7.05,2.08-13.04c.29-.63-.47-1.21-1.02-.8-2.56,1.87-6.41,5.93-5.87,13.17l4.81,.67Z"/>
          <path class="cls-6" d="M16.11,30.45s-4.14-5.75-4.84-12.28c-.07-.69-1.02-.81-1.29-.17-1.25,2.91-2.5,8.37,1.64,14.33l4.49-1.87Z"/>
          <path class="cls-6" d="M28.06,29.66s1.97-10.05-.44-18.74c-.19-.67,.65-1.14,1.13-.64,2.6,2.73,6.76,8.88,4.9,19.12l-5.58,.26Z"/>
          <path class="cls-5" d="M52.81,39.77c-.49-.13-.76-.66-.56-1.12,.29-.65,.44-1.34,.44-2.04,0-4.99-7.22-9.04-24.1-9.04S4.5,31.62,4.5,36.61c0,4.38,5.56,8.03,18.31,8.86,.52,.03,.99,.37,1.14,.88,.93,3.21,6.38,5.66,17.7,5.66,12.5,0,17.85-3,17.85-6.69,0-2.31-2.08-4.34-6.69-5.54Z"/>
          <path class="cls-4" d="M10.73,31.39l3.79,.42c.66,.07,1.33-.09,1.89-.46l3.16-2.1,5.65,.57c.67,.07,1.34-.11,1.9-.49l1.62-1.12c.49-.34,.6-1.02,.25-1.5l-3.5-4.72c-.34-.47-.93-.69-1.49-.58l-2.42,.48-2.46-2.46c-.51-.51-1.32-.58-1.91-.17l-4.81,3.37c-.55,.39-.95,.96-1.11,1.61l-1.46,5.84c-.16,.62,.27,1.24,.91,1.31Z"/>
          <path class="cls-1" d="M17.61,23.45l.56-4.46c-.33-.03-.68,.06-.97,.26l-4.81,3.37c-.32,.23-.59,.52-.79,.86l1.52,1.9c.24,.31,.67,.4,1.02,.22l3.02-1.51c.25-.12,.42-.36,.45-.64Z"/>
          <ellipse class="cls-6" cx="44.66" cy="33.93" rx="4.35" ry="2.18"/>
          <path class="cls-1" d="M22.76,23.47l2.32-1.86c-.32-.21-.71-.3-1.09-.22l-2.42,.48,.46,1.38c.1,.31,.48,.42,.73,.22Z"/>
          <path class="cls-3" d="M40.53,43.49c-.68,0-1.26-.51-1.33-1.2-.03-.33-.78-8.26,2.32-17.51,.24-.7,.99-1.08,1.7-.84,.7,.24,1.08,.99,.84,1.7-2.92,8.68-2.21,16.32-2.2,16.39,.07,.74-.46,1.39-1.2,1.46-.05,0-.09,0-.13,0Z"/>
          <path class="cls-2" d="M45.48,16.83c-1.26-.4-2.6,.3-2.99,1.56l-2.51,7.97c-.4,1.26,.3,2.6,1.56,2.99s2.6-.3,2.99-1.56l2.51-7.97c.4-1.26-.3-2.6-1.56-2.99Z"/>
          <ellipse class="cls-6" cx="29.6" cy="38.62" rx="6.69" ry="3.35"/>
          <ellipse class="cls-6" cx="23.24" cy="35.27" rx="5.02" ry="2.51"/>
          <path class="cls-3" d="M36.38,43.67h0c-.74,0-1.33-.61-1.33-1.35,.02-3.14-.29-8.01-1.93-13.33-.22-.71,.18-1.46,.89-1.67,.71-.22,1.46,.18,1.67,.89,1.73,5.65,2.07,10.8,2.05,14.13,0,.74-.6,1.33-1.34,1.33Z"/>
          <path class="cls-2" d="M31.92,20.16c1.27-.36,2.59,.37,2.95,1.64l2.3,8.03c.36,1.27-.37,2.59-1.64,2.95s-2.59-.37-2.95-1.64l-2.3-8.03c-.36-1.27,.37-2.59,1.64-2.95Z"/>
          <path class="cls-4" d="M41.74,53.52l4.78,.4c.76,.06,1.53-.02,2.26-.23l4.08-1.21c.87-.26,1.38-1.17,1.13-2.05l-1.41-4.99c-.14-.5-.5-.9-.99-1.1l-4.75-1.9c-.7-.28-1.49-.06-1.95,.54l-2.54,3.34c-.49,.64-.87,1.36-1.12,2.13l-.94,2.89c-.33,1.02,.37,2.09,1.45,2.18Z"/>
          <path class="cls-1" d="M46.01,48.51c.71,.16,1.46-.02,2.02-.48l4.11-3.33c-.15-.15-.33-.28-.54-.36l-4.75-1.9c-.7-.28-1.49-.06-1.95,.54l-2.54,3.34c-.29,.38-.53,.79-.74,1.21l4.39,.98Z"/>
        </g>
      </g>
    </g>
  </g>
</svg>