<svg xmlns="http://www.w3.org/2000/svg" viewBox="0 0 128 128"><defs><style>.cls-1{fill:none;}.cls-2{isolation:isolate;}.cls-3{fill:#1249c7;}.cls-4{fill:#de6529;}.cls-5{fill:#37b9ff;}.cls-6{fill:#fdbc0d;}</style></defs><title>Trade </title><g id="Layer_2" data-name="Layer 2"><g id="_1-13" data-name="1-13"><rect class="cls-1" width="128" height="128"/><g class="cls-2"><path class="cls-3" d="M119.64,44.62a4,4,0,0,0-.87-1.26L93.46,18.9a2.64,2.64,0,0,0-.37-.31,2.14,2.14,0,0,0-.38-.23,2.05,2.05,0,0,0-.38-.16,1.84,1.84,0,0,0-.38-.08,2,2,0,0,0-.87.1l0,0-2,.64-1,.33c-.6.19-1.4.44-2,.64l-2,.63-1,.32-2,.63-2,.63-1,.31L76.35,23l-1.92.62-1,.31-1.9.61a2,2,0,0,0-.66.37,2.21,2.21,0,0,0-.52.61,3.12,3.12,0,0,0-.32.84c0,.1,0,.21,0,.32l-3.47-.38a2.21,2.21,0,0,0-.93.12l.06,0-2,.64-1,.32-2,.63-2,.63-1,.31-1.94.63L54,30.12l-1,.3L51.1,31l-1.9.61-.94.3-1.88.61a2.14,2.14,0,0,0-.71.39,2.51,2.51,0,0,0-.54.66,2.85,2.85,0,0,0-.33.86,3.38,3.38,0,0,0-.09,1L45.87,58a4.77,4.77,0,0,0,.28,1.32,4.29,4.29,0,0,0,.64,1.1,3.29,3.29,0,0,0,.9.77,2.54,2.54,0,0,0,1.06.34L72,63.22l.43,7.57a4,4,0,0,0,.29,1.33,4,4,0,0,0,.64,1.07,3.24,3.24,0,0,0,.86.72,2.42,2.42,0,0,0,1,.3h.29l.15,0,.14,0,19.87-4.84-.15,0h0a1.55,1.55,0,0,0,.36-.08,1.49,1.49,0,0,0,.36-.17,2.53,2.53,0,0,0,.35-.25l22.57-20.23a2.4,2.4,0,0,0,.71-1.11,3.68,3.68,0,0,0,.16-1.42A4.45,4.45,0,0,0,119.64,44.62ZM95.39,69.36h0Z"/><path class="cls-4" d="M86.16,69a4.58,4.58,0,0,0-.29-1.33,3.9,3.9,0,0,0-.63-1.11,3.49,3.49,0,0,0-.89-.79,2.31,2.31,0,0,0-1-.33l-24-1.72-.43-8a4.34,4.34,0,0,0-.32-1.42,3.92,3.92,0,0,0-.68-1.14,3.47,3.47,0,0,0-.94-.79A2.63,2.63,0,0,0,55.87,52h-.4a2.7,2.7,0,0,0-.39.08h0l-2,.57-1,.29-2,.56-2,.56-1,.28-1.94.55-1.92.56-1,.27-1.91.55-1.89.54-.95.27-1.88.54-.2.07-.21.09-.2.12c-.06,0-.13.09-.19.15h0L9.1,79.27a2.86,2.86,0,0,0-.86,1.22A3.92,3.92,0,0,0,8,82a4.11,4.11,0,0,0,.38,1.57,3.71,3.71,0,0,0,1,1.32l28.17,24.29a2.2,2.2,0,0,0,.4.3,3.17,3.17,0,0,0,.41.21,2.57,2.57,0,0,0,.82.17h.25l.12,0,.13,0,19.62-3.93-.12,0L59,106h-.25a2.26,2.26,0,0,0,1-.22,2.61,2.61,0,0,0,.86-.7,3,3,0,0,0,.57-1.1,4,4,0,0,0,.16-1.42l-.17-3.13,3.95.15h.26l.12,0,.12,0,19.89-4.14-.12,0h-.39a2,2,0,0,0,1-.22,2.32,2.32,0,0,0,.8-.7,3.26,3.26,0,0,0,.51-1.06,4.33,4.33,0,0,0,.13-1.32ZM54.9,52.14l.14,0a2.75,2.75,0,0,0-.36.15h0Zm-.41.22.16-.1a2,2,0,0,0-.35.25C54.36,52.45,54.43,52.41,54.49,52.36Z"/></g><path class="cls-5" d="M95.17,68.28a1.26,1.26,0,0,1-.53-.17,2.28,2.28,0,0,1-.59-.5,3.07,3.07,0,0,1-.47-.81,3.58,3.58,0,0,1-.23-1L92.82,57l-24.48-2a1.24,1.24,0,0,1-.62-.21,2,2,0,0,1-.61-.54,2.94,2.94,0,0,1-.49-.84,3.65,3.65,0,0,1-.22-1L65.12,29.29a2.89,2.89,0,0,1,.09-.94,1.93,1.93,0,0,1,.33-.62A1.15,1.15,0,0,1,66,27.4a1,1,0,0,1,.38-.07L91.18,30l-.55-8.95a2.51,2.51,0,0,1,.1-.93,1.64,1.64,0,0,1,.3-.59,1,1,0,0,1,.37-.28.85.85,0,0,1,.31-.06l.3,0a1,1,0,0,1,.21.09,1.42,1.42,0,0,1,.23.14,1.88,1.88,0,0,1,.26.22L118,44.14a3,3,0,0,1,.62.91,3.54,3.54,0,0,1,.27,1.11,2.93,2.93,0,0,1-.11,1,1.46,1.46,0,0,1-.4.64L95.82,68l-.18.13-.31.1h-.16Z"/><path class="cls-5" d="M92.33,18.2l-.51,2.15.13.12,25.32,24.47a1.89,1.89,0,0,1,.37.55,2.36,2.36,0,0,1,.18.74,1.82,1.82,0,0,1-.06.6.4.4,0,0,1-.09.17L95.17,67.16a1.26,1.26,0,0,1-.28-.25,2,2,0,0,1-.3-.51,2.64,2.64,0,0,1-.15-.7L94,57.9,93.85,56,92,55.87,68.42,54a1,1,0,0,1-.15-.06,1.45,1.45,0,0,1-.32-.29,2.45,2.45,0,0,1-.31-.55,2.14,2.14,0,0,1-.15-.7L66.2,29.23a1.63,1.63,0,0,1,.06-.56c0-.15.1-.23.08-.25l23.44,2.52,2.56.28-.15-2.57L91.72,21a1.56,1.56,0,0,1,0-.56c0-.11.07-.17,0-.17h0a.16.16,0,0,1-.1,0h0l.64-2.08m-.62-.09a1.78,1.78,0,0,0-.72.14,1.93,1.93,0,0,0-.79.58,2.81,2.81,0,0,0-.52,1,4,4,0,0,0-.13,1.32L90,28.78,66.57,26.25h-.24a2.17,2.17,0,0,0-.81.16,2.26,2.26,0,0,0-.82.63,3,3,0,0,0-.53,1,3.64,3.64,0,0,0-.14,1.3l1.29,23.17a4.13,4.13,0,0,0,.29,1.36A4.3,4.3,0,0,0,66.25,55a3.47,3.47,0,0,0,.92.8,2.47,2.47,0,0,0,1.08.36L91.79,58l.48,7.79a4.23,4.23,0,0,0,.3,1.37,3.85,3.85,0,0,0,.65,1.1,3.09,3.09,0,0,0,.88.75,2.45,2.45,0,0,0,1,.32h.38a2.22,2.22,0,0,0,.37-.09,1.49,1.49,0,0,0,.36-.17,2.53,2.53,0,0,0,.35-.25l22.57-20.23a2.48,2.48,0,0,0,.71-1.11,3.68,3.68,0,0,0,.16-1.42,4.45,4.45,0,0,0-.35-1.47,4,4,0,0,0-.87-1.26L93.46,18.9a2.64,2.64,0,0,0-.37-.31,2.14,2.14,0,0,0-.38-.23,2.05,2.05,0,0,0-.38-.16,1.84,1.84,0,0,0-.38-.08Z"/><path class="cls-6" d="M58.58,104.85a1.27,1.27,0,0,1-.23-.08.94.94,0,0,1-.24-.13,1.35,1.35,0,0,1-.27-.2L29.16,79.27a2.7,2.7,0,0,1-.72-1,3.64,3.64,0,0,1-.3-1.23,3.14,3.14,0,0,1,.17-1.16,1.84,1.84,0,0,1,.55-.79L55,53.34a.86.86,0,0,1,.2-.13l.39-.12a1.59,1.59,0,0,1,.82.2,2.46,2.46,0,0,1,.64.54,2.89,2.89,0,0,1,.5.85,3.26,3.26,0,0,1,.24,1.07l.48,9,24.95,1.78a1.42,1.42,0,0,1,.58.19,2.25,2.25,0,0,1,.59.53,3,3,0,0,1,.46.82,3.21,3.21,0,0,1,.22,1l1.38,23.09a3.14,3.14,0,0,1-.09,1,2.33,2.33,0,0,1-.33.69,1.27,1.27,0,0,1-.43.38,1,1,0,0,1-.44.1L59.82,93.23l.51,9.35a3,3,0,0,1-.12,1,2,2,0,0,1-.37.72,1.59,1.59,0,0,1-.5.41,1.11,1.11,0,0,1-.5.12Z"/><path class="cls-6" d="M55.69,52v2.18a.4.4,0,0,1,.18.07,1.15,1.15,0,0,1,.35.3,1.93,1.93,0,0,1,.32.54,2.22,2.22,0,0,1,.16.73l.44,8,.1,1.92,1.91.14,24,1.72a.24.24,0,0,1,.1,0,1.19,1.19,0,0,1,.29.27,2.09,2.09,0,0,1,.3.53,2.67,2.67,0,0,1,.15.68l1.37,23.1a2.08,2.08,0,0,1,0,.62,2.39,2.39,0,0,1-.15.37l-24.1-1-2.39-.1.13,2.4.44,8.15a2,2,0,0,1-.07.67,1.3,1.3,0,0,1-.18.36.28.28,0,0,1-.17.11l-.14-.06-.13-.1L29.88,78.45a1.71,1.71,0,0,1-.45-.62,2.53,2.53,0,0,1-.2-.83,1.8,1.8,0,0,1,.1-.72.82.82,0,0,1,.23-.35L55.69,54.17h0V52m0,0h-.22a2,2,0,0,0-.41.09,2.14,2.14,0,0,0-.39.16,2.26,2.26,0,0,0-.37.26L28.16,74.26a3.07,3.07,0,0,0-.87,1.25,4,4,0,0,0-.23,1.59,4.28,4.28,0,0,0,.39,1.63,4,4,0,0,0,1,1.36l28.67,25.17a3.91,3.91,0,0,0,.41.3,2.73,2.73,0,0,0,.41.22,2.25,2.25,0,0,0,.42.13,2,2,0,0,0,.42,0h.07a2.23,2.23,0,0,0,1-.22,2.61,2.61,0,0,0,.86-.7,3,3,0,0,0,.57-1.1,4,4,0,0,0,.16-1.42L61,94.37l24.1,1h.09a2.13,2.13,0,0,0,.94-.22,2.32,2.32,0,0,0,.8-.7,3.26,3.26,0,0,0,.51-1.06,4.33,4.33,0,0,0,.13-1.32L86.16,69a4.58,4.58,0,0,0-.29-1.33,3.9,3.9,0,0,0-.63-1.11,3.49,3.49,0,0,0-.89-.79,2.31,2.31,0,0,0-1-.33l-24-1.72-.43-8a4.34,4.34,0,0,0-.32-1.42,3.92,3.92,0,0,0-.68-1.14,3.47,3.47,0,0,0-.94-.79A2.63,2.63,0,0,0,55.87,52Z"/></g></g></svg>