<svg xmlns="http://www.w3.org/2000/svg" viewBox="0 0 128 128"><defs><style>.cls-1{fill:none;}.cls-2{fill:#1a1a1a;}.cls-3{isolation:isolate;}.cls-4{fill:#1249c7;}.cls-5{fill:#de6529;}.cls-6{fill:#37b9ff;}.cls-7{fill:#fdbc0d;}</style></defs><title>Trade Outline </title><g id="Layer_2" data-name="Layer 2"><g id="_1-13" data-name="1-13"><rect class="cls-1" width="128" height="128"/><path class="cls-2" d="M127,45.88a11.23,11.23,0,0,0-.31-2.06,11.53,11.53,0,0,0-.68-2,7.3,7.3,0,0,0-.51-1A11.45,11.45,0,0,0,123.39,38L98.53,14a10,10,0,0,0-1.26-1.06,10.67,10.67,0,0,0-1.44-.88,9.59,9.59,0,0,0-1.63-.66A9.69,9.69,0,0,0,91.28,11a11.47,11.47,0,0,0-2,.22,8.24,8.24,0,0,0-1,.24L69,17.62A9.81,9.81,0,0,0,66.36,19H66.3a8.11,8.11,0,0,0-1.09.08,9.46,9.46,0,0,0-1.93.41h0l-19,6.13a9.8,9.8,0,0,0-3.35,1.86,10.32,10.32,0,0,0-2.26,2.7,10.83,10.83,0,0,0-1.2,3.06,11.56,11.56,0,0,0-.27,3.16l.66,12.73-3.68,1a8.75,8.75,0,0,0-1,.35,9,9,0,0,0-.88.4,7.61,7.61,0,0,0-1,.57,9.21,9.21,0,0,0-.82.6L5,72.93a10.73,10.73,0,0,0-3.22,4.49A11.72,11.72,0,0,0,1,82.09a12.11,12.11,0,0,0,1.07,4.47,11.53,11.53,0,0,0,3,4L32.8,114.48a9.77,9.77,0,0,0,1.36,1,10.35,10.35,0,0,0,1.59.81,10.13,10.13,0,0,0,1.74.54,9,9,0,0,0,1.69.21h.66c.19,0,.51,0,.7,0L41,117l.55-.09L60.89,113l.34-.08a9.33,9.33,0,0,0,2.07-.73,10,10,0,0,0,2-1.27,10.88,10.88,0,0,0,1.56-1.55,11.14,11.14,0,0,0,1.71-3l18.28-3.81.46-.11a9.84,9.84,0,0,0,2-.77,10,10,0,0,0,2.65-2,9.27,9.27,0,0,0,.87-1,10.73,10.73,0,0,0,1.76-3.63,11.6,11.6,0,0,0,.4-3.87l-.81-13.62,2.83-.68.46-.13.47-.15c.33-.12.65-.26.84-.35a8.17,8.17,0,0,0,.93-.48c.2-.12.42-.27.63-.42a11.09,11.09,0,0,0,.91-.72l22.18-19.87a9,9,0,0,0,1.14-1.21,10.31,10.31,0,0,0,1.83-3.34A10.94,10.94,0,0,0,127,47,7.44,7.44,0,0,0,127,45.88Z"/><g class="cls-3"><path class="cls-4" d="M118.77,44.92a3.92,3.92,0,0,0-.85-1.24L93,19.61a3.38,3.38,0,0,0-.37-.31,2.49,2.49,0,0,0-.37-.23,2.3,2.3,0,0,0-.38-.15,1.72,1.72,0,0,0-.38-.08,1.75,1.75,0,0,0-.85.1l0,0-2,.64-1,.32-2,.63-1.94.62-1,.32-1.93.62L79,22.67l-1,.31-1.9.61-1.89.61-.94.31-1.88.6a2,2,0,0,0-.65.36,2.31,2.31,0,0,0-.51.6,2.65,2.65,0,0,0-.31.83,3,3,0,0,0,0,.31l-3.42-.37a2.12,2.12,0,0,0-.91.12s0,0,0,0l-2,.63-1,.31-1.94.62-1.92.62-1,.31L56,30l-1.9.61-.94.31-1.88.6-1.86.6-.93.3-1.85.6a1.94,1.94,0,0,0-.7.39,2.21,2.21,0,0,0-.53.64,2.89,2.89,0,0,0-.33.85,3.67,3.67,0,0,0-.08,1l1.14,22.15a4.24,4.24,0,0,0,.27,1.29,4,4,0,0,0,.63,1.08,3.13,3.13,0,0,0,.88.76,2.54,2.54,0,0,0,1.06.34l22.9,1.67.43,7.45A4.18,4.18,0,0,0,72.62,72,3.51,3.51,0,0,0,73.24,73a3,3,0,0,0,.85.71,2.19,2.19,0,0,0,1,.3h.29l.14,0,.14,0,19.55-4.77a.32.32,0,0,1-.14,0H95a2.33,2.33,0,0,0,.36-.08A2.26,2.26,0,0,0,95.7,69a2,2,0,0,0,.34-.25l22.22-19.91a2.37,2.37,0,0,0,.7-1.09,3.8,3.8,0,0,0,.16-1.4A4.34,4.34,0,0,0,118.77,44.92ZM94.9,69.28h-.29a1.45,1.45,0,0,0,.36,0Z"/><path class="cls-5" d="M85.82,68.93a4.38,4.38,0,0,0-.29-1.32,3.9,3.9,0,0,0-.62-1.09,3.16,3.16,0,0,0-.87-.77,2.41,2.41,0,0,0-1-.34L59.39,63.72,59,55.82a4.54,4.54,0,0,0-.31-1.4A4.16,4.16,0,0,0,58,53.3a3.39,3.39,0,0,0-.93-.78,2.53,2.53,0,0,0-1-.33h-.4a1.72,1.72,0,0,0-.38.08h0l-2,.56-1,.28-1.93.55-1.93.56-1,.27L45.6,55l-1.9.54-.94.27-1.88.54L39,56.91l-.92.27-1.85.53-.21.07-.2.09-.19.12a1.33,1.33,0,0,0-.19.14h0L10,79a2.8,2.8,0,0,0-.86,1.2,3.85,3.85,0,0,0-.23,1.52,4.19,4.19,0,0,0,.37,1.55,3.7,3.7,0,0,0,1,1.3l27.72,23.91a2.7,2.7,0,0,0,.4.29,2.14,2.14,0,0,0,.4.2,2,2,0,0,0,.41.13,2.73,2.73,0,0,0,.4.05h.37l.12,0,19.32-3.87-.12,0h-.38a2.27,2.27,0,0,0,1-.22,2.48,2.48,0,0,0,.86-.69,3.35,3.35,0,0,0,.56-1.08,4.18,4.18,0,0,0,.16-1.4l-.17-3.08,3.88.15h.38l.12,0,19.58-4.08-.13,0h-.38a2,2,0,0,0,1-.22,2.36,2.36,0,0,0,.8-.68A3.39,3.39,0,0,0,87,93a3.89,3.89,0,0,0,.13-1.3ZM55,52.33l.14,0a2.17,2.17,0,0,0-.35.15h0Zm-.39.21.15-.09a2.43,2.43,0,0,0-.35.24Z"/></g><path class="cls-6" d="M94.68,68.21a1.27,1.27,0,0,1-.52-.17,2,2,0,0,1-.57-.49,3,3,0,0,1-.47-.79,3.21,3.21,0,0,1-.22-1l-.52-8.6L68.27,55.22a1.3,1.3,0,0,1-.6-.2,2.37,2.37,0,0,1-.61-.54,3,3,0,0,1-.48-.83,3.43,3.43,0,0,1-.21-1L65.1,29.83a2.77,2.77,0,0,1,.1-.92,1.74,1.74,0,0,1,.32-.62,1,1,0,0,1,.78-.39l24.46,2.63-.54-8.81a2.69,2.69,0,0,1,.09-.92,1.54,1.54,0,0,1,.3-.57A1,1,0,0,1,91,20a.77.77,0,0,1,.3-.06l.29.05a1,1,0,0,1,.21.09,1.42,1.42,0,0,1,.23.14,2.39,2.39,0,0,1,.26.21l24.91,24.07a2.92,2.92,0,0,1,.61.9,3.16,3.16,0,0,1,.26,1.09,2.44,2.44,0,0,1-.11,1,1.5,1.5,0,0,1-.38.63L95.32,68l-.17.12-.3.11h-.17Z"/><path class="cls-6" d="M91.89,18.92,91.39,21l.13.11,24.92,24.08a1.69,1.69,0,0,1,.36.55,2.3,2.3,0,0,1,.18.73,1.38,1.38,0,0,1-.06.59.31.31,0,0,1-.09.17L94.68,67.11a1.5,1.5,0,0,1-.27-.25,1.72,1.72,0,0,1-.29-.49,2,2,0,0,1-.15-.7L93.5,58l-.11-1.86L91.53,56,68.36,54.15a.32.32,0,0,1-.15-.06,1,1,0,0,1-.32-.28,2.27,2.27,0,0,1-.45-1.23L66.17,29.77a1.6,1.6,0,0,1,.06-.55c0-.14.09-.22.07-.25l23.08,2.49,2.52.27-.15-2.53-.46-7.54a1.5,1.5,0,0,1,0-.55c0-.11.07-.16,0-.16h0l-.1,0h0l.63-2m-.61-.1a1.87,1.87,0,0,0-.71.14,2,2,0,0,0-.78.57,2.66,2.66,0,0,0-.5,1,3.59,3.59,0,0,0-.14,1.3l.46,7.54L66.53,26.84H66.3a2,2,0,0,0-1.61.78,2.8,2.8,0,0,0-.52,1A4.06,4.06,0,0,0,64,29.89L65.3,52.7A4.15,4.15,0,0,0,65.58,54a4.09,4.09,0,0,0,.64,1.12,3.18,3.18,0,0,0,.9.79,2.42,2.42,0,0,0,1.07.35l23.17,1.84.47,7.67a4.34,4.34,0,0,0,.93,2.44,3.11,3.11,0,0,0,.87.73,2.25,2.25,0,0,0,1,.31h.13l.24,0a1.63,1.63,0,0,0,.37-.08A2.26,2.26,0,0,0,95.7,69a2,2,0,0,0,.34-.25l22.23-19.91a2.43,2.43,0,0,0,.69-1.09,3.8,3.8,0,0,0,.16-1.4,4.34,4.34,0,0,0-.35-1.45,3.92,3.92,0,0,0-.85-1.24L93,19.61a3.38,3.38,0,0,0-.37-.31,2.49,2.49,0,0,0-.37-.23,2.3,2.3,0,0,0-.38-.15,1.72,1.72,0,0,0-.38-.08l-.23,0Z"/><path class="cls-7" d="M58.67,104.21l-.23-.07L58.2,104a2.69,2.69,0,0,1-.27-.2L29.71,79a2.68,2.68,0,0,1-.71-1,3.35,3.35,0,0,1-.29-1.21,3,3,0,0,1,.16-1.14,1.89,1.89,0,0,1,.54-.79L55.14,53.51a1.13,1.13,0,0,1,.2-.13l.38-.12a1.55,1.55,0,0,1,.81.2,2.37,2.37,0,0,1,.63.53,2.92,2.92,0,0,1,.5.84,3.34,3.34,0,0,1,.23,1.05l.48,8.84,24.56,1.76a1.38,1.38,0,0,1,.56.19,2,2,0,0,1,.58.52,2.8,2.8,0,0,1,.46.81,3.38,3.38,0,0,1,.22,1L86.1,91.72a3,3,0,0,1-.09,1,2,2,0,0,1-.32.68,1.27,1.27,0,0,1-.43.38.87.87,0,0,1-.42.1l-25-1.07.5,9.21a2.89,2.89,0,0,1-.12,1,2.07,2.07,0,0,1-.36.71,1.52,1.52,0,0,1-.49.4,1.11,1.11,0,0,1-.5.12Z"/><path class="cls-7" d="M55.82,52.18v2.14a.44.44,0,0,1,.17.07,1.27,1.27,0,0,1,.34.29,2.08,2.08,0,0,1,.32.54,2.44,2.44,0,0,1,.16.72l.43,7.9.1,1.89,1.88.13,23.62,1.69a.21.21,0,0,1,.1,0,.87.87,0,0,1,.29.26,1.63,1.63,0,0,1,.29.52,2.51,2.51,0,0,1,.15.67L85,91.79a2.36,2.36,0,0,1,0,.61c0,.13-.09.24-.14.37l-23.73-1-2.36-.1L58.88,94l.44,8a2,2,0,0,1-.07.67,1.21,1.21,0,0,1-.18.35.25.25,0,0,1-.17.11l-.13-.06-.13-.1L30.41,78.23a2,2,0,0,1-.44-.61,2.34,2.34,0,0,1-.19-.82,1.82,1.82,0,0,1,.1-.72.74.74,0,0,1,.22-.33L55.83,54.32h0V52.18m0,0H55.6a1.8,1.8,0,0,0-.39.08,1.92,1.92,0,0,0-.39.17,2.19,2.19,0,0,0-.37.25L28.73,74.1a2.81,2.81,0,0,0-.86,1.23,3.92,3.92,0,0,0-.23,1.57A4.31,4.31,0,0,0,28,78.5a3.94,3.94,0,0,0,1,1.34l28.22,24.77a2.61,2.61,0,0,0,.4.3,2.73,2.73,0,0,0,.41.22,3.84,3.84,0,0,0,.41.13,3.05,3.05,0,0,0,.41,0h.07a2.25,2.25,0,0,0,1-.22,2.48,2.48,0,0,0,.86-.69,3.35,3.35,0,0,0,.56-1.08,4.18,4.18,0,0,0,.16-1.4l-.44-8,23.72,1h.09a2,2,0,0,0,.92-.22,2.36,2.36,0,0,0,.8-.68A3.39,3.39,0,0,0,87,93a3.89,3.89,0,0,0,.13-1.3L85.82,68.93a4.38,4.38,0,0,0-.29-1.32,3.9,3.9,0,0,0-.62-1.09,3.16,3.16,0,0,0-.87-.77,2.41,2.41,0,0,0-1-.34L59.39,63.72,59,55.82a4.54,4.54,0,0,0-.31-1.4A4.16,4.16,0,0,0,58,53.3a3.39,3.39,0,0,0-.93-.78,2.53,2.53,0,0,0-1-.33Z"/></g></g></svg>