<?xml version="1.0" encoding="UTF-8"?>
<svg id="Layer_2" data-name="Layer 2" xmlns="http://www.w3.org/2000/svg" viewBox="0 0 64 64">
  <defs>
    <style>
      .cls-1 {
        fill: #606060;
        opacity: 0;
      }

      .cls-2 {
        fill: #1a1a1a;
      }
    </style>
  </defs>
  <g id="Black">
    <g id="Registered_Trademark_Sign_Flat_Black" data-name="Registered Trademark Sign Flat Black">
      <rect class="cls-1" width="64" height="64"/>
      <g>
        <path class="cls-2" d="M39,33.98c1.52-1.27,2.08-3.33,1.68-6.2-.31-2.15-1.18-3.78-2.59-4.9s-3.01-1.85-4.79-2.21-3.57-.41-5.37-.14-3.23,.7-4.3,1.3c-.29,.17-.45,1.31-.46,3.43-.01,2.12,.04,4.45,.17,6.98s.3,4.89,.53,7.06,.44,3.39,.63,3.65c.14,.22,.32,.34,.55,.38,.32,.07,1.09,.1,2.31,.09s2.29-.06,3.23-.16c.83-.09,1.31-.32,1.44-.69s.2-.91,.19-1.62c.06-.41,.45-.51,1.18-.28,.75,.26,1.73,.78,2.95,1.57s2.15,1.12,2.79,.99c.15,0,.42-.21,.81-.63s.8-.91,1.22-1.47,.8-1.12,1.12-1.68,.49-.98,.49-1.27c0-.39-.39-.98-1.15-1.77s-1.64-1.6-2.64-2.43Zm-5.67-3.62c-.41,.47-.99,.75-1.74,.83-.82,.09-1.31-.54-1.48-1.88-.17-1.34,.14-2.06,.95-2.14,.98-.11,1.71,.02,2.17,.4s.7,.82,.71,1.33-.2,1-.61,1.47Z"/>
        <path class="cls-2" d="M48.29,15.71c-8.56-8.56-22.84-8.22-31.82,.76-8.98,8.98-9.33,23.26-.76,31.83,8.56,8.56,22.84,8.22,31.83-.76,8.98-8.98,9.33-23.26,.76-31.83ZM32,48.12c-8.89,0-16.11-7.23-16.11-16.12S23.11,15.88,32,15.88s16.12,7.23,16.12,16.12-7.23,16.12-16.12,16.12Z"/>
      </g>
    </g>
  </g>
</svg>