<?xml version="1.0" encoding="UTF-8"?>
<svg id="Layer_2" data-name="Layer 2" xmlns="http://www.w3.org/2000/svg" viewBox="0 0 64 64">
  <defs>
    <style>
      .cls-1 {
        fill: #fff;
      }

      .cls-2 {
        fill: #7b97a6;
      }

      .cls-3 {
        fill: #1a1a1a;
        opacity: 0;
      }
    </style>
  </defs>
  <g id="No_outline" data-name="No outline">
    <g id="Registered_Trademark_Sign" data-name="Registered Trademark Sign">
      <rect class="cls-3" width="64" height="64"/>
      <g>
        <path class="cls-2" d="M40.33,33.64c.31-.76,.45-1.66,.46-2.68v.02s.01-3.22,.01-3.22h0c0-.46-.04-.96-.12-1.49-.31-2.15-1.18-3.78-2.59-4.9-1.41-1.11-3.01-1.85-4.79-2.21-1.78-.36-3.57-.41-5.37-.14-1.8,.27-3.23,.7-4.3,1.3-.29,.17-.45,1.31-.46,3.43,0,.72,0,1.47,.01,2.24,0,.24-.01,.49-.01,.76-.01,2.12,.04,4.45,.17,6.98,.13,2.53,.3,4.89,.53,7.06,.23,2.17,.44,3.39,.63,3.65,.14,.22,.32,.34,.55,.38,.32,.07,1.09,.1,2.31,.09s2.29-.06,3.23-.16c.83-.09,1.31-.32,1.44-.69,.14-.37,.2-.91,.19-1.62,.06-.41,.45-.51,1.18-.28,.75,.26,1.73,.78,2.95,1.57s2.15,1.12,2.79,.99c.15,0,.42-.21,.81-.63,.39-.42,.8-.91,1.22-1.47,.42-.56,.8-1.12,1.12-1.68,.32-.56,.49-.98,.49-1.27v-3c0-.39-.39-.98-1.15-1.77-.4-.42-.84-.84-1.31-1.27Zm-8.74-3.96c-.52,.06-.91-.18-1.17-.72,.16-.17,.37-.28,.64-.31,.94-.1,1.63,.02,2.1,.35-.4,.37-.92,.6-1.57,.67Z"/>
        <path class="cls-2" d="M54.47,29.39c0-5.57-2.04-11.04-6.18-15.18-8.56-8.56-22.84-8.22-31.82,.76-4.73,4.73-7.06,10.92-6.96,16.98h0s.03,2.21,.03,2.21c0,.49,0,.97,.02,1.46v.07s0,0,0,0c.25,5.19,2.28,10.23,6.15,14.1,8.56,8.56,22.84,8.22,31.83-.76,4.64-4.64,6.96-10.69,6.96-16.63h0s-.02-3.02-.02-3.02h0Zm-22.47,17.24c-8.38,0-15.28-6.43-16.04-14.62,.76-8.18,7.66-14.62,16.04-14.62s15.28,6.43,16.04,14.62c-.76,8.18-7.66,14.62-16.04,14.62Z"/>
        <g>
          <path class="cls-1" d="M39,32.48c1.52-1.27,2.08-3.33,1.68-6.2-.31-2.15-1.18-3.78-2.59-4.9s-3.01-1.85-4.79-2.21-3.57-.41-5.37-.14-3.23,.7-4.3,1.3c-.29,.17-.45,1.31-.46,3.43-.01,2.12,.04,4.45,.17,6.98s.3,4.89,.53,7.06,.44,3.39,.63,3.65c.14,.22,.32,.34,.55,.38,.32,.07,1.09,.1,2.31,.09s2.29-.06,3.23-.16c.83-.09,1.31-.32,1.44-.69s.2-.91,.19-1.62c.06-.41,.45-.51,1.18-.28,.75,.26,1.73,.78,2.95,1.57s2.15,1.12,2.79,.99c.15,0,.42-.21,.81-.63s.8-.91,1.22-1.47,.8-1.12,1.12-1.68,.49-.98,.49-1.27c0-.39-.39-.98-1.15-1.77s-1.64-1.6-2.64-2.43Zm-5.67-3.62c-.41,.47-.99,.75-1.74,.83-.82,.09-1.31-.54-1.48-1.88-.17-1.34,.14-2.06,.95-2.14,.98-.11,1.71,.02,2.17,.4s.7,.82,.71,1.33-.2,1-.61,1.47Z"/>
          <path class="cls-1" d="M48.29,14.21c-8.56-8.56-22.84-8.22-31.82,.76-8.98,8.98-9.33,23.26-.76,31.83,8.56,8.56,22.84,8.22,31.83-.76,8.98-8.98,9.33-23.26,.76-31.83ZM32,46.62c-8.89,0-16.11-7.23-16.11-16.12S23.11,14.38,32,14.38s16.12,7.23,16.12,16.12-7.23,16.12-16.12,16.12Z"/>
        </g>
      </g>
    </g>
  </g>
</svg>