<svg xmlns="http://www.w3.org/2000/svg" viewBox="0 0 64 64"><defs><style>.cls-1,.cls-2{fill:#1a1a1a;}.cls-1{opacity:0;}.cls-3{fill:#fff;}.cls-4{fill:#d3dee3;}.cls-5{fill:#39b54a;}.cls-6{fill:#006837;}</style></defs><title>Gift Box Green Outline</title><g id="Layer_2" data-name="Layer 2"><g id="_001-100" data-name="001-100"><rect class="cls-1" width="64" height="64"/><path class="cls-2" d="M55.25,18.26A3.8,3.8,0,0,0,53.84,18H52.58A13.94,13.94,0,0,0,55,12.13a10,10,0,0,0-2.84-8.67A9.83,9.83,0,0,0,45,.5c-2.5,0-6.41.92-10.79,5.3A16.32,16.32,0,0,0,32,8.61,16.32,16.32,0,0,0,29.77,5.8C25.39,1.42,21.49.5,19,.5a9.83,9.83,0,0,0-7.1,3A10,10,0,0,0,9,12.13,13.94,13.94,0,0,0,11.42,18H10.17a4,4,0,0,0-1.33.24A6.46,6.46,0,0,0,4.09,25l.58,6.48a6.47,6.47,0,0,0,2.69,4.7L9.07,57.56a6.5,6.5,0,0,0,6.44,5.94h33a6.5,6.5,0,0,0,6.44-5.94l1.71-21.35a6.47,6.47,0,0,0,2.69-4.7L59.91,25A6.45,6.45,0,0,0,55.25,18.26Z"/><path class="cls-3" d="M49.34,6.24A6,6,0,0,0,45,4.44c-2.35,0-5.11,1.25-8,4.15S32.75,16,32,19.51c-.74-3.5-2.21-8.12-5-10.92s-5.66-4.15-8-4.15a6,6,0,0,0-4.32,1.8C11.91,9,12,13.58,17,18.57a16.92,16.92,0,0,0,6,3.58l6.12,1.66c.85.16,1.59.27,2.18.34a5.62,5.62,0,0,0,1.42,0c.59-.07,1.33-.18,2.18-.34L41,22.15a16.92,16.92,0,0,0,6-3.58C52,13.58,52.09,9,49.34,6.24ZM19.73,15.85c-2.23-2.23-4-5.21-2.35-6.89A2.17,2.17,0,0,1,19,8.29c1.44,0,3.37,1.1,5.29,3s3.13,5.37,3.83,8.37C25.1,19,21.66,17.78,19.73,15.85Zm24.54,0C42.34,17.78,38.9,19,35.9,19.68c.7-3,1.9-6.44,3.83-8.37s3.85-3,5.29-3a2.15,2.15,0,0,1,1.6.67C48.29,10.64,46.5,13.62,44.27,15.85Z"/><path class="cls-4" d="M41,18a26.92,26.92,0,0,1-5.14,1.7,30.22,30.22,0,0,1,1-3.4,19.1,19.1,0,0,0-3.86-.6,36.26,36.26,0,0,0-1,3.83,36.26,36.26,0,0,0-1-3.83,19.21,19.21,0,0,0-3.86.6,30.22,30.22,0,0,1,1,3.4A26.92,26.92,0,0,1,23,18,13.08,13.08,0,0,0,19.7,20.6,22,22,0,0,0,23,22.15l6.12,1.66c.85.16,1.59.27,2.18.34a5.62,5.62,0,0,0,1.42,0c.59-.07,1.33-.18,2.18-.34L41,22.15A22,22,0,0,0,44.3,20.6,13.08,13.08,0,0,0,41,18Z"/><path class="cls-5" d="M48.49,59.56h-33A2.52,2.52,0,0,1,13,57.24L10.17,21.93H53.84L51,57.24A2.52,2.52,0,0,1,48.49,59.56Z"/><polygon class="cls-6" points="11.51 38.68 52.49 38.68 53.84 21.93 10.16 21.93 11.51 38.68"/><path class="cls-5" d="M52.89,33.46H11.11a2.53,2.53,0,0,1-2.52-2.3L8,24.68a2.52,2.52,0,0,1,2.51-2.75H53.47A2.52,2.52,0,0,1,56,24.68l-.57,6.48A2.53,2.53,0,0,1,52.89,33.46Z"/><rect class="cls-4" x="26.68" y="21.93" width="10.63" height="37.63"/><polygon class="cls-3" points="37.32 27.47 26.68 24.01 26.68 37.01 37.32 40.47 37.32 27.47"/><polygon class="cls-3" points="26.68 48.87 37.32 52.33 37.32 44.23 26.68 40.77 26.68 48.87"/></g></g></svg>