<svg xmlns="http://www.w3.org/2000/svg" viewBox="0 0 128 128"><defs><style>.cls-1{fill:none;}.cls-2{fill:#1a1a1a;}</style></defs><title>Gift Box Black </title><g id="Layer_2" data-name="Layer 2"><g id="_1-13" data-name="1-13"><rect class="cls-1" width="128" height="128"/><path class="cls-2" d="M26,114.48a5.05,5.05,0,0,0,5,4.65H57.31V77.37H23Z"/><path class="cls-2" d="M70.69,119.13H97a5.05,5.05,0,0,0,5-4.65l3-37.11H70.69Z"/><path class="cls-2" d="M106.94,43.86H83.06A32.54,32.54,0,0,0,94,37.13c10-10,10.2-19.13,4.69-24.64A11.91,11.91,0,0,0,90,8.88c-4.69,0-10.21,2.5-16,8.3C68.42,22.78,65.49,32,64,39c-1.49-7-4.42-16.25-10-21.85-5.8-5.8-11.32-8.31-16-8.3a11.93,11.93,0,0,0-8.64,3.61C23.82,18,24,27.16,34,37.13a32.54,32.54,0,0,0,10.92,6.73H21.06a5.06,5.06,0,0,0-5,5.5l1.16,13a5,5,0,0,0,5,4.6H57.31V43.86H70.69V66.92h35.09a5,5,0,0,0,5-4.6l1.16-13A5.06,5.06,0,0,0,106.94,43.86ZM39.46,31.69c-4.46-4.46-8-10.42-4.69-13.76A4.26,4.26,0,0,1,38,16.57c2.87,0,6.72,2.21,10.56,6.05s6.28,10.73,7.67,16.74C50.19,38,43.32,35.56,39.46,31.69Zm40-9.07c3.84-3.84,7.69-6.05,10.56-6.05a4.26,4.26,0,0,1,3.2,1.36c3.35,3.34-.23,9.3-4.69,13.76C84.68,35.56,77.81,38,71.8,39.36,73.19,33.35,75.6,26.48,79.47,22.62Z"/></g></g></svg>