<svg xmlns="http://www.w3.org/2000/svg" viewBox="0 0 64 64"><defs><style>.cls-1{opacity:0;}.cls-2{fill:#1a1a1a;}.cls-3{fill:#476475;}.cls-4{fill:#324652;}.cls-5{fill:#fec92b;}.cls-6{fill:#fee854;}</style></defs><title>Moon Waning Gibbous Outline</title><g id="Layer_2" data-name="Layer 2"><g id="_101-200" data-name="101-200"><g class="cls-1"><rect class="cls-2" width="64" height="64"/></g><circle class="cls-2" cx="32" cy="32" r="31.5"/><path class="cls-3" d="M32,4.5c4.52,0,8.48,5.3,10.67,13.24a3.17,3.17,0,0,1,1.51-2.36A3.62,3.62,0,0,1,49,17a3.62,3.62,0,0,1-1,5,3.57,3.57,0,0,1-4.66-1.42A56.57,56.57,0,0,1,44.48,32c0,15.19-5.59,27.5-12.48,27.5a27.5,27.5,0,0,0,0-55Zm16.67,39c-2-.86-2.79-3.53-1.74-6s3.52-3.7,5.53-2.84,2.79,3.54,1.74,6S50.68,44.36,48.67,43.5Z"/><path class="cls-4" d="M48,22a3.62,3.62,0,0,0,1-5,3.62,3.62,0,0,0-4.82-1.64,3.17,3.17,0,0,0-1.51,2.36c.26.92.48,1.88.69,2.86A3.57,3.57,0,0,0,48,22Z"/><path class="cls-5" d="M18.36,28c.37-3.14-1.47-5.93-4.09-6.24s-5.06,2-5.43,5.12,1.46,5.93,4.09,6.24S18,31.16,18.36,28Z"/><path class="cls-4" d="M52.46,34.7c-2-.86-4.48.41-5.53,2.84s-.27,5.1,1.74,6,4.48-.4,5.53-2.83S54.47,35.57,52.46,34.7Z"/><path class="cls-6" d="M43.36,20.6a1.53,1.53,0,0,1-.16-.22,4.15,4.15,0,0,1-.53-2.64C40.48,9.8,36.52,4.5,32,4.5a27.5,27.5,0,0,0,0,55c6.89,0,12.48-12.31,12.48-27.5A56.57,56.57,0,0,0,43.36,20.6ZM12.93,33.14C10.3,32.83,8.47,30,8.84,26.9s2.8-5.43,5.43-5.12,4.46,3.1,4.09,6.24S15.56,33.45,12.93,33.14ZM22.19,49l0,.08a3.51,3.51,0,0,1-4.89.65A3.51,3.51,0,0,1,16,45a3.48,3.48,0,0,1,4.84-.67l.05,0A3.52,3.52,0,0,1,22.19,49Zm0-34a3.09,3.09,0,0,1-3.12-1.62c-.65-1.56.59-3.56,2.77-4.47a5,5,0,0,1,3.52-.2A2.57,2.57,0,0,1,27,10.14c.65,1.56-.59,3.56-2.78,4.47A5.6,5.6,0,0,1,22.18,15ZM32.16,56c-3.67,0-6.64-2.23-6.64-5s3-5,6.64-5,6.64,2.23,6.64,5S35.82,56,32.16,56Zm3-24A6.86,6.86,0,1,1,42,25.14,6.86,6.86,0,0,1,35.12,32Z"/><path class="cls-5" d="M35.12,32a6.86,6.86,0,1,0-6.86-6.86A6.86,6.86,0,0,0,35.12,32Z"/><path class="cls-5" d="M43.2,20.38a1.53,1.53,0,0,0,.16.22c-.21-1-.43-1.94-.69-2.86A4.15,4.15,0,0,0,43.2,20.38Z"/><path class="cls-5" d="M32.16,46c-3.67,0-6.64,2.23-6.64,5s3,5,6.64,5,6.64-2.23,6.64-5S35.82,46,32.16,46Z"/><path class="cls-5" d="M20.88,44.3l-.05,0A3.48,3.48,0,0,0,16,45a3.51,3.51,0,0,0,1.27,4.77,3.51,3.51,0,0,0,4.89-.65l0-.08A3.52,3.52,0,0,0,20.88,44.3Z"/><path class="cls-5" d="M27,10.14a2.57,2.57,0,0,0-1.61-1.4,5,5,0,0,0-3.52.2c-2.18.91-3.42,2.91-2.77,4.47A3.09,3.09,0,0,0,22.18,15a5.6,5.6,0,0,0,2-.42C26.37,13.7,27.61,11.7,27,10.14Z"/></g></g></svg>