<svg xmlns="http://www.w3.org/2000/svg" viewBox="0 0 64 64"><defs><style>.cls-1{opacity:0;}.cls-2{fill:#fff;}.cls-3{fill:#fee854;}.cls-4{fill:#fec92b;}.cls-5{fill:#476475;}.cls-6{fill:#324652;}</style></defs><title>Moon Third Quarter</title><g id="Layer_2" data-name="Layer 2"><g id="_101-200" data-name="101-200"><g class="cls-1"><rect class="cls-2" width="64" height="64"/></g><path class="cls-3" d="M25.52,51c0-2.71,2.89-4.91,6.48-5V31.25A6.85,6.85,0,0,1,32,19V4.5a27.5,27.5,0,0,0,0,55V56C28.41,55.91,25.52,53.71,25.52,51ZM12.93,33.14C10.3,32.83,8.47,30,8.84,26.9s2.8-5.43,5.43-5.12,4.45,3.1,4.09,6.24S15.56,33.45,12.93,33.14Zm9.22,15.93a3.51,3.51,0,0,1-4.89.65A3.51,3.51,0,0,1,16,45a3.51,3.51,0,0,1,4.89-.65A3.51,3.51,0,0,1,22.15,49.07Zm-3.1-35.66c-.64-1.56.6-3.56,2.78-4.47s4.48-.37,5.13,1.2-.59,3.56-2.78,4.47S19.7,15,19.05,13.41Z"/><path class="cls-4" d="M28.26,25.14A6.86,6.86,0,0,0,32,31.25V19A6.85,6.85,0,0,0,28.26,25.14Z"/><path class="cls-4" d="M25.52,51c0,2.72,2.89,4.92,6.48,5V46C28.41,46.08,25.52,48.28,25.52,51Z"/><path class="cls-4" d="M20.88,44.3A3.51,3.51,0,0,0,16,45a3.51,3.51,0,0,0,1.27,4.77,3.51,3.51,0,0,0,4.89-.65A3.51,3.51,0,0,0,20.88,44.3Z"/><path class="cls-4" d="M18.36,28c.36-3.14-1.47-5.93-4.09-6.24s-5.06,2-5.43,5.12,1.46,5.93,4.09,6.24S18,31.16,18.36,28Z"/><path class="cls-4" d="M27,10.14C26.31,8.57,24,8,21.83,8.94s-3.42,2.91-2.78,4.47,2.95,2.1,5.13,1.2S27.61,11.7,27,10.14Z"/><path class="cls-5" d="M59.5,32A27.5,27.5,0,0,0,32,4.5V19a6.85,6.85,0,1,1,3.12,13A6.94,6.94,0,0,1,32,31.25V46h.16c3.66,0,6.64,2.23,6.64,5s-3,5-6.64,5H32V59.5A27.5,27.5,0,0,0,59.5,32ZM43.2,20.38a3.62,3.62,0,0,1,1-5A3.62,3.62,0,0,1,49,17a3.62,3.62,0,0,1-1,5A3.62,3.62,0,0,1,43.2,20.38ZM48.67,43.5c-2-.86-2.79-3.53-1.74-6s3.52-3.7,5.53-2.84,2.78,3.54,1.74,6S50.68,44.36,48.67,43.5Z"/><path class="cls-6" d="M35.12,32A6.86,6.86,0,1,0,32,19V31.25A6.94,6.94,0,0,0,35.12,32Z"/><path class="cls-6" d="M48,22a3.62,3.62,0,0,0,1-5,3.62,3.62,0,0,0-4.82-1.64,3.62,3.62,0,0,0-1,5A3.62,3.62,0,0,0,48,22Z"/><path class="cls-6" d="M32.16,56c3.66,0,6.64-2.23,6.64-5s-3-5-6.64-5H32V56Z"/><ellipse class="cls-6" cx="50.56" cy="39.1" rx="4.79" ry="3.96" transform="translate(-5.35 70.08) rotate(-66.71)"/></g></g></svg>