<svg xmlns="http://www.w3.org/2000/svg" viewBox="0 0 128 128"><defs><style>.cls-1{fill:#1a1a1a;}.cls-2{fill:#1778ff;}.cls-3{fill:#37b9ff;}.cls-4{fill:#fff;}.cls-5{fill:#e62e49;}.cls-6{fill:#a72d3e;}.cls-7{fill:#96dbff;}.cls-8{fill:none;}</style></defs><title>Compass Outline </title><g id="Layer_2" data-name="Layer 2"><g id="_1-13" data-name="1-13"><path class="cls-1" d="M126,65.29a70.08,70.08,0,0,0-5-20.72,73.73,73.73,0,0,0-10.85-18.46,70.81,70.81,0,0,0-16.33-14.9A62.47,62.47,0,0,0,73.7,2.47,55,55,0,0,0,61.14,1a52.23,52.23,0,0,0-8.5.7A47.7,47.7,0,0,0,22.58,19.5l-10,12.88c-.43.56-.84,1.12-1.25,1.69s-.8,1.16-1.2,1.77S9.36,37.05,9,37.67s-.72,1.27-1.06,1.91A53.26,53.26,0,0,0,1.89,61.92,60.91,60.91,0,0,0,5.36,85.27a64.5,64.5,0,0,0,12.12,20.92,61.58,61.58,0,0,0,19.41,15.09,58.23,58.23,0,0,0,8.48,3.37,54.12,54.12,0,0,0,8.5,1.88,51.57,51.57,0,0,0,6.89.47l1.46,0a48.86,48.86,0,0,0,8-.9l15.94-3.15a48.72,48.72,0,0,0,10.56-3.38,47.71,47.71,0,0,0,17.12-13.07,52.27,52.27,0,0,0,10.06-19.4A61.13,61.13,0,0,0,126,65.29Z"/><path class="cls-2" d="M105.94,64.23a43.8,43.8,0,0,0-3.11-13.45A46.87,46.87,0,0,0,95.75,38.7a44.74,44.74,0,0,0-10.68-9.58A39.37,39.37,0,0,0,74.5,24.36a33.24,33.24,0,0,0-10.75-1.19,29.35,29.35,0,0,0-10.22,2.42,27.76,27.76,0,0,0-8.81,6.14L33.36,43.45a27.23,27.23,0,0,1,8.19-5.79A28.24,28.24,0,0,1,51,35.21a30.74,30.74,0,0,1,9.95.85,34.78,34.78,0,0,1,9.76,4.13,38.68,38.68,0,0,1,9.81,8.56,40.46,40.46,0,0,1,6.4,10.94,38.73,38.73,0,0,1,2.64,12.25,33.87,33.87,0,0,1-1.72,12.52A30.5,30.5,0,0,1,85,90.67a28,28,0,0,1-4.09,5.16,27.21,27.21,0,0,1-11.1,6.69l15.57-4.88a28.3,28.3,0,0,0,6.4-2.92,27.94,27.94,0,0,0,5.43-4.36,29.65,29.65,0,0,0,4.27-5.64,32.53,32.53,0,0,0,3-6.79A37.62,37.62,0,0,0,105.94,64.23Z"/><path class="cls-3" d="M18.79,37.21l9.9-12.73c-.39.49-.77,1-1.13,1.52s-.73,1.06-1.08,1.61-.7,1.1-1,1.68-.65,1.15-1,1.75L14.9,43.26c.29-.55.59-1.08.9-1.61s.62-1,.95-1.54.65-1,1-1.48S18.44,37.68,18.79,37.21Z"/><path class="cls-2" d="M84.54,115.23l-15.81,3.12a40.42,40.42,0,0,1-6.74.76,44.29,44.29,0,0,1-7.05-.38,45.75,45.75,0,0,1-7.26-1.61,50.09,50.09,0,0,1-7.31-2.91,53.93,53.93,0,0,1-16.93-13.16A57.15,57.15,0,0,1,12.79,82.66a53.18,53.18,0,0,1-3-20.34A45.64,45.64,0,0,1,14.9,43.26L24.49,31a49.46,49.46,0,0,0-5.44,21,60.54,60.54,0,0,0,3.6,22.73,66.08,66.08,0,0,0,12,20.71A61.43,61.43,0,0,0,53.53,110.4a55,55,0,0,0,8.06,3.31,49.68,49.68,0,0,0,8,1.85,45.63,45.63,0,0,0,7.69.47A42.59,42.59,0,0,0,84.54,115.23Z"/><path class="cls-4" d="M35,42.26a28.32,28.32,0,0,1,8.82-10.19,27.85,27.85,0,0,1,11.43-4.65,31.54,31.54,0,0,1,12.36.46,37.77,37.77,0,0,1,12.08,5.27,43.51,43.51,0,0,1,10,9.11A45.88,45.88,0,0,1,96.31,53.6a43.32,43.32,0,0,1,3.06,12.66,37.28,37.28,0,0,1-1.21,13.07,30.85,30.85,0,0,1-5.88,11.36,27.58,27.58,0,0,1-9.84,7.51,28.94,28.94,0,0,1-12.91,2.51,34.68,34.68,0,0,1-14.59-3.87A42.43,42.43,0,0,1,42,86.59,45.51,45.51,0,0,1,33.7,72.34,41.76,41.76,0,0,1,31.23,56.7,33.93,33.93,0,0,1,35,42.26Z"/><path class="cls-3" d="M24.49,31A41.17,41.17,0,0,1,37.31,16.23,40.29,40.29,0,0,1,53.94,9.47a45.71,45.71,0,0,1,18,.67A54.49,54.49,0,0,1,89.47,17.8,62.89,62.89,0,0,1,104,31a66,66,0,0,1,9.69,16.49,62.58,62.58,0,0,1,4.44,18.4,53.84,53.84,0,0,1-1.75,19,44.57,44.57,0,0,1-8.55,16.51A39.88,39.88,0,0,1,93.5,112.37,42.08,42.08,0,0,1,74.73,116a50.58,50.58,0,0,1-21.2-5.62A61.43,61.43,0,0,1,34.67,95.48a66.08,66.08,0,0,1-12-20.71A60.54,60.54,0,0,1,19.05,52,49.46,49.46,0,0,1,24.49,31ZM104.4,77.93a37.62,37.62,0,0,0,1.54-13.7,43.8,43.8,0,0,0-3.11-13.45A46.87,46.87,0,0,0,95.75,38.7a44.74,44.74,0,0,0-10.68-9.58,38.37,38.37,0,0,0-12.8-5.3,32,32,0,0,0-12.85-.1A28.38,28.38,0,0,0,47.84,29a29.31,29.31,0,0,0-8.62,10.73,35.62,35.62,0,0,0-3.39,14.71A43.29,43.29,0,0,0,38.53,70a47,47,0,0,0,8.26,14.2A43.72,43.72,0,0,0,59.64,94.64a36.23,36.23,0,0,0,14.63,4.29,30,30,0,0,0,13.26-2.08,28.13,28.13,0,0,0,10.41-7.33,31,31,0,0,0,6.46-11.59"/><path class="cls-5" d="M76.09,55.48A12.38,12.38,0,0,0,74.5,53L60.19,36a2.57,2.57,0,0,0-1.82,2.46V59.94a14.34,14.34,0,0,0,.7,4.38l11.76-7.4A9.39,9.39,0,0,1,76.09,55.48Z"/><path class="cls-6" d="M76.09,55.48a8.71,8.71,0,0,1,1.61.17l5.23,1.05a14.37,14.37,0,0,0-3.57-5.05L62.68,36.56A2.54,2.54,0,0,0,60.19,36L74.5,53A12.38,12.38,0,0,1,76.09,55.48Z"/><path class="cls-3" d="M82.93,56.7,77.7,55.65a8.71,8.71,0,0,0-1.61-.17,11.74,11.74,0,0,1,1,3.23l4.71,27.72a2.53,2.53,0,0,0,1.46-2.24L84,62.7A14.21,14.21,0,0,0,82.93,56.7Z"/><path class="cls-7" d="M76.09,55.48a9.39,9.39,0,0,0-5.26,1.44l-11.76,7.4a14.28,14.28,0,0,0,3.61,5.82L78.93,86a2.55,2.55,0,0,0,2.91.48L77.13,58.71A11.74,11.74,0,0,0,76.09,55.48Z"/><rect class="cls-8" width="128" height="128"/></g></g></svg>