<svg xmlns="http://www.w3.org/2000/svg" viewBox="0 0 128 128"><defs><style>.cls-1{fill:#1778ff;}.cls-2{fill:#37b9ff;}.cls-3{fill:#fff;}.cls-4{fill:#e62e49;}.cls-5{fill:#a72d3e;}.cls-6{fill:#96dbff;}.cls-7{fill:none;}</style></defs><title>Compass </title><g id="Layer_2" data-name="Layer 2"><g id="_1-13" data-name="1-13"><path class="cls-1" d="M107.17,64.23A45.83,45.83,0,0,0,104,50.39,48.44,48.44,0,0,0,96.67,38a45.87,45.87,0,0,0-11-9.86A40.48,40.48,0,0,0,74.8,23.2,34.29,34.29,0,0,0,63.74,22a30.29,30.29,0,0,0-10.51,2.49,28.75,28.75,0,0,0-9.08,6.33L32.47,42.85a27.87,27.87,0,0,1,8.42-6,29.13,29.13,0,0,1,9.75-2.52,31.68,31.68,0,0,1,10.24.87,36.08,36.08,0,0,1,10.05,4.25A40,40,0,0,1,81,48.3a42.05,42.05,0,0,1,6.59,11.26,39.9,39.9,0,0,1,2.72,12.61,35,35,0,0,1-1.77,12.89,30.65,30.65,0,0,1-3,6.38,28.06,28.06,0,0,1-15.63,12.21l16-5a29,29,0,0,0,12.18-7.49,30,30,0,0,0,4.39-5.81,32.86,32.86,0,0,0,3.06-7A38.75,38.75,0,0,0,107.17,64.23Z"/><path class="cls-2" d="M17.47,36.43,27.66,23.32c-.4.51-.79,1-1.17,1.57s-.75,1.09-1.11,1.65-.71,1.14-1.05,1.73-.68,1.19-1,1.81L13.46,42.65q.45-.84.93-1.65c.31-.54.64-1.07,1-1.59s.68-1,1-1.52S17.1,36.91,17.47,36.43Z"/><path class="cls-1" d="M85.15,116.73l-16.28,3.21a41.89,41.89,0,0,1-6.94.78,44.6,44.6,0,0,1-7.26-.39,47.19,47.19,0,0,1-7.46-1.66,50.38,50.38,0,0,1-7.53-3,55.65,55.65,0,0,1-17.43-13.55,58.8,58.8,0,0,1-11-18.92A55.13,55.13,0,0,1,8.17,62.27a47,47,0,0,1,5.29-19.62l9.87-12.57a50.91,50.91,0,0,0-5.59,21.61,62.23,62.23,0,0,0,3.7,23.39A67.83,67.83,0,0,0,33.81,96.4a63.18,63.18,0,0,0,19.41,15.35,56.59,56.59,0,0,0,8.3,3.42,51.42,51.42,0,0,0,8.19,1.89,47.39,47.39,0,0,0,7.92.49A44.27,44.27,0,0,0,85.15,116.73Z"/><path class="cls-3" d="M34.12,41.62A29.22,29.22,0,0,1,43.2,31.14,28.56,28.56,0,0,1,55,26.35a32.43,32.43,0,0,1,12.72.48,38.73,38.73,0,0,1,12.43,5.42A44.71,44.71,0,0,1,90.4,41.62,47.32,47.32,0,0,1,97.26,53.3a44.18,44.18,0,0,1,3.14,13,38,38,0,0,1-1.24,13.46,31.71,31.71,0,0,1-6,11.69A28.35,28.35,0,0,1,83,99.2a29.74,29.74,0,0,1-13.29,2.58,35.61,35.61,0,0,1-15-4A43.4,43.4,0,0,1,41.33,87.25a46.66,46.66,0,0,1-8.51-14.67,43,43,0,0,1-2.55-16.09A35,35,0,0,1,34.12,41.62Z"/><path class="cls-2" d="M23.33,30.08a42.43,42.43,0,0,1,13.2-15.25,41.63,41.63,0,0,1,17.11-7,47.26,47.26,0,0,1,18.49.69,56.26,56.26,0,0,1,18.08,7.89,64.68,64.68,0,0,1,14.94,13.63,68.12,68.12,0,0,1,10,17A64.91,64.91,0,0,1,119.7,66a55.53,55.53,0,0,1-1.81,19.56,45.93,45.93,0,0,1-8.8,17,41.12,41.12,0,0,1-14.73,11.25,43.29,43.29,0,0,1-19.31,3.75,52.11,52.11,0,0,1-21.83-5.79A63.18,63.18,0,0,1,33.81,96.4,67.83,67.83,0,0,1,21.44,75.08a62.23,62.23,0,0,1-3.7-23.39A50.91,50.91,0,0,1,23.33,30.08Zm82.25,48.26a38.75,38.75,0,0,0,1.59-14.11A45.83,45.83,0,0,0,104,50.39,48.61,48.61,0,0,0,96.67,38a45.87,45.87,0,0,0-11-9.86,39.57,39.57,0,0,0-13.18-5.45,32.6,32.6,0,0,0-13.23-.1,28.94,28.94,0,0,0-11.91,5.38A30.09,30.09,0,0,0,38.5,39,36.5,36.5,0,0,0,35,54.11,44.73,44.73,0,0,0,37.78,70.2a48.62,48.62,0,0,0,8.5,14.61A45.24,45.24,0,0,0,59.51,95.54,37.38,37.38,0,0,0,74.57,100a30.86,30.86,0,0,0,13.65-2.14,28.81,28.81,0,0,0,10.71-7.55,31.88,31.88,0,0,0,6.65-11.92"/><path class="cls-4" d="M76.45,55.23a12,12,0,0,0-1.65-2.54L60.08,35.19a2.64,2.64,0,0,0-1.87,2.54V59.82a14.53,14.53,0,0,0,.72,4.51L71,56.71A9.74,9.74,0,0,1,76.45,55.23Z"/><path class="cls-5" d="M76.45,55.23a9.47,9.47,0,0,1,1.66.18l5.37,1.07a14.69,14.69,0,0,0-3.67-5.19L62.64,35.76a2.6,2.6,0,0,0-2.56-.57L74.8,52.69A12,12,0,0,1,76.45,55.23Z"/><path class="cls-2" d="M83.48,56.48l-5.37-1.07a9.47,9.47,0,0,0-1.66-.18,12.4,12.4,0,0,1,1.07,3.32l4.84,28.53a2.62,2.62,0,0,0,1.51-2.3l.75-22.12A14.58,14.58,0,0,0,83.48,56.48Z"/><path class="cls-6" d="M76.45,55.23A9.74,9.74,0,0,0,71,56.71l-12.1,7.62a14.71,14.71,0,0,0,3.71,6L79.37,86.59a2.6,2.6,0,0,0,3,.49L77.52,58.55A12.4,12.4,0,0,0,76.45,55.23Z"/><rect class="cls-7" width="128" height="128"/></g></g></svg>