<svg xmlns="http://www.w3.org/2000/svg" viewBox="0 0 128 128"><defs><style>.cls-1{fill:#1a1a1a;}.cls-2{fill:none;}</style></defs><title>Compass Black </title><g id="Layer_2" data-name="Layer 2"><g id="_1-13" data-name="1-13"><path class="cls-1" d="M119.69,66c-2-25.11-19.79-49-44.17-56.51-12.26-3.76-25.92-2.8-37,4a45.1,45.1,0,0,0-11.7,10.85c-4,5.11-8.4,10.1-11.83,15.59C1.46,61.61,9.05,91,27.41,107.36,36.72,115.68,49,121,61.57,120.71c6.66-.14,13.37-2,19.88-3.27,8.33-1.64,16.1-4.24,22.7-9.9,9.28-8,14.43-19.69,15.51-31.73A56.73,56.73,0,0,0,119.69,66ZM44.9,30.06c13.3-8,29.89-3.47,40.76,6.49s16.92,25.33,14.26,39.89A31.82,31.82,0,0,1,90.66,94a23.87,23.87,0,0,1-8.11,5.31c-3,1-6.9.78-10,.39C58.29,98,46.12,87.64,39.86,75A44.71,44.71,0,0,1,35.2,50.87a34.83,34.83,0,0,1,3.14-11.59,36.23,36.23,0,0,1,3.06-5.17C42.32,32.83,43.54,30.88,44.9,30.06Z"/><rect class="cls-2" width="128" height="128"/><path class="cls-1" d="M84.44,67.73c.16-4.72.57-9.3-2.15-13.52-2-3.12-5.41-5.58-8.13-8L63.85,36.84c-1-.9-1.94-2-3.47-1.72-2,.37-2.18,2.14-2.18,3.77v15.3c0,5.87-.18,11.62,4.44,16.12C68,75.56,73.36,80.94,78.86,86.09c1.41,1.32,3.78,1.92,4.78-.34.47-1,.28-2.6.32-3.72Zm-5-1.23-.37,10.62a1,1,0,0,1-1.69.68c-2-1.93-4-3.88-5.91-5.79l-4.64-4.55,12.61-5.88A47.22,47.22,0,0,1,79.49,66.5Z"/></g></g></svg>