<?xml version="1.0" encoding="UTF-8"?>
<svg id="Layer_2" data-name="Layer 2" xmlns="http://www.w3.org/2000/svg" viewBox="0 0 64 64">
  <defs>
    <style>
      .cls-1 {
        fill: #1a1a1a;
        fill-rule: evenodd;
      }

      .cls-2 {
        fill: rgba(26, 26, 26, 0);
      }
    </style>
  </defs>
  <g id="BW">
    <g>
      <rect class="cls-2" width="64" height="64"/>
      <path class="cls-1" d="M49.73,9.47h-3.11c-1.66,0-3,1.34-3,3v15.8L16.15,10c-.51-.34-1.11-.52-1.72-.53-1.73-.01-3.15,1.38-3.16,3.12V51.12c0,.62,.18,1.23,.53,1.75,.96,1.44,2.91,1.83,4.35,.87l27.47-18.3v15.83c0,1.66,1.34,3,3,3h3.11c1.66,0,3-1.34,3-3V12.47c0-1.66-1.34-3-3-3Z"/>
    </g>
  </g>
</svg>