<svg xmlns="http://www.w3.org/2000/svg" viewBox="0 0 64 64"><defs><style>.cls-1,.cls-2{fill:#fff;}.cls-1{opacity:0;}</style></defs><title>Leaf White</title><g id="Layer_2" data-name="Layer 2"><g id="Layer_2-2" data-name="Layer 2"><rect class="cls-1" width="64" height="64"/><path class="cls-2" d="M53.85,18.05a18.82,18.82,0,0,0-2.24-1.57A22.12,22.12,0,0,0,57.85,14a2,2,0,0,0,.1-3.33,18.69,18.69,0,0,0-9.64-2.94,2,2,0,0,0-2,2.13c.14,1.91.3,3.35.45,4.42a18.84,18.84,0,0,0-21.49,7.81c-3.46,5.39-6.45,11.85-13.52,13-.62.09-7.07.16-7.23-1.13.69,10.93,7,19.2,17.75,21.57a29.12,29.12,0,0,0,16.86-1c6.76-2.65,14.57-8.21,18.06-14.69C61,32.8,60.29,23.33,53.85,18.05Z"/></g></g></svg>