<?xml version="1.0" encoding="UTF-8"?>
<svg id="Layer_2" data-name="Layer 2" xmlns="http://www.w3.org/2000/svg" viewBox="0 0 64 64">
  <defs>
    <style>
      .cls-1 {
        fill: #fec92b;
      }

      .cls-1, .cls-2, .cls-3, .cls-4, .cls-5, .cls-6, .cls-7 {
        stroke-width: 0px;
      }

      .cls-2, .cls-3 {
        fill: #1a1a1a;
      }

      .cls-3 {
        opacity: 0;
      }

      .cls-4 {
        fill: #d769ff;
      }

      .cls-5 {
        fill: #fc9504;
      }

      .cls-6 {
        fill: #fff;
      }

      .cls-7 {
        fill: #a0f;
      }
    </style>
  </defs>
  <g id="Exports_1" data-name="Exports 1">
    <g>
      <rect class="cls-3" width="64" height="64"/>
      <g>
        <path class="cls-2" d="M55.4,28.88l2.88-6.96c.97-2.35.12-4.79-2.53-7.26-.9-4.69-5.18-9.24-11.29-11.77-5.83-2.42-11.9-2.33-15.88.07-2.65-.29-6.74-.21-8.18,3.27l-2.88,6.96c-.52,1.25-.7,3.06.74,5.21l-5.47,13.2c-2.54.51-3.69,1.91-4.21,3.17l-2.88,6.96c-.24.57-.36,1.19-.37,1.81,0,.18,0,.37.02.54.03.36.1.72.22,1.1.04.14.09.27.14.4.12.3.26.6.41.86.04.08.09.17.13.23.17.28.38.57.62.87.07.09.15.18.24.28.14.16.29.33.48.53l.27.27c.15.15.32.31.53.5.08.07.16.14.24.22.17.15.35.3.54.45,1.1,4.51,5.34,8.87,11.18,11.29s12.35,2.34,16.3-.33c3.63.13,5.95-.99,6.93-3.34l2.88-6.96c.52-1.25.7-3.06-.74-5.21l5.47-13.2c2.54-.51,3.69-1.91,4.21-3.17Z"/>
        <g>
          <ellipse class="cls-4" cx="40.04" cy="13.55" rx="7.53" ry="12.49" transform="translate(12.2 45.35) rotate(-67.5)"/>
          <g>
            <path class="cls-7" d="M40.78,10.59c-8.42-3.49-15.89-4.76-16.69-2.83l-2.88,6.96c-.8,1.92,5.38,6.31,13.8,9.79,8.42,3.49,15.89,4.76,16.69,2.83l2.88-6.96c.8-1.92-5.38-6.31-13.8-9.79Z"/>
            <path class="cls-7" d="M28.96,39.13c-8.42-3.49-15.89-4.76-16.69-2.83l-2.88,6.96c-.4.97.96,2.56,3.49,4.34.07,3.52,3.64,7.58,9,9.8,5.49,2.27,11.03,1.86,13.48-.76,2.49.32,4.17.1,4.52-.75l2.88-6.96c.8-1.92-5.38-6.31-13.8-9.79Z"/>
          </g>
          <path class="cls-4" d="M24.1,7.76l-2.88,6.96c-.8,1.92,5.38,6.31,13.8,9.79,2.79,1.15,5.46,2.06,7.83,2.69,2.64-4.11,4.8-8.27,6.46-12.33-2.32-1.43-5.25-2.92-8.52-4.28-8.42-3.49-15.89-4.76-16.69-2.83Z"/>
          <path class="cls-4" d="M12.28,36.3l-2.88,6.96c-.6,1.46,2.81,4.34,8.17,7.16,4.67-1.85,9.67-5.26,14.48-9.92-.99-.46-2.02-.92-3.09-1.37-8.42-3.49-15.89-4.76-16.69-2.83Z"/>
          <g>
            <path class="cls-1" d="M37.32,18.94c-7.05-2.92-13.16-4.36-13.64-3.2l-8.94,21.58c-.48,1.15,4.85,4.46,11.91,7.38s13.16,4.36,13.64,3.2l8.94-21.58c.48-1.15-4.85-4.46-11.91-7.38Z"/>
            <path class="cls-6" d="M38.06,32.75l-3.45-1.43,2.26-5.46c.41-.98-.64-1.93-1.57-1.43l-8.8,4.69c-.84.45-.78,1.67.1,2.04l3.45,1.43-2.26,5.46c-.41.98.64,1.93,1.57,1.43l8.8-4.69c.84-.45.78-1.67-.1-2.04Z"/>
          </g>
          <path class="cls-5" d="M47.34,24.12c-1.18,2.13-2.49,4.25-3.92,6.36-4.18,6.13-8.9,11.35-13.71,15.42,5.68,2.09,10.17,2.99,10.58,2.01l8.94-21.58c.19-.45-.53-1.24-1.89-2.2Z"/>
        </g>
      </g>
    </g>
  </g>
</svg>