<?xml version="1.0" encoding="UTF-8"?>
<svg id="Layer_2" data-name="Layer 2" xmlns="http://www.w3.org/2000/svg" viewBox="0 0 64 64">
  <defs>
    <style>
      .cls-1 {
        opacity: 0;
      }

      .cls-2 {
        fill: #fff;
        stroke-width: 0px;
      }
    </style>
  </defs>
  <g id="Exports_1" data-name="Exports 1">
    <g>
      <g class="cls-1">
        <rect class="cls-2" width="64" height="64"/>
      </g>
      <g>
        <path class="cls-2" d="M38.9,32.87l-3.95-1.64,2.59-6.24c.46-1.12-.73-2.2-1.8-1.63l-10.07,5.37c-.96.51-.89,1.91.11,2.33l3.95,1.64-2.59,6.24c-.46,1.12.73,2.2,1.8,1.63l10.07-5.37c.96-.51.89-1.91-.11-2.33Z"/>
        <path class="cls-2" d="M51.93,16.66c.12-3.58-3.51-7.8-9-10.07-5.35-2.22-10.75-1.87-13.29.57-3.05-.52-5.14-.36-5.54.6l-2.88,6.96c-.29.7.35,1.73,1.69,2.92l-7.37,17.79c-1.78-.1-2.97.17-3.26.87l-2.88,6.96c-.4.97.96,2.56,3.49,4.34.07,3.52,3.64,7.58,9,9.8,5.49,2.27,11.03,1.86,13.48-.76,2.49.32,4.17.1,4.52-.75l2.88-6.96c.29-.7-.35-1.73-1.69-2.92l7.37-17.79c1.78.1,2.97-.17,3.26-.87l2.88-6.96c.35-.85-.68-2.2-2.66-3.73ZM36.97,48.05c-2.54-.49-6.25-1.66-10.3-3.34s-7.51-3.47-9.65-4.92l10.01-24.17c2.54.49,6.26,1.66,10.3,3.34,4.04,1.67,7.51,3.47,9.65,4.92l-10.02,24.18Z"/>
      </g>
    </g>
  </g>
</svg>