<svg xmlns="http://www.w3.org/2000/svg" viewBox="0 0 64 64"><defs><style>.cls-1{opacity:0;}.cls-2{fill:#fff;}.cls-3{fill:#0049c7;}.cls-4{fill:#1778ff;}.cls-5{fill:#37b9ff;}.cls-6{fill:#96dbff;}</style></defs><title>Gem Blue</title><g id="Layer_2" data-name="Layer 2"><g id="_001-100" data-name="001-100"><g class="cls-1"><rect class="cls-2" width="64" height="64"/></g><polygon class="cls-3" points="32 54.03 43.95 34.75 60 26.03 32 54.03"/><polygon class="cls-4" points="41.01 16.4 48.54 12.54 60 26.03 43.95 34.75 41.01 16.4"/><polygon class="cls-5" points="32 54.03 20.05 34.75 4 26.03 32 54.03"/><polygon class="cls-5" points="41.01 16.4 32 16.4 22.99 16.4 20.05 34.75 32 34.75 43.95 34.75 41.01 16.4"/><polygon class="cls-6" points="22.99 16.4 15.46 12.54 4 26.03 20.05 34.75 22.99 16.4"/><polygon class="cls-4" points="32 34.75 20.05 34.75 32 54.03 43.95 34.75 32 34.75"/><polygon class="cls-5" points="38.62 9.97 32 9.97 25.39 9.97 15.46 12.54 22.99 16.4 32 16.4 41.01 16.4 48.54 12.54 38.62 9.97"/><polygon class="cls-6" points="20.05 34.75 24.49 18.23 41.01 16.4 22.99 16.4 15.46 12.54 22.29 17.99 20.05 34.75"/></g></g></svg>