<svg xmlns="http://www.w3.org/2000/svg" viewBox="0 0 64 64"><defs><style>.cls-1,.cls-2{fill:#1a1a1a;}.cls-1{opacity:0;}.cls-3{fill:#800d2d;}.cls-4{fill:#a72d3e;}.cls-5{fill:#e62e49;}.cls-6{fill:#ff8769;}</style></defs><title>Gem Red Outline</title><g id="Layer_2" data-name="Layer 2"><g id="_001-100" data-name="001-100"><rect class="cls-1" width="64" height="64"/><path class="cls-2" d="M62.68,23.54,51.35,10.22a3.93,3.93,0,0,0-2-1.27l-9.8-2.54a4.19,4.19,0,0,0-1-.12H25.46a4.19,4.19,0,0,0-1,.12L14.67,9a3.93,3.93,0,0,0-2,1.27L1.32,23.54a4,4,0,0,0,.22,5.35L29.21,56.56a4,4,0,0,0,5.58,0L62.46,28.89A4,4,0,0,0,62.68,23.54Z"/><polygon class="cls-3" points="32 53.76 43.81 34.72 59.67 26.1 32 53.76"/><polygon class="cls-4" points="40.9 16.59 48.34 12.78 59.67 26.1 43.81 34.72 40.9 16.59"/><polygon class="cls-5" points="32 53.76 20.2 34.72 4.33 26.1 32 53.76"/><polygon class="cls-5" points="40.9 16.59 32 16.59 23.1 16.59 20.2 34.72 32 34.72 43.81 34.72 40.9 16.59"/><polygon class="cls-6" points="23.1 16.59 15.66 12.78 4.33 26.1 20.2 34.72 23.1 16.59"/><polygon class="cls-4" points="32 34.72 20.2 34.72 32 53.76 43.81 34.72 32 34.72"/><polygon class="cls-5" points="38.54 10.24 32 10.24 25.46 10.24 15.66 12.78 23.1 16.59 32 16.59 40.9 16.59 48.34 12.78 38.54 10.24"/><polygon class="cls-6" points="20.2 34.72 24.58 18.4 40.9 16.59 23.1 16.59 15.66 12.78 22.41 18.16 20.2 34.72"/></g></g></svg>