<svg xmlns="http://www.w3.org/2000/svg" viewBox="0 0 64 64"><defs><style>.cls-1{opacity:0;}.cls-2{fill:#fff;}.cls-3{fill:#476475;}.cls-4{fill:#f2f2f2;}.cls-5{fill:#7b97a6;}.cls-6{fill:#324652;}.cls-7{fill:#d1864b;}.cls-7,.cls-8{fill-rule:evenodd;}.cls-8{fill:#ebb369;}</style></defs><title>Flag Checkered</title><g id="Layer_2" data-name="Layer 2"><g id="_001-100" data-name="001-100"><g class="cls-1"><rect class="cls-2" width="64" height="64"/></g><path class="cls-3" d="M45.5,17.37A27.44,27.44,0,0,0,53,16.71c-.26-1.57-.51-3.16-.73-4.74,0,0,0,.07,0,.1C49.93,12.11,47.08,13.18,45.5,17.37Z"/><path class="cls-4" d="M45.5,17.37a25.89,25.89,0,0,0-1.18,9.76,31.58,31.58,0,0,0,10.46-.95c-.56-2.8-1.17-6.07-1.74-9.47A27.44,27.44,0,0,1,45.5,17.37Z"/><path class="cls-2" d="M48.34,8.74l1.19-.07Z"/><path class="cls-2" d="M39.92,8.5h0c.41.06.85.12,1.3.16C40.77,8.62,40.33,8.56,39.92,8.5Z"/><path class="cls-2" d="M41.22,8.66c.46.05.93.08,1.42.1C42.15,8.74,41.68,8.71,41.22,8.66Z"/><path class="cls-2" d="M52.31,12c-.11-.72-.2-1.43-.3-2.15a1.34,1.34,0,0,0-.17-.51,1.34,1.34,0,0,1,.17.51C52.11,10.54,52.2,11.25,52.31,12Z"/><path class="cls-2" d="M47.69,8.76c-1.34.06-2.85.08-4.32,0C44.84,8.84,46.35,8.82,47.69,8.76Z"/><path class="cls-3" d="M56.38,33.71c-.3-1.3-.9-4-1.6-7.53a31.58,31.58,0,0,1-10.46.95c-1.35-.07-2.82-.21-4.4-.44V37.52s9.88,2.44,16-2.4A1.43,1.43,0,0,0,56.38,33.71Z"/><path class="cls-5" d="M52.32,12.07s0-.07,0-.1c-.11-.72-.2-1.43-.3-2.15a1.34,1.34,0,0,0-.17-.51,1.38,1.38,0,0,0-1.31-.71l-1,.07-1.19.07-.65,0c-1.34.06-2.85.08-4.32,0-.25,0-.49,0-.73,0-.49,0-1,0-1.42-.1s-.89-.1-1.3-.16v8.32a44.73,44.73,0,0,0,5.58.55C47.08,13.18,49.93,12.11,52.32,12.07Z"/><path class="cls-2" d="M45.5,17.37a44.73,44.73,0,0,1-5.58-.55v9.87c1.58.23,3,.37,4.4.44A25.89,25.89,0,0,1,45.5,17.37Z"/><path class="cls-6" d="M45.59,32.14s.59,1.21-1.09,2.89a12.16,12.16,0,0,1-4.58,2.49l-3.56-8.76,8-1Z"/><path class="cls-4" d="M43.5,14.3c-.29-1.46-.55-2.69-.76-3.6a5.63,5.63,0,0,0-2.12-3.28A9.42,9.42,0,0,0,30.48,6.21l-.09,0c.43,2.27.91,4.9,1.43,7.77A14.35,14.35,0,0,1,43.5,14.3Z"/><path class="cls-3" d="M31.82,14c.51,2.85,1,5.92,1.58,9.1a13.1,13.1,0,0,1,11.48-.31c-.41-3.21-.92-6.17-1.38-8.51A14.35,14.35,0,0,0,31.82,14Z"/><path class="cls-3" d="M31.74,14.06l.08,0c-.52-2.87-1-5.5-1.43-7.77-6.68,3.22-17.73.66-17.73.66l1.53,7.7C17.65,15.28,26.2,16.55,31.74,14.06Z"/><path class="cls-4" d="M44.88,22.81a13.1,13.1,0,0,0-11.48.31C34,26.5,34.52,30,35.05,33.49c1.09-.39,2.2-.83,3.33-1.35,6.49-3.05,7.21,0,7.21,0A90.25,90.25,0,0,0,44.88,22.81Z"/><path class="cls-4" d="M33.29,23.18l.11-.06c-.54-3.18-1.07-6.25-1.58-9.1l-.08,0c-5.54,2.49-14.09,1.22-17.55.55l2.19,11A25.28,25.28,0,0,0,33.29,23.18Z"/><path class="cls-3" d="M33.29,23.18a25.28,25.28,0,0,1-16.91,2.41l2,10a38.82,38.82,0,0,0,16.68-2.11C34.52,30,34,26.5,33.4,23.12Z"/><path class="cls-7" d="M11.5,4.67c-2.32.41-4.06,1.49-3.9,2.4l9.25,51.37c.16.91,2.17,1.31,4.49.89s4.07-1.49,3.91-2.4L16,5.56C15.84,4.65,13.82,4.25,11.5,4.67Z"/><path class="cls-8" d="M16,5.56c-.16-.91-2.18-1.31-4.5-.89A8.88,8.88,0,0,0,10,5.05a159.53,159.53,0,0,0,2.44,18.21c3,16.16,7.49,28.89,9.94,28.43.66-.12,1.11-1.21,1.35-3Z"/></g></g></svg>