<svg xmlns="http://www.w3.org/2000/svg" viewBox="0 0 64 64"><defs><style>.cls-1{opacity:0;}.cls-2{fill:#fff;}.cls-3{fill:#1778ff;}.cls-4{fill:#37b9ff;}.cls-5{fill:#0049c7;}.cls-6{fill:#d1864b;}.cls-6,.cls-7{fill-rule:evenodd;}.cls-7{fill:#ebb369;}</style></defs><title>Flag Blue</title><g id="Layer_2" data-name="Layer 2"><g id="_001-100" data-name="001-100"><g class="cls-1"><rect class="cls-2" width="64" height="64"/></g><path class="cls-3" d="M39.92,37.52s9.88,2.44,16-2.4a1.43,1.43,0,0,0,.5-1.41c-.69-3-3.07-14-4.37-23.89A1.4,1.4,0,0,0,50.53,8.6a54.19,54.19,0,0,1-10.61-.1Z"/><path class="cls-4" d="M52.32,12.07c-.11-.75-.21-1.5-.31-2.25A1.4,1.4,0,0,0,50.53,8.6a54.19,54.19,0,0,1-10.61-.1V29.44l4.58.6C43.2,15,48.38,12.14,52.32,12.07Z"/><path class="cls-5" d="M45.59,32.14s.59,1.21-1.09,2.89a12.16,12.16,0,0,1-4.58,2.49l-3.56-8.76,8-1Z"/><path class="cls-3" d="M42.74,10.7a5.63,5.63,0,0,0-2.12-3.28A9.42,9.42,0,0,0,30.48,6.21c-6.66,3.28-17.82.7-17.82.7L18.37,35.6a38.89,38.89,0,0,0,20-3.46c6.5-3.05,7.22,0,7.22,0A114,114,0,0,0,42.74,10.7Z"/><path class="cls-6" d="M11.5,4.67c-2.32.41-4.06,1.49-3.9,2.4l9.25,51.37c.16.91,2.17,1.31,4.49.89s4.07-1.49,3.91-2.4L16,5.56C15.84,4.65,13.82,4.25,11.5,4.67Z"/><path class="cls-7" d="M16,5.56c-.16-.91-2.18-1.31-4.5-.89A8.88,8.88,0,0,0,10,5.05a159.53,159.53,0,0,0,2.44,18.21c3,16.16,7.49,28.89,9.94,28.43.66-.12,1.11-1.21,1.35-3Z"/></g></g></svg>