<svg xmlns="http://www.w3.org/2000/svg" viewBox="0 0 64 64"><defs><style>.cls-1,.cls-2{fill:#fff;}.cls-1{opacity:0;}.cls-2{fill-rule:evenodd;}</style></defs><title>Flag White </title><g id="Layer_2" data-name="Layer 2"><g id="Finals"><rect class="cls-1" width="64" height="64"/><path class="cls-2" d="M56.38,33.71c-.64-2.82-2.74-12.44-4.07-21.75-.11-.71-.21-1.43-.3-2.14A1.4,1.4,0,0,0,50.53,8.6l-.47,0c-1.33.09-3.25.18-5.22.18-1,0-2,0-3-.11a5.79,5.79,0,0,0-1.23-1.29A9.42,9.42,0,0,0,30.48,6.21C26.25,8.3,20.2,8,16.35,7.53l-.35-2a.67.67,0,0,0-.15-.32,1.72,1.72,0,0,0-.73-.48,7.47,7.47,0,0,0-3.62-.09,6.5,6.5,0,0,0-.79.17l-.4.12-.3.09h0c-1.53.52-2.55,1.32-2.42,2l9.25,51.37c.16.91,2.17,1.31,4.49.89s4.07-1.49,3.9-2.4l-3.8-21.16a39.68,39.68,0,0,0,16.39-3.4l2.09,5.15s9.88,2.44,16-2.4A1.43,1.43,0,0,0,56.38,33.71Z"/></g></g></svg>