<svg xmlns="http://www.w3.org/2000/svg" viewBox="0 0 64 64"><defs><style>.cls-1,.cls-2{fill:#1a1a1a;}.cls-1{opacity:0;}.cls-2,.cls-6,.cls-7{fill-rule:evenodd;}.cls-3{fill:#e62e49;}.cls-4{fill:#f66;}.cls-5{fill:#a72d3e;}.cls-6{fill:#d1864b;}.cls-7{fill:#ebb369;}</style></defs><title>Flag Outline </title><g id="Layer_2" data-name="Layer 2"><g id="Finals"><rect class="cls-1" width="64" height="64"/><path class="cls-2" d="M19.57,63.5c-5.45,0-6.48-3.33-6.66-4.35L3.66,7.78c-.38-2.15.71-5,4.89-6.45l.18-.07.37-.11.13,0L9.7,1c.35-.09.71-.17,1.09-.24A14.42,14.42,0,0,1,13.28.5c3.62,0,5.58,1.57,6.34,3.32.68,0,1.34.06,2,.06a16.69,16.69,0,0,0,7.12-1.26,13,13,0,0,1,5.81-1.4,14.38,14.38,0,0,1,8.49,3c.24.19.48.38.71.59l1.13,0H45c1.83,0,3.62-.09,4.8-.17l.46,0h.38A5.41,5.41,0,0,1,56,9.31c.09.69.19,1.39.29,2.09,1.31,9.18,3.4,18.73,4,21.43a5.47,5.47,0,0,1-1.9,5.42c-3.2,2.54-7.6,3.89-12.72,3.89h0a30.54,30.54,0,0,1-6.7-.73A4,4,0,0,1,36.21,39l-.61-1.5a43.74,43.74,0,0,1-9.42,2l3,16.67c.6,3.34-2.26,6.18-7.13,7.05A14.22,14.22,0,0,1,19.57,63.5Z"/><path class="cls-3" d="M39.92,37.52s9.88,2.44,16-2.4a1.43,1.43,0,0,0,.5-1.41c-.69-3-3.07-14-4.37-23.89A1.4,1.4,0,0,0,50.53,8.6a54.19,54.19,0,0,1-10.61-.1Z"/><path class="cls-4" d="M52.32,12.07c-.11-.75-.21-1.5-.31-2.25A1.4,1.4,0,0,0,50.53,8.6a54.19,54.19,0,0,1-10.61-.1V29.44l4.58.6C43.2,15,48.38,12.14,52.32,12.07Z"/><path class="cls-5" d="M45.59,32.14s.59,1.21-1.09,2.89a12.16,12.16,0,0,1-4.58,2.49l-3.56-8.76,8-1Z"/><path class="cls-3" d="M42.74,10.7a5.63,5.63,0,0,0-2.12-3.28A9.42,9.42,0,0,0,30.48,6.21c-6.66,3.28-17.82.7-17.82.7L18.37,35.6a38.89,38.89,0,0,0,20-3.46c6.5-3.05,7.22,0,7.22,0A114,114,0,0,0,42.74,10.7Z"/><path class="cls-6" d="M11.5,4.67c-2.32.41-4.06,1.49-3.9,2.4l9.25,51.37c.16.91,2.17,1.31,4.49.89s4.07-1.49,3.91-2.4L16,5.56C15.84,4.65,13.82,4.25,11.5,4.67Z"/><path class="cls-7" d="M16,5.56c-.16-.91-2.18-1.31-4.5-.89A8.88,8.88,0,0,0,10,5.05a159.53,159.53,0,0,0,2.44,18.21c3,16.16,7.49,28.89,9.94,28.43.66-.12,1.11-1.21,1.35-3Z"/></g></g></svg>