<svg xmlns="http://www.w3.org/2000/svg" viewBox="0 0 64 64"><defs><style>.cls-1,.cls-5{fill:#fff;}.cls-1{opacity:0;}.cls-2{fill:#bfd9e6;}.cls-3{fill:#7b97a6;}.cls-4{fill:#99bccf;}.cls-6{fill:#476475;}</style></defs><title>Fish</title><g id="Layer_2" data-name="Layer 2"><g id="Finals"><rect class="cls-1" width="64" height="64"/><path class="cls-2" d="M13.47,40s-4.37-1.26-7.28.59C1.13,43.77,8.3,57,15.38,53.43c1.85-1,3.18-8.26,3.18-8.26Z"/><path class="cls-2" d="M20.91,30.44c3.88,3.45,7.14,2.81,11.22-1.78s8.3-11.24,4.41-14.7-14.38-2.4-18.47,2.19S17,27,20.91,30.44Z"/><path class="cls-3" d="M57.9,12.28a2,2,0,0,0-1.29-1.12C51.22,9.71,23.11,4,13.47,40h0c1.43,4.45,4,5.09,4.82,5.18l.27,0s3.63,1.13,5.78,1.55h0c5.07,1,11.19,1.17,17-1.26C54.5,40,63.23,24.66,57.9,12.28Z"/><path class="cls-4" d="M57.91,12.29a2,2,0,0,0-1.3-1.13C51.22,9.71,23.11,4,13.47,40h0a10.54,10.54,0,0,0,1.33,2.81c5-6.9,5.49-17.6,15.46-21.3,10.76-4,26.14-1,26.14-1l2.88-3.27A19.58,19.58,0,0,0,57.91,12.29Z"/><circle class="cls-5" cx="45.89" cy="21.54" r="3.86"/><path class="cls-2" d="M41.35,45.46c-8.27,3.46-17.16,1.63-22.79-.29C19.62,43,23.07,38.79,34.4,34.94c15.44-5.23,21.15-8,24.1-21.09C62.49,25.92,54,40.18,41.35,45.46Z"/><path class="cls-3" d="M30.29,46.84c1-2.47,3.35-7.86,5.44-7.69s3.73,4.68,4.39,6.79a1.21,1.21,0,0,1-.72,1.5,14.08,14.08,0,0,1-8.26,1A1.2,1.2,0,0,1,30.29,46.84Z"/><circle class="cls-6" cx="45.89" cy="21.54" r="2.06"/></g></g></svg>