<svg xmlns="http://www.w3.org/2000/svg" viewBox="0 0 64 64"><defs><style>.cls-1,.cls-2{fill:#1a1a1a;}.cls-1{opacity:0;}.cls-3{fill:#bfd9e6;}.cls-4{fill:#7b97a6;}.cls-5{fill:#99bccf;}.cls-6{fill:#fff;}.cls-7{fill:#476475;}</style></defs><title>Fish Outline</title><g id="Layer_2" data-name="Layer 2"><g id="Finals"><rect class="cls-1" width="64" height="64"/><path class="cls-2" d="M63.48,19.45a24.4,24.4,0,0,0-1.12-6.67,9.47,9.47,0,0,0-2-3.95,8.53,8.53,0,0,0-4.58-2A39.56,39.56,0,0,0,34.54,8a2.58,2.58,0,0,1-1.67.15,21.07,21.07,0,0,0-3.17-.26,24,24,0,0,0-4.55.41,18.58,18.58,0,0,0-9,4.11,11.81,11.81,0,0,0-4,9.54,13.24,13.24,0,0,0,.47,2.72c.12.44.26.87.42,1.3a7.83,7.83,0,0,1,.71,1.61c0,.33-.47,1-.61,1.3s-.39.87-.58,1.31c-.42,1-.81,2-1.17,3-.17.46-.33.92-.49,1.39a3.06,3.06,0,0,1-.21.65c-.26.36-.16.3-.65.3a13.16,13.16,0,0,0-2.87.33,9.12,9.12,0,0,0-4.49,2.4C.3,40.76.1,44.47,1,47.63c1.82,6.28,8.28,12.45,15.21,9.79a7,7,0,0,0,3.84-3.59,16.89,16.89,0,0,0,1-2.27c.08-.24.25-1.24.45-1.37s1.44.32,1.75.39c1.23.25,2.47.45,3.71.58a3.35,3.35,0,0,1,1.31.3,8.17,8.17,0,0,0,2.66,1,16.58,16.58,0,0,0,5.75-.12c1.89-.36,4.22-.85,5.7-2.15.61-.53.89-1.25,1.62-1.58s1.25-.61,1.85-.94c9.14-5,16.2-14.21,17.46-24.66A25.6,25.6,0,0,0,63.48,19.45Z"/><path class="cls-3" d="M13.47,40s-4.37-1.26-7.28.59C1.13,43.77,8.3,57,15.38,53.43c1.85-1,3.18-8.26,3.18-8.26Z"/><path class="cls-3" d="M20.91,30.44c3.88,3.45,7.14,2.81,11.22-1.78s8.3-11.24,4.41-14.7-14.38-2.4-18.47,2.19S17,27,20.91,30.44Z"/><path class="cls-4" d="M57.9,12.28a2,2,0,0,0-1.29-1.12C51.22,9.71,23.11,4,13.47,40h0c1.43,4.45,4,5.09,4.82,5.18l.27,0s3.63,1.13,5.78,1.55h0c5.07,1,11.19,1.17,17-1.26C54.5,40,63.23,24.66,57.9,12.28Z"/><path class="cls-5" d="M57.91,12.29a2,2,0,0,0-1.3-1.13C51.22,9.71,23.11,4,13.47,40h0a10.54,10.54,0,0,0,1.33,2.81c5-6.9,5.49-17.6,15.46-21.3,10.76-4,26.14-1,26.14-1l2.88-3.27A19.58,19.58,0,0,0,57.91,12.29Z"/><circle class="cls-6" cx="45.89" cy="21.54" r="3.86"/><path class="cls-3" d="M41.35,45.46c-8.27,3.46-17.16,1.63-22.79-.29C19.62,43,23.07,38.79,34.4,34.94c15.44-5.23,21.15-8,24.1-21.09C62.49,25.92,54,40.18,41.35,45.46Z"/><path class="cls-4" d="M30.29,46.84c1-2.47,3.35-7.86,5.44-7.69s3.73,4.68,4.39,6.79a1.21,1.21,0,0,1-.72,1.5,14.08,14.08,0,0,1-8.26,1A1.2,1.2,0,0,1,30.29,46.84Z"/><circle class="cls-7" cx="45.89" cy="21.54" r="2.06"/></g></g></svg>