<svg xmlns="http://www.w3.org/2000/svg" viewBox="0 0 64 64"><defs><style>.cls-1,.cls-2{fill:#fff;}.cls-1{opacity:0;}</style></defs><title>Fish White</title><g id="Layer_2" data-name="Layer 2"><g id="Finals"><rect class="cls-1" width="64" height="64"/><path class="cls-2" d="M57.9,12.28a2,2,0,0,0-1.29-1.12c-3-.79-12.8-2.87-22.66,1.4-4.78-1.57-12.51-.19-15.88,3.59C15,19.63,16,24.06,18.33,27.5A56.52,56.52,0,0,0,13.47,40h0s-4.37-1.26-7.28.59C1.13,43.77,8.3,57,15.38,53.43c1.85-1,3.18-8.26,3.18-8.26s3.63,1.13,5.78,1.55h0a35.84,35.84,0,0,0,7.55.67c-.23.54-.44,1-.6,1.45a1.2,1.2,0,0,0,.85,1.63,14.08,14.08,0,0,0,8.26-1,1.21,1.21,0,0,0,.72-1.5c-.18-.57-.43-1.32-.74-2.11l1-.37C54.5,40,63.23,24.66,57.9,12.28ZM49.65,22.43a3.86,3.86,0,1,1-2.87-4.65A3.85,3.85,0,0,1,49.65,22.43Z"/><path class="cls-2" d="M46.36,19.54A2.05,2.05,0,1,0,47.9,22,2.06,2.06,0,0,0,46.36,19.54Z"/></g></g></svg>