<?xml version="1.0" encoding="UTF-8"?>
<svg id="Layer_2" data-name="Layer 2" xmlns="http://www.w3.org/2000/svg" viewBox="0 0 64 64">
  <defs>
    <style>
      .cls-1 {
        fill: #fff;
      }

      .cls-2 {
        fill: #1a1a1a;
        opacity: 0;
      }
    </style>
  </defs>
  <g id="Rough">
    <g>
      <rect class="cls-2" width="64" height="64"/>
      <path class="cls-1" d="M55.1,3.34h-9.91c-3.21,0-5.83,2.61-5.83,5.83v2.79H20.24C10.76,11.95,3.08,19.64,3.08,29.12v18.41c0,1.58,1.28,2.85,2.85,2.85H23.07v7.46c0,1.56,1.26,2.83,2.83,2.83h9.37c1.56,0,2.83-1.26,2.83-2.83v-7.46h17.14c1.58,0,2.85-1.28,2.85-2.85V29.12c0-3.88-1.3-7.44-3.47-10.31h.5c3.21,0,5.83-2.61,5.83-5.83v-3.82c0-3.21-2.61-5.83-5.83-5.83ZM27.41,43.61c0,.92-.59,1.67-1.32,1.67H14.39c-.73,0-1.32-.75-1.32-1.67v-2.04c0-.92,.59-1.67,1.32-1.67h11.71c.73,0,1.32,.75,1.32,1.67v2.04ZM57.92,12.99c0,1.56-1.26,2.83-2.83,2.83h-8.58v8.36c.79,.62,1.31,1.58,1.31,2.66,0,1.87-1.52,3.39-3.39,3.39s-3.39-1.52-3.39-3.39c0-1.09,.52-2.04,1.31-2.66V9.16c0-1.56,1.26-2.83,2.83-2.83h9.91c1.56,0,2.83,1.26,2.83,2.83v3.82Z"/>
    </g>
  </g>
</svg>