<?xml version="1.0" encoding="UTF-8"?>
<svg id="Layer_2" data-name="Layer 2" xmlns="http://www.w3.org/2000/svg" viewBox="0 0 64 64">
  <defs>
    <style>
      .cls-1 {
        fill: #eba969;
      }

      .cls-2 {
        fill: #d3dee3;
      }

      .cls-3 {
        fill: #a72d3e;
      }

      .cls-4 {
        opacity: 0;
      }

      .cls-4, .cls-5 {
        fill: #1a1a1a;
      }

      .cls-6 {
        fill: #e62e49;
      }

      .cls-7 {
        fill: #c62d43;
      }
    </style>
  </defs>
  <g id="Rough">
    <g>
      <rect class="cls-4" width="64" height="64"/>
      <g>
        <path class="cls-5" d="M60.62,16.95c1.66-1.25,2.73-3.23,2.73-5.46v-3.82c0-3.76-3.06-6.83-6.83-6.83h-9.91c-3.35,0-6.14,2.43-6.72,5.61H21.67C9.99,6.45,.5,15.95,.5,27.62v18.41c0,3.78,3.07,6.85,6.85,6.85h13.14v3.46c0,3.76,3.06,6.83,6.83,6.83h9.37c3.76,0,6.82-3.06,6.82-6.83v-3.46h13.14c3.78,0,6.85-3.07,6.85-6.85V27.62c0-3.81-1.01-7.48-2.88-10.67Z"/>
        <g>
          <path class="cls-1" d="M24.49,41.14v15.2c0,1.56,1.26,2.83,2.83,2.83h9.37c1.56,0,2.83-1.26,2.83-2.83v-15.2h-15.02Z"/>
          <path class="cls-7" d="M42.34,10.45H21.67V46.03c0,1.58,1.28,2.85,2.85,2.85H56.65c1.58,0,2.85-1.28,2.85-2.85V27.62c0-9.48-7.69-17.17-17.17-17.17Z"/>
          <path class="cls-6" d="M21.67,10.45c-9.48,0-17.17,7.69-17.17,17.17v18.41c0,1.58,1.28,2.85,2.85,2.85h28.63c1.58,0,2.85-1.28,2.85-2.85V27.62c0-9.48-7.69-17.17-17.17-17.17Z"/>
          <g>
            <circle class="cls-2" cx="45.87" cy="25.34" r="3.39"/>
            <rect class="cls-2" x="43.79" y="8.99" width="4.15" height="16.35"/>
            <path class="cls-2" d="M56.52,4.84h-9.91c-1.56,0-2.83,1.26-2.83,2.83v6.65h12.73c1.56,0,2.83-1.26,2.83-2.83v-3.82c0-1.56-1.26-2.83-2.83-2.83Z"/>
          </g>
          <rect class="cls-3" x="14.5" y="40.4" width="14.34" height="4.24" rx="1.32" ry="1.32"/>
        </g>
      </g>
    </g>
  </g>
</svg>