<svg xmlns="http://www.w3.org/2000/svg" viewBox="0 0 64 64"><defs><style>.cls-1,.cls-2{fill:#fff;}.cls-1{opacity:0;}</style></defs><title>Pet White</title><g id="Layer_2" data-name="Layer 2"><g id="Finals"><rect class="cls-1" width="64" height="64"/><path class="cls-2" d="M63.48,24l-.2-2.17a5.9,5.9,0,0,0-5-5.28l.12-3.78A4,4,0,0,0,55,8.64L26.3,4.52a3.64,3.64,0,0,0-.57,0,4.12,4.12,0,0,0-1.35.23L14.26,8.34A9.77,9.77,0,0,0,10.4,7.6,8.92,8.92,0,0,0,3,11c-2.29,3.3-4.26,16.22.23,19.5a6.65,6.65,0,0,0,.56.36l.13,17a4,4,0,0,0,3.17,3.88l7.34,1.55a8.71,8.71,0,0,0,7,3.58,8.55,8.55,0,0,0,3.34-.67A8.7,8.7,0,0,0,36.5,58a4.43,4.43,0,0,0,.8.08,4,4,0,0,0,2-.56L55.52,48a4,4,0,0,0,2-3.33l.16-5.29c.4-.34.73-.68,1-.94a16.42,16.42,0,0,0,3.63-5.77s.44-1.3.44-1.3a2.77,2.77,0,0,0,.12-.41l.31-1.38c0-.19.07-.38.11-.57l0-.24L63.47,27c0-.09,0-.19,0-.28,0-.81,0-1.62,0-2.42C63.5,24.17,63.49,24.06,63.48,24Zm-55.76,3c-.86.58-1.62.77-2.17.37-1.86-1.36-1-11.56.7-14,1.37-2,5.77-2.32,7.57-.56a2.53,2.53,0,0,1,.75,1.41,6,6,0,0,1-.08,1.9C13.78,19.77,10.33,25.16,7.72,26.92Zm6.14,12.72c-2.46-.61-4.4-3.75-4.4-7s1.94-5.6,4.4-5.15,4.63,3.63,4.63,7.08S16.39,40.27,13.86,39.64ZM23,43.77a2.16,2.16,0,0,1-2.15,2.16,7.09,7.09,0,0,1-1.52-.32,2.66,2.66,0,0,1-1.17-.82,3.82,3.82,0,0,1-.9-2.43c0-1.62,1.25-1.78,2.82-1.51s3,.92,3,2.61C23,43.56,23,43.66,23,43.77Zm5.62-.49c-2.87-.71-5.14-4.14-5.14-7.68s2.27-6,5.14-5.49,5.42,4,5.42,7.74S31.55,44,28.6,43.28ZM40.47,32.62a3.5,3.5,0,0,1-2.8-.34c-4.27-2-9.84-9.77-9.64-14.09A3.46,3.46,0,0,1,28.25,17c1.36-3.53,11.14-2.85,13.41,0a4.33,4.33,0,0,1,.5.86C43.88,21.71,43.41,31.43,40.47,32.62Z"/><path class="cls-2" d="M14.6,30.43c-1.15,0-2.09,1.31-2.09,2.94s.94,2.93,2.09,2.93,2.1-1.31,2.1-2.93S15.76,30.43,14.6,30.43Z"/><path class="cls-2" d="M27.86,32.44c-1.36,0-2.46,1.55-2.46,3.45s1.1,3.45,2.46,3.45,2.46-1.55,2.46-3.45S29.22,32.44,27.86,32.44Z"/></g></g></svg>