<svg xmlns="http://www.w3.org/2000/svg" viewBox="0 0 64 64"><defs><style>.cls-1,.cls-2{fill:#1a1a1a;}.cls-1{opacity:0;}.cls-3{fill:#1778ff;}.cls-4{fill:#0049c7;}.cls-5{isolation:isolate;}.cls-6{fill:#37b9ff;}.cls-7{fill:#96dbff;}.cls-8{fill:#fff;}.cls-9{fill:#4d4d4d;}</style></defs><title>Pet Blue Outline</title><g id="Layer_2" data-name="Layer 2"><g id="Finals"><rect class="cls-1" width="64" height="64"/><path class="cls-2" d="M62.71,31.32a2.77,2.77,0,0,0,.12-.41l.3-1.38c0-.19.08-.38.12-.56l0-.24L63.47,27a2.44,2.44,0,0,0,0-.27c0-.81,0-1.62,0-2.42,0-.11,0-.22,0-.33l-.2-2.17a5.9,5.9,0,0,0-5-5.28l.12-3.78A4,4,0,0,0,55,8.64L26.29,4.52a3.43,3.43,0,0,0-.56,0,4.12,4.12,0,0,0-1.35.23L14.26,8.34A9.77,9.77,0,0,0,10.4,7.6,8.9,8.9,0,0,0,3,11c-2.29,3.3-4.26,16.21.23,19.5a6.65,6.65,0,0,0,.56.36l.13,17a4,4,0,0,0,3.17,3.89l7.34,1.55a8.67,8.67,0,0,0,10.36,2.91A8.69,8.69,0,0,0,36.5,58a4.34,4.34,0,0,0,.8.08,4,4,0,0,0,2-.56L55.52,48a4,4,0,0,0,2-3.33l.16-5.29c.39-.34.73-.67,1-.94a16.42,16.42,0,0,0,3.63-5.77S62.71,31.32,62.71,31.32Z"/><circle class="cls-3" cx="31.58" cy="50.82" r="4.7"/><circle class="cls-3" cx="21.4" cy="48.17" r="4.7"/><path class="cls-4" d="M49.64,31.63c-.12,0-.06,0,0,0s.06,0,.09,0a1.38,1.38,0,0,0,.26,0,3.45,3.45,0,0,0,.57-.15,3.14,3.14,0,0,0,.57-.24,3.91,3.91,0,0,0,.57-.31,6.86,6.86,0,0,0,2-2l.4-.67.34-.74c0-.13.11-.25.17-.38l.13-.4.26-.82c.14-.57.25-1.16.38-1.75l.2-1.84,0-.19a1.89,1.89,0,0,1,3.75,0l.2,2.18c0,.74,0,1.49,0,2.24l-.12,1.15-.07.58c0,.19-.08.39-.12.58L58.93,30l-.4,1.17a12.61,12.61,0,0,1-2.75,4.38,9.94,9.94,0,0,1-1,.93,11.41,11.41,0,0,1-1.12.81c-.19.13-.41.24-.61.36s-.42.23-.64.33-.45.2-.7.29l-.38.14c-.15,0-.25.08-.54.14a3.53,3.53,0,1,1-1.14-7Z"/><g class="cls-5"><polygon class="cls-6" points="7.88 47.83 7.63 14.96 37.88 19.75 37.3 54.07 7.88 47.83"/><polygon class="cls-3" points="37.3 54.07 37.88 19.75 54.45 12.6 53.49 44.5 37.3 54.07"/><polygon class="cls-7" points="25.73 8.48 54.45 12.6 37.88 19.75 7.63 14.96 25.73 8.48"/></g><path class="cls-8" d="M34,35.85c0,3.74-2.47,6.16-5.42,5.43s-5.14-4.14-5.14-7.68,2.26-6,5.14-5.49S34,32.12,34,35.85Z"/><path class="cls-9" d="M26.86,29.25a3,3,0,0,0-2.2.43,6.38,6.38,0,0,0-1.2,3.92A8.93,8.93,0,0,0,24.66,38a4.5,4.5,0,0,0,2.2,1.37c2.25.54,4.12-1.33,4.12-4.2S29.11,29.67,26.86,29.25Z"/><path class="cls-8" d="M9.46,30.61c0-3.29,1.94-5.6,4.4-5.15s4.63,3.63,4.63,7.08-2.1,5.73-4.63,5.1S9.46,33.89,9.46,30.61Z"/><path class="cls-9" d="M15.37,36.65a2.53,2.53,0,0,0,2-.33,6.26,6.26,0,0,0,1.13-3.78,8.64,8.64,0,0,0-1.13-4.26,3.64,3.64,0,0,0-2-1.18c-1.95-.37-3.5,1.44-3.5,4S13.42,36.18,15.37,36.65Z"/><path class="cls-4" d="M24.32,43.08a.61.61,0,0,0-.78.61,1.07,1.07,0,0,1-1.38,1.09,1.81,1.81,0,0,1-1.35-1.69v-1.5a2.28,2.28,0,0,0,2.11-2.41c0-1.63-1.29-2.25-2.85-2.52s-2.74-.11-2.74,1.46a3.66,3.66,0,0,0,2,3.16v1.48A1,1,0,0,1,18,43.83a1.76,1.76,0,0,1-1.28-1.64,1,1,0,0,0-.7-.9.56.56,0,0,0-.69.59A3.68,3.68,0,0,0,18,45.33a2.2,2.2,0,0,0,2-.44,3.73,3.73,0,0,0,2.09,1.44A2.27,2.27,0,0,0,25.11,44,1,1,0,0,0,24.32,43.08Z"/><path class="cls-4" d="M28.25,17c-1.85,4.8,7.92,17.33,12.22,15.58,3.2-1.3,3.48-12.7,1.19-15.58S29.61,13.51,28.25,17Z"/><path class="cls-4" d="M14.57,14.15c.7,4.41-6.51,15-9,13.14-1.86-1.36-1-11.56.7-14S14.05,10.91,14.57,14.15Z"/></g></g></svg>