<?xml version="1.0" encoding="UTF-8"?>
<svg id="Layer_2" data-name="Layer 2" xmlns="http://www.w3.org/2000/svg" viewBox="0 0 64 64">
  <defs>
    <style>
      .cls-1 {
        fill: #fff;
      }

      .cls-2 {
        fill: #1a1a1a;
        opacity: 0;
      }
    </style>
  </defs>
  <g id="Rough">
    <g>
      <rect class="cls-2" width="64" height="64"/>
      <g>
        <path class="cls-1" d="M46.51,7.87h-4.37v-.12c0-.88-.71-1.59-1.59-1.59h-3.36v-2.15c0-.88-.71-1.59-1.59-1.59h-7.19c-.88,0-1.59,.71-1.59,1.59v2.15h-3.36c-.88,0-1.59,.71-1.59,1.59v.12h-4.37c-3.19,0-5.77,2.59-5.77,5.77V55.82c0,3.19,2.59,5.77,5.77,5.77h29.02c3.19,0,5.77-2.59,5.77-5.77V13.64c0-3.19-2.59-5.77-5.77-5.77Zm1.65,34.09c0,1.32-.52,2.59-1.46,3.52l-7.86,7.86c-.93,.93-2.2,1.46-3.52,1.46H17.77c-1.06,0-1.92-.86-1.92-1.92V14.31c0-1.06,.86-1.92,1.92-1.92h4.09v.37c0,.88,.71,1.59,1.59,1.59h17.09c.88,0,1.59-.71,1.59-1.59v-.37h4.09c1.06,0,1.92,.86,1.92,1.92v27.65Z"/>
        <path class="cls-1" d="M41.39,26.38H22.61c-.77,0-1.39,.52-1.39,1.15v1.23c0,.64,.62,1.15,1.39,1.15h18.79c.77,0,1.39-.52,1.39-1.15v-1.23c0-.64-.62-1.15-1.39-1.15Z"/>
        <path class="cls-1" d="M41.39,33.14H22.61c-.77,0-1.39,.52-1.39,1.15v1.23c0,.64,.62,1.15,1.39,1.15h18.79c.77,0,1.39-.52,1.39-1.15v-1.23c0-.64-.62-1.15-1.39-1.15Z"/>
        <path class="cls-1" d="M41.39,19.61H22.61c-.77,0-1.39,.52-1.39,1.15v1.23c0,.64,.62,1.15,1.39,1.15h18.79c.77,0,1.39-.52,1.39-1.15v-1.23c0-.64-.62-1.15-1.39-1.15Z"/>
        <path class="cls-1" d="M32.79,39.91h-10.18c-.77,0-1.39,.52-1.39,1.15v1.23c0,.64,.62,1.15,1.39,1.15h10.18c.77,0,1.4-.52,1.4-1.15v-1.23c0-.64-.62-1.15-1.4-1.15Z"/>
      </g>
    </g>
  </g>
</svg>