<?xml version="1.0" encoding="UTF-8"?>
<svg id="Layer_2" data-name="Layer 2" xmlns="http://www.w3.org/2000/svg" viewBox="0 0 64 64">
  <defs>
    <style>
      .cls-1 {
        fill: #fff;
      }

      .cls-2 {
        fill: #abc0c9;
      }

      .cls-3 {
        fill: #cef;
      }

      .cls-4 {
        fill: #476475;
      }

      .cls-5 {
        fill: #9c3d29;
      }

      .cls-6 {
        fill: #d1774b;
      }

      .cls-7 {
        fill: #1a1a1a;
        opacity: 0;
      }
    </style>
  </defs>
  <g id="Rough">
    <g>
      <rect class="cls-7" width="64" height="64"/>
      <g>
        <g>
          <rect class="cls-6" x="11.72" y="5.77" width="40.57" height="53.73" rx="5.77" ry="5.77"/>
          <g>
            <path class="cls-1" d="M48.16,12.22c0-1.06-.86-1.92-1.92-1.92H17.77c-1.06,0-1.92,.86-1.92,1.92V50.79c0,1.06,.86,1.92,1.92,1.92h19.61l10.78-10.78V12.22Z"/>
            <path class="cls-3" d="M37.37,43.85v8.86l10.78-10.78h-8.86c-1.06,0-1.92,.86-1.92,1.92Z"/>
          </g>
          <g>
            <path class="cls-2" d="M41.39,24.29H22.61c-.77,0-1.39,.52-1.39,1.15v1.23c0,.64,.62,1.15,1.39,1.15h18.79c.77,0,1.39-.52,1.39-1.15v-1.23c0-.64-.62-1.15-1.39-1.15Z"/>
            <path class="cls-2" d="M41.39,31.05H22.61c-.77,0-1.39,.52-1.39,1.15v1.23c0,.64,.62,1.15,1.39,1.15h18.79c.77,0,1.39-.52,1.39-1.15v-1.23c0-.64-.62-1.15-1.39-1.15Z"/>
            <path class="cls-2" d="M41.39,17.52H22.61c-.77,0-1.39,.52-1.39,1.15v1.23c0,.64,.62,1.15,1.39,1.15h18.79c.77,0,1.39-.52,1.39-1.15v-1.23c0-.64-.62-1.15-1.39-1.15Z"/>
            <path class="cls-2" d="M32.79,37.81h-10.18c-.77,0-1.39,.52-1.39,1.15v1.23c0,.64,.62,1.15,1.39,1.15h10.18c.77,0,1.39-.52,1.39-1.15v-1.23c0-.64-.62-1.15-1.39-1.15Z"/>
          </g>
          <path class="cls-2" d="M42.11,4.5c-.82,0-1.48,.67-1.48,1.48v2.79H23.37v-2.79c0-.82-.67-1.48-1.48-1.48s-1.48,.67-1.48,1.48v3.84c0,1.06,.86,1.92,1.92,1.92h19.35c1.06,0,1.92-.86,1.92-1.92v-3.84c0-.82-.67-1.48-1.48-1.48Z"/>
          <path class="cls-4" d="M38.33,7.5h-12.66c-.61,0-1.1,.62-1.1,1.38v2.81c0,.76,.49,1.38,1.1,1.38h12.66c.61,0,1.1-.62,1.1-1.38v-2.81c0-.76-.49-1.38-1.1-1.38Z"/>
        </g>
        <path class="cls-5" d="M46.51,56.5H17.49c-3.19,0-5.77-2.59-5.77-5.77v3c0,3.19,2.59,5.77,5.77,5.77h29.02c3.19,0,5.77-2.59,5.77-5.77v-3c0,3.19-2.59,5.77-5.77,5.77Z"/>
      </g>
    </g>
  </g>
</svg>