<?xml version="1.0" encoding="UTF-8"?>
<svg id="Layer_2" data-name="Layer 2" xmlns="http://www.w3.org/2000/svg" viewBox="0 0 64 64">
  <defs>
    <style>
      .cls-1 {
        fill: #fec92b;
      }

      .cls-2 {
        fill: #1778ff;
      }

      .cls-3 {
        fill: #37b9ff;
      }

      .cls-4 {
        fill: #1a1a1a;
        opacity: 0;
      }

      .cls-5 {
        fill: #96dbff;
      }
    </style>
  </defs>
  <g id="Colour">
    <g>
      <rect class="cls-4" width="64" height="64"/>
      <g>
        <path class="cls-5" d="M32,17.67c-13.67,0-27.5,4.92-27.5,14.33h4.17c0-5.61,10.45-10.16,23.33-10.16s23.33,4.55,23.33,10.16h4.17c0-9.41-13.83-14.33-27.5-14.33Z"/>
        <path class="cls-2" d="M40.8,26.92c6.44,11.16,7.72,22.48,2.86,25.29l2.08,3.61c8.15-4.71,5.5-19.15-1.34-30.98S26.4,3.48,18.25,8.18l2.08,3.61c4.86-2.81,14.02,3.96,20.47,15.12Z"/>
        <path class="cls-3" d="M23.2,26.92c6.44-11.16,15.61-17.93,20.47-15.12l2.08-3.61c-8.15-4.71-19.33,4.81-26.16,16.65-6.83,11.83-9.49,26.28-1.34,30.98l2.08-3.61c-4.86-2.81-3.58-14.13,2.86-25.29Z"/>
        <path class="cls-3" d="M44.41,39.17c6.83-11.83,9.49-26.28,1.34-30.98l-2.08,3.61c4.86,2.81,3.58,14.13-2.86,25.29-6.44,11.16-15.61,17.93-20.47,15.12l-2.08,3.61c8.15,4.71,19.33-4.81,26.16-16.65Z"/>
        <path class="cls-2" d="M19.59,39.17c6.83,11.83,18.01,21.35,26.16,16.65l-2.08-3.61c-4.86,2.81-14.02-3.96-20.47-15.12s-7.72-22.48-2.86-25.29l-2.08-3.61c-8.15,4.71-5.5,19.15,1.34,30.98Z"/>
        <path class="cls-1" d="M32,39.22c-3.98,0-7.22-3.24-7.22-7.22s3.24-7.22,7.22-7.22,7.22,3.24,7.22,7.22-3.24,7.22-7.22,7.22Z"/>
        <path class="cls-5" d="M32,42.16c-12.88,0-23.33-4.55-23.33-10.16H4.5c0,9.41,13.83,14.33,27.5,14.33s27.5-4.92,27.5-14.33h-4.17c0,5.61-10.45,10.16-23.33,10.16Z"/>
      </g>
    </g>
  </g>
</svg>