<?xml version="1.0" encoding="UTF-8"?>
<svg id="Layer_2" data-name="Layer 2" xmlns="http://www.w3.org/2000/svg" viewBox="0 0 64 64">
  <defs>
    <style>
      .cls-1 {
        fill: #fff;
      }

      .cls-2 {
        fill: #1a1a1a;
        opacity: 0;
      }
    </style>
  </defs>
  <g id="BW">
    <g>
      <rect class="cls-2" width="64" height="64"/>
      <g>
        <path class="cls-1" d="M32,24.78c-3.98,0-7.22,3.24-7.22,7.22s3.24,7.22,7.22,7.22,7.22-3.24,7.22-7.22-3.24-7.22-7.22-7.22Z"/>
        <path class="cls-1" d="M59.5,32c0-4.76-3.55-8.38-8.82-10.78,.55-5.77-.8-10.65-4.93-13.03-4.13-2.38-9.03-1.11-13.75,2.25-4.72-3.36-9.62-4.63-13.75-2.25s-5.48,7.26-4.93,13.03c-5.27,2.41-8.82,6.02-8.82,10.78s3.55,8.38,8.82,10.78c-.55,5.77,.8,10.65,4.93,13.03,4.13,2.38,9.03,1.11,13.75-2.25,4.72,3.36,9.62,4.63,13.75,2.25,4.13-2.38,5.48-7.26,4.93-13.03,5.27-2.41,8.82-6.02,8.82-10.78Zm-15.83-20.2c2.14,1.23,3.08,4.11,2.93,7.89-2.09-.63-4.33-1.12-6.65-1.46-1.45-1.84-2.99-3.54-4.58-5.03,3.2-2.02,6.17-2.64,8.3-1.41Zm1.71,25.63c.27,.92,.49,1.81,.67,2.69-.84,.28-1.73,.53-2.65,.75,.35-.56,.7-1.13,1.03-1.7,.33-.57,.65-1.15,.96-1.74Zm-4.57-.35c-.99,1.71-2.04,3.29-3.13,4.78-1.82,.2-3.72,.3-5.68,.3s-3.86-.11-5.68-.3c-1.09-1.48-2.14-3.07-3.13-4.78-.98-1.7-1.83-3.4-2.57-5.08,.74-1.68,1.59-3.38,2.57-5.08,.98-1.71,2.04-3.29,3.13-4.78,1.82-.2,3.72-.3,5.68-.3s3.86,.11,5.68,.3c1.09,1.48,2.14,3.07,3.13,4.78,.98,1.7,1.83,3.4,2.57,5.08-.74,1.68-1.59,3.38-2.57,5.08Zm-8.8,11.13c-.66-.59-1.32-1.22-1.98-1.91,.66,.02,1.32,.04,1.98,.04s1.32-.02,1.98-.04c-.66,.69-1.32,1.32-1.98,1.91Zm-12.41-9.04c.33,.57,.68,1.14,1.03,1.7-.93-.23-1.81-.48-2.65-.75,.18-.87,.4-1.77,.67-2.69,.31,.58,.63,1.16,.96,1.74Zm-.96-12.6c-.27-.92-.49-1.81-.67-2.69,.84-.28,1.73-.53,2.65-.75-.35,.56-.7,1.13-1.03,1.7-.33,.57-.65,1.15-.96,1.74Zm13.37-10.78c.66,.59,1.32,1.22,1.98,1.91-.66-.02-1.32-.04-1.98-.04s-1.32,.02-1.98,.04c.66-.69,1.32-1.32,1.98-1.91Zm12.41,9.04c-.33-.57-.68-1.14-1.03-1.7,.93,.23,1.81,.48,2.65,.75-.18,.87-.4,1.77-.67,2.69-.31-.58-.63-1.16-.96-1.74ZM20.33,11.8c2.14-1.23,5.1-.62,8.3,1.41-1.59,1.49-3.13,3.19-4.58,5.03-2.32,.34-4.56,.82-6.65,1.46-.15-3.78,.8-6.66,2.93-7.89ZM8.67,32c0-2.47,2.02-4.73,5.37-6.49,.49,2.12,1.2,4.31,2.06,6.49-.87,2.18-1.57,4.36-2.06,6.49-3.35-1.76-5.37-4.02-5.37-6.49Zm11.67,20.2c-2.14-1.23-3.08-4.11-2.93-7.89,2.09,.63,4.33,1.12,6.65,1.46,1.45,1.84,2.99,3.54,4.58,5.03-3.2,2.02-6.17,2.64-8.3,1.41Zm23.33,0c-2.14,1.23-5.1,.62-8.3-1.41,1.59-1.49,3.13-3.19,4.58-5.03,2.32-.34,4.56-.82,6.65-1.46,.15,3.78-.8,6.66-2.93,7.89Zm6.3-13.72c-.49-2.12-1.2-4.31-2.06-6.49,.87-2.18,1.57-4.36,2.06-6.49,3.35,1.76,5.37,4.02,5.37,6.49s-2.02,4.73-5.37,6.49Z"/>
      </g>
    </g>
  </g>
</svg>