<svg xmlns="http://www.w3.org/2000/svg" viewBox="0 0 64 64"><defs><style>.cls-1{opacity:0;}.cls-2{fill:#fff;}</style></defs><title>Sound White </title><g id="Layer_2" data-name="Layer 2"><g id="Layer_3" data-name="Layer 3"><g class="cls-1"><rect class="cls-2" width="64" height="64"/></g><path class="cls-2" d="M29.22,7.59a1.92,1.92,0,0,0-1.33.64h0l-.06.06-.14.15L16.88,19.9H9.82C7.44,19.9,5.5,25.32,5.5,32a32.25,32.25,0,0,0,.17,3.33h0c0,.28.06.56.1.83a1.11,1.11,0,0,0,0,.17c0,.26.07.51.12.76a.86.86,0,0,0,0,.17c0,.26.08.5.13.75l0,.06a17.57,17.57,0,0,0,.55,2.09,1.87,1.87,0,0,0,.07.22c0,.16.11.31.17.46S7,41,7,41.12l.16.39.14.28c.06.11.11.23.17.33l.18.32a2.26,2.26,0,0,1,.16.26l.31.41.14.15.23.24.15.12a1.77,1.77,0,0,0,.24.17l.15.09a1.31,1.31,0,0,0,.27.12l.13,0a1.39,1.39,0,0,0,.4.06h6.84l11,11.48.15.16,0,0h0a1.92,1.92,0,0,0,1.33.64c3.24,0,5.87-10.93,5.87-24.41S32.46,7.59,29.22,7.59Z"/><path class="cls-2" d="M40,11.93a2.57,2.57,0,1,0,0,5.13c7.39,0,13.41,6.7,13.41,14.94S47.35,46.94,40,46.94a2.57,2.57,0,1,0,0,5.13c10.22,0,18.54-9,18.54-20.07S50.18,11.93,40,11.93Z"/><path class="cls-2" d="M41.7,36.52a2.56,2.56,0,0,0,.89,5,2.71,2.71,0,0,0,.88-.15A9.85,9.85,0,0,0,49.7,32a9.86,9.86,0,0,0-6.23-9.34,2.57,2.57,0,0,0-1.77,4.82A4.71,4.71,0,0,1,44.57,32,4.71,4.71,0,0,1,41.7,36.52Z"/></g></g></svg>