<svg xmlns="http://www.w3.org/2000/svg" viewBox="0 0 64 64"><defs><style>.cls-1{opacity:0;}.cls-2{fill:#1a1a1a;}.cls-3{fill:#737373;}.cls-4{fill:#4d4d4d;}.cls-5{fill:#fdbc0d;}.cls-6{fill:#37b9ff;}</style></defs><title>Sound Outline </title><g id="Layer_2" data-name="Layer 2"><g id="Layer_3" data-name="Layer 3"><g class="cls-1"><rect class="cls-2" width="64" height="64"/></g><path class="cls-2" d="M41,7.93A6.51,6.51,0,0,0,36.5,9.69c-2-3.73-4.77-6.1-8.28-6.1-1.71,0-4.24.62-6.62,3.55L13.86,15.9h-5C2.68,15.9.5,24.57.5,32a35.7,35.7,0,0,0,.19,3.73c0,.33.07.64.1.9l0,.24c0,.29.08.58.13.88L1,38c.05.29.11.58.17.86v.09a24.85,24.85,0,0,0,.68,2.54l.07.24c.08.21.15.41.21.56l.16.41c.07.18.15.35.22.52l.24.48A3.6,3.6,0,0,0,3,44l.24.42,3.43-2.07L3.26,44.57l.23.37c.17.25.35.49.55.74l.25.27a5.6,5.6,0,0,0,.48.49l.35.3a6.91,6.91,0,0,0,.62.44c.12.07.23.15.39.23a4.94,4.94,0,0,0,.81.35l.25.1.22,0a5.31,5.31,0,0,0,1.41.19h5l7.74,8.76c2.38,2.93,4.91,3.55,6.62,3.55,3.51,0,6.25-2.37,8.28-6.1A6.51,6.51,0,0,0,41,56.07C53.39,56.07,63.5,45.27,63.5,32S53.39,7.93,41,7.93Zm0,23.14.37.16a1,1,0,0,1,.27.77,1.06,1.06,0,0,1-.25.76c-.14.05-.25.13-.39.19,0-.32,0-.63,0-1S40.94,31.38,40.93,31.07Z"/><ellipse class="cls-3" cx="8.82" cy="32" rx="4.32" ry="12.1"/><polygon class="cls-3" points="24.93 54.59 12.37 40.37 12.37 23.63 24.93 9.41 24.93 54.59"/><rect class="cls-3" x="8.82" y="19.9" width="12.83" height="24.2"/><path class="cls-4" d="M24.93,54.59V39.36l-9.29-4h-11c.52,5.06,2.18,8.77,4.15,8.77h6.84Z"/><ellipse class="cls-4" cx="28.22" cy="32" rx="8.72" ry="24.41"/><ellipse class="cls-5" cx="28.22" cy="32" rx="4.46" ry="16.71"/><path class="cls-2" d="M24.08,38.25c1.64-.7,2.86-3.23,2.86-6.25s-1.22-5.55-2.86-6.25a61.2,61.2,0,0,0,0,12.5Z"/><path class="cls-6" d="M41,52.07a2.57,2.57,0,1,1,0-5.13c7.39,0,13.41-6.7,13.41-14.94S48.35,17.06,41,17.06a2.57,2.57,0,1,1,0-5.13c10.22,0,18.54,9,18.54,20.07S51.18,52.07,41,52.07Z"/><path class="cls-6" d="M43.59,41.49a2.56,2.56,0,0,1-.89-5A4.71,4.71,0,0,0,45.57,32a4.71,4.71,0,0,0-2.87-4.52,2.57,2.57,0,0,1,1.77-4.82A9.86,9.86,0,0,1,50.7,32a9.85,9.85,0,0,1-6.23,9.34A2.71,2.71,0,0,1,43.59,41.49Z"/></g></g></svg>