<?xml version="1.0" encoding="UTF-8"?>
<svg id="Layer_2" data-name="Layer 2" xmlns="http://www.w3.org/2000/svg" viewBox="0 0 64 64">
  <defs>
    <style>
      .cls-1 {
        fill: #fff;
      }

      .cls-2 {
        fill: #ff8ca9;
      }

      .cls-3 {
        fill: #d10b6e;
      }

      .cls-4 {
        fill: rgba(26, 26, 26, 0);
      }

      .cls-5 {
        fill: #96dbff;
      }
    </style>
  </defs>
  <g id="Colour">
    <g>
      <rect class="cls-4" width="64" height="64"/>
      <g>
        <g>
          <path class="cls-3" d="M10.98,34.16s.09,0,.13,0h8.15c.7,0,1.28-.54,1.34-1.24,.55-5.35,4.57-9.49,9.6-10.44,1.1-.21,2.24-.26,3.4-.14,.99,.1,1.96,.34,2.89,.68v5.96s0,.02,0,.02c0,.37,.15,.75,.43,1.03,.21,.21,.49,.36,.79,.41l16.86,2.85c.8,.14,1.56-.4,1.7-1.21,.01-.08,.02-.16,.02-.25v-6.94c0-.08,0-.16-.02-.25l-2.86-16.87c-.14-.8-.9-1.34-1.7-1.2-.3,.05-.57,.19-.79,.41l-3.34,3.34C38.26,1.95,23.92,2.69,15.53,12c-3.43,3.8-5.47,8.65-5.79,13.75v6.94c-.06,.75,.49,1.41,1.24,1.47Z"/>
          <path class="cls-2" d="M11.11,27.23h8.15c.7,0,1.28-.54,1.34-1.24,.67-6.51,6.49-11.25,13-10.58,2.31,.24,4.5,1.15,6.3,2.62l-2.98,2.98c-.57,.58-.57,1.51,0,2.09,.22,.21,.49,.36,.79,.41l16.86,2.85c.8,.14,1.56-.4,1.7-1.21,.03-.16,.03-.33,0-.49l-2.86-16.87c-.14-.8-.9-1.34-1.7-1.2-.3,.05-.57,.19-.79,.41l-3.34,3.34C38.26,1.95,23.92,2.69,15.53,12c-3.43,3.8-5.47,8.65-5.79,13.75-.06,.75,.49,1.41,1.24,1.47,.04,0,.09,0,.13,0Z"/>
        </g>
        <g>
          <path class="cls-5" d="M53.02,29.84s-.09,0-.13,0h-8.15c-.7,0-1.28,.54-1.34,1.24-.55,5.35-4.57,9.49-9.6,10.44-1.1,.21-2.24,.26-3.4,.14-.99-.1-1.96-.34-2.89-.68v-5.98c0-.37-.15-.75-.43-1.03-.21-.21-.49-.36-.79-.41l-16.86-2.85c-.8-.14-1.56,.4-1.7,1.21-.01,.08-.02,.16-.02,.25v6.94c0,.08,0,.16,.02,.25l2.86,16.87c.14,.8,.9,1.34,1.7,1.2,.3-.05,.57-.19,.79-.41l3.34-3.34c9.31,8.39,23.65,7.64,32.04-1.66,3.43-3.8,5.47-8.65,5.79-13.75v-6.94c.06-.75-.49-1.41-1.24-1.47Z"/>
          <path class="cls-1" d="M52.89,29.83h-8.15c-.7,0-1.28,.54-1.34,1.24-.67,6.51-6.49,11.25-13,10.58-2.31-.24-4.5-1.15-6.3-2.62l2.98-2.98c.57-.58,.57-1.51,0-2.09-.22-.21-.49-.36-.79-.41l-16.86-2.85c-.8-.14-1.56,.4-1.7,1.21-.03,.16-.03,.33,0,.49l2.86,16.87c.14,.8,.9,1.34,1.7,1.2,.3-.05,.57-.19,.79-.41l3.34-3.34c9.31,8.39,23.65,7.64,32.04-1.66,3.43-3.8,5.47-8.65,5.79-13.75,.06-.75-.49-1.41-1.24-1.47-.04,0-.09,0-.13,0Z"/>
        </g>
      </g>
    </g>
  </g>
</svg>