<?xml version="1.0" encoding="UTF-8"?>
<svg id="Layer_2" data-name="Layer 2" xmlns="http://www.w3.org/2000/svg" viewBox="0 0 64 64">
  <defs>
    <style>
      .cls-1 {
        opacity: 0;
      }

      .cls-1, .cls-2 {
        fill: #1a1a1a;
      }
    </style>
  </defs>
  <g id="BW">
    <g>
      <rect class="cls-1" width="64" height="64"/>
      <path class="cls-2" d="M34.61,34.09l4.71-1.04c14.31-3.17,21.1-5.54,20.06-10.2l-21.28,4.72-2.15,.48,.48-2.15,4.72-21.28c-4.67-1.04-7.03,5.75-10.2,20.06l-1.04,4.71-4.46,.99c-1.01,.22-1.98-.43-2.19-1.44,0-.02-.01-.05-.02-.08-1.01-4.56-5.99-7.33-11.12-6.2-5.13,1.14-8.47,5.75-7.45,10.31,1.01,4.56,5.8,6.48,10.92,5.34l11.07-2.45,1.9-.42-.42,1.9-2.45,11.07c-1.14,5.13,.78,9.91,5.34,10.92,4.56,1.01,9.18-2.33,10.31-7.45,1.14-5.13-1.64-10.1-6.2-11.12-.03,0-.05-.01-.08-.02-1.01-.21-1.66-1.18-1.44-2.19l.99-4.46Zm-19.85,.46c-2.67,.59-5.16-.4-5.68-2.78-.53-2.37,1.21-4.77,3.88-5.36s5.25,.85,5.78,3.22c.53,2.37-1.31,4.33-3.98,4.92Zm19.6,10.71c2.37,.53,3.81,3.11,3.22,5.78-.59,2.67-2.99,4.4-5.36,3.88-2.37-.53-3.37-3.01-2.78-5.68,.59-2.67,2.55-4.5,4.92-3.98Z"/>
    </g>
  </g>
</svg>