<?xml version="1.0" encoding="UTF-8"?>
<svg id="Layer_2" data-name="Layer 2" xmlns="http://www.w3.org/2000/svg" viewBox="0 0 64 64">
  <defs>
    <style>
      .cls-1 {
        fill: #abc0c9;
      }

      .cls-2 {
        fill: #d3dee3;
      }

      .cls-3 {
        opacity: 0;
      }

      .cls-3, .cls-4 {
        fill: #1a1a1a;
      }

      .cls-5 {
        fill: #e62e49;
      }
    </style>
  </defs>
  <g id="Colour">
    <g>
      <rect class="cls-3" width="64" height="64"/>
      <g>
        <path class="cls-4" d="M61.53,19.46c-.65-.41-1.39-.63-2.15-.63-.29,0-.58,.03-.87,.09l-17.3,3.83,3.83-17.3c.23-1.04,.04-2.12-.53-3.02-.57-.89-1.47-1.53-2.51-1.76-.59-.13-1.18-.2-1.76-.2-7.49,0-10.09,9.22-13.21,23.3l-.49,2.22h-.02c-1.91-4.57-6.61-7.62-12.09-7.62-1.06,0-2.13,.12-3.17,.35C3.98,20.36-.72,27.12,.76,33.83c1.18,5.34,5.89,8.79,11.99,8.79,1.22,0,2.47-.14,3.71-.42l6.84-1.52-1.52,6.84c-.75,3.4-.47,6.79,.81,9.55,1.48,3.21,4.17,5.39,7.57,6.15,.82,.18,1.67,.28,2.51,.28,5.9,0,11.19-4.53,12.58-10.77,1.45-6.54-1.75-12.95-7.28-15.27v-.03s2.23-.49,2.23-.49c12.38-2.75,25.18-5.58,23.1-14.98-.23-1.04-.86-1.94-1.76-2.51Z"/>
        <g>
          <g>
            <path class="cls-5" d="M28.14,37.33l-2.45,11.07c-1.14,5.13,.78,9.91,5.34,10.92,4.56,1.01,9.18-2.33,10.31-7.45,1.14-5.13-1.64-10.1-6.2-11.12-.03,0-.05-.01-.08-.02-1.01-.21-1.66-1.18-1.44-2.19l-5.49-1.22Zm6.22,7.93c2.37,.53,3.81,3.11,3.22,5.78-.59,2.67-2.99,4.4-5.36,3.88-2.37-.53-3.37-3.01-2.78-5.68,.59-2.67,2.55-4.5,4.92-3.98Z"/>
            <path class="cls-1" d="M41.15,4.6l-4.72,21.28-2.81,12.66-5.49-1.22,2.81-12.66c3.17-14.31,5.54-21.1,10.2-20.06Z"/>
          </g>
          <g>
            <path class="cls-5" d="M25.44,30.36c-1.01,.22-1.98-.43-2.19-1.44,0-.02-.01-.05-.02-.08-1.01-4.56-5.99-7.33-11.12-6.2-5.13,1.14-8.47,5.75-7.45,10.31,1.01,4.56,5.8,6.48,10.92,5.34l11.07-2.45-1.22-5.49Zm-10.68,4.18c-2.67,.59-5.16-.4-5.68-2.78-.53-2.37,1.21-4.77,3.88-5.36s5.25,.85,5.78,3.22c.53,2.37-1.31,4.33-3.98,4.92Z"/>
            <path class="cls-2" d="M59.38,22.84l-21.28,4.72-12.66,2.81,1.22,5.49,12.66-2.81c14.31-3.17,21.1-5.54,20.06-10.2Z"/>
          </g>
        </g>
      </g>
    </g>
  </g>
</svg>