<?xml version="1.0" encoding="UTF-8"?>
<svg id="Layer_2" data-name="Layer 2" xmlns="http://www.w3.org/2000/svg" viewBox="0 0 64 64">
  <defs>
    <style>
      .cls-1 {
        fill: #feed7c;
      }

      .cls-2 {
        fill: #fec92b;
      }

      .cls-3 {
        fill: #fc9504;
      }

      .cls-4 {
        fill: #1a1a1a;
        opacity: 0;
      }
    </style>
  </defs>
  <g id="Rough">
    <g>
      <rect class="cls-4" width="64" height="64"/>
      <g>
        <path class="cls-1" d="M4.85,17.7l27.15,16.72,27.15-16.72c-.18-.32-.45-.58-.8-.75L33.71,5.44c-1.08-.51-2.33-.51-3.42,0L5.64,16.95c-.35,.16-.62,.43-.8,.75Z"/>
        <g>
          <path class="cls-2" d="M25.92,8.36v3.32c0,1.96,2.72,3.55,6.08,3.55s6.08-1.59,6.08-3.55v-3.32h-12.17Z"/>
          <ellipse class="cls-1" cx="32" cy="8.36" rx="6.08" ry="3.55"/>
        </g>
        <g>
          <path class="cls-2" d="M12.16,14.15v3.32c0,1.96,2.72,3.55,6.08,3.55s6.08-1.59,6.08-3.55v-3.32H12.16Z"/>
          <ellipse class="cls-1" cx="18.24" cy="14.15" rx="6.08" ry="3.55"/>
        </g>
        <g>
          <path class="cls-2" d="M39.68,14.15v3.32c0,1.96,2.72,3.55,6.08,3.55s6.08-1.59,6.08-3.55v-3.32h-12.17Z"/>
          <ellipse class="cls-1" cx="45.76" cy="14.15" rx="6.08" ry="3.55"/>
        </g>
        <g>
          <path class="cls-2" d="M25.1,21.93v3.77c0,2.22,3.09,4.03,6.9,4.03s6.9-1.8,6.9-4.03v-3.77h-13.79Z"/>
          <ellipse class="cls-1" cx="32" cy="21.93" rx="6.9" ry="4.03"/>
        </g>
        <path class="cls-3" d="M32,34.42v24.77c.35,0,.71-.11,1.01-.32l22.4-15.56c.97-.67,1.59-1.73,1.71-2.9l2.24-21.67c.04-.37-.04-.73-.22-1.04l-27.15,16.72Z"/>
        <path class="cls-2" d="M6.87,40.41c.12,1.17,.75,2.23,1.71,2.9l22.4,15.56c.3,.21,.66,.32,1.01,.32v-24.77L4.85,17.7c-.17,.31-.25,.67-.22,1.04l2.24,21.67Z"/>
      </g>
    </g>
  </g>
</svg>