<?xml version="1.0" encoding="UTF-8"?>
<svg id="Layer_2" data-name="Layer 2" xmlns="http://www.w3.org/2000/svg" viewBox="0 0 64 64">
  <defs>
    <style>
      .cls-1 {
        fill: #fff;
      }

      .cls-2 {
        fill: #1a1a1a;
        opacity: 0;
      }
    </style>
  </defs>
  <g id="Rough">
    <g>
      <rect class="cls-2" width="64" height="64"/>
      <path class="cls-1" d="M59.15,17.7c-.18-.32-.45-.58-.8-.75l-6.53-3.05c-.23-1.84-2.85-3.29-6.06-3.29-.31,0-.61,.02-.9,.04l-7.02-3.28c-.74-1.48-3.07-2.56-5.84-2.56s-5.1,1.08-5.84,2.56l-7.02,3.28c-.29-.03-.59-.04-.9-.04-3.21,0-5.84,1.45-6.06,3.29l-6.53,3.05c-.35,.16-.62,.43-.8,.75-.17,.31-.25,.67-.22,1.04l2.24,21.67c.12,1.17,.75,2.23,1.71,2.9l22.4,15.56c.3,.21,.66,.32,1.01,.32s.71-.11,1.01-.32l22.4-15.56c.97-.67,1.59-1.73,1.71-2.9l2.24-21.67c.04-.37-.04-.73-.22-1.04Zm-18.48-1.6c1.09,.96,2.96,1.6,5.08,1.6s4-.64,5.08-1.6v1.37c0,1.21-2.09,2.55-5.08,2.55s-5.08-1.34-5.08-2.55v-1.37Zm-14.57,7.9c1.21,1.16,3.39,1.95,5.9,1.95s4.69-.78,5.9-1.95v1.69c0,1.43-2.42,3.03-5.9,3.03s-5.9-1.59-5.9-3.03v-1.69Zm5.9-12.1c2.13,0,4-.64,5.08-1.6v1.37c0,1.21-2.09,2.55-5.08,2.55s-5.08-1.34-5.08-2.55v-1.37c1.09,.96,2.96,1.6,5.08,1.6Zm-18.84,4.19c1.09,.96,2.96,1.6,5.08,1.6s4-.64,5.08-1.6v1.37c0,1.21-2.09,2.55-5.08,2.55s-5.08-1.34-5.08-2.55v-1.37Z"/>
    </g>
  </g>
</svg>