<?xml version="1.0" encoding="UTF-8"?>
<svg id="Layer_2" data-name="Layer 2" xmlns="http://www.w3.org/2000/svg" viewBox="0 0 64 64">
  <defs>
    <style>
      .cls-1 {
        fill: #fef99d;
      }

      .cls-2 {
        fill: #fedc00;
      }

      .cls-3 {
        fill: #fdaf18;
      }

      .cls-4 {
        fill: rgba(26, 26, 26, 0);
      }
    </style>
  </defs>
  <g id="Colour">
    <g>
      <rect class="cls-4" width="64" height="64"/>
      <g>
        <path class="cls-3" d="M40.43,41.21s5.91,.74,11.79-3.16c0,0,1.04-.14,1.55,.89,0,0-3.52,16.69-12.56,7.21l-.78-4.95Z"/>
        <path class="cls-2" d="M52.8,55.39c-3.13,.55-9.99-5.35-10.29-12.96,.32-15.37-4.95-23.59-8.94-28.67-3.99-5.08-4.65-7.38-4.7-8.08-.05-.7-.67-1.99-3.04-.49-.82,.52-1.28,.94-1.53,1.27-.29,.38-.21,.91,.16,1.21,2.87,2.36,3.39,4.84,3.39,4.84-2.98,21.2-2.82,29.92-2.82,29.92-.3,7.61-10.7,9.96-13.83,9.42-2.5-.44-2.63,1.4-2.63,1.4,15.5,5.11,20.87-1.98,22.7-6.87,2.14,6.62,8.34,18.48,24.16,10.41,0,0-.13-1.83-2.63-1.4Z"/>
        <path class="cls-1" d="M28.56,28.41c0-3.96,1.47-7.17,3.28-7.17s3.28,3.21,3.28,7.17c0,5.84-1.47,6.81-3.28,6.81s-3.28-.97-3.28-6.81Z"/>
      </g>
    </g>
  </g>
</svg>