<?xml version="1.0" encoding="UTF-8"?>
<svg id="Layer_2" data-name="Layer 2" xmlns="http://www.w3.org/2000/svg" viewBox="0 0 64 64">
  <defs>
    <style>
      .cls-1 {
        fill: #fef99d;
      }

      .cls-2 {
        fill: #fedc00;
      }

      .cls-3 {
        fill: #fdaf18;
      }

      .cls-4 {
        fill: rgba(26, 26, 26, 0);
      }

      .cls-5 {
        fill: #1a1a1a;
      }
    </style>
  </defs>
  <g id="Colour">
    <g>
      <rect class="cls-4" width="64" height="64"/>
      <g>
        <path class="cls-5" d="M53.52,51.32c-.37,0-.75,.03-1.14,.08-.18-.05-.39-.15-.64-.28,4.02-3.28,5.61-9.71,5.95-11.35,.19-.88,.07-1.8-.33-2.61-.96-1.92-2.87-3.11-5-3.11-.42,0-.68,.04-.68,.04-.54,.09-1.2,.32-1.66,.63-1.25,.83-2.5,1.39-3.66,1.78-.92-12.49-5.52-19.97-9.64-25.21-3.13-3.98-3.78-5.78-3.88-6.09-.29-2.74-2.44-4.7-5.17-4.7-1.28,0-2.58,.43-3.98,1.31-1.14,.72-1.98,1.44-2.57,2.22-1.6,2.09-1.25,5.05,.79,6.74,1.04,.85,1.57,1.68,1.83,2.19-2.68,19.36-2.73,28.15-2.72,29.41-.24,3.91-6.38,5.57-8.81,5.57-.23,0-.33-.02-.33-.02-.48-.08-.96-.13-1.41-.13-3.59,0-5.72,2.67-5.9,5.17-.13,1.83,.99,3.51,2.74,4.09,3.97,1.31,7.64,1.97,10.91,1.97,4.98,0,9.23-1.59,12.38-4.52,3.63,5.8,8.89,9,15.07,9h0c3.57,0,7.46-1.06,11.56-3.15,1.43-.73,2.29-2.25,2.17-3.85-.18-2.51-2.31-5.17-5.9-5.17Z"/>
        <g>
          <path class="cls-3" d="M40.43,41.21s5.91,.74,11.79-3.16c0,0,1.04-.14,1.55,.89,0,0-3.52,16.69-12.56,7.21l-.78-4.95Z"/>
          <path class="cls-2" d="M52.8,55.39c-3.13,.55-9.99-5.35-10.29-12.96,.32-15.37-4.95-23.59-8.94-28.67-3.99-5.08-4.65-7.38-4.7-8.08-.05-.7-.67-1.99-3.04-.49-.82,.52-1.28,.94-1.53,1.27-.29,.38-.21,.91,.16,1.21,2.87,2.36,3.39,4.84,3.39,4.84-2.98,21.2-2.82,29.92-2.82,29.92-.3,7.61-10.7,9.96-13.83,9.42-2.5-.44-2.63,1.4-2.63,1.4,15.5,5.11,20.87-1.98,22.7-6.87,2.14,6.62,8.34,18.48,24.16,10.41,0,0-.13-1.83-2.63-1.4Z"/>
          <path class="cls-1" d="M28.56,28.41c0-3.96,1.47-7.17,3.28-7.17s3.28,3.21,3.28,7.17c0,5.84-1.47,6.81-3.28,6.81s-3.28-.97-3.28-6.81Z"/>
        </g>
      </g>
    </g>
  </g>
</svg>