<?xml version="1.0" encoding="UTF-8"?>
<svg id="Layer_2" data-name="Layer 2" xmlns="http://www.w3.org/2000/svg" viewBox="0 0 64 64">
  <defs>
    <style>
      .cls-1 {
        fill: rgba(26, 26, 26, 0);
      }

      .cls-2 {
        fill: #1a1a1a;
      }
    </style>
  </defs>
  <g id="BW">
    <g>
      <rect class="cls-1" width="64" height="64"/>
      <path class="cls-2" d="M52.8,55.39c-2.22,.39-6.33-2.49-8.62-6.91,6.86,3.46,9.6-9.53,9.6-9.53-.51-1.03-1.55-.89-1.55-.89-3.74,2.48-7.48,3.08-9.72,3.19,.03-14.6-5.05-22.54-8.93-27.48-3.99-5.08-4.65-7.38-4.7-8.08-.05-.7-.67-1.99-3.04-.49-.82,.52-1.28,.94-1.53,1.27-.29,.38-.21,.91,.16,1.21,2.87,2.36,3.39,4.84,3.39,4.84-2.98,21.2-2.82,29.92-2.82,29.92-.3,7.61-10.7,9.96-13.83,9.42-2.5-.44-2.63,1.4-2.63,1.4,15.5,5.11,20.87-1.98,22.7-6.87,2.14,6.62,8.34,18.48,24.16,10.41,0,0-.13-1.83-2.63-1.4Z"/>
    </g>
  </g>
</svg>