<svg xmlns="http://www.w3.org/2000/svg" viewBox="0 0 64 64"><defs><style>.cls-1{opacity:0;}.cls-2{fill:#1a1a1a;}.cls-3{fill:#bdccd4;}.cls-4{fill:#39b54a;}.cls-5{fill:#009245;}.cls-6{fill:#7b97a6;}.cls-7{fill:#65d666;}.cls-8{fill:#abc0c9;}</style></defs><title>Paint Bucket Green Outline</title><g id="Layer_2" data-name="Layer 2"><g id="_101-200" data-name="101-200"><g class="cls-1"><rect class="cls-2" width="64" height="64"/></g><path class="cls-2" d="M56.12,2H7.88A7.39,7.39,0,0,0,.5,9.37V13.6A7.39,7.39,0,0,0,4.22,20L6.46,56.07c.11,4,4.42,4.51,9.86,5.13A145.32,145.32,0,0,0,32,62a145.32,145.32,0,0,0,15.68-.81c5.44-.62,9.75-1.1,9.86-5.13L59.78,20A7.39,7.39,0,0,0,63.5,13.6V9.37A7.39,7.39,0,0,0,56.12,2Z"/><path class="cls-3" d="M7.88,14.45l2.58,41.46C10.46,56.6,20.1,58,32,58s21.54-1.41,21.54-2.1l2.58-41.46Z"/><path class="cls-4" d="M26.44,15.71c3.68,0,5.09,9.54,5.1,16.4,0,6.61,0,14.38,4.06,14.38s4.82-4.91,5-14.38c.24-10,8.14-10,7.7,0-.3,6.77,3.82,7.25,6.25,7l1.53-24.63H26.18Z"/><polygon class="cls-5" points="55.56 23.33 10.65 16.33 56 16.33 55.56 23.33"/><path class="cls-6" d="M28,16.33H10.65l19.09,3A7.43,7.43,0,0,0,28,16.33Z"/><path class="cls-4" d="M7.88,6H56.12A3.38,3.38,0,0,1,59.5,9.37V13.6A3.39,3.39,0,0,1,56.12,17H7.88A3.39,3.39,0,0,1,4.5,13.6V9.37A3.38,3.38,0,0,1,7.88,6Z"/><ellipse class="cls-7" cx="15.5" cy="9.79" rx="5.64" ry="2.12"/><ellipse class="cls-7" cx="26.22" cy="9.79" rx="2.82" ry="2.06"/><path class="cls-8" d="M32,51A38.53,38.53,0,0,1,9.72,44l.74,11.93C10.46,56.6,20.1,58,32,58s21.54-1.41,21.54-2.1L54.28,44A38.53,38.53,0,0,1,32,51Z"/></g></g></svg>