<svg xmlns="http://www.w3.org/2000/svg" viewBox="0 0 64 64"><defs><style>.cls-1,.cls-2{fill:#1a1a1a;}.cls-1{opacity:0;}</style></defs><title>Paint Bucket Black</title><g id="Layer_2" data-name="Layer 2"><g id="Layer_2-2" data-name="Layer 2"><rect class="cls-1" width="64" height="64"/><path class="cls-2" d="M56.12,6H7.88A3.38,3.38,0,0,0,4.5,9.37V13.6A3.39,3.39,0,0,0,7.88,17H8l2.42,38.92C10.46,56.6,20.1,58,32,58s21.54-1.41,21.54-2.1L56,17h.16A3.39,3.39,0,0,0,59.5,13.6V9.37A3.38,3.38,0,0,0,56.12,6ZM50.9,34a3.26,3.26,0,0,1-6.5.13,13.33,13.33,0,0,1-.06-2c.44-10-7.47-10-7.7,0-.22,9.47-1,14.38-5,14.38s-4.05-7.77-4.06-14.38c0-5.35-.87-12.31-3-15.12H52Z"/></g></g></svg>