<?xml version="1.0" encoding="UTF-8"?>
<svg id="Layer_2" data-name="Layer 2" xmlns="http://www.w3.org/2000/svg" viewBox="0 0 64 64">
  <defs>
    <style>
      .cls-1 {
        fill: #d1523f;
      }

      .cls-1, .cls-2, .cls-3, .cls-4 {
        stroke-width: 0px;
      }

      .cls-5 {
        opacity: 0;
      }

      .cls-2 {
        fill: #f5b47f;
      }

      .cls-3 {
        fill: #e6875c;
      }

      .cls-4 {
        fill: #fff;
      }
    </style>
  </defs>
  <g id="Exports_1" data-name="Exports 1">
    <g>
      <g class="cls-5">
        <rect class="cls-4" width="64" height="64"/>
      </g>
      <g>
        <path class="cls-3" d="M38.16,25.83c8.27,8.27,12.45,19.76,14.83,31.46.62,3.04,5.02,2.9,5.48-.17,2.54-16.64.67-32.72-9.11-42.49C39.59,4.86,23.51,2.99,6.87,5.52c-3.07.47-3.21,4.87-.17,5.48,11.7,2.37,23.19,6.56,31.46,14.83Z"/>
        <g>
          <path class="cls-1" d="M17.58,4.53c-3.5.1-7.09.44-10.7.99-3.07.47-3.21,4.87-.17,5.48,3.1.63,6.18,1.39,9.19,2.31l1.68-8.79Z"/>
          <path class="cls-1" d="M59.47,46.42l-8.79,1.68c.92,3.01,1.69,6.09,2.31,9.19.62,3.04,5.02,2.9,5.48-.17.55-3.61.89-7.2.99-10.7Z"/>
        </g>
        <path class="cls-2" d="M42.97,31.63c.75,1.08,1.45,2.18,2.11,3.32l12.73-4.89c-.33-1.26-.71-2.49-1.15-3.69l-13.69,5.26Z"/>
        <path class="cls-2" d="M32.37,21.03l5.26-13.69c-1.2-.44-2.43-.82-3.69-1.15l-4.89,12.73c1.14.66,2.24,1.36,3.32,2.11Z"/>
        <path class="cls-2" d="M58.37,32.5l-12.17,4.49c.59,1.14,1.16,2.31,1.68,3.49l11.14-4.11c-.17-1.32-.38-2.61-.64-3.87Z"/>
        <path class="cls-2" d="M31.5,5.62c-1.27-.26-2.56-.47-3.87-.64l-4.11,11.14c1.19.52,2.35,1.08,3.49,1.68l4.49-12.17Z"/>
      </g>
    </g>
  </g>
</svg>