<?xml version="1.0" encoding="UTF-8"?>
<svg id="Layer_2" data-name="Layer 2" xmlns="http://www.w3.org/2000/svg" viewBox="0 0 64 64">
  <defs>
    <style>
      .cls-1, .cls-2 {
        fill: #1a1a1a;
        stroke-width: 0px;
      }

      .cls-2 {
        opacity: 0;
      }
    </style>
  </defs>
  <g id="Exports_1" data-name="Exports 1">
    <g>
      <rect class="cls-2" width="64" height="64"/>
      <path class="cls-1" d="M50.78,13.22C39.01,1.45,20.24,1.47,6.57,3.55c-2.34.36-4.01,2.26-4.07,4.63-.06,2.35,1.51,4.32,3.81,4.79,13.64,2.77,23.6,7.44,30.44,14.28,6.84,6.84,11.51,16.8,14.28,30.44.46,2.26,2.37,3.81,4.66,3.81.04,0,.08,0,.13,0,2.37-.06,4.28-1.73,4.63-4.07,2.08-13.67,2.1-32.44-9.67-44.21ZM23.51,16.13l4.11-11.14c1.32.17,2.61.38,3.87.64l-4.49,12.17c-1.14-.59-2.31-1.16-3.49-1.68ZM32.37,21.03c-1.08-.75-2.18-1.45-3.32-2.11l4.89-12.73c1.26.33,2.49.71,3.69,1.15l-5.26,13.69ZM42.97,31.63l13.69-5.26c.44,1.2.82,2.43,1.15,3.69l-12.73,4.89c-.66-1.14-1.36-2.24-2.11-3.32ZM47.87,40.49c-.52-1.19-1.08-2.35-1.68-3.49l12.17-4.49c.26,1.27.47,2.56.64,3.87l-11.14,4.11Z"/>
    </g>
  </g>
</svg>