<svg xmlns="http://www.w3.org/2000/svg" viewBox="0 0 64 64"><defs><style>.cls-1{opacity:0;}.cls-2{fill:#1a1a1a;}</style></defs><title>Tree Evergreen Flat Black</title><g id="Layer_2" data-name="Layer 2"><g id="Weapons_BW" data-name="Weapons BW"><g class="cls-1"><rect class="cls-2" width="64" height="64"/></g><path class="cls-2" d="M49.34,42.36l-6.82-9A32.32,32.32,0,0,0,45.73,32a2,2,0,0,0,.71-3L37.25,16.88c.52-.15,1-.33,1.54-.53a2,2,0,0,0,.85-3.09l-6-8a2,2,0,0,0-3.22,0l-6,8a2,2,0,0,0,.85,3.09c.5.2,1,.38,1.54.53L17.56,29a2,2,0,0,0,.71,3,32.32,32.32,0,0,0,3.21,1.33l-6.82,9a2,2,0,0,0,.71,3A37.41,37.41,0,0,0,27.42,49L27,53.44l-1.86,3.8a.43.43,0,0,0,.51.6L29,56.79l2.19,2.36a1.08,1.08,0,0,0,1.6,0L35,56.79l3.39,1.05a.43.43,0,0,0,.51-.6L37,53.44,36.58,49a37.41,37.41,0,0,0,12.05-3.58A2,2,0,0,0,49.34,42.36Z"/></g></g></svg>