<svg xmlns="http://www.w3.org/2000/svg" viewBox="0 0 64 64"><defs><style>.cls-1{opacity:0;}.cls-2{fill:#1a1a1a;}.cls-3{fill:#bb5938;}.cls-4{fill:#009245;}.cls-5{fill:#006837;}.cls-6{fill:#d1864b;}</style></defs><title>Tree Evergreen Outline</title><g id="Layer_2" data-name="Layer 2"><g id="_101-200" data-name="101-200"><g class="cls-1"><rect class="cls-2" width="64" height="64"/></g><path class="cls-2" d="M53.63,42.38c-.38-1.84-1.75-3.29-2.85-4.74L49.1,35.43c-.07-.1-.38-.38-.38-.51s.81-.92,1-1.17a6.15,6.15,0,0,0-.21-7.32c-.88-1.17-1.77-2.33-2.66-3.5l-3.2-4.22c-.11-.15-.63-.63-.64-.84A4.78,4.78,0,0,1,43.5,17,6.11,6.11,0,0,0,44,13.43a10.25,10.25,0,0,0-2.38-4.25L38.09,4.6a11.44,11.44,0,0,0-3-3.27A6.09,6.09,0,0,0,27.2,2.88c-1.89,2.38-3.68,4.85-5.52,7.28-1.33,1.75-2.14,3.69-1.52,5.93a5.77,5.77,0,0,0,.41,1.07c.07.15.41.59.4.71s-.18.21-.21.28a9.92,9.92,0,0,1-1.12,1.48l-3.47,4.58A35.87,35.87,0,0,0,14,27.11a6.11,6.11,0,0,0-.65,4.69,6,6,0,0,0,.87,1.88c.2.28,1.06,1,1.06,1.22s-1,1.29-1.19,1.57l-1.74,2.29c-1.37,1.81-2.48,3.64-2,6,.74,3.58,4.28,4.82,7.34,5.93a41,41,0,0,0,5.35,1.56c-.69,1.78-2.14,3.44-2,5.45a4.45,4.45,0,0,0,3.2,3.93,4.54,4.54,0,0,0,2.53,0c.28-.08.76-.35,1-.27s.72.76.92.93a5.11,5.11,0,0,0,7-.49c.42-.43.36-.51.94-.33a5.7,5.7,0,0,0,2.09.35,4.47,4.47,0,0,0,3.78-2.66c1.18-2.7-.87-4.54-1.64-6.91a42.57,42.57,0,0,0,8.49-2.84C52.24,48.15,54.3,45.67,53.63,42.38Z"/><path class="cls-3" d="M38.89,57.23,37,53.44,35.79,41.28h-7.6L27,53.44h0L25.1,57.23a.43.43,0,0,0,.51.61L29,56.79l2.19,2.36a1.11,1.11,0,0,0,1.61,0L35,56.79l3.38,1.05A.44.44,0,0,0,38.89,57.23Z"/><path class="cls-4" d="M32,49.25a37.59,37.59,0,0,0,16.64-3.86,2,2,0,0,0,.71-3L33.6,21.6a2,2,0,0,0-3.21,0L14.65,42.35a2,2,0,0,0,.71,3A37.55,37.55,0,0,0,32,49.25Z"/><path class="cls-5" d="M39.48,29.36l-6.83,2L31,35s20.75,3.59,10.53,13a37.23,37.23,0,0,0,7.12-2.63,2,2,0,0,0,.71-3Z"/><path class="cls-4" d="M32,35.14A31.72,31.72,0,0,0,45.72,32a2,2,0,0,0,.72-3L33.6,12.08a2,2,0,0,0-3.21,0L17.55,29a2,2,0,0,0,.71,3A31.75,31.75,0,0,0,32,35.14Z"/><path class="cls-5" d="M46.44,29,35.11,14.07,33.85,16s2,.6,5.58,8.15S31,35,31,35v.08l1,0A31.72,31.72,0,0,0,45.72,32,2,2,0,0,0,46.44,29Z"/><path class="cls-4" d="M32,17.65a18.24,18.24,0,0,0,6.79-1.3,2,2,0,0,0,.85-3.1l-6-7.95a2,2,0,0,0-3.21,0l-6,8a2,2,0,0,0,.86,3.1A18.18,18.18,0,0,0,32,17.65Z"/><path class="cls-5" d="M36.32,13.49c-.43,3-6.1,3.88-6.77,4a17.85,17.85,0,0,0,2.44.18,18.24,18.24,0,0,0,6.79-1.3,2,2,0,0,0,.85-3.1L34.9,7h0A11.94,11.94,0,0,1,36.32,13.49Z"/><path class="cls-6" d="M32.35,54a2.23,2.23,0,0,0-2.07-2,29.7,29.7,0,0,1-3.13-.39L27,53.44,25.1,57.23a.43.43,0,0,0,.51.61L29,56.79l2.19,2.36a1.15,1.15,0,0,0,.7.33A17.38,17.38,0,0,0,32.35,54Z"/></g></g></svg>