<svg xmlns="http://www.w3.org/2000/svg" viewBox="0 0 64 64"><defs><style>.cls-1{opacity:0;}.cls-2,.cls-3{fill:#1a1a1a;}.cls-3,.cls-4,.cls-5{fill-rule:evenodd;}.cls-4{fill:#80bad9;}.cls-5{fill:#fff;}</style></defs><title>Arrow Up Outline </title><g id="Layer_2" data-name="Layer 2"><g id="Layer_3" data-name="Layer 3"><g class="cls-1"><rect class="cls-2" width="64" height="64"/></g><path class="cls-3" d="M12.74,56.74A7.13,7.13,0,0,1,5.63,50.3a3.69,3.69,0,0,1,0-.58V43.48a1.77,1.77,0,0,1,0-.23,7,7,0,0,1,1.19-3.89L26.06,10.44a7.14,7.14,0,0,1,11.88,0L57.21,39.36a7,7,0,0,1,1.19,3.89,1.77,1.77,0,0,1,0,.23v6.24a3.81,3.81,0,0,1,0,.59,7.13,7.13,0,0,1-7.11,6.43Z"/><path class="cls-4" d="M53.88,41.58,34.61,12.66a3.13,3.13,0,0,0-5.22,0L10.12,41.58a3.05,3.05,0,0,0-.52,1.9h0v6.24h0a3.14,3.14,0,0,0,3.14,3H51.26a3.14,3.14,0,0,0,3.14-3h0V43.48h0A3.05,3.05,0,0,0,53.88,41.58Z"/><path class="cls-5" d="M34.61,12.66a3.13,3.13,0,0,0-5.22,0L10.12,41.58a3.14,3.14,0,0,0,2.62,4.88H51.26a3.14,3.14,0,0,0,2.62-4.88Z"/></g></g></svg>