<svg xmlns="http://www.w3.org/2000/svg" viewBox="0 0 64 64"><defs><style>.cls-1{opacity:0;}.cls-2,.cls-3{fill:#1a1a1a;}.cls-3,.cls-4,.cls-5{fill-rule:evenodd;}.cls-4{fill:#80bad9;}.cls-5{fill:#fff;}</style></defs><title>Arrow Down Outline </title><g id="Layer_2" data-name="Layer 2"><g id="Layer_3" data-name="Layer 3"><g class="cls-1"><rect class="cls-2" width="64" height="64"/></g><path class="cls-3" d="M32,56.74a7.11,7.11,0,0,1-5.94-3.18L6.79,24.64A7.11,7.11,0,0,1,5.6,21a2.53,2.53,0,0,1,0-.28V14.35c0-.15,0-.29,0-.43a7.1,7.1,0,0,1,7.13-6.66H51.26a7.1,7.1,0,0,1,7.13,6.66c0,.14,0,.29,0,.43v6.34c0,.11,0,.21,0,.31a7.09,7.09,0,0,1-1.19,3.64L37.94,53.56A7.12,7.12,0,0,1,32,56.74Z"/><path class="cls-4" d="M51.26,11.26H12.74A3.13,3.13,0,0,0,9.6,14.35h0v6.34h0a3.13,3.13,0,0,0,.53,1.73L29.39,51.34a3.13,3.13,0,0,0,5.22,0L53.88,22.42a3.13,3.13,0,0,0,.53-1.73h0V14.35h0A3.13,3.13,0,0,0,51.26,11.26Z"/><path class="cls-5" d="M51.26,11.26H12.74a3.14,3.14,0,0,0-2.62,4.88L29.39,45.06a3.13,3.13,0,0,0,5.22,0L53.88,16.14A3.14,3.14,0,0,0,51.26,11.26Z"/></g></g></svg>