<svg xmlns="http://www.w3.org/2000/svg" viewBox="0 0 64 64"><defs><style>.cls-1{opacity:0;}.cls-2,.cls-4{fill:#fff;}.cls-3{fill:#80bad9;}.cls-3,.cls-4{fill-rule:evenodd;}</style></defs><title>Arrow Left </title><g id="Layer_2" data-name="Layer 2"><g id="Layer_3" data-name="Layer 3"><g class="cls-1"><rect class="cls-2" width="64" height="64"/></g><path class="cls-3" d="M44.72,7,15.8,26.24a3.14,3.14,0,0,0-1.4,2.62h0v6.28h0a3.14,3.14,0,0,0,1.4,2.62L44.72,57a3.14,3.14,0,0,0,4.88-2.61V9.59A3.14,3.14,0,0,0,44.72,7Z"/><path class="cls-4" d="M44.72,7,15.8,26.24a3.14,3.14,0,0,0,0,5.23L44.72,50.74a3.14,3.14,0,0,0,4.88-2.62V9.59A3.14,3.14,0,0,0,44.72,7Z"/></g></g></svg>