<svg xmlns="http://www.w3.org/2000/svg" viewBox="0 0 64 64"><defs><style>.cls-1{opacity:0;}.cls-2,.cls-4{fill:#fff;}.cls-3{fill:#80bad9;}.cls-3,.cls-4{fill-rule:evenodd;}</style></defs><title>Arrow Right </title><g id="Layer_2" data-name="Layer 2"><g id="Layer_3" data-name="Layer 3"><g class="cls-1"><rect class="cls-2" width="64" height="64"/></g><path class="cls-3" d="M48.2,26.24,19.28,7A3.14,3.14,0,0,0,14.4,9.59V54.41A3.14,3.14,0,0,0,19.28,57L48.2,37.76a3.13,3.13,0,0,0,1.4-2.6h0V28.87h0A3.13,3.13,0,0,0,48.2,26.24Z"/><path class="cls-4" d="M48.2,26.24,19.28,7A3.14,3.14,0,0,0,14.4,9.59V48.12a3.14,3.14,0,0,0,4.88,2.62L48.2,31.47A3.14,3.14,0,0,0,48.2,26.24Z"/></g></g></svg>