<svg xmlns="http://www.w3.org/2000/svg" viewBox="0 0 64 64"><defs><style>.cls-1{opacity:0;}.cls-2,.cls-3{fill:#1a1a1a;}.cls-3,.cls-4,.cls-5{fill-rule:evenodd;}.cls-4{fill:#80bad9;}.cls-5{fill:#fff;}</style></defs><title>Arrow Left Outline </title><g id="Layer_2" data-name="Layer 2"><g id="Layer_3" data-name="Layer 3"><g class="cls-1"><rect class="cls-2" width="64" height="64"/></g><path class="cls-3" d="M46.45,61.55a7.08,7.08,0,0,1-4-1.2L13.58,41.08a7.11,7.11,0,0,1-3.18-5.94V28.86a7.14,7.14,0,0,1,3.18-5.95L42.5,3.65A7.14,7.14,0,0,1,53.6,9.59V54.41a7.08,7.08,0,0,1-2.2,5.16,7.15,7.15,0,0,1-4.95,2Z"/><path class="cls-4" d="M44.72,7,15.8,26.24a3.14,3.14,0,0,0-1.4,2.62h0v6.28h0a3.14,3.14,0,0,0,1.4,2.62L44.72,57a3.14,3.14,0,0,0,4.88-2.61V9.59A3.14,3.14,0,0,0,44.72,7Z"/><path class="cls-5" d="M44.72,7,15.8,26.24a3.14,3.14,0,0,0,0,5.23L44.72,50.74a3.14,3.14,0,0,0,4.88-2.62V9.59A3.14,3.14,0,0,0,44.72,7Z"/></g></g></svg>