<?xml version="1.0" encoding="UTF-8"?>
<svg id="Layer_2" data-name="Layer 2" xmlns="http://www.w3.org/2000/svg" viewBox="0 0 64 64">
  <defs>
    <style>
      .cls-1 {
        fill: #fec92b;
      }

      .cls-2 {
        fill: #e6843a;
      }

      .cls-3 {
        fill: #fdaf18;
      }

      .cls-4 {
        fill: rgba(26, 26, 26, 0);
      }

      .cls-5 {
        fill: #1a1a1a;
      }
    </style>
  </defs>
  <g id="Colour">
    <g>
      <rect class="cls-4" x="0" y="0" width="64" height="64" transform="translate(64 0) rotate(90)"/>
      <g>
        <path class="cls-5" d="M61.7,35.92c-.22-.69-.56-1.32-1.01-1.85,.64-2.28,.28-4.48-.39-6.2,.1-.33,.18-.67,.23-1.02,.72-1.1,1.03-2.45,.8-3.8-.07-.43-.19-.85-.36-1.24,.79-2.45,.72-4.82-.22-6.86,0,0-.03-.06-.04-.09-.11-.23-.22-.46-.35-.68-.66-1.1-1.54-2-2.64-2.68-.6-.37-1.26-.67-1.97-.89-.84-.26-1.75-.41-2.71-.46-.32-.53-.69-1.01-1.12-1.44-.33-.33-.68-.62-1.07-.87-1.12-.75-2.43-1.16-3.88-1.23-.14-.21-.29-.41-.44-.6-.65-.8-1.45-1.44-2.38-1.91-.75-.38-1.58-.64-2.48-.78-.37-.06-.75-.09-1.12-.1-.13,0-.26,0-.39,0-.45,0-.92,.03-1.4,.08-.19-.19-.38-.38-.59-.56-1.2-1.02-3.31-2.25-6.56-2.25-.15,0-.31,0-.47,0-2.77,.1-5.26,1.16-7.21,3.06-.46,.45-.88,.94-1.26,1.47-3.92,.23-6.29,1.81-7.63,3.55-.8,.08-1.73,.22-2.7,.45-5.49,1.3-7.58,4.32-8.38,6.63-.35,1.01-.58,2.02-.71,3.02-.58,.73-.98,1.61-1.13,2.58-.25,1.59,.22,3.15,1.27,4.34-.02,.1-.04,.2-.07,.3-.09,.42-.15,.82-.2,1.23-.05,.4-.08,.79-.09,1.17,0,.38,0,.73,.02,1.08,.04,.67,.14,1.33,.29,1.95,.12,.5,.28,.98,.46,1.44-.29,.87-.43,1.69-.46,2.43-.35,.65-.57,1.37-.63,2.13-.06,.7,.03,1.38,.23,2.02-.19,.45-.34,.9-.46,1.34-.2,.71-.31,1.42-.33,2.1-.02,.4,0,.81,.04,1.2,.1,.89,.35,1.74,.74,2.53,.21,.42,.46,.82,.74,1.19,.44,.59,.94,1.12,1.47,1.58,.34,.29,.69,.55,1.12,.82,1.12,.7,2.38,1.14,3.69,1.3,.32,.41,.68,.79,1.07,1.13,1,.87,2.19,1.45,3.53,1.74,.14,.03,.29,.06,.44,.08,1.44,2.23,3.75,3.68,6.67,4.09,.21,.03,.43,.06,.65,.07,1.02,1.44,2.7,3.06,5.4,4.24,1.12,.49,2.28,.74,3.45,.74,3.08,0,5.4-1.68,6.81-3.11,5.28-.17,8.63-3.1,10.4-5.78,3.1-.41,5.1-1.87,6.32-3.47,2.7-.33,4.78-2.01,5.53-4.55,.53-1.79,.47-3.4,.1-4.72,.14-.32,.26-.64,.36-.97,1.16-1.36,1.57-3.22,1.02-4.97Z"/>
        <path class="cls-3" d="M36.94,7.82s6.79-2.64,7.4,3.17c0,0,5.38-2.08,5.91,3.41,0,0,4.85-1.26,6.69,1.82,1.83,3.08-1.16,7.13-1.16,7.13,0,0,1.88,2.57,0,4.48,0,0,2.84,3.62,0,7.16,0,0,2.92,3.08,0,6.7,0,0,1.37,1.21,.62,3.75s-4.1,1.56-4.1,1.56c0,0-.53,4.03-6.39,3.69,0,0-2.06,6.46-9.74,5.62,0,0-2.84,4.53-6.83,2.78-4-1.75-4.63-4.64-4.63-4.64,0,0-5.81,1.14-7.1-4.1,0,0-4.08,1.03-5.27-3.05,0,0-3.2,.99-5.44-2.01-2.25-3,1.43-7.12,1.43-7.12,0,0-2.19-2.12,0-5.62,0,0-2.88-2.86,0-8.95,0,0-2.18-1.91-.56-6.66s9.8-4.5,9.8-4.5c0,0,.37-3.96,7.43-3.4,0,0,1.52-4.39,6.31-4.56s5.65,3.31,5.65,3.31Z"/>
        <path class="cls-1" d="M32.62,54.46c3.31-4.29-.78-8.78-.78-8.78,0,0,3.21-1.62,1.47-7.18,0,0,4-2.81,.19-8.18,0,0,5.16,.65,5.79-5.85,0,0,7.12,1.66,8.66-3.95,0,0,7.83,1.86,9.19-3.9-.06-.13-.11-.26-.19-.39-1.83-3.08-6.69-1.82-6.69-1.82-.53-5.49-5.91-3.41-5.91-3.41-.61-5.82-7.4-3.17-7.4-3.17,0,0-.86-3.48-5.65-3.31-4.79,.17-6.31,4.56-6.31,4.56-7.05-.56-7.43,3.4-7.43,3.4,0,0-8.18-.25-9.8,4.5-1.62,4.74,.56,6.66,.56,6.66-2.88,6.09,0,8.95,0,8.95-2.19,3.5,0,5.62,0,5.62,0,0-3.68,4.12-1.43,7.12,2.25,3,5.44,2.01,5.44,2.01,1.2,4.07,5.27,3.05,5.27,3.05,1.29,5.24,7.1,4.1,7.1,4.1,0,0,4.61,4.29,7.92,0Z"/>
        <path class="cls-2" d="M8.03,20.77c8.22,3.63,16.36,7.46,24.45,11.36,1,.48,2.21,.44,3.18-.09,6.53-3.28,13.09-6.48,19.78-9.42,1.61-.68,2.78,1.59,1.27,2.51-6.49,3.72-13.11,7.21-19.8,10.56-1.92,.85-4.21,.8-6.09-.13-4.04-1.98-8.06-3.99-12.06-6.04-4.01-2.03-8-4.1-11.96-6.22-1.54-.87-.43-3.21,1.23-2.52h0Z"/>
        <path class="cls-2" d="M8.56,36.56c7.75,3.94,15.33,8.29,22.87,12.61,.67,.28,1.43,.24,2.06-.15,.24-.14,.88-.52,1.13-.67,7.06-4.14,14.21-8.21,21.45-12.02,1.42-.72,2.63,1.27,1.3,2.19-7.17,4.78-14.55,9.33-21.94,13.77-1.96,1.23-4.59,1.15-6.5-.14,0,0-.76-.45-.76-.45l-3.02-1.79c-6.03-3.61-12.02-7.28-17.88-11.17-1.31-.9-.16-2.9,1.29-2.2h0Z"/>
        <g>
          <ellipse class="cls-3" cx="28.31" cy="18.8" rx="1.36" ry="2.42" transform="translate(-2.74 32.61) rotate(-57.57)"/>
          <ellipse class="cls-3" cx="38" cy="14.89" rx="2.78" ry="1.57" transform="translate(21.6 52.26) rotate(-87.7)"/>
          <ellipse class="cls-3" cx="31.09" cy="14.25" rx="1.57" ry="2.78" transform="translate(-2.96 17.44) rotate(-29.99)"/>
        </g>
      </g>
    </g>
  </g>
</svg>