<?xml version="1.0" encoding="UTF-8"?>
<svg id="Layer_2" data-name="Layer 2" xmlns="http://www.w3.org/2000/svg" viewBox="0 0 64 64">
  <defs>
    <style>
      .cls-1 {
        fill: rgba(26, 26, 26, 0);
      }

      .cls-2 {
        fill: #1a1a1a;
      }
    </style>
  </defs>
  <g id="BW">
    <g>
      <rect class="cls-1" x="0" y="0" width="64" height="64" transform="translate(64 0) rotate(90)"/>
      <g>
        <path class="cls-2" d="M32.5,32.13c1.04,.48,2.3,.44,3.31-.09,6.3-3.04,12.64-6.02,19.08-8.78,.97-.41,1.72-1.2,2.1-2.17,.55-1.42,.89-3.26-.06-4.85-1.83-3.08-6.69-1.82-6.69-1.82-.53-5.49-5.91-3.41-5.91-3.41-.61-5.82-7.4-3.17-7.4-3.17,0,0-.86-3.48-5.65-3.31-4.79,.17-6.31,4.56-6.31,4.56-7.05-.56-7.43,3.4-7.43,3.4,0,0-8.18-.25-9.8,4.5-.19,.55-.32,1.05-.42,1.53-.26,1.3,.44,2.59,1.66,3.12,7.89,3.38,15.72,6.93,23.5,10.53Z"/>
        <path class="cls-2" d="M56.6,25.72c-6.4,3.5-12.91,6.79-19.49,9.96-2,.85-4.38,.8-6.34-.13-4.21-1.98-8.38-3.99-12.55-6.04-2.86-1.39-5.71-2.81-8.55-4.24-.93-.47-2.08,.02-2.33,1.03-1.05,4.25,.97,6.26,.97,6.26-.64,1.02-.91,1.93-.96,2.69-.05,.7,.31,1.36,.93,1.68l23.12,12.23c.69,.28,1.49,.24,2.14-.15,.25-.14,.92-.52,1.18-.67,6.81-3.83,13.7-7.61,20.68-11.18,.81-.41,1.01-1.48,.39-2.15l-.02-.03s4.43-4.56,.83-9.28Z"/>
        <path class="cls-2" d="M56.92,39.47c-7,4.44-14.17,8.69-21.35,12.83-2.04,1.23-4.78,1.15-6.77-.14,0,0-.79-.45-.79-.45l-3.15-1.79c-5.53-3.18-11.01-6.41-16.41-9.79-.6-.38-1.41-.16-1.71,.49-.64,1.4-.99,3.17,.13,4.67,2.25,3,5.44,2.01,5.44,2.01,1.2,4.07,5.27,3.05,5.27,3.05,1.29,5.24,7.1,4.1,7.1,4.1,0,0,.63,2.89,4.63,4.64,4,1.75,6.83-2.78,6.83-2.78,7.68,.84,9.74-5.62,9.74-5.62,5.86,.34,6.39-3.69,6.39-3.69,0,0,7.55-.07,4.63-7.54Z"/>
      </g>
    </g>
  </g>
</svg>