<svg xmlns="http://www.w3.org/2000/svg" viewBox="0 0 64 64"><defs><style>.cls-1{opacity:0;}.cls-2,.cls-3{fill:#1a1a1a;}.cls-3{fill-rule:evenodd;}</style></defs><title>Arrow Back Black </title><g id="Layer_2" data-name="Layer 2"><g id="Layer_3" data-name="Layer 3"><g class="cls-1"><rect class="cls-2" width="64" height="64"/></g><path class="cls-3" d="M38.64,8.06H14.14a1.29,1.29,0,0,0-1.29,1.29V19.66A1.29,1.29,0,0,0,14.14,21h24.5a7.74,7.74,0,1,1,0,15.48H25V31.1A1.29,1.29,0,0,0,23,30L5.3,41.8A1.29,1.29,0,0,0,5.3,44L23,55.73a1.29,1.29,0,0,0,2-1.08V49.32H38.64a20.63,20.63,0,1,0,0-41.26Z"/></g></g></svg>