<svg xmlns="http://www.w3.org/2000/svg" viewBox="0 0 64 64"><defs><style>.cls-1{opacity:0;}.cls-2,.cls-4{fill:#fff;}.cls-3{fill:#80bad9;}.cls-3,.cls-4{fill-rule:evenodd;}</style></defs><title>Arrow Back </title><g id="Layer_2" data-name="Layer 2"><g id="Layer_3" data-name="Layer 3"><g class="cls-1"><rect class="cls-2" width="64" height="64"/></g><path class="cls-3" d="M59.28,26.11A20.63,20.63,0,0,0,38.64,5.48H14.14a1.29,1.29,0,0,0-1.29,1.29V22.24a1.29,1.29,0,0,0,1.29,1.29h24.5a7.74,7.74,0,0,1,7.29,5.16,7.74,7.74,0,0,1-7.29,5.16H25V28.52a1.28,1.28,0,0,0-2-1.07L5.3,39.22a1.31,1.31,0,0,0-.58,1.08v5.15a1.31,1.31,0,0,0,.58,1.08L23,58.31a1.29,1.29,0,0,0,2-1.08V51.9H38.64A20.64,20.64,0,0,0,59.28,31.27a21.91,21.91,0,0,0-.18-2.58A21.91,21.91,0,0,0,59.28,26.11Z"/><path class="cls-4" d="M38.64,5.48H14.14a1.29,1.29,0,0,0-1.29,1.29V17.08a1.29,1.29,0,0,0,1.29,1.29h24.5a7.74,7.74,0,1,1,0,15.48H25V28.52a1.28,1.28,0,0,0-2-1.07L5.3,39.22a1.29,1.29,0,0,0,0,2.15L23,53.15a1.29,1.29,0,0,0,2-1.08V46.74H38.64a20.63,20.63,0,1,0,0-41.26Z"/></g></g></svg>