<svg xmlns="http://www.w3.org/2000/svg" viewBox="0 0 64 64"><defs><style>.cls-1{opacity:0;}.cls-2{fill:#1a1a1a;}</style></defs><title>Music Black </title><g id="Layer_2" data-name="Layer 2"><g id="Layer_3" data-name="Layer 3"><g class="cls-1"><rect class="cls-2" width="64" height="64"/></g><path class="cls-2" d="M50.63,18.91C40.54,18,36.6,10,35.32,6.3a2.68,2.68,0,0,0-2.54-1.8H30.51a2.68,2.68,0,0,0-2.68,2.68V31.36a13.56,13.56,0,0,0-7.7.68,14.36,14.36,0,0,0-9.2,12.38A14.2,14.2,0,0,0,25.48,59.5c7.62-.2,13.83-7,13.83-14.63V25.8H50.42a2.68,2.68,0,0,0,2.68-2.68V21.58A2.7,2.7,0,0,0,50.63,18.91Z"/></g></g></svg>