<svg xmlns="http://www.w3.org/2000/svg" viewBox="0 0 64 64"><defs><style>.cls-1{opacity:0;}.cls-2{fill:#1a1a1a;}.cls-3{fill:#4d4d4d;}.cls-4{fill:gray;}</style></defs><title>Music Outline </title><g id="Layer_2" data-name="Layer 2"><g id="Layer_3" data-name="Layer 3"><g class="cls-1"><rect class="cls-2" width="64" height="64"/></g><path class="cls-2" d="M25.11,63.5a18.29,18.29,0,0,1-13.26-5.73A18.1,18.1,0,0,1,6.93,44.18,18.38,18.38,0,0,1,18.68,28.31a17.81,17.81,0,0,1,5.15-1.17v-20A6.69,6.69,0,0,1,30.51.5h2.27A6.69,6.69,0,0,1,39.09,5c1.2,3.42,4.34,9.26,11.9,10a6.66,6.66,0,0,1,6.11,6.65v1.54a6.69,6.69,0,0,1-6.68,6.68H43.31V44.87c0,9.85-8.12,18.38-17.73,18.62Z"/><path class="cls-3" d="M50.63,18.91C40.54,18,36.6,10,35.32,6.3a2.68,2.68,0,0,0-2.54-1.8H30.51a2.68,2.68,0,0,0-2.68,2.68V31.36a13.56,13.56,0,0,0-7.7.68,14.36,14.36,0,0,0-9.2,12.38A14.2,14.2,0,0,0,25.48,59.5c7.62-.2,13.83-7,13.83-14.63V25.8H50.42a2.68,2.68,0,0,0,2.68-2.68V21.58A2.7,2.7,0,0,0,50.63,18.91Z"/><path class="cls-4" d="M24.75,43.94c-4.57,4.34-10.37,4.32-10.77-.47.63-5.32,6.21-10.63,12.25-9.28a2.84,2.84,0,0,1,2.3,2.58C28.64,38.93,27.24,41.71,24.75,43.94Z"/></g></g></svg>