<svg xmlns="http://www.w3.org/2000/svg" viewBox="0 0 64 64"><defs><style>.cls-1,.cls-2{fill:#1a1a1a;}.cls-1{opacity:0;}.cls-3{fill:#d3dee3;}.cls-4{fill:#1778ff;}.cls-5{fill:#7b97a6;}.cls-6{fill:#0049c7;}.cls-7{fill:#37b9ff;}.cls-8{fill:#abc0c9;}.cls-9{fill:#fff;}</style></defs><title>Grappling Hook Outline</title><g id="Layer_2" data-name="Layer 2"><g id="Layer_2-2" data-name="Layer 2"><rect class="cls-1" width="64" height="64"/><path class="cls-2" d="M59.5.5H46.56c-.93,0-1.87,0-2.89.11l-.24,0c-.86.07-1.74.17-2.69.3l-.15,0c-.88.14-1.75.29-2.53.45l-.12,0c-.81.17-1.66.37-2.48.59l-.22.06c-.76.2-1.49.42-2.28.67l-.13,0c-.73.24-1.44.48-2.17.75s-1.36.52-2,.78l-.13.06c-.59.24-1.15.49-1.6.69l-.24.11a46.58,46.58,0,0,0-5.38,2.87,4,4,0,0,0,2.18,7.36h.28l.8-.06a4,4,0,0,0-1.17,1L11.83,31.09a4.83,4.83,0,0,0-1.09,4.33L3.84,37.9A4,4,0,0,0,1.3,40.79L.6,43.92a4,4,0,0,0,1.07,3.7l.58.58A4.08,4.08,0,0,0,3.42,51l9.6,9.6a4.06,4.06,0,0,0,2.78,1.17l.58.58a4,4,0,0,0,2.83,1.17,3.69,3.69,0,0,0,.87-.1l3.13-.7a4,4,0,0,0,2.89-2.55l2.48-6.88a6.41,6.41,0,0,0,1.06.09,5,5,0,0,0,3.25-1.16L47.65,40.59a4,4,0,0,0,1-1.17l-.06.8a4,4,0,0,0,7.34,2.46c.31-.47,7.56-11.74,7.56-25.24V4.5A4,4,0,0,0,59.5.5Z"/><rect class="cls-3" x="39.23" y="10.15" width="13.35" height="15.89" transform="translate(26.24 -27.16) rotate(45)"/><path class="cls-3" d="M19.21,59.5,4.5,44.79l.7-3.13,23-8.26,2.43,2.43-8.26,23ZM10.79,44.69l8.52,8.52L23,41Z"/><path class="cls-4" d="M26.55,18.82,14.87,33.69c-1,1.05,1.56,5.35,5.82,9.62s8.57,6.87,9.62,5.82L45.18,37.45Z"/><polygon class="cls-5" points="10.79 44.69 6.25 46.54 6.25 48.15 15.85 57.75 17.46 57.75 19.31 53.21 10.79 44.69"/><path class="cls-6" d="M19.17,41.71c.48.53,1,1.06,1.52,1.6,4.27,4.26,8.57,6.87,9.62,5.82L45.18,37.45,41.63,33.9C39,37.56,29.31,49.45,19.17,41.71Z"/><ellipse class="cls-7" cx="38.22" cy="25.78" rx="0.44" ry="8.52" transform="translate(-7.04 34.58) rotate(-45)"/><polygon class="cls-5" points="45.01 28.44 35.56 19 36.18 23.75 40.26 27.82 45.01 28.44"/><polygon class="cls-7" points="45.18 37.45 26.55 18.82 32.19 19.75 44.24 31.81 45.18 37.45"/><path class="cls-7" d="M26.55,18.82c-.47.48,3.32,5,8.46,10.17s9.69,8.93,10.17,8.46Z"/><ellipse class="cls-5" cx="38.22" cy="25.78" rx="0.24" ry="2.88" transform="translate(-7.04 34.58) rotate(-45)"/><ellipse class="cls-8" cx="40.28" cy="23.72" rx="0.35" ry="6.68" transform="translate(-4.97 35.43) rotate(-45)"/><path class="cls-5" d="M53.8,16.46S44.91,26,40,23.89c0,0-.09.18-.07.21,2.61,2.61,5,4.47,5.1,4.34L55.49,18Z"/><path class="cls-3" d="M59.5,17.44V4.5H46.56c-12.47,0-23.06,6.91-23.06,6.91C43.85,10,47.94,16.06,47.94,16.06S54,20.15,52.59,40.5C52.59,40.5,59.5,29.91,59.5,17.44Z"/><path class="cls-9" d="M46.56,4.5A44.79,44.79,0,0,0,28.45,8.78,38.34,38.34,0,0,1,43.29,7L55.9,8.1l3.6-3.6Z"/></g></g></svg>