<svg xmlns="http://www.w3.org/2000/svg" viewBox="0 0 64 64"><defs><style>.cls-1,.cls-2{fill:#1a1a1a;}.cls-1{opacity:0;}</style></defs><title>Grappling Hook Black</title><g id="Layer_2" data-name="Layer 2"><g id="Layer_2-2" data-name="Layer 2"><rect class="cls-1" width="64" height="64"/><path class="cls-2" d="M46.56,4.5c-.88,0-1.74,0-2.59.1l-.22,0c-.8.06-1.58.15-2.35.26l-.22,0c-.81.12-1.61.26-2.38.43h0c-.78.17-1.55.35-2.3.55l-.18.05c-.7.19-1.38.39-2,.6l-.19.06c-.68.22-1.34.44-2,.68h0c-.65.24-1.26.48-1.85.73l-.12.05-1.56.68-.07,0h0a41.43,41.43,0,0,0-5,2.63c8.88-.63,14.67.17,18.37,1.28L35.56,19l.54,4.1c-2.18-2.09-3.78-3.47-3.91-3.34l-5.64-.94h0L14.87,33.69c-.57.57-.06,2.1,1.21,4.06L5.2,41.66l-.7,3.13,1.75,1.75v1.61l9.6,9.6h1.61l1.75,1.75,3.13-.7,3.91-10.88c2,1.27,3.49,1.78,4.06,1.21L45.18,37.45l-.94-5.64c.13-.13-1.25-1.73-3.34-3.91l4.11.54,6.3-6.31c1.11,3.7,1.91,9.49,1.28,18.37,0,0,6.91-10.59,6.91-23.06V4.5ZM19.31,53.21l-8.52-8.52,8.7-2.63c.39.41.78.83,1.2,1.25s.84.81,1.25,1.2Z"/></g></g></svg>