<svg xmlns="http://www.w3.org/2000/svg" viewBox="0 0 64 64"><defs><style>.cls-1{opacity:0;}.cls-2{fill:#1a1a1a;}.cls-3{fill:#bdccd4;}.cls-4{fill:#1778ff;}.cls-5{fill:#37b9ff;}.cls-6{fill:#d3dee3;}.cls-7{fill:#7b97a6;}</style></defs><title>Fishing Rod Blue_1 Outline</title><g id="Layer_2" data-name="Layer 2"><g id="Layer_3" data-name="Layer 3"><g class="cls-1"><rect class="cls-2" width="64" height="64"/></g><path class="cls-2" d="M63.09,15.14a26.12,26.12,0,0,0-1.31-5.76,6.15,6.15,0,0,0,0-1,5.66,5.66,0,0,0-5.66-5.13l-.55,0c-.19,0-.39,0-.59.08l-.51.05-.21,0C43.81,5,30.09,13.12,17.31,25.24a7.44,7.44,0,0,0-5,2.2L3,36.8A7.58,7.58,0,0,0,13.71,47.51l4-4a7.73,7.73,0,0,0,1.11.66,5.41,5.41,0,0,0,9.24,4l3.42-3.42a5.44,5.44,0,0,0,1.3-5.59,10.08,10.08,0,0,0,.82-3.82l.19-.11c3.27-2,5.57-5.13,6.87-9.46a17.83,17.83,0,0,0,5,.76,14.54,14.54,0,0,0,2.66-.24C42.59,32.81,40.66,38,40.15,41.66a6.86,6.86,0,0,0-1.29,4c0,.13,0,.27,0,.4a5.69,5.69,0,0,0-5.06,5.65,9,9,0,1,0,17.95,0V49.2A6.91,6.91,0,0,0,51.7,42c.51-1.69,1.83-4.45,5.2-8.24A23.64,23.64,0,0,0,63.09,15.14Z"/><path class="cls-3" d="M44.41,46.33c-.28-.67-2.46-6.82,7-17.43a16.36,16.36,0,0,0,4.24-14c-1.4,3.55-3.49,5.9-6.25,7-4.26,1.69-8.93-.11-11.71-1.61C37,26,35,29.84,31.71,31.84c-5.36,3.22-11.92.09-12.2-.05a1.68,1.68,0,0,1,1.47-3h0c.05,0,5.23,2.47,9,.18,2.8-1.69,4.32-5.6,4.54-11.63A1.67,1.67,0,0,1,37.22,16c.06,0,6.23,4.61,10.93,2.73,2.84-1.14,4.74-4.5,5.65-10a1.68,1.68,0,0,1,3.12-.56,20.51,20.51,0,0,1,2.19,7.35,19.74,19.74,0,0,1-5.2,15.58c-8,9-6.4,13.88-6.38,13.92v0Z"/><path class="cls-4" d="M18.79,33.39a1.67,1.67,0,0,1-1.19-.49,1.7,1.7,0,0,1,0-2.38C30.91,17.21,45.6,8.32,56,7.3a1.68,1.68,0,1,1,.33,3.35c-9.46.93-23.71,9.66-36.3,22.25A1.66,1.66,0,0,1,18.79,33.39Z"/><rect class="cls-5" x="9.45" y="27.28" width="7.15" height="20.39" rx="3.58" transform="translate(30.31 1.76) rotate(45)"/><circle class="cls-6" cx="23.44" cy="35.17" r="6.15"/><circle class="cls-7" cx="23.44" cy="35.17" r="3.01"/><path class="cls-7" d="M24.92,43.67a1.4,1.4,0,0,1-.35-.56l-2.48-7.49a1.42,1.42,0,0,1,2.7-.89l2.48,7.49a1.42,1.42,0,0,1-.9,1.79A1.39,1.39,0,0,1,24.92,43.67Z"/><path class="cls-7" d="M23.2,45.38a1.42,1.42,0,0,1,0-2L26.63,40a1.42,1.42,0,1,1,2,2l-3.43,3.42A1.41,1.41,0,0,1,23.2,45.38Z"/><path class="cls-7" d="M42.78,56.71a5,5,0,0,1-5-5,1.68,1.68,0,0,1,3.36,0,1.61,1.61,0,0,0,3.22,0V47.08a1.69,1.69,0,1,1,3.37,0v4.65A5,5,0,0,1,42.78,56.71Z"/><circle class="cls-7" cx="45.8" cy="45.68" r="2.94"/></g></g></svg>