<?xml version="1.0" encoding="UTF-8"?>
<svg id="Layer_2" data-name="Layer 2" xmlns="http://www.w3.org/2000/svg" viewBox="0 0 64 64">
  <defs>
    <style>
      .cls-1 {
        fill: #606060;
        opacity: 0;
      }

      .cls-2 {
        fill: #1a1a1a;
      }
    </style>
  </defs>
  <g id="Black">
    <g id="Fridge_Flat_Black" data-name="Fridge Flat Black">
      <rect class="cls-1" width="64" height="64"/>
      <g>
        <path class="cls-2" d="M15.26,53.12c0,.88,.43,1.66,1.08,2.15v1.64c0,.6,.48,1.08,1.08,1.08h29.16c.6,0,1.08-.48,1.08-1.08v-1.64c.65-.5,1.08-1.27,1.08-2.15V27.03H15.26v26.1Zm4.74-23.03h8.03c.83,0,1.5,.67,1.5,1.5s-.67,1.5-1.5,1.5h-8.03c-.83,0-1.5-.67-1.5-1.5s.67-1.5,1.5-1.5Z"/>
        <path class="cls-2" d="M46.02,4H17.98c-1.5,0-2.72,1.22-2.72,2.72V24.17H48.74V6.72c0-1.5-1.22-2.72-2.72-2.72ZM28.04,21.1h-8.03c-.83,0-1.5-.67-1.5-1.5s.67-1.5,1.5-1.5h8.03c.83,0,1.5,.67,1.5,1.5s-.67,1.5-1.5,1.5Z"/>
      </g>
    </g>
  </g>
</svg>