<?xml version="1.0" encoding="UTF-8"?>
<svg id="Layer_2" data-name="Layer 2" xmlns="http://www.w3.org/2000/svg" viewBox="0 0 64 64">
  <defs>
    <style>
      .cls-1 {
        fill: #fff;
      }

      .cls-2 {
        fill: #eba969;
      }

      .cls-3 {
        fill: #39b54a;
      }

      .cls-4 {
        fill: #d1774b;
      }

      .cls-5 {
        opacity: 0;
      }

      .cls-5, .cls-6 {
        fill: #1a1a1a;
      }

      .cls-7 {
        fill: #96dbff;
      }
    </style>
  </defs>
  <g id="Outlines">
    <g id="Painting_Outline" data-name="Painting Outline">
      <rect class="cls-5" width="64" height="64"/>
      <g>
        <rect class="cls-6" x=".5" y="8" width="63" height="48" rx="4" ry="4"/>
        <g>
          <rect class="cls-7" x="9.5" y="17" width="45" height="30"/>
          <polygon class="cls-4" points="4.5 52 9.5 47 54.5 47 59.5 52 4.5 52"/>
          <polygon class="cls-2" points="4.5 52 9.5 47 9.5 17 4.5 12 4.5 52"/>
          <polygon class="cls-4" points="59.5 12 54.5 17 9.5 17 4.5 12 59.5 12"/>
          <circle class="cls-1" cx="44.5" cy="29" r="6"/>
          <polygon class="cls-2" points="59.5 12 54.5 17 54.5 47 59.5 52 59.5 12"/>
          <path class="cls-3" d="M9.5,37.14l12.66-12.66c.78-.78,2.05-.78,2.83,0l6.02,6.02,3.09-3.09c.78-.78,2.05-.78,2.83,0l11.09,11.09,6.66-6.66-.16,15.16H9.5v-9.86Z"/>
        </g>
      </g>
    </g>
  </g>
</svg>