<?xml version="1.0" encoding="UTF-8"?>
<svg id="Layer_2" data-name="Layer 2" xmlns="http://www.w3.org/2000/svg" viewBox="0 0 64 64">
  <defs>
    <style>
      .cls-1, .cls-2 {
        fill: #fff;
      }

      .cls-2 {
        opacity: 0;
      }
    </style>
  </defs>
  <g id="White">
    <g id="Painting_Flat_White" data-name="Painting Flat White">
      <rect class="cls-2" width="64" height="64"/>
      <path class="cls-1" d="M57.5,12H6.5c-1.1,0-2,.9-2,2V50c0,1.1,.9,2,2,2H57.5c1.1,0,2-.9,2-2V14c0-1.1-.9-2-2-2Zm-10,6c3.31,0,6,2.69,6,6s-2.69,6-6,6-6-2.69-6-6,2.69-6,6-6Zm7,29H9.5v-9.86l12.66-12.66c.78-.78,2.05-.78,2.83,0l6.02,6.02,3.09-3.09c.78-.78,2.05-.78,2.83,0l11.09,11.09,6.66-6.66-.16,15.16Z"/>
    </g>
  </g>
</svg>