<svg xmlns="http://www.w3.org/2000/svg" viewBox="0 0 64 64"><defs><style>.cls-1,.cls-2{fill:#1a1a1a;}.cls-1{opacity:0;}.cls-3{fill:#fff;}.cls-4{fill:#4d4d4d;}.cls-5{fill:#bdccd4;}</style></defs><title>Wand Outline</title><g id="Layer_2" data-name="Layer 2"><g id="Layer_2-2" data-name="Layer 2"><rect class="cls-1" width="64" height="64"/><path class="cls-2" d="M58.53,5.47c-5-5-7.38-5-8.17-5a4.38,4.38,0,0,0-3.12,1.27L1.77,47.24C-2,51,3.42,56.48,5.47,58.53c5,5,7.38,5,8.17,5h0a4.38,4.38,0,0,0,3.12-1.27L62.23,16.76C66,13,60.58,7.52,58.53,5.47Z"/><path class="cls-3" d="M15,39.63,4.6,50.07c-.53.53,1.13,3,3.7,5.63s5.1,4.23,5.63,3.7L24.37,49Z"/><path class="cls-4" d="M39.63,15,15,39.63c-.53.53,1.12,3,3.7,5.63s5.1,4.23,5.63,3.7L49,24.37Z"/><path class="cls-3" d="M50.07,4.6,39.63,15c-.53.53,1.12,3.05,3.7,5.63s5.1,4.23,5.63,3.7L59.4,13.93Z"/><path class="cls-5" d="M10,57.23c1.92,1.66,3.56,2.59,4,2.17L24.37,49,21.3,45.89Z"/><path class="cls-2" d="M20.4,46.8c1.92,1.65,3.56,2.58,4,2.16L49,24.37,45.89,21.3Z"/><path class="cls-5" d="M45,22.21c1.92,1.65,3.56,2.58,4,2.16L59.4,13.93l-3.07-3.07Z"/><ellipse class="cls-3" cx="54.73" cy="9.27" rx="1.36" ry="6.6" transform="translate(9.48 41.42) rotate(-45)"/></g></g></svg>