<svg xmlns="http://www.w3.org/2000/svg" viewBox="0 0 64 64"><defs><style>.cls-1,.cls-2{fill:#1a1a1a;}.cls-1{opacity:0;}</style></defs><title>Wand Black</title><g id="Layer_2" data-name="Layer 2"><g id="Layer_2-2" data-name="Layer 2"><rect class="cls-1" width="64" height="64"/><path class="cls-2" d="M58.53,5.47c-5-5-7.38-5-8.17-5a4.38,4.38,0,0,0-3.12,1.27L1.77,47.24C-2,51,3.42,56.48,5.47,58.53c5,5,7.38,5,8.17,5h0a4.38,4.38,0,0,0,3.12-1.27L62.23,16.76C66,13,60.58,7.52,58.53,5.47ZM13.93,59.4c-.53.53-3-1.13-5.63-3.7s-4.23-5.1-3.7-5.63L15,39.63c-.53.53,1.12,3,3.7,5.63s5.1,4.23,5.63,3.7ZM59.4,13.93,49,24.37c-.53.53-3.05-1.12-5.63-3.7s-4.23-5.1-3.7-5.63L50.07,4.6c.53-.53,3,1.13,5.63,3.7S59.93,13.4,59.4,13.93Z"/></g></g></svg>