<svg xmlns="http://www.w3.org/2000/svg" viewBox="0 0 64 64"><defs><style>.cls-1,.cls-2{fill:#fff;}.cls-1{opacity:0;}</style></defs><title>Cactus White</title><g id="Layer_2" data-name="Layer 2"><g id="Layer_2-2" data-name="Layer 2"><rect class="cls-1" width="64" height="64"/><path class="cls-2" d="M59.48,31.6c-.2-.68-1.92-.82-3.41-.71a5.07,5.07,0,0,0,.1-.77,5.14,5.14,0,0,0-4.93-5.35,5,5,0,0,0-1.23.11h0c-.74-1.24-3.1-3.61-4-3.1s.1,3.72.84,5a.35.35,0,0,1,0,.08,5,5,0,0,0-1,2.88l-.26,6.39,0,.8c0,.21,0,.34,0,.52a8.33,8.33,0,0,1-.16,1,7.19,7.19,0,0,1-.73,1.88,7.72,7.72,0,0,1-3,2.95,7.08,7.08,0,0,1-1.05.48L42.5,21.82l.25-.1c1.3-.64,3.86-2.8,3.42-3.7-.31-.62-1.92-.49-3.33-.15v0a12.06,12.06,0,0,0,0-1.7,10.12,10.12,0,0,0-2-5.16,2.93,2.93,0,0,0,.19-.26c.76-1.24,1.77-4.43.92-4.95s-2.86,1.43-3.79,2.7a10,10,0,0,0-9.44-.79c-1-1.28-2.78-2.92-3.52-2.49s-.12,3,.54,4.43a10.13,10.13,0,0,0-3.14,8.22l.46,5.48c-1.51-.1-3.3.08-3.48.78-.24.91,2.31,2.38,3.79,2.87l.65,7.79c-.22-.1-.44-.2-.65-.32a8.43,8.43,0,0,1-3.19-3.25,8,8,0,0,1-.77-2.07,9.51,9.51,0,0,1-.16-1.07c0-.19,0-.34,0-.57l0-.87-.19-7a5.55,5.55,0,0,0-1.13-3.22c.72-1.41,1.49-4.09.71-4.57S16,13.15,15,14.41a5.33,5.33,0,0,0-1.66-.2A5.6,5.6,0,0,0,7.86,20,5.69,5.69,0,0,0,8,21l.08.39c-1.55.08-3.46.48-3.55,1.23-.13,1,2.85,2.18,4.32,2.41l.59,2.78.18.85c.07.35.13.77.23,1.15a18.24,18.24,0,0,0,.68,2.29l.28.66c-1.41.73-3.17,2.06-2.91,2.82s3.13.71,4.66.31l.24.35A16.71,16.71,0,0,0,24.44,43l.32,0L25.9,56.48c0,1.32,3.07,2.39,6.85,2.39.53,0,1,0,1.54-.07h0a15.44,15.44,0,0,0,2.09-.3h0c.31-.06.59-.14.86-.22l.07,0,.74-.27h0a4.77,4.77,0,0,0,.6-.31l0,0a2.53,2.53,0,0,0,.43-.32l.06-.06a1.38,1.38,0,0,0,.26-.35l0,0a.88.88,0,0,0,.09-.38s0-.07,0-.1L40.05,51l.62,0a14.93,14.93,0,0,0,4.06-1,15.21,15.21,0,0,0,3.18-1.7c1.47.59,4.22,1.1,4.62.27.3-.6-.76-1.78-1.88-2.68.28-.31.55-.63.8-1a15.6,15.6,0,0,0,2.13-3.78,15.23,15.23,0,0,0,.66-2.08c.09-.35.16-.74.23-1l.17-.78.58-2.57.26-.06C56.87,34.25,59.76,32.57,59.48,31.6Z"/></g></g></svg>