<svg xmlns="http://www.w3.org/2000/svg" viewBox="0 0 64 64"><defs><style>.cls-1{fill:#fff;opacity:0;}.cls-2{fill:#009245;}.cls-3{fill:#39b54a;}.cls-4{fill:#65d666;}</style></defs><title>Cactus</title><g id="Layer_2" data-name="Layer 2"><g id="Layer_2-2" data-name="Layer 2"><rect class="cls-1" width="64" height="64"/><path class="cls-2" d="M50,24.87a1.83,1.83,0,1,1-3.13,1.87c-.74-1.25-1.7-4.45-.84-5S49.27,23.63,50,24.87Z"/><path class="cls-3" d="M24.63,23.54a1.83,1.83,0,1,1-.93,3.53c-1.4-.37-4.33-2-4.07-3S23.23,23.17,24.63,23.54Z"/><path class="cls-3" d="M9.4,21.4c1.44.19,1.88,1.07,1.75,2.07A1.74,1.74,0,0,1,8.92,25c-1.44-.19-4.55-1.42-4.41-2.42S8,21.21,9.4,21.4Z"/><path class="cls-3" d="M11.73,32.31a1.83,1.83,0,1,1,1.18,3.44c-1.37.47-4.7.75-5-.2S10.36,32.78,11.73,32.31Z"/><path class="cls-2" d="M42.75,21.72a1.73,1.73,0,0,1-2.6-.76,1.72,1.72,0,0,1,1-2.51c1.3-.64,4.57-1.34,5-.43S44.05,21.08,42.75,21.72Z"/><path class="cls-2" d="M55.48,34.65a1.83,1.83,0,1,1-1-3.5c1.39-.4,4.73-.52,5,.45S56.87,34.25,55.48,34.65Z"/><path class="cls-2" d="M47.52,48.17a1.83,1.83,0,1,1,1.61-3.26c1.3.64,3.85,2.8,3.4,3.7S48.82,48.82,47.52,48.17Z"/><path class="cls-3" d="M37,47.53c.87-6.61.24-1.84.44-3.31H38a5.25,5.25,0,0,0,.56,0,6.82,6.82,0,0,0,1.1-.18,7.8,7.8,0,0,0,5-3.74,7.19,7.19,0,0,0,.73-1.88,8.33,8.33,0,0,0,.16-1c0-.18,0-.31,0-.52l0-.8.26-6.39a5.14,5.14,0,1,1,10.27.42,5.65,5.65,0,0,1-.12.92l-1.41,6.24-.17.78c-.07.31-.14.7-.23,1a15.23,15.23,0,0,1-.66,2.08A15.65,15.65,0,0,1,44.73,50a14.93,14.93,0,0,1-4.06,1,14.32,14.32,0,0,1-2.07.06c-.34,0-.68,0-1-.08l-.51-.07-.25,0-.13,0h-.12C36.76,49.36,36.13,54.13,37,47.53Z"/><path class="cls-4" d="M28.49,39.21c-.85-7.21-.24-2-.43-3.61h-.62l-.61,0a9.41,9.41,0,0,1-1.2-.22,8.68,8.68,0,0,1-2.21-.89,8.43,8.43,0,0,1-3.19-3.25,8,8,0,0,1-.77-2.06,10,10,0,0,1-.16-1.08c0-.19,0-.34,0-.57l0-.87-.19-7a5.6,5.6,0,1,0-11.2.3A5.69,5.69,0,0,0,8,21l1.44,6.81.18.85c.07.35.13.77.23,1.15a18.24,18.24,0,0,0,.68,2.29A17.17,17.17,0,0,0,20,41.84,16.56,16.56,0,0,0,26.69,43c.38,0,.75,0,1.12-.07l.56-.07.27,0,.14,0h.13C28.72,41.21,29.34,46.43,28.49,39.21Z"/><path class="cls-4" d="M42.84,16.15a10.13,10.13,0,1,0-20.19,1.7L25.9,56.48c0,1.32,3.07,2.39,6.85,2.39s6.86-1.07,6.86-2.39c0,0,0-.07,0-.1l3.24-38.53A12.06,12.06,0,0,0,42.84,16.15Z"/><path class="cls-3" d="M42.84,16.15a10.13,10.13,0,0,0-11-9.25l-.12,0a10.65,10.65,0,0,1,6,8.84,13.36,13.36,0,0,1,0,1.79l-3.24,40.5s0,.07,0,.1a1.09,1.09,0,0,1-.24.65c3.05-.24,5.32-1.19,5.32-2.32,0,0,0-.07,0-.1l3.24-38.53A12.06,12.06,0,0,0,42.84,16.15Z"/><path class="cls-3" d="M29.21,8.32A1.74,1.74,0,0,1,28.66,11a1.74,1.74,0,0,1-2.59-.8c-.74-1.25-1.68-4.45-.82-5S28.47,7.07,29.21,8.32Z"/><path class="cls-2" d="M41.08,10.73a1.73,1.73,0,0,1-2.6.74A1.73,1.73,0,0,1,38,8.81c.77-1.23,3.16-3.56,4-3S41.84,9.49,41.08,10.73Z"/><path class="cls-3" d="M17.72,16.82a1.73,1.73,0,0,1-2.6.75,1.73,1.73,0,0,1-.49-2.66c.76-1.24,3.16-3.57,4-3S18.49,15.59,17.72,16.82Z"/><path class="cls-3" d="M30.22,25c.38,3.5.56,7,.7,10.53s.16,7,0,10.54a.65.65,0,0,1-.66.61.63.63,0,0,1-.6-.56c-.4-3.51-.58-7-.7-10.53s-.16-7,0-10.55a.62.62,0,0,1,.66-.6A.63.63,0,0,1,30.22,25Z"/></g></g></svg>