<svg xmlns="http://www.w3.org/2000/svg" viewBox="0 0 64 64"><defs><style>.cls-1{fill:none;}.cls-2{fill:#fff;}</style></defs><title>Paw Flat White</title><g id="Layer_2" data-name="Layer 2"><g id="Layer_2-2" data-name="Layer 2"><rect class="cls-1" width="64" height="64"/><path class="cls-2" d="M32,34c-6.56.14-15.42,6.81-16.95,13.67a6.17,6.17,0,0,0,1.63,5.26,9.47,9.47,0,0,0,6.23,3.18,87.19,87.19,0,0,0,18.13,0,9.47,9.47,0,0,0,6.28-3.19A6,6,0,0,0,49,47.63C47.38,41.12,38.73,33.81,32,34Z"/><path class="cls-2" d="M38.85,27.47c3.85.82,8-4.78,8.79-9.53S45.9,8.47,42,7.6,34.19,10,33.48,14.87,35,26.65,38.85,27.47Z"/><path class="cls-2" d="M25.15,27.54c3.85-.83,6.06-7.82,5.36-12.61S26,6.8,22.05,7.67,15.56,13.18,16.36,18,21.3,28.36,25.15,27.54Z"/><path class="cls-2" d="M57.08,22.53C53.94,20.46,49.61,22,47.45,26s-2.44,10.72.66,12.7,8.44-1.53,10.62-5.38S60.21,24.59,57.08,22.53Z"/><path class="cls-2" d="M16.55,26.05c-2.16-4-6.49-5.53-9.63-3.46s-3.85,6.9-1.65,10.78,7.54,7.35,10.62,5.38S18.68,30,16.55,26.05Z"/></g></g></svg>