<svg xmlns="http://www.w3.org/2000/svg" viewBox="0 0 64 64"><defs><style>.cls-1{fill:none;}.cls-2{fill:#1a1a1a;}.cls-3{fill:#4d4d4d;}.cls-4{fill:gray;}</style></defs><title>Paw Outline</title><g id="Layer_2" data-name="Layer 2"><g id="Layer_2-2" data-name="Layer 2"><rect class="cls-1" width="64" height="64"/><path class="cls-2" d="M59,19.61a9,9,0,0,0-5-1.49,9.48,9.48,0,0,0-3,.47s0-.05,0-.08c1.11-6.64-2.66-13.06-8.39-14.32a9.19,9.19,0,0,0-2-.22A10.34,10.34,0,0,0,32,9a10.36,10.36,0,0,0-8.65-5,9.29,9.29,0,0,0-2,.23c-5.72,1.25-9.49,7.68-8.38,14.32,0,0,0,0,0,.07A9.48,9.48,0,0,0,10,18.18a9,9,0,0,0-5,1.49C.31,22.76-.91,29.53,2.23,35.09c2,3.59,6.51,7.38,11,7.69a15.92,15.92,0,0,0-1.6,4.09A9.49,9.49,0,0,0,14,55.15a12.85,12.85,0,0,0,8.52,4.39,86.59,86.59,0,0,0,9.31.49h0c3.14,0,6.35-.17,9.55-.49A12.91,12.91,0,0,0,50,55.13a9.39,9.39,0,0,0,2.36-8.32,16.22,16.22,0,0,0-1.64-4.08c4.52-.29,9-4.1,11.06-7.69C64.91,29.48,63.69,22.7,59,19.61Z"/><path class="cls-3" d="M32,34c-6.55.14-15.41,6.81-16.95,13.67a6.15,6.15,0,0,0,1.63,5.25,9.45,9.45,0,0,0,6.23,3.18,87.19,87.19,0,0,0,18.13,0,9.48,9.48,0,0,0,6.27-3.2A6,6,0,0,0,49,47.63C47.38,41.11,38.73,33.81,32,34Z"/><path class="cls-3" d="M38.85,27.48c3.84.82,8-4.79,8.78-9.54S45.89,8.47,41.94,7.61,34.19,10,33.48,14.87,35,26.65,38.85,27.48Z"/><path class="cls-3" d="M25.15,27.54c3.85-.82,6.06-7.81,5.36-12.6S26,6.8,22.05,7.67,15.57,13.19,16.37,18,21.31,28.36,25.15,27.54Z"/><path class="cls-3" d="M57.07,22.53C53.93,20.47,49.61,22,47.45,26S45,36.71,48.1,38.69s8.45-1.53,10.62-5.38S60.2,24.59,57.07,22.53Z"/><path class="cls-3" d="M16.55,26.05c-2.16-4-6.48-5.52-9.62-3.46s-3.85,6.9-1.65,10.78,7.54,7.35,10.62,5.38S18.69,30,16.55,26.05Z"/><path class="cls-4" d="M24.39,15.16C23.68,19,20.8,21,18.88,18.79c-1.6-2.86-.74-7.5,2.74-9a1.73,1.73,0,0,1,2.06.46A6.1,6.1,0,0,1,24.39,15.16Z"/><path class="cls-4" d="M42.13,15.09c-1.38,3.6-4.59,5.12-6.07,2.57-1.06-3.1.63-7.51,4.32-8.35a1.74,1.74,0,0,1,1.95.82A6.1,6.1,0,0,1,42.13,15.09Z"/><path class="cls-4" d="M28.49,44.55c-1,.81-2.06,1.63-3,2.4S23.54,48.44,22.73,49c-1.63,1.16-3.05,1.69-3.82.95a2.74,2.74,0,0,1-.53-2.13,12.26,12.26,0,0,1,1.32-4.32,11.66,11.66,0,0,1,3.4-4.12A15.23,15.23,0,0,1,27.65,37a12.5,12.5,0,0,1,4.27-.67,2.94,2.94,0,0,1,2.48,1c.37.62.18,1.51-.8,2.68a16.1,16.1,0,0,1-2,2C30.71,42.77,29.67,43.6,28.49,44.55Z"/><path class="cls-4" d="M11.13,27.91C10.78,31,8.37,32.75,6.49,31a4.93,4.93,0,0,1,1.18-7,2.18,2.18,0,0,1,3.1.89A5.32,5.32,0,0,1,11.13,27.91Z"/><path class="cls-4" d="M54.39,28.6c-2,2.35-5,2.49-5.59,0a4.93,4.93,0,0,1,4.86-5.16,2.18,2.18,0,0,1,2.09,2.46A5.36,5.36,0,0,1,54.39,28.6Z"/></g></g></svg>