<svg xmlns="http://www.w3.org/2000/svg" viewBox="0 0 64 64"><defs><style>.cls-1{fill:none;}.cls-2{fill:#4d4d4d;}.cls-3{fill:gray;}</style></defs><title>Paw</title><g id="Layer_2" data-name="Layer 2"><g id="Layer_2-2" data-name="Layer 2"><rect class="cls-1" width="64" height="64"/><path class="cls-2" d="M32,34c-6.66.14-15.65,6.91-17.21,13.88a6.22,6.22,0,0,0,1.66,5.34,9.51,9.51,0,0,0,6.32,3.22,87.82,87.82,0,0,0,18.41,0,9.58,9.58,0,0,0,6.37-3.25,6.12,6.12,0,0,0,1.65-5.31C47.62,41.26,38.83,33.84,32,34Z"/><path class="cls-2" d="M39,27.4c3.9.84,8.11-4.85,8.91-9.68S46.11,8.11,42.1,7.23s-7.88,2.45-8.59,7.38S35,26.57,39,27.4Z"/><path class="cls-2" d="M25,27.47c3.91-.84,6.16-7.93,5.45-12.8S25.92,6.41,21.9,7.29s-6.59,5.61-5.78,10.5S21.14,28.3,25,27.47Z"/><path class="cls-2" d="M57.46,22.39c-3.19-2.1-7.58-.52-9.77,3.5s-2.48,10.9.66,12.91,8.58-1.56,10.79-5.47S60.64,24.47,57.46,22.39Z"/><path class="cls-2" d="M16.31,26c-2.19-4-6.59-5.6-9.77-3.5s-3.91,7-1.68,10.94,7.66,7.46,10.79,5.46S18.48,29.94,16.31,26Z"/><path class="cls-3" d="M24.27,14.9c-.72,3.84-3.64,6-5.59,3.69-1.63-2.91-.76-7.62,2.77-9.14a1.76,1.76,0,0,1,2.1.46A6.16,6.16,0,0,1,24.27,14.9Z"/><path class="cls-3" d="M42.29,14.83c-1.41,3.65-4.66,5.19-6.17,2.61-1.07-3.15.64-7.63,4.39-8.48a1.76,1.76,0,0,1,2,.83A6.2,6.2,0,0,1,42.29,14.83Z"/><path class="cls-3" d="M28.45,44.77l-3.06,2.46c-1,.79-1.93,1.52-2.75,2.13-1.63,1.2-3,1.77-3.76,1.08a2.48,2.48,0,0,1-.43-2,12.56,12.56,0,0,1,1.47-4.25A12.86,12.86,0,0,1,23.41,40,16.62,16.62,0,0,1,28,37.47a13,13,0,0,1,4.2-.83c1.17,0,2,.3,2.37.89s.11,1.46-.89,2.64a19,19,0,0,1-2.06,2C30.69,42.94,29.64,43.8,28.45,44.77Z"/><path class="cls-3" d="M10.8,27.85C10.45,31,8,32.76,6.1,31a5,5,0,0,1,1.19-7.1,2.21,2.21,0,0,1,3.15.9A5.4,5.4,0,0,1,10.8,27.85Z"/><path class="cls-3" d="M54.74,28.55c-2,2.38-5.06,2.52-5.68,0A5,5,0,0,1,54,23.32a2.23,2.23,0,0,1,2.12,2.5A5.46,5.46,0,0,1,54.74,28.55Z"/></g></g></svg>