<?xml version="1.0" encoding="UTF-8"?>
<svg id="Layer_2" data-name="Layer 2" xmlns="http://www.w3.org/2000/svg" viewBox="0 0 64 64">
  <defs>
    <style>
      .cls-1 {
        fill: #324652;
      }

      .cls-1, .cls-2, .cls-3, .cls-4, .cls-5, .cls-6, .cls-7, .cls-8 {
        stroke-width: 0px;
      }

      .cls-2 {
        fill: #fec92b;
      }

      .cls-3, .cls-4 {
        fill: #1a1a1a;
      }

      .cls-4 {
        opacity: 0;
      }

      .cls-5 {
        fill: #0049c7;
      }

      .cls-6 {
        fill: #1778ff;
      }

      .cls-7 {
        fill: #fff;
      }

      .cls-8 {
        fill: #37b9ff;
      }
    </style>
  </defs>
  <g id="Exports_2" data-name="Exports 2">
    <g>
      <rect class="cls-4" width="64" height="64"/>
      <g>
        <path class="cls-3" d="M58.16,21.47s-.02-.03-.04-.04c-.23-.28-.46-.55-.66-.79-.02-.03-.04-.05-.07-.08-.24-.28-.49-.55-.8-.87-.25-.26-.51-.52-.77-.77-.01-.01-.07-.07-.08-.08-.26-.25-.52-.49-.8-.74-.02-.02-.08-.07-.1-.09-.26-.22-.52-.44-.82-.68-.02-.01-.11-.09-.12-.1-.26-.21-.52-.41-.83-.63,0,0-.18-.14-.2-.15-2.14-4.46-6.55-7.61-11.56-8.17-1.24-.14-2.5-.21-3.76-.21-10.24,0-18.22,4.6-21.17,6.58-.55.37-1.01.81-1.38,1.31-.78-.81-1.65-1.54-2.59-2.18-.95-.64-2.05-.98-3.19-.98-3.08,0-5.65,2.51-5.72,5.51,0,.03,0,.12,0,.15-.04,1.39-.12,2.82-.26,4.34l-.02.22c-.06.63-.13,1.26-.21,1.89-.09.74-.2,1.49-.32,2.25-.12.75-.25,1.5-.4,2.24-.13.68-.27,1.35-.42,2.01l-.03.15c-.32,1.4-.68,2.78-1.1,4.2-.53,1.75-.2,3.59.88,5.06,1.08,1.45,2.79,2.31,4.57,2.31.53,0,1.06-.08,1.58-.22,1.12-.32,2.2-.76,3.21-1.3.14.86.49,1.7,1.06,2.43,2.19,2.8,8.36,9.53,18.25,11.61.86.18,1.75.27,2.63.27,2.26,0,4.49-.61,6.42-1.74,12.15,0,22.69-9.16,24-17.34.73-4.58-1.26-10.48-5.19-15.38Z"/>
        <g>
          <path class="cls-8" d="M20.85,24.28l-2.67-4.09c-.48-.74-.28-1.72.45-2.21,3.12-2.09,11.61-6.9,22.26-5.72,4.08.45,7.58,3.19,8.88,7.08.02.05.03.1.05.16l-28.97,4.78Z"/>
          <path class="cls-8" d="M18.55,37.23l-3.13,2.51c-.56.45-.66,1.27-.21,1.84,1.9,2.43,7.3,8.35,15.92,10.16,3.3.69,6.73-.55,8.75-3.26.03-.04.05-.07.08-.11l-21.4-11.14Z"/>
          <g>
            <path class="cls-6" d="M41.44,15.91c-8.4-1.34-17.95,1.84-23.53,6.27,2.17,2.51,3.23,5.22,2.8,7.86s-2.26,4.89-5.11,6.6c3.93,5.95,12.01,11.94,20.41,13.28,12.31,1.96,22.38-7.41,23.39-13.71,1.01-6.3-5.65-18.34-17.96-20.3Z"/>
            <path class="cls-1" d="M20.71,30.05c.42-2.65-.63-5.35-2.8-7.86-.42.33-.82.67-1.2,1.02-.64.59-1.68.36-2-.45-.91-2.29-2.48-4.27-4.53-5.66-1.12-.76-2.63.04-2.67,1.39-.07,2.96-.35,6.1-.87,9.32-.51,3.22-1.22,6.29-2.08,9.13-.39,1.29.81,2.52,2.1,2.15,2.38-.68,4.49-2.07,6.07-3.96.56-.67,1.62-.57,2.04.19.25.45.52.89.82,1.34,2.85-1.71,4.69-3.95,5.11-6.6Z"/>
          </g>
          <path class="cls-5" d="M55.63,24.74c-3.07-4.17-7.89-7.82-14.19-8.83-8.4-1.34-17.95,1.84-23.53,6.27,2.17,2.51,3.23,5.22,2.8,7.86s-2.26,4.89-5.11,6.6c.67,1.02,1.47,2.03,2.36,3.03,1.75-2.11,6.72-7.22,13.3-6.26,3.77.55,6,.05,7.31-.65,1.18-.63,1.37-2.23.38-3.13-2.16-1.96-5.47-5.88,0-7.77,7.48-2.58,11.23,11.75,11.23,11.75,7.62.72,6.52-5.57,5.45-8.88Z"/>
          <path class="cls-2" d="M39.44,39.45c-.42,2.74-3.68,5.05-5.45,4.71-3.04-.58-7.29-8.3-5.72-10.96,1.63-2.75,12.49-2.28,11.17,6.25Z"/>
          <circle class="cls-7" cx="48.11" cy="32.05" r="4.64"/>
          <circle class="cls-3" cx="49.01" cy="32.2" r="2.48"/>
          <path class="cls-2" d="M8.77,19.3c-.36-.34-.79-.59-1.25-.73-.07,2.94-.35,6.05-.86,9.24s-1.21,6.23-2.05,9.05c.48,0,.97-.09,1.42-.31,4.17-1.99,6.76-4.58,7.25-7.68.49-3.1-1.16-6.37-4.5-9.56Z"/>
        </g>
      </g>
    </g>
  </g>
</svg>