<?xml version="1.0" encoding="UTF-8"?>
<svg id="Layer_2" data-name="Layer 2" xmlns="http://www.w3.org/2000/svg" viewBox="0 0 64 64">
  <defs>
    <style>
      .cls-1 {
        opacity: 0;
      }

      .cls-2 {
        fill: #fff;
        stroke-width: 0px;
      }
    </style>
  </defs>
  <g id="Exports_2" data-name="Exports 2">
    <g>
      <g class="cls-1">
        <rect class="cls-2" width="64" height="64"/>
      </g>
      <g>
        <path class="cls-2" d="M49.66,19.08c-1.37-3.75-4.79-6.39-8.77-6.83-10.66-1.17-19.15,3.63-22.26,5.72-.73.49-.93,1.47-.45,2.21l.79,1.21c-.36.26-.72.52-1.05.79-.42.33-.82.67-1.2,1.02-.64.59-1.68.36-2-.45-.91-2.29-2.48-4.27-4.53-5.66-1.12-.76-2.63.04-2.67,1.39-.07,2.96-.35,6.1-.87,9.32-.51,3.22-1.22,6.29-2.08,9.13-.39,1.29.81,2.52,2.1,2.15,2.38-.68,4.49-2.07,6.07-3.96.56-.67,1.62-.57,2.04.19.25.45.52.89.82,1.34.41.62.87,1.24,1.36,1.85l-1.55,1.24c-.56.45-.66,1.27-.21,1.84,1.9,2.43,7.3,8.35,15.92,10.16,2.51.53,5.1-.07,7.08-1.58,11.3.62,20.25-8.02,21.2-13.94.75-4.71-2.78-12.61-9.74-17.13ZM39.44,39.45c-.42,2.74-3.68,5.05-5.45,4.71-3.04-.58-7.29-8.3-5.72-10.96,1.63-2.75,12.49-2.28,11.17,6.25ZM52.7,32.78c-.4,2.53-2.78,4.26-5.31,3.85-2.53-.4-4.26-2.78-3.85-5.31.4-2.53,2.78-4.26,5.31-3.85,2.53.4,4.26,2.78,3.85,5.31Z"/>
        <path class="cls-2" d="M49.4,29.75c-1.35-.22-2.62.7-2.83,2.05-.22,1.35.7,2.62,2.05,2.83,1.35.22,2.62-.7,2.83-2.05.22-1.35-.7-2.62-2.05-2.83Z"/>
      </g>
    </g>
  </g>
</svg>