<svg xmlns="http://www.w3.org/2000/svg" viewBox="0 0 64 64"><defs><style>.cls-1,.cls-6{fill:#fff;}.cls-1{opacity:0;}.cls-2{fill:#1778ff;}.cls-3{fill:#0049c7;}.cls-4{fill:#96dbff;}.cls-5{fill:#37b9ff;}</style></defs><title>Gamepass</title><g id="Layer_2" data-name="Layer 2"><g id="Finals"><rect class="cls-1" width="64" height="64"/><path class="cls-2" d="M32,4.5A27.5,27.5,0,0,0,4.5,32h55A27.5,27.5,0,0,0,32,4.5Z"/><path class="cls-3" d="M32,59.5A27.5,27.5,0,0,0,59.5,32H4.5A27.5,27.5,0,0,0,32,59.5Z"/><path class="cls-4" d="M32,4.5a27.41,27.41,0,0,0-20.86,9.59,1,1,0,0,0,.14,1.47h0a4.15,4.15,0,0,0,5.41-.24,22.64,22.64,0,0,1,30.62,0,4.15,4.15,0,0,0,5.41.24h0a1,1,0,0,0,.14-1.47A27.41,27.41,0,0,0,32,4.5Z"/><circle class="cls-5" cx="32" cy="32" r="22.85"/><path class="cls-6" d="M35.89,32a3.89,3.89,0,0,0-.16-1l14.61-4a19,19,0,0,0-4.77-8.25L34.77,29.28a3.87,3.87,0,0,0-1.8-1l3.8-14.68a19.26,19.26,0,0,0-9.54,0L31,28.25a3.87,3.87,0,0,0-1.8,1L18.43,18.67a19,19,0,0,0-4.77,8.25l14.61,4a3.89,3.89,0,0,0-.16,1,4,4,0,0,0,.16,1L13.66,37.09a19,19,0,0,0,4.77,8.24l10.8-10.61a3.87,3.87,0,0,0,1.8,1l-3.8,14.68a19.26,19.26,0,0,0,9.54,0L33,35.75a3.87,3.87,0,0,0,1.8-1l10.8,10.61a19,19,0,0,0,4.77-8.24L35.73,33A4,4,0,0,0,35.89,32Z"/></g></g></svg>