<svg xmlns="http://www.w3.org/2000/svg" viewBox="0 0 64 64"><defs><style>.cls-1,.cls-2{fill:#1a1a1a;}.cls-1{opacity:0;}</style></defs><title>Gamepass Black</title><g id="Layer_2" data-name="Layer 2"><g id="Finals"><rect class="cls-1" width="64" height="64"/><path class="cls-2" d="M32,4.5A27.5,27.5,0,1,0,59.5,32,27.5,27.5,0,0,0,32,4.5ZM36.28,32a3.94,3.94,0,0,1-.18,1.14l16.07,4.45a21,21,0,0,1-5.24,9.08L35.05,35a4.36,4.36,0,0,1-2,1.13l4.17,16.14a21.13,21.13,0,0,1-10.48,0l4.17-16.14A4.36,4.36,0,0,1,29,35L17.07,46.67a21,21,0,0,1-5.24-9.08L27.9,33.14a3.7,3.7,0,0,1,0-2.28L11.83,26.41a21,21,0,0,1,5.24-9.08L29,29a4.36,4.36,0,0,1,2-1.13L26.76,11.73a21.13,21.13,0,0,1,10.48,0L33.07,27.87a4.36,4.36,0,0,1,2,1.13L46.93,17.33a21,21,0,0,1,5.24,9.08L36.1,30.86A3.94,3.94,0,0,1,36.28,32Z"/></g></g></svg>