<svg xmlns="http://www.w3.org/2000/svg" viewBox="0 0 64 64"><defs><style>.cls-1,.cls-2{fill:#1a1a1a;}.cls-1{opacity:0;}.cls-3{fill:#1778ff;}.cls-4{fill:#0049c7;}.cls-5{fill:#96dbff;}.cls-6{fill:#37b9ff;}.cls-7{fill:#fff;}</style></defs><title>Gamepass Outline</title><g id="Layer_2" data-name="Layer 2"><g id="Finals"><rect class="cls-1" width="64" height="64"/><path class="cls-2" d="M56,11.51a31.73,31.73,0,0,0-34-9.35A31.82,31.82,0,0,0,.72,35.47,31.81,31.81,0,0,0,22.34,62,31.51,31.51,0,0,0,59.2,16.06,32.43,32.43,0,0,0,56,11.51Z"/><path class="cls-3" d="M32,4.49A27.5,27.5,0,0,0,4.53,32h55A27.5,27.5,0,0,0,32,4.49Z"/><path class="cls-4" d="M32,59.49A27.5,27.5,0,0,0,59.53,32h-55A27.5,27.5,0,0,0,32,59.49Z"/><path class="cls-5" d="M32,4.49a27.42,27.42,0,0,0-20.86,9.6,1,1,0,0,0,.13,1.46h0a4.17,4.17,0,0,0,5.42-.23,22.62,22.62,0,0,1,30.62,0,4.16,4.16,0,0,0,5.41.23h0a1,1,0,0,0,.14-1.46A27.44,27.44,0,0,0,32,4.49Z"/><circle class="cls-6" cx="32.03" cy="31.99" r="22.85"/><path class="cls-7" d="M35.92,32a3.89,3.89,0,0,0-.16-1l14.6-4.05a19,19,0,0,0-4.76-8.25L34.8,29.27a4,4,0,0,0-1.8-1l3.79-14.67a19.22,19.22,0,0,0-9.53,0l3.8,14.67a3.86,3.86,0,0,0-1.8,1L18.46,18.66a19.06,19.06,0,0,0-4.77,8.25L28.3,31a3.43,3.43,0,0,0,0,2.07l-14.61,4a19.11,19.11,0,0,0,4.77,8.25l10.8-10.61a3.86,3.86,0,0,0,1.8,1l-3.8,14.67a19.22,19.22,0,0,0,9.53,0L33,35.75a4,4,0,0,0,1.8-1L45.6,45.33a19,19,0,0,0,4.76-8.25l-14.6-4A3.9,3.9,0,0,0,35.92,32Z"/></g></g></svg>