<svg xmlns="http://www.w3.org/2000/svg" viewBox="0 0 64 64"><defs><style>.cls-1,.cls-2{fill:#1a1a1a;}.cls-1{opacity:0;}</style></defs><title>Chevrons Right Flat Black</title><g id="Layer_2" data-name="Layer 2"><g id="Layer_3" data-name="Layer 3"><rect class="cls-1" width="64" height="64"/><path class="cls-2" d="M56.4,29.3l-8-17.08a3.58,3.58,0,0,0-3.59-2.09l-13.21,1.1A2.08,2.08,0,0,0,30,14.1L37.8,32,30,49.9a2.08,2.08,0,0,0,1.59,2.87l13.21,1.1a3.58,3.58,0,0,0,3.59-2.09l8-17.08A6.37,6.37,0,0,0,56.4,29.3Z"/><path class="cls-2" d="M22.09,14.22a2.9,2.9,0,0,0-2.9-1.91l-10.76.9a1.9,1.9,0,0,0-1.3,2.59L13.48,32,7.13,48.2a1.9,1.9,0,0,0,1.3,2.59l10.76.9a2.9,2.9,0,0,0,2.9-1.91l6.43-15.36a6.34,6.34,0,0,0,0-4.84Z"/></g></g></svg>