<svg xmlns="http://www.w3.org/2000/svg" viewBox="0 0 64 64"><defs><style>.cls-1{fill:#1a1a1a;opacity:0;}.cls-2{fill:#1778ff;}.cls-3{fill:#37b9ff;}.cls-4{fill:#96dbff;}</style></defs><title>Chevrons Right</title><g id="Layer_2" data-name="Layer 2"><g id="Layer_3" data-name="Layer 3"><rect class="cls-1" width="64" height="64"/><path class="cls-2" d="M50.91,51.78l8-17.08a6.37,6.37,0,0,0,0-5.4l-8-17.08a3.56,3.56,0,0,0-3.58-2.09l-13.22,1.1a2.07,2.07,0,0,0-1.58,2.87L40.3,32,32.53,49.9a2.07,2.07,0,0,0,1.58,2.87l13.22,1.1A3.56,3.56,0,0,0,50.91,51.78Z"/><path class="cls-2" d="M19.59,49.78,26,34.42a6.34,6.34,0,0,0,0-4.84L19.59,14.22a2.91,2.91,0,0,0-2.9-1.91l-10.76.9a1.89,1.89,0,0,0-1.3,2.59L11,32,4.63,48.2a1.89,1.89,0,0,0,1.3,2.59l10.76.9A2.91,2.91,0,0,0,19.59,49.78Z"/><path class="cls-3" d="M58.9,29.3l-4.65-9.95a66.09,66.09,0,0,0-21.07-3.77L40.3,32,33.18,48.42a66.09,66.09,0,0,0,21.07-3.77L58.9,34.7A6.37,6.37,0,0,0,58.9,29.3Z"/><path class="cls-3" d="M26,29.58,20.44,16.26A57.22,57.22,0,0,0,6.26,19.94L11,32,6.26,44.06a57.22,57.22,0,0,0,14.18,3.68L26,34.42A6.34,6.34,0,0,0,26,29.58Z"/><path class="cls-4" d="M49.55,16.68c0,1.94-2.61,3.1-5.86,3.13s-5.89-1.09-5.91-3,2.61-3.55,5.86-3.57S49.53,14.73,49.55,16.68Z"/></g></g></svg>