<svg xmlns="http://www.w3.org/2000/svg" viewBox="0 0 64 64"><defs><style>.cls-1,.cls-2{fill:#1a1a1a;}.cls-1{opacity:0;}.cls-3{fill:#e8f4fa;}.cls-4{fill:#bfd9e6;}</style></defs><title>Moon Outline</title><g id="Layer_2" data-name="Layer 2"><g id="Layer_2-2" data-name="Layer 2"><rect class="cls-1" width="64" height="64"/><path class="cls-2" d="M30.26,63.5a33.31,33.31,0,0,1-29-17,5.66,5.66,0,0,1,0-5.67A5.7,5.7,0,0,1,9.46,39a21.17,21.17,0,0,0,11.93,3.66l1,0A21.4,21.4,0,0,0,42.6,22.43,21.11,21.11,0,0,0,39,9.46a5.72,5.72,0,0,1,4.7-9,5.81,5.81,0,0,1,2.81.74,33.24,33.24,0,0,1-14.1,62.19c-.71,0-1.41.07-2.11.07Z"/><path class="cls-3" d="M44.52,4.73a1.72,1.72,0,0,0-2.26,2.48,25,25,0,0,1,4.33,15.41,25.33,25.33,0,0,1-24,24A25.1,25.1,0,0,1,7.21,42.26a1.72,1.72,0,0,0-2.48,2.26A29.24,29.24,0,1,0,44.52,4.73Z"/><path class="cls-4" d="M45.49,5.32A28.49,28.49,0,1,1,5.32,45.49,29.23,29.23,0,1,0,45.49,5.32Z"/></g></g></svg>