<?xml version="1.0" encoding="UTF-8"?>
<svg id="Layer_2" data-name="Layer 2" xmlns="http://www.w3.org/2000/svg" viewBox="0 0 64 64">
  <defs>
    <style>
      .cls-1 {
        opacity: 0;
      }

      .cls-2 {
        fill: #5d7c8c;
      }

      .cls-2, .cls-3, .cls-4 {
        stroke-width: 0px;
      }

      .cls-3 {
        fill: #476475;
      }

      .cls-4 {
        fill: #fff;
      }
    </style>
  </defs>
  <g id="Exports_1" data-name="Exports 1">
    <g>
      <g class="cls-1">
        <rect class="cls-4" width="64" height="64"/>
      </g>
      <g>
        <g>
          <path class="cls-2" d="M46.91,7.77c-.75-.24-1.54-.02-2.07.58-.52.6-.63,1.41-.29,2.12,1.3,2.71,2.81,6.81,2.59,10.94-.04.73.33,1.41.96,1.78.63.37,1.41.36,2.03-.04h0c1.82-1.16,4.64-2.67,7.76-3.28.4-.08.75-.27,1.03-.55.19-.19.34-.41.44-.66.24-.61.16-1.3-.22-1.84-1.76-2.48-5.69-6.95-12.23-9.05Z"/>
          <path class="cls-3" d="M10.47,44.58c-.71-.34-1.53-.23-2.13.29-.61.52-.82,1.32-.58,2.07,2.11,6.52,6.57,10.44,9.04,12.2.54.38,1.23.47,1.85.22.25-.1.48-.25.66-.44.28-.28.47-.63.55-1.03.61-3.11,2.1-5.92,3.25-7.72.39-.62.41-1.39.04-2.03-.37-.63-1.05-1-1.78-.96-4.11.21-8.2-1.3-10.91-2.6Z"/>
        </g>
        <g>
          <path class="cls-3" d="M20.86,27.42l10.22,10.22c2.2,2.2,4.22,4.6,4.15,7.22-.05,1.79-1.08,3.55-3.14,5.38-5.52,4.91-20.15-3.26-20.3-3.34l-1.74-.98.97,1.75c6.4,11.53,21.59,13.07,29.25,9.06.06-.03,5.86-3.26,12.55-1.85.58.12,1.17-.05,1.58-.46h0s-30.27-30.27-30.27-30.27l-3.28,3.28Z"/>
          <path class="cls-2" d="M54.87,52.82c-1.41-6.69,1.82-12.49,1.86-12.57,4-7.64,2.46-22.83-9.07-29.24l-1.75-.97.99,1.74c.08.15,8.26,14.77,3.34,20.3-1.83,2.06-3.59,3.09-5.38,3.14-2.62.08-5.02-1.95-7.22-4.15l-10.22-10.22-3.28,3.28,30.27,30.27c.41-.41.59-1,.46-1.58Z"/>
        </g>
        <path class="cls-3" d="M30.03,9.41L9.41,30.04c-.76.76-.76,2,0,2.76l1.84,1.84c.65.65,1.64.76,2.42.27l12.77-7.98c.12-.08.24-.17.35-.28s.2-.22.28-.35l7.86-12.64c.48-.78.37-1.77-.28-2.41l-1.84-1.84c-.76-.76-2-.76-2.76,0Z"/>
        <path class="cls-3" d="M7.33,7.34c-3.78,3.78-3.78,9.93,0,13.72,3.78,3.78,9.93,3.78,13.72,0,3.78-3.78,3.78-9.93,0-13.72-3.78-3.78-9.93-3.78-13.72,0ZM16.8,11.59c1.44,1.44,1.44,3.78,0,5.21s-3.78,1.44-5.21,0-1.44-3.78,0-5.21,3.78-1.44,5.21,0Z"/>
      </g>
    </g>
  </g>
</svg>