<?xml version="1.0" encoding="UTF-8"?>
<svg id="Layer_2" data-name="Layer 2" xmlns="http://www.w3.org/2000/svg" viewBox="0 0 64 64">
  <defs>
    <style>
      .cls-1 {
        opacity: 0;
      }

      .cls-2 {
        fill: #fff;
        stroke-width: 0px;
      }
    </style>
  </defs>
  <g id="Exports_1" data-name="Exports 1">
    <g>
      <g class="cls-1">
        <rect class="cls-2" width="64" height="64"/>
      </g>
      <path class="cls-2" d="M59.14,16.82c-1.76-2.48-5.69-6.95-12.23-9.05-.75-.24-1.54-.02-2.07.58-.52.6-.63,1.41-.29,2.12,1.3,2.71,2.81,6.81,2.59,10.94-.04.73.33,1.41.96,1.78.63.37,1.41.36,2.03-.04h0c.32-.2.68-.42,1.06-.64.88,3.64,1.03,7.34-.95,9.57-1.83,2.06-3.59,3.09-5.38,3.14-2.62.08-5.02-1.95-7.22-4.15l-8.36-8.36,5.63-9.06c.48-.78.37-1.77-.28-2.41l-1.84-1.84c-.76-.76-2-.76-2.76,0l-6.27,6.27c.45-2.95-.44-6.08-2.71-8.34-3.78-3.78-9.93-3.78-13.72,0-3.78,3.78-3.78,9.93,0,13.72,2.27,2.27,5.39,3.17,8.35,2.71l-6.27,6.27c-.76.76-.76,2,0,2.76l1.84,1.84c.65.65,1.64.76,2.42.27l9.03-5.65,8.38,8.38c2.2,2.2,4.22,4.6,4.15,7.22-.05,1.79-1.08,3.55-3.14,5.38-2.23,1.98-5.94,1.83-9.58.94.21-.36.42-.71.61-1.02.39-.62.41-1.39.04-2.03-.37-.63-1.05-1-1.78-.96-4.11.21-8.2-1.3-10.91-2.6-.71-.34-1.53-.23-2.13.29-.61.52-.82,1.32-.58,2.07,2.11,6.52,6.57,10.44,9.04,12.2.54.38,1.23.47,1.85.22.25-.1.48-.25.66-.44.28-.28.47-.63.55-1.03.11-.55.25-1.08.4-1.61,6.86,3.3,15.02,3.04,20,.44.06-.03,5.86-3.26,12.55-1.85.58.12,1.17-.05,1.58-.46h0c.41-.41.59-1,.46-1.58-1.41-6.69,1.82-12.49,1.86-12.57,2.6-4.97,2.86-13.12-.44-19.97.53-.16,1.06-.3,1.61-.41.4-.08.75-.27,1.03-.55.19-.19.34-.41.44-.66.24-.61.16-1.3-.22-1.84ZM11.59,16.8c-1.44-1.44-1.44-3.78,0-5.21,1.44-1.44,3.78-1.44,5.21,0,1.44,1.44,1.44,3.78,0,5.21-1.44,1.44-3.78,1.44-5.21,0Z"/>
    </g>
  </g>
</svg>