<?xml version="1.0" encoding="UTF-8"?>
<svg id="Layer_2" data-name="Layer 2" xmlns="http://www.w3.org/2000/svg" viewBox="0 0 64 64">
  <defs>
    <style>
      .cls-1, .cls-2 {
        fill: #1a1a1a;
      }

      .cls-1, .cls-2, .cls-3, .cls-4 {
        stroke-width: 0px;
      }

      .cls-2 {
        opacity: 0;
      }

      .cls-3 {
        fill: #5d7c8c;
      }

      .cls-4 {
        fill: #476475;
      }
    </style>
  </defs>
  <g id="Exports_1" data-name="Exports 1">
    <g>
      <rect class="cls-2" width="64" height="64"/>
      <g>
        <path class="cls-1" d="M63.07,20.15c.75-1.88.5-3.99-.67-5.64-2.05-2.88-6.62-8.09-14.27-10.55-.59-.19-1.21-.29-1.83-.29-1.71,0-3.35.75-4.47,2.05-1.57,1.79-1.91,4.34-.88,6.49,1.1,2.29,2.38,5.71,2.2,8.99-.12,2.23,1.01,4.32,2.94,5.45.54.31,1.12.54,1.73.68-.03,1.08-.26,1.77-.56,2.11-.98,1.11-1.92,1.78-2.54,1.8-.84,0-2.27-1-4.25-2.98l-6.12-6.12,3.96-6.37c1.47-2.36,1.12-5.39-.85-7.35l-1.84-1.84c-1.12-1.12-2.62-1.74-4.21-1.74s-3.09.62-4.21,1.74l-1.02,1.02c-.61-1.13-1.39-2.17-2.31-3.09C21.29,1.92,17.85.5,14.19.5S7.09,1.92,4.51,4.51c-5.34,5.34-5.34,14.03,0,19.37.93.93,1.96,1.7,3.08,2.32l-1.01,1.01c-2.32,2.32-2.32,6.1,0,8.42l1.84,1.84c1.13,1.13,2.62,1.75,4.21,1.75,1.12,0,2.21-.31,3.16-.91l6.34-3.96,6.13,6.13c2,2,3,3.44,2.98,4.27-.02.6-.67,1.51-1.8,2.51-.38.34-1.14.54-2.15.56-.13-.58-.35-1.15-.67-1.69-1.06-1.82-3.03-2.95-5.13-2.95-.1,0-.2,0-.31,0-.2.01-.39.02-.59.02-3.11,0-6.27-1.21-8.38-2.23-.81-.39-1.7-.59-2.58-.59-1.43,0-2.82.52-3.88,1.45-1.82,1.56-2.51,4.05-1.77,6.34,2.46,7.61,7.66,12.18,10.53,14.23,1.01.72,2.2,1.1,3.44,1.1.76,0,1.5-.14,2.2-.42.76-.3,1.43-.75,2.01-1.32.11-.11.21-.22.31-.33,2.78.85,5.72,1.3,8.68,1.3,4.06,0,7.97-.87,11.07-2.5.03-.02,3.18-1.71,7.14-1.71.91,0,1.8.09,2.66.27.39.08.79.12,1.19.12h0c1.53,0,2.97-.6,4.04-1.67,1.37-1.37,1.95-3.33,1.55-5.24-1.07-5.11,1.42-9.76,1.44-9.8.02-.03.03-.06.05-.09,2.85-5.44,3.21-12.92,1.15-19.65.11-.1.22-.2.33-.3.58-.58,1.03-1.25,1.33-2.01Z"/>
        <g>
          <g>
            <path class="cls-3" d="M46.91,7.77c-.75-.24-1.54-.02-2.07.58-.52.6-.63,1.41-.29,2.12,1.3,2.71,2.81,6.81,2.59,10.94-.04.73.33,1.41.96,1.78.63.37,1.41.36,2.03-.04h0c1.82-1.16,4.64-2.67,7.76-3.28.4-.08.75-.27,1.03-.55.19-.19.34-.41.44-.66.24-.61.16-1.3-.22-1.84-1.76-2.48-5.69-6.95-12.23-9.05Z"/>
            <path class="cls-4" d="M10.47,44.58c-.71-.34-1.53-.23-2.13.29-.61.52-.82,1.32-.58,2.07,2.11,6.52,6.57,10.44,9.04,12.2.54.38,1.23.47,1.85.22.25-.1.48-.25.66-.44.28-.28.47-.63.55-1.03.61-3.11,2.1-5.92,3.25-7.72.39-.62.41-1.39.04-2.03-.37-.63-1.05-1-1.78-.96-4.11.21-8.2-1.3-10.91-2.6Z"/>
          </g>
          <g>
            <path class="cls-4" d="M20.86,27.42l10.22,10.22c2.2,2.2,4.22,4.6,4.15,7.22-.05,1.79-1.08,3.55-3.14,5.38-5.52,4.91-20.15-3.26-20.3-3.34l-1.74-.98.97,1.75c6.4,11.53,21.59,13.07,29.25,9.06.06-.03,5.86-3.26,12.55-1.85.58.12,1.17-.05,1.58-.46h0s-30.27-30.27-30.27-30.27l-3.28,3.28Z"/>
            <path class="cls-3" d="M54.87,52.82c-1.41-6.69,1.82-12.49,1.86-12.57,4-7.64,2.46-22.83-9.07-29.24l-1.75-.97.99,1.74c.08.15,8.26,14.77,3.34,20.3-1.83,2.06-3.59,3.09-5.38,3.14-2.62.08-5.02-1.95-7.22-4.15l-10.22-10.22-3.28,3.28,30.27,30.27c.41-.41.59-1,.46-1.58Z"/>
          </g>
          <path class="cls-4" d="M30.03,9.41L9.41,30.04c-.76.76-.76,2,0,2.76l1.84,1.84c.65.65,1.64.76,2.42.27l12.77-7.98c.12-.08.24-.17.35-.28s.2-.22.28-.35l7.86-12.64c.48-.78.37-1.77-.28-2.41l-1.84-1.84c-.76-.76-2-.76-2.76,0Z"/>
          <path class="cls-4" d="M7.33,7.34c-3.78,3.78-3.78,9.93,0,13.72,3.78,3.78,9.93,3.78,13.72,0,3.78-3.78,3.78-9.93,0-13.72-3.78-3.78-9.93-3.78-13.72,0ZM16.8,11.59c1.44,1.44,1.44,3.78,0,5.21s-3.78,1.44-5.21,0-1.44-3.78,0-5.21,3.78-1.44,5.21,0Z"/>
        </g>
      </g>
    </g>
  </g>
</svg>