<?xml version="1.0" encoding="UTF-8"?>
<svg id="Layer_2" data-name="Layer 2" xmlns="http://www.w3.org/2000/svg" viewBox="0 0 64 64">
  <defs>
    <style>
      .cls-1 {
        fill: #fff;
      }

      .cls-1, .cls-2, .cls-3, .cls-4 {
        stroke-width: 0px;
      }

      .cls-1, .cls-2, .cls-4 {
        fill-rule: evenodd;
      }

      .cls-2 {
        fill: #80bad9;
      }

      .cls-3 {
        opacity: 0;
      }

      .cls-3, .cls-4 {
        fill: #1a1a1a;
      }
    </style>
  </defs>
  <g id="Exports_1" data-name="Exports 1">
    <g>
      <rect class="cls-3" width="64" height="64"/>
      <g>
        <path class="cls-4" d="M39.06,60.9c-1.41,0-2.78-.41-3.95-1.2L6.19,40.46c-.79-.53-1.46-1.2-1.99-1.99-.79-1.19-1.2-2.57-1.19-3.99v-4.98c.02-2.41,1.21-4.62,3.19-5.93L35.1,4.3c1.18-.78,2.54-1.2,3.96-1.2,1.92,0,3.71.75,5.06,2.1,1.35,1.35,2.08,3.15,2.08,5.05v4.24h7.8c3.86,0,7,3.14,7,7v21c0,3.86-3.14,7-7,7h-7.8v4.28c0,1.42-.42,2.77-1.19,3.93-1.33,2-3.55,3.19-5.95,3.19h0Z"/>
        <path class="cls-2" d="M7,34.5c0,.6.17,1.21.52,1.75.23.35.53.65.88.88l28.92,19.24c1.44.96,3.39.57,4.35-.87.34-.51.52-1.11.53-1.72v-8.28h11.8c1.66,0,3-1.34,3-3v-21c0-1.66-1.34-3-3-3h-11.8v-8.25c0-1.73-1.4-3.14-3.13-3.15-.62,0-1.23.18-1.75.53L8.4,26.9c-.9.6-1.4,1.59-1.4,2.6h0v5h0Z"/>
        <path class="cls-1" d="M7.53,31.25c.23.35.53.65.88.88l28.92,19.24c1.44.96,3.39.57,4.35-.87.34-.51.52-1.11.53-1.72v-8.28h11.8c1.66,0,3-1.34,3-3v-16c0-1.66-1.34-3-3-3h-11.8v-8.25c0-1.73-1.4-3.14-3.13-3.15-.62,0-1.23.18-1.75.53L8.4,26.9c-1.44.96-1.84,2.91-.88,4.35Z"/>
      </g>
    </g>
  </g>
</svg>