<?xml version="1.0" encoding="UTF-8"?>
<svg id="Layer_2" data-name="Layer 2" xmlns="http://www.w3.org/2000/svg" viewBox="0 0 64 64">
  <defs>
    <style>
      .cls-1, .cls-2 {
        fill-rule: evenodd;
      }

      .cls-1, .cls-2, .cls-3 {
        stroke-width: 0px;
      }

      .cls-1, .cls-3 {
        fill: #fff;
      }

      .cls-2 {
        fill: #80bad9;
      }

      .cls-4 {
        opacity: 0;
      }
    </style>
  </defs>
  <g id="Exports_1" data-name="Exports 1">
    <g>
      <g class="cls-4">
        <rect class="cls-3" width="64" height="64"/>
      </g>
      <g>
        <path class="cls-2" d="M57,29.5c0-.6-.17-1.21-.52-1.75-.23-.35-.53-.65-.88-.88L26.68,7.63c-1.44-.96-3.39-.57-4.35.87-.34.51-.52,1.11-.53,1.72v8.28h-11.8c-1.66,0-3,1.34-3,3v21c0,1.66,1.34,3,3,3h11.8v8.25c0,1.73,1.4,3.14,3.13,3.15.62,0,1.23-.18,1.75-.53l28.92-19.27c.9-.6,1.4-1.59,1.4-2.6h0v-5h0Z"/>
        <path class="cls-1" d="M56.48,27.75c-.23-.35-.53-.65-.88-.88L26.68,7.63c-1.44-.96-3.39-.57-4.35.87-.34.51-.52,1.11-.53,1.72v8.28h-11.8c-1.66,0-3,1.34-3,3v16c0,1.66,1.34,3,3,3h11.8v8.25c0,1.73,1.4,3.14,3.13,3.15.62,0,1.23-.18,1.75-.53l28.92-19.27c1.44-.96,1.84-2.91.88-4.35Z"/>
      </g>
    </g>
  </g>
</svg>