<?xml version="1.0" encoding="UTF-8"?>
<svg id="Layer_2" data-name="Layer 2" xmlns="http://www.w3.org/2000/svg" viewBox="0 0 64 64">
  <defs>
    <style>
      .cls-1 {
        opacity: 0;
      }

      .cls-1, .cls-2 {
        fill: #1a1a1a;
        stroke-width: 0px;
      }

      .cls-2 {
        fill-rule: evenodd;
      }
    </style>
  </defs>
  <g id="Exports_1" data-name="Exports 1">
    <g>
      <rect class="cls-1" width="64" height="64"/>
      <path class="cls-2" d="M33.75,55.97c.35-.23.65-.53.88-.88l19.24-28.92c.96-1.44.57-3.39-.87-4.35-.51-.34-1.11-.52-1.72-.53h-8.28v-11.8c0-1.66-1.34-3-3-3h-16c-1.66,0-3,1.34-3,3v11.8h-8.25c-1.73,0-3.14,1.4-3.15,3.13,0,.62.18,1.23.53,1.75l19.27,28.92c.96,1.44,2.91,1.84,4.35.88Z"/>
    </g>
  </g>
</svg>