<?xml version="1.0" encoding="UTF-8"?>
<svg id="Layer_2" data-name="Layer 2" xmlns="http://www.w3.org/2000/svg" viewBox="0 0 64 64">
  <defs>
    <style>
      .cls-1 {
        fill-rule: evenodd;
      }

      .cls-1, .cls-2 {
        fill: #fff;
        stroke-width: 0px;
      }

      .cls-3 {
        opacity: 0;
      }
    </style>
  </defs>
  <g id="Exports_1" data-name="Exports 1">
    <g>
      <g class="cls-3">
        <rect class="cls-2" width="64" height="64"/>
      </g>
      <path class="cls-1" d="M7.53,33.25c.23.35.53.65.88.88l28.92,19.24c1.44.96,3.39.57,4.35-.87.34-.51.52-1.11.53-1.72v-8.28h11.8c1.66,0,3-1.34,3-3v-16c0-1.66-1.34-3-3-3h-11.8v-8.25c0-1.73-1.4-3.14-3.13-3.15-.62,0-1.23.18-1.75.53L8.4,28.9c-1.44.96-1.84,2.91-.88,4.35Z"/>
    </g>
  </g>
</svg>