<?xml version="1.0" encoding="UTF-8"?>
<svg id="Layer_2" data-name="Layer 2" xmlns="http://www.w3.org/2000/svg" viewBox="0 0 64 64">
  <defs>
    <style>
      .cls-1 {
        fill: #fff;
      }

      .cls-1, .cls-2, .cls-3, .cls-4 {
        stroke-width: 0px;
      }

      .cls-1, .cls-2, .cls-4 {
        fill-rule: evenodd;
      }

      .cls-2 {
        fill: #80bad9;
      }

      .cls-3 {
        opacity: 0;
      }

      .cls-3, .cls-4 {
        fill: #1a1a1a;
      }
    </style>
  </defs>
  <g id="Exports_1" data-name="Exports 1">
    <g>
      <rect class="cls-3" width="64" height="64"/>
      <g>
        <path class="cls-4" d="M24,63.5c-3.86,0-7-3.14-7-7v-7.8h-4.28c-1.43-.01-2.78-.43-3.93-1.2-1.98-1.32-3.17-3.54-3.18-5.93v-5.01c0-1.42.41-2.79,1.19-3.96L26.04,3.69c.53-.79,1.2-1.46,1.99-1.99,1.18-.78,2.54-1.2,3.95-1.2,2.4,0,4.62,1.19,5.95,3.19l19.27,28.91c.79,1.18,1.2,2.55,1.2,3.97v4.99c0,3.94-3.21,7.13-7.14,7.13h-4.26v7.8c0,3.86-3.14,7-7,7h-16Z"/>
        <path class="cls-2" d="M53.87,34.82L34.6,5.9c-.96-1.44-2.91-1.84-4.35-.88-.35.23-.65.53-.88.88l-19.24,28.92c-.36.54-.53,1.15-.53,1.75h0v5h0c0,1.01.49,2,1.4,2.61.51.34,1.11.52,1.72.53h8.28v11.8c0,1.66,1.34,3,3,3h16c1.66,0,3-1.34,3-3v-11.8h8.25c1.73,0,3.14-1.4,3.15-3.13v-5c0-.62-.18-1.23-.53-1.75Z"/>
        <path class="cls-1" d="M30.25,5.03c-.35.23-.65.53-.88.88l-19.24,28.92c-.96,1.44-.57,3.39.87,4.35.51.34,1.11.52,1.72.53h8.28v11.8c0,1.66,1.34,3,3,3h16c1.66,0,3-1.34,3-3v-11.8h8.25c1.73,0,3.14-1.4,3.15-3.13,0-.62-.18-1.23-.53-1.75L34.6,5.9c-.96-1.44-2.91-1.84-4.35-.88Z"/>
      </g>
    </g>
  </g>
</svg>