<?xml version="1.0" encoding="UTF-8"?>
<svg id="Layer_2" data-name="Layer 2" xmlns="http://www.w3.org/2000/svg" viewBox="0 0 64 64">
  <defs>
    <style>
      .cls-1 {
        fill: #fff;
      }

      .cls-1, .cls-2, .cls-3, .cls-4 {
        stroke-width: 0px;
      }

      .cls-1, .cls-2, .cls-4 {
        fill-rule: evenodd;
      }

      .cls-2 {
        fill: #80bad9;
      }

      .cls-3 {
        opacity: 0;
      }

      .cls-3, .cls-4 {
        fill: #1a1a1a;
      }
    </style>
  </defs>
  <g id="Exports_1" data-name="Exports 1">
    <g>
      <rect class="cls-3" width="64" height="64"/>
      <g>
        <path class="cls-4" d="M32.01,63.5c-2.4,0-4.62-1.19-5.95-3.19L6.8,31.4c-.79-1.18-1.2-2.55-1.2-3.97,0-.07,0-.15,0-.24v-4.5c0-.09,0-.17,0-.26,0-3.94,3.21-7.13,7.14-7.13h4.26v-7.8c0-3.86,3.14-7,7-7h16c3.86,0,7,3.14,7,7v7.8h4.28c1.42.01,2.77.42,3.93,1.2,1.88,1.25,3.04,3.3,3.17,5.54.02.14.02.29.02.44v5c0,.17-.01.35-.03.52-.09,1.22-.49,2.38-1.17,3.4l-19.24,28.92c-.53.8-1.2,1.47-1.99,1.99-1.17.78-2.54,1.19-3.95,1.19Z"/>
        <path class="cls-2" d="M54.4,22.47h-.01c0-1.03-.48-2.04-1.4-2.65-.51-.34-1.11-.52-1.72-.53h-8.28V7.5c0-1.66-1.34-3-3-3h-16c-1.66,0-3,1.34-3,3v11.8h-8.25c-1.73,0-3.14,1.4-3.15,3.13,0,.04,0,.07,0,.11v4.81s0,.05,0,.08c0,.62.18,1.23.53,1.75l19.27,28.92c.96,1.44,2.91,1.84,4.35.88.35-.23.65-.53.88-.88l19.24-28.92c.35-.53.52-1.12.52-1.71h.01v-5Z"/>
        <path class="cls-1" d="M33.75,53.97c.35-.23.65-.53.88-.88l19.24-28.92c.96-1.44.57-3.39-.87-4.35-.51-.34-1.11-.52-1.72-.53h-8.28V7.5c0-1.66-1.34-3-3-3h-16c-1.66,0-3,1.34-3,3v11.8h-8.25c-1.73,0-3.14,1.4-3.15,3.13,0,.62.18,1.23.53,1.75l19.27,28.92c.96,1.44,2.91,1.84,4.35.88Z"/>
      </g>
    </g>
  </g>
</svg>