<?xml version="1.0" encoding="UTF-8"?>
<svg id="Layer_2" data-name="Layer 2" xmlns="http://www.w3.org/2000/svg" viewBox="0 0 64 64">
  <defs>
    <style>
      .cls-1, .cls-2 {
        fill-rule: evenodd;
      }

      .cls-1, .cls-2, .cls-3 {
        stroke-width: 0px;
      }

      .cls-1, .cls-3 {
        fill: #fff;
      }

      .cls-2 {
        fill: #80bad9;
      }

      .cls-4 {
        opacity: 0;
      }
    </style>
  </defs>
  <g id="Exports_1" data-name="Exports 1">
    <g>
      <g class="cls-4">
        <rect class="cls-3" width="64" height="64"/>
      </g>
      <g>
        <path class="cls-2" d="M53.87,34.82L34.6,5.9c-.96-1.44-2.91-1.84-4.35-.88-.35.23-.65.53-.88.88l-19.24,28.92c-.36.54-.53,1.15-.53,1.75h0v5h0c0,1.01.49,2,1.4,2.61.51.34,1.11.52,1.72.53h8.28v11.8c0,1.66,1.34,3,3,3h16c1.66,0,3-1.34,3-3v-11.8h8.25c1.73,0,3.14-1.4,3.15-3.13v-5c0-.62-.18-1.23-.53-1.75Z"/>
        <path class="cls-1" d="M30.25,5.03c-.35.23-.65.53-.88.88l-19.24,28.92c-.96,1.44-.57,3.39.87,4.35.51.34,1.11.52,1.72.53h8.28v11.8c0,1.66,1.34,3,3,3h16c1.66,0,3-1.34,3-3v-11.8h8.25c1.73,0,3.14-1.4,3.15-3.13,0-.62-.18-1.23-.53-1.75L34.6,5.9c-.96-1.44-2.91-1.84-4.35-.88Z"/>
      </g>
    </g>
  </g>
</svg>