<svg xmlns="http://www.w3.org/2000/svg" viewBox="0 0 64 64"><defs><style>.cls-1{opacity:0;}.cls-2{fill:#fff;}.cls-3{fill:#e62e49;}</style></defs><title>Exclamation Mark </title><g id="Layer_2" data-name="Layer 2"><g id="Layer_3" data-name="Layer 3"><g class="cls-1"><rect class="cls-2" width="64" height="64"/></g><path class="cls-3" d="M25.78,48.06a3.81,3.81,0,0,1,2.27-2,15.83,15.83,0,0,1,4.77-.53c2.16,0,3.73.48,4.7,1.42A6,6,0,0,1,39,51.45v1.19a23.66,23.66,0,0,1-.11,2.65,6.87,6.87,0,0,1-.71,2.05Q37,59.5,32.45,59.5t-6-1.45c-1-1-1.45-2.85-1.45-5.63A9.84,9.84,0,0,1,25.78,48.06Zm10-8.68a15.41,15.41,0,0,1-3.8.37,15.41,15.41,0,0,1-3.8-.37,3,3,0,0,1-2-1.34,4.84,4.84,0,0,1-.67-1.72A15.86,15.86,0,0,1,25.4,34V10.39A16.8,16.8,0,0,1,25.52,8a4.76,4.76,0,0,1,.7-1.75,3.3,3.3,0,0,1,2-1.38A14.25,14.25,0,0,1,32,4.5a14.3,14.3,0,0,1,3.8.41,3.1,3.1,0,0,1,2,1.42,5.08,5.08,0,0,1,.67,1.78,17,17,0,0,1,.12,2.35V34.09a16.05,16.05,0,0,1-.12,2.31,4.46,4.46,0,0,1-.7,1.67A3.22,3.22,0,0,1,35.76,39.38Z"/></g></g></svg>