<svg xmlns="http://www.w3.org/2000/svg" viewBox="0 0 64 64"><defs><style>.cls-1{fill:#1a1a1a;opacity:0;}.cls-2{fill:#fff;}</style></defs><title>Barrel Flat White</title><g id="Layer_2" data-name="Layer 2"><g id="Layer_3" data-name="Layer 3"><rect class="cls-1" width="64" height="64"/><path class="cls-2" d="M57.75,33.08c0-.15,0-.29,0-.43,0-.76,0-1.54,0-2.39a9.18,9.18,0,0,0,1.31-4.66v-.19c0-.26,0-.53,0-.79a44.8,44.8,0,0,0-1.11-7.06A8.34,8.34,0,0,0,56.14,14c-.26-1.31-.54-2.59-.85-3.81-.1-.4-.21-.81-.32-1.21a3.7,3.7,0,0,0-.3-.78C51.75,2.53,41.05.5,32,.5s-19.75,2-22.67,7.72A3.7,3.7,0,0,0,9,9c-.11.4-.22.8-.32,1.21-.31,1.22-.59,2.5-.85,3.81a8.33,8.33,0,0,0-1.75,3.47v0A44,44,0,0,0,5,24.62c0,.26,0,.51-.05.77v.21a9.18,9.18,0,0,0,1.31,4.66c0,.85,0,1.63,0,2.39,0,.14,0,.28,0,.42a7.71,7.71,0,0,0-.79,3.27A40.89,40.89,0,0,0,6,44.44l.08.44.09.41h0a7.39,7.39,0,0,0,.56,1.54,3.79,3.79,0,0,0,.25.45,8.58,8.58,0,0,0,.55.89c.1.14.21.28.36.46l.11.14c.41,2,.87,3.85,1.38,5.61v0a8.84,8.84,0,0,0,3.49,4.86c3.87,2.65,11,4.23,19.14,4.23s15.27-1.58,19.15-4.24a8.81,8.81,0,0,0,3.48-4.85v0c.51-1.75,1-3.63,1.38-5.6a8.75,8.75,0,0,0,1.83-3.48c0-.07.08-.38.08-.38l.09-.48a40.89,40.89,0,0,0,.52-8.1A7.86,7.86,0,0,0,57.75,33.08ZM18,9.58c.07-.26.15-.52.22-.78C19.38,6.64,25.1,5,32,5S44.62,6.64,45.78,8.8c.07.26.15.52.22.78v0c0,2.55-6.28,4.61-14,4.61S18,12.16,18,9.61ZM54.06,43.84a2.87,2.87,0,0,1-.05.31,1.37,1.37,0,0,1,0,.17h0c-1.11,4.45-10.53,7.93-22,7.93s-20.86-3.48-22-7.93h0a1.37,1.37,0,0,1,0-.17,2.87,2.87,0,0,1-.05-.31,35.42,35.42,0,0,1-.48-7.38c0,4.87,10.09,8.82,22.54,8.82s22.54-4,22.54-8.82A35.42,35.42,0,0,1,54.06,43.84ZM32,35.65c-12.74,0-23.07-4.27-23.07-10v-.07A4.91,4.91,0,0,1,9,25a40.54,40.54,0,0,1,1-6.48h0a3.08,3.08,0,0,0-.07.61c0,4.69,9.89,8.5,22.09,8.5s22.09-3.81,22.09-8.5a3.08,3.08,0,0,0-.07-.61h0A40.54,40.54,0,0,1,55,25a4.91,4.91,0,0,1,0,.53v.07C55.07,31.38,44.74,35.65,32,35.65Z"/></g></g></svg>