<svg xmlns="http://www.w3.org/2000/svg" viewBox="0 0 64 64"><defs><style>.cls-1,.cls-2{fill:#1a1a1a;}.cls-1{opacity:0;}.cls-3{fill:#476475;}.cls-4{fill:#5d7c8c;}.cls-5{fill:#d1864b;}.cls-6,.cls-8{fill:#bb5938;}.cls-6{opacity:0.5;}.cls-7{fill:#ebb369;}</style></defs><title>Barrel Outline</title><g id="Layer_2" data-name="Layer 2"><g id="Layer_3" data-name="Layer 3"><rect class="cls-1" width="64" height="64"/><path class="cls-2" d="M57.75,33.08c0-.15,0-.29,0-.43,0-.76,0-1.54,0-2.39a9.18,9.18,0,0,0,1.31-4.66v-.19c0-.26,0-.53,0-.79a44.8,44.8,0,0,0-1.11-7.06A8.34,8.34,0,0,0,56.14,14c-.26-1.31-.54-2.59-.85-3.81-.1-.4-.21-.81-.32-1.21a3.7,3.7,0,0,0-.3-.78C51.75,2.53,41.05.5,32,.5s-19.75,2-22.67,7.72A3.7,3.7,0,0,0,9,9c-.11.4-.22.8-.32,1.21-.31,1.22-.59,2.5-.85,3.81a8.33,8.33,0,0,0-1.75,3.47v0A44,44,0,0,0,5,24.62c0,.26,0,.51-.05.77v.21a9.18,9.18,0,0,0,1.31,4.66c0,.85,0,1.63,0,2.39,0,.14,0,.28,0,.42a7.71,7.71,0,0,0-.79,3.27A40.89,40.89,0,0,0,6,44.44l.08.44.09.41h0a7.39,7.39,0,0,0,.56,1.54,3.79,3.79,0,0,0,.25.45,8.58,8.58,0,0,0,.55.89c.1.14.21.28.36.46l.11.14c.41,2,.87,3.85,1.38,5.61v0a8.84,8.84,0,0,0,3.49,4.86c3.87,2.65,11,4.23,19.14,4.23s15.27-1.58,19.15-4.24a8.81,8.81,0,0,0,3.48-4.85v0c.51-1.75,1-3.63,1.38-5.6a8.75,8.75,0,0,0,1.83-3.48c0-.07.08-.38.08-.38l.09-.48a40.89,40.89,0,0,0,.52-8.1A7.86,7.86,0,0,0,57.75,33.08Z"/><path class="cls-3" d="M44.06,26.26c6-1.52,10-4.14,10-7.12S50,13.49,43.94,12a51.2,51.2,0,0,1,.56,7.53A51.26,51.26,0,0,1,44.06,26.26Z"/><path class="cls-3" d="M54.54,36.46c0-3.21-4.38-6-10.92-7.56a38.21,38.21,0,0,1-6.94,16.19C46.88,44.25,54.54,40.7,54.54,36.46Z"/><path class="cls-4" d="M9.91,19.14c0,4.69,9.89,8.5,22.09,8.5a49.87,49.87,0,0,0,12.06-1.38,51.26,51.26,0,0,0,.44-6.75A51.2,51.2,0,0,0,43.94,12,50.56,50.56,0,0,0,32,10.63C19.8,10.63,9.91,14.44,9.91,19.14Z"/><path class="cls-4" d="M32,27.64c-12.45,0-22.54,3.95-22.54,8.82S19.55,45.28,32,45.28c1.6,0,3.17-.07,4.68-.19A38.21,38.21,0,0,0,43.62,28.9,51.39,51.39,0,0,0,32,27.64Z"/><path class="cls-5" d="M51.41,11.19s0,.05,0,.07C51.36,15,42.67,18,32,18s-19.36-3-19.42-6.7c0,0,0,0,0-.07a82.52,82.52,0,0,0-2.35,21.39,80.08,80.08,0,0,0,3,20.71h0A4.84,4.84,0,0,0,15.11,56c3.07,2.1,9.48,3.54,16.89,3.54S45.82,58.06,48.88,56a4.81,4.81,0,0,0,1.91-2.66h0a80.08,80.08,0,0,0,3-20.71A82.52,82.52,0,0,0,51.41,11.19Z"/><path class="cls-6" d="M32.88,17.92a.64.64,0,0,0-.68-.48h-.4a.64.64,0,0,0-.68.48c-.4,4.09-.35,11.59-.35,20.17,0,7.81-.13,14.71.21,19a.64.64,0,0,0,.67.49h.7a.64.64,0,0,0,.67-.49c.34-4.26.21-11.16.21-19C33.23,29.51,33.28,22,32.88,17.92Z"/><path class="cls-6" d="M16.24,15.29a.52.52,0,0,0-.39-.46h0c-.42-.15-.89.09-.9.45-.34,7.53-.62,16.64-.36,21.85.21,4.27.95,11.16,1.77,17.64a.58.58,0,0,0,.4.43l.31.1c.44.13.9-.14.88-.51-.4-6.41-.81-13.27-1-17.74C16.63,31.62,16.44,22.68,16.24,15.29Z"/><path class="cls-6" d="M49.06,15.28c0-.36-.48-.6-.9-.45h0a.52.52,0,0,0-.39.46c-.2,7.39-.39,16.33-.66,21.76-.23,4.47-.64,11.33-1,17.74,0,.37.44.64.88.51l.31-.1a.58.58,0,0,0,.4-.43c.82-6.48,1.56-13.37,1.77-17.64C49.68,31.92,49.4,22.81,49.06,15.28Z"/><path class="cls-3" d="M55.07,25.53A4.91,4.91,0,0,0,55,25a40.54,40.54,0,0,0-1-6.48h0a3.08,3.08,0,0,1,.07.61c0,4.69-9.89,8.5-22.09,8.5S9.91,23.83,9.91,19.14a3.08,3.08,0,0,1,.07-.61h0A40.54,40.54,0,0,0,9,25a4.91,4.91,0,0,0,0,.53v.07c0,5.78,10.33,10,23.07,10s23.07-4.27,23.07-10Z"/><path class="cls-3" d="M54.54,36.46c0,4.87-10.09,8.82-22.54,8.82s-22.54-4-22.54-8.82a35.42,35.42,0,0,0,.48,7.38,2.87,2.87,0,0,0,.05.31,1.37,1.37,0,0,0,0,.17h0c1.11,4.45,10.53,7.93,22,7.93s20.86-3.48,22-7.93h0a1.37,1.37,0,0,0,0-.17,2.87,2.87,0,0,0,.05-.31A35.42,35.42,0,0,0,54.54,36.46Z"/><path class="cls-4" d="M9.91,19.14a3.08,3.08,0,0,1,.07-.61h0A40.54,40.54,0,0,0,9,25a4.91,4.91,0,0,0,0,.53v.07c0,5.78,10.33,10,23.07,10a50.41,50.41,0,0,0,10.11-1,45.53,45.53,0,0,0,2-8.41A49.87,49.87,0,0,1,32,27.64C19.8,27.64,9.91,23.83,9.91,19.14Z"/><path class="cls-4" d="M36.68,45.09c-1.51.12-3.08.19-4.68.19-12.45,0-22.54-4-22.54-8.82a35.42,35.42,0,0,0,.48,7.38,2.87,2.87,0,0,0,.05.31,1.37,1.37,0,0,0,0,.17h0c1,3.86,8.17,7,17.53,7.75A20.8,20.8,0,0,0,36.68,45.09Z"/><path class="cls-7" d="M32,18c10.7,0,19.42-3,19.42-6.73v0L51.11,10C49.5,6.9,41.57,4.5,32,4.5S14.5,6.9,12.89,10l-.3,1.15v0C12.58,15,21.3,18,32,18Z"/><path class="cls-5" d="M32,13.84c6.89,0,12.51-1.4,12.5-3.13v0c-.06-.18-.13-.35-.19-.53C43.27,8.7,38.16,7.58,32,7.58S20.73,8.7,19.69,10.16c-.06.18-.13.35-.19.53v0C19.49,12.44,25.11,13.84,32,13.84Z"/><path class="cls-8" d="M20.2,11.75c1.7-1.22,6.33-2.1,11.8-2.1s10.1.88,11.8,2.1a1.39,1.39,0,0,0,.7-1v0c-.06-.18-.13-.35-.19-.53C43.27,8.7,38.16,7.58,32,7.58S20.73,8.7,19.69,10.16c-.06.18-.13.35-.19.53v0A1.39,1.39,0,0,0,20.2,11.75Z"/></g></g></svg>