<?xml version="1.0" encoding="UTF-8"?>
<svg id="Layer_2" data-name="Layer 2" xmlns="http://www.w3.org/2000/svg" viewBox="0 0 64 64">
  <defs>
    <style>
      .cls-1 {
        fill: #1a1a1a;
      }

      .cls-1, .cls-2, .cls-3 {
        fill-rule: evenodd;
      }

      .cls-4, .cls-2 {
        fill: #fff;
      }

      .cls-5, .cls-3 {
        fill: #80bad9;
      }

      .cls-6 {
        fill: rgba(26, 26, 26, 0);
      }
    </style>
  </defs>
  <g id="Colour">
    <g>
      <rect class="cls-6" width="64" height="64"/>
      <g>
        <path class="cls-1" d="M49.53,2.47c-1.39,.01-2.74,.42-3.9,1.2l-21.25,14.14V9.47c0-3.86-3.14-7-7-7h-3.11c-3.86,0-7,3.14-7,7V54.53c0,3.86,3.14,7,7,7h3.11c3.86,0,7-3.14,7-7v-8.33l21.25,14.14c1.18,.78,2.54,1.2,3.95,1.2,2.4,0,4.62-1.19,5.95-3.18,.78-1.17,1.2-2.54,1.2-3.95V9.56c-.03-3.91-3.23-7.09-7.2-7.09Z"/>
        <rect class="cls-5" x="11.27" y="12.73" width="9.11" height="44.79" rx="3" ry="3"/>
        <path class="cls-3" d="M47.85,7L18.93,26.24c-.88,.58-1.4,1.57-1.4,2.62h0v6.28h0c0,1.05,.52,2.04,1.4,2.62l28.92,19.24c1.44,.96,3.39,.57,4.35-.87,.34-.51,.53-1.12,.53-1.74V9.59c-.01-1.73-1.43-3.13-3.16-3.12-.61,0-1.21,.19-1.72,.53Z"/>
        <path class="cls-2" d="M47.85,7L18.93,26.24c-1.44,.96-1.84,2.91-.88,4.35,.23,.35,.53,.65,.88,.88l28.92,19.27c1.44,.96,3.39,.57,4.35-.87,.34-.52,.53-1.12,.53-1.75V9.59c-.01-1.73-1.43-3.13-3.16-3.12-.61,0-1.21,.19-1.72,.53Z"/>
        <rect class="cls-4" x="11.27" y="6.47" width="9.11" height="44.79" rx="3" ry="3"/>
      </g>
    </g>
  </g>
</svg>