<?xml version="1.0" encoding="UTF-8"?>
<svg id="Layer_2" data-name="Layer 2" xmlns="http://www.w3.org/2000/svg" viewBox="0 0 64 64">
  <defs>
    <style>
      .cls-1 {
        fill: #fff;
        fill-rule: evenodd;
      }

      .cls-2 {
        fill: rgba(26, 26, 26, 0);
      }
    </style>
  </defs>
  <g id="BW">
    <g>
      <rect class="cls-2" width="64" height="64"/>
      <path class="cls-1" d="M49.57,9.47c-.61,0-1.21,.19-1.72,.53L20.38,28.27V12.47c0-1.66-1.34-3-3-3h-3.11c-1.66,0-3,1.34-3,3V51.27c0,1.66,1.34,3,3,3h3.11c1.66,0,3-1.34,3-3v-15.83l27.47,18.3c1.44,.96,3.39,.57,4.35-.87,.34-.52,.53-1.12,.53-1.75V12.59c-.01-1.73-1.43-3.13-3.16-3.12Z"/>
    </g>
  </g>
</svg>