<?xml version="1.0" encoding="UTF-8"?>
<svg id="Layer_2" data-name="Layer 2" xmlns="http://www.w3.org/2000/svg" viewBox="0 0 64 64">
  <defs>
    <style>
      .cls-1 {
        fill: #fec92b;
      }

      .cls-1, .cls-2, .cls-3, .cls-4, .cls-5, .cls-6 {
        stroke-width: 0px;
      }

      .cls-7 {
        opacity: 0;
      }

      .cls-2 {
        fill: #fdaf18;
      }

      .cls-3 {
        fill: #d769ff;
      }

      .cls-4 {
        fill: #f2a6ff;
      }

      .cls-5 {
        fill: #fff;
      }

      .cls-6 {
        fill: #a0f;
      }
    </style>
  </defs>
  <g id="Exports_1" data-name="Exports 1">
    <g>
      <g class="cls-7">
        <rect class="cls-5" width="64" height="64"/>
      </g>
      <g>
        <g>
          <path class="cls-2" d="M47.47,50.49c-.04-.16-.1-.31-.15-.46h.04l-1.17-4.2h-5.95c-1.66,6.09-5.44,11.03-10.29,13.59.67.04,1.35.07,2.05.07,9.68,0,16.55-4.31,15.47-9.01Z"/>
          <path class="cls-1" d="M40.24,45.83h-22.44l-1.17,4.2h.04c-.05.15-.11.31-.15.46-1,4.35,4.84,8.37,13.42,8.93,4.86-2.56,8.63-7.5,10.29-13.59Z"/>
        </g>
        <circle class="cls-6" cx="32" cy="28.33" r="23.83"/>
        <path class="cls-3" d="M31.84,4.5c-13.03.09-23.58,10.63-23.67,23.67,2.44,7.54,9.52,13,17.87,13,10.38,0,18.79-8.41,18.79-18.79,0-8.35-5.46-15.43-13-17.87Z"/>
        <path class="cls-5" d="M44.11,34.6l-4.63-1.83-1.83-4.63c-.38-.97-1.75-.97-2.13,0l-1.83,4.63-4.63,1.83c-.97.38-.97,1.75,0,2.13l4.63,1.83,1.83,4.63c.38.97,1.75.97,2.13,0l1.83-4.63,4.63-1.83c.97-.38.97-1.75,0-2.13Z"/>
        <path class="cls-4" d="M22.85,21.04l-2.6-1.02s-.08-.05-.1-.1l-1.02-2.6c-.31-.79-1.44-.79-1.75,0l-1.02,2.6s-.05.08-.1.1l-2.6,1.02c-.79.31-.79,1.44,0,1.75l2.6,1.02s.08.05.1.1l1.02,2.6c.31.79,1.44.79,1.75,0l1.02-2.6s.05-.08.1-.1l2.6-1.02c.79-.31.79-1.44,0-1.75Z"/>
        <circle class="cls-5" cx="25.58" cy="13.67" r="2.75"/>
        <circle class="cls-4" cx="48.5" cy="29.25" r="2.75"/>
        <circle class="cls-4" cx="19.17" cy="39.33" r="2.75"/>
      </g>
    </g>
  </g>
</svg>