<?xml version="1.0" encoding="UTF-8"?>
<svg id="Layer_2" data-name="Layer 2" xmlns="http://www.w3.org/2000/svg" viewBox="0 0 64 64">
  <defs>
    <style>
      .cls-1 {
        fill: #fec92b;
      }

      .cls-1, .cls-2, .cls-3, .cls-4, .cls-5, .cls-6, .cls-7, .cls-8 {
        stroke-width: 0px;
      }

      .cls-2, .cls-3 {
        fill: #1a1a1a;
      }

      .cls-3 {
        opacity: 0;
      }

      .cls-4 {
        fill: #fdaf18;
      }

      .cls-5 {
        fill: #fc9504;
      }

      .cls-6 {
        fill: #fee854;
      }

      .cls-7 {
        fill: #fef99d;
      }

      .cls-8 {
        fill: #fff;
      }
    </style>
  </defs>
  <g id="Exports_2" data-name="Exports 2">
    <g>
      <rect class="cls-3" width="64" height="64"/>
      <g>
        <path class="cls-2" d="M59.83,28.33C59.83,12.99,47.35.5,32,.5S4.17,12.99,4.17,28.33c0,7.75,3.15,14.98,8.72,20.23l-.11.39c-.04.13-.07.26-.09.39-.02.08-.04.17-.06.25-.56,2.46.02,5,1.63,7.16,2.77,3.72,8.54,6.21,15.44,6.66.84.05,1.59.08,2.31.08,7.75,0,14.31-2.41,17.53-6.46,1.78-2.23,2.43-4.87,1.84-7.44-.02-.08-.04-.16-.06-.24-.02-.13-.05-.27-.09-.4l-.11-.39c5.57-5.25,8.72-12.48,8.72-20.23Z"/>
        <g>
          <path class="cls-5" d="M47.47,50.49c-.04-.16-.1-.31-.15-.46h.04l-1.17-4.2h-5.95c-1.66,6.09-5.44,11.03-10.29,13.59.67.04,1.35.07,2.05.07,9.68,0,16.55-4.31,15.47-9.01Z"/>
          <path class="cls-4" d="M40.24,45.83h-22.44l-1.17,4.2h.04c-.05.15-.11.31-.15.46-1,4.35,4.84,8.37,13.42,8.93,4.86-2.56,8.63-7.5,10.29-13.59Z"/>
        </g>
        <circle class="cls-1" cx="32" cy="28.33" r="23.83"/>
        <path class="cls-6" d="M31.84,4.5c-13.03.09-23.58,10.63-23.67,23.67,2.44,7.54,9.52,13,17.87,13,10.38,0,18.79-8.41,18.79-18.79,0-8.35-5.46-15.43-13-17.87Z"/>
        <path class="cls-8" d="M44.11,34.6l-4.63-1.83-1.83-4.63c-.38-.97-1.75-.97-2.13,0l-1.83,4.63-4.63,1.83c-.97.38-.97,1.75,0,2.13l4.63,1.83,1.83,4.63c.38.97,1.75.97,2.13,0l1.83-4.63,4.63-1.83c.97-.38.97-1.75,0-2.13Z"/>
        <path class="cls-7" d="M22.85,21.04l-2.6-1.02s-.08-.05-.1-.1l-1.02-2.6c-.31-.79-1.44-.79-1.75,0l-1.02,2.6s-.05.08-.1.1l-2.6,1.02c-.79.31-.79,1.44,0,1.75l2.6,1.02s.08.05.1.1l1.02,2.6c.31.79,1.44.79,1.75,0l1.02-2.6s.05-.08.1-.1l2.6-1.02c.79-.31.79-1.44,0-1.75Z"/>
        <circle class="cls-8" cx="25.58" cy="13.67" r="2.75"/>
        <circle class="cls-7" cx="48.5" cy="29.25" r="2.75"/>
        <circle class="cls-7" cx="19.17" cy="39.33" r="2.75"/>
      </g>
    </g>
  </g>
</svg>