<?xml version="1.0" encoding="UTF-8"?>
<svg id="Layer_2" data-name="Layer 2" xmlns="http://www.w3.org/2000/svg" viewBox="0 0 64 64">
  <defs>
    <style>
      .cls-1 {
        opacity: 0;
      }

      .cls-2 {
        fill: #fff;
        stroke-width: 0px;
      }
    </style>
  </defs>
  <g id="Exports_1" data-name="Exports 1">
    <g>
      <g class="cls-1">
        <rect class="cls-2" width="64" height="64"/>
      </g>
      <path class="cls-2" d="M59.83,28.33C59.83,12.99,47.35.5,32,.5S4.17,12.99,4.17,28.33c0,7.75,3.15,14.98,8.72,20.23l-.11.39c-.04.13-.07.26-.09.39-.02.08-.04.17-.06.25-.56,2.46.02,5,1.63,7.16,2.77,3.72,8.54,6.21,15.44,6.66.84.05,1.59.08,2.31.08,7.75,0,14.31-2.41,17.53-6.46,1.78-2.23,2.43-4.87,1.84-7.44-.02-.08-.04-.16-.06-.24-.02-.13-.05-.27-.09-.4l-.11-.39c5.57-5.25,8.72-12.48,8.72-20.23ZM29.06,34.6l4.63-1.83,1.83-4.63c.38-.97,1.75-.97,2.13,0l1.83,4.63,4.63,1.83c.97.38.97,1.75,0,2.13l-4.63,1.83-1.83,4.63c-.38.97-1.75.97-2.13,0l-1.83-4.63-4.63-1.83c-.97-.38-.97-1.75,0-2.13ZM25.58,10.92c1.52,0,2.75,1.23,2.75,2.75s-1.23,2.75-2.75,2.75-2.75-1.23-2.75-2.75,1.23-2.75,2.75-2.75ZM16.25,23.82l-2.6-1.02c-.79-.31-.79-1.44,0-1.75l2.6-1.02s.08-.05.1-.1l1.02-2.6c.31-.79,1.44-.79,1.75,0l1.02,2.6s.05.08.1.1l2.6,1.02c.79.31.79,1.44,0,1.75l-2.6,1.02s-.08.05-.1.1l-1.02,2.6c-.31.79-1.44.79-1.75,0l-1.02-2.6s-.05-.08-.1-.1ZM19.17,36.58c1.52,0,2.75,1.23,2.75,2.75s-1.23,2.75-2.75,2.75-2.75-1.23-2.75-2.75,1.23-2.75,2.75-2.75ZM32,59.5c-.7,0-1.38-.03-2.05-.07-8.58-.56-14.42-4.58-13.42-8.93.04-.16.1-.31.15-.46h-.04l.79-2.84c4.03,3.12,9.08,4.98,14.57,4.98s10.54-1.86,14.57-4.98l.79,2.84h-.04c.05.15.11.31.15.46,1.07,4.69-5.79,9.01-15.47,9.01ZM48.5,32c-1.52,0-2.75-1.23-2.75-2.75s1.23-2.75,2.75-2.75,2.75,1.23,2.75,2.75-1.23,2.75-2.75,2.75Z"/>
    </g>
  </g>
</svg>