<svg xmlns="http://www.w3.org/2000/svg" viewBox="0 0 64 64"><defs><style>.cls-1,.cls-2{fill:#fff;}.cls-1{opacity:0;}</style></defs><title>Plastic Cup White</title><g id="Layer_2" data-name="Layer 2"><g id="Finals"><rect class="cls-1" width="64" height="64"/><path class="cls-2" d="M54.24,11.15a10.26,10.26,0,0,0-2.7-2.4l-.09-.05a23.39,23.39,0,0,0-6.18-2.58A42.79,42.79,0,0,0,38.9,4.91a57.31,57.31,0,0,0-6.41-.41A50.87,50.87,0,0,0,19.7,5.85a27.44,27.44,0,0,0-6.23,2.3,12.63,12.63,0,0,0-2.91,2.09,6.45,6.45,0,0,0-2,3.64,4.74,4.74,0,0,0-.05.65A5.85,5.85,0,0,0,9.69,18.1a9.47,9.47,0,0,0,.92,1L13.39,50.2h0c.47,5.24,8.79,9.3,18.61,9.3s18.13-4.06,18.61-9.3h0l2.77-31,.13-.12a6.66,6.66,0,0,0,2-3.71A5.68,5.68,0,0,0,54.24,11.15ZM13,12.63a9.45,9.45,0,0,1,2.11-1.58,22.34,22.34,0,0,1,5.41-2.13,46.61,46.61,0,0,1,12-1.42A42.06,42.06,0,0,1,44.39,9.16a20,20,0,0,1,5.25,2.34,7.07,7.07,0,0,1,1.85,1.68A2.25,2.25,0,0,1,52,14.84,2.73,2.73,0,0,1,51.44,16a4.66,4.66,0,0,1-.48.54A9.63,9.63,0,0,1,48.82,18a23.66,23.66,0,0,1-5.41,2,49.61,49.61,0,0,1-11.88,1.28,44.58,44.58,0,0,1-11.83-1.5,25.21,25.21,0,0,1-3.17-1.1,14.57,14.57,0,0,1-2.09-1.05A7,7,0,0,1,12.56,16,2.23,2.23,0,0,1,12,14.36,3.2,3.2,0,0,1,13,12.63Z"/></g></g></svg>