<svg xmlns="http://www.w3.org/2000/svg" viewBox="0 0 64 64"><defs><style>.cls-1,.cls-5{fill:#fff;}.cls-1{opacity:0;}.cls-2{fill:#e62e49;}.cls-3{fill:#a72d3e;}.cls-4{fill:#bfd9e6;}.cls-6{fill:#ff7c6b;}</style></defs><title>Plastic Cup</title><g id="Layer_2" data-name="Layer 2"><g id="Finals"><rect class="cls-1" width="64" height="64"/><path class="cls-2" d="M53.72,15.35H10.27L13.39,50.2h0c.47,5.24,8.79,9.3,18.61,9.3s18.13-4.06,18.61-9.3h0Z"/><path class="cls-3" d="M45.47,15.35,43.09,52.76h0a10.82,10.82,0,0,1-2,5.47c5.37-1.59,9.15-4.55,9.47-8h0l3.11-34.85Z"/><path class="cls-3" d="M53.72,15.08c-.64,4.61-10.35,8.15-21.72,8.15s-21.09-3.54-21.73-8.15C9.59,10.19,19.3,6,32,6S54.4,10.19,53.72,15.08Z"/><path class="cls-4" d="M54.24,11.15a10.26,10.26,0,0,0-2.7-2.4,7.88,7.88,0,0,1,1.25,3.93A4.64,4.64,0,0,1,51.44,16a4.66,4.66,0,0,1-.48.54A9.63,9.63,0,0,1,48.82,18a23.66,23.66,0,0,1-5.41,2,49.61,49.61,0,0,1-11.88,1.28,44.58,44.58,0,0,1-11.83-1.5,25.21,25.21,0,0,1-3.17-1.1,22.05,22.05,0,0,1-8-4.09A5.85,5.85,0,0,0,9.69,18.1a10.46,10.46,0,0,0,2.77,2.54,23.7,23.7,0,0,0,6.18,2.75A48.6,48.6,0,0,0,31.5,25.22a47.74,47.74,0,0,0,12.88-1.53,27.17,27.17,0,0,0,6.23-2.48A12.91,12.91,0,0,0,53.51,19a6.66,6.66,0,0,0,2-3.71A5.68,5.68,0,0,0,54.24,11.15Z"/><path class="cls-5" d="M14.44,17.57A7,7,0,0,1,12.56,16,2.23,2.23,0,0,1,12,14.36a3.2,3.2,0,0,1,1-1.73,9.45,9.45,0,0,1,2.11-1.58,22.34,22.34,0,0,1,5.41-2.13,46.61,46.61,0,0,1,12-1.42A42.06,42.06,0,0,1,44.39,9.16a20,20,0,0,1,5.25,2.34,7.07,7.07,0,0,1,1.85,1.68A2.25,2.25,0,0,1,52,14.84,2.73,2.73,0,0,1,51.44,16a4.64,4.64,0,0,0,1.35-3.28,7.88,7.88,0,0,0-1.25-3.93l-.09-.05a23.39,23.39,0,0,0-6.18-2.58A42.79,42.79,0,0,0,38.9,4.91a57.31,57.31,0,0,0-6.41-.41A50.87,50.87,0,0,0,19.7,5.85a27.44,27.44,0,0,0-6.23,2.3,12.63,12.63,0,0,0-2.91,2.09,6.45,6.45,0,0,0-2,3.64,4.74,4.74,0,0,0-.05.65,22.05,22.05,0,0,0,8,4.09A14.57,14.57,0,0,1,14.44,17.57Z"/><ellipse class="cls-6" cx="17.49" cy="32.31" rx="2.78" ry="5.64" transform="translate(-1.85 1.07) rotate(-3.34)"/><ellipse class="cls-6" cx="18.17" cy="43.81" rx="2.07" ry="2.91" transform="translate(-1.63 0.71) rotate(-2.15)"/></g></g></svg>