<svg xmlns="http://www.w3.org/2000/svg" viewBox="0 0 64 64"><defs><style>.cls-1{opacity:0;}.cls-2{fill:#1a1a1a;}</style></defs><title>Jack O Lantern_2 Flat Black</title><g id="Layer_2" data-name="Layer 2"><g id="Layer_4" data-name="Layer 4"><g class="cls-1"><rect class="cls-2" width="64" height="64"/></g><path class="cls-2" d="M56.87,23.41c-1.91-3.7-4.49-5.27-7.22-5.6-3.32-3.72-6.4-4.27-9-3.34a9.63,9.63,0,0,0-5.91-1.13,24.75,24.75,0,0,1-.6-3.58c0-.35-.94-.64-2.11-.64s-2.11.29-2.11.64a24.75,24.75,0,0,1-.6,3.58,9.63,9.63,0,0,0-5.91,1.13c-2.63-.93-5.71-.38-9,3.34-2.73.33-5.31,1.9-7.22,5.6-5.5,10.62-1,17.51,1.29,20.1,1.1,3,2.66,5.41,4.24,6.52a14.85,14.85,0,0,0,8.17,2.59,9,9,0,0,0,1.25,1.16c2.16,1.6,7.63,1.32,9.92,0,2.29,1.32,7.76,1.6,9.92,0a9,9,0,0,0,1.25-1.16A14.85,14.85,0,0,0,51.34,50c1.58-1.11,3.14-3.53,4.24-6.52C57.91,40.92,62.37,34,56.87,23.41ZM37.55,28.24l9.27-3.09A1,1,0,0,1,48,26.58L44.3,33.32a1,1,0,0,1-1.42.35L37.31,30A1,1,0,0,1,37.55,28.24ZM17.18,25.15l9.27,3.09A1,1,0,0,1,26.69,30l-5.57,3.65a1,1,0,0,1-1.42-.35L16,26.58A1,1,0,0,1,17.18,25.15Zm33.3,11.19L45.86,47.61a1,1,0,0,1-1.26.56l-6.84-2.44-5.17,3.76a1,1,0,0,1-1.18,0l-5.17-3.76L19.4,48.17a1,1,0,0,1-1.26-.56L13.52,36.34A1,1,0,0,1,15,35.11l8.37,5.29,8.12-5.22a1,1,0,0,1,1.08,0l8.12,5.22L49,35.11A1,1,0,0,1,50.48,36.34Z"/></g></g></svg>