<svg xmlns="http://www.w3.org/2000/svg" viewBox="0 0 64 64"><defs><style>.cls-1{opacity:0;}.cls-2{fill:#fff;}.cls-3{fill:#f15a24;}.cls-4{fill:#fc9504;}.cls-5{fill:#009245;}.cls-6{fill:#39b54a;}.cls-7{fill:#324652;}</style></defs><title>Jack O Lantern</title><g id="Layer_2" data-name="Layer 2"><g id="Layer_3" data-name="Layer 3"><g class="cls-1"><rect class="cls-2" width="64" height="64"/></g><path class="cls-3" d="M32,23.9V14.07a9.83,9.83,0,0,1,9.48.93Z"/><path class="cls-3" d="M32,23.9s8-17.59,18-5.7Z"/><path class="cls-3" d="M32,23.9V14.07a9.83,9.83,0,0,0-9.48.93Z"/><path class="cls-4" d="M32,23.9S24.05,6.31,14,18.2Z"/><path class="cls-3" d="M54.39,44.68s9.6-7.51,2.48-21.27-23.34,1.81-23.34,1.81Z"/><path class="cls-4" d="M28.63,24.38s-1.27-7.44-13.93-2.5S7.19,46.21,12.66,50a15.53,15.53,0,0,0,11.65,2.29Z"/><path class="cls-4" d="M34.18,20.14l1.36-.36c9.57-2.71,10.32-4.47,8.82-5.53C40,13.22,36.34,17,34.18,20.14Z"/><path class="cls-4" d="M9.61,44.68S0,37.17,7.13,23.41s23.34,1.81,23.34,1.81Z"/><path class="cls-5" d="M34.11,9.76c0-.35-.94-.64-2.11-.64s-2.11.29-2.11.64a28.7,28.7,0,0,1-4.7,12.91L32,27.19l6.81-4.52A28.7,28.7,0,0,1,34.11,9.76Z"/><path class="cls-4" d="M35.37,24.38s1.27-7.44,13.93-2.5,7.51,24.33,2,28.15a15.53,15.53,0,0,1-11.65,2.29Z"/><path class="cls-4" d="M47.27,37.31c-.83-9.52-5.73-14-9.93-15.15S32,23.9,32,23.9,30.86,21,26.66,22.16s-9.1,5.63-9.93,15.15,3.18,14.87,5.35,16.47,7.63,1.32,9.92,0c2.29,1.32,7.76,1.6,9.92,0S48.09,46.83,47.27,37.31Z"/><path class="cls-3" d="M31.6,28.58a48.74,48.74,0,0,0,0,23,.41.41,0,0,0,.8,0,48,48,0,0,0,1.37-11.48A47.93,47.93,0,0,0,32.4,28.58.41.41,0,0,0,31.6,28.58Z"/><path class="cls-3" d="M19.74,26.22a13.7,13.7,0,0,0-6.6,11.51A13.92,13.92,0,0,0,17.66,49a.41.41,0,0,0,.65-.46,23.23,23.23,0,0,1-1.58-11.27,20.58,20.58,0,0,1,3.55-10.49A.41.41,0,0,0,19.74,26.22Z"/><path class="cls-3" d="M50.86,37.73a13.7,13.7,0,0,0-6.6-11.51.41.41,0,0,0-.54.6,20.58,20.58,0,0,1,3.55,10.49,23.23,23.23,0,0,1-1.58,11.27.41.41,0,0,0,.65.46A13.92,13.92,0,0,0,50.86,37.73Z"/><path class="cls-6" d="M31.76,9.13c-1.05,0-1.87.3-1.87.63a27.12,27.12,0,0,1-2.25,8.45c.31,1.25.9,2.1,1.67,2.21,1.46.2,3-2.26,3.46-5.49C33.13,12.35,32.69,10.06,31.76,9.13Z"/><path class="cls-7" d="M49,37.11,40.66,42.4l-8.12-5.22a1,1,0,0,0-1.08,0L23.34,42.4,15,37.11a1,1,0,0,0-1.45,1.23l4.62,11.27a1,1,0,0,0,1.26.56l6.84-2.44,5.17,3.76a1,1,0,0,0,1.18,0l5.17-3.76,6.84,2.44a1,1,0,0,0,1.26-.56l4.62-11.27A1,1,0,0,0,49,37.11Z"/><path class="cls-7" d="M46.82,27.15l-9.27,3.09A1,1,0,0,0,37.31,32l5.57,3.65a1,1,0,0,0,1.42-.35L48,28.58A1,1,0,0,0,46.82,27.15Z"/><path class="cls-7" d="M17.18,27.15l9.27,3.09A1,1,0,0,1,26.69,32l-5.57,3.65a1,1,0,0,1-1.42-.35L16,28.58A1,1,0,0,1,17.18,27.15Z"/></g></g></svg>