<svg xmlns="http://www.w3.org/2000/svg" viewBox="0 0 64 64"><defs><style>.cls-1,.cls-2{fill:#1a1a1a;}.cls-1{opacity:0;}.cls-3{isolation:isolate;}.cls-4{fill:#1778ff;}.cls-5{fill:#37b9ff;}.cls-6{fill:#0049c7;}.cls-7{fill:#fdbc0d;}.cls-8{fill:#fc9504;}.cls-9{fill:#fee854;}</style></defs><title>Cash Blue Outline</title><g id="Layer_2" data-name="Layer 2"><g id="_001-100" data-name="001-100"><rect class="cls-1" width="64" height="64"/><path class="cls-2" d="M60.88,11.21,36.69.82A4,4,0,0,0,35.14.5a3.94,3.94,0,0,0-2.35.77L2.33,23.87A3.92,3.92,0,0,0,.74,27.1l.34,21.08a4,4,0,0,0,2.25,3.49L27.48,63.12a3.94,3.94,0,0,0,4.17-.5L61.1,38.74a4,4,0,0,0,1.46-2.93L63.26,15A3.93,3.93,0,0,0,60.88,11.21Z"/><g class="cls-3"><polygon class="cls-4" points="29.17 59.56 5.02 48.11 4.67 27.04 29.31 38.31 29.17 59.56"/><polygon class="cls-5" points="29.31 38.31 4.67 27.04 35.13 4.44 59.33 14.83 29.31 38.31"/><polygon class="cls-6" points="59.33 14.83 58.62 35.68 29.17 59.56 29.31 38.31 59.33 14.83"/></g><polygon class="cls-7" points="13.95 20.15 38.58 31.06 51.31 21.1 27.27 10.27 13.95 20.15"/><polygon class="cls-5" points="4.77 32.72 29.27 44.06 29.25 46.84 4.81 35.21 4.77 32.72"/><polygon class="cls-5" points="4.9 40.88 29.22 52.64 29.2 54.86 4.94 43.23 4.9 40.88"/><polygon class="cls-4" points="29.27 44.06 59.16 19.95 59.07 22.47 29.25 46.84 29.27 44.06"/><polygon class="cls-4" points="29.22 52.64 58.88 27.99 58.8 30.52 29.2 54.86 29.22 52.64"/><polygon class="cls-8" points="38.58 31.06 38.58 51.93 50.49 42.28 51.31 21.1 38.58 31.06"/><polygon class="cls-9" points="27.35 10.3 27.17 10.35 13.95 20.15 15.47 20.83 38.6 15.37 27.35 10.3"/><polygon class="cls-9" points="44.25 17.92 20.87 23.22 26.41 25.67 49.41 20.24 44.25 17.92"/></g></g></svg>