<svg xmlns="http://www.w3.org/2000/svg" viewBox="0 0 64 64"><defs><style>.cls-1{fill:none;}.cls-2{fill:#1a1a1a;}.cls-3{isolation:isolate;}.cls-4{fill:#009245;}.cls-5{fill:#39b54a;}.cls-6{fill:#006837;}.cls-7{fill:#fdbc0d;}.cls-8{fill:#fc9504;}.cls-9{fill:#fee854;}</style></defs><title>Cash Outline</title><g id="Layer_2" data-name="Layer 2"><g id="Layer_2-2" data-name="Layer 2"><rect class="cls-1" width="64" height="64"/><path class="cls-2" d="M61.34,10.88,36.76.33A3.92,3.92,0,0,0,35.19,0,4,4,0,0,0,32.8.79l-30.94,23A4,4,0,0,0,.24,27L.59,48.43A4,4,0,0,0,2.88,52L27.41,63.61a4,4,0,0,0,4.23-.5L61.57,38.85a4,4,0,0,0,1.47-3l.72-21.18A4,4,0,0,0,61.34,10.88Z"/><g class="cls-3"><polygon class="cls-4" points="29.13 60 4.59 48.37 4.24 26.96 29.26 38.41 29.13 60"/><polygon class="cls-5" points="29.26 38.41 4.24 26.96 35.19 4 59.76 14.56 29.26 38.41"/><polygon class="cls-6" points="59.76 14.56 59.05 35.74 29.13 60 29.26 38.41 59.76 14.56"/></g><polygon class="cls-7" points="13.66 19.97 38.68 31.04 51.62 20.93 27.2 9.93 13.66 19.97"/><polygon class="cls-5" points="4.33 32.73 29.23 44.25 29.21 47.08 4.38 35.26 4.33 32.73"/><polygon class="cls-5" points="4.47 41.02 29.17 52.97 29.16 55.23 4.51 43.41 4.47 41.02"/><polygon class="cls-4" points="29.23 44.25 59.59 19.76 59.5 22.31 29.21 47.08 29.23 44.25"/><polygon class="cls-4" points="29.17 52.97 59.31 27.93 59.22 30.5 29.16 55.23 29.17 52.97"/><polygon class="cls-8" points="38.68 31.04 38.68 52.25 50.78 42.44 51.62 20.93 38.68 31.04"/><polygon class="cls-9" points="27.28 9.96 27.09 10 13.66 19.97 15.2 20.65 38.7 15.11 27.28 9.96"/><polygon class="cls-9" points="44.44 17.69 20.69 23.08 26.32 25.57 49.69 20.06 44.44 17.69"/></g></g></svg>