<svg xmlns="http://www.w3.org/2000/svg" viewBox="0 0 64 64"><defs><style>.cls-1{fill:none;}.cls-2{fill:#fff;}</style></defs><title>Cash Flat White</title><g id="Layer_2" data-name="Layer 2"><g id="Layer_2-2" data-name="Layer 2"><rect class="cls-1" width="64" height="64"/><path class="cls-2" d="M57.34,16.63C39.58,19.38,24.4,11.25,6.66,14A4.8,4.8,0,0,0,4,18V46C4,47.49,5.19,48,6.66,47.37,24.4,44.62,39.58,52.75,57.34,50A4.81,4.81,0,0,0,60,46V18C60,16.5,58.81,16,57.34,16.63ZM32,44.62c-7-2-12.62-8.54-12.62-15.51S25,17.37,32,19.37s12.62,8.55,12.63,15.52S39,46.63,32,44.62Z"/><path class="cls-2" d="M34.22,31s-.66-.29-1.46-.67a12.55,12.55,0,0,1-1.69-.8,1,1,0,0,1-.45-1c.17-.56.67-.32,2,.16.7.25,2,.78,2.87,1.12a.66.66,0,0,0,1-.42L37,26.93a1.15,1.15,0,0,0-.7-1.23L34.71,25V23.89a1.24,1.24,0,0,0-.86-1.11l-3.7-1.06a.64.64,0,0,0-.86.63v1.2a.5.5,0,0,0,0,.12,3.34,3.34,0,0,0-1.23.35c-1.34.67-1.83,1.81-2,3.46a5.08,5.08,0,0,0,2.81,5s.64.34,1.95.89l1.38.58c1.18.49,1.16,1.06,1.1,1.34-.17.75-1.15.28-2,0-1-.36-2.31-.88-3.12-1.21a.66.66,0,0,0-1,.43l-.55,2.57a1.16,1.16,0,0,0,.7,1.21c.53.23,1.23.52,1.94.8v1a1.25,1.25,0,0,0,.86,1.12l3.7,1.05a.63.63,0,0,0,.86-.62v-1.2s0,0,0-.05a3.06,3.06,0,0,0,1.19-.27c1.33-.67,1.84-1.84,2.08-3.46C38.25,34.74,37,32.25,34.22,31Z"/></g></g></svg>