<svg xmlns="http://www.w3.org/2000/svg" viewBox="0 0 64 64"><defs><style>.cls-1{opacity:0;}.cls-2{fill:#fff;}.cls-3{fill:#5d7c8c;}.cls-4{fill:#e62e49;}.cls-5{fill:#d3dee3;}.cls-6{fill:#a72d3e;}</style></defs><title>Firework</title><g id="Layer_2" data-name="Layer 2"><g id="Layer_3" data-name="Layer 3"><g class="cls-1"><rect class="cls-2" width="64" height="64"/></g><path class="cls-3" d="M23,47.27,20.78,46a1.27,1.27,0,0,0-1.67.3c-1,1.22-2.95,3.28-5.44,3.64a7.13,7.13,0,0,1-5.35-1.81,1.28,1.28,0,0,0-1.75.13L4.84,50.09A1.3,1.3,0,0,0,5,52a12.59,12.59,0,0,0,7.89,3.09A11.1,11.1,0,0,0,14.4,55c4.42-.64,7.54-4,8.94-5.8A1.3,1.3,0,0,0,23,47.27Z"/><path class="cls-2" d="M33.79,18.11,13.09,38.82c-1.16,1.16,1.53,5.74,6,10.22s9.07,7.19,10.23,6L50,34.36Z"/><path class="cls-4" d="M19.11,49c4.49,4.49,9.07,7.19,10.23,6l9-9a85.09,85.09,0,0,1-25.47-5.93C13.27,42.09,15.66,45.59,19.11,49Z"/><path class="cls-4" d="M47.26,31.58,33.79,18.11,23.56,28.35A71.07,71.07,0,0,0,47.26,31.58Z"/><path class="cls-5" d="M38.6,31.33c-5.5,6.43-10.73,10.15-15,12.29a83.9,83.9,0,0,0,14.79,2.43l-9,9L50,34.36l-2.78-2.78A75.31,75.31,0,0,1,38.6,31.33Z"/><path class="cls-6" d="M23.56,43.62a28.8,28.8,0,0,1-7.1,2.52l.23.28.06.07.49.57.11.12.48.53.05,0q.26.29.54.57l.12.14.57.57c4.49,4.49,9.07,7.19,10.23,6l9-9A83.9,83.9,0,0,1,23.56,43.62Z"/><path class="cls-6" d="M47.26,31.58l-4.95-4.95c-1.25,1.71-2.49,3.27-3.71,4.7A75.31,75.31,0,0,0,47.26,31.58Z"/><path class="cls-4" d="M53.23,38.27l6.22-27.35A1.85,1.85,0,0,0,57.24,8.7L29.88,14.93a1.85,1.85,0,0,0-1.22,2.68c1.48,2.66,5.2,7.19,10,11.94S47.88,38,50.54,39.49A1.84,1.84,0,0,0,53.23,38.27Z"/><path class="cls-6" d="M58,8.69a10.1,10.1,0,0,0-1,1.85,117.2,117.2,0,0,1-13.16,24,43.78,43.78,0,0,0,6.66,5,1.84,1.84,0,0,0,2.69-1.22l6.22-27.35A1.85,1.85,0,0,0,58,8.69Z"/></g></g></svg>