<svg xmlns="http://www.w3.org/2000/svg" viewBox="0 0 64 64"><defs><style>.cls-1{opacity:0;}.cls-2{fill:#fff;}</style></defs><title>Firework_3 Flat White</title><g id="Layer_2" data-name="Layer 2"><g id="Layer_4" data-name="Layer 4"><g class="cls-1"><rect class="cls-2" width="64" height="64"/></g><path class="cls-2" d="M57.24,8.71,29.88,14.93a1.86,1.86,0,0,0-1.22,2.69A30.05,30.05,0,0,0,30.94,21l-7.39,7.39h0L13.09,38.82a1.43,1.43,0,0,0-.21,1.31h0s0,0,0,0a5.43,5.43,0,0,0,.22.74l0,.1a7.3,7.3,0,0,0,.35.78l.05.12c.16.3.33.61.53.93l.1.18c.19.3.39.61.61.92l.08.13c.24.34.5.7.78,1.06l.18.23.84,1,.08.1,1,1.13.05,0a8,8,0,0,1-4.14,2.21,7,7,0,0,1-5.34-1.81,1.31,1.31,0,0,0-1.76.14L4.84,50.1A1.28,1.28,0,0,0,5,52a12.53,12.53,0,0,0,7.89,3.09A10.84,10.84,0,0,0,14.39,55a13.05,13.05,0,0,0,7.08-3.72c3.64,3.12,6.91,4.79,7.87,3.83l9-9,8.84-8.84a31,31,0,0,0,3.35,2.28,1.86,1.86,0,0,0,2.69-1.22l6.22-27.36A1.84,1.84,0,0,0,57.24,8.71Z"/></g></g></svg>