<svg xmlns="http://www.w3.org/2000/svg" viewBox="0 0 128 128"><defs><style>.cls-1{fill:#fff;}.cls-2{fill:none;}</style></defs><title>Potion White </title><g id="Layer_2" data-name="Layer 2"><g id="_1-13" data-name="1-13"><path class="cls-1" d="M112.59,15.38C105.37,8.15,96.21,4,87.48,4A22.37,22.37,0,0,0,72.35,9.52a57.72,57.72,0,0,0-51.46,97.56,58.84,58.84,0,0,0,4.69,4.21A57.86,57.86,0,0,0,61.71,124h0a57.72,57.72,0,0,0,56.73-68.38C127.66,45.43,125.2,28,112.59,15.38Zm-.16,35.68c-.18.18-.38.33-.57.49l-.29.26c-.4.32-.81.63-1.24.91l-.21.14-.25.16.26-.15a50.24,50.24,0,0,1-79.85,52.58,52.1,52.1,0,0,1-4.09-3.67A50.24,50.24,0,0,1,75.11,17.84L75,18l.09-.13a12.74,12.74,0,0,1,.78-1.14c0-.05.09-.1.13-.16.28-.34.56-.69.88-1,7-7,20.58-4.67,30.39,5.14S119.4,44.09,112.43,51.06Z"/><path class="cls-1" d="M85,21.73c-4.57,4.25-2.5,11.49.68,15.89,3.4,4.7,9.4,8.72,15.44,7.94,5.23-.68,7.89-5.3,7.27-10.26-.67-5.27-4.25-10-8.6-12.91C95.56,19.61,89.08,17.92,85,21.73Z"/><path class="cls-1" d="M101.73,62.62a42.1,42.1,0,0,0-.85-5.36c-3.2,1.5-6.31,3.26-9.91,3.39.26-.07.52-.15.77-.24-3.67,1.19-8.57-1-11.69-2.84a27.4,27.4,0,0,1-8.69-8.15,22.65,22.65,0,0,1-3.94-9.91c-.57-4.63,1.37-8.32,3.27-12.39a40.15,40.15,0,0,0-26,75.49,40.15,40.15,0,0,0,57.06-40Zm-48.81-3C49,63.54,42.54,65.78,37.3,63.11c-4.75-2.43-6.23-8-4.83-12.94A16.39,16.39,0,0,1,44,39c4.61-1.14,9.73.28,12.19,4.57C59.22,48.86,57,55.56,52.92,59.6Z"/><rect class="cls-2" width="128" height="128"/></g></g></svg>