<svg xmlns="http://www.w3.org/2000/svg" viewBox="0 0 64 64"><defs><style>.cls-1{opacity:0;}.cls-2{fill:#fff;}.cls-3{fill:#96dbff;}.cls-4{fill:#fc9504;}.cls-5{fill:#fec92b;}.cls-6{fill:#fee854;}</style></defs><title>Potion 1 Yellow</title><g id="Layer_2" data-name="Layer 2"><g id="_101-200" data-name="101-200"><g class="cls-1"><rect class="cls-2" width="64" height="64"/></g><path class="cls-3" d="M49.43,14.57a26.13,26.13,0,0,0-6-4.47A30.66,30.66,0,0,1,15.71,53.75l-1.35,0A26.32,26.32,0,0,0,49.43,14.57Z"/><path class="cls-2" d="M46.37,23.09a30.51,30.51,0,0,0-2.89-13A26.32,26.32,0,0,0,12.21,51.79a26,26,0,0,0,2.15,1.93l1.35,0A30.66,30.66,0,0,0,46.37,23.09Z"/><circle class="cls-3" cx="30.82" cy="33.18" r="21.06"/><path class="cls-4" d="M51,27c-.14,1.23-2,2.46-5.48,3.43A30.72,30.72,0,0,1,23.22,52.82,21.06,21.06,0,0,0,51,27Z"/><path class="cls-5" d="M45.48,30.45l-.41.11c-7.87,2-20.63,2-28.49,0-3.79-1-5.75-2.26-5.9-3.54a21.07,21.07,0,0,0,12.54,25.8A30.72,30.72,0,0,0,45.48,30.45Z"/><path class="cls-6" d="M16.58,30.56c7.86,2,20.62,2,28.49,0,3.78-1,5.74-2.26,5.89-3.54-.13-.41-.26-.82-.41-1.22-.77-1-2.6-1.88-5.48-2.63-7.87-2-20.63-2-28.49,0-2.89.75-4.72,1.67-5.48,2.63-.15.4-.29.81-.42,1.22C10.83,28.3,12.79,29.58,16.58,30.56Z"/><path class="cls-3" d="M38.31,7.13a19.1,19.1,0,0,0-2.14,4.14c-.62,1.34-1.25,2.67-1.85,4a8.56,8.56,0,0,0,.32,6.85,14.32,14.32,0,0,0,5.64,6.41,10.14,10.14,0,0,0,7.1,1.56,6.6,6.6,0,0,0,1.55-.53c1.36-.61,2.71-1.25,4.07-1.87a16.33,16.33,0,0,0,4.11-2.22Z"/><path class="cls-2" d="M38.31,7.13a19.1,19.1,0,0,0-2.14,4.14c-.62,1.34-1.25,2.67-1.85,4a8.56,8.56,0,0,0,.32,6.85,9.89,9.89,0,0,0,.56,1.13l8.18-11.18Z"/><ellipse class="cls-2" cx="48.09" cy="15.92" rx="9.35" ry="13.16" transform="translate(2.83 38.66) rotate(-45)"/><ellipse class="cls-3" cx="48.46" cy="15.54" rx="5.61" ry="7.9" transform="translate(3.2 38.82) rotate(-45)"/><ellipse class="cls-2" cx="21.94" cy="25.42" rx="7.33" ry="6.05" transform="translate(-11.55 22.96) rotate(-45)"/></g></g></svg>