<svg xmlns="http://www.w3.org/2000/svg" viewBox="0 0 64 64"><defs><style>.cls-1{opacity:0;}.cls-2{fill:#1a1a1a;}.cls-3{fill:#96dbff;}.cls-4{fill:#fff;}.cls-5{fill:#0049c7;}.cls-6{fill:#1778ff;}.cls-7{fill:#37b9ff;}</style></defs><title>Potion 1 Blue Outline</title><g id="Layer_2" data-name="Layer 2"><g id="_101-200" data-name="101-200"><g class="cls-1"><rect class="cls-2" width="64" height="64"/></g><path class="cls-2" d="M63.29,17.15A20.2,20.2,0,0,0,57.53,6.48,19.18,19.18,0,0,0,44.32.5a11.78,11.78,0,0,0-7.94,2.88,30.62,30.62,0,0,0-5.57-.51A30.31,30.31,0,0,0,9.38,54.62a29,29,0,0,0,2.47,2.21,30.39,30.39,0,0,0,19,6.67h0a30.31,30.31,0,0,0,29.8-35.87A12.4,12.4,0,0,0,63.29,17.15Z"/><path class="cls-3" d="M49.43,14.57a26.13,26.13,0,0,0-6-4.47A30.66,30.66,0,0,1,15.71,53.75l-1.35,0A26.32,26.32,0,0,0,49.43,14.57Z"/><path class="cls-4" d="M46.37,23.09a30.51,30.51,0,0,0-2.89-13A26.32,26.32,0,0,0,12.21,51.79a26,26,0,0,0,2.15,1.93l1.35,0A30.66,30.66,0,0,0,46.37,23.09Z"/><circle class="cls-3" cx="30.82" cy="33.18" r="21.06"/><path class="cls-5" d="M51,27c-.14,1.23-2,2.46-5.48,3.43A30.72,30.72,0,0,1,23.22,52.82,21.06,21.06,0,0,0,51,27Z"/><path class="cls-6" d="M45.48,30.45l-.41.11c-7.87,2-20.63,2-28.49,0-3.79-1-5.75-2.26-5.89-3.54a21.05,21.05,0,0,0,12.53,25.8A30.72,30.72,0,0,0,45.48,30.45Z"/><path class="cls-7" d="M16.58,30.56c7.86,2,20.62,2,28.49,0,3.78-1,5.74-2.26,5.89-3.54-.13-.41-.26-.82-.41-1.22-.77-1-2.6-1.88-5.48-2.63-7.87-2-20.63-2-28.49,0-2.89.75-4.72,1.67-5.48,2.63-.15.4-.29.81-.41,1.22C10.83,28.3,12.79,29.58,16.58,30.56Z"/><path class="cls-3" d="M38.31,7.13a19.1,19.1,0,0,0-2.14,4.14c-.61,1.34-1.25,2.67-1.85,4a8.6,8.6,0,0,0,.32,6.85,14.32,14.32,0,0,0,5.64,6.41,10.14,10.14,0,0,0,7.1,1.56,6.45,6.45,0,0,0,1.55-.53c1.36-.61,2.71-1.25,4.07-1.87a16.33,16.33,0,0,0,4.11-2.22Z"/><path class="cls-4" d="M38.31,7.13a19.1,19.1,0,0,0-2.14,4.14c-.61,1.34-1.25,2.67-1.85,4a8.61,8.61,0,0,0,.32,6.85,9.89,9.89,0,0,0,.56,1.13l8.18-11.18Z"/><ellipse class="cls-4" cx="48.09" cy="15.92" rx="9.35" ry="13.16" transform="translate(2.83 38.66) rotate(-45)"/><ellipse class="cls-3" cx="48.46" cy="15.54" rx="5.61" ry="7.9" transform="translate(3.2 38.82) rotate(-45)"/><ellipse class="cls-4" cx="21.94" cy="25.42" rx="7.33" ry="6.05" transform="translate(-11.55 22.96) rotate(-45)"/></g></g></svg>