<svg xmlns="http://www.w3.org/2000/svg" viewBox="0 0 126.02 126"><defs><style>.cls-1{fill:#1a1a1a;}.cls-2{fill:#96dbff;}.cls-3{fill:#fff;}.cls-4{fill:#a72d3e;}.cls-5{fill:#e62e49;}.cls-6{fill:#ff6e83;}</style></defs><title>Potion Outline </title><g id="Layer_2" data-name="Layer 2"><g id="_1-13" data-name="1-13"><path class="cls-1" d="M114,11.94C106.45,4.35,96.84,0,87.67,0A23.48,23.48,0,0,0,71.78,5.79a60.94,60.94,0,0,0-11.2-1A60.62,60.62,0,0,0,17.73,108.24a63.34,63.34,0,0,0,4.94,4.43A60.76,60.76,0,0,0,60.61,126h0a60.62,60.62,0,0,0,59.58-71.81C129.87,43.5,127.28,25.19,114,11.94Z"/><path class="cls-2" d="M98,28.06A52.74,52.74,0,0,0,86,19.1a61.47,61.47,0,0,1-55.66,87.49c-.91,0-1.82,0-2.72-.06A52.76,52.76,0,0,0,98,28.06Z"/><path class="cls-3" d="M91.8,45.15A61.19,61.19,0,0,0,86,19.1a52.76,52.76,0,0,0-62.68,83.57,53.69,53.69,0,0,0,4.3,3.86c.9,0,1.81.06,2.72.06A61.44,61.44,0,0,0,91.8,45.15Z"/><circle class="cls-2" cx="60.64" cy="65.37" r="42.21"/><path class="cls-4" d="M101,53c-.28,2.48-3.94,4.94-11,6.88A61.54,61.54,0,0,1,45.4,104.73,42.22,42.22,0,0,0,101,53Z"/><path class="cls-5" d="M90,59.89l-.82.22c-15.77,4.08-41.34,4.08-57.11,0-7.59-2-11.52-4.52-11.81-7.1A42.24,42.24,0,0,0,45.4,104.73,61.54,61.54,0,0,0,90,59.89Z"/><path class="cls-6" d="M32.09,60.11c15.77,4.08,41.34,4.08,57.11,0,7.58-2,11.52-4.52,11.81-7.1-.25-.82-.53-1.63-.83-2.43-1.54-1.94-5.2-3.78-11-5.28-15.77-4.08-41.34-4.08-57.11,0-5.79,1.5-9.45,3.34-11,5.28-.3.8-.57,1.61-.82,2.43C20.57,55.59,24.5,58.14,32.09,60.11Z"/><path class="cls-2" d="M75.65,13.16c-1.94,2.39-3,5.51-4.28,8.28s-2.51,5.37-3.72,8.07c-2,4.37-1.21,9.45.64,13.73A28.72,28.72,0,0,0,79.61,56.08c4.17,2.54,9.33,4.14,14.22,3.14A13.7,13.7,0,0,0,97,58.15c2.73-1.22,5.43-2.5,8.14-3.75S111,52,113.33,50Z"/><path class="cls-3" d="M75.65,13.16c-1.94,2.39-3,5.51-4.28,8.28s-2.51,5.37-3.72,8.07c-2,4.37-1.21,9.45.64,13.73.34.77.71,1.52,1.12,2.26L85.83,23.09Z"/><ellipse class="cls-3" cx="95.25" cy="30.76" rx="18.74" ry="26.38" transform="translate(6.15 76.36) rotate(-45)"/><ellipse class="cls-2" cx="96" cy="30.01" rx="11.25" ry="15.83" transform="translate(6.89 76.67) rotate(-45)"/><ellipse class="cls-3" cx="42.84" cy="49.81" rx="14.7" ry="12.12" transform="translate(-22.67 44.88) rotate(-45)"/></g></g></svg>