<svg xmlns="http://www.w3.org/2000/svg" viewBox="0 0 128 128"><defs><style>.cls-1{fill:#96dbff;}.cls-2{fill:#fff;}.cls-3{fill:#a72d3e;}.cls-4{fill:#e62e49;}.cls-5{fill:#ff6e83;}.cls-6{fill:none;}</style></defs><title>Potion </title><g id="Layer_2" data-name="Layer 2"><g id="_1-13" data-name="1-13"><path class="cls-1" d="M99.49,28.51A53.41,53.41,0,0,0,87.37,19.4a62.43,62.43,0,0,1-56.54,88.88q-1.39,0-2.76-.06A53.59,53.59,0,0,0,99.49,28.51Z"/><path class="cls-2" d="M93.25,45.86A62.14,62.14,0,0,0,87.37,19.4a53.6,53.6,0,0,0-59.3,88.82q1.37.06,2.76.06A62.42,62.42,0,0,0,93.25,45.86Z"/><circle class="cls-1" cx="61.6" cy="66.4" r="42.88"/><path class="cls-3" d="M102.6,53.85c-.28,2.52-4,5-11.16,7A62.52,62.52,0,0,1,46.11,106.4,42.9,42.9,0,0,0,102.6,53.85Z"/><path class="cls-4" d="M91.44,60.84l-.84.22c-16,4.15-42,4.15-58,0-7.71-2-11.71-4.59-12-7.21A42.94,42.94,0,0,0,46.11,106.4,62.52,62.52,0,0,0,91.44,60.84Z"/><path class="cls-5" d="M32.59,61.06c16,4.15,42,4.15,58,0,7.71-2,11.71-4.59,12-7.21-.25-.83-.53-1.65-.84-2.47-1.56-2-5.28-3.83-11.16-5.36-16-4.15-42-4.15-58,0-5.88,1.53-9.6,3.4-11.16,5.36-.31.82-.58,1.64-.84,2.47C20.88,56.47,24.88,59.06,32.59,61.06Z"/><path class="cls-1" d="M76.85,13.36c-2,2.44-3.06,5.6-4.36,8.42s-2.55,5.45-3.77,8.2c-2,4.44-1.24,9.6.65,13.94a29.07,29.07,0,0,0,11.5,13c4.23,2.58,9.47,4.21,14.44,3.19a13.83,13.83,0,0,0,3.17-1.09c2.77-1.24,5.51-2.54,8.27-3.81s6-2.4,8.37-4.52Z"/><path class="cls-2" d="M76.85,13.36c-2,2.44-3.06,5.6-4.36,8.42s-2.55,5.45-3.77,8.2c-2,4.44-1.24,9.6.65,13.94a24.75,24.75,0,0,0,1.14,2.31L87.18,23.46Z"/><ellipse class="cls-2" cx="96.75" cy="31.25" rx="19.04" ry="26.8" transform="translate(6.24 77.57) rotate(-45)"/><ellipse class="cls-1" cx="97.51" cy="30.49" rx="11.42" ry="16.08" transform="translate(7 77.88) rotate(-45)"/><ellipse class="cls-2" cx="43.51" cy="50.6" rx="14.93" ry="12.32" transform="translate(-23.04 45.58) rotate(-45)"/><rect class="cls-6" width="128" height="128"/></g></g></svg>