<svg xmlns="http://www.w3.org/2000/svg" viewBox="0 0 64 64"><defs><style>.cls-1{opacity:0;}.cls-2{fill:#fff;}.cls-3{fill:#96dbff;}.cls-4{fill:#37b9ff;}.cls-5{fill:#cef;}</style></defs><title>Potion 1 White</title><g id="Layer_2" data-name="Layer 2"><g id="_101-200" data-name="101-200"><g class="cls-1"><rect class="cls-2" width="64" height="64"/></g><path class="cls-3" d="M49.43,14.57a26.19,26.19,0,0,0-6-4.47A30.66,30.66,0,0,1,15.71,53.75c-.46,0-.91,0-1.36,0A26.32,26.32,0,0,0,49.43,14.57Z"/><path class="cls-2" d="M46.36,23.09a30.51,30.51,0,0,0-2.89-13A26.32,26.32,0,0,0,12.2,51.79a27.74,27.74,0,0,0,2.15,1.93c.45,0,.9,0,1.36,0A30.66,30.66,0,0,0,46.36,23.09Z"/><circle class="cls-3" cx="30.81" cy="33.18" r="21.06"/><path class="cls-4" d="M51,27c-.14,1.23-2,2.46-5.48,3.43A30.7,30.7,0,0,1,23.21,52.82,21.06,21.06,0,0,0,51,27Z"/><path class="cls-5" d="M45.47,30.45l-.41.11c-7.87,2-20.62,2-28.49,0-3.79-1-5.75-2.26-5.89-3.54a21.08,21.08,0,0,0,12.53,25.8A30.7,30.7,0,0,0,45.47,30.45Z"/><path class="cls-2" d="M16.57,30.56c7.87,2,20.62,2,28.49,0,3.78-1,5.75-2.26,5.89-3.54-.12-.41-.26-.82-.41-1.22-.77-1-2.59-1.88-5.48-2.63-7.87-2-20.62-2-28.49,0-2.89.75-4.71,1.67-5.48,2.63-.15.4-.29.81-.41,1.22C10.82,28.3,12.78,29.58,16.57,30.56Z"/><path class="cls-3" d="M38.3,7.13a19.07,19.07,0,0,0-2.13,4.14c-.62,1.34-1.26,2.67-1.86,4a8.6,8.6,0,0,0,.32,6.85,14.34,14.34,0,0,0,5.65,6.41,10.12,10.12,0,0,0,7.09,1.56,6.68,6.68,0,0,0,1.56-.53c1.36-.61,2.71-1.25,4.06-1.87a16.16,16.16,0,0,0,4.11-2.22Z"/><path class="cls-2" d="M38.3,7.13a19.07,19.07,0,0,0-2.13,4.14c-.62,1.34-1.26,2.67-1.86,4a8.61,8.61,0,0,0,.32,6.85c.17.39.36.76.56,1.13l8.19-11.18Z"/><ellipse class="cls-2" cx="48.08" cy="15.92" rx="9.35" ry="13.16" transform="translate(2.83 38.66) rotate(-45)"/><ellipse class="cls-3" cx="48.45" cy="15.54" rx="5.61" ry="7.9" transform="translate(3.2 38.81) rotate(-45)"/><ellipse class="cls-2" cx="21.93" cy="25.42" rx="7.33" ry="6.05" transform="translate(-11.55 22.95) rotate(-45)"/></g></g></svg>