<svg xmlns="http://www.w3.org/2000/svg" viewBox="0 0 64 64"><defs><style>.cls-1{fill:none;}.cls-2{fill:#1a1a1a;}.cls-3{fill:#f2d8c2;}.cls-4{fill:#fff;}.cls-5{fill:#e3bb98;}</style></defs><title>Egg Outline</title><g id="Layer_2" data-name="Layer 2"><g id="Layer_2-2" data-name="Layer 2"><rect class="cls-1" width="64" height="64"/><path class="cls-2" d="M32,63.5A27.23,27.23,0,0,1,4.8,36.3C4.8,21.89,16.22.5,32,.5S59.2,21.89,59.2,36.3A27.23,27.23,0,0,1,32,63.5Z"/><path class="cls-3" d="M55.26,36.3a23.26,23.26,0,1,1-46.52,0C8.74,23.45,19.15,4.44,32,4.44S55.26,23.45,55.26,36.3Z"/><path class="cls-4" d="M29.66,11.27c1.82,1.83.88,5.12-1.73,7.72s-5.91,3.53-7.72,1.7-1.18-5.41,1.43-8S27.84,9.45,29.66,11.27Z"/><path class="cls-4" d="M18.29,23c1.59.67,2,2.53,1.28,4.28s-2.37,2.75-4,2.08A3.3,3.3,0,0,1,14.06,25,3.31,3.31,0,0,1,18.29,23Z"/><path class="cls-5" d="M39.67,6.71C45.92,13,50.08,23.4,50.08,31.31A22.11,22.11,0,0,1,10.22,44.5a23.27,23.27,0,0,0,45-8.2C55.26,26.14,48.75,12.12,39.67,6.71Z"/></g></g></svg>