<svg xmlns="http://www.w3.org/2000/svg" viewBox="0 0 64 64"><defs><style>.cls-1{fill:#1a1a1a;opacity:0;}.cls-2{fill:#fec92b;}.cls-3{fill:#fee854;}.cls-4{fill:#fc9504;}</style></defs><title>Egg Yellow</title><g id="Layer_2" data-name="Layer 2"><g id="Layer_3" data-name="Layer 3"><rect class="cls-1" width="64" height="64"/><g id="Layer_2-2" data-name="Layer 2-2"><path class="cls-2" d="M55.63,36.37a23.63,23.63,0,0,1-47.26,0C8.37,23.31,19,4,32,4S55.63,23.31,55.63,36.37Z"/><path class="cls-3" d="M29.62,10.94c1.85,1.85.9,5.2-1.76,7.84s-6,3.58-7.84,1.73-1.2-5.5,1.46-8.14S27.78,9.08,29.62,10.94Z"/><path class="cls-3" d="M18.07,22.89c1.62.68,2.06,2.57,1.31,4.36s-2.41,2.79-4,2.1a3.35,3.35,0,0,1-1.58-4.46A3.36,3.36,0,0,1,18.07,22.89Z"/><path class="cls-4" d="M39.79,6.3c6.35,6.42,10.57,17,10.57,25A22.45,22.45,0,0,1,9.88,44.69a23.63,23.63,0,0,0,45.75-8.32C55.63,26,49,11.8,39.79,6.3Z"/></g></g></g></svg>