<?xml version="1.0" encoding="UTF-8"?>
<svg id="Layer_2" data-name="Layer 2" xmlns="http://www.w3.org/2000/svg" viewBox="0 0 64 64">
  <defs>
    <style>
      .cls-1 {
        opacity: 0;
      }

      .cls-2 {
        fill: #fff;
        stroke-width: 0px;
      }
    </style>
  </defs>
  <g id="Exports_1" data-name="Exports 1">
    <g>
      <g class="cls-1">
        <rect class="cls-2" width="64" height="64"/>
      </g>
      <path class="cls-2" d="M54.5,9.5h-17v-2c0-1.66-1.34-3-3-3h-4c-1.66,0-3,1.34-3,3v2H9.5c-1.66,0-3,1.34-3,3v29c0,1.66,1.34,3,3,3h18v12c0,1.66,1.34,3,3,3h4c1.66,0,3-1.34,3-3v-12h17c1.66,0,3-1.34,3-3V12.5c0-1.66-1.34-3-3-3Z"/>
    </g>
  </g>
</svg>