<?xml version="1.0" encoding="UTF-8"?>
<svg id="Layer_2" data-name="Layer 2" xmlns="http://www.w3.org/2000/svg" viewBox="0 0 64 64">
  <defs>
    <style>
      .cls-1 {
        fill: #d1774b;
      }

      .cls-1, .cls-2, .cls-3, .cls-4, .cls-5, .cls-6 {
        stroke-width: 0px;
      }

      .cls-2, .cls-3 {
        fill: #1a1a1a;
      }

      .cls-3 {
        opacity: 0;
      }

      .cls-4 {
        fill: #eba969;
      }

      .cls-5 {
        fill: #de925a;
      }

      .cls-6 {
        fill: #bb5938;
      }
    </style>
  </defs>
  <g id="Exports_1" data-name="Exports 1">
    <g>
      <rect class="cls-3" width="64" height="64"/>
      <g>
        <path class="cls-2" d="M54.5,5.5h-13.29c-.86-2.89-3.54-5-6.71-5h-4c-3.17,0-5.85,2.11-6.71,5h-14.29c-3.86,0-7,3.14-7,7v29c0,3.86,3.14,7,7,7h14v8c0,3.86,3.14,7,7,7h4c3.86,0,7-3.14,7-7v-8h13c3.86,0,7-3.14,7-7V12.5c0-3.86-3.14-7-7-7Z"/>
        <rect class="cls-1" x="27.5" y="4.5" width="10" height="55" rx="3" ry="3"/>
        <rect class="cls-4" x="6.5" y="9.5" width="51" height="35" rx="3" ry="3"/>
        <g>
          <rect class="cls-5" x="6.5" y="18.5" width="51" height="3"/>
          <rect class="cls-5" x="6.5" y="30.5" width="51" height="3"/>
        </g>
        <path class="cls-5" d="M54.5,40.5H9.5c-1.66,0-3-1.34-3-3v4c0,1.66,1.34,3,3,3h45c1.66,0,3-1.34,3-3v-4c0,1.66-1.34,3-3,3Z"/>
        <g>
          <path class="cls-6" d="M14.66,24.18h0c1.51-.15,2.96-.14,4.38-.05.71.05,1.41.11,2.11.2.71.09,1.37.18,2.12.32.9.16,1.56.99,1.49,1.92-.07,1-.94,1.76-1.94,1.69h-.06c-.58-.05-1.25-.07-1.88-.08-.64,0-1.27,0-1.9.02-1.26.05-2.49.18-3.63.42-.08.02-.16.03-.24.04-1.23.13-2.34-.77-2.46-2.01s.77-2.34,2.01-2.46Z"/>
          <path class="cls-6" d="M15.01,34.2c3.68-.42,7.35-.59,11-.62,1.83-.01,3.65,0,5.47.05,1.83.05,3.63.13,5.49.27,1.02.07,1.8.95,1.75,1.97-.05,1.04-.93,1.85-1.98,1.8h-.03c-1.73-.08-3.53-.12-5.3-.13-1.78,0-3.55.02-5.32.08-3.54.12-7.07.38-10.53.85h-.03s-.03,0-.04,0c-1.18.13-2.25-.72-2.38-1.9-.13-1.18.72-2.25,1.9-2.38Z"/>
          <path class="cls-6" d="M15.07,15.85c3.69-.3,14.36-.36,18.02-.27,1.83.04,8.65.12,10.47.23,1.83.11,3.62.25,5.48.44,1.02.11,1.77,1,1.69,2.03-.08,1.04-.99,1.82-2.03,1.74h-.03c-1.73-.14-3.53-.23-5.3-.3-1.78-.06-8.55-.1-10.32-.09-3.55,0-14.08.15-17.56.51h-.03s-.03,0-.04,0c-1.19.1-2.22-.79-2.32-1.98-.1-1.19.79-2.22,1.98-2.32Z"/>
          <path class="cls-6" d="M51.79,28.64c-3.68.41-7.35.58-11,.6-1.83.01-3.65-.01-5.47-.07-1.83-.06-3.63-.14-5.49-.28-1.02-.08-1.8-.95-1.75-1.98.05-1.04.94-1.85,1.98-1.8h.03c1.73.09,3.53.13,5.3.14,1.78.01,3.55-.01,5.32-.07,3.54-.11,7.07-.36,10.54-.83h.03s.03,0,.04,0c1.18-.13,2.25.72,2.38,1.9.13,1.18-.72,2.25-1.9,2.38Z"/>
        </g>
      </g>
    </g>
  </g>
</svg>