<?xml version="1.0" encoding="UTF-8"?>
<svg id="Layer_2" data-name="Layer 2" xmlns="http://www.w3.org/2000/svg" viewBox="0 0 64 64">
  <defs>
    <style>
      .cls-1 {
        fill: #324652;
      }

      .cls-1, .cls-2, .cls-3, .cls-4, .cls-5, .cls-6, .cls-7 {
        stroke-width: 0px;
      }

      .cls-2 {
        fill: #f15a24;
      }

      .cls-3 {
        fill: #1a1a1a;
      }

      .cls-8 {
        opacity: 0;
      }

      .cls-4 {
        fill: #fc9504;
      }

      .cls-5 {
        fill: #476475;
      }

      .cls-6 {
        fill: #cef;
      }

      .cls-7 {
        fill: #fff;
      }
    </style>
  </defs>
  <g id="Exports_2" data-name="Exports 2">
    <g>
      <g class="cls-8">
        <rect class="cls-7" width="64" height="64"/>
      </g>
      <g>
        <path class="cls-4" d="M21.88,34.44c1.8,6.09-3.34,12.43-7.92,13.4s-6.84-3.78-8.64-9.87c-1.8-6.09-.71-11.56,3.86-12.54s10.9,2.92,12.7,9Z"/>
        <path class="cls-2" d="M21.88,34.44s-.02-.05-.03-.08c-2.4,2.25-8.77,7.24-16.13,4.93,1.74,5.44,4,9.46,8.24,8.55,4.57-.98,9.71-7.32,7.92-13.4Z"/>
        <path class="cls-4" d="M40.28,19.75s.81-10.86-1.95-12.3c-4.11-2.15-13.99,2.73-15.56,12.98-.43,2.83,5.47,4.4,5.47,4.4l12.04-5.08Z"/>
        <path class="cls-2" d="M35.25,47.9s-2.81,6.94-4.62,8.13c-2.7,1.78-8.49,1.6-7.01-3.5,1.15-3.93,7.08-6.76,7.08-6.76l4.55,2.13Z"/>
        <path class="cls-2" d="M38.06,42.6s-4.97,3.84-4.24,8.34c.53,3.24,3.53,8.1,6.99,4.07,2.67-3.11,1.66-9.7,1.66-9.7l-4.42-2.72Z"/>
        <path class="cls-4" d="M59.42,38.23c1.1-6.54-9-20.49-15.56-21.48-8.72-1.32-29.46,12.42-28.22,21.15,1.04,7.33,15.93,12.76,27.05,12.04,8.66-.56,15.88-6.68,16.73-11.72Z"/>
        <path class="cls-7" d="M39.41,22.4c.98-1.97,2.2-3.81,3.25-5.73-2.46-.01-5.61.89-8.88,2.38-.72,1-1.39,2.03-2.01,3.1-4.09,7.01-6.08,15.77-2.65,23.46.5,1.11,1.11,2.17,1.81,3.17,3.03.76,6.21,1.2,9.22,1.24-.35-.43-.71-.86-1.02-1.3-.59-.85-1.13-1.72-1.61-2.63-1.96-3.66-2.63-7.77-2.09-11.87.54-4.13,2.12-8.09,3.97-11.8Z"/>
        <path class="cls-7" d="M21.38,27.36c-3.73,3.53-6.18,7.37-5.73,10.55.43,3.05,3.27,5.77,7.23,7.86-.08-.08-.16-.15-.24-.23-.42-.43-.81-.88-1.18-1.36-1.47-1.91-2.26-4.2-2.34-6.61-.09-2.42.44-4.85,1.14-7.15.32-1.04.74-2.04,1.12-3.06Z"/>
        <path class="cls-2" d="M42.69,49.95c8.66-.56,15.88-6.68,16.73-11.72.33-1.93-.33-4.52-1.58-7.22.9,2.21,1.83,6.67-4.27,8.43-8.26,2.38-37.67,1.83-36.32-7.16-1.22,1.97-1.84,3.9-1.59,5.63,1.04,7.33,15.93,12.76,27.05,12.04Z"/>
        <path class="cls-6" d="M30.94,48.77c3.03.76,6.21,1.2,9.22,1.24-.35-.43-.71-.86-1.02-1.3-.59-.85-1.13-1.72-1.61-2.63-.95-1.78-1.6-3.66-1.95-5.6-2.8-.18-5.57-.51-8.08-1.01.22,2.09.74,4.15,1.63,6.14.5,1.11,1.11,2.17,1.81,3.17Z"/>
        <path class="cls-6" d="M15.64,37.91c.43,3.05,3.27,5.77,7.23,7.86-.08-.08-.16-.15-.24-.23-.42-.43-.81-.88-1.18-1.36-1.47-1.91-2.26-4.2-2.34-6.61-.02-.43,0-.85.02-1.28-1.4-1.09-2.13-2.42-1.89-4.01-1.22,1.97-1.84,3.9-1.59,5.63Z"/>
        <circle class="cls-7" cx="43.49" cy="36.39" r="5.73"/>
        <circle class="cls-3" cx="44.62" cy="36.39" r="3.05"/>
        <path class="cls-5" d="M8.71,37.02c-1.51-5.1-.99-9.78,1.92-11.73-.49,0-.98.05-1.44.15-4.57.98-5.66,6.45-3.86,12.54,1.8,6.09,4.07,10.84,8.64,9.87.71-.15,1.44-.44,2.15-.83-3.77-.06-5.78-4.48-7.41-10Z"/>
        <path class="cls-5" d="M24.95,22.96c1.47-9.64,10.3-14.53,14.77-13.29-.31-1.07-.75-1.9-1.39-2.23-4.11-2.15-13.99,2.73-15.56,12.98-.19,1.28.9,2.3,2.16,3.03-.02-.16-.02-.33.01-.5Z"/>
        <path class="cls-1" d="M9.64,39.89c-1.26,0-2.57-.17-3.91-.6,1.74,5.44,4,9.46,8.24,8.55.71-.15,1.44-.44,2.15-.83-3.08-.05-5-3.02-6.48-7.13Z"/>
      </g>
    </g>
  </g>
</svg>