<?xml version="1.0" encoding="UTF-8"?>
<svg id="Layer_2" data-name="Layer 2" xmlns="http://www.w3.org/2000/svg" viewBox="0 0 64 64">
  <defs>
    <style>
      .cls-1, .cls-2 {
        fill: #1a1a1a;
        stroke-width: 0px;
      }

      .cls-2 {
        opacity: 0;
      }
    </style>
  </defs>
  <g id="Exports_2" data-name="Exports 2">
    <g>
      <rect class="cls-2" width="64" height="64"/>
      <g>
        <path class="cls-1" d="M43.86,16.76c-1.01-.15-2.19-.1-3.47.13.03-3.32-.22-8.47-2.06-9.43-4.11-2.15-13.99,2.73-15.56,12.98-.23,1.51,1.35,2.66,2.87,3.41-2.46,1.79-4.71,3.78-6.45,5.8-2.76-3.17-6.82-4.88-10.02-4.19-4.57.98-5.66,6.45-3.86,12.54s4.07,10.84,8.64,9.87c2.05-.44,4.2-1.95,5.8-4.03,2.07,1.57,4.76,2.9,7.73,3.93-1.6,1.2-3.32,2.86-3.88,4.78-1.49,5.09,4.3,5.28,7.01,3.5.98-.65,2.25-2.98,3.22-4.98.57,3.24,3.54,7.96,6.97,3.97,1.13-1.32,1.6-3.26,1.77-5.07.04,0,.07,0,.11,0,8.66-.56,15.88-6.68,16.73-11.72,1.1-6.54-9-20.49-15.56-21.48ZM18.36,36.99c-.36-2.53,1.6-5.6,4.58-8.42-.3.81-.64,1.61-.89,2.44-.56,1.84-.98,3.78-.91,5.71.07,1.92.69,3.75,1.87,5.28.29.38.61.74.94,1.08.06.06.13.12.19.18-3.16-1.67-5.43-3.84-5.77-6.28ZM30.57,45.66c-.56-.8-1.04-1.64-1.44-2.53-2.75-6.14-1.15-13.14,2.11-18.73.5-.85,1.03-1.67,1.61-2.47,2.61-1.19,5.12-1.91,7.09-1.9-.84,1.53-1.82,3-2.6,4.57-1.48,2.96-2.74,6.13-3.17,9.43-.43,3.28.11,6.56,1.67,9.48.39.73.82,1.43,1.29,2.1.24.35.53.69.81,1.04-2.4-.04-4.94-.39-7.37-.99ZM43.49,42.12c-3.16,0-5.73-2.56-5.73-5.73s2.56-5.73,5.73-5.73,5.73,2.56,5.73,5.73-2.56,5.73-5.73,5.73Z"/>
        <circle class="cls-1" cx="44.61" cy="36.39" r="3.05"/>
      </g>
    </g>
  </g>
</svg>