<svg xmlns="http://www.w3.org/2000/svg" viewBox="0 0 64 64"><defs><style>.cls-1{fill:none;}.cls-2{fill:#1a1a1a;}</style></defs><title>Chest Flat Black</title><g id="Layer_2" data-name="Layer 2"><g id="Layer_2-2" data-name="Layer 2"><rect class="cls-1" width="64" height="64"/><path class="cls-2" d="M58,8.44H49.74a2,2,0,0,0-2,1.94l-.06,1.7H16.33l-.06-1.7a2,2,0,0,0-2-1.94H6a2,2,0,0,0-2,2.14L5.74,36H24.52l-.2-4.87a2,2,0,0,1,2-2.09h12a2,2,0,0,1,2,2.09L40.17,36H58.26L60,10.58A2,2,0,0,0,58,8.44Z"/><path class="cls-2" d="M39.88,43.32a2,2,0,0,1-2,1.93h-11a2,2,0,0,1-2-1.93l-.13-3.24H6L7,53.69a2,2,0,0,0,2,1.87h6.77a2,2,0,0,0,1.74-1H46.53a2,2,0,0,0,1.74,1H55a2,2,0,0,0,2-1.87L58,40.08H40Z"/><path class="cls-2" d="M30.39,38.7h.52L31,41a1,1,0,0,0,1,1h.68a1,1,0,0,0,1-1l.09-2.26h.52a1,1,0,0,0,1-1l.18-4.33a1,1,0,0,0-1-1H30.22a1,1,0,0,0-1,1l.17,4.33A1,1,0,0,0,30.39,38.7Z"/></g></g></svg>