<svg xmlns="http://www.w3.org/2000/svg" viewBox="0 0 64 64"><defs><style>.cls-1{opacity:0;}.cls-2{fill:#1a1a1a;}.cls-3{fill:#fff;}.cls-4{fill:#e6875c;}.cls-5{fill:#324652;}</style></defs><title>Eye Brown_1 Outline</title><g id="Layer_2" data-name="Layer 2"><g id="Layer_3" data-name="Layer 3"><g class="cls-1"><rect class="cls-2" width="64" height="64"/></g><path class="cls-2" d="M32,54.33A35,35,0,0,1,2.18,37.83a11,11,0,0,1,0-11.66,35.2,35.2,0,0,1,59.64,0,11,11,0,0,1,0,11.66A35,35,0,0,1,32,54.33Z"/><path class="cls-3" d="M58.44,28.3a31.21,31.21,0,0,0-52.88,0,7,7,0,0,0,0,7.4,31.21,31.21,0,0,0,52.88,0A7,7,0,0,0,58.44,28.3Z"/><circle class="cls-4" cx="32" cy="32" r="13.76"/><circle class="cls-5" cx="32" cy="32" r="6.49"/><circle class="cls-3" cx="36.57" cy="27.43" r="3.64"/></g></g></svg>