<?xml version="1.0" encoding="UTF-8"?>
<svg id="Layer_2" data-name="Layer 2" xmlns="http://www.w3.org/2000/svg" viewBox="0 0 64 64">
  <defs>
    <style>
      .cls-1 {
        fill: #7b97a6;
      }

      .cls-1, .cls-2, .cls-3, .cls-4, .cls-5 {
        stroke-width: 0px;
      }

      .cls-6 {
        opacity: 0;
      }

      .cls-2 {
        fill: #5d7c8c;
      }

      .cls-3 {
        fill: #476475;
      }

      .cls-4 {
        fill: #abc0c9;
      }

      .cls-5 {
        fill: #fff;
      }
    </style>
  </defs>
  <g id="Exports_1" data-name="Exports 1">
    <g>
      <g class="cls-6">
        <rect class="cls-5" width="64" height="64"/>
      </g>
      <g>
        <path class="cls-2" d="M6.69,18.85c-1.33,0-2.35,1.18-2.17,2.5,1.23,9.4,9.26,16.65,18.99,16.65v-19.16H6.69Z"/>
        <path class="cls-1" d="M49.41,44.57l-7.97-6.56h-14.67l-7.97,6.56c-.22.18-.4.41-.54.66h31.69c-.13-.25-.31-.47-.54-.66Z"/>
        <g>
          <path class="cls-3" d="M23.51,18.85v19.16h20.35c1.08,0,2-.79,2.16-1.86,1.08-7.17,5.61-13.21,11.85-16.38.41-.21.73-.53.94-.92H23.51Z"/>
          <path class="cls-4" d="M57.31,13.21H20.09c-1.21,0-2.19.98-2.19,2.19v3.45h40.92c.11-.2.19-.42.23-.65l.43-2.42c.24-1.34-.8-2.57-2.16-2.57Z"/>
        </g>
        <path class="cls-1" d="M16.02,23.26c0,1.52-1.78,2.75-3.98,2.75s-3.98-1.23-3.98-2.75,1.78-1.69,3.98-1.69,3.98.17,3.98,1.69Z"/>
        <path class="cls-2" d="M49.94,45.22h-10.44c-.92-2.44-2.99-4.15-5.4-4.15s-4.49,1.71-5.4,4.15h-10.44c-.17.32-.26.67-.26,1.03v2.34c0,1.21.98,2.19,2.19,2.19h8.83c.7,0,1.35-.34,1.77-.9.87-1.16,2.03-1.86,3.31-1.86s2.44.71,3.31,1.86c.42.56,1.07.9,1.77.9h8.83c1.21,0,2.19-.98,2.19-2.19v-2.34c0-.37-.09-.72-.26-1.03Z"/>
      </g>
    </g>
  </g>
</svg>