<?xml version="1.0" encoding="UTF-8"?>
<svg id="Layer_2" data-name="Layer 2" xmlns="http://www.w3.org/2000/svg" viewBox="0 0 64 64">
  <defs>
    <style>
      .cls-1 {
        fill: #7b97a6;
      }

      .cls-1, .cls-2, .cls-3, .cls-4, .cls-5, .cls-6 {
        stroke-width: 0px;
      }

      .cls-2, .cls-3 {
        fill: #1a1a1a;
      }

      .cls-3 {
        opacity: 0;
      }

      .cls-4 {
        fill: #5d7c8c;
      }

      .cls-5 {
        fill: #476475;
      }

      .cls-6 {
        fill: #abc0c9;
      }
    </style>
  </defs>
  <g id="Exports_1" data-name="Exports 1">
    <g>
      <rect class="cls-3" width="64" height="64"/>
      <g>
        <path class="cls-2" d="M62.05,11.42c-1.18-1.41-2.91-2.21-4.75-2.21H20.09c-3.23,0-5.89,2.48-6.17,5.64h-7.23c-1.78,0-3.47.77-4.65,2.1-1.18,1.34-1.73,3.14-1.49,4.92,1.2,9.18,7.75,16.56,16.26,19.14l-.56.46c-.62.51-1.13,1.14-1.52,1.86-.48.9-.74,1.91-.74,2.93v2.34c0,3.41,2.78,6.19,6.19,6.19h8.83c1.93,0,3.79-.93,4.96-2.49.04-.06.08-.1.12-.14.04.04.07.08.12.14,1.17,1.56,3.03,2.49,4.96,2.49h8.83c3.41,0,6.19-2.78,6.19-6.19v-2.34c0-1.01-.26-2.03-.74-2.93-.39-.72-.9-1.34-1.52-1.85l-2.85-2.35c.44-.71.75-1.51.88-2.39.87-5.75,4.5-10.76,9.7-13.41,1.14-.58,2.05-1.48,2.66-2.6.31-.58.53-1.2.64-1.84l.43-2.42c.32-1.81-.17-3.65-1.35-5.06Z"/>
        <path class="cls-4" d="M6.69,18.85c-1.33,0-2.35,1.18-2.17,2.5,1.23,9.4,9.26,16.65,18.99,16.65v-19.16H6.69Z"/>
        <path class="cls-1" d="M49.41,44.57l-7.97-6.56h-14.67l-7.97,6.56c-.22.18-.4.41-.54.66h31.69c-.13-.25-.31-.47-.54-.66Z"/>
        <g>
          <path class="cls-5" d="M23.51,18.85v19.16h20.35c1.08,0,2-.79,2.16-1.86,1.08-7.17,5.61-13.21,11.85-16.38.41-.21.73-.53.94-.92H23.51Z"/>
          <path class="cls-6" d="M57.31,13.21H20.09c-1.21,0-2.19.98-2.19,2.19v3.45h40.92c.11-.2.19-.42.23-.65l.43-2.42c.24-1.34-.8-2.57-2.16-2.57Z"/>
        </g>
        <path class="cls-1" d="M16.02,23.26c0,1.52-1.78,2.75-3.98,2.75s-3.98-1.23-3.98-2.75,1.78-1.69,3.98-1.69,3.98.17,3.98,1.69Z"/>
        <path class="cls-4" d="M49.94,45.22h-10.44c-.92-2.44-2.99-4.15-5.4-4.15s-4.49,1.71-5.4,4.15h-10.44c-.17.32-.26.67-.26,1.03v2.34c0,1.21.98,2.19,2.19,2.19h8.83c.7,0,1.35-.34,1.77-.9.87-1.16,2.03-1.86,3.31-1.86s2.44.71,3.31,1.86c.42.56,1.07.9,1.77.9h8.83c1.21,0,2.19-.98,2.19-2.19v-2.34c0-.37-.09-.72-.26-1.03Z"/>
      </g>
    </g>
  </g>
</svg>