<?xml version="1.0" encoding="UTF-8"?>
<svg id="Layer_2" data-name="Layer 2" xmlns="http://www.w3.org/2000/svg" viewBox="0 0 64 64">
  <defs>
    <style>
      .cls-1, .cls-2 {
        fill: #1a1a1a;
        stroke-width: 0px;
      }

      .cls-2 {
        opacity: 0;
      }
    </style>
  </defs>
  <g id="Exports_1" data-name="Exports 1">
    <g>
      <rect class="cls-2" width="64" height="64"/>
      <path class="cls-1" d="M57.31,13.21H20.09c-1.21,0-2.19.98-2.19,2.19v3.45H6.69c-1.33,0-2.35,1.18-2.17,2.5,1.23,9.4,9.26,16.65,18.99,16.65h3.25l-7.97,6.56c-.22.18-.4.41-.54.66h0c-.17.32-.26.67-.26,1.03v2.34c0,1.21.98,2.19,2.19,2.19h8.83c.7,0,1.35-.34,1.77-.9.87-1.16,2.03-1.86,3.31-1.86s2.44.71,3.31,1.86c.42.56,1.07.9,1.77.9h8.83c1.21,0,2.19-.98,2.19-2.19v-2.34c0-.37-.09-.72-.26-1.03h0c-.13-.25-.31-.47-.54-.66l-7.97-6.56h2.42c1.08,0,2-.79,2.16-1.86,1.08-7.17,5.61-13.21,11.85-16.38.41-.21.73-.53.94-.92.11-.2.19-.42.23-.65l.43-2.42c.24-1.34-.8-2.57-2.16-2.57Z"/>
    </g>
  </g>
</svg>