<svg xmlns="http://www.w3.org/2000/svg" viewBox="0 0 64 64"><defs><style>.cls-1,.cls-2{fill:#1a1a1a;}.cls-1{opacity:0;}</style></defs><title>Globe Black</title><g id="Layer_2" data-name="Layer 2"><g id="Finals"><rect class="cls-1" width="64" height="64"/><path class="cls-2" d="M63.38,29.32A31.68,31.68,0,0,0,32,.5c-.82,0-1.66,0-2.46.1h-.25A31.5,31.5,0,0,0,32,63.5h0c.9,0,1.81,0,2.71-.12a31.49,31.49,0,0,0,28.7-34.06ZM29.66,4.6h.2a27.16,27.16,0,0,1,6.52.26.64.64,0,0,0,0,.07c-.08.27-.15.53-.22.79,0,.08,0,.16-.07.25a9.14,9.14,0,0,1-.63,1.79A3.59,3.59,0,0,1,32.55,9.8a3.55,3.55,0,0,1-3.42-1.94,13.9,13.9,0,0,1-.84-2q-.13-.39-.3-.81c0-.09-.06-.17-.08-.25C28.49,4.72,29.07,4.65,29.66,4.6Zm7,31.81c-.67.66-1.32,1.33-2,2S33.55,39.51,33,40.06c-1.29,1.29-1.28,2.23-.86,3.24a3,3,0,0,1,0,2.63,2.75,2.75,0,0,1-1.93,1.43c-.27.06-1,.25-1.13,2.14a4.33,4.33,0,0,0,0,.52,9.7,9.7,0,0,1-.25,2.07c0,.13-.05.25-.08.37A3,3,0,0,1,28,53.88l-.15.19a2.41,2.41,0,0,1-1.73,1h-.35a2.42,2.42,0,0,1-1.95-1.22c-.06-.11-.16-.25-.25-.39a4.67,4.67,0,0,1-.9-2,7.89,7.89,0,0,0-1-2.82A6.89,6.89,0,0,0,20.47,47a6,6,0,0,1-1.85-4.92,3.93,3.93,0,0,0-1.79-3.72,6.74,6.74,0,0,1-2.81-6,1.9,1.9,0,0,0-1.14-1.94,51.53,51.53,0,0,1-4.44-3.22c-.26-.19-.51-.39-.76-.59a7.65,7.65,0,0,1-1.9-2.12c.06-.47.15-.92.23-1.38A27.56,27.56,0,0,1,24,5.67c.21.45.43.9.64,1.34.76,1.61,1.55,3.28,2.28,5a6,6,0,0,1,.42,2.41v.23a3.31,3.31,0,0,1-3,3.49,5.12,5.12,0,0,0-3.24,1.52,4.35,4.35,0,0,1-2.74,1.15l-.52,0a9.67,9.67,0,0,0-1,0,4.12,4.12,0,0,0-2.6,1,.75.75,0,0,0-.28.41s.07.2.36.43a10.69,10.69,0,0,0,6.35,2.09h.08a15.09,15.09,0,0,1,1.7.11,4.78,4.78,0,0,1,3.63,2.42l.38.7a10.46,10.46,0,0,0,.92,1.53c.2.25.5.54.78.52a1.84,1.84,0,0,0,.83-.42l.18-.15a4.53,4.53,0,0,1,2.53-1.19,4,4,0,0,1,1.59.21,6.51,6.51,0,0,1,4.19,3.46A4,4,0,0,1,36.62,36.41Zm1.87-23.12-.33-.35-.31-.33a2.41,2.41,0,0,1-.1-3.18l.77-.92c.28-.35.56-.67.84-1,.44-.54.89-1.07,1.33-1.6a27.69,27.69,0,0,1,10.37,6.28,3.18,3.18,0,0,1-2.16,1.3h-.11a5.6,5.6,0,0,1-2.08-.24,3.82,3.82,0,0,0-.85-.13,2.54,2.54,0,0,0-.39,0,2.76,2.76,0,0,0-1.34.5l-.44.26-.18.11a3.93,3.93,0,0,1-1.9.71A3.6,3.6,0,0,1,38.49,13.29ZM54.26,48.14,54,48a5.17,5.17,0,0,1-2.88-6c.12-.54.25-1,.39-1.55l.24-1a5.84,5.84,0,0,0,0-3.46A1.81,1.81,0,0,0,50.63,35a5.57,5.57,0,0,0-.7-.25l-.56-.2-.4-.14L45.67,33l-1.37-.58a3.89,3.89,0,0,1-2.4-4.28,10.68,10.68,0,0,1,1.84-5.1,5.65,5.65,0,0,1,4.13-2.46,6.08,6.08,0,0,1,1.92.17,1.13,1.13,0,0,1,.18,0l.87.24a10.54,10.54,0,0,0,2.39.5A14.76,14.76,0,0,0,55,21.47h0l1.52-.16.75-.08a27.53,27.53,0,0,1-3.05,26.91Z"/></g></g></svg>