<svg xmlns="http://www.w3.org/2000/svg" viewBox="0 0 64 64"><defs><style>.cls-1{fill:#1a1a1a;opacity:0;}.cls-2{fill:#abc0c9;}.cls-3{fill:#d3dee3;}.cls-4{fill:#7b97a6;}.cls-5{fill:#fc9504;}.cls-6{fill:#fec92b;}.cls-7{fill:#fff;}</style></defs><title>PVP 2</title><g id="Layer_2" data-name="Layer 2"><g id="Layer_3" data-name="Layer 3"><rect class="cls-1" width="64" height="64"/><path class="cls-2" d="M5.43,7.29l-1,12.43a2,2,0,0,0,.75,1.72L39.12,48.5l4.68-4.68,4.68-4.68L21.42,5.23a2,2,0,0,0-1.72-.74l-12.43,1A2,2,0,0,0,5.43,7.29Z"/><path class="cls-3" d="M17.71,10.36l2.92-5.72a2,2,0,0,0-.93-.15l-12.43,1A2,2,0,0,0,6,6l4.85,4.85Z"/><path class="cls-4" d="M10.34,17.73,4.62,20.65a2.08,2.08,0,0,0,.6.79L39.12,48.5h0l1.93-1.93L43,44.65Z"/><rect class="cls-5" x="44.16" y="43.46" width="8.06" height="9.49" transform="translate(-19.97 48.19) rotate(-45)"/><path class="cls-6" d="M34.58,51.06,51,34.6a1,1,0,0,1,1.58.23L54.76,38a3,3,0,0,1-.52,3.52L41.46,54.25a3,3,0,0,1-3.52.53l-3.13-2.14A1,1,0,0,1,34.58,51.06Z"/><path class="cls-6" d="M47.1,54.54l3.72-3.71,3.71-3.7A1,1,0,0,1,55.77,47l2.81,2.15a2,2,0,0,1,.7,2.59,17.63,17.63,0,0,1-7.56,7.56h0a2,2,0,0,1-2.59-.7L47,55.78A1,1,0,0,1,47.1,54.54Z"/><path class="cls-3" d="M56.73,5.45l-12.43-1a2,2,0,0,0-1.72.74L15.52,39.14l4.68,4.68,4.68,4.68,33.9-27.06a2,2,0,0,0,.75-1.72l-1-12.43A2,2,0,0,0,56.73,5.45Z"/><path class="cls-2" d="M59.38,20.65l-5.72-2.92L21,44.65l3.86,3.85h0l33.9-27.06A2.08,2.08,0,0,0,59.38,20.65Z"/><path class="cls-7" d="M53.13,10.88,58,6a2,2,0,0,0-1.26-.58l-12.43-1a2,2,0,0,0-.93.15l2.92,5.72Z"/><rect class="cls-5" x="11.07" y="44.17" width="9.49" height="8.06" transform="translate(-29.45 25.3) rotate(-45)"/><path class="cls-6" d="M29.42,51.06,13,34.6a1,1,0,0,0-1.58.23L9.24,38a3,3,0,0,0,.52,3.52L22.54,54.25a3,3,0,0,0,3.52.53l3.13-2.14A1,1,0,0,0,29.42,51.06Z"/><path class="cls-6" d="M16.9,54.54l-3.72-3.71-3.71-3.7A1,1,0,0,0,8.23,47L5.42,49.15a2,2,0,0,0-.7,2.59,17.58,17.58,0,0,0,7.56,7.56h0a2,2,0,0,0,2.59-.7L17,55.78A1,1,0,0,0,16.9,54.54Z"/></g></g></svg>