<svg xmlns="http://www.w3.org/2000/svg" viewBox="0 0 64 64"><defs><style>.cls-1{fill:#1a1a1a;opacity:0;}.cls-2{fill:#fff;}</style></defs><title>PVP 2 Flat White</title><g id="Layer_2" data-name="Layer 2"><g id="Layer_3" data-name="Layer 3"><rect class="cls-1" width="64" height="64"/><path class="cls-2" d="M58.58,49.15,55.77,47a1,1,0,0,0-1.24.13l-.86.86-3-3,3.54-3.53A3,3,0,0,0,54.76,38l-2.14-3.13A1,1,0,0,0,51,34.6L47.6,38l-3.75-4.69L58.78,21.44a2,2,0,0,0,.75-1.72l-1-12.43a2,2,0,0,0-1.84-1.84l-12.43-1a2,2,0,0,0-1.72.74L32,18.5,21.42,5.23a2,2,0,0,0-1.72-.74l-12.43,1A2,2,0,0,0,5.43,7.29l-1,12.43a2,2,0,0,0,.75,1.72L20.15,33.35,16.4,38,13,34.6a1,1,0,0,0-1.58.23L9.24,38a3,3,0,0,0,.52,3.52L13.3,45l-3,3-.86-.86A1,1,0,0,0,8.23,47L5.42,49.15a2,2,0,0,0-.7,2.59,17.63,17.63,0,0,0,7.56,7.56h0a2,2,0,0,0,2.59-.7L17,55.78a1,1,0,0,0-.13-1.24L16,53.68l3-3,3.54,3.54a3,3,0,0,0,3.52.53l3.13-2.14a1,1,0,0,0,.23-1.58L26,47.62l6-4.81,6,4.81-3.44,3.44a1,1,0,0,0,.23,1.58l3.13,2.14a3,3,0,0,0,3.52-.53L45,50.71l3,3-.86.86A1,1,0,0,0,47,55.78l2.16,2.82a2,2,0,0,0,2.59.7h0a17.63,17.63,0,0,0,7.56-7.56A2,2,0,0,0,58.58,49.15Z"/></g></g></svg>