<svg xmlns="http://www.w3.org/2000/svg" viewBox="0 0 128 128"><defs><style>.cls-1{fill:none;}.cls-2{fill:#de8f66;}.cls-3{fill:#fdbc0d;}.cls-4{fill:#fc9504;}.cls-5{fill:#fee226;}.cls-6{fill:#91aab8;}.cls-7{fill:#c6d5de;}.cls-8{fill:#ef5f60;}.cls-9{fill:#ff8f91;}.cls-10{fill:#666;}</style></defs><title>Pencil </title><g id="Layer_2" data-name="Layer 2"><g id="_14-25" data-name="14-25"><rect class="cls-1" width="128" height="128"/><path class="cls-2" d="M36,92,20.64,69.57C13,79.35,9.2,106.73,8,116.69A3,3,0,0,0,11.31,120c10-1.18,37.34-5,47.12-12.62Z"/><path class="cls-3" d="M32.37,95.63a57.21,57.21,0,0,0,11.33,8.91L92.44,57.68,70.32,35.56,23.46,84.3A57.21,57.21,0,0,0,32.37,95.63Z"/><path class="cls-4" d="M92.47,57.71,43.74,104.56c6.12,3.58,11.65,4.78,14.69,2.8L101.79,67Z"/><path class="cls-5" d="M23.46,84.3,70.32,35.56,61,26.21,20.64,69.57C18.66,72.62,19.87,78.16,23.46,84.3Z"/><path class="cls-6" d="M67.51,19.18,52.23,35.6c-2.09,2.26,5.15,13,16.16,24s21.75,18.25,24,16.16l16.42-15.28Z"/><path class="cls-7" d="M67.51,19.18,52.23,35.6C50.89,37,53.37,42,58.2,48.17h0L77,28.64Z"/><path class="cls-8" d="M102,26C90.32,14.31,79.41,6.38,77.65,8.28L67.51,19.18c-1.87,2,5.82,12.82,17.15,24.16s22.15,19,24.16,17.15l10.9-10.14C121.62,48.59,113.69,37.68,102,26Z"/><path class="cls-9" d="M119.72,50.35C117.84,52.1,107,44.15,95.4,32.6S75.9,10.16,77.65,8.28,90.32,14.31,102,26,121.62,48.59,119.72,50.35Z"/><path class="cls-10" d="M15.69,112.31a29.18,29.18,0,0,1-5.85-8.4C9,109.11,8.38,113.69,8,116.69A3,3,0,0,0,11.31,120c3-.36,7.58-1,12.78-1.82A29.18,29.18,0,0,1,15.69,112.31Z"/></g></g></svg>