<svg xmlns="http://www.w3.org/2000/svg" viewBox="0 0 64 64"><defs><style>.cls-1{fill:#fff;opacity:0;}.cls-2{fill:#fc9504;}.cls-3{fill:#a72d3e;}.cls-4{fill:#e62e49;}.cls-5{fill:#f15a24;}.cls-6{fill:#fee854;}.cls-7{fill:#fec92b;}</style></defs><title>Crystal</title><g id="Layer_2" data-name="Layer 2"><g id="Layer_2-2" data-name="Layer 2"><rect class="cls-1" width="64" height="64"/><polygon class="cls-2" points="33.18 54.05 24.74 47.16 33.18 34.17 45.02 43.75 33.18 54.05"/><polygon class="cls-2" points="33.18 34.17 26.84 24.02 39.04 17.21 33.18 34.17"/><polygon class="cls-3" points="26.84 24.02 10.36 22.48 14.85 44.43 26.84 24.02"/><polygon class="cls-3" points="39.04 17.21 33.9 4.5 53.64 22.71 39.04 17.21"/><polygon class="cls-4" points="26.84 24.02 10.36 22.48 33.9 4.5 39.04 17.21 26.84 24.02"/><polygon class="cls-5" points="24.74 47.16 14.85 44.43 26.84 24.02 33.18 34.17 24.74 47.16"/><polygon class="cls-5" points="50.05 47.82 33.18 34.17 39.04 17.21 53.64 22.71 50.05 47.82"/><polygon class="cls-6" points="33.18 54.05 33.18 59.5 50.05 47.82 45.02 43.75 33.18 54.05"/><polygon class="cls-7" points="33.18 54.05 24.74 47.16 14.85 44.43 33.18 59.5 33.18 54.05"/><polygon class="cls-7" points="45.02 43.75 51.85 35.27 50.05 47.82 45.02 43.75"/><polygon class="cls-4" points="34.88 29.26 52.83 28.42 53.64 22.71 39.04 17.21 34.88 29.26"/><polygon class="cls-7" points="24.74 47.16 31.83 34.17 26.84 24.02 32.8 32.11 38.12 19.88 34.31 34.03 39.04 38.91 33.21 35.91 24.74 47.16"/><polygon class="cls-4" points="47.67 17.21 35.54 8.55 33.9 4.5 47.67 17.21"/><polygon class="cls-2" points="35.54 8.55 13.94 22.81 10.36 22.48 33.9 4.5 35.54 8.55"/><polygon class="cls-4" points="13.94 22.81 13.52 37.91 10.36 22.48 13.94 22.81"/></g></g></svg>