<?xml version="1.0" encoding="UTF-8"?>
<svg id="Layer_2" data-name="Layer 2" xmlns="http://www.w3.org/2000/svg" viewBox="0 0 64 64">
  <defs>
    <style>
      .cls-1 {
        fill: #fff;
      }

      .cls-2 {
        fill: #7b97a6;
      }

      .cls-3 {
        fill: #1a1a1a;
        opacity: 0;
      }
    </style>
  </defs>
  <g id="No_outline" data-name="No outline">
    <g id="Copyright_Sign" data-name="Copyright Sign">
      <rect class="cls-3" width="64" height="64"/>
      <g>
        <path class="cls-2" d="M54.47,29.39c0-5.57-2.04-11.04-6.18-15.18-8.56-8.56-22.84-8.22-31.82,.76-4.73,4.73-7.06,10.92-6.96,16.98h0s.03,2.21,.03,2.21c0,.49,0,.97,.02,1.46v.07s0,0,0,0c.25,5.19,2.28,10.23,6.15,14.1,8.56,8.56,22.84,8.22,31.83-.76,4.64-4.64,6.96-10.69,6.96-16.63h0s-.02-3.02-.02-3.02h0Zm-22.47,17.24c-8.38,0-15.28-6.43-16.04-14.62,.76-8.18,7.66-14.62,16.04-14.62s15.28,6.43,16.04,14.62c-.76,8.18-7.66,14.62-16.04,14.62Z"/>
        <path class="cls-2" d="M38.99,36.82c-.17-1.18-.49-2.12-.95-2.83-.29-.43-.62-.74-.99-.91-.39-.18-.8-.2-1.21-.06-.74,.17-1.61,.26-2.62,.29-1.01,.02-1.82-.2-2.43-.69-.15-.12-.27-.27-.37-.42,.15-.24,.33-.46,.56-.67,.84-.77,1.78-1.26,2.81-1.47,.4-.07,.82-.12,1.25-.15,.43-.03,.86-.05,1.29-.07,.33,0,.63-.14,.88-.4,.47-.47,.69-1.15,.68-2h.02s0-2.99,0-2.99h0c0-.37-.04-.77-.13-1.22-.31-1.46-.7-2.49-1.17-3.08-.48-.59-1.04-.92-1.66-.99-3.77-.4-6.93,.43-9.46,2.5s-3.99,4.95-4.38,8.63c-.05,.49-.06,.97-.05,1.44h0s0,2.72,0,2.72h0c0,1.86,.45,3.55,1.36,5.06,1.1,1.82,2.69,3.19,4.76,4.13,1.53,.7,3.27,1.05,5.2,1.07s3.71-.27,5.32-.86c.5-.12,.87-.49,1.12-1.12,.2-.49,.28-1.08,.28-1.75h.01s0-3.01,0-3.01h-.01c0-.36-.02-.74-.08-1.16Z"/>
        <g>
          <path class="cls-1" d="M38.04,33.99c-.29-.43-.62-.74-.99-.91-.39-.18-.8-.2-1.21-.06-.74,.17-1.61,.26-2.62,.29s-1.82-.2-2.43-.69c-.38-.29-.63-.7-.74-1.22-.23-1.14,.08-2.09,.92-2.87s1.78-1.26,2.81-1.47c.4-.07,.82-.12,1.25-.15s.86-.05,1.29-.07c.33,0,.63-.14,.88-.4,.68-.68,.86-1.75,.55-3.21-.31-1.46-.7-2.49-1.17-3.08-.48-.59-1.04-.92-1.67-.99-3.77-.4-6.93,.43-9.46,2.5-2.53,2.07-3.99,4.95-4.38,8.63-.23,2.33,.21,4.4,1.31,6.22,1.1,1.82,2.69,3.19,4.76,4.13,1.53,.7,3.27,1.05,5.2,1.07s3.71-.27,5.32-.86c.5-.12,.87-.49,1.12-1.12,.3-.77,.37-1.74,.2-2.92-.17-1.18-.49-2.12-.95-2.83Z"/>
          <path class="cls-1" d="M48.29,14.21c-8.56-8.56-22.84-8.22-31.83,.76-8.98,8.98-9.33,23.26-.76,31.83,8.56,8.56,22.84,8.22,31.83-.76,8.98-8.98,9.33-23.26,.76-31.83ZM32,46.62c-8.89,0-16.11-7.23-16.11-16.12S23.11,14.38,32,14.38s16.12,7.23,16.12,16.12-7.23,16.12-16.12,16.12Z"/>
        </g>
      </g>
    </g>
  </g>
</svg>