<?xml version="1.0" encoding="UTF-8"?>
<svg id="Layer_2" data-name="Layer 2" xmlns="http://www.w3.org/2000/svg" viewBox="0 0 64 64">
  <defs>
    <style>
      .cls-1, .cls-2 {
        fill: #fff;
      }

      .cls-2 {
        opacity: 0;
      }
    </style>
  </defs>
  <g id="White">
    <g id="Copyright_Sign_Flat_White" data-name="Copyright Sign Flat White">
      <rect class="cls-2" width="64" height="64"/>
      <g>
        <path class="cls-1" d="M38.04,35.49c-.29-.43-.62-.74-.99-.91-.39-.18-.8-.2-1.21-.06-.74,.17-1.61,.26-2.62,.29s-1.82-.2-2.43-.69c-.38-.29-.63-.7-.74-1.22-.23-1.14,.08-2.09,.92-2.87s1.78-1.26,2.81-1.47c.4-.07,.82-.12,1.25-.15s.86-.05,1.29-.07c.33,0,.63-.14,.88-.4,.68-.68,.86-1.75,.55-3.21-.31-1.46-.7-2.49-1.17-3.08-.48-.59-1.04-.92-1.67-.99-3.77-.4-6.93,.43-9.46,2.5-2.53,2.07-3.99,4.95-4.38,8.63-.23,2.33,.21,4.4,1.31,6.22,1.1,1.82,2.69,3.19,4.76,4.13,1.53,.7,3.27,1.05,5.2,1.07s3.71-.27,5.32-.86c.5-.12,.87-.49,1.12-1.12,.3-.77,.37-1.74,.2-2.92-.17-1.18-.49-2.12-.95-2.83Z"/>
        <path class="cls-1" d="M48.29,15.71c-8.56-8.56-22.84-8.22-31.83,.76-8.98,8.98-9.33,23.26-.76,31.83,8.56,8.56,22.84,8.22,31.83-.76,8.98-8.98,9.33-23.26,.76-31.83ZM32,48.12c-8.89,0-16.11-7.23-16.11-16.12S23.11,15.88,32,15.88s16.12,7.23,16.12,16.12-7.23,16.12-16.12,16.12Z"/>
      </g>
    </g>
  </g>
</svg>