<?xml version="1.0" encoding="UTF-8"?>
<svg id="Layer_2" data-name="Layer 2" xmlns="http://www.w3.org/2000/svg" viewBox="0 0 64 64">
  <defs>
    <style>
      .cls-1 {
        fill: #fec92b;
      }

      .cls-1, .cls-2, .cls-3, .cls-4, .cls-5, .cls-6, .cls-7 {
        stroke-width: 0px;
      }

      .cls-2, .cls-3 {
        fill: #1a1a1a;
      }

      .cls-3 {
        opacity: 0;
      }

      .cls-4 {
        fill: #e62e49;
      }

      .cls-5 {
        fill: #39b54a;
      }

      .cls-6 {
        fill: #fff;
      }

      .cls-7 {
        fill: #96dbff;
      }
    </style>
  </defs>
  <g id="Exports_2" data-name="Exports 2">
    <g>
      <rect class="cls-3" width="64" height="64"/>
      <g>
        <path class="cls-2" d="M12.99,18.57c5.52-4.16,12.09-6.36,19.01-6.36,6.92,0,13.49,2.2,19.01,6.36,7.21,5.44,11.76,13.71,12.47,22.69.13,1.67-.45,3.33-1.59,4.57-1.15,1.25-2.79,1.97-4.49,1.97h-18.51c-1.42,2.46-4.06,4-6.95,4-1.1,0-2.17-.22-3.18-.66-.85-.37-3.64-1.67-6.87-3.34H6.59c-1.7,0-3.33-.72-4.49-1.96-1.14-1.24-1.72-2.9-1.59-4.57.71-8.97,5.26-17.24,12.47-22.69Z"/>
        <g>
          <g>
            <path class="cls-4" d="M48.6,21.76l-16.6,22.03h25.41c1.2,0,2.18-1.02,2.09-2.22-.64-8.09-4.78-15.19-10.9-19.81Z"/>
            <path class="cls-5" d="M6.59,43.79h25.41L15.4,21.76c-6.12,4.62-10.25,11.72-10.9,19.81-.1,1.2.88,2.22,2.09,2.22Z"/>
            <path class="cls-1" d="M32,16.21c-6.23,0-11.98,2.07-16.6,5.55l16.6,22.03,16.6-22.03c-4.62-3.49-10.37-5.55-16.6-5.55Z"/>
          </g>
          <g>
            <path class="cls-6" d="M33.55,40.07c2.04.88,2.98,3.25,2.1,5.29-.88,2.04-3.25,2.98-5.29,2.1s-20.36-9.53-19.03-12.61,20.18,4.34,22.22,5.22Z"/>
            <circle class="cls-7" cx="31.95" cy="43.77" r="1.85"/>
          </g>
        </g>
      </g>
    </g>
  </g>
</svg>