<?xml version="1.0" encoding="UTF-8"?>
<svg id="Layer_2" data-name="Layer 2" xmlns="http://www.w3.org/2000/svg" viewBox="0 0 64 64">
  <defs>
    <style>
      .cls-1 {
        fill: #fec92b;
      }

      .cls-1, .cls-2, .cls-3, .cls-4, .cls-5, .cls-6, .cls-7 {
        stroke-width: 0px;
      }

      .cls-2, .cls-3 {
        fill: #1a1a1a;
      }

      .cls-3 {
        opacity: 0;
      }

      .cls-4 {
        fill: #e62e49;
      }

      .cls-5 {
        fill: #39b54a;
      }

      .cls-6 {
        fill: #fff;
      }

      .cls-7 {
        fill: #96dbff;
      }
    </style>
  </defs>
  <g id="Exports_2" data-name="Exports 2">
    <g>
      <rect class="cls-3" width="64" height="64"/>
      <g>
        <path class="cls-2" d="M57.41,46.06h-18.5c-1.4,2.37-3.98,3.97-6.91,3.97s-5.51-1.6-6.91-3.97H6.59c-1.7,0-3.33-.72-4.49-1.96-1.14-1.24-1.72-2.9-1.59-4.57.71-8.97,5.26-17.24,12.47-22.69,5.51-4.16,12.09-6.36,19.01-6.36s13.49,2.2,19.01,6.36c7.21,5.44,11.76,13.71,12.47,22.69.13,1.67-.45,3.33-1.59,4.57-1.15,1.25-2.79,1.97-4.49,1.97Z"/>
        <g>
          <g>
            <path class="cls-5" d="M15.4,20.03l16.6,22.03H6.59c-1.2,0-2.18-1.02-2.09-2.22.64-8.09,4.78-15.19,10.9-19.81Z"/>
            <path class="cls-4" d="M57.41,42.06h-25.41s16.6-22.03,16.6-22.03c6.12,4.62,10.25,11.72,10.9,19.81.1,1.2-.88,2.22-2.09,2.22Z"/>
            <path class="cls-1" d="M32,14.48c6.23,0,11.98,2.07,16.6,5.55l-16.6,22.03L15.4,20.03c4.62-3.49,10.37-5.55,16.6-5.55Z"/>
          </g>
          <g>
            <path class="cls-6" d="M27.98,42.01c0,2.22,1.8,4.02,4.02,4.02s4.02-1.8,4.02-4.02-.67-22.47-4.02-22.47-4.02,20.25-4.02,22.47Z"/>
            <circle class="cls-7" cx="32" cy="42.01" r="1.85"/>
          </g>
        </g>
      </g>
    </g>
  </g>
</svg>