<?xml version="1.0" encoding="UTF-8"?>
<svg id="Layer_2" data-name="Layer 2" xmlns="http://www.w3.org/2000/svg" viewBox="0 0 64 64">
  <defs>
    <style>
      .cls-1, .cls-2 {
        fill: #1a1a1a;
        stroke-width: 0px;
      }

      .cls-2 {
        opacity: 0;
      }
    </style>
  </defs>
  <g id="Exports_2" data-name="Exports 2">
    <g>
      <rect class="cls-2" width="64" height="64"/>
      <path class="cls-1" d="M4.51,40.07c-.1,1.2.88,2.22,2.09,2.22h18.43c0,.94.19,1.88.58,2.77,1.11,2.57,3.64,4.24,6.45,4.24.96,0,1.9-.19,2.79-.58,1.26-.55,6.44-2.99,11.07-5.63.47-.27.93-.54,1.38-.8h10.12c1.2,0,2.18-1.02,2.09-2.22-.64-8.09-4.78-15.19-10.9-19.81-4.62-3.49-10.37-5.55-16.6-5.55s-11.98,2.07-16.6,5.55c-6.12,4.62-10.25,11.72-10.9,19.81ZM30.45,38.57c2.04-.88,20.89-8.31,22.22-5.22,1.33,3.08-16.99,11.73-19.03,12.61-2.04.88-4.41-.06-5.29-2.1-.88-2.04.06-4.41,2.1-5.29Z"/>
    </g>
  </g>
</svg>