<?xml version="1.0" encoding="UTF-8"?>
<svg id="Layer_2" data-name="Layer 2" xmlns="http://www.w3.org/2000/svg" viewBox="0 0 64 64">
  <defs>
    <style>
      .cls-1 {
        fill: #fec92b;
      }

      .cls-1, .cls-2, .cls-3, .cls-4, .cls-5, .cls-6, .cls-7 {
        stroke-width: 0px;
      }

      .cls-2, .cls-3 {
        fill: #1a1a1a;
      }

      .cls-3 {
        opacity: 0;
      }

      .cls-4 {
        fill: #e62e49;
      }

      .cls-5 {
        fill: #39b54a;
      }

      .cls-6 {
        fill: #fff;
      }

      .cls-7 {
        fill: #96dbff;
      }
    </style>
  </defs>
  <g id="Exports_2" data-name="Exports 2">
    <g>
      <rect class="cls-3" width="64" height="64"/>
      <g>
        <path class="cls-2" d="M12.99,18.57c5.51-4.16,12.09-6.36,19.01-6.36s13.49,2.2,19.01,6.36c7.21,5.44,11.76,13.71,12.47,22.69.13,1.67-.45,3.33-1.59,4.57-1.15,1.25-2.79,1.97-4.49,1.97h-15.31c-3.22,1.67-6.01,2.97-6.87,3.34-1.01.44-2.08.66-3.18.66-2.89,0-5.53-1.55-6.95-4H6.59c-1.7,0-3.33-.72-4.49-1.96-1.14-1.24-1.72-2.9-1.59-4.57.71-8.97,5.26-17.24,12.47-22.69Z"/>
        <g>
          <g>
            <path class="cls-5" d="M15.4,21.76l16.6,22.03H6.59c-1.2,0-2.18-1.02-2.09-2.22.64-8.09,4.78-15.19,10.9-19.81Z"/>
            <path class="cls-4" d="M57.41,43.79h-25.41s16.6-22.03,16.6-22.03c6.12,4.62,10.25,11.72,10.9,19.81.1,1.2-.88,2.22-2.09,2.22Z"/>
            <path class="cls-1" d="M32,16.21c6.23,0,11.98,2.07,16.6,5.55l-16.6,22.03L15.4,21.76c4.62-3.49,10.37-5.55,16.6-5.55Z"/>
          </g>
          <g>
            <path class="cls-6" d="M30.45,40.07c-2.04.88-2.98,3.25-2.1,5.29.88,2.04,3.25,2.98,5.29,2.1s20.36-9.53,19.03-12.61c-1.33-3.08-20.18,4.34-22.22,5.22Z"/>
            <circle class="cls-7" cx="32.05" cy="43.77" r="1.85"/>
          </g>
        </g>
      </g>
    </g>
  </g>
</svg>