<?xml version="1.0" encoding="UTF-8"?>
<svg id="Layer_2" data-name="Layer 2" xmlns="http://www.w3.org/2000/svg" viewBox="0 0 64 64">
  <defs>
    <style>
      .cls-1 {
        opacity: 0;
      }

      .cls-2 {
        fill: #fff;
        stroke-width: 0px;
      }
    </style>
  </defs>
  <g id="Exports_2" data-name="Exports 2">
    <g>
      <g class="cls-1">
        <rect class="cls-2" width="64" height="64"/>
      </g>
      <path class="cls-2" d="M48.6,20.26c-4.62-3.49-10.37-5.55-16.6-5.55s-11.98,2.07-16.6,5.55c-6.12,4.62-10.25,11.72-10.9,19.81-.1,1.2.88,2.22,2.09,2.22h10.12c.45.26.9.53,1.38.8,4.63,2.64,9.81,5.08,11.07,5.63.89.38,1.82.58,2.79.58,2.8,0,5.34-1.66,6.45-4.24.38-.89.57-1.83.58-2.77h18.43c1.2,0,2.18-1.02,2.09-2.22-.64-8.09-4.78-15.19-10.9-19.81ZM35.64,43.86c-.88,2.04-3.25,2.98-5.29,2.1-2.04-.88-20.36-9.53-19.03-12.61,1.33-3.08,20.18,4.34,22.22,5.22,2.04.88,2.98,3.25,2.1,5.29Z"/>
    </g>
  </g>
</svg>