<?xml version="1.0" encoding="UTF-8"?>
<svg id="Layer_2" data-name="Layer 2" xmlns="http://www.w3.org/2000/svg" viewBox="0 0 64 64">
  <defs>
    <style>
      .cls-1, .cls-2 {
        fill: #1a1a1a;
        stroke-width: 0px;
      }

      .cls-2 {
        opacity: 0;
      }
    </style>
  </defs>
  <g id="Exports_2" data-name="Exports 2">
    <g>
      <rect class="cls-2" width="64" height="64"/>
      <path class="cls-1" d="M48.6,20.28c-4.62-3.49-10.37-5.55-16.6-5.55s-11.98,2.07-16.6,5.55c-6.12,4.62-10.25,11.72-10.9,19.81-.1,1.2.88,2.22,2.09,2.22h18.38c.03,3.85,3.17,6.97,7.02,6.97s6.99-3.12,7.02-6.97h18.38c1.2,0,2.18-1.02,2.09-2.22-.64-8.09-4.78-15.19-10.9-19.81ZM32,46.28c-2.22,0-4.02-1.8-4.02-4.02s.67-22.47,4.02-22.47,4.02,20.25,4.02,22.47-1.8,4.02-4.02,4.02Z"/>
    </g>
  </g>
</svg>