<?xml version="1.0" encoding="UTF-8"?>
<svg id="Layer_2" data-name="Layer 2" xmlns="http://www.w3.org/2000/svg" viewBox="0 0 64 64">
  <defs>
    <style>
      .cls-1 {
        fill: #ff8ca9;
      }

      .cls-1, .cls-2, .cls-3, .cls-4, .cls-5, .cls-6, .cls-7 {
        stroke-width: 0px;
      }

      .cls-2, .cls-3 {
        fill: #1a1a1a;
      }

      .cls-3 {
        opacity: 0;
      }

      .cls-4 {
        fill: #1778ff;
      }

      .cls-5 {
        fill: #bdccd4;
      }

      .cls-6 {
        fill: #ff608a;
      }

      .cls-7 {
        fill: #37b9ff;
      }
    </style>
  </defs>
  <g id="Exports_1" data-name="Exports 1">
    <g>
      <rect class="cls-3" width="64" height="64"/>
      <g>
        <path class="cls-2" d="M63.5,32.37c0-2.47-.96-4.78-2.7-6.53L38.16,3.2c-1.74-1.74-4.06-2.7-6.53-2.7-1.82,0-3.56.52-5.05,1.5-.64-.28-1.34-.42-2.07-.42-1.4,0-2.72.55-3.71,1.54l-1.43,1.43c-.99.99-1.54,2.31-1.54,3.71,0,.66.12,1.3.35,1.9-3.1,3.62-2.94,9.1.49,12.53l8.45,8.45c-1.29.24-2.53.68-3.68,1.3-.99-.5-2.09-.77-3.24-.77-1.91,0-3.7.74-5.05,2.09l-1.47,1.47c-.72.72-1.26,1.56-1.61,2.47-.92.35-1.76.9-2.47,1.61l-1.47,1.47c-.72.72-1.26,1.56-1.61,2.47-.92.35-1.76.9-2.47,1.61l-1.47,1.47c-1.35,1.35-2.09,3.14-2.09,5.05s.74,3.7,2.09,5.05l4.98,4.98c1.35,1.35,3.14,2.09,5.05,2.09s3.7-.74,5.05-2.09l1.47-1.47c.72-.72,1.26-1.56,1.61-2.47.92-.35,1.76-.9,2.47-1.61l1.47-1.47c.72-.72,1.26-1.56,1.61-2.47.92-.35,1.76-.9,2.47-1.61l1.47-1.47c.83-.83,1.41-1.8,1.74-2.85l7,7c2.61,2.61,6.08,4.04,9.78,4.04h0c3.84,0,7.53-1.61,10.14-4.43,3.64-3.92,4.56-9.62,2.61-14.53,1.28-1.62,1.97-3.61,1.97-5.71Z"/>
        <path class="cls-5" d="M55.54,36.09L25.4,5.94c-.49-.49-1.28-.49-1.76,0l-1.43,1.43c-.49.49-.49,1.28,0,1.76l30.32,30.32c2.19,2.19,2.06,5.83-.38,7.86-2.13,1.76-5.29,1.5-7.24-.46l-9.42-9.42c-3.34-3.34-8.76-3.34-12.1,0l-4.85,4.85,3.19,3.19,4.85-4.85c1.58-1.58,4.14-1.58,5.72,0l9.53,9.53c3.92,3.92,10.35,3.83,14.16-.27,3.62-3.9,3.33-10.03-.43-13.79Z"/>
        <rect class="cls-6" x="29.97" y="3.02" width="19.55" height="42.48" rx="5.23" ry="5.23" transform="translate(-5.52 35.21) rotate(-45)"/>
        <path class="cls-1" d="M57.97,28.67L35.33,6.03c-2.04-2.04-5.35-2.04-7.4,0l-.07.07,3.45,3.45-3.5,3.5c-1.45,1.45-1.45,3.8,0,5.26s3.8,1.45,5.26,0c1.34-1.34,3.53-1.34,4.87,0l3.74,3.74c.74.74.74,1.93,0,2.67h0c-1.45,1.45-1.45,3.8,0,5.26l2.63,2.63-.51.51c-1.45,1.45-1.45,3.8,0,5.26s3.8,1.45,5.26,0l2.81-2.81,3.31,3.31,2.79-2.79c2.04-2.04,2.04-5.35,0-7.4Z"/>
        <g>
          <path class="cls-7" d="M25.95,47.47l1.47-1.47c1.23-1.23,1.23-3.21,0-4.44l-4.98-4.98c-1.23-1.23-3.21-1.23-4.44,0l-1.47,1.47c-.92.92-1.15,2.26-.69,3.39-1.13-.45-2.47-.22-3.39.69l-1.47,1.47c-.92.92-1.15,2.26-.69,3.39-1.13-.45-2.47-.22-3.39.69l-1.47,1.47c-1.23,1.23-1.23,3.21,0,4.44l4.98,4.98c1.23,1.23,3.21,1.23,4.44,0l1.47-1.47c.92-.92,1.15-2.26.69-3.39,1.13.45,2.47.22,3.39-.69l1.47-1.47c.92-.92,1.15-2.26.69-3.39,1.13.45,2.47.22,3.39-.69Z"/>
          <path class="cls-4" d="M25.95,47.47l1.47-1.47c1.23-1.23,1.23-3.21,0-4.44l-.37-.37c-.13.54-.4,1.06-.83,1.48l-1.47,1.47c-.74.74-1.76,1.03-2.72.88-.28-.05-.53.2-.48.48.16.96-.14,1.98-.88,2.72l-1.47,1.47c-.74.74-1.76,1.03-2.72.88-.28-.05-.53.2-.48.48.16.96-.14,1.98-.88,2.72l-1.47,1.47c-1.23,1.23-3.21,1.23-4.44,0l-4.61-4.61c-.25,1.03.03,2.15.83,2.96l4.98,4.98c1.23,1.23,3.21,1.23,4.44,0l1.47-1.47c.92-.92,1.15-2.26.69-3.39,1.13.45,2.47.22,3.39-.69l1.47-1.47c.92-.92,1.15-2.26.69-3.39,1.13.45,2.47.22,3.39-.69Z"/>
        </g>
      </g>
    </g>
  </g>
</svg>