<?xml version="1.0" encoding="UTF-8"?>
<svg id="Layer_2" data-name="Layer 2" xmlns="http://www.w3.org/2000/svg" viewBox="0 0 64 64">
  <defs>
    <style>
      .cls-1 {
        opacity: 0;
      }

      .cls-2 {
        fill: #fff;
        stroke-width: 0px;
      }
    </style>
  </defs>
  <g id="Exports_1" data-name="Exports 1">
    <g>
      <g class="cls-1">
        <rect class="cls-2" width="64" height="64"/>
      </g>
      <path class="cls-2" d="M57.97,36.07c2.04-2.04,2.04-5.35,0-7.4L35.33,6.03c-2.04-2.04-5.35-2.04-7.4,0l-1.22,1.22-1.31-1.31c-.49-.49-1.28-.49-1.76,0l-1.43,1.43c-.49.49-.49,1.28,0,1.76l1.31,1.31-2.01,2.01c-2.04,2.04-2.04,5.35,0,7.4l22.64,22.64c2.04,2.04,5.35,2.04,7.4,0l1.85-1.85c1.2,2.16.8,4.97-1.25,6.67-2.13,1.76-5.29,1.5-7.24-.45l-9.43-9.43c-3.34-3.34-8.76-3.34-12.1,0l-.05.05-.89-.89c-1.23-1.23-3.21-1.23-4.44,0l-1.47,1.47c-.92.92-1.15,2.26-.69,3.39-1.13-.45-2.47-.22-3.39.69l-1.47,1.47c-.92.92-1.15,2.26-.69,3.39-1.13-.45-2.47-.22-3.39.69l-1.47,1.47c-1.23,1.23-1.23,3.21,0,4.44l4.98,4.98c1.23,1.23,3.21,1.23,4.44,0l1.47-1.47c.92-.92,1.15-2.26.69-3.39,1.13.45,2.47.22,3.39-.69l1.47-1.47c.92-.92,1.15-2.26.69-3.39,1.13.45,2.47.22,3.39-.69l1.47-1.47c1.23-1.23,1.23-3.21,0-4.44l-.89-.89.05-.05c1.58-1.58,4.14-1.58,5.72,0l9.53,9.53c3.92,3.92,10.35,3.83,14.16-.27,3.23-3.48,3.34-8.72.66-12.49l1.33-1.33Z"/>
    </g>
  </g>
</svg>