<svg xmlns="http://www.w3.org/2000/svg" viewBox="0 0 64 64"><defs><style>.cls-1,.cls-2{fill:#1a1a1a;}.cls-1{opacity:0;}.cls-3{fill:#abc0c9;}.cls-4{fill:#d3dee3;}</style></defs><title>Fork Outline</title><g id="Layer_2" data-name="Layer 2"><g id="Layer_3" data-name="Layer 3"><rect class="cls-1" width="64" height="64"/><path class="cls-2" d="M62.06,10.87a4.91,4.91,0,0,0-1.63-1.09,4.82,4.82,0,0,0-1-1.6l-.5-.5a4.79,4.79,0,0,0-1.54-1,4.88,4.88,0,0,0-1-1.53l-.51-.5a4.59,4.59,0,0,0-1.6-1.05,4.91,4.91,0,0,0-7.62-2c-6.87,5.5-13,10.61-14.43,11.92-5.42,5-5.7,9.75-4.89,13L3.41,48.08A8.86,8.86,0,1,0,15.92,60.59L37.49,36.75a11,11,0,0,0,2.73.35h0c3.61,0,7.07-1.77,10.28-5.26,1.31-1.43,6.41-7.57,11.92-14.43A4.89,4.89,0,0,0,62.06,10.87Z"/><path class="cls-3" d="M5.92,58.08h0a4.85,4.85,0,0,1,.18-7L33.93,25.86l4.21,4.21L13,57.9A4.85,4.85,0,0,1,5.92,58.08Z"/><path class="cls-3" d="M47.56,29.13C48.71,27.88,53.64,22,59.3,14.9a.9.9,0,0,0-.06-1.2h0a.88.88,0,0,0-1.27,0L47.9,23.75a.74.74,0,0,1-1,0l-.5-.5a.74.74,0,0,1,0-1L56.55,12a.74.74,0,0,0,0-1l-.5-.5a.74.74,0,0,0-1,0L44.84,20.69a.74.74,0,0,1-1,0l-.5-.5a.74.74,0,0,1,0-1L53.49,9a.74.74,0,0,0,0-1l-.5-.5a.74.74,0,0,0-1,0L41.78,17.63a.74.74,0,0,1-1,0l-.5-.51a.72.72,0,0,1,0-1L50.3,6a.88.88,0,0,0,0-1.27h0a.9.9,0,0,0-1.2-.06c-7.07,5.66-13,10.59-14.23,11.74-5.69,5.24-4.61,10-.94,13.63S42.32,34.81,47.56,29.13Z"/><path class="cls-4" d="M11.38,51.75l19.1-18.48a2.16,2.16,0,0,0,0-3.09,2.08,2.08,0,0,0-.79-.5L7.08,50.15a2.5,2.5,0,0,0,.71,1.57A2.57,2.57,0,0,0,11.38,51.75Z"/></g></g></svg>