<svg xmlns="http://www.w3.org/2000/svg" viewBox="0 0 64 64"><defs><style>.cls-1{fill:#1a1a1a;opacity:0;}.cls-2{fill:#fff;}</style></defs><title>Fork Flat White</title><g id="Layer_2" data-name="Layer 2"><g id="Layer_3" data-name="Layer 3"><rect class="cls-1" width="64" height="64"/><path class="cls-2" d="M59.24,13.7h0a.88.88,0,0,0-1.27,0L47.9,23.75a.72.72,0,0,1-1,0l-.51-.5a.74.74,0,0,1,0-1L56.55,12a.74.74,0,0,0,0-1l-.5-.5a.74.74,0,0,0-1,0L44.84,20.69a.74.74,0,0,1-1,0l-.5-.5a.74.74,0,0,1,0-1L53.49,9a.74.74,0,0,0,0-1l-.5-.5a.74.74,0,0,0-1,0L41.78,17.63a.74.74,0,0,1-1,0l-.5-.51a.72.72,0,0,1,0-1L50.3,6a.88.88,0,0,0,0-1.27h0a.9.9,0,0,0-1.2-.06c-7.07,5.66-13,10.59-14.23,11.74C30.39,20.57,30.12,24.38,32,27.6L6.1,51.05A4.85,4.85,0,1,0,13,57.9L36.4,32c3.22,1.88,7,1.61,11.16-2.87C48.71,27.88,53.64,22,59.3,14.9A.9.9,0,0,0,59.24,13.7Z"/></g></g></svg>