<?xml version="1.0" encoding="UTF-8"?>
<svg id="Layer_2" data-name="Layer 2" xmlns="http://www.w3.org/2000/svg" viewBox="0 0 64 64">
  <defs>
    <style>
      .cls-1 {
        fill: #fff;
      }

      .cls-2 {
        fill: #fec92b;
      }

      .cls-3 {
        fill: #37b9ff;
      }

      .cls-4 {
        fill: #fee854;
      }

      .cls-5 {
        fill: #1a1a1a;
        opacity: 0;
      }

      .cls-6 {
        fill: #96dbff;
      }
    </style>
  </defs>
  <g id="No_outline" data-name="No outline">
    <g id="Fish_Scale" data-name="Fish Scale">
      <rect class="cls-5" width="64" height="64"/>
      <g>
        <path class="cls-3" d="M52.49,36.98c-5.23,11.15-23.56,26.71-34.71,21.48S6.89,29.18,12.12,18.04C19.04,3.3,30.63,2.09,41.78,7.32s17.63,14.92,10.71,29.65Z"/>
        <path class="cls-6" d="M36.94,17.64c-8.95-4.2-19.29-2.11-26.34,4.46-3.63,12.1-2.75,31.7,7.19,36.36s25.56-7.19,32.55-17.71c.55-9.62-4.45-18.91-13.4-23.11Z"/>
        <path class="cls-4" d="M17.79,58.46c6.22,2.92,14.69-.64,21.86-6.3,1.66-11.96-.81-21.59-7.34-24.65s-15.51,1.19-23.65,10.11c.23,9.13,2.9,17.92,9.13,20.84Z"/>
        <path class="cls-2" d="M17.79,58.46c2.69,1.26,5.81,1.31,9.05,.5,3.56-8.14,3.23-16.08-.85-18s-10.39,2.91-14.38,10.85c1.45,3.01,3.48,5.38,6.17,6.64Z"/>
        <path class="cls-1" d="M39.87,12.9l-3.35-1.32-1.32-3.35c-.23-.58-1.04-.58-1.27,0l-1.32,3.35-3.35,1.32c-.58,.23-.58,1.04,0,1.27l3.35,1.32,1.32,3.35c.23,.58,1.04,.58,1.27,0l1.32-3.35,3.35-1.32c.58-.23,.58-1.04,0-1.27Z"/>
        <path class="cls-1" d="M52.74,23.71l-4.38-1.73-1.73-4.38c-.3-.75-1.36-.75-1.66,0l-1.73,4.38-4.38,1.73c-.75,.3-.75,1.36,0,1.66l4.38,1.73,1.73,4.38c.3,.75,1.36,.75,1.66,0l1.73-4.38,4.38-1.73c.75-.3,.75-1.36,0-1.66Z"/>
      </g>
    </g>
  </g>
</svg>