<?xml version="1.0" encoding="UTF-8"?>
<svg id="Layer_2" data-name="Layer 2" xmlns="http://www.w3.org/2000/svg" viewBox="0 0 64 64">
  <defs>
    <style>
      .cls-1 {
        fill: #606060;
        opacity: 0;
      }

      .cls-2 {
        fill: #1a1a1a;
      }
    </style>
  </defs>
  <g id="Black">
    <g id="Fish_Scale_Flat_Black" data-name="Fish Scale Flat Black">
      <rect class="cls-1" width="64" height="64"/>
      <path class="cls-2" d="M41.78,7.32C30.63,2.09,19.04,3.3,12.12,18.04c-5.23,11.15-5.49,35.19,5.66,40.42,11.15,5.23,29.48-10.33,34.71-21.48,6.91-14.74,.43-24.42-10.71-29.65Zm-7.91,16.14c-.23,.58-1.04,.58-1.27,0l-1.32-3.35-3.35-1.32c-.58-.23-.58-1.04,0-1.27l3.35-1.32,1.32-3.35c.23-.58,1.04-.58,1.27,0l1.32,3.35,3.35,1.32c.58,.23,.58,1.04,0,1.27l-3.35,1.32-1.32,3.35Zm17.54,6.52l-4.38,1.73-1.73,4.38c-.3,.75-1.36,.75-1.66,0l-1.73-4.38-4.38-1.73c-.75-.3-.75-1.36,0-1.66l4.38-1.73,1.73-4.38c.3-.75,1.36-.75,1.66,0l1.73,4.38,4.38,1.73c.75,.3,.75,1.36,0,1.66Z"/>
    </g>
  </g>
</svg>