<svg xmlns="http://www.w3.org/2000/svg" viewBox="0 0 64 64"><defs><style>.cls-1,.cls-2{fill:#1a1a1a;}.cls-1{opacity:0;}</style></defs><title>Map Black</title><g id="Layer_2" data-name="Layer 2"><g id="Finals"><rect class="cls-1" width="64" height="64"/><path class="cls-2" d="M55.82,10.32a3.14,3.14,0,0,0-3-3.95C38.22,6,23.62,7.74,9,7.11a3.15,3.15,0,0,0-3.11,2.1C.7,23.78,12.18,39,8.18,53.68a3.14,3.14,0,0,0,3,4c14.64.4,29.24-1.37,43.89-.74a3.15,3.15,0,0,0,3.11-2.1C63.3,40.22,51.82,25,55.82,10.32ZM38.46,17.19a9.78,9.78,0,0,1,.47,1.9h0a26.51,26.51,0,0,1-.06,6.28l-3.75-1.06a20.92,20.92,0,0,0,.16-5h0a4.21,4.21,0,0,0-.24-1Zm0,11.67c0,.46-.08.69-.13,1.15-.22,1.84-.44,3.74-.57,5.56-1.51-.41-2.27-.6-3.78-1,.12-1.93.34-3.88.57-5.77,0-.46.08-.69.14-1.15ZM23,11.78l.87,0a20.72,20.72,0,0,0-.36,3.66l-.75,0a16.17,16.17,0,0,0-5.64,1.13,27.31,27.31,0,0,1-1.3-3.36A21.76,21.76,0,0,1,23,11.78ZM11.83,24.39a9.69,9.69,0,0,1-1.2-3.2A6.54,6.54,0,0,1,12,15.72c1.12,1,1.7,1.43,2.9,2.36a4,4,0,0,0-.63,3.15,6.25,6.25,0,0,0,.73,2Zm5.19,1,.06,0a19.2,19.2,0,0,1,6.45,6.89l-1.81.34L20.09,33a13.8,13.8,0,0,0-4.61-4.76l-.14-.09C16,27.08,16.33,26.53,17,25.43Zm13.35,21c-1.17,1.29-1.78,1.94-3.11,3.24a.54.54,0,0,1-.82,0A37.59,37.59,0,0,0,23.51,46a40.37,40.37,0,0,1-2.9,3.89.56.56,0,0,1-.83.08c-1.12-1.19-1.73-1.79-3-3a.55.55,0,0,1,0-.83c1.41-1.18,2.08-1.78,3.39-3l-4.4-2.82a.62.62,0,0,1-.26-.83c.91-1.23,1.35-1.85,2.22-3.09a.56.56,0,0,1,.84,0C20.16,38,21,38.67,22.49,40.12c.79-1.55,1.16-2.32,1.88-3.86a.54.54,0,0,1,.82-.1c1.58,1.15,2.37,1.72,3.91,2.86a.56.56,0,0,1,.16.82c-1.23,1.23-1.85,1.85-3.16,3.08,1.72,1.08,2.55,1.61,4.16,2.69A.55.55,0,0,1,30.37,46.43Zm3-29.48a39.41,39.41,0,0,0-6.5-1.34A22.76,22.76,0,0,1,27.66,12a39.49,39.49,0,0,1,6.89,1.48l.37.13A33.29,33.29,0,0,0,33.59,17Zm.8,25a25.42,25.42,0,0,1-.29-3.67l3.74.59c0,2.56.33,4.44,1.2,5.76-1.22.78-1.84,1.17-3.1,1.95A12.9,12.9,0,0,1,34.18,42Zm10.1,9.22a9.58,9.58,0,0,1-5.66-1.48c.94-1.27,1.37-1.9,2.16-3.15a7.15,7.15,0,0,0,3.94,1,8.15,8.15,0,0,0,1.7-.21,19.52,19.52,0,0,1,.35,3.56A13.35,13.35,0,0,1,44.28,51.17Zm1.48-17.43L48,31.44A27.68,27.68,0,0,1,53,37.3c-1.24.48-1.86.74-3.1,1.25A22.08,22.08,0,0,0,45.76,33.74ZM51,49.17a32,32,0,0,0-1.9-3,4.43,4.43,0,0,0,2-4.65c1.45,0,2.18,0,3.63,0C55.32,44.71,53.86,47.4,51,49.17Z"/></g></g></svg>