<svg xmlns="http://www.w3.org/2000/svg" viewBox="0 0 64 64"><defs><style>.cls-1{fill:#fff;opacity:0;}.cls-2{fill:#ebb369;}.cls-3{fill:#ffd59e;}.cls-4{fill:#e62e49;}.cls-5{fill:#d1864b;}</style></defs><title>Map</title><g id="Layer_2" data-name="Layer 2"><g id="Finals"><rect class="cls-1" width="64" height="64"/><path class="cls-2" d="M8.18,53.68C12.18,39,.7,23.78,5.86,9.21A3.15,3.15,0,0,1,9,7.11C23.62,7.74,38.22,6,52.86,6.37a3.14,3.14,0,0,1,3,4c-4,14.64,7.48,29.9,2.32,44.47A3.15,3.15,0,0,1,55,56.89c-14.65-.63-29.25,1.14-43.89.74A3.14,3.14,0,0,1,8.18,53.68Z"/><path class="cls-3" d="M52.32,9.94C37.9,9.6,23.54,11.39,9.11,10.7c-4.43,14.6,7,28.74,2.57,43.36,14.42.34,28.78-1.45,43.21-.76C59.32,38.69,47.93,24.55,52.32,9.94Zm-37,41.51c1.05-13-5.43-24.92-4.38-37.94,12.62.4,25.19-.91,37.8-1-1.05,13,5.43,24.91,4.38,37.94C40.47,50.09,27.91,51.4,15.29,51.45Z"/><path class="cls-4" d="M29.38,47.89c1.33-1.3,1.94-2,3.11-3.24a.55.55,0,0,0-.11-.82c-1.61-1.08-2.44-1.61-4.16-2.69,1.3-1.23,1.93-1.84,3.16-3.08a.56.56,0,0,0-.16-.82c-1.54-1.14-2.33-1.71-3.91-2.85a.54.54,0,0,0-.82.09c-.72,1.54-1.09,2.31-1.88,3.86-1.53-1.45-2.33-2.17-3.94-3.64a.56.56,0,0,0-.84,0c-.87,1.25-1.31,1.86-2.22,3.1a.61.61,0,0,0,.26.82l4.4,2.82c-1.31,1.21-2,1.81-3.39,3a.55.55,0,0,0,0,.83c1.29,1.21,1.9,1.81,3,3a.56.56,0,0,0,.83-.08,40.37,40.37,0,0,0,2.9-3.89,37.59,37.59,0,0,1,2.93,3.63A.54.54,0,0,0,29.38,47.89Z"/><path class="cls-5" d="M13.57,23.56a5.66,5.66,0,0,1,1.19-4.74c1,.83,1.48,1.24,2.51,2.05a3.5,3.5,0,0,0-.54,2.73,5.14,5.14,0,0,0,.63,1.71c-1.1.42-1.65.63-2.74,1A8.32,8.32,0,0,1,13.57,23.56Zm4.08,6.05c.57-.95.86-1.42,1.46-2.38l.05,0a16.85,16.85,0,0,1,5.6,6l-3,.56,1.5-.28-1.49.29a12,12,0,0,0-4-4.12Zm.41-13a18.84,18.84,0,0,1,6.22-1.23l.75,0a19,19,0,0,0-.32,3.17l-.65,0a14.14,14.14,0,0,0-4.88,1A22.6,22.6,0,0,1,18.06,16.64Zm9.59,2.08a21.4,21.4,0,0,1,.68-3.15,33,33,0,0,1,6,1.29l.33.11a24.41,24.41,0,0,0-1.16,3l-.18-.06A33.59,33.59,0,0,0,27.65,18.72ZM34,41.56a23.48,23.48,0,0,1-.25-3.19l3.24.52a9.05,9.05,0,0,0,1,5l-2.69,1.69A11.23,11.23,0,0,1,34,41.56Zm-.16-6.41c.11-1.66.3-3.36.5-5,0-.4.07-.6.12-1l3.27,1.05c-.05.4-.07.6-.12,1-.18,1.59-.37,3.24-.49,4.81Zm4,13.11c.82-1.1,1.19-1.64,1.87-2.73a6.32,6.32,0,0,0,3.42.84,7.38,7.38,0,0,0,1.47-.18,16.94,16.94,0,0,1,.3,3.09,12.37,12.37,0,0,1-2.15.26A8.34,8.34,0,0,1,37.83,48.26Zm-3-22a18.43,18.43,0,0,0,.15-4.37h0a4,4,0,0,0-.21-.83l3-1a7.87,7.87,0,0,1,.4,1.64h0A22.75,22.75,0,0,1,38,27.19C36.74,26.81,36.09,26.63,34.79,26.27ZM44,34.43l1.89-2a24.35,24.35,0,0,1,4.4,5.08c-1.07.42-1.61.64-2.69,1.09A19.51,19.51,0,0,0,44,34.43Zm2.9,10.77a3.82,3.82,0,0,0,1.73-4c1.25,0,1.88,0,3.14,0a6.26,6.26,0,0,1-3.21,6.65A27.73,27.73,0,0,0,46.92,45.2Z"/></g></g></svg>