<?xml version="1.0" encoding="UTF-8"?>
<svg id="Layer_2" data-name="Layer 2" xmlns="http://www.w3.org/2000/svg" viewBox="0 0 64 64">
  <defs>
    <style>
      .cls-1 {
        fill: #fff;
      }

      .cls-2 {
        fill: #3da8e0;
      }

      .cls-3 {
        fill: #8cc936;
      }

      .cls-4 {
        fill: #008722;
      }

      .cls-5 {
        fill: #cdf07a;
      }

      .cls-6 {
        fill: #4ea800;
      }

      .cls-7 {
        fill: #1a1a1a;
        opacity: 0;
      }

      .cls-8 {
        fill: #96dbff;
      }
    </style>
  </defs>
  <g id="No_outline" data-name="No outline">
    <g id="Poison">
      <rect class="cls-7" width="64" height="64"/>
      <g>
        <path class="cls-1" d="M45.3,19.81c0-.51-2.38-.95-5.99-1.21V5.5h-14.62v13.1c-3.61,.26-5.99,.7-5.99,1.21h0c-2.73,10.1-4.47,22.62-4.8,36.31,0,1.87,8.1,3.39,18.1,3.39s18.1-1.52,18.1-3.39c-.33-13.68-2.07-26.2-4.8-36.31Z"/>
        <path class="cls-8" d="M41.93,22.92c-1.36-.19-3.59-.39-6.66-.47V9.54h-6.54v12.9c-3.07,.09-5.3,.29-6.66,.47-2.28,9.17-3.67,19.88-4.07,31.18,2.16,.6,6.85,1.36,14,1.36s11.84-.76,14-1.36c-.4-11.35-1.8-22.04-4.07-31.18Z"/>
        <path class="cls-5" d="M20.49,30.3c1.13,.82,5.85,1.43,11.51,1.43s10.38-.61,11.51-1.43c-.05-.28-.11-.56-.16-.85-1.35-.77-5.91-1.33-11.35-1.33s-9.99,.57-11.34,1.33c-.05,.28-.11,.56-.16,.85Z"/>
        <g>
          <path class="cls-8" d="M20.49,30.3c.05-.28,.11-.55,.16-.83-.05,.28-.11,.55-.16,.83Z"/>
          <path class="cls-3" d="M43.35,29.46c.05,.28,.11,.56,.16,.84-1.12,.82-5.85,1.43-11.51,1.43s-10.38-.61-11.51-1.43c-1.35,7.35-2.19,15.41-2.49,23.8,2.16,.6,6.85,1.36,14,1.36s11.84-.76,14-1.36c-.31-8.74-1.21-17.09-2.65-24.65Z"/>
          <polygon class="cls-1" points="20.66 29.45 20.65 29.46 20.66 29.45 20.66 29.45"/>
          <polygon class="cls-1" points="20.49 30.3 20.49 30.3 20.49 30.3 20.49 30.3"/>
          <polygon class="cls-1" points="43.34 29.45 43.34 29.45 43.35 29.46 43.34 29.45"/>
        </g>
        <path class="cls-1" d="M32,34.65c-4.57,0-8.27,3.7-8.27,8.27,0,2.96,1.56,4.6,3.9,5.38v.96c0,1.26,1.02,2.28,2.28,2.28h4.19c1.26,0,2.28-1.02,2.28-2.28v-.96c2.34-.79,3.9-2.42,3.9-5.38,0-4.57-3.7-8.27-8.27-8.27Zm-2.67,10.5c-1.28,.53-2.74-.08-3.27-1.36-.53-1.28,.3-2.21,1.58-2.74s2.52-.45,3.05,.83c.53,1.28-.08,2.74-1.36,3.27Zm8.62-1.36c-.53,1.28-1.99,1.89-3.27,1.36s-1.89-1.99-1.36-3.27c.53-1.28,1.77-1.36,3.05-.83s2.11,1.46,1.58,2.74Z"/>
        <circle class="cls-6" cx="22.63" cy="49.64" r="1.91"/>
        <circle class="cls-6" cx="41.78" cy="50.11" r="2.88"/>
        <circle class="cls-6" cx="42.51" cy="43.63" r="1.71"/>
        <circle class="cls-6" cx="22.97" cy="34.93" r="1.56"/>
        <g>
          <path class="cls-8" d="M39.31,18.45V9.62h-14.62v8.83c1.83,.27,4.43,.45,7.31,.45s5.48-.17,7.31-.45Z"/>
          <path class="cls-2" d="M35.27,18.82V9.62h-6.54v9.2c1.03,.05,2.12,.08,3.27,.08s2.24-.03,3.27-.08Z"/>
        </g>
        <g>
          <path class="cls-8" d="M21.97,5.58v7.86c0,.79,4.5,1.41,10.03,1.41s10.03-.63,10.03-1.41V5.58H21.97Z"/>
          <path class="cls-1" d="M29.62,5.58h-7.65v7.86c0,.67,3.26,1.22,7.65,1.37V5.58Z"/>
          <ellipse class="cls-1" cx="32" cy="5.58" rx="10.03" ry="1.08"/>
        </g>
        <path class="cls-8" d="M19.55,58.57c3.24,.58,7.62,.93,12.45,.93,10,0,18.1-1.52,18.1-3.39-.27-10.97-1.45-21.17-3.31-30,4.76,34.8-26.63,32.51-27.23,32.46Z"/>
        <path class="cls-6" d="M35.17,55.4c5.37-.18,9.01-.8,10.83-1.3-.12-3.38-.33-6.7-.62-9.94-2.22,5.68-6.11,9.14-10.2,11.24Z"/>
        <path class="cls-4" d="M39.83,52.21c.51,.48,1.2,.77,1.95,.77,1.59,0,2.88-1.29,2.88-2.88,0-.93-.45-1.75-1.13-2.27-1.08,1.72-2.33,3.16-3.7,4.38Z"/>
      </g>
    </g>
  </g>
</svg>