<?xml version="1.0" encoding="UTF-8"?>
<svg id="Layer_2" data-name="Layer 2" xmlns="http://www.w3.org/2000/svg" viewBox="0 0 64 64">
  <defs>
    <style>
      .cls-1 {
        fill: #fff;
      }

      .cls-2 {
        fill: #606060;
        opacity: 0;
      }

      .cls-3 {
        fill: #1a1a1a;
      }
    </style>
  </defs>
  <g id="Black">
    <g id="Poison_Flat_Black" data-name="Poison Flat Black">
      <rect class="cls-2" width="64" height="64"/>
      <g>
        <g>
          <polygon class="cls-1" points="20.66 29.45 20.65 29.46 20.66 29.45 20.66 29.45"/>
          <polygon class="cls-1" points="20.49 30.3 20.49 30.3 20.49 30.3 20.49 30.3"/>
          <polygon class="cls-1" points="43.34 29.45 43.34 29.45 43.35 29.46 43.34 29.45"/>
        </g>
        <g>
          <path class="cls-3" d="M36.37,41.05c-1.28-.53-2.52-.45-3.05,.83-.53,1.28,.08,2.74,1.36,3.27s2.74-.08,3.27-1.36-.3-2.21-1.58-2.74Z"/>
          <path class="cls-3" d="M27.63,41.05c-1.28,.53-2.11,1.46-1.58,2.74,.53,1.28,1.99,1.89,3.27,1.36s1.89-1.99,1.36-3.27c-.53-1.28-1.77-1.36-3.05-.83Z"/>
          <path class="cls-3" d="M45.3,19.81c0-.51-2.38-.95-5.99-1.21v-4.19c1.68-.25,2.72-.59,2.72-.97V5.58c0-.6-4.49-1.08-10.03-1.08s-10.03,.48-10.03,1.08v7.86c0,.38,1.04,.72,2.72,.97v4.19c-3.61,.26-5.99,.7-5.99,1.21h0c-2.73,10.1-4.47,22.62-4.8,36.31,0,1.87,8.1,3.39,18.1,3.39s18.1-1.52,18.1-3.39c-.33-13.68-2.07-26.2-4.8-36.31Zm-23.22,3.11c1.36-.19,3.59-.39,6.66-.47v-7.67c1.03,.05,2.12,.08,3.27,.08s2.24-.03,3.27-.08v7.67c3.07,.09,5.3,.29,6.66,.47,.52,2.08,.98,4.24,1.4,6.47-1.55-.73-6.03-1.27-11.33-1.27s-9.78,.53-11.33,1.27c.42-2.22,.89-4.39,1.4-6.47Zm2.47,12.01c0,.86-.7,1.56-1.56,1.56s-1.56-.7-1.56-1.56,.7-1.56,1.56-1.56,1.56,.7,1.56,1.56Zm-1.91,16.61c-1.05,0-1.91-.85-1.91-1.91s.85-1.91,1.91-1.91,1.91,.85,1.91,1.91-.85,1.91-1.91,1.91Zm13.75-3.24v.96c0,1.26-1.02,2.28-2.28,2.28h-4.19c-1.26,0-2.28-1.02-2.28-2.28v-.96c-2.34-.79-3.9-2.42-3.9-5.38,0-4.57,3.7-8.27,8.27-8.27s8.27,3.7,8.27,8.27c0,2.96-1.56,4.6-3.9,5.38Zm5.41,4.68c-1.59,0-2.88-1.29-2.88-2.88s1.29-2.88,2.88-2.88,2.88,1.29,2.88,2.88-1.29,2.88-2.88,2.88Zm1.73-7.65c-.94,0-1.71-.76-1.71-1.71s.76-1.71,1.71-1.71,1.71,.76,1.71,1.71-.76,1.71-1.71,1.71Z"/>
        </g>
        <g>
          <path class="cls-3" d="M28.73,9.62h-4.04v8.83c1.1,.17,2.49,.29,4.04,.37V9.62Z"/>
          <path class="cls-3" d="M35.27,9.62v9.2c1.55-.08,2.94-.2,4.04-.37V9.62h-4.04Z"/>
        </g>
      </g>
    </g>
  </g>
</svg>