<svg xmlns="http://www.w3.org/2000/svg" viewBox="0 0 64 64"><defs><style>.cls-1,.cls-2{fill:#1a1a1a;}.cls-1{opacity:0;}</style></defs><title>Burger Black</title><g id="Layer_2" data-name="Layer 2"><g id="Finals"><rect class="cls-1" width="64" height="64"/><path class="cls-2" d="M58.45,49.17a5.43,5.43,0,0,1-2.07.67c-3.08.59-12.84,1-24.38,1s-21.3-.4-24.38-1a5.43,5.43,0,0,1-2.07-.67,1.75,1.75,0,0,0-.77,1.46V52a5.45,5.45,0,0,0,5.45,5.45H53.77A5.45,5.45,0,0,0,59.22,52V50.63A1.75,1.75,0,0,0,58.45,49.17Z"/><path class="cls-2" d="M7.92,46.86c2.75.55,12.49,1,24.08,1s21.33-.42,24.08-1c2.35-.24,3.42-2.39,3.42-5,0-2.78-1.2-5-3.86-5H49L44,42a4.1,4.1,0,0,1-4.9.78L28,36.8H8.36c-2.66,0-3.86,2.26-3.86,5C4.5,44.47,5.57,46.62,7.92,46.86Z"/><path class="cls-2" d="M10.72,34.29H53.28a5.7,5.7,0,0,0,5.53-7.13,27.75,27.75,0,0,0-53.62,0A5.7,5.7,0,0,0,10.72,34.29Z"/></g></g></svg>