<svg xmlns="http://www.w3.org/2000/svg" viewBox="0 0 64 64"><defs><style>.cls-1{fill:#1a1a1a;opacity:0;}.cls-2{fill:#d1864b;}.cls-3{fill:#802512;}.cls-4{fill:#fec92b;}.cls-5{fill:#39b54a;}.cls-6{fill:#009245;}.cls-7{fill:#ebb369;}.cls-8{fill:#ffdfb5;}</style></defs><title>Burger</title><g id="Layer_2" data-name="Layer 2"><g id="Finals"><rect class="cls-1" width="64" height="64"/><path class="cls-2" d="M57.47,46.87H6.53a1.75,1.75,0,0,0-1.75,1.76V50a5.45,5.45,0,0,0,5.45,5.45H53.77A5.45,5.45,0,0,0,59.22,50V48.63A1.75,1.75,0,0,0,57.47,46.87Z"/><path class="cls-3" d="M59.5,42.84c0-2.78-1.2-5-3.86-5H8.36c-2.66,0-3.86,2.26-3.86,5,0,2.63,1.07,4.78,3.42,5,2.75.55,12.49,1,24.08,1s21.33-.42,24.08-1C58.43,47.62,59.5,45.47,59.5,42.84Z"/><path class="cls-4" d="M22.43,36.79l17.74,9.52a4.34,4.34,0,0,0,5.2-.82l8.32-8.7Z"/><path class="cls-5" d="M48.27,31.29s10.76.14,11.19,3.43c1,7.67-18.62,1.43-27.36,7.43-9.92,6.81-13.17-3.95-18-2.83C8.16,40.68,3.6,39,6.28,34.51,8.71,30.45,48.27,31.29,48.27,31.29Z"/><ellipse class="cls-6" cx="32.42" cy="35.72" rx="19.07" ry="2.69"/><path class="cls-2" d="M32,8.56A27.75,27.75,0,0,0,5.19,29.16a5.7,5.7,0,0,0,5.53,7.13H53.28a5.7,5.7,0,0,0,5.53-7.13A27.75,27.75,0,0,0,32,8.56Z"/><path class="cls-7" d="M6,26.56c4.11,3.46,10.49,5.69,17.65,5.69,12.39,0,22.44-6.66,22.44-14.87a10.75,10.75,0,0,0-1.91-6A27.74,27.74,0,0,0,6,26.56Z"/><path class="cls-8" d="M28.4,16.46c.48.53,1.65,2.64,1.12,3.12s-2.53-.85-3-1.37a1.29,1.29,0,0,1,1.89-1.75Z"/><path class="cls-8" d="M36,27.43c-.66.26-3.05.57-3.31-.09S34.35,25.29,35,25a1.29,1.29,0,0,1,.94,2.4Z"/><path class="cls-7" d="M34.4,34.53c-.71.08-3.1-.22-3.18-.93S33.4,32.06,34.1,32a1.28,1.28,0,1,1,.3,2.55Z"/><path class="cls-7" d="M49.93,28.33c-.42-.57-1.33-2.8-.76-3.22s2.42,1.13,2.84,1.7a1.29,1.29,0,0,1-2.08,1.52Z"/><path class="cls-7" d="M55.54,32c-.62.35-2.94,1-3.29.38s1.41-2.27,2-2.62A1.29,1.29,0,0,1,55.54,32Z"/><path class="cls-7" d="M51,21c-.56.45-2.75,1.45-3.19.9s1-2.47,1.59-2.91A1.28,1.28,0,0,1,51,21Z"/><path class="cls-8" d="M38,12.91c.61.36,2.34,2.05,2,2.66s-2.67-.08-3.29-.44A1.29,1.29,0,0,1,38,12.91Z"/><path class="cls-8" d="M36.88,19.58c-.62.35-2.94,1-3.29.37s1.41-2.27,2-2.62a1.29,1.29,0,1,1,1.26,2.25Z"/><path class="cls-8" d="M20.5,13.21c.61-.37,2.91-1.1,3.28-.5S22.45,15,21.84,15.4a1.28,1.28,0,1,1-1.34-2.19Z"/><path class="cls-7" d="M44.05,29.14c.66.28,2.58,1.73,2.3,2.38s-2.66.26-3.31,0a1.28,1.28,0,1,1,1-2.36Z"/><path class="cls-8" d="M17.74,30.28c-.58-.4-2.17-2.21-1.77-2.8s2.66.28,3.24.69a1.29,1.29,0,1,1-1.47,2.11Z"/><path class="cls-7" d="M9.55,30.28c.55.45,2,2.37,1.57,2.92s-2.63-.47-3.18-.91a1.29,1.29,0,1,1,1.61-2Z"/><path class="cls-8" d="M25,25.54c.68-.18,3.09-.24,3.28.44S26.38,27.84,25.69,28A1.29,1.29,0,0,1,25,25.54Z"/><path class="cls-8" d="M17.05,21.37c-.51.5-2.6,1.7-3.09,1.19s.79-2.55,1.31-3a1.28,1.28,0,1,1,1.78,1.85Z"/></g></g></svg>