<svg xmlns="http://www.w3.org/2000/svg" viewBox="0 0 64 64"><defs><style>.cls-1,.cls-2{fill:#fff;}.cls-1{opacity:0;}</style></defs><title>Daily Rewards White</title><g id="Layer_2" data-name="Layer 2"><g id="Finals"><rect class="cls-1" width="64" height="64"/><path class="cls-2" d="M45.4,32.35a1.66,1.66,0,0,0-1-.88h0l-.07,0-.28-.1-.28-.09-.32-.08-.31-.07L42.82,31,42.5,31l-.8-.08-.27,0-.46,0h-2.5l-.67,0-.24,0-.3,0H37l-.22,0h-.2l-.16,0h-.3s-1.8-8.39-4.14-8.39c-.73,0-1.41.82-2,1.95A31.59,31.59,0,0,0,27.86,31s-1.63-.16-3.53-.17a20.28,20.28,0,0,0-3.26.22q-.37.06-.72.15c-.9.23-1.57.59-1.75,1.15-.4,1.25,1.77,3.16,3.74,4.59,1.54,1.11,3,1.94,3,1.94l0,.06,0,.09-.06.12-.06.15c0,.06-.05.11-.07.18s-.06.13-.09.21l-.09.22-.1.27-.09.24c-.08.19-.16.4-.24.62l-.09.27-.14.39-.09.28-.14.41-.09.3c0,.14-.09.28-.13.42s-.05.2-.08.29c-.14.51-.26,1-.35,1.49l-.06.32c0,.12,0,.24-.05.36l0,.32c0,.11,0,.22,0,.33s0,.2,0,.3,0,.2,0,.29a.07.07,0,0,0,0,0h0a1.67,1.67,0,0,0,.54,1.25C25.61,49.47,32,43.75,32,43.75s6.39,5.72,8.28,4.35-1.58-9.22-1.58-9.22S46.12,34.57,45.4,32.35Z"/><path class="cls-2" d="M59.5,45c0-.58-.83-1.12-1.83-1.55h0a21,21,0,0,0-3.33-1.06h0l-.07,0s.58-5.37-.81-5.83-4.14,4.19-4.14,4.19S46,39.26,44.35,39.34a1.11,1.11,0,0,0-.86.35c-.43.59.24,1.9,1,3.06a23,23,0,0,0,1.68,2.17s-3.63,4-2.77,5.19,5.81-1,5.81-1,2.68,4.69,4.08,4.25.88-5.83.88-5.83S59.49,46.47,59.5,45Z"/><path class="cls-2" d="M20.51,39.69c-.44-.59-1.89-.34-3.23.07a25.27,25.27,0,0,0-2.57,1,21.8,21.8,0,0,0-2.21-3.07c-.69-.75-1.4-1.29-1.93-1.12-1.39.46-.81,5.83-.81,5.83S4.49,43.53,4.5,45a.66.66,0,0,0,.06.27,3.13,3.13,0,0,0,1.62,1.19l.48.2a22,22,0,0,0,3.14.91s-.52,5.38.88,5.83,4.08-4.25,4.08-4.25,5,2.16,5.81,1-2.77-5.19-2.77-5.19S21.38,40.88,20.51,39.69Z"/><path class="cls-2" d="M41.28,23.25a44,44,0,0,0,2.91-5.61c.26-1.13-.58-1.86-1.72-2.3s-2.25-.46-2.81.56A42.87,42.87,0,0,0,38.06,22C37.7,23.61,40.47,24.68,41.28,23.25Z"/><path class="cls-2" d="M50.84,33a36.69,36.69,0,0,0,4.94-1.53c.8-.5.75-1.4.35-2.32s-1-1.57-1.94-1.32a37.4,37.4,0,0,0-4.48,2.58C48.58,31.12,49.55,33.34,50.84,33Z"/><path class="cls-2" d="M15.16,25.63c1.11.74,2.75-1.05,1.9-2.09a38.17,38.17,0,0,0-3.41-3.88c-.79-.53-1.59-.11-2.26.63s-1,1.58-.41,2.31A36.36,36.36,0,0,0,15.16,25.63Z"/><path class="cls-2" d="M28.67,19.51a54.74,54.74,0,0,0-1-7.66c-.52-1.31-1.87-1.46-3.31-1.12s-2.58,1.1-2.45,2.5a54.51,54.51,0,0,0,2.62,7.26C25.33,22.33,28.85,21.49,28.67,19.51Z"/><path class="cls-2" d="M12.81,28.68c-.67-.13-1.08.38-1.31,1.06s-.22,1.33.39,1.64a26.31,26.31,0,0,0,3.63.8c.95.17,1.51-1.48.66-1.92A26.32,26.32,0,0,0,12.81,28.68Z"/><path class="cls-2" d="M48.31,22.55a31,31,0,0,0,3.45-2.76c.48-.65.16-1.35-.45-2s-1.31-.92-2-.44a32.63,32.63,0,0,0-2.76,3.46C45.92,21.77,47.39,23.23,48.31,22.55Z"/></g></g></svg>