<svg xmlns="http://www.w3.org/2000/svg" viewBox="0 0 64 64"><defs><style>.cls-1{opacity:0;}.cls-2{fill:#1a1a1a;}.cls-3{fill:#fff;}.cls-4{fill:#cef;}.cls-5{fill:#96dbff;}.cls-6{fill:#37b9ff;}</style></defs><title>Rag Outline</title><g id="Layer_2" data-name="Layer 2"><g id="Layer_3" data-name="Layer 3"><g class="cls-1"><rect class="cls-2" width="64" height="64"/></g><path class="cls-2" d="M58.87,11.41l-.14-.08-.48-.22-.14,0A102.46,102.46,0,0,0,40.86,6.79a92.65,92.65,0,0,1-16-4,11.27,11.27,0,0,0-5.11-1.28,8.36,8.36,0,0,0-7.3,3.88l-.08.13L12.08,6,12,6.13a73.86,73.86,0,0,0-4,13.18l-.17.7c-1.26,5.43-2.57,11-5.27,16.65a12.55,12.55,0,0,0-1.89,9,8.7,8.7,0,0,0,3.91,5.62l.15.1.58.29.16.07c7.63,3,15.41,4.14,22.93,5.23,6.7,1,13,1.9,18.93,4.06a11.26,11.26,0,0,0,5.29,1.4A9,9,0,0,0,56,61.84a8.46,8.46,0,0,0,5-5.69L61,56l.1-.43v-.12a82.84,82.84,0,0,0,.8-9.73C62,43.17,62,40.69,62,38c0-5.42-.06-10.54.92-14.86C64.28,19.22,63.37,13.91,58.87,11.41Z"/><path class="cls-3" d="M8.83,40.08l-.1.18a5.72,5.72,0,0,0-1.07,4,1.62,1.62,0,0,0,.62,1C15.09,47.9,22.4,49,29.47,50s14.07,2,20.79,4.58l.24.12a3.57,3.57,0,0,0,2.87.57,1.29,1.29,0,0,0,.76-.92A71.63,71.63,0,0,0,54.78,47c-2,.52-22.21,5.24-21.86-11.45.31-15.23-5.08-22.92-17.33-17.28-.27,1.1-.53,2.22-.8,3.35C13.42,27.54,12,33.65,8.83,40.08Z"/><path class="cls-3" d="M32.92,35.55c-.35,16.69,19.82,12,21.86,11.45.13-3.06.12-6.06.1-9,0-6-.07-11.68,1.19-16.91l.08-.25c.4-.92.45-2.49-.64-3.18a95.67,95.67,0,0,0-15.94-3.9C33.75,12.68,27.73,11.56,22,9.31l-.19-.09C20.6,8.57,19,8.36,18.47,9.1a58.44,58.44,0,0,0-2.88,9.17C27.84,12.63,33.23,20.32,32.92,35.55Z"/><path class="cls-4" d="M32.92,35.55c-.35,16.69,19.82,12,21.86,11.45.13-3.06.12-6.06.1-9,0-6-.07-11.68,1.19-16.91l.08-.25c.4-.92.45-2.49-.64-3.18a95.67,95.67,0,0,0-15.94-3.9C33.75,12.68,27.73,11.56,22,9.31l-.19-.09C20.6,8.57,19,8.36,18.47,9.1a58.44,58.44,0,0,0-2.88,9.17C27.84,12.63,33.23,20.32,32.92,35.55Z"/><path class="cls-5" d="M54.78,47a71.63,71.63,0,0,1-.65,7.34,1.29,1.29,0,0,1-.76.92,3.57,3.57,0,0,1-2.87-.57l-.24-.12C43.54,52,36.39,51,29.47,50S15.09,47.9,8.28,45.24a1.62,1.62,0,0,1-.62-1,5.72,5.72,0,0,1,1.07-4l.1-.18c3.16-6.43,4.59-12.54,6-18.46.27-1.13.53-2.25.8-3.35a36.77,36.77,0,0,0-3.65,1.95c0,.24-.11.47-.16.7-1.33,5.72-2.71,11.63-5.68,17.7a8.67,8.67,0,0,0-1.46,6.24,4.65,4.65,0,0,0,2.1,3.07l.25.13c7.19,2.84,14.74,3.93,22,5,7,1,13.65,2,20,4.36a7.3,7.3,0,0,0,3.62,1,5,5,0,0,0,1.86-.34,4.46,4.46,0,0,0,2.61-3l0-.19a81.24,81.24,0,0,0,.75-9.27L55,47Z"/><path class="cls-6" d="M58,38c0-5.76-.06-11.21,1.08-16,.94-2.34.53-5.55-2.13-7l-.21-.1a99.3,99.3,0,0,0-16.58-4.08c-5.64-1.05-11.48-2.13-17-4.26-2.91-1.57-6-1.13-7.37,1.07l-.11.2a72.48,72.48,0,0,0-3.75,12.49,36.77,36.77,0,0,1,3.65-1.95A58.44,58.44,0,0,1,18.47,9.1c.57-.74,2.13-.53,3.29.12l.19.09c5.78,2.25,11.8,3.37,17.62,4.45a95.67,95.67,0,0,1,15.94,3.9c1.09.69,1,2.26.64,3.18l-.08.25C54.81,26.32,54.84,32,54.88,38c0,2.94,0,5.94-.1,9L55,47l3-1.33C58,43,58,40.49,58,38Z"/></g></g></svg>