<svg xmlns="http://www.w3.org/2000/svg" viewBox="0 0 64 64"><defs><style>.cls-1,.cls-2{fill:#1a1a1a;}.cls-1{opacity:0;}.cls-3{isolation:isolate;}.cls-4{fill:#666;}.cls-5{fill:#404040;}.cls-6{fill:#37b9ff;}.cls-7{fill:#96dbff;}.cls-8{fill:#fff;}</style></defs><title>Spectate Outline</title><g id="Layer_2" data-name="Layer 2"><g id="Finals"><rect class="cls-1" width="64" height="64"/><path class="cls-2" d="M62.32,30.61a16.1,16.1,0,0,0-2.27-3.88l-5.29-6.57a13.64,13.64,0,0,0-2.12-2.11,13.35,13.35,0,0,0-2.55-1.61,13.62,13.62,0,0,0-1.48-.62l-1.08-1.34a9.3,9.3,0,0,0-5.13-3.22,9.49,9.49,0,0,0-5.77.49,9.25,9.25,0,0,0-3,2,9.76,9.76,0,0,0-1.29,1.59H32a5.62,5.62,0,0,0-.58,0,9.08,9.08,0,0,0-1.3-1.61,9.25,9.25,0,0,0-3-2,9.49,9.49,0,0,0-5.77-.49,9.43,9.43,0,0,0-3.69,1.79,10.25,10.25,0,0,0-1.44,1.43L15.06,16a10.57,10.57,0,0,0-1.14.49,13.6,13.6,0,0,0-4.68,3.72l-5.3,6.58a15.51,15.51,0,0,0-2.26,3.87,16,16,0,0,0,.24,12.65,16.3,16.3,0,0,0,3.59,5.08A16.57,16.57,0,0,0,17,53a16.37,16.37,0,0,0,6.31-1.25,16.13,16.13,0,0,0,5.17-3.42A15.88,15.88,0,0,0,32,43.22a15.88,15.88,0,0,0,3.49,5.09,16.13,16.13,0,0,0,5.17,3.42A16.37,16.37,0,0,0,47,53a16.57,16.57,0,0,0,11.52-4.64,16.3,16.3,0,0,0,3.59-5.08A16.08,16.08,0,0,0,63.5,37,15.87,15.87,0,0,0,62.32,30.61Z"/><g class="cls-3"><path class="cls-4" d="M28.87,20.72l-.31,4.47a.41.41,0,0,1,0-.11v-.36A6.59,6.59,0,0,0,28,22.13a6.86,6.86,0,0,0-3.63-3.58A6.89,6.89,0,0,0,21.76,18l1.74-3a5.38,5.38,0,0,1,2.09.42,5.48,5.48,0,0,1,2.87,2.84,5.23,5.23,0,0,1,.42,2.06v.19a.28.28,0,0,1,0,.09Z"/><path class="cls-5" d="M16.53,20.51,19.36,17a5.58,5.58,0,0,1,1.8-1.44,5.3,5.3,0,0,1,1.12-.39A5.43,5.43,0,0,1,23.5,15l-1.74,3a6.58,6.58,0,0,0-1.55.18,6.22,6.22,0,0,0-1.41.5,6.54,6.54,0,0,0-2.27,1.81Z"/><path class="cls-5" d="M21.76,18a6.89,6.89,0,0,1,2.65.53A6.86,6.86,0,0,1,28,22.13a6.59,6.59,0,0,1,.53,2.59,6.33,6.33,0,0,1-.52,2.58,6.54,6.54,0,0,1-1.43,2.09,6.64,6.64,0,0,1-2.12,1.4,6.73,6.73,0,0,1-2.6.51,6.84,6.84,0,0,1-4.75-1.91,6.68,6.68,0,0,1-1.48-2.09,6.54,6.54,0,0,1-.58-2.58,6.39,6.39,0,0,1,.48-2.59A6.49,6.49,0,0,1,17,20a6.68,6.68,0,0,1,4.78-2Z"/></g><g class="cls-3"><path class="cls-4" d="M44.41,17l2.84,3.52A6.45,6.45,0,0,0,45,18.7a6.05,6.05,0,0,0-1.41-.5A6.55,6.55,0,0,0,42,18l-1.75-3a5.43,5.43,0,0,1,1.22.14,5.11,5.11,0,0,1,1.12.39,5.71,5.71,0,0,1,1,.63A5.17,5.17,0,0,1,44.41,17Z"/><path class="cls-5" d="M35.21,25.19c-.1-1.49-.2-3-.31-4.47v-.1a.28.28,0,0,0,0-.09v-.19a5.23,5.23,0,0,1,.42-2.06,5.4,5.4,0,0,1,5-3.26L42,18a6.94,6.94,0,0,0-2.66.53A7.12,7.12,0,0,0,37.19,20a7,7,0,0,0-1.46,2.13,6.59,6.59,0,0,0-.53,2.59V25a.49.49,0,0,0,0,.12Z"/><path class="cls-5" d="M42,18a6.64,6.64,0,0,1,4.77,2,6.55,6.55,0,0,1,1.31,7.3,6.82,6.82,0,0,1-1.47,2.09,7,7,0,0,1-2.15,1.4,6.9,6.9,0,0,1-2.61.51,6.77,6.77,0,0,1-2.6-.51,6.59,6.59,0,0,1-3.55-3.49,6.5,6.5,0,0,1-.52-2.58,6.59,6.59,0,0,1,.53-2.59A7,7,0,0,1,37.19,20a7.12,7.12,0,0,1,2.17-1.45A6.94,6.94,0,0,1,42,18Z"/></g><polygon class="cls-4" points="44.35 22.05 41.05 16.36 45.15 18.43 46.79 20 44.35 22.05"/><path class="cls-5" d="M34.73,37.75l-.57-8.23a1,1,0,0,0,0-.17v-.17a1,1,0,0,1,0-.17v-.18A9.62,9.62,0,0,1,34.92,25,9.76,9.76,0,0,1,37,21.93a10,10,0,0,1,3.15-2.11A9.84,9.84,0,0,1,44,19.05l3.2,5.52a12.58,12.58,0,0,0-4.88,1,12.56,12.56,0,0,0-6.67,6.57,12.26,12.26,0,0,0-1,4.77,1.48,1.48,0,0,0,0,.21v.22c0,.07,0,.14,0,.22S34.73,37.68,34.73,37.75Z"/><path class="cls-4" d="M29.84,29.52l-.57,8.23c0-.07,0-.14,0-.21s0-.15,0-.22V37.1c0-.07,0-.14,0-.21a12.26,12.26,0,0,0-1-4.77,12.6,12.6,0,0,0-11.55-7.55L20,19.05a9.84,9.84,0,0,1,3.85.77A10,10,0,0,1,27,21.93,9.76,9.76,0,0,1,29.08,25a9.62,9.62,0,0,1,.78,3.79V29a1,1,0,0,1,0,.17v.17A1,1,0,0,0,29.84,29.52Z"/><path class="cls-4" d="M51.65,22.67l5.2,6.46a12.24,12.24,0,0,0-4.17-3.32,12.16,12.16,0,0,0-2.6-.92,12.61,12.61,0,0,0-2.84-.32L44,19.05a10.32,10.32,0,0,1,2.24.25,9.83,9.83,0,0,1,3.86,1.87A10.2,10.2,0,0,1,51.65,22.67Z"/><path class="cls-4" d="M47.24,24.57a12.36,12.36,0,0,1,4.85,1A12,12,0,0,1,59.5,36.89a12.26,12.26,0,0,1-1.07,4.73,12.39,12.39,0,0,1-2.71,3.84A12.6,12.6,0,0,1,47,49,12.61,12.61,0,0,1,42.19,48a12.13,12.13,0,0,1-3.89-2.58,12,12,0,0,1-3.6-8.57,12.26,12.26,0,0,1,1-4.77,12.6,12.6,0,0,1,11.55-7.55Z"/><path class="cls-6" d="M47,45.53a9,9,0,0,1-3.46-.68A8.77,8.77,0,0,1,40.72,43a8.43,8.43,0,0,1-1.88-2.74,8.67,8.67,0,0,1,0-6.78,9.06,9.06,0,0,1,1.94-2.82A9.12,9.12,0,0,1,47.24,28a8.93,8.93,0,0,1,6.33,2.61,8.66,8.66,0,0,1,1.85,2.79,8.38,8.38,0,0,1,.62,3.4,8.59,8.59,0,0,1-.76,3.38,8.79,8.79,0,0,1-2,2.77,9.12,9.12,0,0,1-2.87,1.87A9,9,0,0,1,47,45.53Z"/><path class="cls-5" d="M7.15,29.13l5.2-6.46a9.71,9.71,0,0,1,5.37-3.37A10.32,10.32,0,0,1,20,19.05l-3.2,5.52a12.61,12.61,0,0,0-2.84.32,12.16,12.16,0,0,0-2.6.92,12.24,12.24,0,0,0-4.17,3.32Z"/><path class="cls-4" d="M16.76,24.57a12.58,12.58,0,0,1,4.88,1,12.56,12.56,0,0,1,6.67,6.57,12.26,12.26,0,0,1,1,4.77,12,12,0,0,1-3.6,8.57A12.13,12.13,0,0,1,21.81,48,12.61,12.61,0,0,1,17,49a12.6,12.6,0,0,1-8.75-3.52,12.39,12.39,0,0,1-2.71-3.84,12,12,0,0,1,6.34-16.07A12.36,12.36,0,0,1,16.76,24.57Z"/><path class="cls-6" d="M17,45.53a9,9,0,0,1-3.48-.69A9.12,9.12,0,0,1,10.68,43a8.79,8.79,0,0,1-2-2.77A8.59,8.59,0,0,1,8,36.82a8.38,8.38,0,0,1,.62-3.4,8.66,8.66,0,0,1,1.85-2.79A8.93,8.93,0,0,1,16.76,28a9.18,9.18,0,0,1,3.55.71,9.39,9.39,0,0,1,2.89,1.93,9,9,0,0,1,1.94,2.83,8.65,8.65,0,0,1,0,6.77A8.43,8.43,0,0,1,23.28,43a8.77,8.77,0,0,1-2.79,1.85A9,9,0,0,1,17,45.53Z"/><polygon class="cls-4" points="22.92 16.02 19.96 21.12 29.08 25.04 28.39 21.12 22.92 16.02"/><path class="cls-5" d="M35.48,22.24l.93,5.22a4.39,4.39,0,0,0-1.52-2.62,4.36,4.36,0,0,0-1.32-.77A4.55,4.55,0,0,0,32,23.79V19.34a3.41,3.41,0,0,1,1.24.22,3.49,3.49,0,0,1,1.82,1.53A3.31,3.31,0,0,1,35.48,22.24Z"/><path class="cls-5" d="M27.59,27.46l.93-5.22a3.31,3.31,0,0,1,.42-1.15,3.49,3.49,0,0,1,1.82-1.53A3.41,3.41,0,0,1,32,19.34v4.45a4.55,4.55,0,0,0-1.57.28,4.36,4.36,0,0,0-1.32.77,4.39,4.39,0,0,0-1.52,2.62Z"/><path class="cls-5" d="M32,23.79a4.5,4.5,0,0,1,4.13,2.72,4.58,4.58,0,0,1,.35,1.74A4.39,4.39,0,0,1,36.12,30a4.52,4.52,0,0,1-1,1.41,4.51,4.51,0,0,1-4.9.94,4.29,4.29,0,0,1-1.42-.94,4.43,4.43,0,0,1-1-4.88A4.47,4.47,0,0,1,32,23.79Z"/><path class="cls-7" d="M47,42.41a6.93,6.93,0,0,1-2.68-.53,7,7,0,0,1-2.17-1.43,6.78,6.78,0,0,1-1.45-2.12,6.68,6.68,0,0,1,0-5.26,6.9,6.9,0,0,1,1.5-2.19,7,7,0,0,1,2.24-1.49,7.18,7.18,0,0,1,2.75-.55,6.82,6.82,0,0,1,2.72.55,6.61,6.61,0,0,1,2.18,1.47A6.55,6.55,0,0,1,54,35.66a6.42,6.42,0,0,1-.59,2.62,6.85,6.85,0,0,1-1.52,2.15,7,7,0,0,1-2.22,1.45A7.14,7.14,0,0,1,47,42.41Z"/><path class="cls-7" d="M17,42.41a7.14,7.14,0,0,1-2.7-.53,7,7,0,0,1-2.22-1.45,6.85,6.85,0,0,1-1.52-2.15A6.42,6.42,0,0,1,10,35.66a6.55,6.55,0,0,1,1.92-4.8,6.61,6.61,0,0,1,2.18-1.47,6.82,6.82,0,0,1,2.72-.55,7.18,7.18,0,0,1,2.75.55,7,7,0,0,1,2.24,1.49,6.9,6.9,0,0,1,1.5,2.19,6.68,6.68,0,0,1,0,5.26,6.78,6.78,0,0,1-1.45,2.12,7,7,0,0,1-2.17,1.43A6.93,6.93,0,0,1,17,42.41Z"/><path class="cls-8" d="M15.28,35.89c-1.49,1.49-3.4,2-4.58.81s-.92-3.34.57-4.83,3.65-1.74,4.83-.56S16.77,34.4,15.28,35.89Z"/><path class="cls-8" d="M45.49,35.89c-1.49,1.49-3.41,2-4.58.81s-.92-3.34.57-4.83,3.65-1.74,4.82-.56S47,34.4,45.49,35.89Z"/></g></g></svg>