<svg xmlns="http://www.w3.org/2000/svg" viewBox="0 0 64 64"><defs><style>.cls-1,.cls-2{fill:#1a1a1a;}.cls-1{opacity:0;}</style></defs><title>Spectate Black</title><g id="Layer_2" data-name="Layer 2"><g id="Finals"><rect class="cls-1" width="64" height="64"/><path class="cls-2" d="M58.6,32.12a12.19,12.19,0,0,0-1.78-3c-1.63-2-3.41-4.27-5.11-6.34a10.32,10.32,0,0,0-2.91-2.48c-1-.54-2.21-.58-2.9-1.43-1.31-1.63-2.49-3.37-4.72-3.75a5.42,5.42,0,0,0-6.28,5.78,3.56,3.56,0,0,0-6.09.44c.19-2.68-1-5.22-3.73-6.06s-4.83.6-6.46,2.63c-.51.62-.9,1.38-1.67,1.63a9.7,9.7,0,0,0-4.38,2.87c-.88,1-1.69,2.08-2.53,3.12S8,28,7.15,29.11A12.24,12.24,0,0,0,8.51,45.7a12.66,12.66,0,0,0,16.69.22,12,12,0,0,0,4.08-9q0,.44,0,.87l.4-5.74a4.46,4.46,0,0,0,4.67,0c.13,1.91.27,3.83.4,5.74q0-.43,0-.87c0,7.68,7.32,13.33,14.74,11.85S61.5,39.22,58.6,32.12ZM25.14,40.27a8.89,8.89,0,0,1-8.84,5.24,9.18,9.18,0,0,1-8-6.28,8.64,8.64,0,0,1,3.27-9.59,9.2,9.2,0,0,1,10.36,0A8.83,8.83,0,0,1,25.14,40.27Zm30.13-.06a9.22,9.22,0,0,1-8.68,5.32A8.66,8.66,0,0,1,42,29.65a9.21,9.21,0,0,1,10.1-.19A8.66,8.66,0,0,1,55.27,40.21Z"/></g></g></svg>