<svg xmlns="http://www.w3.org/2000/svg" viewBox="0 0 64 64"><defs><style>.cls-1{opacity:0;}.cls-2{fill:#1a1a1a;}.cls-3{fill:#bb5938;}.cls-4{fill:#39b54a;}.cls-5{fill:#65d666;}.cls-6{fill:#9c3d29;}</style></defs><title>Palm Tree_1 Outline</title><g id="Layer_2" data-name="Layer 2"><g id="Layer_3" data-name="Layer 3"><g class="cls-1"><rect class="cls-2" width="64" height="64"/></g><path class="cls-2" d="M61.49,23.12A17.93,17.93,0,0,0,48.77,10.65a17,17,0,0,0-3.09-.51,5.74,5.74,0,0,0,.49-.4A5.15,5.15,0,0,0,47,3.11,6,6,0,0,0,42.48.69l-.18,0a16.24,16.24,0,0,0-5.58.18,16.16,16.16,0,0,0-11.83,10,18.23,18.23,0,0,0-5.23-.76,17.82,17.82,0,0,0-16,10l-.11.22c-1.75,3.43-1.61,6.11.41,8a5,5,0,0,0,3.36,1.29,6.33,6.33,0,0,0,.76-.05A17.7,17.7,0,0,0,11.55,47c1.67,1.91,3.73,3.85,6.35,3.85a4.91,4.91,0,0,0,4.21-2.34,6.15,6.15,0,0,0,.4-5.15c0-.1-.06-.21-.07-.23a10,10,0,0,1-.07-2.2,12.47,12.47,0,0,1,1.36-4.68,13.65,13.65,0,0,1,2.42-3.36c-.19,1.94-.49,4-.9,6.42a137.18,137.18,0,0,1-4.12,16.84,4.91,4.91,0,0,0,2.47,6.26,11.23,11.23,0,0,0,5.16,1.06h.33a23.4,23.4,0,0,0,3-.2l.21,0a6.53,6.53,0,0,0,4.66-2.13A5.8,5.8,0,0,0,38,58.62v0c.2-.67.38-1.35.56-2,.4-1.54.77-3.12,1.08-4.7a74.2,74.2,0,0,0,1.21-8.8c.13-1.67.19-3.28.19-4.82a12.24,12.24,0,0,1,.5,2.28,10.45,10.45,0,0,1,.05,2c0,.12-.09.45-.15.7a10.13,10.13,0,0,0-.39,2.54,5.05,5.05,0,0,0,5.09,5.11,5.35,5.35,0,0,0,2.41-.58,12.71,12.71,0,0,0,3.17-2.51A17.91,17.91,0,0,0,56,29.59l0-.07a4.21,4.21,0,0,0,.62,0h0a5.22,5.22,0,0,0,.78-.06,5.09,5.09,0,0,0,4.11-6.38Z"/><path class="cls-3" d="M30.21,23.54c.88,7.53-1,20.11-5.47,34.52,0,.68,1.16,1.29,3.67,1.42,1.79.1,5.4-.27,5.44-.95C38.83,42.43,38.29,23.32,30.21,23.54Z"/><path class="cls-4" d="M50.58,27.51a13.86,13.86,0,0,0-19.2-3.87,1.1,1.1,0,0,0-.45,1.17,1.06,1.06,0,0,0,.94.82,15.57,15.57,0,0,1,10.91,7.08A15.57,15.57,0,0,1,45.11,45.5a1.09,1.09,0,0,0,.39,1.19,1.12,1.12,0,0,0,.65.21,1.14,1.14,0,0,0,.61-.18A13.9,13.9,0,0,0,50.58,27.51Z"/><path class="cls-5" d="M57.64,24.19a13.87,13.87,0,0,0-26.7,0,1.08,1.08,0,0,0,.41,1.18,1.07,1.07,0,0,0,.64.21,1,1,0,0,0,.6-.19,21.76,21.76,0,0,1,23.39,0,1.07,1.07,0,0,0,.61.19,1.09,1.09,0,0,0,.64-.21A1.1,1.1,0,0,0,57.64,24.19Z"/><path class="cls-5" d="M43.87,5.83a1.11,1.11,0,0,0-.82-1,12.41,12.41,0,0,0-3-.38,12.23,12.23,0,0,0-8.77,20.75,1.11,1.11,0,0,0,.78.33,1,1,0,0,0,.44-.1,1.08,1.08,0,0,0,.65-1.06,18.26,18.26,0,0,1,2.52-10.23,18.19,18.19,0,0,1,7.63-7.27A1.1,1.1,0,0,0,43.87,5.83Z"/><path class="cls-4" d="M17.82,46.9a1.14,1.14,0,0,1-.61-.18A13.87,13.87,0,0,1,32.59,23.64,1.1,1.1,0,0,1,33,24.81a1.06,1.06,0,0,1-.94.82,15.57,15.57,0,0,0-10.91,7.08A15.57,15.57,0,0,0,18.86,45.5a1.09,1.09,0,0,1-.39,1.19A1.12,1.12,0,0,1,17.82,46.9Z"/><path class="cls-5" d="M33,24.19a13.87,13.87,0,0,0-26.7,0,1.1,1.1,0,0,0,.41,1.18,1.09,1.09,0,0,0,.64.21A1.07,1.07,0,0,0,8,25.39,21.1,21.1,0,0,1,19.68,22a21.14,21.14,0,0,1,11.7,3.41,1,1,0,0,0,.61.19,1.06,1.06,0,0,0,.63-.21A1.08,1.08,0,0,0,33,24.19Z"/><path class="cls-6" d="M28.79,51.92a4,4,0,0,1-2.09-.63q-.89,3.3-2,6.77c0,.68,1.16,1.29,3.67,1.42,1.79.1,5.4-.27,5.44-.95A68.09,68.09,0,0,0,37,35.4C36.36,44.75,32.93,51.92,28.79,51.92Z"/></g></g></svg>