<svg xmlns="http://www.w3.org/2000/svg" viewBox="0 0 64 64"><defs><style>.cls-1{opacity:0;}.cls-2{fill:#fff;}.cls-3{fill:#bb5938;}.cls-4{fill:#39b54a;}.cls-5{fill:#65d666;}.cls-6{fill:#9c3d29;}</style></defs><title>Palm Tree</title><g id="Layer_2" data-name="Layer 2"><g id="Layer_3" data-name="Layer 3"><g class="cls-1"><rect class="cls-2" width="64" height="64"/></g><path class="cls-3" d="M30.21,23.54c.88,7.53-1,20.11-5.47,34.52,0,.68,1.16,1.29,3.67,1.42,1.79.1,5.4-.27,5.44-.95C38.83,42.43,38.29,23.32,30.21,23.54Z"/><path class="cls-4" d="M50.58,27.51a13.86,13.86,0,0,0-19.2-3.87,1.1,1.1,0,0,0-.45,1.17,1.06,1.06,0,0,0,.94.82,15.57,15.57,0,0,1,10.91,7.08A15.57,15.57,0,0,1,45.11,45.5a1.09,1.09,0,0,0,.39,1.19,1.12,1.12,0,0,0,.65.21,1.14,1.14,0,0,0,.61-.18A13.9,13.9,0,0,0,50.58,27.51Z"/><path class="cls-5" d="M57.64,24.19a13.87,13.87,0,0,0-26.7,0,1.08,1.08,0,0,0,.41,1.18,1.07,1.07,0,0,0,.64.21,1,1,0,0,0,.6-.19,21.76,21.76,0,0,1,23.39,0,1.07,1.07,0,0,0,.61.19,1.09,1.09,0,0,0,.64-.21A1.1,1.1,0,0,0,57.64,24.19Z"/><path class="cls-5" d="M43.87,5.83a1.11,1.11,0,0,0-.82-1,12.41,12.41,0,0,0-3-.38,12.23,12.23,0,0,0-8.77,20.75,1.11,1.11,0,0,0,.78.33,1,1,0,0,0,.44-.1,1.08,1.08,0,0,0,.65-1.06,18.26,18.26,0,0,1,2.52-10.23,18.19,18.19,0,0,1,7.63-7.27A1.1,1.1,0,0,0,43.87,5.83Z"/><path class="cls-4" d="M17.82,46.9a1.14,1.14,0,0,1-.61-.18A13.87,13.87,0,0,1,32.59,23.64,1.1,1.1,0,0,1,33,24.81a1.06,1.06,0,0,1-.94.82,15.57,15.57,0,0,0-10.91,7.08A15.57,15.57,0,0,0,18.86,45.5a1.09,1.09,0,0,1-.39,1.19A1.12,1.12,0,0,1,17.82,46.9Z"/><path class="cls-5" d="M33,24.19a13.87,13.87,0,0,0-26.7,0,1.1,1.1,0,0,0,.41,1.18,1.09,1.09,0,0,0,.64.21A1.07,1.07,0,0,0,8,25.39,21.1,21.1,0,0,1,19.68,22a21.14,21.14,0,0,1,11.7,3.41,1,1,0,0,0,.61.19,1.06,1.06,0,0,0,.63-.21A1.08,1.08,0,0,0,33,24.19Z"/><path class="cls-6" d="M28.79,51.92a4,4,0,0,1-2.09-.63q-.89,3.3-2,6.77c0,.68,1.16,1.29,3.67,1.42,1.79.1,5.4-.27,5.44-.95A68.09,68.09,0,0,0,37,35.4C36.36,44.75,32.93,51.92,28.79,51.92Z"/></g></g></svg>