<svg xmlns="http://www.w3.org/2000/svg" viewBox="0 0 64 64"><defs><style>.cls-1,.cls-5{fill:#1a1a1a;}.cls-1{opacity:0;}.cls-2{fill:#ba2d3e;}.cls-3{fill:#e62e49;}.cls-4{fill:#fff;}</style></defs><title>X Button Outline</title><g id="Layer_2" data-name="Layer 2"><g id="Layer_3" data-name="Layer 3"><rect class="cls-1" width="64" height="64"/><rect class="cls-2" x="9" y="6.5" width="46" height="51" rx="5"/><rect class="cls-3" x="9" y="6.5" width="46" height="46" rx="5"/><path class="cls-4" d="M37.91,29.5,44.46,23a1.17,1.17,0,0,0,0-1.63L40.18,17a1.17,1.17,0,0,0-1.63,0L32,23.59,25.45,17a1.17,1.17,0,0,0-1.63,0l-4.28,4.28a1.17,1.17,0,0,0,0,1.63l6.55,6.55-6.55,6.55a1.17,1.17,0,0,0,0,1.63L23.82,42a1.17,1.17,0,0,0,1.63,0L32,35.41,38.55,42a1.17,1.17,0,0,0,1.63,0l4.28-4.28a1.17,1.17,0,0,0,0-1.63Z"/><path class="cls-5" d="M50,6.5a5,5,0,0,1,5,5v41a5,5,0,0,1-5,5H14a5,5,0,0,1-5-5v-41a5,5,0,0,1,5-5H50m0-4H14a9,9,0,0,0-9,9v41a9,9,0,0,0,9,9H50a9,9,0,0,0,9-9v-41a9,9,0,0,0-9-9Z"/></g></g></svg>