<svg xmlns="http://www.w3.org/2000/svg" viewBox="0 0 64 64"><defs><style>.cls-1,.cls-2{fill:#1a1a1a;}.cls-1{opacity:0;}</style></defs><title>X Button Flat Black</title><g id="Layer_2" data-name="Layer 2"><g id="Layer_3" data-name="Layer 3"><rect class="cls-1" width="64" height="64"/><path class="cls-2" d="M50,9H14a5,5,0,0,0-5,5V50a5,5,0,0,0,5,5H50a5,5,0,0,0,5-5V14A5,5,0,0,0,50,9ZM44.46,38.55a1.17,1.17,0,0,1,0,1.63l-4.28,4.28a1.17,1.17,0,0,1-1.63,0L32,37.91l-6.55,6.55a1.17,1.17,0,0,1-1.63,0l-4.28-4.28a1.17,1.17,0,0,1,0-1.63L26.09,32l-6.55-6.55a1.17,1.17,0,0,1,0-1.63l4.28-4.28a1.17,1.17,0,0,1,1.63,0L32,26.09l6.55-6.55a1.17,1.17,0,0,1,1.63,0l4.28,4.28a1.17,1.17,0,0,1,0,1.63L37.91,32Z"/></g></g></svg>