<svg xmlns="http://www.w3.org/2000/svg" viewBox="0 0 64 64"><defs><style>.cls-1,.cls-2{fill:#1a1a1a;}.cls-1{opacity:0;}.cls-3{fill:#ba2d3e;}.cls-4{fill:#e62e49;}.cls-5{fill:#fff;}</style></defs><title>X Button 2 Outline</title><g id="Layer_2" data-name="Layer 2"><g id="Layer_3" data-name="Layer 3"><rect class="cls-1" width="64" height="64"/><path class="cls-2" d="M32,61.5a27,27,0,0,1-27-27v-5a27,27,0,0,1,54,0v5A27,27,0,0,1,32,61.5Z"/><path class="cls-3" d="M32,6.5a23,23,0,0,0-23,23v5a23,23,0,0,0,46,0v-5A23,23,0,0,0,32,6.5Z"/><circle class="cls-4" cx="32" cy="29.5" r="23"/><path class="cls-5" d="M37.91,29.5,44.46,23a1.17,1.17,0,0,0,0-1.63L40.18,17a1.17,1.17,0,0,0-1.63,0L32,23.59,25.45,17a1.17,1.17,0,0,0-1.63,0l-4.28,4.28a1.17,1.17,0,0,0,0,1.63l6.55,6.55-6.55,6.55a1.17,1.17,0,0,0,0,1.63L23.82,42a1.17,1.17,0,0,0,1.63,0L32,35.41,38.55,42a1.17,1.17,0,0,0,1.63,0l4.28-4.28a1.17,1.17,0,0,0,0-1.63Z"/></g></g></svg>