<svg xmlns="http://www.w3.org/2000/svg" viewBox="0 0 64 64"><defs><style>.cls-1{opacity:0;}.cls-2{fill:#1a1a1a;}.cls-3{fill:#fdbc0d;}.cls-4{fill:#de6529;}.cls-5{fill:#fc9504;}.cls-6{fill:#fff;}</style></defs><title>Bell Outline </title><g id="Layer_2" data-name="Layer 2"><g id="Layer_3" data-name="Layer 3"><g class="cls-1"><rect class="cls-2" width="64" height="64"/></g><path class="cls-2" d="M57.69,42.66l-3.18-2.81V27.71A22.6,22.6,0,0,0,40.71,7,9.1,9.1,0,0,0,23.29,7,22.61,22.61,0,0,0,9.48,27.71V39.85L6.31,42.66a7.71,7.71,0,0,0,5.11,13.47h9.94a11.37,11.37,0,0,0,21.28,0h9.94a7.71,7.71,0,0,0,5.11-13.47Z"/><circle class="cls-3" cx="32" cy="9.6" r="5.1"/><circle class="cls-4" cx="32" cy="52.13" r="7.37"/><path class="cls-5" d="M55,45.66l-4.53-4V27.71a18.52,18.52,0,1,0-37,0V41.65L9,45.66a3.7,3.7,0,0,0-1.24,2.77h0a3.7,3.7,0,0,0,3.7,3.7H52.58a3.7,3.7,0,0,0,3.7-3.7h0A3.7,3.7,0,0,0,55,45.66Z"/><path class="cls-3" d="M13.48,27.71V38.45A10.09,10.09,0,0,0,17.07,42c6.39,3.69,15.75-.57,20.91-9.51s4.17-19.18-2.21-22.87l-.24-.12a18.52,18.52,0,0,0-22,18.18Z"/><path class="cls-6" d="M26,22.48c-2.4,3.12-5.07,5.09-7,3.58s-1.61-5.28.79-8.4,5.95-4.42,7.92-2.91S28.37,19.35,26,22.48Z"/></g></g></svg>