<svg xmlns="http://www.w3.org/2000/svg" viewBox="0 0 64 64"><defs><style>.cls-1{opacity:0;}.cls-2{fill:#1a1a1a;}</style></defs><title>Bell Black </title><g id="Layer_2" data-name="Layer 2"><g id="Layer_3" data-name="Layer 3"><g class="cls-1"><rect class="cls-2" width="64" height="64"/></g><path class="cls-2" d="M25.72,53.63a1,1,0,0,0-1,1.14,7.37,7.37,0,0,0,14.56,0,1,1,0,0,0-1-1.14Z"/><path class="cls-2" d="M55,42.16l-4.52-4V26.21A18.51,18.51,0,0,0,37.07,8.41c0-.11,0-.21,0-.31a5.1,5.1,0,1,0-10.2,0c0,.1,0,.2,0,.31a18.51,18.51,0,0,0-13.45,17.8V38.15L9,42.16a3.7,3.7,0,0,0-1.24,2.77h0a3.7,3.7,0,0,0,3.7,3.7H52.58a3.7,3.7,0,0,0,3.7-3.7h0A3.7,3.7,0,0,0,55,42.16Z"/></g></g></svg>