<?xml version="1.0" encoding="UTF-8"?>
<svg id="Layer_2" data-name="Layer 2" xmlns="http://www.w3.org/2000/svg" viewBox="0 0 64 64">
  <defs>
    <style>
      .cls-1 {
        fill: #ff8ca9;
      }

      .cls-1, .cls-2, .cls-3, .cls-4, .cls-5, .cls-6, .cls-7, .cls-8 {
        stroke-width: 0px;
      }

      .cls-2, .cls-3 {
        fill: #1a1a1a;
      }

      .cls-3 {
        opacity: 0;
      }

      .cls-4 {
        fill: #ffbdc6;
      }

      .cls-5 {
        fill: #ff608a;
      }

      .cls-6 {
        fill: #fff;
      }

      .cls-7 {
        fill: #96dbff;
      }

      .cls-8 {
        fill: #37b9ff;
      }
    </style>
  </defs>
  <g id="Exports_2" data-name="Exports 2">
    <g>
      <rect class="cls-3" width="64" height="64"/>
      <g>
        <path class="cls-2" d="M60.99,27.4c-1.62-4.98-6.6-8.02-15.19-9.25-.05-.16-.09-.32-.13-.48.99-.83,1.48-1.91,1.48-3.24V5.7c0-.38-.05-.75-.15-1.09-.76-3.48-5.48-4.11-15.02-4.11-10.46,0-15.13.75-15.13,5.2v8.73c0,1.02.31,2.22,1.46,3.2-.04.17-.08.35-.13.52-8.57,1.24-13.54,4.27-15.16,9.25-1.63,5.02.66,10.45,7,16.56-1.54,8.67-.2,14.41,4.07,17.51,1.84,1.34,4.03,2.02,6.48,2.02h0c3.07,0,6.9-1.21,11.43-3.6,4.52,2.39,8.36,3.6,11.43,3.6,2.46,0,4.64-.68,6.48-2.02,4.27-3.1,5.62-8.84,4.08-17.51,6.34-6.11,8.63-11.54,7-16.56Z"/>
        <path class="cls-6" d="M57.18,28.64c-1.21-3.72-6.01-6.01-14.29-6.81,0-.01-.01-.03-.02-.04-1.09-2.5-1.7-5.18-1.7-7.9v-5.17h-18.41v5.2c0,2.71-.56,5.39-1.64,7.87l-.02.04c-8.28.8-13.08,3.08-14.29,6.81-1.21,3.73,1.33,8.4,7.56,13.91-1.8,8.12-1.11,13.39,2.06,15.69,1.15.83,2.54,1.26,4.14,1.26,3.55,0,8.34-2.38,11.43-4.17,3.09,1.78,7.88,4.17,11.43,4.17,1.6,0,2.99-.42,4.13-1.26,3.17-2.3,3.86-7.58,2.06-15.69,6.23-5.51,8.77-10.18,7.56-13.91Z"/>
        <path class="cls-7" d="M52.82,30.06c-1.06-3.25-13.1-3.86-13.1-3.86,0,0,0-.02-.02-.05-1.42-3.64-2.17-7.52-2.17-11.43v-6h-11.14v6.12c0,3.88-.73,7.73-2.12,11.36h0s-12.05.62-13.1,3.86c-1.06,3.25,8.33,10.82,8.33,10.82,0,0-3.14,11.65-.38,13.65,2.76,2.01,12.87-4.58,12.87-4.58,0,0,10.11,6.58,12.87,4.58,2.76-2.01-.38-13.65-.38-13.65,0,0,9.38-7.58,8.33-10.82Z"/>
        <g>
          <path class="cls-1" d="M52.82,30.06c-.15-.45-.52-.85-1.04-1.21-.06.99-8.89,1.79-19.78,1.79s-19.72-.8-19.79-1.79c-.51.36-.89.75-1.04,1.21-1.06,3.25,8.33,10.82,8.33,10.82,0,0-3.14,11.65-.38,13.65,2.76,2.01,12.87-4.58,12.87-4.58,0,0,10.11,6.58,12.87,4.58,2.76-2.01-.38-13.65-.38-13.65,0,0,9.38-7.58,8.33-10.82Z"/>
          <path class="cls-4" d="M32,30.65c10.89,0,19.72-.8,19.78-1.79-.31-.22-.68-.41-1.09-.6-2.67-.71-10.03-1.22-18.7-1.22s-16.02.51-18.7,1.22c-.41.18-.78.38-1.09.6.06.99,8.89,1.79,19.79,1.79Z"/>
        </g>
        <g>
          <path class="cls-7" d="M55.08,25.65c-.79,1.27-1.67,2.54-2.62,3.8.16.19.29.39.36.61,1.06,3.25-8.33,10.82-8.33,10.82,0,0,3.14,11.65.38,13.65-2.76,2.01-12.87-4.58-12.87-4.58,0,0-10.11,6.58-12.87,4.58-.27-.2-.47-.51-.64-.87-1.49.47-2.96.86-4.4,1.19.5,1.46,1.27,2.61,2.35,3.4,1.15.83,2.54,1.26,4.14,1.26,3.55,0,8.34-2.38,11.43-4.17,3.09,1.78,7.88,4.17,11.43,4.17,1.6,0,2.99-.42,4.13-1.26,3.17-2.3,3.86-7.58,2.06-15.69,6.23-5.51,8.77-10.18,7.56-13.91-.37-1.13-1.07-2.13-2.1-3Z"/>
          <path class="cls-5" d="M37.76,43.71c-6.35,4.61-12.99,7.96-19.27,9.95.17.36.37.68.64.87,2.76,2.01,12.87-4.58,12.87-4.58,0,0,10.11,6.58,12.87,4.58,2.76-2.01-.38-13.65-.38-13.65,0,0,9.38-7.58,8.33-10.82-.07-.22-.2-.42-.36-.61-3.77,5.01-8.74,9.93-14.7,14.26Z"/>
        </g>
        <ellipse class="cls-6" cx="20.49" cy="31.82" rx="4.63" ry="2.74" transform="translate(-3.88 2.86) rotate(-7.31)"/>
        <g>
          <path class="cls-7" d="M26.4,14.84v-6.12h-3.64v5.2c0,1.32-.14,2.64-.4,3.93,1.16.49,2.4.92,3.7,1.29.2-1.43.33-2.86.33-4.31Z"/>
          <path class="cls-7" d="M41.17,8.72h-3.64v6c0,1.99.2,3.96.57,5.9,1.44-.03,2.85-.11,4.22-.26-.73-2.08-1.16-4.26-1.16-6.47v-5.17Z"/>
          <path class="cls-8" d="M26.07,19.15c3.37.95,7.18,1.5,11.22,1.5.28,0,.55-.02.82-.02-.38-1.94-.57-3.92-.57-5.9v-6h-11.14v6.12c0,1.45-.13,2.88-.33,4.31Z"/>
        </g>
        <g>
          <path class="cls-7" d="M20.85,5.7v8.73c0,.86,4.99,1.57,11.13,1.57s11.18-.71,11.18-1.57V5.7h-22.31Z"/>
          <path class="cls-6" d="M29.33,5.7h-8.49v8.73c0,.74,3.62,1.35,8.49,1.51V5.7Z"/>
          <ellipse class="cls-6" cx="31.98" cy="5.7" rx="11.13" ry="1.2"/>
        </g>
      </g>
    </g>
  </g>
</svg>