<?xml version="1.0" encoding="UTF-8"?>
<svg id="Layer_2" data-name="Layer 2" xmlns="http://www.w3.org/2000/svg" viewBox="0 0 64 64">
  <defs>
    <style>
      .cls-1 {
        opacity: 0;
      }

      .cls-2 {
        fill: #fff;
        stroke-width: 0px;
      }
    </style>
  </defs>
  <g id="Exports_2" data-name="Exports 2">
    <g>
      <g class="cls-1">
        <rect class="cls-2" width="64" height="64"/>
      </g>
      <g>
        <path class="cls-2" d="M60.99,27.4c-1.62-4.98-6.6-8.02-15.19-9.25-.05-.16-.09-.32-.13-.48.99-.83,1.48-1.91,1.48-3.24V5.7c0-.38-.05-.75-.15-1.09-.76-3.48-5.48-4.11-15.02-4.11-10.46,0-15.13.75-15.13,5.2v8.73c0,1.02.31,2.22,1.46,3.2-.04.17-.08.35-.13.52-8.57,1.24-13.54,4.27-15.16,9.25-1.63,5.02.66,10.45,7,16.56-1.54,8.67-.2,14.41,4.07,17.51,1.84,1.34,4.03,2.02,6.48,2.02h0c3.07,0,6.9-1.21,11.43-3.6,4.52,2.39,8.36,3.6,11.43,3.6,2.46,0,4.64-.68,6.48-2.02,4.27-3.1,5.62-8.84,4.08-17.51,6.34-6.11,8.63-11.54,7-16.56ZM49.62,42.55c1.8,8.12,1.11,13.39-2.06,15.69-1.15.83-2.54,1.26-4.13,1.26-3.55,0-8.34-2.38-11.43-4.17-3.09,1.78-7.87,4.17-11.43,4.17-1.6,0-2.99-.42-4.14-1.26-3.17-2.3-3.86-7.57-2.06-15.69-6.23-5.51-8.77-10.18-7.56-13.91,1.21-3.72,6.01-6.01,14.29-6.81l.02-.04c.9-2.06,1.41-4.26,1.57-6.5-1.17-.25-1.85-.54-1.85-.86V5.7c0-.66,4.98-1.2,11.13-1.2s11.13.54,11.13,1.2h.04v8.73c0,.32-.71.63-1.92.88.17,2.23.74,4.42,1.64,6.48,0,.01.01.03.02.04,8.28.8,13.08,3.08,14.29,6.81,1.21,3.73-1.33,8.4-7.56,13.91Z"/>
        <path class="cls-2" d="M51.79,28.85H12.22c-.51.36-.89.75-1.04,1.21-1.06,3.25,8.33,10.82,8.33,10.82,0,0-3.14,11.65-.38,13.65,2.76,2.01,12.87-4.58,12.87-4.58,0,0,10.11,6.58,12.87,4.58s-.38-13.65-.38-13.65c0,0,9.38-7.58,8.33-10.82-.15-.45-.52-.85-1.04-1.21Z"/>
      </g>
    </g>
  </g>
</svg>