<?xml version="1.0" encoding="UTF-8"?>
<svg id="Layer_2" data-name="Layer 2" xmlns="http://www.w3.org/2000/svg" viewBox="0 0 64 64">
  <defs>
    <style>
      .cls-1, .cls-2 {
        fill: #fff;
      }

      .cls-2 {
        opacity: 0;
      }
    </style>
  </defs>
  <g id="White">
    <g id="Teeth_Flat_White" data-name="Teeth Flat White">
      <rect class="cls-2" width="64" height="64"/>
      <path class="cls-1" d="M61.11,33.21c.65-.75,1.19-1.56,1.6-2.42,.11-.23,.2-.46,.26-.7,.17-.64,.99-4.35,.14-14.7,.02-3.03-1.86-7.35-16.04-11.16-.62-.17-1.26-.25-1.9-.25s-1.32,.09-1.96,.27L4.27,14.98c-1.04,.18-1.98,.73-2.67,1.56-1.01,1.22-1.33,2.83-.95,4.79,.27,1.39,1.86,8.51,2.79,12.63,.19,.87,.6,1.64,1.17,2.26l-.86,3.17c-.6,2.2,.27,4.53,2.16,5.81,5.16,3.48,23.17,14.83,38.39,14.83h0c7.54,0,13.59-2.86,17.51-8.28,.95-1.31,1.5-2.85,1.6-4.46,.23-3.84,.1-9.82-2.31-14.08Zm-1.69,9.16v.06c0,.89-.12,1.78-.39,2.62-.45,1.43-1.37,2.99-3.17,1.65,0,0-.99,4.85-4.98,2.52,0,0-1.78,3.99-5.83,1.04,0,0-3.75,4.24-7.06-.06,0,0-3.93,3.19-5.65-1.6,0,0-4.79,3.19-5.65-1.84,0,0-5.22,2.44-6.63-3.08,0,0-3.78,1.65-5.91-1.74-.24-.38-.32-.84-.25-1.28l.79-4.55c9.36,4.18,28.89,11.51,38.49,4.93,3.84-2.64,3.12-5.13,.21-7.33-10.44,4.27-30.9,2.18-40.58,.85-.69-1.38-1.48-3.67-.09-5.14,2.09-2.22,5.39,2.41,5.39,2.41,0,0,1.2-7.42,7.92,.44,0,0,1.81-6.84,7.43,.19,0,0,2.89-7.73,8.91-1.08,0,0,2.48-8.95,8.43-2.34,0,0,2.62-8.71,6.6-3.15,0,0,.27-4.5,2.02-5.6,.28,6.58-.3,8.76-.3,8.76-.75,1.54-2.07,2.77-3.8,3.75,2.91,1.55,3.85,5.88,4.1,9.58Z"/>
    </g>
  </g>
</svg>