<?xml version="1.0" encoding="UTF-8"?>
<svg id="Layer_2" data-name="Layer 2" xmlns="http://www.w3.org/2000/svg" viewBox="0 0 64 64">
  <defs>
    <style>
      .cls-1 {
        fill: #fff;
      }

      .cls-2 {
        fill: #a72335;
      }

      .cls-3 {
        fill: #ff7a6e;
      }

      .cls-4 {
        fill: #1a1a1a;
        opacity: 0;
      }

      .cls-5 {
        fill: #e62e49;
      }
    </style>
  </defs>
  <g id="No_outline" data-name="No outline">
    <g id="Teeth">
      <rect class="cls-4" width="64" height="64"/>
      <g>
        <path class="cls-5" d="M54.54,32.45c-7.86-2.54-26.28-4.3-26.28-4.3l-18.79,5.47-1.84,6.83c-.15,.55,.07,1.13,.54,1.44,5.47,3.68,38.09,24.6,50.42,7.52,.5-.69,.79-1.51,.85-2.36,.21-3.44,.29-12.92-4.89-14.6Z"/>
        <path class="cls-1" d="M59.42,42.36c-.27-4.01-1.35-8.78-4.88-9.92-7.86-2.54-26.28-4.3-26.28-4.3l-12.82,3.73-1.53,8.78c-.08,.44,0,.9,.25,1.28,2.13,3.39,5.91,1.74,5.91,1.74,1.41,5.52,6.63,3.08,6.63,3.08,.86,5.04,5.65,1.84,5.65,1.84,1.72,4.79,5.65,1.6,5.65,1.6,3.32,4.3,7.06,.06,7.06,.06,4.05,2.95,5.83-1.04,5.83-1.04,3.99,2.33,4.98-2.52,4.98-2.52,1.79,1.34,2.72-.22,3.17-1.65,.27-.85,.38-1.74,.39-2.62v-.06Z"/>
        <path class="cls-2" d="M9.46,33.61s30.83,16.27,43.72,7.43c12.9-8.84-19.37-12.9-19.37-12.9l-24.35,5.47Z"/>
        <path class="cls-5" d="M59.11,15.5L5.05,18.92s-.81-.08-.47,1.65c.29,1.48,2.21,10.06,2.77,12.52,.09,.4,.41,.7,.82,.77,5.64,.94,45.17,7.06,50.95-4.82,0,0,.86-3.19,0-13.54Z"/>
        <path class="cls-3" d="M46.04,8.08c-.58-.15-1.18-.15-1.76,0L5.05,18.92s22.62,8.11,45.2,1.86c20.11-5.57,.36-11.47-4.21-12.69Z"/>
        <path class="cls-1" d="M59.12,29.03s.59-2.18,.3-8.76c-1.75,1.1-2.02,5.6-2.02,5.6-3.98-5.56-6.6,3.15-6.6,3.15-5.95-6.61-8.43,2.34-8.43,2.34-6.02-6.65-8.91,1.08-8.91,1.08-5.62-7.03-7.43-.19-7.43-.19-6.72-7.86-7.92-.44-7.92-.44,0,0-3.29-4.63-5.39-2.41-1.39,1.47-.6,3.77,.09,5.14,12.17,1.68,41.39,4.56,46.3-5.52Z"/>
      </g>
    </g>
  </g>
</svg>