<svg xmlns="http://www.w3.org/2000/svg" viewBox="0 0 64 64"><defs><style>.cls-1{opacity:0;}.cls-2{fill:#fff;}</style></defs><title>Save White </title><g id="Layer_2" data-name="Layer 2"><g id="Layer_3" data-name="Layer 3"><g class="cls-1"><rect class="cls-2" width="64" height="64"/></g><rect class="cls-2" x="33.51" y="12.94" width="7.41" height="10.18"/><path class="cls-2" d="M58.49,15,49,5.51a3.41,3.41,0,0,0-2.43-1H7.94A3.44,3.44,0,0,0,4.5,7.94V56.06A3.44,3.44,0,0,0,7.94,59.5H56.06a3.44,3.44,0,0,0,3.44-3.44V17.45A3.41,3.41,0,0,0,58.49,15ZM15.06,9.5h29.3V23.12a3.44,3.44,0,0,1-3.44,3.44H18.5a3.44,3.44,0,0,1-3.44-3.44Zm36.42,45h-39v-17a3,3,0,0,1,3-3h33a3,3,0,0,1,3,3Z"/></g></g></svg>