<svg xmlns="http://www.w3.org/2000/svg" viewBox="0 0 64 64"><defs><style>.cls-1{opacity:0;}.cls-2{fill:#1a1a1a;}.cls-3{fill:#5414b3;}.cls-4{fill:#a0f;}.cls-5{fill:#d3dee3;}.cls-6{fill:#7b97a6;}.cls-7{fill:#abc0c9;}</style></defs><title>Save Outline </title><g id="Layer_2" data-name="Layer 2"><g id="Layer_3" data-name="Layer 3"><g class="cls-1"><rect class="cls-2" width="64" height="64"/></g><path class="cls-2" d="M61.32,12.19,51.81,2.68A7.37,7.37,0,0,0,46.55.5H7.94A7.45,7.45,0,0,0,.5,7.94V56.06A7.45,7.45,0,0,0,7.94,63.5H56.06a7.45,7.45,0,0,0,7.44-7.44V17.45A7.37,7.37,0,0,0,61.32,12.19Z"/><path class="cls-3" d="M58.49,19.6,49,10.09a3.45,3.45,0,0,0-2.43-1H7.94A3.44,3.44,0,0,0,4.5,12.52V56.06A3.44,3.44,0,0,0,7.94,59.5H56.06a3.44,3.44,0,0,0,3.44-3.44V22A3.43,3.43,0,0,0,58.49,19.6Z"/><path class="cls-4" d="M58.49,15,49,5.51a3.41,3.41,0,0,0-2.43-1H7.94A3.44,3.44,0,0,0,4.5,7.94V51.48a3.44,3.44,0,0,0,3.44,3.44H56.06a3.44,3.44,0,0,0,3.44-3.44v-34A3.41,3.41,0,0,0,58.49,15Z"/><path class="cls-5" d="M15.06,4.5V18.12a3.44,3.44,0,0,0,3.44,3.44H40.92a3.44,3.44,0,0,0,3.44-3.44V4.5ZM40.92,18.12H33.51V7.94h7.41Z"/><path class="cls-5" d="M15.52,31h33a3,3,0,0,1,3,3V54.92a0,0,0,0,1,0,0h-39a0,0,0,0,1,0,0V34a3,3,0,0,1,3-3Z"/><rect class="cls-6" x="12.52" y="54.92" width="38.96" height="4.58"/><rect class="cls-7" x="17.1" y="45.75" width="29.79" height="4.58"/><rect class="cls-7" x="17.1" y="36.58" width="29.79" height="4.58"/></g></g></svg>