<?xml version="1.0" encoding="UTF-8"?>
<svg id="Layer_2" data-name="Layer 2" xmlns="http://www.w3.org/2000/svg" viewBox="0 0 64 64">
  <defs>
    <style>
      .cls-1, .cls-2 {
        fill: #fff;
      }

      .cls-2 {
        opacity: 0;
      }
    </style>
  </defs>
  <g id="White">
    <g id="Whiteboard_2_Flat_White" data-name="Whiteboard 2 Flat White">
      <rect class="cls-2" width="64" height="64"/>
      <g>
        <path class="cls-1" d="M57.5,8H6.5c-3.31,0-6,2.69-6,6V50c0,3.31,2.69,6,6,6H57.5c3.31,0,6-2.69,6-6V14c0-3.31-2.69-6-6-6Zm2,11v31c0,1.1-.9,2-2,2H6.5c-1.1,0-2-.9-2-2V14c0-.41,.13-.8,.34-1.12,.14-.21,.33-.4,.54-.54,.32-.22,.7-.34,1.12-.34H57.5c.41,0,.8,.13,1.12,.34,.21,.14,.4,.33,.54,.54,.22,.32,.34,.7,.34,1.12v5Z"/>
        <g>
          <circle class="cls-1" cx="46" cy="41.5" r="2.5"/>
          <circle class="cls-1" cx="18" cy="41.5" r="2.5"/>
          <path class="cls-1" d="M52.5,15H11.5c0,2.21-1.79,4-4,4v26c2.21,0,4,1.79,4,4H52.5c0-2.21,1.79-4,4-4V19c-2.21,0-4-1.79-4-4Zm-24.41,8.09l3.45-1.53-1.89-3.02c-.29-.47-.15-1.08,.32-1.38,.47-.29,1.09-.15,1.38,.32l2.04,3.26,3.71-1.65c.51-.23,1.1,0,1.32,.51,.22,.5,0,1.1-.51,1.32l-3.45,1.53,1.89,3.02c.29,.47,.15,1.08-.32,1.38-.17,.1-.35,.15-.53,.15-.33,0-.66-.17-.85-.47l-2.04-3.26-3.71,1.65c-.13,.06-.27,.09-.41,.09-.38,0-.75-.22-.92-.59-.22-.5,0-1.1,.51-1.32Zm-14.01-.53c.42-.36,1.05-.33,1.41,.09l2.49,2.83,2.32-2.71c.36-.42,.99-.47,1.41-.11,.42,.36,.47,.99,.11,1.41l-2.5,2.92,2.68,3.04c.36,.41,.32,1.05-.09,1.41-.19,.17-.43,.25-.66,.25-.28,0-.55-.11-.75-.34l-2.49-2.83-2.32,2.71c-.2,.23-.48,.35-.76,.35-.23,0-.46-.08-.65-.24-.42-.36-.47-.99-.11-1.41l2.5-2.92-2.68-3.04c-.36-.41-.32-1.05,.09-1.41Zm3.92,23.45c-2.48,0-4.5-2.02-4.5-4.5s2.02-4.5,4.5-4.5,4.5,2.02,4.5,4.5-2.02,4.5-4.5,4.5Zm11.83-13.95c-.05,.52-.48,.9-.99,.9-.03,0-.06,0-.1,0-.55-.05-.95-.54-.9-1.09l.06-.67-3.63,4.44c-.2,.24-.49,.37-.78,.37-.22,0-.45-.07-.63-.23-.43-.35-.49-.98-.14-1.41l3.91-4.79-1.4,.3c-.54,.11-1.07-.23-1.19-.77-.12-.54,.23-1.07,.77-1.19l4.19-.91s.03,0,.05,0c.12-.02,.24-.02,.36,0,.02,0,.04,0,.07,0,.13,.04,.26,.1,.37,.19,0,0,0,.01,.01,.02,0,0,.01,0,.02,0,.08,.07,.14,.16,.2,.25,.01,.02,.02,.04,.03,.06,.05,.1,.08,.21,.1,.32,0,.02,0,.03,0,.05,0,.05,0,.11,0,.16l-.38,3.95Zm10.42,7.01c-.18,.34-.53,.54-.89,.54-.16,0-.32-.04-.46-.11l-5.47-2.87,.58,1.31c.22,.51,0,1.1-.51,1.32-.13,.06-.27,.09-.4,.09-.38,0-.75-.22-.92-.6l-1.73-3.92s0-.03,0-.05c-.04-.11-.06-.23-.06-.34,0-.03-.01-.05,0-.08,0-.14,.04-.27,.11-.4,0,0,.01-.01,.01-.02,0,0,0-.01,0-.02,.02-.03,.05-.04,.07-.07,.06-.09,.13-.17,.22-.23,.04-.03,.08-.05,.13-.07,.09-.04,.17-.08,.27-.1,.03,0,.05-.02,.08-.03l3.95-.42c.56-.05,1.04,.34,1.1,.89,.06,.55-.34,1.04-.89,1.1l-.67,.07,5.08,2.66c.49,.26,.68,.86,.42,1.35Zm5.76,6.94c-2.48,0-4.5-2.02-4.5-4.5s2.02-4.5,4.5-4.5,4.5,2.02,4.5,4.5-2.02,4.5-4.5,4.5Z"/>
        </g>
      </g>
    </g>
  </g>
</svg>