<?xml version="1.0" encoding="UTF-8"?>
<svg id="Layer_2" data-name="Layer 2" xmlns="http://www.w3.org/2000/svg" viewBox="0 0 64 64">
  <defs>
    <style>
      .cls-1 {
        fill: #fff;
      }

      .cls-2, .cls-3 {
        stroke-miterlimit: 10;
      }

      .cls-2, .cls-3, .cls-4, .cls-5 {
        fill: none;
        stroke-width: 2px;
      }

      .cls-2, .cls-5 {
        stroke: #f5535c;
      }

      .cls-3, .cls-4 {
        stroke: #37b9ff;
      }

      .cls-6 {
        fill: #5d7c8c;
      }

      .cls-4, .cls-5 {
        stroke-linecap: round;
        stroke-linejoin: round;
      }

      .cls-7 {
        fill: #bdccd4;
      }

      .cls-8 {
        fill: #1a1a1a;
        opacity: 0;
      }
    </style>
  </defs>
  <g id="No_outline" data-name="No outline">
    <g id="Whiteboard_2" data-name="Whiteboard 2">
      <rect class="cls-8" width="64" height="64"/>
      <g>
        <g>
          <g>
            <rect class="cls-1" x="6" y="13.5" width="52" height="37" rx=".5" ry=".5"/>
            <path class="cls-7" d="M56.5,15V49H7.5V15H56.5m1-3H6.5c-1.1,0-2,.9-2,2V50c0,1.1,.9,2,2,2H57.5c1.1,0,2-.9,2-2V14c0-1.1-.9-2-2-2h0Z"/>
          </g>
          <path class="cls-6" d="M52.5,12h5c1.1,0,2,.9,2,2v5h-3c-2.21,0-4-1.79-4-4v-3h0Z"/>
          <path class="cls-6" d="M52.5,45h5c1.1,0,2,.9,2,2v5h-3c-2.21,0-4-1.79-4-4v-3h0Z" transform="translate(104.5 -7.5) rotate(90)"/>
          <path class="cls-6" d="M4.5,45h5c1.1,0,2,.9,2,2v5h-3c-2.21,0-4-1.79-4-4v-3h0Z" transform="translate(16 97) rotate(180)"/>
          <path class="cls-6" d="M4.5,12h5c1.1,0,2,.9,2,2v5h-3c-2.21,0-4-1.79-4-4v-3h0Z" transform="translate(-7.5 23.5) rotate(-90)"/>
        </g>
        <circle class="cls-3" cx="18" cy="41.5" r="3.5"/>
        <circle class="cls-2" cx="46" cy="41.5" r="3.5"/>
        <g>
          <polyline class="cls-4" points="28.83 31.95 29.21 28 25.02 28.91"/>
          <line class="cls-4" x1="29.21" y1="28" x2="23.5" y2="35"/>
        </g>
        <g>
          <polyline class="cls-5" points="35.3 33.98 31.36 34.4 33.08 38.33"/>
          <line class="cls-5" x1="31.36" y1="34.4" x2="39.36" y2="38.6"/>
        </g>
        <g>
          <line class="cls-4" x1="28.5" y1="24" x2="37.5" y2="20"/>
          <line class="cls-4" x1="35.5" y1="26" x2="30.5" y2="18"/>
        </g>
        <g>
          <line class="cls-5" x1="21.25" y1="30.7" x2="14.75" y2="23.3"/>
          <line class="cls-5" x1="21.07" y1="23.42" x2="14.93" y2="30.58"/>
        </g>
      </g>
    </g>
  </g>
</svg>