<svg xmlns="http://www.w3.org/2000/svg" viewBox="0 0 128 128"><defs><style>.cls-1{fill:none;}.cls-2{fill:#1a1a1a;}.cls-3{fill:#fff;}.cls-4{fill:#e62e49;}.cls-5{fill:#bdccd4;}.cls-6{fill:#91aab8;}</style></defs><title>Calendar Outline </title><g id="Layer_2" data-name="Layer 2"><g id="_14-25" data-name="14-25"><rect class="cls-1" width="128" height="128"/><path class="cls-2" d="M102.67,7.9a14.62,14.62,0,0,0-24.46-.22H49.79a14.62,14.62,0,0,0-24.46.22A27.4,27.4,0,0,0,1.5,35V99.48a27.38,27.38,0,0,0,27.34,27.34H99.16A27.38,27.38,0,0,0,126.5,99.48V35A27.4,27.4,0,0,0,102.67,7.9Z"/><path class="cls-3" d="M9.31,99.48A19.54,19.54,0,0,0,28.84,119H99.16a19.54,19.54,0,0,0,19.53-19.53V44.15H9.31Z"/><path class="cls-4" d="M99.16,15.49H28.84A19.54,19.54,0,0,0,9.31,35V42.2H118.69V35A19.54,19.54,0,0,0,99.16,15.49Z"/><rect class="cls-5" x="9.31" y="41.22" width="109.37" height="7.81"/><path class="cls-6" d="M90.37,9a6.84,6.84,0,0,0-6.84,6.84v5.86a6.84,6.84,0,0,0,13.67,0V15.83A6.83,6.83,0,0,0,90.37,9Z"/><path class="cls-6" d="M37.63,9a6.83,6.83,0,0,0-6.83,6.84v5.86a6.84,6.84,0,0,0,13.67,0V15.83A6.84,6.84,0,0,0,37.63,9Z"/><path class="cls-2" d="M31,94.8l8.35-8.59c3.12,2.94,6.43,4.57,9.91,4.57,3.13,0,4.81-1.39,4.81-3.37v-.12c0-2-1.8-3.36-5.53-3.36h-6l-1.86-6.25L50,70.35H34.35V59.41H66.68v9.67l-9.43,7.09c6.3,1.69,10.39,5.35,10.39,12v.12c0,9.07-7.93,14.12-17.24,14.12C41.74,102.37,35.61,99.55,31,94.8Z"/><path class="cls-2" d="M83.19,71.43l-6.85,1.5-2.52-10.4,12.56-3.42H97v42.36H83.19Z"/></g></g></svg>