<svg xmlns="http://www.w3.org/2000/svg" viewBox="0 0 128 128"><defs><style>.cls-1{fill:none;}.cls-2{fill:#1a1a1a;}</style></defs><title>Calendar Black </title><g id="Layer_2" data-name="Layer 2"><g id="_14-25" data-name="14-25"><rect class="cls-1" width="128" height="128"/><path class="cls-2" d="M91,27.67a7,7,0,0,0,7-7v-6a7,7,0,0,0-14,0v6A7,7,0,0,0,91,27.67Z"/><path class="cls-2" d="M104,14.73v5.94a13,13,0,0,1-26,0v-6c0-.11,0-.23,0-.34H50c0,.11,0,.23,0,.34v6a13,13,0,0,1-26,0V14.73A20,20,0,0,0,8,34.33v6.34H120V34.33A20,20,0,0,0,104,14.73Z"/><path class="cls-2" d="M37,27.67a7,7,0,0,0,7-7v-6a7,7,0,0,0-14,0v6A7,7,0,0,0,37,27.67Z"/><path class="cls-2" d="M8,100.33a20,20,0,0,0,20,20h72a20,20,0,0,0,20-20V48.67H8ZM86.91,59H97.8v43.38H83.65V71.61l-7,1.53L74.05,62.5ZM48.16,84.4H42.07L40.16,78l9.48-7.5h-16V59.3h33.1v9.91l-9.66,7.26c6.46,1.72,10.65,5.47,10.65,12.24v.12c0,9.29-8.12,14.46-17.66,14.46-8.86,0-15.14-2.89-19.87-7.75l8.55-8.8c3.2,3,6.58,4.68,10.15,4.68,3.2,0,4.92-1.42,4.92-3.45v-.12C53.82,85.76,52,84.4,48.16,84.4Z"/></g></g></svg>