<?xml version="1.0" encoding="UTF-8"?>
<svg id="Layer_2" data-name="Layer 2" xmlns="http://www.w3.org/2000/svg" viewBox="0 0 64 64">
  <defs>
    <style>
      .cls-1, .cls-2 {
        fill: #1a1a1a;
      }

      .cls-1, .cls-2, .cls-3, .cls-4, .cls-5 {
        stroke-width: 0px;
      }

      .cls-2 {
        opacity: 0;
      }

      .cls-3 {
        fill: #cef;
      }

      .cls-4 {
        fill: #fff;
      }

      .cls-5 {
        fill: #96dbff;
      }
    </style>
  </defs>
  <g id="Exports_1" data-name="Exports 1">
    <g>
      <rect class="cls-2" width="64" height="64"/>
      <g>
        <path class="cls-1" d="M56.28,17.84c-.05-.04-.11-.07-.16-.11,1.08-2.08,2.36-3.95,3.21-5.09,1.2-1.63,1.55-3.75.95-5.68-.61-1.92-2.1-3.45-4.01-4.09-4.38-1.48-12.45-2.36-21.57-2.36C15.48.5,10.92,3.41,8.98,6.26c-.35.52-.62,1.07-.81,1.64,0,0-.02.06-.03.09-.18.59-.27,1.19-.27,1.8,0,.54.03,1.11.09,1.8,0,0,.04.38.04.42-.34.2-.68.42-1.01.66-.07.05-.15.11-.22.16-.79.65-1.94,1.72-2.69,3.45-.81,1.82-.87,4.01-.2,5.78.49,1.37,1.29,2.55,2.34,3.47.92.82,1.92,1.38,3.18,1.77.51.16,1.03.24,1.56.24.3,0,.61-.03.9-.08,1.24-.22,2.31-.86,3.08-1.75,1.28,1.33,2.65,2.56,4.03,3.7-.31.86-.41,1.79-.27,2.71.42,2.72,2.72,4.69,5.47,4.69.28,0,.56-.02.84-.06,0,0,1.08-.17,1.54-.25.46-.08.93-.15,1.39-.22.08.06.16.12.24.19,1.23.98,2.22,1.85,3.02,2.67,2.21,2.25,2.46,3.56,2.46,4.36,0,.4-.03.82-.09,1.29-.72-.14-1.45-.21-2.2-.21-2.86,0-5.59,1.05-7.72,2.89-.14,0-.28-.01-.42-.01-3.89,0-7.18,2.65-8.14,6.25-1.72,1.3-2.53,3.51-2,5.65.6,2.43,2.77,4.13,5.28,4.13h26.38c1.7,0,3.32-.81,4.34-2.16,1.04-1.37,1.36-3.1.9-4.75-.21-.77-.55-1.51-1.02-2.22.05-.05.1-.1.15-.15l.14.04c.47.13.95.2,1.43.2.66,0,1.3-.12,1.92-.36,1.3-.51,2.33-1.5,2.89-2.78.56-1.28.59-2.71.07-4.01-.31-.8-.76-1.55-1.31-2.2,1.18-4.12,1.25-8.34.98-12.06.14-.05.27-.1.4-.16.99-.45,1.77-.99,2.45-1.7.67-.68,1.21-1.5,1.6-2.41.84-1.93.88-4.24.14-6.29-.63-1.82-1.89-3.46-3.57-4.63Z"/>
        <path class="cls-3" d="M54.98,6.65c-3.79-1.28-11.45-2.15-20.29-2.15-12.6,0-22.81,1.34-22.81,5.29,0,17.19,25.79,22.48,25.79,33.72,0,3.95-1.89,8.38-3.41,11.3-.67,1.29.53,2.77,1.93,2.36,21.16-6.14,14.04-27.24,14.04-33.5,0-4.76,3.76-10.54,5.88-13.41.94-1.28.38-3.1-1.12-3.61Z"/>
        <g>
          <path class="cls-5" d="M34.11,8.36c-3.8-.49-10.54-.8-21.82.15-.27.39-.41.82-.41,1.28,0,2.65.61,5.01,1.65,7.16,2.47-2.14,8.6-6.2,20.55-7.37.73-.07.76-1.12.04-1.22Z"/>
          <path class="cls-5" d="M39.95,23.09c4.9.77,8.32,2.48,10.63,4.19-.19-1.45-.35-2.69-.35-3.61,0-.63.07-1.27.19-1.92-5.05-.42-8.39-.21-10.49.13-.69.11-.67,1.1.02,1.21Z"/>
          <path class="cls-5" d="M40.45,33.89c-2.07-.35-5.2-.64-9.77-.54,1.24.99,2.39,1.98,3.38,2.99,1.84-.55,3.94-.99,6.35-1.24.71-.08.75-1.09.05-1.21Z"/>
        </g>
        <path class="cls-5" d="M37.2,47.18c-.65,2.83-1.88,5.59-2.94,7.63-.67,1.29.53,2.77,1.93,2.36,9.11-2.65,12.98-8.07,14.43-13.88-7.24,6.01-11.23,5.83-13.42,3.89Z"/>
        <path class="cls-4" d="M10.59,23.48c-.68-.21-1.19-.49-1.69-.93-.5-.43-.95-1.01-1.24-1.82-.3-.79-.31-1.91.09-2.82.39-.91,1-1.51,1.57-1.97,2.3-1.64,4.38-1.9,6.43-2.26,2.05-.29,4.05-.38,6.05-.37,1.99,0,3.96.14,5.93.37.68.08,1.17.7,1.09,1.38-.07.58-.52,1.02-1.07,1.09h-.02c-1.92.26-3.84.44-5.72.69-1.88.25-3.75.5-5.53.88-.89.18-1.75.41-2.55.68-.78.26-1.51.6-1.91.92-.17.15-.26.28-.24.27.01-.01-.02-.11-.05.03-.03.13,0,.4.09.75.08.33.24.76.32,1.17l.09.53c.12.69-.34,1.34-1.03,1.46-.2.04-.41.02-.6-.04Z"/>
        <path class="cls-4" d="M52.09,27.65c-.09-.32-.08-.68-.08-.95-.01-.29,0-.53,0-.73,0-.41.04-.62-.03-.78-.03-.29-.72-.95-1.81-1.37-1.06-.45-2.33-.76-3.63-1.03-1.31-.26-2.67-.46-4.05-.72h-.03c-.68-.13-1.13-.79-1.01-1.47.1-.53.53-.93,1.03-1.01,1.45-.23,2.91-.35,4.41-.32,1.5.02,3.04.18,4.65.68.8.25,1.63.59,2.46,1.17.81.57,1.65,1.46,2.06,2.65.43,1.17.38,2.45-.03,3.38-.2.47-.47.89-.81,1.23-.34.36-.7.6-1.22.84-.62.28-1.34,0-1.62-.61-.02-.05-.04-.1-.06-.16l-.23-.81Z"/>
        <path class="cls-4" d="M39.06,31.3c-1.22.1-2.51.16-3.74.24-1.25.07-2.48.16-3.7.27-1.21.13-2.41.27-3.58.43-1.17.16-2.3.37-3.48.55l-.14.02c-.84.13-1.62-.45-1.75-1.28-.09-.56.15-1.1.56-1.44,1.18-.93,2.55-1.5,3.91-1.92,1.37-.39,2.77-.58,4.15-.67,1.38-.09,2.75-.05,4.11.07,1.37.14,2.68.35,4.05.75.8.24,1.26,1.09,1.02,1.89-.18.62-.72,1.03-1.33,1.08h-.09Z"/>
        <path class="cls-4" d="M44.2,46.77c.69-.4,1.3-.58,2.01-.7.69-.1,1.43-.1,2.16.04.73.12,1.47.42,2.09.88.63.45,1.12,1.08,1.4,1.77.25.64-.06,1.36-.7,1.61-.26.1-.54.11-.79.04l-.34-.1c-.52-.15-.86-.34-1.26-.45-.38-.13-.73-.27-1.13-.37-.4-.1-.83-.19-1.3-.25-.45-.07-.99-.1-1.41-.18l-.36-.07c-.65-.13-1.07-.76-.95-1.41.07-.35.29-.64.58-.81Z"/>
        <path class="cls-4" d="M46.16,57.68c-.28-.99-1.04-2.09-2.83-3.4-1.34-.98-3.11-1.3-4.64-.66h-.03c-1.11-2.93-3.95-5.02-7.28-5.02-2.61,0-4.92,1.29-6.34,3.27-.55-.25-1.16-.39-1.8-.39-2.44,0-4.42,1.98-4.42,4.42,0,.17.03.33.05.49-.41.07-.79.21-1.15.4-1.33.7-.84,2.72.67,2.72h26.38c.95,0,1.65-.91,1.39-1.82Z"/>
      </g>
    </g>
  </g>
</svg>