<?xml version="1.0" encoding="UTF-8"?>
<svg id="Layer_2" data-name="Layer 2" xmlns="http://www.w3.org/2000/svg" viewBox="0 0 64 64">
  <defs>
    <style>
      .cls-1, .cls-2 {
        fill: #1a1a1a;
        stroke-width: 0px;
      }

      .cls-2 {
        opacity: 0;
      }
    </style>
  </defs>
  <g id="Exports_1" data-name="Exports 1">
    <g>
      <rect class="cls-2" width="64" height="64"/>
      <path class="cls-1" d="M58.98,22.24c-.55-1.58-1.68-3.05-3.16-4.09-.98-.68-2.02-1.17-3.28-1.57-.14-.04-.27-.07-.41-.11,1.26-2.68,2.91-5.15,4.07-6.73.94-1.28.38-3.1-1.12-3.61-3.79-1.28-11.45-2.15-20.29-2.15-12.6,0-22.81,1.34-22.81,5.29,0,.55.03,1.08.08,1.61-1.36.39-2.84.99-4.38,2.09-.06.04-.11.08-.16.12-.71.59-1.74,1.54-2.42,3.1-.68,1.53-.74,3.47-.16,5.04.43,1.2,1.13,2.23,2.09,3.06.77.69,1.66,1.19,2.76,1.53.42.13.85.19,1.28.19.25,0,.49-.02.73-.06,1.12-.2,2.1-.82,2.75-1.75.65-.93.91-2.06.71-3.19l-.07-.38c.31-.1.62-.19.94-.27,1.79,2.26,4.01,4.26,6.34,6.13-.35.22-.69.46-1.01.71-1.28,1.02-1.92,2.64-1.67,4.25.34,2.23,2.23,3.84,4.48,3.84.23,0,.46-.02.69-.05l.14-.02c.47-.07.92-.15,1.38-.22.68-.11,1.36-.22,2.05-.32,1.16-.15,2.32-.29,3.46-.41.15-.01.31-.02.46-.04,3.1,2.71,5.3,5.48,5.3,8.75,0,1.87-.43,3.84-1.03,5.71-1.5-1.05-3.32-1.66-5.29-1.66-3.11,0-5.86,1.54-7.54,3.89-.66-.29-1.38-.47-2.15-.47-2.91,0-5.27,2.36-5.27,5.27,0,.2.04.39.06.58-.49.09-.94.25-1.37.47-1.59.84-1,3.24.8,3.24h31.41c1.13,0,1.96-1.08,1.66-2.17-.33-1.18-1.24-2.49-3.37-4.05-.5-.37-1.05-.65-1.63-.85.56-.42,1.08-.85,1.56-1.31.13.01.25.02.37.04.03,0,.06,0,.09.01.29.04.59.1.97.19.11.03.28.09.49.16.13.05.26.09.4.14.05.02.1.03.14.04.07.02.14.06.22.09.25.1.59.24,1.02.36l.34.1c.38.11.77.16,1.16.16.53,0,1.05-.1,1.55-.29,1.06-.41,1.89-1.21,2.34-2.25s.47-2.19.06-3.25c-.48-1.23-1.35-2.34-2.44-3.11-.52-.38-1.09-.69-1.7-.93,1.09-4.08.96-8.36.59-12.04.69.48,1.52.76,2.4.76.6,0,1.19-.13,1.74-.37.89-.4,1.55-.86,2.15-1.49.58-.6,1.06-1.31,1.41-2.14.72-1.65.76-3.74.09-5.58ZM22.1,16.31c-1.88.25-3.75.5-5.53.88-.89.18-1.75.41-2.55.68-.78.26-1.51.6-1.91.92-.14.13-.22.23-.24.26,0,0,0,0,0,0,0,0,0,0,0,0,0,0,0,0,0,0,0-.01,0-.03-.02-.03,0,0-.02.02-.04.08-.03.13,0,.4.09.75.08.33.24.76.32,1.17l.09.53c.12.69-.34,1.34-1.03,1.46-.07.01-.14.02-.22.02-.13,0-.26-.02-.38-.06-.68-.21-1.19-.49-1.69-.93-.5-.43-.95-1.01-1.24-1.82-.3-.79-.31-1.91.09-2.82.4-.91,1-1.51,1.57-1.97,2.3-1.64,4.38-1.9,6.43-2.26,1.91-.27,3.79-.37,5.65-.37.13,0,.26,0,.39,0,1.99,0,3.96.14,5.93.37.68.08,1.17.7,1.09,1.38-.07.58-.52,1.02-1.07,1.09h-.02c-1.92.26-3.84.44-5.72.69ZM40.57,29.7c-.18.62-.72,1.03-1.33,1.08h-.09c-1.22.11-2.51.17-3.74.25-1.25.07-2.48.16-3.7.27-1.21.13-2.41.27-3.58.43-1.17.16-2.3.37-3.48.55l-.14.02c-.08.01-.16.02-.23.02-.74,0-1.4-.54-1.51-1.3-.09-.56.15-1.1.56-1.44,1.18-.93,2.55-1.5,3.91-1.92,1.37-.39,2.77-.58,4.15-.67.51-.03,1.01-.05,1.52-.05.87,0,1.73.05,2.59.12,1.37.14,2.68.35,4.05.75.8.24,1.26,1.09,1.02,1.89ZM51.95,48.24c.25.64-.06,1.36-.7,1.61-.15.06-.3.09-.45.09-.12,0-.23-.02-.34-.05l-.34-.1c-.52-.15-.86-.34-1.26-.45-.38-.13-.73-.27-1.13-.37-.4-.1-.83-.19-1.3-.25-.45-.07-.99-.1-1.41-.18l-.36-.07c-.65-.13-1.07-.76-.95-1.41.07-.35.29-.64.58-.81.69-.4,1.3-.58,2.01-.7.32-.05.64-.07.97-.07.39,0,.79.04,1.19.12.73.12,1.47.42,2.09.88.63.45,1.12,1.08,1.4,1.77ZM56.13,26.64c-.2.47-.47.89-.81,1.23-.33.36-.7.6-1.22.84-.16.07-.34.11-.5.11-.47,0-.91-.27-1.12-.72-.02-.05-.04-.1-.06-.16l-.23-.81c-.09-.32-.08-.68-.08-.95-.01-.29,0-.53,0-.73,0-.41.04-.62-.03-.78-.02-.29-.72-.95-1.81-1.37-1.06-.45-2.33-.76-3.63-1.03-1.31-.26-2.67-.46-4.05-.72h-.03c-.68-.13-1.13-.79-1.01-1.47.1-.53.53-.93,1.03-1.01,1.32-.21,2.66-.33,4.02-.33.13,0,.26,0,.39,0,1.5.02,3.04.18,4.65.68.8.25,1.63.59,2.46,1.17.81.57,1.65,1.46,2.06,2.65.43,1.17.38,2.45-.03,3.38Z"/>
    </g>
  </g>
</svg>