<svg xmlns="http://www.w3.org/2000/svg" viewBox="0 0 64 64"><defs><style>.cls-1,.cls-2{fill:#1a1a1a;}.cls-1{opacity:0;}.cls-3{fill:#9c3d29;}.cls-4{fill:#bb5938;}.cls-5{fill:#fdbc0d;}.cls-6{fill:#fef776;}</style></defs><title>Torch Outline</title><g id="Layer_2" data-name="Layer 2"><g id="Finals"><rect class="cls-1" width="64" height="64"/><path class="cls-2" d="M43.49,11.07a5.19,5.19,0,0,0-4-2.1,23.18,23.18,0,0,1-.76-3.83A5.22,5.22,0,0,0,29.91,2a31,31,0,0,0-7.15,9.78,5.25,5.25,0,0,0-4.54,2.7,17.9,17.9,0,0,0-2,6.49,17,17,0,0,0,6.54,15.94l1.3,20.92a6.08,6.08,0,0,0,6.06,5.69h3.78A6.08,6.08,0,0,0,40,57.81l1.3-21a16.77,16.77,0,0,0,6.61-11.76C48.24,19.71,47,15.79,43.49,11.07Z"/><path class="cls-3" d="M27.07,41.86l1,15.7a2.07,2.07,0,0,0,2.07,1.94h3.78A2.07,2.07,0,0,0,36,57.56l1-15.7a17.24,17.24,0,0,1-9.86,0Z"/><path class="cls-4" d="M26.1,26.26l1,15.6a17.24,17.24,0,0,0,9.86,0l1-15.6Z"/><path class="cls-5" d="M20.19,21.43a13.74,13.74,0,0,1,1.54-5,1.22,1.22,0,0,1,2.06-.11l1.32,1.87c.7-5.47,3.82-9.62,7.59-13.3a1.22,1.22,0,0,1,2.06.75A27.38,27.38,0,0,0,37.61,15l.57-1.31a1.22,1.22,0,0,1,2.1-.24c3,4.08,3.89,7.1,3.59,11.32A12.52,12.52,0,0,1,35.36,35.4C26.57,37.86,19.06,30.66,20.19,21.43Z"/><path class="cls-6" d="M37.27,28.12c1,6.1-6.65,7.07-9.57,2.76-3.13-4.64.87-9.39,3.89-13.09A.81.81,0,0,1,33,18C34.45,21.1,36.59,25,37.27,28.12Z"/></g></g></svg>