<svg xmlns="http://www.w3.org/2000/svg" viewBox="0 0 64 64"><defs><style>.cls-1,.cls-2{fill:#1a1a1a;}.cls-1{opacity:0;}</style></defs><title>Torch Black</title><g id="Layer_2" data-name="Layer 2"><g id="Finals"><rect class="cls-1" width="64" height="64"/><path class="cls-2" d="M40.28,13.46a1.22,1.22,0,0,0-2.1.24L37.61,15A27.38,27.38,0,0,1,34.76,5.6a1.22,1.22,0,0,0-2.06-.75c-3.77,3.68-6.89,7.83-7.59,13.3l-1.32-1.87a1.22,1.22,0,0,0-2.06.11,13.74,13.74,0,0,0-1.54,5c-.72,5.86,2.06,10.89,6.42,13.16l.46,7.27,1,15.7a2.07,2.07,0,0,0,2.07,1.94h3.78A2.07,2.07,0,0,0,36,57.56l1-15.7.46-7.3a12.73,12.73,0,0,0,6.48-9.78C44.17,20.56,43.33,17.54,40.28,13.46ZM27.7,30.88c-3.13-4.64.86-9.39,3.89-13.09A.81.81,0,0,1,33,18c1.5,3.15,3.64,7.05,4.32,10.17C38.31,34.22,30.62,35.19,27.7,30.88Z"/></g></g></svg>