<svg xmlns="http://www.w3.org/2000/svg" viewBox="0 0 64 64"><defs><style>.cls-1{opacity:0;}.cls-2{fill:#fff;}.cls-3{fill:#9c3d29;}.cls-4{fill:#bb5938;}.cls-5{fill:#65d666;}.cls-6{fill:#bcffbd;}</style></defs><title>Torch Green</title><g id="Layer_2" data-name="Layer 2"><g id="_101-200" data-name="101-200"><g class="cls-1"><rect class="cls-2" width="64" height="64"/></g><path class="cls-3" d="M27.07,41.86l1,15.7a2.07,2.07,0,0,0,2.07,1.94h3.78A2.07,2.07,0,0,0,36,57.56l1-15.7a17.24,17.24,0,0,1-9.86,0Z"/><path class="cls-4" d="M26.1,26.26l1,15.6a17.24,17.24,0,0,0,9.86,0l1-15.6Z"/><path class="cls-5" d="M20.19,21.43a13.74,13.74,0,0,1,1.54-5,1.22,1.22,0,0,1,2.06-.11l1.32,1.87c.7-5.47,3.82-9.62,7.59-13.3a1.22,1.22,0,0,1,2.06.75A27.38,27.38,0,0,0,37.61,15l.57-1.31a1.22,1.22,0,0,1,2.1-.24c3,4.08,3.89,7.1,3.59,11.32A12.52,12.52,0,0,1,35.36,35.4C26.57,37.86,19.06,30.66,20.19,21.43Z"/><path class="cls-6" d="M37.27,28.12c1,6.1-6.65,7.07-9.57,2.76-3.13-4.64.86-9.39,3.89-13.09A.81.81,0,0,1,33,18C34.45,21.1,36.59,25,37.27,28.12Z"/></g></g></svg>