<?xml version="1.0" encoding="UTF-8"?>
<svg id="Layer_2" data-name="Layer 2" xmlns="http://www.w3.org/2000/svg" viewBox="0 0 64 64">
  <defs>
    <style>
      .cls-1 {
        fill: #7500d4;
      }

      .cls-2 {
        fill: #fff;
      }

      .cls-3 {
        fill: #ee87ff;
      }

      .cls-4 {
        fill: #c442ff;
      }

      .cls-5 {
        opacity: 0;
      }

      .cls-5, .cls-6 {
        fill: #1a1a1a;
      }
    </style>
  </defs>
  <g id="Outlines">
    <g id="Dragon_Scale_Purple_Outline" data-name="Dragon Scale Purple Outline">
      <rect class="cls-5" width="64" height="64"/>
      <g>
        <path class="cls-6" d="M59.2,26.15C51.44,12.31,40.5,2.01,40.04,1.58c-.75-.7-1.73-1.08-2.73-1.08-.33,0-.66,.04-.98,.12C17.14,5.48,8.61,11.64,8.26,11.9c-.81,.6-1.37,1.48-1.56,2.47-5.83,30.36,.68,46.06,.96,46.71,.42,.99,1.23,1.77,2.24,2.16,.46,.18,.95,.27,1.44,.27,.57,0,1.14-.12,1.67-.37,26.61-12.22,44.86-31.48,45.62-32.29,1.2-1.27,1.43-3.17,.57-4.7Z"/>
        <g>
          <path class="cls-1" d="M37.3,4.5C18.66,9.22,10.63,15.12,10.63,15.12c-5.67,29.51,.71,44.38,.71,44.38,0,0,3.07-34.23,25.97-55Z"/>
          <path class="cls-4" d="M37.3,4.5C14.41,25.27,11.34,59.5,11.34,59.5c26.2-12.04,44.38-31.39,44.38-31.39-7.55-13.45-18.41-23.61-18.41-23.61Z"/>
        </g>
        <path class="cls-3" d="M55.72,28.11c-7.55-13.45-18.41-23.61-18.41-23.61-3.7,3.36-6.88,7.07-9.61,10.92-5.79,23,12.33,20.61,23.23,17.33,3.1-2.85,4.79-4.65,4.79-4.65Z"/>
        <path class="cls-2" d="M27.04,24.86l-3.35-1.32-1.32-3.35c-.23-.58-1.04-.58-1.27,0l-1.32,3.35-3.35,1.32c-.58,.23-.58,1.04,0,1.27l3.35,1.32,1.32,3.35c.23,.58,1.04,.58,1.27,0l1.32-3.35,3.35-1.32c.58-.23,.58-1.04,0-1.27Z"/>
        <path class="cls-2" d="M42.9,17.67l-4.38-1.73-1.73-4.38c-.3-.75-1.36-.75-1.66,0l-1.73,4.38-4.38,1.73c-.75,.3-.75,1.36,0,1.66l4.38,1.73,1.73,4.38c.3,.75,1.36,.75,1.66,0l1.73-4.38,4.38-1.73c.75-.3,.75-1.36,0-1.66Z"/>
      </g>
    </g>
  </g>
</svg>