<?xml version="1.0" encoding="UTF-8"?>
<svg id="Layer_2" data-name="Layer 2" xmlns="http://www.w3.org/2000/svg" viewBox="0 0 64 64">
  <defs>
    <style>
      .cls-1 {
        fill: #606060;
        opacity: 0;
      }

      .cls-2 {
        fill: #1a1a1a;
      }
    </style>
  </defs>
  <g id="Black">
    <g id="Dragon_Scale_Flat_Black" data-name="Dragon Scale Flat Black">
      <rect class="cls-1" width="64" height="64"/>
      <path class="cls-2" d="M37.3,4.5C18.66,9.22,10.63,15.12,10.63,15.12c-5.67,29.51,.71,44.38,.71,44.38,26.2-12.04,44.38-31.39,44.38-31.39-7.55-13.45-18.41-23.61-18.41-23.61Zm-10.27,21.64l-3.35,1.32-1.32,3.35c-.23,.58-1.04,.58-1.27,0l-1.32-3.35-3.35-1.32c-.58-.23-.58-1.04,0-1.27l3.35-1.32,1.32-3.35c.23-.58,1.04-.58,1.27,0l1.32,3.35,3.35,1.32c.58,.23,.58,1.04,0,1.27Zm15.87-6.81l-4.38,1.73-1.73,4.38c-.3,.75-1.36,.75-1.66,0l-1.73-4.38-4.38-1.73c-.75-.3-.75-1.36,0-1.66l4.38-1.73,1.73-4.38c.3-.75,1.36-.75,1.66,0l1.73,4.38,4.38,1.73c.75,.3,.75,1.36,0,1.66Z"/>
    </g>
  </g>
</svg>