<svg xmlns="http://www.w3.org/2000/svg" viewBox="0 0 64 64"><defs><style>.cls-1{opacity:0;}.cls-2{fill:#fff;}.cls-3{fill:#e62e49;}.cls-4{fill:#ff8769;}.cls-5{fill:#a72d3e;}</style></defs><title>Star Gem Red</title><g id="Layer_2" data-name="Layer 2"><g id="_001-100" data-name="001-100"><g class="cls-1"><rect class="cls-2" width="64" height="64"/></g><polygon class="cls-3" points="4.5 32 22.28 41.72 32 59.5 32 32 4.5 32"/><polygon class="cls-3" points="59.5 32 41.72 22.28 32 4.5 32 32 59.5 32"/><polygon class="cls-4" points="32 4.5 22.28 22.28 4.5 32 32 32 32 4.5"/><polygon class="cls-5" points="59.5 32 32 32 32 59.5 41.72 41.72 59.5 32"/><polygon class="cls-4" points="18.25 32 28.11 35.89 32 45.75 32 32 18.25 32"/><polygon class="cls-4" points="45.75 32 35.89 28.11 32 18.25 32 32 45.75 32"/><polygon class="cls-2" points="32 18.25 28.11 28.11 18.25 32 32 32 32 18.25"/><polygon class="cls-3" points="45.75 32 32 32 32 45.75 35.89 35.89 45.75 32"/></g></g></svg>