<svg xmlns="http://www.w3.org/2000/svg" viewBox="0 0 64 64"><defs><style>.cls-1,.cls-5{fill:#fff;}.cls-1{opacity:0;}.cls-2{fill:#37b9ff;}.cls-3{fill:#96dbff;}.cls-4{fill:#1778ff;}</style></defs><title>Star Gem</title><g id="Layer_2" data-name="Layer 2"><g id="Finals"><rect class="cls-1" width="64" height="64"/><polygon class="cls-2" points="4.5 32 22.28 41.72 32 59.5 32 32 4.5 32"/><polygon class="cls-2" points="59.5 32 41.72 22.28 32 4.5 32 32 59.5 32"/><polygon class="cls-3" points="32 4.5 22.28 22.28 4.5 32 32 32 32 4.5"/><polygon class="cls-4" points="59.5 32 32 32 32 59.5 41.72 41.72 59.5 32"/><polygon class="cls-3" points="18.25 32 28.11 35.89 32 45.75 32 32 18.25 32"/><polygon class="cls-3" points="45.75 32 35.89 28.11 32 18.25 32 32 45.75 32"/><polygon class="cls-5" points="32 18.25 28.11 28.11 18.25 32 32 32 32 18.25"/><polygon class="cls-2" points="45.75 32 32 32 32 45.75 35.89 35.89 45.75 32"/></g></g></svg>