<svg xmlns="http://www.w3.org/2000/svg" viewBox="0 0 64 64"><defs><style>.cls-1,.cls-2{fill:#1a1a1a;}.cls-1{opacity:0;}.cls-3{fill:#fec92b;}.cls-4{fill:#fee854;}.cls-5{fill:#fc9504;}.cls-6{fill:#fff;}</style></defs><title>Star Gem Yellow Outline</title><g id="Layer_2" data-name="Layer 2"><g id="_001-100" data-name="001-100"><rect class="cls-1" width="64" height="64"/><path class="cls-2" d="M61.42,28.49,44.67,19.33,35.51,2.58a4,4,0,0,0-7,0L19.33,19.33,2.58,28.49a4,4,0,0,0,0,7l16.75,9.16,9.16,16.75a4,4,0,0,0,7,0l9.16-16.75,16.75-9.16a4,4,0,0,0,0-7Z"/><polygon class="cls-3" points="4.5 32 22.28 41.72 32 59.5 32 32 4.5 32"/><polygon class="cls-3" points="59.5 32 41.72 22.28 32 4.5 32 32 59.5 32"/><polygon class="cls-4" points="32 4.5 22.28 22.28 4.5 32 32 32 32 4.5"/><polygon class="cls-5" points="59.5 32 32 32 32 59.5 41.72 41.72 59.5 32"/><polygon class="cls-4" points="18.25 32 28.11 35.89 32 45.75 32 32 18.25 32"/><polygon class="cls-4" points="45.75 32 35.89 28.11 32 18.25 32 32 45.75 32"/><polygon class="cls-6" points="32 18.25 28.11 28.11 18.25 32 32 32 32 18.25"/><polygon class="cls-3" points="45.75 32 32 32 32 45.75 35.89 35.89 45.75 32"/></g></g></svg>