<svg xmlns="http://www.w3.org/2000/svg" viewBox="0 0 64 64"><defs><style>.cls-1,.cls-2{fill:#1a1a1a;}.cls-1{opacity:0;}.cls-3{fill:#c62d43;}.cls-4{fill:#e62e49;}.cls-5{fill:#ff7f7d;}</style></defs><title>Chevrons Down Outline</title><g id="Layer_2" data-name="Layer 2"><g id="Layer_3" data-name="Layer 3"><rect class="cls-1" width="64" height="64"/><path class="cls-2" d="M32,63.5a10.15,10.15,0,0,1-3.66-.68L13.49,57.07a7.42,7.42,0,0,1-4.82-6.22L7.81,39.26A5.46,5.46,0,0,1,9.27,35.1a5.89,5.89,0,0,1,4.3-1.85,6.06,6.06,0,0,1,2.33.47L32,40.33l16.1-6.61a6.06,6.06,0,0,1,2.33-.47,5.89,5.89,0,0,1,4.3,1.85,5.46,5.46,0,0,1,1.46,4.16l-.86,11.59a7.43,7.43,0,0,1-4.82,6.22L35.66,62.82A10.15,10.15,0,0,1,32,63.5Z"/><path class="cls-3" d="M14.93,53.34l14.86,5.75a6.13,6.13,0,0,0,4.42,0l14.86-5.75a3.39,3.39,0,0,0,2.27-2.79L52.2,39a1.77,1.77,0,0,0-2.58-1.54L32,44.66,14.38,37.42A1.77,1.77,0,0,0,11.8,39l.86,11.59A3.39,3.39,0,0,0,14.93,53.34Z"/><path class="cls-2" d="M32,35.39a10.22,10.22,0,0,1-4-.81L11.71,27.67a8,8,0,0,1-4.94-6.75l-1-14A5.82,5.82,0,0,1,7.28,2.4,6,6,0,0,1,11.65.5a6.29,6.29,0,0,1,2.55.55L32,9.11,49.8,1.05A6.29,6.29,0,0,1,52.35.5a6,6,0,0,1,4.37,1.9,5.82,5.82,0,0,1,1.55,4.48l-1,14a8,8,0,0,1-4.94,6.75L36,34.58A10.22,10.22,0,0,1,32,35.39Z"/><path class="cls-3" d="M13.27,24,29.58,30.9a6.25,6.25,0,0,0,4.84,0L50.73,24a4.05,4.05,0,0,0,2.51-3.35l1-14A2,2,0,0,0,51.45,4.7L32,13.5,12.55,4.7A2,2,0,0,0,9.71,6.58l1,14.05A4.05,4.05,0,0,0,13.27,24Z"/><path class="cls-4" d="M17.14,38.55a53.89,53.89,0,0,0,4.18,17.26l8.47,3.28a6.13,6.13,0,0,0,4.42,0l8.47-3.28a53.89,53.89,0,0,0,4.18-17.26L32,44.66Z"/><path class="cls-4" d="M32,13.5,21.22,8.62a54,54,0,0,0-4.08,17L29.58,30.9a6.25,6.25,0,0,0,4.84,0l12.44-5.28a54,54,0,0,0-4.08-17Z"/><path class="cls-5" d="M24.82,16.3c-.7,1.81-3.56,1.94-6.6.78s-5.09-3.16-4.39-5,3.71-2.35,6.75-1.19S25.51,14.48,24.82,16.3Z"/></g></g></svg>