<svg xmlns="http://www.w3.org/2000/svg" viewBox="0 0 64 64"><defs><style>.cls-1{fill:#1a1a1a;opacity:0;}.cls-2{fill:#fff;}</style></defs><title>Chevrons Down Flat White</title><g id="Layer_2" data-name="Layer 2"><g id="Layer_3" data-name="Layer 3"><rect class="cls-1" width="64" height="64"/><path class="cls-2" d="M49.62,34.92,32,42.16,14.38,34.92a1.77,1.77,0,0,0-2.58,1.54l.86,11.59a3.39,3.39,0,0,0,2.27,2.79l14.86,5.75a6.13,6.13,0,0,0,4.42,0l14.86-5.75a3.39,3.39,0,0,0,2.27-2.79l.86-11.59A1.77,1.77,0,0,0,49.62,34.92Z"/><path class="cls-2" d="M51.45,7.2,32,16,12.55,7.2A2,2,0,0,0,9.71,9.08l1,14.05a4.05,4.05,0,0,0,2.51,3.35L29.58,33.4a6.25,6.25,0,0,0,4.84,0l16.31-6.92a4.05,4.05,0,0,0,2.51-3.36l1-14A2,2,0,0,0,51.45,7.2Z"/></g></g></svg>