<svg xmlns="http://www.w3.org/2000/svg" viewBox="0 0 64 64"><defs><style>.cls-1{fill:#1a1a1a;opacity:0;}.cls-2{fill:#c62d43;}.cls-3{fill:#e62e49;}.cls-4{fill:#ff7f7d;}</style></defs><title>Chevrons Down</title><g id="Layer_2" data-name="Layer 2"><g id="Layer_3" data-name="Layer 3"><rect class="cls-1" width="64" height="64"/><path class="cls-2" d="M14.93,53.34l14.86,5.75a6.13,6.13,0,0,0,4.42,0l14.86-5.75a3.39,3.39,0,0,0,2.27-2.79L52.2,39a1.77,1.77,0,0,0-2.58-1.54L32,44.66,14.38,37.42A1.77,1.77,0,0,0,11.8,39l.86,11.59A3.39,3.39,0,0,0,14.93,53.34Z"/><path class="cls-2" d="M13.27,24,29.58,30.9a6.25,6.25,0,0,0,4.84,0L50.73,24a4.05,4.05,0,0,0,2.51-3.35l1-14A2,2,0,0,0,51.45,4.7L32,13.5,12.55,4.7A2,2,0,0,0,9.71,6.58l1,14.05A4.05,4.05,0,0,0,13.27,24Z"/><path class="cls-3" d="M17.14,38.55a53.89,53.89,0,0,0,4.18,17.26l8.47,3.28a6.13,6.13,0,0,0,4.42,0l8.47-3.28a53.89,53.89,0,0,0,4.18-17.26L32,44.66Z"/><path class="cls-3" d="M32,13.5,21.22,8.62a54,54,0,0,0-4.08,17L29.58,30.9a6.25,6.25,0,0,0,4.84,0l12.44-5.28a54,54,0,0,0-4.08-17Z"/><path class="cls-4" d="M24.82,16.3c-.7,1.81-3.56,1.94-6.6.78s-5.09-3.16-4.39-5,3.71-2.35,6.75-1.19S25.51,14.48,24.82,16.3Z"/></g></g></svg>