<?xml version="1.0" encoding="UTF-8"?>
<svg id="Layer_2" data-name="Layer 2" xmlns="http://www.w3.org/2000/svg" viewBox="0 0 64 64">
  <defs>
    <style>
      .cls-1 {
        fill: #65d666;
      }

      .cls-1, .cls-2, .cls-3, .cls-4 {
        stroke-width: 0px;
      }

      .cls-2, .cls-3 {
        fill: #1a1a1a;
      }

      .cls-3 {
        opacity: 0;
      }

      .cls-4 {
        fill: #39b54a;
      }
    </style>
  </defs>
  <g id="Exports_2" data-name="Exports 2">
    <g>
      <rect class="cls-3" width="64" height="64"/>
      <g>
        <path class="cls-2" d="M51,2h-6c-3.86,0-7,3.14-7,7v8.69c-.91-.43-1.93-.69-3-.69h-6c-3.86,0-7,3.14-7,7v8.69c-.91-.43-1.93-.69-3-.69h-6c-3.86,0-7,3.14-7,7v16c0,3.86,3.14,7,7,7h6c1.96,0,3.73-.81,5-2.11,1.27,1.3,3.04,2.11,5,2.11h6c1.96,0,3.73-.81,5-2.11,1.27,1.3,3.04,2.11,5,2.11h6c3.86,0,7-3.14,7-7V9c0-3.86-3.14-7-7-7Z"/>
        <path class="cls-1" d="M51,6h-6c-1.66,0-3,1.34-3,3v8c0-1.66,1.34-3,3-3h6c1.66,0,3,1.34,3,3v-8c0-1.66-1.34-3-3-3Z"/>
        <rect class="cls-4" x="42" y="14" width="12" height="44" rx="3" ry="3"/>
        <path class="cls-1" d="M35,21h-6c-1.66,0-3,1.34-3,3v8c0-1.66,1.34-3,3-3h6c1.66,0,3,1.34,3,3v-8c0-1.66-1.34-3-3-3Z"/>
        <rect class="cls-4" x="26" y="29" width="12" height="29" rx="3" ry="3"/>
        <path class="cls-1" d="M19,36h-6c-1.66,0-3,1.34-3,3v8c0-1.66,1.34-3,3-3h6c1.66,0,3,1.34,3,3v-8c0-1.66-1.34-3-3-3Z"/>
        <rect class="cls-4" x="10" y="44" width="12" height="14" rx="3" ry="3"/>
      </g>
    </g>
  </g>
</svg>