<?xml version="1.0" encoding="UTF-8"?>
<svg id="Layer_2" data-name="Layer 2" xmlns="http://www.w3.org/2000/svg" viewBox="0 0 64 64">
  <defs>
    <style>
      .cls-1, .cls-2 {
        fill: #1a1a1a;
        stroke-width: 0px;
      }

      .cls-2 {
        opacity: 0;
      }
    </style>
  </defs>
  <g id="Exports_1" data-name="Exports 1">
    <g>
      <rect class="cls-2" width="64" height="64"/>
      <g>
        <path class="cls-1" d="M51,6h-6c-1.66,0-3,1.34-3,3v46c0,1.66,1.34,3,3,3h6c1.66,0,3-1.34,3-3V9c0-1.66-1.34-3-3-3Z"/>
        <path class="cls-1" d="M35,21h-6c-1.66,0-3,1.34-3,3v31c0,1.66,1.34,3,3,3h6c1.66,0,3-1.34,3-3v-31c0-1.66-1.34-3-3-3Z"/>
        <path class="cls-1" d="M19,36h-6c-1.66,0-3,1.34-3,3v16c0,1.66,1.34,3,3,3h6c1.66,0,3-1.34,3-3v-16c0-1.66-1.34-3-3-3Z"/>
      </g>
    </g>
  </g>
</svg>