<svg xmlns="http://www.w3.org/2000/svg" viewBox="0 0 64 64"><defs><style>.cls-1,.cls-2{fill:#fff;}.cls-1{opacity:0;}</style></defs><title>Paintbrush White</title><g id="Layer_2" data-name="Layer 2"><g id="Layer_2-2" data-name="Layer 2"><rect class="cls-1" width="64" height="64"/><path class="cls-2" d="M59.44,29.28a4.81,4.81,0,0,0-1.22-2.43c0-.05-.08-.11-.13-.16L58,26.63l-3.12-3.17L38.09,6.34a4.82,4.82,0,0,0-7.11,0l-6.93,7.79a1.63,1.63,0,0,0,.13,2.17L19.67,22l-.23.29L19,21.79a.84.84,0,0,0-1.23,0l-3.29,3.7h0a2,2,0,0,0,.1,3.1l3.59,3.59a3.72,3.72,0,0,1,1.22,2.51,3.52,3.52,0,0,1-1.7,3.3C13.89,40.55,10.22,43,6.73,45.52a5.32,5.32,0,0,0-2.09,5.74,6.32,6.32,0,0,0,1.69,3.17h0l2.91,2.91a6.17,6.17,0,0,0,7.58,1A8.24,8.24,0,0,0,18.94,56c2.13-3.1,4.28-6.3,6.51-9.58a6.1,6.1,0,0,1,1-1.25,3.57,3.57,0,0,1,5,.32c1.22,1.2,2.42,2.41,3.62,3.62a2,2,0,0,0,3.11.11l3.69-3.3a.84.84,0,0,0,0-1.23l-.06-.06,6.6-5.35a1.78,1.78,0,0,0,1.07.44,1.76,1.76,0,0,0,.56-.07,1.41,1.41,0,0,0,.5-.26l7.28-5.89a4.5,4.5,0,0,0,1.55-2.37,4.76,4.76,0,0,0,.14-.92A4.85,4.85,0,0,0,59.44,29.28ZM36.36,39.19l-7.43-7.43-6.51-7.45,5-5.44c1.53,1.21,3.21,2.56,4,3.32,2.7,2.54,7.31,8.31,9.91,10.88.21.2.48.46.79.74Z"/></g></g></svg>