<svg xmlns="http://www.w3.org/2000/svg" viewBox="0 0 64 64"><defs><style>.cls-1{opacity:0;}.cls-2{fill:#fff;}.cls-3{fill:#ebb369;}.cls-4{fill:#ffdfb5;}.cls-5{fill:#d1864b;}.cls-6{fill:#a0f;}.cls-7{fill:#5414b3;}.cls-8{fill:#d769ff;}</style></defs><title>Paintbrush Purple</title><g id="Layer_2" data-name="Layer 2"><g id="_101-200" data-name="101-200"><g class="cls-1"><rect class="cls-2" width="64" height="64"/></g><polygon class="cls-3" points="55.24 33.74 33.02 12.81 21.97 24.8 41.8 44.63 55.24 33.74"/><polygon class="cls-4" points="50.8 30.58 28.66 9.71 19.01 21.85 38.84 41.67 50.8 30.58"/><path class="cls-5" d="M41.86,44.69,21.39,24.22,17.46,28.5h0a2,2,0,0,0,.09,3.08c1.19,1.2,2.39,2.39,3.59,3.59a3.75,3.75,0,0,1,1.21,2.49,3.48,3.48,0,0,1-1.74,3.27c-3.81,2.54-7.56,4.43-11.1,6.89A6,6,0,0,0,7.42,54c.08.43-.35.28-.19.66l-.93-.27,2.91,2.91a6.15,6.15,0,0,0,7.57,1A8.1,8.1,0,0,0,18.93,56c2.14-3.1,4.29-6.3,6.52-9.58a6.1,6.1,0,0,1,1-1.25,3.57,3.57,0,0,1,5,.32c1.21,1.2,2.41,2.41,3.62,3.62a2,2,0,0,0,3.11.11l3.68-3.3A.84.84,0,0,0,41.86,44.69Z"/><path class="cls-3" d="M19,21.79a.83.83,0,0,0-1.22,0l-3.29,3.7h0a2,2,0,0,0,.1,3.1c1.2,1.2,2.39,2.4,3.59,3.59a3.76,3.76,0,0,1,1.22,2.51,3.52,3.52,0,0,1-1.7,3.3C13.89,40.55,10.22,43,6.73,45.52a5.31,5.31,0,0,0-2.09,5.74c.83,4.24,5.94,6.59,9.33,4.26a8.11,8.11,0,0,0,2.12-2.36c2.1-3.14,4.21-6.38,6.4-9.7a6.14,6.14,0,0,1,1-1.27,3.52,3.52,0,0,1,5,.29c1.22,1.2,2.42,2.42,3.62,3.62a2,2,0,0,0,3.09.09l4.26-3.93Zm-8.41,31a2.56,2.56,0,0,1-2.39-2.41,2.14,2.14,0,0,1,2.2-2.27,2.58,2.58,0,0,1,2.44,2.46A2.14,2.14,0,0,1,10.54,52.75Z"/><path class="cls-6" d="M58.09,26.69l-20-20.35a4.83,4.83,0,0,0-7.12,0l-6.92,7.79a1.65,1.65,0,0,0,.3,2.34s5.44,4.15,7.1,5.71c2.71,2.54,7.31,8.31,9.92,10.88,1.67,1.64,7,6.21,7,6.21a1.68,1.68,0,0,0,2.13.11l7.28-5.89A4.53,4.53,0,0,0,58.09,26.69Z"/><path class="cls-7" d="M54.91,23.46a25.36,25.36,0,0,1,1.86,3.86c1.07,3.05-7,7.11-8.61,8.53-.77.68-2.23.51-3.53.17,1.88,1.65,3.77,3.26,3.77,3.26a1.68,1.68,0,0,0,2.13.11l7.28-5.89a4.53,4.53,0,0,0,.28-6.81Z"/><path class="cls-8" d="M38.69,11.81C38,13.06,36,13.2,34.1,12.12s-2.83-3-2.19-4.23,2.71-1.45,4.59-.36S39.37,10.54,38.69,11.81Z"/><path class="cls-8" d="M42.2,16.47a1.8,1.8,0,0,1-2.26-1.11,1.85,1.85,0,0,1,.53-2.49A1.81,1.81,0,0,1,42.74,14,1.82,1.82,0,0,1,42.2,16.47Z"/></g></g></svg>