<svg xmlns="http://www.w3.org/2000/svg" viewBox="0 0 64 64"><defs><style>.cls-1{fill:#fff;opacity:0;}.cls-2{fill:#ebb369;}.cls-3{fill:#ffdfb5;}.cls-4{fill:#d1864b;}.cls-5{fill:#e62e49;}.cls-6{fill:#a72d3e;}.cls-7{fill:#ff8769;}</style></defs><title>Paintbrush</title><g id="Layer_2" data-name="Layer 2"><g id="Layer_2-2" data-name="Layer 2"><rect class="cls-1" width="64" height="64"/><polygon class="cls-2" points="55.24 33.74 33.03 12.81 21.97 24.8 41.8 44.63 55.24 33.74"/><polygon class="cls-3" points="50.8 30.58 28.67 9.71 19.02 21.85 38.84 41.67 50.8 30.58"/><path class="cls-4" d="M41.86,44.69,21.39,24.22,17.47,28.5h0a2,2,0,0,0,.08,3.08l3.59,3.59a3.7,3.7,0,0,1,1.21,2.49,3.48,3.48,0,0,1-1.74,3.27c-3.8,2.54-7.56,4.43-11.1,6.89A6,6,0,0,0,7.42,54c.08.43-.35.28-.19.66l-.93-.27,2.91,2.91a6.17,6.17,0,0,0,7.58,1A8.24,8.24,0,0,0,18.94,56c2.13-3.1,4.28-6.3,6.51-9.58a6.1,6.1,0,0,1,1-1.25,3.57,3.57,0,0,1,5,.32c1.22,1.2,2.42,2.41,3.62,3.62a2,2,0,0,0,3.11.11l3.69-3.3A.84.84,0,0,0,41.86,44.69Z"/><path class="cls-2" d="M19,21.79a.84.84,0,0,0-1.23,0l-3.29,3.7h0a2,2,0,0,0,.1,3.1l3.59,3.59a3.72,3.72,0,0,1,1.22,2.51,3.52,3.52,0,0,1-1.7,3.3C13.89,40.55,10.22,43,6.73,45.52a5.32,5.32,0,0,0-2.09,5.74c.83,4.24,5.94,6.59,9.34,4.26a8.22,8.22,0,0,0,2.11-2.36c2.1-3.14,4.21-6.38,6.4-9.7a6.51,6.51,0,0,1,1-1.27,3.52,3.52,0,0,1,5,.29c1.22,1.2,2.42,2.42,3.63,3.62a2,2,0,0,0,3.08.09l4.27-3.93Zm-8.42,31a2.56,2.56,0,0,1-2.39-2.41,2.14,2.14,0,0,1,2.2-2.27,2.57,2.57,0,0,1,2.44,2.46A2.13,2.13,0,0,1,10.54,52.75Z"/><path class="cls-5" d="M58.09,26.69l-20-20.35a4.82,4.82,0,0,0-7.11,0l-6.93,7.79a1.66,1.66,0,0,0,.3,2.34s5.44,4.15,7.11,5.71c2.7,2.54,7.31,8.31,9.91,10.88,1.67,1.64,7,6.21,7,6.21a1.68,1.68,0,0,0,2.13.11l7.28-5.89A4.52,4.52,0,0,0,58.09,26.69Z"/><path class="cls-6" d="M54.91,23.46a26.46,26.46,0,0,1,1.87,3.86c1.07,3.05-7,7.11-8.62,8.53-.77.68-2.23.51-3.53.17,1.88,1.65,3.77,3.26,3.77,3.26a1.68,1.68,0,0,0,2.13.11l7.28-5.89a4.52,4.52,0,0,0,.28-6.81Z"/><path class="cls-7" d="M38.69,11.81C38,13.06,36,13.2,34.1,12.12s-2.83-3-2.18-4.23,2.7-1.45,4.58-.36S39.38,10.54,38.69,11.81Z"/><path class="cls-7" d="M42.2,16.47A1.79,1.79,0,0,1,40,15.36a1.84,1.84,0,0,1,.52-2.49A1.81,1.81,0,0,1,42.75,14,1.83,1.83,0,0,1,42.2,16.47Z"/></g></g></svg>