<svg xmlns="http://www.w3.org/2000/svg" viewBox="0 0 64 64"><defs><style>.cls-1{fill:#1a1a1a;opacity:0;}.cls-2{fill:#fff;}.cls-3{fill:#a72d3e;}.cls-4{fill:#e62e49;}.cls-5{fill:#bdccd4;}.cls-6{fill:#96dbff;}.cls-7{fill:#37b9ff;}.cls-8{fill:#dce9f0;}</style></defs><title>Shop</title><g id="Layer_2" data-name="Layer 2"><g id="Finals"><rect class="cls-1" width="64" height="64"/><rect class="cls-2" x="12.95" y="21.46" width="38.1" height="29.55"/><rect class="cls-2" x="48.35" y="18.12" width="5.92" height="32.89"/><rect class="cls-2" x="9.73" y="18.12" width="5.92" height="32.89"/><path class="cls-3" d="M4.5,21a9.17,9.17,0,1,0,18.33,0Z"/><path class="cls-4" d="M22.83,21H4.5L11.1,8.8a1.78,1.78,0,0,1,1.56-.93H25.2Z"/><path class="cls-5" d="M22.83,21a9.17,9.17,0,0,0,18.34,0Z"/><polygon class="cls-2" points="41.17 21.01 22.83 21.01 25.2 7.87 38.8 7.87 41.17 21.01"/><path class="cls-3" d="M41.17,21A9.17,9.17,0,1,0,59.5,21Z"/><path class="cls-4" d="M59.5,21H41.17L38.8,7.87H51.34a1.78,1.78,0,0,1,1.56.93Z"/><path class="cls-6" d="M35.75,33.26h11.6a1,1,0,0,1,1,1V51H34.75V34.26A1,1,0,0,1,35.75,33.26Z"/><rect class="cls-7" x="14.85" y="33.26" width="14.6" height="10.75" rx="1"/><rect class="cls-5" x="5.96" y="49.85" width="52.08" height="6.29" rx="1"/><path class="cls-7" d="M40.16,33.26H35.75a1,1,0,0,0-1,1V47Z"/><path class="cls-6" d="M15.85,33.26a1,1,0,0,0-1,1V43a1,1,0,0,0,1,1H17l4.22-10.75Z"/><rect class="cls-8" x="13.72" y="42.32" width="16.85" height="3.38" rx="1"/></g></g></svg>