<svg xmlns="http://www.w3.org/2000/svg" viewBox="0 0 64 64"><defs><style>.cls-1,.cls-2{fill:#1a1a1a;}.cls-1{opacity:0;}</style></defs><title>Shop Black</title><g id="Layer_2" data-name="Layer 2"><g id="Finals"><rect class="cls-1" width="64" height="64"/><path class="cls-2" d="M59.1,18.27,52.9,7.8a1.78,1.78,0,0,0-1.56-.93H12.66a1.78,1.78,0,0,0-1.56.93L4.9,18.27a3.07,3.07,0,0,0-.34,1.79A9.17,9.17,0,0,0,13,28.15c.24,0,.48,0,.72,0a9.19,9.19,0,0,0,8.49-5.72c.13-.32.24-.65.34-1a.35.35,0,0,1,.67,0,8.74,8.74,0,0,0,.34,1,9.16,9.16,0,0,0,17,0,8.74,8.74,0,0,0,.34-1,.35.35,0,0,1,.67,0c.1.33.21.66.34,1a9.19,9.19,0,0,0,8.49,5.72c.24,0,.48,0,.72,0a9.17,9.17,0,0,0,8.39-8.09A3.07,3.07,0,0,0,59.1,18.27Z"/><path class="cls-2" d="M57,50.85H54.27V30.52a12.26,12.26,0,0,1-3.22.63c-.24,0-.48,0-.72,0a11.85,11.85,0,0,1-2-.18,12.24,12.24,0,0,1-7.18-4,12.17,12.17,0,0,1-18.34,0,12.24,12.24,0,0,1-7.18,4,11.85,11.85,0,0,1-2,.18c-.24,0-.48,0-.72,0a12.26,12.26,0,0,1-3.22-.63V50.85H7a1,1,0,0,0-1,1v4.28a1,1,0,0,0,1,1H57a1,1,0,0,0,1-1V51.85A1,1,0,0,0,57,50.85ZM35.75,36.26a1,1,0,0,1,1-1h9.6a1,1,0,0,1,1,1V50.85H35.75Zm-19.9,0a1,1,0,0,1,1-1h10.6a1,1,0,0,1,1,1V45a1,1,0,0,1-1,1H16.85a1,1,0,0,1-1-1Z"/></g></g></svg>