<svg xmlns="http://www.w3.org/2000/svg" viewBox="0 0 64 64"><defs><style>.cls-1,.cls-2{fill:#1a1a1a;}.cls-1{opacity:0;}.cls-3{fill:#de6529;}.cls-4{fill:#fec92b;}.cls-5{fill:#fc9504;}</style></defs><title>Coin 2 Gold Outline</title><g id="Layer_2" data-name="Layer 2"><g id="_001-100" data-name="001-100"><rect class="cls-1" width="64" height="64"/><path class="cls-2" d="M32,.5A29.33,29.33,0,0,0,2.7,29.8v4.4a29.3,29.3,0,0,0,58.6,0V29.8A29.33,29.33,0,0,0,32,.5Z"/><circle class="cls-3" cx="32" cy="34.2" r="25.3"/><rect class="cls-3" x="6.7" y="29.8" width="50.6" height="4.4"/><circle class="cls-4" cx="32" cy="29.8" r="25.3"/><circle class="cls-5" cx="32" cy="29.8" r="15.2"/><path class="cls-3" d="M32,18.6a15.18,15.18,0,0,1,15,13.2,14.71,14.71,0,0,0,.15-2,15.2,15.2,0,0,0-30.4,0,14.71,14.71,0,0,0,.15,2A15.18,15.18,0,0,1,32,18.6Z"/></g></g></svg>