<svg xmlns="http://www.w3.org/2000/svg" viewBox="0 0 64 64"><defs><style>.cls-1{fill:#fff;}.cls-2{fill:none;}</style></defs><title>Gear Flat White</title><g id="Layer_2" data-name="Layer 2"><g id="Layer_2-2" data-name="Layer 2"><path class="cls-1" d="M59.49,37.37a28.42,28.42,0,0,0,0-10.72c-1.64-.17-3.35-.33-5.13-.47a22.87,22.87,0,0,0-2.43-5.85q1.74-2.05,3.29-4a28.18,28.18,0,0,0-7.58-7.58c-1.27,1-2.6,2.14-4,3.3a23,23,0,0,0-5.85-2.43c-.14-1.78-.3-3.5-.47-5.13a28.42,28.42,0,0,0-10.72,0c-.17,1.63-.33,3.35-.47,5.13a23,23,0,0,0-5.85,2.43c-1.36-1.16-2.69-2.26-4-3.3a28.18,28.18,0,0,0-7.58,7.58q1.55,1.92,3.29,4a22.87,22.87,0,0,0-2.43,5.85c-1.78.14-3.49.3-5.13.47a28.42,28.42,0,0,0,0,10.72c1.64.17,3.35.33,5.13.47a23,23,0,0,0,2.43,5.85c-1.16,1.36-2.26,2.69-3.29,4a27.9,27.9,0,0,0,7.58,7.58c1.27-1,2.6-2.13,4-3.29a23.39,23.39,0,0,0,5.85,2.43c.14,1.78.3,3.49.47,5.12a27.88,27.88,0,0,0,10.72,0c.17-1.63.33-3.34.47-5.12a23.39,23.39,0,0,0,5.85-2.43c1.36,1.16,2.69,2.26,4,3.29a27.9,27.9,0,0,0,7.58-7.58c-1-1.27-2.13-2.6-3.29-4a23,23,0,0,0,2.43-5.85C56.14,37.7,57.85,37.54,59.49,37.37ZM32,44.23A12.22,12.22,0,1,1,44.22,32,12.22,12.22,0,0,1,32,44.23Z"/><rect class="cls-2" width="64" height="64"/></g></g></svg>