<svg xmlns="http://www.w3.org/2000/svg" xmlns:xlink="http://www.w3.org/1999/xlink" viewBox="0 0 64 64"><defs><style>.cls-1{fill:#7b97a6;}.cls-2{fill:none;}.cls-3{fill:#1a1a1a;}.cls-4{isolation:isolate;}.cls-5{clip-path:url(#clip-path);}.cls-6{clip-path:url(#clip-path-2);}.cls-7{clip-path:url(#clip-path-3);}.cls-8{clip-path:url(#clip-path-4);}.cls-9{clip-path:url(#clip-path-5);}.cls-10{clip-path:url(#clip-path-6);}.cls-11{clip-path:url(#clip-path-7);}.cls-12{clip-path:url(#clip-path-8);}.cls-13{clip-path:url(#clip-path-9);}.cls-14{clip-path:url(#clip-path-10);}.cls-15{clip-path:url(#clip-path-11);}.cls-16{clip-path:url(#clip-path-12);}.cls-17{clip-path:url(#clip-path-13);}.cls-18{clip-path:url(#clip-path-14);}.cls-19{clip-path:url(#clip-path-15);}.cls-20{clip-path:url(#clip-path-16);}.cls-21{clip-path:url(#clip-path-17);}.cls-22{fill:#bdccd4;}.cls-23{clip-path:url(#clip-path-18);}</style><clipPath id="clip-path"><path class="cls-1" d="M42.68,11.59l-6.12,3.59q1.55-1.63,3-3.11l6.12-3.58C44.71,9.46,43.71,10.5,42.68,11.59Z"/></clipPath><clipPath id="clip-path-2"><path class="cls-1" d="M59.22,34.75l-6.11,3.59c-1.38.18-2.82.36-4.34.51l6.12-3.59C56.41,35.11,57.85,34.93,59.22,34.75Z"/></clipPath><clipPath id="clip-path-3"><path class="cls-1" d="M27.4,9.61,21.28,13.2c-.09-1.65-.16-3.24-.21-4.75l6.12-3.59C27.24,6.37,27.31,8,27.4,9.61Z"/></clipPath><clipPath id="clip-path-4"><path class="cls-1" d="M51.23,51.45,45.11,55q-1.83-1.41-3.79-3l6.12-3.59C48.75,49.52,50,50.52,51.23,51.45Z"/></clipPath><clipPath id="clip-path-5"><path class="cls-1" d="M41,40.29l-6.12,3.59C38.08,42,40,38.08,39.4,33.61c-.8-6.24-6.14-11.22-11.92-11.12A9,9,0,0,0,23,23.72l6.11-3.59A9,9,0,0,1,33.6,18.9c5.78-.1,11.11,4.88,11.92,11.13C46.09,34.49,44.2,38.39,41,40.29Z"/></clipPath><clipPath id="clip-path-6"><path class="cls-1" d="M17.78,14.75l6.11-3.59c-.41.24-.82.5-1.21.78l-6.12,3.59A14,14,0,0,1,17.78,14.75Z"/></clipPath><clipPath id="clip-path-7"><path class="cls-1" d="M46.2,49.27l-6.12,3.58a16.23,16.23,0,0,1-3.48,1.54l6.12-3.59A16.71,16.71,0,0,0,46.2,49.27Z"/></clipPath><clipPath id="clip-path-8"><path class="cls-1" d="M13.31,16.08,7.2,19.67a21.38,21.38,0,0,1,5.58-7.12L18.9,9A21.4,21.4,0,0,0,13.31,16.08Z"/></clipPath><clipPath id="clip-path-9"><path class="cls-1" d="M16.61,19.7l-6.12,3.59C9.33,22,8.23,20.84,7.2,19.67l6.11-3.59C14.34,17.25,15.45,18.45,16.61,19.7Z"/></clipPath><clipPath id="clip-path-10"><path class="cls-1" d="M33.76,55.72l-6.12,3.59c-.34-1.52-.69-3.1-1-4.74L32.74,51Q33.24,53.44,33.76,55.72Z"/></clipPath><clipPath id="clip-path-11"><path class="cls-1" d="M42.93,55.56l-6.12,3.58a21.52,21.52,0,0,1-4.53.56,23.27,23.27,0,0,1-4.64-.39l6.12-3.59a23.2,23.2,0,0,0,4.64.39A22.28,22.28,0,0,0,42.93,55.56Z"/></clipPath><clipPath id="clip-path-12"><path class="cls-1" d="M15.23,25.15,9.11,28.74a20.19,20.19,0,0,1,1.38-5.45l6.12-3.59A19.83,19.83,0,0,0,15.23,25.15Z"/></clipPath><clipPath id="clip-path-13"><path class="cls-1" d="M32.74,51l-6.12,3.59a21.56,21.56,0,0,1-5.3-2.16l6.12-3.59A21.4,21.4,0,0,0,32.74,51Z"/></clipPath><clipPath id="clip-path-14"><path class="cls-1" d="M19.4,41.32,13.28,44.9a24.68,24.68,0,0,1-2.78-5.38l6.12-3.59A24.76,24.76,0,0,0,19.4,41.32Z"/></clipPath><clipPath id="clip-path-15"><path class="cls-1" d="M16.62,35.93,10.5,39.52c-1.54-.1-3-.22-4.45-.35l6.12-3.59C13.59,35.71,15.08,35.83,16.62,35.93Z"/></clipPath><clipPath id="clip-path-16"><path class="cls-1" d="M12.17,35.58,6.05,39.17a30.52,30.52,0,0,1-1.08-5,29.91,29.91,0,0,1-.2-5l6.12-3.59a27.9,27.9,0,0,0,.2,5A30.29,30.29,0,0,0,12.17,35.58Z"/></clipPath><clipPath id="clip-path-17"><path class="cls-1" d="M24.44,51.93l-6.12,3.58a30,30,0,0,1-7.39-6.89L17.05,45A29.68,29.68,0,0,0,24.44,51.93Z"/></clipPath><clipPath id="clip-path-18"><path class="cls-1" d="M17.05,45l-6.12,3.59c.73-1.2,1.52-2.44,2.35-3.72l6.12-3.58C18.57,42.59,17.78,43.83,17.05,45Z"/></clipPath></defs><title>Gear Outline</title><g id="Layer_2" data-name="Layer 2"><g id="Layer_2-2" data-name="Layer 2"><rect class="cls-2" width="64" height="64"/><path class="cls-3" d="M63,29.28a32.89,32.89,0,0,0-1.23-5.62,4,4,0,0,0-3.4-2.77l-2.13-.18c-.25-.53-.52-1.05-.8-1.56l1.06-1.7A4,4,0,0,0,56.22,13,35,35,0,0,0,52.34,8.7a32.36,32.36,0,0,0-4.5-3.53,3.92,3.92,0,0,0-2.16-.64,4,4,0,0,0-2,.54L41.21,6.52l-.43-.16-.55-2.53a4,4,0,0,0-3.12-3,26.86,26.86,0,0,0-5-.46h-.48a26.79,26.79,0,0,0-2.71.19A25.27,25.27,0,0,0,26.28,1a4,4,0,0,0-1.09.44L19.13,5h-.24a4,4,0,0,0-2,.54L10.78,9.13a4,4,0,0,0-.52.36,25.21,25.21,0,0,0-6.62,8.44,4,4,0,0,0,.59,4.36c.51.58,1,1.16,1.58,1.76l-3,1.79A4,4,0,0,0,.82,29.06a32.62,32.62,0,0,0,.23,5.67,33.58,33.58,0,0,0,1.22,5.6,4,4,0,0,0,3.41,2.78l2.12.18c.25.53.52,1.05.81,1.57-.37.57-.72,1.14-1.06,1.71A4,4,0,0,0,7.79,51a33.41,33.41,0,0,0,8.38,7.81,3.89,3.89,0,0,0,2.15.64,4,4,0,0,0,2-.54l2.46-1.45.43.17,0,.17c.17.8.35,1.59.52,2.36a4,4,0,0,0,3.14,3,28.14,28.14,0,0,0,5,.46h.45A26.72,26.72,0,0,0,37.7,63a4.15,4.15,0,0,0,1.12-.44L44.89,59h.22a4,4,0,0,0,2-.54l6.12-3.59a4.49,4.49,0,0,0,.52-.37,25.22,25.22,0,0,0,6.61-8.43,4,4,0,0,0-.6-4.37c-.53-.61-1.06-1.19-1.57-1.75l3-1.79A4,4,0,0,0,63.17,35,31.16,31.16,0,0,0,63,29.28ZM28.81,26.56a9,9,0,0,1,6.67,7.56,7.48,7.48,0,0,1-.29,3.33,8,8,0,0,1-4.34-2.56,9.21,9.21,0,0,1-2.33-5A7.48,7.48,0,0,1,28.81,26.56Z"/><g class="cls-4"><g class="cls-4"><path class="cls-1" d="M42.68,11.59l-6.12,3.59q1.55-1.63,3-3.11l6.12-3.58C44.71,9.46,43.71,10.5,42.68,11.59Z"/><g class="cls-5"><g class="cls-4"><path class="cls-1" d="M42.68,11.59l-6.12,3.59q1.55-1.63,3-3.11l6.12-3.58c-1,1-2,2-3,3.1"/></g></g></g><g class="cls-4"><path class="cls-1" d="M59.22,34.75l-6.11,3.59c-1.38.18-2.82.36-4.34.51l6.12-3.59C56.41,35.11,57.85,34.93,59.22,34.75Z"/><g class="cls-6"><g class="cls-4"><path class="cls-1" d="M59.22,34.75l-6.11,3.59c-1.38.18-2.82.36-4.34.51l6.12-3.59c1.52-.15,3-.33,4.33-.51"/></g></g></g><g class="cls-4"><path class="cls-1" d="M27.4,9.61,21.28,13.2c-.09-1.65-.16-3.24-.21-4.75l6.12-3.59C27.24,6.37,27.31,8,27.4,9.61Z"/><g class="cls-7"><g class="cls-4"><path class="cls-1" d="M27.4,9.61,21.28,13.2c-.09-1.65-.16-3.24-.21-4.75l6.12-3.59c0,1.51.12,3.1.21,4.75"/></g></g></g><g class="cls-4"><path class="cls-1" d="M51.23,51.45,45.11,55q-1.83-1.41-3.79-3l6.12-3.59C48.75,49.52,50,50.52,51.23,51.45Z"/><g class="cls-8"><g class="cls-4"><path class="cls-1" d="M51.23,51.45,45.11,55q-1.83-1.41-3.79-3l6.12-3.59c1.31,1.05,2.57,2.05,3.79,3"/></g></g></g><g class="cls-4"><path class="cls-1" d="M41,40.29l-6.12,3.59C38.08,42,40,38.08,39.4,33.61c-.8-6.24-6.14-11.22-11.92-11.12A9,9,0,0,0,23,23.72l6.11-3.59A9,9,0,0,1,33.6,18.9c5.78-.1,11.11,4.88,11.92,11.13C46.09,34.49,44.2,38.39,41,40.29Z"/><g class="cls-9"><path class="cls-1" d="M41,40.29l-6.12,3.59C38.08,42,40,38.08,39.4,33.61c-.8-6.24-6.14-11.22-11.92-11.12A9,9,0,0,0,23,23.72l6.11-3.59A9,9,0,0,1,33.6,18.9c5.78-.1,11.11,4.88,11.92,11.13.57,4.46-1.32,8.36-4.56,10.26"/></g></g><g class="cls-4"><path class="cls-1" d="M17.78,14.75l6.11-3.59c-.41.24-.82.5-1.21.78l-6.12,3.59A14,14,0,0,1,17.78,14.75Z"/><g class="cls-10"><g class="cls-4"><path class="cls-1" d="M22.68,11.94l-6.12,3.59a14,14,0,0,1,1.22-.78l6.11-3.59c-.41.24-.82.5-1.21.78"/></g></g></g><g class="cls-4"><path class="cls-1" d="M46.2,49.27l-6.12,3.58a16.23,16.23,0,0,1-3.48,1.54l6.12-3.59A16.71,16.71,0,0,0,46.2,49.27Z"/><g class="cls-11"><g class="cls-4"><path class="cls-1" d="M46.2,49.27l-6.12,3.58a16.23,16.23,0,0,1-3.48,1.54l6.12-3.59a16.71,16.71,0,0,0,3.48-1.53"/></g></g></g><g class="cls-4"><path class="cls-1" d="M13.31,16.08,7.2,19.67a21.38,21.38,0,0,1,5.58-7.12L18.9,9A21.4,21.4,0,0,0,13.31,16.08Z"/><g class="cls-12"><g class="cls-4"><path class="cls-1" d="M13.31,16.08,7.2,19.67a21.38,21.38,0,0,1,5.58-7.12L18.9,9a21.4,21.4,0,0,0-5.59,7.12"/></g></g></g><g class="cls-4"><path class="cls-1" d="M16.61,19.7l-6.12,3.59C9.33,22,8.23,20.84,7.2,19.67l6.11-3.59C14.34,17.25,15.45,18.45,16.61,19.7Z"/><g class="cls-13"><g class="cls-4"><path class="cls-1" d="M16.61,19.7l-6.12,3.59C9.33,22,8.23,20.84,7.2,19.67l6.11-3.59c1,1.17,2.14,2.37,3.3,3.62"/></g></g></g><g class="cls-4"><path class="cls-1" d="M33.76,55.72l-6.12,3.59c-.34-1.52-.69-3.1-1-4.74L32.74,51Q33.24,53.44,33.76,55.72Z"/><g class="cls-14"><g class="cls-4"><path class="cls-1" d="M33.76,55.72l-6.12,3.59c-.34-1.52-.69-3.1-1-4.74L32.74,51q.49,2.46,1,4.74"/></g></g></g><g class="cls-4"><path class="cls-1" d="M42.93,55.56l-6.12,3.58a21.52,21.52,0,0,1-4.53.56,23.27,23.27,0,0,1-4.64-.39l6.12-3.59a23.2,23.2,0,0,0,4.64.39A22.28,22.28,0,0,0,42.93,55.56Z"/><g class="cls-15"><g class="cls-4"><path class="cls-1" d="M42.93,55.56l-6.12,3.58a21.52,21.52,0,0,1-4.53.56,23.27,23.27,0,0,1-4.64-.39l6.12-3.59a23.2,23.2,0,0,0,4.64.39,22.28,22.28,0,0,0,4.53-.55"/></g></g></g><g class="cls-4"><path class="cls-1" d="M15.23,25.15,9.11,28.74a20.19,20.19,0,0,1,1.38-5.45l6.12-3.59A19.83,19.83,0,0,0,15.23,25.15Z"/><g class="cls-16"><g class="cls-4"><path class="cls-1" d="M15.23,25.15,9.11,28.74a20.19,20.19,0,0,1,1.38-5.45l6.12-3.59a19.83,19.83,0,0,0-1.38,5.45"/></g></g></g><g class="cls-4"><path class="cls-1" d="M32.74,51l-6.12,3.59a21.56,21.56,0,0,1-5.3-2.16l6.12-3.59A21.4,21.4,0,0,0,32.74,51Z"/><g class="cls-17"><g class="cls-4"><path class="cls-1" d="M32.74,51l-6.12,3.59a21.56,21.56,0,0,1-5.3-2.16l6.12-3.59A21.4,21.4,0,0,0,32.74,51"/></g></g></g><g class="cls-4"><path class="cls-1" d="M19.4,41.32,13.28,44.9a24.68,24.68,0,0,1-2.78-5.38l6.12-3.59A24.76,24.76,0,0,0,19.4,41.32Z"/><g class="cls-18"><g class="cls-4"><path class="cls-1" d="M19.4,41.32,13.28,44.9a24.68,24.68,0,0,1-2.78-5.38l6.12-3.59a24.76,24.76,0,0,0,2.78,5.39"/></g></g></g><g class="cls-4"><path class="cls-1" d="M16.62,35.93,10.5,39.52c-1.54-.1-3-.22-4.45-.35l6.12-3.59C13.59,35.71,15.08,35.83,16.62,35.93Z"/><g class="cls-19"><g class="cls-4"><path class="cls-1" d="M16.62,35.93,10.5,39.52c-1.54-.1-3-.22-4.45-.35l6.12-3.59c1.42.13,2.91.25,4.45.35"/></g></g></g><g class="cls-4"><path class="cls-1" d="M12.17,35.58,6.05,39.17a30.52,30.52,0,0,1-1.08-5,29.91,29.91,0,0,1-.2-5l6.12-3.59a27.9,27.9,0,0,0,.2,5A30.29,30.29,0,0,0,12.17,35.58Z"/><g class="cls-20"><g class="cls-4"><path class="cls-1" d="M12.17,35.58,6.05,39.17a30.52,30.52,0,0,1-1.08-5,29.91,29.91,0,0,1-.2-5l6.12-3.59a27.9,27.9,0,0,0,.2,5,30.29,30.29,0,0,0,1.08,4.95"/></g></g></g><g class="cls-4"><path class="cls-1" d="M24.44,51.93l-6.12,3.58a30,30,0,0,1-7.39-6.89L17.05,45A29.68,29.68,0,0,0,24.44,51.93Z"/><g class="cls-21"><path class="cls-1" d="M24.44,51.93l-6.12,3.58a30,30,0,0,1-7.39-6.89L17.05,45a29.68,29.68,0,0,0,7.39,6.9"/></g></g><path class="cls-22" d="M59.22,34.75c-1.37.18-2.81.36-4.33.51a20.17,20.17,0,0,1-1.38,5.46q1.74,1.86,3.3,3.61a21.5,21.5,0,0,1-5.58,7.12c-1.22-.93-2.48-1.93-3.79-3a16.76,16.76,0,0,1-4.72,2.33c.09,1.65.16,3.24.21,4.76a22.28,22.28,0,0,1-4.53.55,23.2,23.2,0,0,1-4.64-.39q-.52-2.28-1-4.74a21.4,21.4,0,0,1-5.3-2.16q-1.55,1.63-3,3.11A29.68,29.68,0,0,1,17.05,45c.73-1.2,1.52-2.44,2.35-3.71a24.76,24.76,0,0,1-2.78-5.39c-1.54-.1-3-.22-4.45-.35a30.29,30.29,0,0,1-1.08-4.95,27.9,27.9,0,0,1-.2-5c1.38-.18,2.83-.35,4.34-.51a19.83,19.83,0,0,1,1.38-5.45c-1.16-1.25-2.27-2.45-3.3-3.62A21.4,21.4,0,0,1,18.9,9c1.21.93,2.48,1.93,3.78,3A16.77,16.77,0,0,1,27.4,9.61c-.09-1.65-.16-3.24-.21-4.75a21.59,21.59,0,0,1,4.52-.55,22.62,22.62,0,0,1,4.66.39c.34,1.51.67,3.09,1,4.73a22.12,22.12,0,0,1,5.3,2.16c1-1.09,2-2.13,3-3.1a29.81,29.81,0,0,1,7.39,6.89Q52,17.18,50.72,19.1a25.37,25.37,0,0,1,2.78,5.38c1.55.1,3,.22,4.44.35a29.4,29.4,0,0,1,1.08,5A26.85,26.85,0,0,1,59.22,34.75Zm-22.7,6.77c5.77-.11,9.8-5.25,9-11.49S39.38,18.8,33.6,18.9s-9.81,5.25-9,11.49,6.14,11.23,11.92,11.13"/><g class="cls-4"><path class="cls-1" d="M17.05,45l-6.12,3.59c.73-1.2,1.52-2.44,2.35-3.72l6.12-3.58C18.57,42.59,17.78,43.83,17.05,45Z"/><g class="cls-23"><g class="cls-4"><path class="cls-1" d="M17.05,45l-6.12,3.59c.73-1.2,1.52-2.44,2.35-3.72l6.12-3.58c-.83,1.27-1.62,2.51-2.35,3.71"/></g></g></g></g></g></g></svg>