<svg xmlns="http://www.w3.org/2000/svg" xmlns:xlink="http://www.w3.org/1999/xlink" viewBox="0 0 64 64"><defs><style>.cls-1{fill:#7b97a6;}.cls-2{fill:none;}.cls-3{isolation:isolate;}.cls-4{clip-path:url(#clip-path);}.cls-5{clip-path:url(#clip-path-2);}.cls-6{clip-path:url(#clip-path-3);}.cls-7{clip-path:url(#clip-path-4);}.cls-8{clip-path:url(#clip-path-5);}.cls-9{clip-path:url(#clip-path-6);}.cls-10{clip-path:url(#clip-path-7);}.cls-11{clip-path:url(#clip-path-8);}.cls-12{clip-path:url(#clip-path-9);}.cls-13{clip-path:url(#clip-path-10);}.cls-14{clip-path:url(#clip-path-11);}.cls-15{clip-path:url(#clip-path-12);}.cls-16{clip-path:url(#clip-path-13);}.cls-17{clip-path:url(#clip-path-14);}.cls-18{clip-path:url(#clip-path-15);}.cls-19{clip-path:url(#clip-path-16);}.cls-20{clip-path:url(#clip-path-17);}.cls-21{fill:#bdccd4;}.cls-22{clip-path:url(#clip-path-18);}</style><clipPath id="clip-path"><path class="cls-1" d="M42.79,11.37,36.61,15q1.56-1.65,3-3.14l6.18-3.62Q44.36,9.7,42.79,11.37Z"/></clipPath><clipPath id="clip-path-2"><path class="cls-1" d="M59.52,34.78,53.34,38.4c-1.39.19-2.85.37-4.39.52l6.19-3.63C56.67,35.14,58.13,35,59.52,34.78Z"/></clipPath><clipPath id="clip-path-3"><path class="cls-1" d="M27.35,9.36,21.16,13c-.09-1.67-.16-3.27-.2-4.8l6.18-3.63C27.19,6.09,27.25,7.69,27.35,9.36Z"/></clipPath><clipPath id="clip-path-4"><path class="cls-1" d="M51.44,51.66l-6.19,3.63q-1.84-1.42-3.83-3l6.18-3.63C48.93,49.71,50.2,50.71,51.44,51.66Z"/></clipPath><clipPath id="clip-path-5"><path class="cls-1" d="M41.06,40.38,34.88,44c3.27-1.92,5.18-5.86,4.6-10.37-.81-6.31-6.21-11.35-12-11.25a9.19,9.19,0,0,0-4.49,1.24L29.12,20a9.12,9.12,0,0,1,4.5-1.24c5.84-.11,11.23,4.93,12.05,11.24C46.25,34.51,44.33,38.46,41.06,40.38Z"/></clipPath><clipPath id="clip-path-6"><path class="cls-1" d="M17.62,14.56l6.19-3.63a12.9,12.9,0,0,0-1.23.79l-6.19,3.63C16.79,15.07,17.2,14.8,17.62,14.56Z"/></clipPath><clipPath id="clip-path-7"><path class="cls-1" d="M46.35,49.45l-6.18,3.63a16.58,16.58,0,0,1-3.52,1.55L42.84,51A16.5,16.5,0,0,0,46.35,49.45Z"/></clipPath><clipPath id="clip-path-8"><path class="cls-1" d="M13.11,15.9,6.93,19.53a21.62,21.62,0,0,1,5.64-7.2L18.75,8.7A21.62,21.62,0,0,0,13.11,15.9Z"/></clipPath><clipPath id="clip-path-9"><path class="cls-1" d="M16.44,19.57l-6.18,3.62C9.09,21.93,8,20.71,6.93,19.53l6.18-3.63C14.15,17.08,15.27,18.3,16.44,19.57Z"/></clipPath><clipPath id="clip-path-10"><path class="cls-1" d="M33.77,56,27.59,59.6c-.34-1.53-.69-3.13-1-4.79l6.18-3.63C33.08,52.84,33.43,54.44,33.77,56Z"/></clipPath><clipPath id="clip-path-11"><path class="cls-1" d="M43.05,55.81l-6.18,3.63a22.77,22.77,0,0,1-4.58.56,24.59,24.59,0,0,1-4.7-.4L33.77,56a23.14,23.14,0,0,0,4.7.4A22,22,0,0,0,43.05,55.81Z"/></clipPath><clipPath id="clip-path-12"><path class="cls-1" d="M15,25.07,8.86,28.7a20.64,20.64,0,0,1,1.4-5.51l6.18-3.62A20.47,20.47,0,0,0,15,25.07Z"/></clipPath><clipPath id="clip-path-13"><path class="cls-1" d="M32.74,51.18l-6.18,3.63a21.8,21.8,0,0,1-5.36-2.18L27.39,49A21.58,21.58,0,0,0,32.74,51.18Z"/></clipPath><clipPath id="clip-path-14"><path class="cls-1" d="M19.26,41.41,13.08,45a25.23,25.23,0,0,1-2.81-5.44L16.45,36A25,25,0,0,0,19.26,41.41Z"/></clipPath><clipPath id="clip-path-15"><path class="cls-1" d="M16.45,36,10.27,39.6c-1.56-.1-3.06-.23-4.5-.36L12,35.61Q14.11,35.82,16.45,36Z"/></clipPath><clipPath id="clip-path-16"><path class="cls-1" d="M12,35.61,5.77,39.24a29.87,29.87,0,0,1-1.09-5,28.46,28.46,0,0,1-.2-5l6.18-3.63a28.42,28.42,0,0,0,.2,5A32,32,0,0,0,12,35.61Z"/></clipPath><clipPath id="clip-path-17"><path class="cls-1" d="M24.36,52.14l-6.18,3.63a30,30,0,0,1-7.48-7l6.19-3.62A29.94,29.94,0,0,0,24.36,52.14Z"/></clipPath><clipPath id="clip-path-18"><path class="cls-1" d="M16.89,45.17,10.7,48.79c.74-1.21,1.54-2.46,2.38-3.75l6.18-3.63C18.42,42.7,17.62,44,16.89,45.17Z"/></clipPath></defs><title>Gear</title><g id="Layer_2" data-name="Layer 2"><g id="Layer_2-2" data-name="Layer 2"><rect class="cls-2" width="64" height="64"/><g class="cls-3"><g class="cls-3"><path class="cls-1" d="M42.79,11.37,36.61,15q1.56-1.65,3-3.14l6.18-3.62Q44.36,9.7,42.79,11.37Z"/><g class="cls-4"><g class="cls-3"><path class="cls-1" d="M42.79,11.37,36.61,15q1.56-1.65,3-3.14l6.18-3.62q-1.47,1.47-3,3.14"/></g></g></g><g class="cls-3"><path class="cls-1" d="M59.52,34.78,53.34,38.4c-1.39.19-2.85.37-4.39.52l6.19-3.63C56.67,35.14,58.13,35,59.52,34.78Z"/><g class="cls-5"><g class="cls-3"><path class="cls-1" d="M59.52,34.78,53.34,38.4c-1.39.19-2.85.37-4.39.52l6.19-3.63c1.53-.15,3-.33,4.38-.51"/></g></g></g><g class="cls-3"><path class="cls-1" d="M27.35,9.36,21.16,13c-.09-1.67-.16-3.27-.2-4.8l6.18-3.63C27.19,6.09,27.25,7.69,27.35,9.36Z"/><g class="cls-6"><g class="cls-3"><path class="cls-1" d="M27.35,9.36,21.16,13c-.09-1.67-.16-3.27-.2-4.8l6.18-3.63c.05,1.53.11,3.13.21,4.8"/></g></g></g><g class="cls-3"><path class="cls-1" d="M51.44,51.66l-6.19,3.63q-1.84-1.42-3.83-3l6.18-3.63C48.93,49.71,50.2,50.71,51.44,51.66Z"/><g class="cls-7"><g class="cls-3"><path class="cls-1" d="M51.44,51.66l-6.19,3.63q-1.84-1.42-3.83-3l6.18-3.63c1.33,1.07,2.6,2.07,3.84,3"/></g></g></g><g class="cls-3"><path class="cls-1" d="M41.06,40.38,34.88,44c3.27-1.92,5.18-5.86,4.6-10.37-.81-6.31-6.21-11.35-12-11.25a9.19,9.19,0,0,0-4.49,1.24L29.12,20a9.12,9.12,0,0,1,4.5-1.24c5.84-.11,11.23,4.93,12.05,11.24C46.25,34.51,44.33,38.46,41.06,40.38Z"/><g class="cls-8"><path class="cls-1" d="M41.06,40.38,34.88,44c3.27-1.92,5.18-5.86,4.6-10.37-.81-6.31-6.21-11.35-12-11.25a9.19,9.19,0,0,0-4.49,1.24L29.12,20a9.12,9.12,0,0,1,4.5-1.24c5.84-.11,11.23,4.93,12.05,11.24.58,4.51-1.34,8.46-4.61,10.38"/></g></g><g class="cls-3"><path class="cls-1" d="M17.62,14.56l6.19-3.63a12.9,12.9,0,0,0-1.23.79l-6.19,3.63C16.79,15.07,17.2,14.8,17.62,14.56Z"/><g class="cls-9"><g class="cls-3"><path class="cls-1" d="M22.58,11.72l-6.19,3.63c.4-.28.81-.55,1.23-.79l6.19-3.63a12.9,12.9,0,0,0-1.23.79"/></g></g></g><g class="cls-3"><path class="cls-1" d="M46.35,49.45l-6.18,3.63a16.58,16.58,0,0,1-3.52,1.55L42.84,51A16.5,16.5,0,0,0,46.35,49.45Z"/><g class="cls-10"><g class="cls-3"><path class="cls-1" d="M46.35,49.45l-6.18,3.63a16.58,16.58,0,0,1-3.52,1.55L42.84,51a16.5,16.5,0,0,0,3.51-1.55"/></g></g></g><g class="cls-3"><path class="cls-1" d="M13.11,15.9,6.93,19.53a21.62,21.62,0,0,1,5.64-7.2L18.75,8.7A21.62,21.62,0,0,0,13.11,15.9Z"/><g class="cls-11"><g class="cls-3"><path class="cls-1" d="M13.11,15.9,6.93,19.53a21.62,21.62,0,0,1,5.64-7.2L18.75,8.7a21.62,21.62,0,0,0-5.64,7.2"/></g></g></g><g class="cls-3"><path class="cls-1" d="M16.44,19.57l-6.18,3.62C9.09,21.93,8,20.71,6.93,19.53l6.18-3.63C14.15,17.08,15.27,18.3,16.44,19.57Z"/><g class="cls-12"><g class="cls-3"><path class="cls-1" d="M16.44,19.57l-6.18,3.62C9.09,21.93,8,20.71,6.93,19.53l6.18-3.63c1,1.18,2.16,2.4,3.33,3.67"/></g></g></g><g class="cls-3"><path class="cls-1" d="M33.77,56,27.59,59.6c-.34-1.53-.69-3.13-1-4.79l6.18-3.63C33.08,52.84,33.43,54.44,33.77,56Z"/><g class="cls-13"><g class="cls-3"><path class="cls-1" d="M33.77,56,27.59,59.6c-.34-1.53-.69-3.13-1-4.79l6.18-3.63c.34,1.66.69,3.26,1,4.79"/></g></g></g><g class="cls-3"><path class="cls-1" d="M43.05,55.81l-6.18,3.63a22.77,22.77,0,0,1-4.58.56,24.59,24.59,0,0,1-4.7-.4L33.77,56a23.14,23.14,0,0,0,4.7.4A22,22,0,0,0,43.05,55.81Z"/><g class="cls-14"><g class="cls-3"><path class="cls-1" d="M43.05,55.81l-6.18,3.63a22.77,22.77,0,0,1-4.58.56,24.59,24.59,0,0,1-4.7-.4L33.77,56a23.14,23.14,0,0,0,4.7.4,22,22,0,0,0,4.58-.56"/></g></g></g><g class="cls-3"><path class="cls-1" d="M15,25.07,8.86,28.7a20.64,20.64,0,0,1,1.4-5.51l6.18-3.62A20.47,20.47,0,0,0,15,25.07Z"/><g class="cls-15"><g class="cls-3"><path class="cls-1" d="M15,25.07,8.86,28.7a20.64,20.64,0,0,1,1.4-5.51l6.18-3.62a20.47,20.47,0,0,0-1.4,5.5"/></g></g></g><g class="cls-3"><path class="cls-1" d="M32.74,51.18l-6.18,3.63a21.8,21.8,0,0,1-5.36-2.18L27.39,49A21.58,21.58,0,0,0,32.74,51.18Z"/><g class="cls-16"><g class="cls-3"><path class="cls-1" d="M32.74,51.18l-6.18,3.63a21.8,21.8,0,0,1-5.36-2.18L27.39,49a21.58,21.58,0,0,0,5.35,2.18"/></g></g></g><g class="cls-3"><path class="cls-1" d="M19.26,41.41,13.08,45a25.23,25.23,0,0,1-2.81-5.44L16.45,36A25,25,0,0,0,19.26,41.41Z"/><g class="cls-17"><g class="cls-3"><path class="cls-1" d="M19.26,41.41,13.08,45a25.23,25.23,0,0,1-2.81-5.44L16.45,36a25,25,0,0,0,2.81,5.44"/></g></g></g><g class="cls-3"><path class="cls-1" d="M16.45,36,10.27,39.6c-1.56-.1-3.06-.23-4.5-.36L12,35.61Q14.11,35.82,16.45,36Z"/><g class="cls-18"><g class="cls-3"><path class="cls-1" d="M16.45,36,10.27,39.6c-1.56-.1-3.06-.23-4.5-.36L12,35.61q2.16.21,4.5.36"/></g></g></g><g class="cls-3"><path class="cls-1" d="M12,35.61,5.77,39.24a29.87,29.87,0,0,1-1.09-5,28.46,28.46,0,0,1-.2-5l6.18-3.63a28.42,28.42,0,0,0,.2,5A32,32,0,0,0,12,35.61Z"/><g class="cls-19"><g class="cls-3"><path class="cls-1" d="M12,35.61,5.77,39.24a29.87,29.87,0,0,1-1.09-5,28.46,28.46,0,0,1-.2-5l6.18-3.63a28.42,28.42,0,0,0,.2,5,32,32,0,0,0,1.09,5"/></g></g></g><g class="cls-3"><path class="cls-1" d="M24.36,52.14l-6.18,3.63a30,30,0,0,1-7.48-7l6.19-3.62A29.94,29.94,0,0,0,24.36,52.14Z"/><g class="cls-20"><path class="cls-1" d="M24.36,52.14l-6.18,3.63a30,30,0,0,1-7.48-7l6.19-3.62a29.94,29.94,0,0,0,7.47,7"/></g></g><path class="cls-21" d="M59.52,34.78c-1.39.18-2.85.36-4.38.51a20.62,20.62,0,0,1-1.4,5.52q1.77,1.88,3.34,3.65a21.87,21.87,0,0,1-5.64,7.2c-1.24-.95-2.51-1.95-3.84-3A16.55,16.55,0,0,1,42.84,51c.09,1.67.16,3.27.21,4.81a22,22,0,0,1-4.58.56,23.14,23.14,0,0,1-4.7-.4c-.34-1.53-.69-3.13-1-4.79A21.58,21.58,0,0,1,27.39,49q-1.56,1.65-3,3.14a29.94,29.94,0,0,1-7.47-7c.73-1.21,1.53-2.47,2.37-3.76A25,25,0,0,1,16.45,36q-2.34-.15-4.5-.36a32,32,0,0,1-1.09-5,28.42,28.42,0,0,1-.2-5c1.4-.19,2.86-.36,4.38-.52a20.47,20.47,0,0,1,1.4-5.5c-1.17-1.27-2.29-2.49-3.33-3.67a21.62,21.62,0,0,1,5.64-7.2q1.84,1.43,3.83,3a17,17,0,0,1,4.77-2.36c-.1-1.67-.16-3.27-.21-4.8A22,22,0,0,1,31.71,4a23.74,23.74,0,0,1,4.7.4c.35,1.52.69,3.12,1,4.78a22,22,0,0,1,5.35,2.19q1.58-1.66,3-3.14a29.93,29.93,0,0,1,7.47,7Q52.19,17,50.92,19a25.39,25.39,0,0,1,2.81,5.43q2.35.16,4.5.36a29.77,29.77,0,0,1,1.09,5A27.5,27.5,0,0,1,59.52,34.78Zm-23,6.84c5.84-.11,9.91-5.31,9.1-11.62S39.46,18.65,33.62,18.76s-9.92,5.3-9.1,11.61,6.21,11.35,12.05,11.25"/><g class="cls-3"><path class="cls-1" d="M16.89,45.17,10.7,48.79c.74-1.21,1.54-2.46,2.38-3.75l6.18-3.63C18.42,42.7,17.62,44,16.89,45.17Z"/><g class="cls-22"><g class="cls-3"><path class="cls-1" d="M16.89,45.17,10.7,48.79c.74-1.21,1.54-2.46,2.38-3.75l6.18-3.63c-.84,1.29-1.64,2.55-2.37,3.76"/></g></g></g></g></g></g></svg>