<?xml version="1.0" encoding="UTF-8"?>
<svg id="Layer_2" data-name="Layer 2" xmlns="http://www.w3.org/2000/svg" viewBox="0 0 64 64">
  <defs>
    <style>
      .cls-1, .cls-2 {
        fill: #1a1a1a;
        stroke-width: 0px;
      }

      .cls-2 {
        opacity: 0;
      }
    </style>
  </defs>
  <g id="Exports_1" data-name="Exports 1">
    <g>
      <rect class="cls-2" width="64" height="64"/>
      <path class="cls-1" d="M54.07,15.97h0c.01-6.33-9.62-11.63-22.07-11.63S9.92,9.64,9.93,15.97h0c-.4,11.2,1.22,25.17,3.73,34.49.06.52.21,1.02.42,1.51,0,0,0,.02,0,.03h0c1.91,4.24,9.32,7.34,17.91,7.34s16-3.09,17.91-7.34h0s0-.02,0-.03c.22-.49.36-1,.43-1.52,2.51-9.32,4.12-23.29,3.73-34.49ZM32,23.14c-9.08,0-16.7-3.19-17.03-7.25-.34-4.23,7.28-7.78,17.03-7.78s17.36,3.55,17.03,7.78c-.32,4.07-7.94,7.25-17.03,7.25Z"/>
    </g>
  </g>
</svg>