<?xml version="1.0" encoding="UTF-8"?>
<svg id="Layer_2" data-name="Layer 2" xmlns="http://www.w3.org/2000/svg" viewBox="0 0 64 64">
  <defs>
    <style>
      .cls-1 {
        fill: #7b97a6;
      }

      .cls-1, .cls-2, .cls-3, .cls-4, .cls-5, .cls-6, .cls-7, .cls-8 {
        stroke-width: 0px;
      }

      .cls-2, .cls-3 {
        fill: #1a1a1a;
      }

      .cls-3 {
        opacity: 0;
      }

      .cls-4 {
        fill: #d3dee3;
      }

      .cls-5 {
        fill: #5d7c8c;
      }

      .cls-6 {
        fill: #bdccd4;
      }

      .cls-7 {
        fill: #abc0c9;
      }

      .cls-8 {
        fill: #fff;
      }
    </style>
  </defs>
  <g id="Exports_1" data-name="Exports 1">
    <g>
      <rect class="cls-3" width="64" height="64"/>
      <g>
        <path class="cls-2" d="M59.04,15.95c-.4-.46-.87-.86-1.37-1.19-.33-2.47-1.56-4.83-3.61-6.88C49.46,3.26,41.09.5,31.69.5S13.93,3.26,9.32,7.88c-2.19,2.2-3.45,4.74-3.67,7.4-1.67,1.43-2.61,3.67-2.29,6,.46,3.38,1.37,6.64,2.72,9.71.64,7.49,1.83,14.71,3.35,20.43.12.73.32,1.45.61,2.15.06.16.13.31.2.45,2.73,5.68,11.3,9.47,21.45,9.47s18.77-3.82,21.47-9.52c.06-.13.12-.26.17-.39.3-.7.51-1.43.62-2.17,1.4-5.27,2.53-11.91,3.2-18.79,1.76-3.52,2.93-7.33,3.48-11.34.26-1.93-.32-3.87-1.59-5.33Z"/>
        <path class="cls-6" d="M49.61,52.14c.22-.49.36-1,.43-1.52,2.51-9.32,4.12-23.29,3.73-34.49-14.69,0-29.45,0-44.14,0-.4,11.2,1.22,25.17,3.73,34.49.06.52.21,1.02.42,1.51,0,0,0,.02,0,.03h0c1.91,4.24,9.32,7.34,17.91,7.34s16-3.09,17.91-7.34h0s0-.02,0-.03Z"/>
        <path class="cls-7" d="M53.77,16.13h-8.73c0,.44.01.89.01,1.34,0,16.92-5.08,32.04-13.05,42.02,8.45-.07,15.71-3.14,17.6-7.33h0s0-.02,0-.03c.22-.49.36-1,.43-1.52,2.51-9.32,4.12-23.29,3.73-34.49Z"/>
        <path class="cls-4" d="M53.73,16.76c-.63,6.22-10.49,11.01-22.04,11.01s-21.4-4.79-22.04-11.01c-.67-6.6,9.18-12.26,22.04-12.26s22.71,5.65,22.04,12.26Z"/>
        <path class="cls-1" d="M48.72,15.88c-.32,4.07-7.94,7.25-17.03,7.25s-16.7-3.19-17.03-7.25c-.34-4.23,7.28-7.78,17.03-7.78s17.36,3.55,17.03,7.78Z"/>
        <path class="cls-4" d="M19.14,35.76c.09,5.02-.6,9.09-2.21,9.09s-3.55-4.07-3.64-9.09c-.09-5.02,1.18-7.02,2.8-7.02s2.97,2,3.06,7.02Z"/>
        <path class="cls-1" d="M54.03,17.67c-.69,13.98-10.51,24.71-22.03,24.71S10.66,31.65,9.97,17.67h0c-1.63,0-2.86,1.45-2.64,3.07,1.9,13.99,12.27,24.55,24.67,24.55s22.77-10.56,24.67-24.55c.22-1.62-1.01-3.07-2.64-3.07h0Z"/>
        <path class="cls-5" d="M21.98,15.62c0-2.14.09-4.22.25-6.25-4.75,1.4-7.78,3.82-7.56,6.51.2,2.51,3.18,4.68,7.56,5.98-.16-2.02-.25-4.11-.25-6.24Z"/>
        <path class="cls-8" d="M31.69,23.14c7,0,13.12-1.9,15.71-4.63-1.12-3.6-7.62-6.41-15.71-6.41s-14.59,2.81-15.71,6.41c2.59,2.73,8.71,4.63,15.71,4.63Z"/>
      </g>
    </g>
  </g>
</svg>