<svg xmlns="http://www.w3.org/2000/svg" viewBox="0 0 128 128"><defs><style>.cls-1{fill:none;}.cls-2{fill:#fff;}</style></defs><title>Magnet White </title><g id="Layer_2" data-name="Layer 2"><g id="_1-13" data-name="1-13"><rect class="cls-1" width="128" height="128"/><path class="cls-2" d="M65.42,39.47C70.94,35.42,77.16,31,84,26.34a4.45,4.45,0,0,0,.64-6.82L68.41,3.3a4.45,4.45,0,0,0-5.6-.56c-7.19,4.77-14,9.52-20.13,14Z"/><path class="cls-2" d="M82.05,71.22a202.41,202.41,0,0,1-14.12,17A19.92,19.92,0,0,1,39.76,60.07,202.41,202.41,0,0,1,56.78,46L34,23.19A183.14,183.14,0,0,0,17.22,37.3,52,52,0,0,0,90.7,110.78,183.14,183.14,0,0,0,104.81,94Z"/><path class="cls-2" d="M124.7,59.59,108.48,43.38a4.45,4.45,0,0,0-6.82.64c-4.65,6.82-9.08,13-13.13,18.56l22.74,22.74c4.47-6.13,9.22-12.94,14-20.13A4.45,4.45,0,0,0,124.7,59.59Z"/></g></g></svg>