<svg xmlns="http://www.w3.org/2000/svg" viewBox="0 0 128 128"><defs><style>.cls-1{isolation:isolate;}.cls-2{fill:#96dbff;}.cls-3{fill:#fff;}.cls-4{fill:#a72d3e;}.cls-5{fill:#e62e49;}.cls-6{fill:none;}</style></defs><title>Magnet </title><g id="Layer_2" data-name="Layer 2"><g id="_1-13" data-name="1-13"><g class="cls-1"><path class="cls-2" d="M107.16,52.16l-2-.29-1-.14-2-.28-1.94-.27-1-.13-1.88-.26-1.85-.26-.91-.13-1.79-.25L91,49.9l-.87-.12-1.7-.23a1.82,1.82,0,0,0-.57,0,2.21,2.21,0,0,0-1.09.51,3.16,3.16,0,0,0-.47.49c-.79,1.07-1.61,2.16-2.43,3.25S82.24,56,81.39,57.11s-1.69,2.21-2.53,3.3-1.68,2.18-2.51,3.23l17.79,4.17,2.69-3.58c.91-1.22,1.83-2.44,2.74-3.67l2.7-3.67,2.63-3.61a3,3,0,0,1,.5-.55,2.22,2.22,0,0,1,.57-.37,2.17,2.17,0,0,1,.59-.2A2,2,0,0,1,107.16,52.16Z"/><polygon class="cls-3" points="94.14 67.81 76.36 63.64 88.69 81.06 106.94 86.83 94.14 67.81"/><path class="cls-3" d="M106.94,86.82c.85-1.25,1.71-2.54,2.57-3.85s1.73-2.63,2.59-4,1.71-2.69,2.55-4,1.68-2.72,2.5-4.09a4,4,0,0,0,.4-.93,4.26,4.26,0,0,0,.16-1,3.82,3.82,0,0,0-.1-1,3.15,3.15,0,0,0-.34-.85L108.65,53.2a2.32,2.32,0,0,0-.81-.81,1.85,1.85,0,0,0-1-.25,2.06,2.06,0,0,0-1,.29,3.06,3.06,0,0,0-.92.85l-2.63,3.61-2.7,3.67c-.91,1.23-1.83,2.45-2.74,3.67l-2.69,3.58Z"/></g><g class="cls-1"><path class="cls-2" d="M79,8,61.55,9.74l-.22,0-.21.05-.21.08L60.7,10c-1.33.7-2.67,1.42-4,2.15s-2.68,1.5-4,2.26S50,16,48.71,16.74s-2.61,1.59-3.89,2.38l16.08-.66Q63,17.13,65.13,15.8c1.42-.87,2.86-1.75,4.31-2.6s2.89-1.7,4.35-2.52,2.89-1.62,4.33-2.39l.22-.1.23-.09.23,0Z"/><polygon class="cls-3" points="60.9 18.46 44.82 19.12 59.78 40.25 76.76 42.02 60.9 18.46"/><path class="cls-3" d="M76.76,42l3.58-2.72c1.2-.91,2.42-1.83,3.64-2.73l3.61-2.69q1.78-1.32,3.53-2.58a3.29,3.29,0,0,0,.89-1A4.22,4.22,0,0,0,92.47,29a4.44,4.44,0,0,0,0-1.41,3.7,3.7,0,0,0-.5-1.33L81.61,9.44a3.45,3.45,0,0,0-.72-.83A2.9,2.9,0,0,0,80,8.12a2.36,2.36,0,0,0-1-.11,2.41,2.41,0,0,0-.95.28c-1.44.77-2.89,1.57-4.33,2.39s-2.91,1.66-4.35,2.52-2.89,1.73-4.31,2.6-2.84,1.77-4.23,2.66Z"/></g><g class="cls-1"><path class="cls-4" d="M49.68,81.33l15.75,6.4a13.94,13.94,0,0,0,8.51.66A14.52,14.52,0,0,0,78,86.74a16.42,16.42,0,0,0,3.66-2.94c.27-.29.8-.93,1.55-1.86s1.7-2.13,2.82-3.56,2.38-3.06,3.75-4.85,2.83-3.71,4.35-5.72L76.35,63.64c-1.4,1.81-2.76,3.54-4,5.14l-3.47,4.35c-1,1.28-1.92,2.36-2.61,3.19S65.06,77.73,64.81,78a15.13,15.13,0,0,1-3.39,2.62,13.49,13.49,0,0,1-7.78,1.69A13.89,13.89,0,0,1,49.68,81.33Z"/><path class="cls-4" d="M44.82,19.12c-2.18,1.37-4.29,2.73-6.29,4.06s-3.91,2.64-5.65,3.88-3.35,2.44-4.75,3.52-2.61,2.09-3.57,3A42,42,0,0,0,14.24,47.89a47.35,47.35,0,0,0-3.92,17.42A48.24,48.24,0,0,0,13,82.94a44.16,44.16,0,0,0,8.94,15.11c.57.63,1.15,1.23,1.74,1.81s1.19,1.13,1.81,1.66,1.23,1,1.85,1.51,1.27.93,1.91,1.37l13.9,9.31c-.7-.47-1.38-1-2.06-1.48s-1.34-1.06-2-1.63-1.31-1.18-2-1.81-1.26-1.29-1.87-2a47.93,47.93,0,0,1-9.63-16.7,55.32,55.32,0,0,1,1.67-39.3A47.81,47.81,0,0,1,38.73,34.63c1.06-1,2.38-2.09,3.93-3.32s3.28-2.55,5.2-3.95S51.84,24.5,54,23s4.48-3,6.86-4.54Z"/><path class="cls-5" d="M35.27,106.81a39.93,39.93,0,0,0,14.15,10.3A35.82,35.82,0,0,0,64.8,120a36.58,36.58,0,0,0,14.75-3.75,41.71,41.71,0,0,0,12.73-9.76c.82-.92,1.79-2.07,2.86-3.42s2.26-2.87,3.52-4.57,2.6-3.52,4-5.48,2.82-4,4.28-6.18l-12.8-19c-1.52,2-3,3.94-4.35,5.72S87.15,77,86,78.38,84,81,83.22,81.94s-1.28,1.57-1.55,1.86a16.16,16.16,0,0,1-5.4,3.82,14,14,0,0,1-12.09-.47,16.19,16.19,0,0,1-5.29-4.47A19.86,19.86,0,0,1,55.5,76a22.24,22.24,0,0,1-.84-7.53,21.72,21.72,0,0,1,1.71-7.39,19.08,19.08,0,0,1,4.19-6.21c.29-.29.95-.86,1.9-1.64s2.19-1.78,3.64-2.94,3.11-2.45,4.92-3.86,3.73-2.89,5.74-4.43L60.9,18.46C58.52,20,56.22,21.51,54,23s-4.27,3-6.18,4.36-3.67,2.73-5.2,3.95-2.87,2.35-3.93,3.32A47.81,47.81,0,0,0,27.31,50.81a55.32,55.32,0,0,0-1.67,39.3A47.93,47.93,0,0,0,35.27,106.81Z"/></g><rect class="cls-6" width="128" height="128"/></g></g></svg>