<?xml version="1.0" encoding="UTF-8"?>
<svg id="Layer_2" data-name="Layer 2" xmlns="http://www.w3.org/2000/svg" viewBox="0 0 64 64">
  <defs>
    <style>
      .cls-1, .cls-2 {
        fill: #fff;
      }

      .cls-2 {
        opacity: 0;
      }
    </style>
  </defs>
  <g id="White">
    <g id="Trademark_Sign_Flat_White" data-name="Trademark Sign Flat White">
      <rect class="cls-2" width="64" height="64"/>
      <g>
        <path class="cls-1" d="M22.46,41.87c-.09,.19-.42,.36-.99,.51s-1.22,.26-1.94,.33-1.44,.1-2.15,.09-1.25-.09-1.63-.22c-.39-.14-.82-1.49-1.28-4.05s-.85-5.15-1.17-7.77c-1.38,.06-2.57,.06-3.58,0s-1.56-.19-1.68-.41c-.2-.34-.38-.9-.55-1.68s-.3-1.58-.39-2.4-.13-1.57-.12-2.24,.11-1.06,.29-1.17c.26-.23,1.16-.46,2.71-.68s3.33-.43,5.35-.6,4.07-.31,6.16-.42,3.8-.16,5.15-.15c.53,0,.92,.44,1.17,1.3s.38,1.82,.39,2.86-.09,2.02-.31,2.91-.51,1.36-.89,1.41c-.35,.08-.92,.17-1.69,.26s-1.66,.2-2.63,.29c.13,2.63,.19,5.16,.17,7.61-.02,2.45-.15,3.85-.4,4.22Z"/>
        <path class="cls-1" d="M43.43,28.93c.96-1.34,1.89-2.63,2.79-3.85s1.69-2.14,2.37-2.76c.3-.27,.87-.46,1.71-.57s1.72-.14,2.63-.1,1.73,.13,2.47,.28,1.16,.35,1.26,.58c.17,.42,.27,1.63,.31,3.64s.03,4.18-.04,6.52-.19,4.49-.36,6.48-.39,3.16-.65,3.52c-.2,.22-1.16,.33-2.87,.34s-2.91-.06-3.59-.22c-.28-.06-.51-.88-.7-2.44s-.3-3.14-.34-4.74c-.19,.19-.54,.53-1.03,1.02s-1.03,.99-1.59,1.51-1.11,.97-1.63,1.37-.9,.59-1.14,.58-.6-.21-1.08-.62-.97-.87-1.49-1.39-.99-1.03-1.44-1.53-.76-.84-.93-1.04c-.16,1.49-.37,2.99-.64,4.52s-.53,2.32-.8,2.4c-.35,.09-.86,.14-1.54,.14s-1.37-.03-2.07-.07-1.32-.13-1.88-.23-.86-.21-.94-.33c-.24-.36-.4-1.56-.47-3.6s-.08-4.23-.02-6.59c.06-2.35,.16-4.54,.3-6.54s.32-3.16,.52-3.46c.15-.22,.59-.38,1.34-.49s1.57-.15,2.47-.13,1.75,.11,2.58,.26,1.38,.38,1.67,.67c.63,.65,1.37,1.62,2.22,2.89,.84,1.28,1.7,2.61,2.56,4.01Z"/>
      </g>
    </g>
  </g>
</svg>