<?xml version="1.0" encoding="UTF-8"?>
<svg id="Layer_2" data-name="Layer 2" xmlns="http://www.w3.org/2000/svg" viewBox="0 0 64 64">
  <defs>
    <style>
      .cls-1 {
        fill: #fff;
      }

      .cls-2 {
        fill: #7b97a6;
      }

      .cls-3 {
        fill: #1a1a1a;
        opacity: 0;
      }
    </style>
  </defs>
  <g id="No_outline" data-name="No outline">
    <g id="Trademark_Sign" data-name="Trademark Sign">
      <rect class="cls-3" width="64" height="64"/>
      <g>
        <path class="cls-2" d="M26.65,18.99c-1.35,0-3.06,.05-5.15,.15-2.09,.1-4.14,.24-6.16,.42s-3.8,.37-5.35,.6c-1.55,.23-2.45,.45-2.71,.68-.18,.11-.28,.51-.29,1.17,.01,2.29,0,4,0,4-.01,.67,.03,1.41,.12,2.24s.22,1.62,.39,2.4c.17,.78,.35,1.34,.55,1.68,.12,.22,.68,.35,1.68,.41,1,.06,2.2,.06,3.58,0,.32,2.63,.71,5.22,1.17,7.77,.46,2.56,.89,3.91,1.28,4.05,.37,.14,.91,.21,1.63,.22,.71,.01,1.43-.02,2.15-.09,.72-.07,1.37-.18,1.94-.33,.57-.15,.9-.32,.99-.51,.25-.37,.38-1.78,.4-4.22,0-.92,0-1.87-.02-2.82,.01-.36,.02-.75,.02-1.18,0-1.19,0-2.4-.03-3.62,.92-.09,1.75-.19,2.49-.28,.78-.1,1.34-.19,1.69-.26,.38-.05,.68-.52,.89-1.41,.21-.89,.31-1.86,.31-2.91v-4c0-1.05-.14-2-.39-2.86-.25-.86-.64-1.3-1.17-1.3Z"/>
        <path class="cls-2" d="M56.98,24.15c-.04-2.01-.15-3.23-.31-3.64-.1-.24-.53-.43-1.26-.58s-1.56-.25-2.47-.28-1.79,0-2.63,.1c-.84,.11-1.41,.29-1.71,.57-.68,.61-1.47,1.53-2.37,2.76s-1.83,2.51-2.79,3.85c-.86-1.4-1.72-2.73-2.56-4.01-.84-1.28-1.58-2.24-2.22-2.89-.29-.29-.85-.51-1.67-.67-.82-.15-1.68-.24-2.58-.26-.9-.02-1.72,.02-2.47,.13-.75,.11-1.2,.27-1.34,.49-.2,.3-.38,1.46-.52,3.46-.14,2.01-.24,4.19-.3,6.54-.05,1.81-.05,3.52-.02,5.15-.03,1.92-.02,3.74,.04,5.44,.07,2.04,.23,3.24,.47,3.6,.07,.11,.38,.22,.94,.33,.55,.1,1.18,.18,1.88,.23,.7,.05,1.39,.07,2.07,.07,.68,0,1.2-.04,1.54-.14,.26-.08,.53-.88,.8-2.4,.27-1.52,.48-3.03,.64-4.52,.17,.19,.48,.54,.93,1.04,.45,.5,.93,1.01,1.44,1.53s1.01,.99,1.49,1.39c.48,.41,.84,.61,1.08,.62,.24,0,.62-.19,1.14-.58s1.06-.85,1.63-1.37,1.1-1.02,1.59-1.51c.49-.49,.84-.83,1.03-1.02,.04,1.6,.15,3.18,.34,4.74,.19,1.56,.42,2.38,.7,2.44,.69,.16,1.88,.24,3.59,.22s2.66-.12,2.87-.34c.26-.36,.48-1.53,.65-3.52,.17-1.99,.29-4.15,.36-6.48,.06-2.15,.08-4.15,.04-6.03,.02-1.57,.02-3.07,0-4.49Z"/>
        <g>
          <path class="cls-1" d="M22.46,39.87c-.09,.19-.42,.36-.99,.51s-1.22,.26-1.94,.33-1.44,.1-2.15,.09-1.25-.09-1.63-.22c-.39-.14-.82-1.49-1.28-4.05s-.85-5.15-1.17-7.77c-1.38,.06-2.57,.06-3.58,0s-1.56-.19-1.68-.41c-.2-.34-.38-.9-.55-1.68s-.3-1.58-.39-2.4-.13-1.57-.12-2.24,.11-1.06,.29-1.17c.26-.23,1.16-.46,2.71-.68s3.33-.43,5.35-.6,4.07-.31,6.16-.42,3.8-.16,5.15-.15c.53,0,.92,.44,1.17,1.3s.38,1.82,.39,2.86-.09,2.02-.31,2.91-.51,1.36-.89,1.41c-.35,.08-.92,.17-1.69,.26s-1.66,.2-2.63,.29c.13,2.63,.19,5.16,.17,7.61-.02,2.45-.15,3.85-.4,4.22Z"/>
          <path class="cls-1" d="M43.43,26.93c.96-1.34,1.89-2.63,2.79-3.85s1.69-2.14,2.37-2.76c.3-.27,.87-.46,1.71-.57s1.72-.14,2.63-.1,1.73,.13,2.47,.28,1.16,.35,1.26,.58c.17,.42,.27,1.63,.31,3.64s.03,4.18-.04,6.52-.19,4.49-.36,6.48-.39,3.16-.65,3.52c-.2,.22-1.16,.33-2.87,.34s-2.91-.06-3.59-.22c-.28-.06-.51-.88-.7-2.44s-.3-3.14-.34-4.74c-.19,.19-.54,.53-1.03,1.02s-1.03,.99-1.59,1.51-1.11,.97-1.63,1.37-.9,.59-1.14,.58-.6-.21-1.08-.62-.97-.87-1.49-1.39-.99-1.03-1.44-1.53-.76-.84-.93-1.04c-.16,1.49-.37,2.99-.64,4.52s-.53,2.32-.8,2.4c-.35,.09-.86,.14-1.54,.14s-1.37-.03-2.07-.07-1.32-.13-1.88-.23-.86-.21-.94-.33c-.24-.36-.4-1.56-.47-3.6s-.08-4.23-.02-6.59c.06-2.35,.16-4.54,.3-6.54s.32-3.16,.52-3.46c.15-.22,.59-.38,1.34-.49s1.57-.15,2.47-.13,1.75,.11,2.58,.26,1.38,.38,1.67,.67c.63,.65,1.37,1.62,2.22,2.89s1.7,2.61,2.56,4.01Z"/>
        </g>
      </g>
    </g>
  </g>
</svg>