<svg xmlns="http://www.w3.org/2000/svg" viewBox="0 0 64 64"><defs><style>.cls-1{opacity:0;}.cls-2{fill:#1a1a1a;}.cls-3{fill:#4d4d4d;}.cls-4{fill:gray;}.cls-5{fill:#e62e49;}</style></defs><title>Music Off Outline </title><g id="Layer_2" data-name="Layer 2"><g id="Layer_3" data-name="Layer 3"><g class="cls-1"><rect class="cls-2" width="64" height="64"/></g><path class="cls-2" d="M25.11,63.5a18.29,18.29,0,0,1-13.26-5.73A18.06,18.06,0,0,1,6.93,44.18,18.36,18.36,0,0,1,18.19,28.51l-7.62-7.62a6,6,0,0,1,0-8.49l1.83-1.83a6,6,0,0,1,8.49,0l2.94,2.94V7.18A6.69,6.69,0,0,1,30.51.5h2.27A6.7,6.7,0,0,1,39.09,5c1.2,3.42,4.34,9.26,11.9,10a6.66,6.66,0,0,1,6.11,6.65v1.54a6.69,6.69,0,0,1-6.68,6.68H43.31V33L53.43,43.11a6,6,0,0,1,0,8.49L51.6,53.43a6,6,0,0,1-8.49,0L41.8,52.12A18.57,18.57,0,0,1,25.58,63.49Z"/><path class="cls-3" d="M50.63,18.91C40.54,18,36.6,10,35.32,6.3a2.68,2.68,0,0,0-2.54-1.8H30.51a2.68,2.68,0,0,0-2.68,2.68V31.36a13.56,13.56,0,0,0-7.7.68,14.36,14.36,0,0,0-9.2,12.38A14.2,14.2,0,0,0,25.48,59.5c7.62-.2,13.83-7,13.83-14.63V25.8H50.42a2.68,2.68,0,0,0,2.68-2.68V21.58A2.7,2.7,0,0,0,50.63,18.91Z"/><path class="cls-4" d="M23.71,43c-3.64,3.45-8.26,3.44-8.57-.38.5-4.24,4.94-8.47,9.75-7.4a2.26,2.26,0,0,1,1.83,2.06C26.81,39,25.7,41.2,23.71,43Z"/><rect class="cls-5" x="28.7" y="6.98" width="6.59" height="50.03" rx="2" transform="translate(-13.25 32) rotate(-45)"/></g></g></svg>