<svg xmlns="http://www.w3.org/2000/svg" viewBox="0 0 64 64"><defs><style>.cls-1{opacity:0;}.cls-2{fill:#fff;}</style></defs><title>Music Off White </title><g id="Layer_2" data-name="Layer 2"><g id="Layer_3" data-name="Layer 3"><g class="cls-1"><rect class="cls-2" width="64" height="64"/></g><path class="cls-2" d="M50.68,18.92C40.55,18,36.6,10,35.32,6.3a2.68,2.68,0,0,0-2.54-1.8H30.51a2.68,2.68,0,0,0-2.68,2.68v9.57a1,1,0,0,0,.29.71l9.48,9.48a1,1,0,0,0,1.71-.71V25.8H50.42a2.68,2.68,0,0,0,2.68-2.68V21.58A2.66,2.66,0,0,0,50.68,18.92Z"/><path class="cls-2" d="M18.06,13.39a2,2,0,0,0-2.83,0l-1.84,1.84a2,2,0,0,0,0,2.83L26.51,31.17a13.42,13.42,0,0,0-6.38.87,14.36,14.36,0,0,0-9.2,12.38A14.2,14.2,0,0,0,25.48,59.5c7.62-.2,13.83-7,13.83-14.63V44l6.63,6.64a2,2,0,0,0,2.83,0l1.84-1.84a2,2,0,0,0,0-2.83Z"/></g></g></svg>