<?xml version="1.0" encoding="UTF-8"?>
<svg id="Layer_2" data-name="Layer 2" xmlns="http://www.w3.org/2000/svg" viewBox="0 0 64 64">
  <defs>
    <style>
      .cls-1 {
        fill: #d1774b;
      }

      .cls-1, .cls-2, .cls-3, .cls-4, .cls-5, .cls-6 {
        stroke-width: 0px;
      }

      .cls-2, .cls-3 {
        fill: #1a1a1a;
      }

      .cls-3 {
        opacity: 0;
      }

      .cls-4 {
        fill: #eba969;
      }

      .cls-5 {
        fill: #de925a;
      }

      .cls-6 {
        fill: #bb5938;
      }
    </style>
  </defs>
  <g id="Exports_2" data-name="Exports 2">
    <g>
      <rect class="cls-3" width="64" height="64"/>
      <g>
        <path class="cls-2" d="M18.56,46.1c-6.28,0-11.44-4.14-13.79-11.07C.13,21.37,2.41,9.11,10.08,6.51c.93-.32,1.91-.48,2.91-.48,7.02,0,14.7,8.17,18.67,19.86,1.49,4.39,1.43,8.58-.18,12.13-1.55,3.42-4.47,6.01-8.22,7.28-1.55.53-3.13.79-4.69.79Z"/>
        <path class="cls-6" d="M27.87,27.18c2.45,7.2-.57,12.53-5.9,14.34-5.33,1.81-10.97-.58-13.41-7.78-3.71-10.94-2.52-21.63,2.81-23.44,5.33-1.81,12.79,5.95,16.5,16.88Z"/>
        <path class="cls-5" d="M18.63,23.73c.52,3.11-1.07,5.08-3.37,5.47-2.3.38-4.44-.97-4.96-4.08-.79-4.72.41-9.01,2.72-9.4s4.83,3.29,5.62,8Z"/>
        <path class="cls-2" d="M49.54,29.95c-2.93,0-5.93-1.08-8.68-3.12-4.17-3.09-7.57-6.87-9.58-10.64-3.38-6.36-1.65-10.32-.32-12.11,1.21-1.63,3.6-3.58,8.13-3.58,4.91,0,11.08,2.41,16.52,6.44,3.21,2.38,5.22,5.4,5.83,8.73.59,3.23-.22,6.55-2.28,9.32-2.34,3.16-5.85,4.97-9.62,4.97Z"/>
        <path class="cls-1" d="M53.22,10.15c5.02,3.72,5.47,8.73,2.72,12.45-2.76,3.72-7.68,4.74-12.7,1.02-7.63-5.66-11.82-13.44-9.07-17.16,2.76-3.72,11.43-1.96,19.05,3.69Z"/>
        <path class="cls-2" d="M39.59,63.5c-2.98,0-5.83-1.23-8.02-3.47-2.26-2.3-3.43-5.26-3.3-8.33.13-3.15,1.6-6.18,4.25-8.78,5.05-4.95,11.15-8.02,15.93-8.02,3.22,0,5.19,1.32,6.28,2.43,4.61,4.71,2.01,14.2-6.04,22.1-2.72,2.66-5.87,4.07-9.1,4.07Z"/>
        <path class="cls-6" d="M45.9,56.57c-4.03,3.94-8.55,3.64-11.47.66-2.92-2.98-3.13-7.51.89-11.45,6.11-5.99,13.64-8.63,16.56-5.64,2.92,2.98.13,10.45-5.98,16.44Z"/>
        <path class="cls-5" d="M43.66,48.41c-1.94,1.47-3.67,1.36-4.51.24-.85-1.11-.49-2.81,1.45-4.28,2.95-2.24,6.12-3.22,6.97-2.11s-.95,3.91-3.9,6.14Z"/>
        <path class="cls-4" d="M43.02,8.53c1.44,1.07,1.42,2.7.45,4.01-.97,1.31-2.53,1.8-3.97.74-2.19-1.62-3.24-4.05-2.27-5.36.97-1.31,3.61-1.01,5.79.61Z"/>
      </g>
    </g>
  </g>
</svg>