<?xml version="1.0" encoding="UTF-8"?>
<svg id="Layer_2" data-name="Layer 2" xmlns="http://www.w3.org/2000/svg" viewBox="0 0 64 64">
  <defs>
    <style>
      .cls-1, .cls-2 {
        fill: #1a1a1a;
        stroke-width: 0px;
      }

      .cls-2 {
        opacity: 0;
      }
    </style>
  </defs>
  <g id="Exports_2" data-name="Exports 2">
    <g>
      <rect class="cls-2" width="64" height="64"/>
      <g>
        <path class="cls-1" d="M11.35,10.3c-5.33,1.81-6.52,12.51-2.81,23.44,2.45,7.2,8.08,9.59,13.41,7.78,5.33-1.81,8.35-7.14,5.9-14.34-3.71-10.94-11.17-18.69-16.5-16.88Z"/>
        <path class="cls-1" d="M53.21,10.15c-7.63-5.66-16.29-7.41-19.05-3.69s1.44,11.5,9.07,17.16c5.02,3.72,9.95,2.7,12.7-1.02,2.76-3.72,2.3-8.73-2.72-12.45Z"/>
        <path class="cls-1" d="M35.31,45.78c-4.03,3.94-3.81,8.47-.89,11.45s7.44,3.29,11.47-.66c6.11-5.99,8.9-13.46,5.98-16.44s-10.45-.34-16.56,5.64Z"/>
      </g>
    </g>
  </g>
</svg>