<?xml version="1.0" encoding="UTF-8"?>
<svg id="Layer_2" data-name="Layer 2" xmlns="http://www.w3.org/2000/svg" viewBox="0 0 64 64">
  <defs>
    <style>
      .cls-1 {
        fill: #324652;
      }

      .cls-1, .cls-2, .cls-3, .cls-4, .cls-5, .cls-6, .cls-7, .cls-8, .cls-9, .cls-10 {
        stroke-width: 0px;
      }

      .cls-2, .cls-3 {
        fill: #1a1a1a;
      }

      .cls-3 {
        opacity: 0;
      }

      .cls-4 {
        fill: #fdaf18;
      }

      .cls-5 {
        fill: #e62e49;
      }

      .cls-6 {
        fill: #fc9504;
      }

      .cls-7 {
        fill: #abc0c9;
      }

      .cls-8 {
        fill: #cef;
      }

      .cls-9 {
        fill: #fff;
      }

      .cls-10 {
        fill: #c62d43;
      }
    </style>
  </defs>
  <g id="Exports_1" data-name="Exports 1">
    <g>
      <rect class="cls-3" width="64" height="64"/>
      <g>
        <path class="cls-2" d="M57.06,39.05c2.37-2.28,3.72-5.41,3.72-8.8,0-1.6-.95-3.04-2.42-3.67-5.72-2.46-10.74-5.72-14.67-8.69.6-.05,1.23-.1,1.89-.14,2.07-.13,3.81-1.56,4.34-3.56.53-2.01-.28-4.13-2.02-5.27-1.2-.79-2.51-1.46-3.9-2-.53-1.66-1.8-3.01-3.49-3.61-1.52-.53-3.26-.95-4.79-1.25-.95-.96-2.26-1.55-3.71-1.55-2.88,0-5.22,2.34-5.22,5.22v6.73c-3.71,3.47-11.29,9.84-20.87,14.02-1.57.54-2.69,2.03-2.69,3.78,0,3.38,1.36,6.52,3.72,8.8-.6,3.83-1.68,9.39-3.49,14.38-.26.72-.3,1.49-.14,2.22.93,5.21,10.58,7.85,28.69,7.85,19.09,0,28.77-2.93,28.77-8.71,0-.46-.08-.92-.24-1.36-1.8-5-2.89-10.56-3.49-14.38Z"/>
        <g>
          <path class="cls-6" d="M37.87,13.69v-3.31c0-.51.46-.89.96-.8,1.43.25,4.23.94,6.88,2.67.66.43.41,1.45-.38,1.5-1.85.12-4.51.34-6.5.73-.5.1-.96-.29-.96-.79Z"/>
          <path class="cls-5" d="M52.37,33.82l-20.37-8.73-20.37,8.73s-.94,11.33-4.42,20.97h.03c0,2.6,11.09,4.71,24.77,4.71s24.77-2.11,24.77-4.71c-3.48-9.64-4.42-20.97-4.42-20.97Z"/>
          <g>
            <path class="cls-9" d="M27.02,27.23l-9.11,3.9c-.07,1.51-.75,15.1-2.91,27.08,2.63.47,5.81.84,9.34,1.06,1.01-10.64,1.9-21.44,2.68-32.04Z"/>
            <path class="cls-9" d="M39.69,59.26c3.51-.22,6.68-.58,9.31-1.05-2.16-11.97-2.84-25.57-2.91-27.08l-9.08-3.89c.78,10.6,1.67,21.39,2.68,32.03Z"/>
          </g>
          <path class="cls-4" d="M32,5.48s4.21.55,7.18,1.59c.65.23,1.08.85,1.08,1.54v2.8c0,.83-.62,1.54-1.45,1.62-1.68.17-4.51.61-6.81,1.67V5.48Z"/>
          <path class="cls-7" d="M32,24.9c-.67,0-1.22-.55-1.22-1.22V5.72c0-.67.54-1.22,1.22-1.22s1.22.55,1.22,1.22v17.96c0,.67-.54,1.22-1.22,1.22Z"/>
          <path class="cls-5" d="M32,12.92s10.25,11.08,24.78,17.33h-24.78V12.92Z"/>
          <g>
            <path class="cls-10" d="M15.48,38.51c4.56,0,8.26-3.7,8.26-8.26H7.22c0,4.56,3.7,8.26,8.26,8.26Z"/>
            <path class="cls-8" d="M32,38.51c4.56,0,8.26-3.7,8.26-8.26h-16.52c0,4.56,3.7,8.26,8.26,8.26Z"/>
            <path class="cls-10" d="M48.52,38.51c4.56,0,8.26-3.7,8.26-8.26h-16.52c0,4.56,3.7,8.26,8.26,8.26Z"/>
          </g>
          <path class="cls-5" d="M32,30.25V12.92s-10.24,11.08-24.75,17.33"/>
          <path class="cls-9" d="M32,12.92s-2.37,10.78-8.25,17.33h0c0,.86,3.7,1.55,8.26,1.55s8.26-.69,8.26-1.55c-5.89-6.55-8.26-17.33-8.26-17.33Z"/>
          <path class="cls-5" d="M15.48,31.8c4.56,0,8.26-.69,8.26-1.55H7.22c0,.86,3.7,1.55,8.26,1.55Z"/>
          <path class="cls-5" d="M48.52,31.8c4.56,0,8.26-.69,8.26-1.55h-16.52c0,.86,3.7,1.55,8.26,1.55Z"/>
          <path class="cls-10" d="M47,51.73c-1.81-.6-8.25-3.1-14.58-10.18-.22-.25-.61-.25-.83,0-6.32,7.08-12.76,9.58-14.58,10.18-.29.1-.46.4-.4.7.99,4.52,4.07,6.55,4.07,6.55l11.31-4.06,11.31,4.06s3.08-2.03,4.07-6.55c.07-.3-.11-.6-.4-.7Z"/>
          <path class="cls-1" d="M20.7,58.98c3.39.33,7.23.52,11.31.52s7.92-.19,11.31-.52c-6.43-4.71-9.4-12.77-10.6-17.19-.2-.73-1.22-.73-1.42,0-1.2,4.43-4.17,12.48-10.6,17.19Z"/>
        </g>
      </g>
    </g>
  </g>
</svg>