<?xml version="1.0" encoding="UTF-8"?>
<svg id="Layer_2" data-name="Layer 2" xmlns="http://www.w3.org/2000/svg" viewBox="0 0 64 64">
  <defs>
    <style>
      .cls-1, .cls-2 {
        fill: #1a1a1a;
        stroke-width: 0px;
      }

      .cls-2 {
        opacity: 0;
      }
    </style>
  </defs>
  <g id="Exports_1" data-name="Exports 1">
    <g>
      <rect class="cls-2" width="64" height="64"/>
      <path class="cls-1" d="M56.78,30.57c-11.54-4.97-20.37-12.96-23.52-16.05,1.6-.56,3.28-.88,4.61-1.05v.55c0,.51.46.89.96.79,1.99-.39,4.65-.61,6.5-.73.78-.05,1.03-1.07.38-1.5-1.93-1.27-3.94-1.97-5.45-2.36v-1.29c0-.69-.43-1.31-1.08-1.54-1.98-.7-4.51-1.17-5.98-1.41-.03-.65-.55-1.17-1.21-1.17s-1.22.55-1.22,1.22v8.44c-3.11,3.06-11.96,11.11-23.54,16.09h-.03c0,3.01,1.61,5.63,4.02,7.08-.55,4.11-1.74,11.15-4.02,17.46h.03c0,1.81,5.36,3.38,13.23,4.16.9.09,1.79-.23,2.44-.86,4.91-4.76,7.33-11.43,8.38-15.31.2-.73,1.22-.73,1.42,0,1.06,3.88,3.47,10.55,8.38,15.31.65.63,1.54.95,2.44.86,7.87-.79,13.23-2.36,13.23-4.16-2.28-6.32-3.47-13.36-4.02-17.46,2.4-1.44,4.02-4.07,4.02-7.08Z"/>
    </g>
  </g>
</svg>