<svg xmlns="http://www.w3.org/2000/svg" viewBox="0 0 64 64"><defs><style>.cls-1{fill:#1a1a1a;opacity:0;}.cls-2{fill:#fff;}</style></defs><title>Spring 2 Flat White</title><g id="Layer_2" data-name="Layer 2"><g id="Layer_3" data-name="Layer 3"><rect class="cls-1" width="64" height="64"/><path class="cls-2" d="M59.41,29.35a5.18,5.18,0,0,0-.23-.87,17.27,17.27,0,0,0-2.77-4.63c-1-1.32-2.09-2.55-3.18-3.76L40.33,5.71l-.15-.15a1.9,1.9,0,1,0-2.53,2.83c2.35,2.1,4.6,4.35,6.75,6.67a76,76,0,0,1,6.09,7.24c.92,1.27,1.79,2.57,2.6,3.86.39.65.77,1.3,1.1,1.94.1.18.18.36.27.55a33.46,33.46,0,0,1-3.36-1.58A55.58,55.58,0,0,1,43.22,22c-.19-.14-.37-.3-.55-.45-1.59-2.05-3.14-4.13-4.87-6.13-.53-.63-1.09-1.23-1.7-1.83a12.31,12.31,0,0,0-1-.9c-.18-.15-.37-.3-.6-.46a5.15,5.15,0,0,0-.91-.51,2.41,2.41,0,0,0-.47-.13,1.53,1.53,0,0,0-.32-.05,2.54,2.54,0,0,0-.55,0,2.05,2.05,0,0,0-.7.25,2,2,0,0,0-.64.57,2.09,2.09,0,0,0-.43,1.38,2.83,2.83,0,0,0,.11.66,3.34,3.34,0,0,0,.15.38,4.71,4.71,0,0,0,.26.47,9.36,9.36,0,0,0,.92,1.19,23.59,23.59,0,0,0,1.83,1.79c2.38,2.09,4.89,3.9,7.31,5.83.19.23.39.46.57.69a51.37,51.37,0,0,1,5.21,7.82c.43.8.85,1.64,1.21,2.44a53.29,53.29,0,0,1-7.5-4.49,71.09,71.09,0,0,1-7.26-6l-.11-.11c-.48-.65-1-1.3-1.44-1.95s-1-1.28-1.57-1.9a16.43,16.43,0,0,0-1.86-1.89,5.21,5.21,0,0,0-.8-.56,2,2,0,0,0-.43-.2l-.33-.1a3,3,0,0,0-.74,0,2.4,2.4,0,0,0-1.17.49,2.26,2.26,0,0,0-.69,2.43,3.1,3.1,0,0,0,.19.48,2.5,2.5,0,0,0,.17.28,3.93,3.93,0,0,0,.27.4c.17.22.32.41.48.58a19.68,19.68,0,0,0,1.82,1.83c1.22,1.12,2.49,2.13,3.77,3.13l1.92,1.46a50.94,50.94,0,0,1,5.39,6.87C39,37,39.79,38.41,40.5,39.78c.16.31.3.62.44.93-1.07-.64-2.15-1.34-3.23-2.06a63.39,63.39,0,0,1-7.43-5.89c-2.35-2.15-4.59-4.4-7-6.55-.3-.27-.61-.53-.94-.8s-.61-.5-1.15-.86a1.88,1.88,0,0,0-.32-.18,2.61,2.61,0,0,0-.48-.19c-.46-.12-2.29-.22-2.6,1.32a2.57,2.57,0,0,0,0,1.66,2.09,2.09,0,0,0,.15.29,2.17,2.17,0,0,0,.17.28c.18.26.32.44.46.61l.81,1c1.09,1.23,2.2,2.37,3.32,3.51,2.24,2.28,4.49,4.53,6.5,7a65.57,65.57,0,0,1,4.44,6.05c-2.27-1.58-4.55-3.28-6.7-5.12-2.44-2-4.72-4.27-7.11-6.43A36.87,36.87,0,0,0,16,31.11c-.2-.13-.41-.26-.67-.4a4.78,4.78,0,0,0-.5-.24c-.13,0-.18-.07-.4-.13l-.29-.06a2.66,2.66,0,0,0-.52,0,2.21,2.21,0,0,0-.8.19,2.33,2.33,0,0,0-.92.73,2.22,2.22,0,0,0-.41,1,2.65,2.65,0,0,0,0,.65,3.17,3.17,0,0,0,.26,1,6.31,6.31,0,0,0,.43.81,20.68,20.68,0,0,0,1.58,2.11c2.12,2.52,4.35,4.79,6.49,7.16a81.28,81.28,0,0,1,5.37,6.53c-.65-.5-1.3-1-2-1.49-2.47-2-4.8-4.16-7.19-6.29l-3.61-3.25c-.62-.54-1.23-1.09-1.92-1.65a12.77,12.77,0,0,0-1.13-.85,7.5,7.5,0,0,0-.82-.48,3.86,3.86,0,0,0-.79-.29L7.76,36a2.89,2.89,0,0,0-.55,0,2.46,2.46,0,0,0-.75.14,3.08,3.08,0,0,0-1,.58,2.77,2.77,0,0,0-.23,3.91,2.72,2.72,0,0,0,2.05.92c.2.1.4.22.62.35.61.37,1.26.79,1.88,1.25C11,44,12.29,45,13.52,46c2.48,2,5,4,7.41,6.08,1.21,1.06,2.43,2.12,3.69,3.16a28.42,28.42,0,0,0,4.21,3,6,6,0,0,0,1.79.67l.44.05a3.28,3.28,0,0,0,.61,0,3.41,3.41,0,0,0,.83-.26,2.87,2.87,0,0,0,.85-.7,2.49,2.49,0,0,0,.46-.88,2.62,2.62,0,0,0,.13-.72,3.58,3.58,0,0,0-.08-.9,6.87,6.87,0,0,0-.71-1.69c-.25-.43-.5-.8-.75-1.16-1-1.42-2.11-2.62-3.18-3.85-1.91-2.07-3.74-4.15-5.52-6.26l1.06.86c2.45,2.06,4.78,4.26,7.37,6.31a25.38,25.38,0,0,0,2.06,1.5,11.54,11.54,0,0,0,1.22.7,4.9,4.9,0,0,0,2,.57,2.76,2.76,0,0,0,1.2-.23A2.6,2.6,0,0,0,39.83,51,2.88,2.88,0,0,0,40,49.06a6.66,6.66,0,0,0-.63-1.62,17.53,17.53,0,0,0-1.45-2.23c-1.82-2.38-3.79-4.47-5.67-6.65,1.12.94,2.23,1.88,3.34,2.85s2.5,2.09,3.89,3.07a13.66,13.66,0,0,0,2.39,1.36,5.74,5.74,0,0,0,.88.28,3.06,3.06,0,0,0,1.63,0A2.51,2.51,0,0,0,46,44.57a2.67,2.67,0,0,0,.14-.56,3.49,3.49,0,0,0-.09-1.32A9.61,9.61,0,0,0,44.89,40c-.44-.74-.94-1.41-1.42-2.08-.65-.87-1.31-1.7-2-2.53a39.31,39.31,0,0,0,5.28,3.43,9.62,9.62,0,0,0,1.29.56,5.9,5.9,0,0,0,1.82.37,3,3,0,0,0,1.79-.57,2.66,2.66,0,0,0,1-1.89,4.73,4.73,0,0,0-.29-2A18.07,18.07,0,0,0,50,30.93a21,21,0,0,0,3.61,2,7.93,7.93,0,0,0,1.47.48,4.4,4.4,0,0,0,2.35-.07A3,3,0,0,0,59,32.12a5,5,0,0,0,.4-.88,3.41,3.41,0,0,0,.11-.73A3.71,3.71,0,0,0,59.41,29.35Z"/></g></g></svg>