<svg xmlns="http://www.w3.org/2000/svg" viewBox="0 0 64 64"><defs><style>.cls-1,.cls-2{fill:#1a1a1a;}.cls-1{opacity:0;}.cls-3{fill:#abc0c9;}.cls-4{fill:#d3dee3;}</style></defs><title>Silverware Outline</title><g id="Layer_2" data-name="Layer 2"><g id="Layer_3" data-name="Layer 3"><rect class="cls-1" width="64" height="64"/><path class="cls-2" d="M31.26,4.72A4.72,4.72,0,0,0,28.52.94,4.58,4.58,0,0,0,26.1.54a6.93,6.93,0,0,1-1.34.14c-.43-.05-.84-.16-1.27-.17-.78,0-1.56.2-2.3.14a11.72,11.72,0,0,0-2-.13,8.47,8.47,0,0,1-1.48.16A9.84,9.84,0,0,0,16.51.51a4.79,4.79,0,0,0-2.42.67A5.25,5.25,0,0,0,11.73,5.5q-.36,3.31-.68,6.63A69.39,69.39,0,0,0,10.39,21a11.41,11.41,0,0,0,3.4,8.26c.4.36,1,.61,1.14,1.09a5.09,5.09,0,0,1-.07,1.29L14.24,44.2c-.18,3.55-.37,7.11-.53,10.66a8.11,8.11,0,0,0,2.84,6.86,7.94,7.94,0,0,0,10.58-.54c2.93-3,2.21-7,2-10.74l-.69-13.78-.26-5.21a3.86,3.86,0,0,1-.06-1.17c.16-.48,1.09-1,1.49-1.35,4.51-4.52,2.89-11.81,2.33-17.47C31.74,9.21,31.51,7,31.26,4.72Z"/><path class="cls-2" d="M53.62,33.05a72.16,72.16,0,0,0-3-18.38,56.59,56.59,0,0,0-4.49-10.9A5.49,5.49,0,0,0,41.86.55a5.2,5.2,0,0,0-4.5,1.76c-1.87,2.16-1.25,5.95-1.25,8.61V25q0,9,0,18.1c0,4.16,0,8.31,0,12.46a7.84,7.84,0,0,0,3.11,6.46,7.65,7.65,0,0,0,10.1-1c3.09-3.41,1.63-8.74,1.21-12.87l-.7-6.89a7.82,7.82,0,0,1-.18-1.86c.11-.65,1.33-1,1.87-1.47A6.4,6.4,0,0,0,53.62,33.05Z"/><path class="cls-3" d="M21.54,59.51h0a3.86,3.86,0,0,1-3.86-4l1.49-29.85h4.74L25.4,55.46A3.86,3.86,0,0,1,21.54,59.51Z"/><path class="cls-3" d="M28.68,19.77c-.05-1.35-.61-7.45-1.39-14.62a.73.73,0,0,0-.72-.64h0a.72.72,0,0,0-.72.72V16.55a.58.58,0,0,1-.58.58H24.7a.58.58,0,0,1-.57-.58V5.09a.58.58,0,0,0-.58-.58H23a.58.58,0,0,0-.58.58V16.55a.58.58,0,0,1-.58.58h-.56a.58.58,0,0,1-.58-.58V5.09a.58.58,0,0,0-.58-.58h-.57a.57.57,0,0,0-.57.58V16.55a.58.58,0,0,1-.58.58h-.57a.58.58,0,0,1-.58-.58V5.23a.72.72,0,0,0-.72-.72h0a.72.72,0,0,0-.71.64c-.79,7.17-1.35,13.27-1.4,14.62-.25,6.15,3,8.2,7.14,8.2S28.94,25.92,28.68,19.77Z"/><path class="cls-4" d="M21.05,52.88l.35-21.16A1.72,1.72,0,0,0,19.67,30a1.81,1.81,0,0,0-.73.16L17.73,54.4a2,2,0,0,0,1.29.48A2,2,0,0,0,21.05,52.88Z"/><path class="cls-3" d="M43.73,59.51h0a3.58,3.58,0,0,1-3.58-3.58l0-30.32h4.16l3,30A3.58,3.58,0,0,1,43.73,59.51Z"/><path class="cls-3" d="M42.28,5.11a1.16,1.16,0,0,0-2.17.56V38h2.83l5.4-2.7a2.32,2.32,0,0,0,1.28-2.15C49.48,28.89,48.54,16.17,42.28,5.11Z"/><path class="cls-4" d="M44.48,9.54l-4.37,7.57V37.58l0,16.78A1.88,1.88,0,0,0,43.33,53V32l5.18-9A61.79,61.79,0,0,0,44.48,9.54Z"/></g></g></svg>