<svg xmlns="http://www.w3.org/2000/svg" viewBox="0 0 64 64"><defs><style>.cls-1{fill:#1a1a1a;opacity:0;}.cls-2{fill:#abc0c9;}.cls-3{fill:#d3dee3;}</style></defs><title>Silverware</title><g id="Layer_2" data-name="Layer 2"><g id="Layer_3" data-name="Layer 3"><rect class="cls-1" width="64" height="64"/><path class="cls-2" d="M21.54,59.51h0a3.86,3.86,0,0,1-3.86-4l1.49-29.85h4.74L25.4,55.46A3.86,3.86,0,0,1,21.54,59.51Z"/><path class="cls-2" d="M28.68,19.77c-.05-1.35-.61-7.45-1.39-14.62a.73.73,0,0,0-.72-.64h0a.72.72,0,0,0-.72.72V16.55a.58.58,0,0,1-.58.58H24.7a.58.58,0,0,1-.57-.58V5.09a.58.58,0,0,0-.58-.58H23a.58.58,0,0,0-.58.58V16.55a.58.58,0,0,1-.58.58h-.56a.58.58,0,0,1-.58-.58V5.09a.58.58,0,0,0-.58-.58h-.57a.57.57,0,0,0-.57.58V16.55a.58.58,0,0,1-.58.58h-.57a.58.58,0,0,1-.58-.58V5.23a.72.72,0,0,0-.72-.72h0a.72.72,0,0,0-.71.64c-.79,7.17-1.35,13.27-1.4,14.62-.25,6.15,3,8.2,7.14,8.2S28.94,25.92,28.68,19.77Z"/><path class="cls-3" d="M21.05,52.88l.35-21.16A1.72,1.72,0,0,0,19.67,30a1.81,1.81,0,0,0-.73.16L17.73,54.4a2,2,0,0,0,1.29.48A2,2,0,0,0,21.05,52.88Z"/><path class="cls-2" d="M43.73,59.51h0a3.58,3.58,0,0,1-3.58-3.58l0-30.32h4.16l3,30A3.58,3.58,0,0,1,43.73,59.51Z"/><path class="cls-2" d="M42.28,5.11a1.16,1.16,0,0,0-2.17.56V38h2.83l5.4-2.7a2.32,2.32,0,0,0,1.28-2.15C49.48,28.89,48.54,16.17,42.28,5.11Z"/><path class="cls-3" d="M44.48,9.54l-4.37,7.57V37.58l0,16.78A1.88,1.88,0,0,0,43.33,53V32l5.18-9A61.79,61.79,0,0,0,44.48,9.54Z"/></g></g></svg>