<svg xmlns="http://www.w3.org/2000/svg" viewBox="0 0 64 64"><defs><style>.cls-1{fill:#1a1a1a;opacity:0;}.cls-2{fill:#fff;}</style></defs><title>Silverware Flat White</title><g id="Layer_2" data-name="Layer 2"><g id="Layer_3" data-name="Layer 3"><rect class="cls-1" width="64" height="64"/><path class="cls-2" d="M27.28,5.14a.72.72,0,0,0-.71-.64h0a.72.72,0,0,0-.72.72V16.54a.58.58,0,0,1-.58.58H24.7a.58.58,0,0,1-.58-.58V5.08a.58.58,0,0,0-.58-.58H23a.58.58,0,0,0-.58.58V16.54a.58.58,0,0,1-.58.58h-.56a.58.58,0,0,1-.58-.58V5.08a.58.58,0,0,0-.58-.58h-.57a.58.58,0,0,0-.58.58V16.54a.58.58,0,0,1-.58.58h-.56a.58.58,0,0,1-.58-.58V5.22a.72.72,0,0,0-.72-.72h0a.73.73,0,0,0-.72.64C15,12.31,14.45,18.41,14.4,19.76c-.2,4.85,1.79,7.14,4.66,7.9L17.68,55.44a3.87,3.87,0,0,0,3.86,4.06h0a3.87,3.87,0,0,0,3.86-4.06L24,27.66c2.88-.76,4.87-3.05,4.67-7.9C28.63,18.41,28.07,12.31,27.28,5.14Z"/><path class="cls-2" d="M42.28,5.1a1.16,1.16,0,0,0-2.17.56V38h0l0,17.9a3.58,3.58,0,1,0,7.15-.37L45.4,36.78l2.94-1.46a2.35,2.35,0,0,0,1.28-2.15C49.48,28.88,48.54,16.16,42.28,5.1Z"/></g></g></svg>